<svg xmlns="http://www.w3.org/2000/svg" xmlns:xlink="http://www.w3.org/1999/xlink" width="93.656" height="93.656" viewBox="0 0 93.656 93.656">
  <defs>
    <filter id="Trazado_982547" x="0" y="0" width="93.656" height="93.656" filterUnits="userSpaceOnUse">
      <feOffset dy="3" input="SourceAlpha"/>
      <feGaussianBlur stdDeviation="3" result="blur"/>
      <feFlood flood-opacity="0.161"/>
      <feComposite operator="in" in2="blur"/>
      <feComposite in="SourceGraphic"/>
    </filter>
  </defs>
  <g id="Grupo_1202302" data-name="Grupo 1202302" transform="translate(-194.001 -672)">
    <g id="Grupo_1201528" data-name="Grupo 1201528" transform="translate(11.001 179.828)">
      <g id="Grupo_1201149" data-name="Grupo 1201149">
        <g id="Grupo_1183673" data-name="Grupo 1183673" transform="translate(-11 -235.188)">
          <g id="Grupo_1182350" data-name="Grupo 1182350" transform="translate(0 -1607.64)">
            <g id="Grupo_1181616" data-name="Grupo 1181616" transform="translate(-1 1254)">
              <g id="Grupo_1180309" data-name="Grupo 1180309" transform="translate(-5.461 -6709)">
                <g id="Grupo_1174894" data-name="Grupo 1174894" transform="translate(11.291 2507.168)">
                  <g id="Grupo_1172067" data-name="Grupo 1172067" transform="translate(198.17 5288.832)">
                    <g id="Grupo_1164308" data-name="Grupo 1164308" transform="translate(0 0)">
                      <g id="Grupo_1163948" data-name="Grupo 1163948" transform="translate(0)">
                        <g id="Grupo_1158168" data-name="Grupo 1158168" transform="translate(0)">
                          <g id="Grupo_1152576" data-name="Grupo 1152576">
                            <g id="Grupo_1148633" data-name="Grupo 1148633">
                              <g id="Grupo_1148525" data-name="Grupo 1148525">
                                <g transform="matrix(1, 0, 0, 1, -9, -6)" filter="url(#Trazado_982547)">
                                  <g id="Trazado_982547-2" data-name="Trazado 982547" transform="translate(9 6)" fill="#f2f7f5">
                                    <path d="M 37.8281364440918 74.15627288818359 C 32.92320251464844 74.15627288818359 28.16579246520996 73.19596862792969 23.68804740905762 71.30204772949219 C 19.36230278015137 69.47240447998047 15.47705841064453 66.85280609130859 12.1402702331543 63.51601409912109 C 8.803469657897949 60.17921447753906 6.1838698387146 56.29397964477539 4.354236602783203 51.96822357177734 C 2.460303068161011 47.49048233032227 1.500003099441528 42.73307037353516 1.500003099441528 37.8281364440918 C 1.500003099441528 32.92321395874023 2.460303068161011 28.16579246520996 4.354236602783203 23.68804740905762 C 6.1838698387146 19.36230278015137 8.803469657897949 15.47706985473633 12.1402702331543 12.1402702331543 C 15.47706985473633 8.803469657897949 19.36230278015137 6.1838698387146 23.68804740905762 4.354236602783203 C 28.16579246520996 2.460303068161011 32.92321395874023 1.500003099441528 37.8281364440918 1.500003099441528 C 42.73307037353516 1.500003099441528 47.49048233032227 2.460303068161011 51.96822357177734 4.354236602783203 C 56.29397964477539 6.1838698387146 60.17921447753906 8.803469657897949 63.51601409912109 12.1402702331543 C 66.85280609130859 15.47705841064453 69.47240447998047 19.36230278015137 71.30204772949219 23.68804740905762 C 73.19596862792969 28.16579246520996 74.15627288818359 32.92320251464844 74.15627288818359 37.8281364440918 C 74.15627288818359 42.73307037353516 73.19596862792969 47.49048233032227 71.30204772949219 51.96822357177734 C 69.47240447998047 56.29397964477539 66.85280609130859 60.17921447753906 63.51601409912109 63.51601409912109 C 60.17921447753906 66.85280609130859 56.29397964477539 69.47240447998047 51.96822357177734 71.30204772949219 C 47.49048233032227 73.19596862792969 42.73307037353516 74.15627288818359 37.8281364440918 74.15627288818359 Z" stroke="none"/>
                                    <path d="M 37.8281364440918 3 C 33.12504959106445 3 28.56423568725586 3.920433044433594 24.27237319946289 5.735733032226562 C 20.12542343139648 7.48974609375 16.40044784545898 10.00139617919922 13.20092391967773 13.20092391967773 C 10.00139617919922 16.40044784545898 7.48974609375 20.12542343139648 5.735733032226562 24.27237319946289 C 3.920433044433594 28.56423568725586 3 33.12504959106445 3 37.8281364440918 C 3 42.53122329711914 3.920433044433594 47.09203720092773 5.735733032226562 51.3838996887207 C 7.48974609375 55.53084945678711 10.00139617919922 59.25582122802734 13.20092391967773 62.45534896850586 C 16.40044784545898 65.65487670898438 20.12542343139648 68.16652679443359 24.27237319946289 69.92053985595703 C 28.56423568725586 71.73583984375 33.12504959106445 72.65627288818359 37.8281364440918 72.65627288818359 C 42.53122329711914 72.65627288818359 47.09203720092773 71.73583984375 51.3838996887207 69.92053985595703 C 55.53084945678711 68.16652679443359 59.25582122802734 65.65487670898438 62.45534896850586 62.45534896850586 C 65.65487670898438 59.25582122802734 68.16652679443359 55.53084945678711 69.92053985595703 51.3838996887207 C 71.73583984375 47.09203720092773 72.65627288818359 42.53122329711914 72.65627288818359 37.8281364440918 C 72.65627288818359 33.12504959106445 71.73583984375 28.56423568725586 69.92053985595703 24.27237319946289 C 68.16652679443359 20.12542343139648 65.65487670898438 16.40044784545898 62.45534896850586 13.20092391967773 C 59.25582122802734 10.00139617919922 55.53084945678711 7.48974609375 51.3838996887207 5.735733032226562 C 47.09203720092773 3.920433044433594 42.53122329711914 3 37.8281364440918 3 M 37.8281364440918 0 C 58.72003555297852 0 75.65627288818359 16.93623733520508 75.65627288818359 37.8281364440918 C 75.65627288818359 58.72003555297852 58.72003555297852 75.65627288818359 37.8281364440918 75.65627288818359 C 16.93623733520508 75.65627288818359 0 58.72003555297852 0 37.8281364440918 C 0 16.93623733520508 16.93623733520508 0 37.8281364440918 0 Z" stroke="none" fill="#4a665c"/>
                                  </g>
                                </g>
                              </g>
                            </g>
                          </g>
                        </g>
                      </g>
                    </g>
                  </g>
                </g>
              </g>
            </g>
          </g>
        </g>
      </g>
    </g>
    <g id="documento-legal" transform="translate(219.001 692.956)">
      <g id="Grupo_1202300" data-name="Grupo 1202300" transform="translate(0.65 0.694)">
        <path id="Trazado_1049763" data-name="Trazado 1049763" d="M386.808,346.831l6.908,5.491a2.574,2.574,0,1,1-3.607,3.616l-5.663-7.218Z" transform="translate(-351.758 -317.409)" fill="#c7865b"/>
        <path id="Trazado_1049764" data-name="Trazado 1049764" d="M388.867,348.469l-2.588,2.587-1.83-2.333,2.361-1.889Z" transform="translate(-351.762 -317.411)" fill="#bf7d51"/>
        <path id="Trazado_1049765" data-name="Trazado 1049765" d="M7.5,11.01a3.487,3.487,0,0,1,3.508-3.467H26.367a2.647,2.647,0,0,1,1.863.764l9.98,9.884a2.585,2.585,0,0,1,.769,1.837V41.668L38.111,42l.867.368v3.246a3.489,3.489,0,0,1-3.536,3.466l-15.29-.107H11.008A3.488,3.488,0,0,1,7.5,45.507Z" transform="translate(-7.5 -7.543)" fill="#e1ebf0"/>
        <path id="Trazado_1049766" data-name="Trazado 1049766" d="M9.234,11.011v34.5a3.488,3.488,0,0,0,3.508,3.467H11.008A3.488,3.488,0,0,1,7.5,45.507v-34.5a3.488,3.488,0,0,1,3.508-3.467h1.734a3.488,3.488,0,0,0-3.508,3.467Z" transform="translate(-7.5 -7.544)" fill="#d2e4e7"/>
        <path id="Trazado_1049767" data-name="Trazado 1049767" d="M168.986,485.4c-.1.008-.2.011-.295.01L153.4,485.3h1.734Z" transform="translate(-140.748 -443.874)" fill="#b4d2d7"/>
        <path id="Trazado_1049768" data-name="Trazado 1049768" d="M248.944,21.428h-8.912a2.361,2.361,0,0,1-2.372-2.349V10.254a2.6,2.6,0,0,1,.771.528l9.979,9.885A2.577,2.577,0,0,1,248.944,21.428Z" transform="translate(-217.701 -10.019)" fill="#d2e4e7"/>
        <g id="Grupo_1202296" data-name="Grupo 1202296" transform="translate(5.269 10.828)">
          <path id="Trazado_1049769" data-name="Trazado 1049769" d="M78.892,133.7H68.911a.65.65,0,1,1,0-1.3h9.981a.65.65,0,1,1,0,1.3Z" transform="translate(-68.261 -132.404)" fill="#b4d2d7"/>
        </g>
        <g id="Grupo_1202297" data-name="Grupo 1202297" transform="translate(5.269 26.437)">
          <path id="Trazado_1049770" data-name="Trazado 1049770" d="M79.759,313.7H68.911a.65.65,0,1,1,0-1.3H79.759a.65.65,0,1,1,0,1.3Z" transform="translate(-68.261 -312.404)" fill="#b4d2d7"/>
        </g>
        <g id="Grupo_1202298" data-name="Grupo 1202298" transform="translate(5.094 21.234)">
          <path id="Trazado_1049771" data-name="Trazado 1049771" d="M82.147,253.7H66.888a.65.65,0,0,1,0-1.3H82.147a.65.65,0,0,1,0,1.3Z" transform="translate(-66.238 -252.404)" fill="#b4d2d7"/>
        </g>
        <g id="Grupo_1202299" data-name="Grupo 1202299" transform="translate(5.094 31.64)">
          <path id="Trazado_1049772" data-name="Trazado 1049772" d="M79.546,373.7H66.888a.65.65,0,0,1,0-1.3H79.546a.65.65,0,0,1,0,1.3Z" transform="translate(-66.238 -372.404)" fill="#b4d2d7"/>
        </g>
        <path id="Trazado_1049773" data-name="Trazado 1049773" d="M306.13,259.249l-6.642,6.638-3.769-2.9-2.75-3.616,6.66-6.656,4.269,3.42Z" transform="translate(-268.215 -231.453)" fill="#f5de46"/>
        <path id="Trazado_1049774" data-name="Trazado 1049774" d="M0,0H1.84V9.217H0Z" transform="translate(24.75 27.917) rotate(-45)" fill="#f3d332"/>
        <path id="Trazado_1049775" data-name="Trazado 1049775" d="M270.574,334.046h0a1.518,1.518,0,0,1-2.1.235l-6.643-6.643a1.514,1.514,0,0,1,.234-2.1h0a1.516,1.516,0,0,1,2.1-.235l.063.063,6.519,6.517.062.062A1.514,1.514,0,0,1,270.574,334.046Z" transform="translate(-239.473 -297.447)" fill="#c7865b"/>
        <path id="Trazado_1049776" data-name="Trazado 1049776" d="M271.067,333.977a1.936,1.936,0,0,1-.493.808h0a1.518,1.518,0,0,1-2.1.235l-6.643-6.643a1.514,1.514,0,0,1,.234-2.1h0a1.943,1.943,0,0,1,.808-.492,1.272,1.272,0,0,0,.258,1.294l6.643,6.643A1.278,1.278,0,0,0,271.067,333.977Z" transform="translate(-239.473 -298.187)" fill="#bf7d51"/>
        <path id="Trazado_1049777" data-name="Trazado 1049777" d="M374.215,230.14h0a1.5,1.5,0,0,1-2.1.234l-.051-.051-6.5-6.535-.073-.074a1.526,1.526,0,0,1,.234-2.109h0a1.5,1.5,0,0,1,2.1-.235l6.625,6.661a1.524,1.524,0,0,1-.235,2.108Z" transform="translate(-334.151 -202.528)" fill="#c7865b"/>
        <path id="Trazado_1049778" data-name="Trazado 1049778" d="M374.705,230.057a1.95,1.95,0,0,1-.49.806h0a1.5,1.5,0,0,1-2.1.234l-.051-.051-6.5-6.535-.073-.074a1.526,1.526,0,0,1,.234-2.109h0a1.938,1.938,0,0,1,.811-.5,1.285,1.285,0,0,0,.255,1.3l.073.074,6.5,6.535.051.051a1.263,1.263,0,0,0,1.287.26Z" transform="translate(-334.151 -203.251)" fill="#bf7d51"/>
        <path id="Trazado_1049779" data-name="Trazado 1049779" d="M153.154,441.65v-1.561a1.734,1.734,0,0,1,1.734-1.734H162.9a1.734,1.734,0,0,1,1.734,1.734v1.561Z" transform="translate(-140.523 -400.996)" fill="#c7865b"/>
        <path id="Trazado_1049780" data-name="Trazado 1049780" d="M164.618,439.906H155.1a.174.174,0,0,1-.169-.215,1.735,1.735,0,0,1,1.688-1.338h-1.734a1.735,1.735,0,0,0-1.725,1.552h0v0s0,.007,0,.01c-.005.056-.009.113-.009.17v1.561h11.477v-1.561A1.807,1.807,0,0,0,164.618,439.906Z" transform="translate(-140.52 -400.995)" fill="#bf7d51"/>
        <path id="Trazado_1049781" data-name="Trazado 1049781" d="M147.378,474.134H133.24a.434.434,0,0,1-.434-.434v-.711a1.734,1.734,0,0,1,1.734-1.734h11.537a1.734,1.734,0,0,1,1.734,1.734v.711A.434.434,0,0,1,147.378,474.134Z" transform="translate(-121.94 -431.043)" fill="#c7865b"/>
        <path id="Trazado_1049782" data-name="Trazado 1049782" d="M136.279,468.514a1.736,1.736,0,0,0-1.734,1.734v.711a.433.433,0,0,0,.434.434h-1.734a.433.433,0,0,1-.434-.434v-.711a1.734,1.734,0,0,1,1.734-1.734h.029l.8-.26Z" transform="translate(-121.943 -428.302)" fill="#bf7d51"/>
      </g>
      <g id="Grupo_1202301" data-name="Grupo 1202301" transform="translate(0 0.044)">
        <path id="Trazado_1049783" data-name="Trazado 1049783" d="M68.911,133.7h9.981a.65.65,0,1,0,0-1.3H68.911a.65.65,0,1,0,0,1.3Z" transform="translate(-62.342 -120.926)"/>
        <path id="Trazado_1049784" data-name="Trazado 1049784" d="M68.911,312.4a.65.65,0,1,0,0,1.3H79.759a.65.65,0,1,0,0-1.3Z" transform="translate(-62.342 -285.317)"/>
        <path id="Trazado_1049785" data-name="Trazado 1049785" d="M218.284,193.7a.65.65,0,1,0,0-1.3H211.15a.65.65,0,1,0,0,1.3Z" transform="translate(-192.246 -175.723)"/>
        <path id="Trazado_1049786" data-name="Trazado 1049786" d="M66.888,193.7h9.475a.65.65,0,1,0,0-1.3H66.888a.65.65,0,1,0,0,1.3Z" transform="translate(-60.494 -175.723)"/>
        <path id="Trazado_1049787" data-name="Trazado 1049787" d="M66.888,253.7H82.147a.65.65,0,0,0,0-1.3H66.888a.65.65,0,0,0,0,1.3Z" transform="translate(-60.494 -230.52)"/>
        <path id="Trazado_1049788" data-name="Trazado 1049788" d="M66.888,373.7H79.546a.65.65,0,0,0,0-1.3H66.888a.65.65,0,0,0,0,1.3Z" transform="translate(-60.494 -340.114)"/>
        <path id="Trazado_1049789" data-name="Trazado 1049789" d="M44.393,37.383a3.132,3.132,0,0,0-1.387-2.29l-5.654-4.47,1.285-1.285a1.886,1.886,0,0,0,.815.182h0a2.47,2.47,0,0,0,1.722-.755l0,0a2.17,2.17,0,0,0,.23-3.022l-6.625-6.66a2.005,2.005,0,0,0-2.354-.255V13.179a3.214,3.214,0,0,0-.962-2.3L21.491,1a3.276,3.276,0,0,0-2.32-.952H4.158A4.143,4.143,0,0,0,0,4.161V6.572a.65.65,0,1,0,1.3,0V4.161A2.84,2.84,0,0,1,4.158,1.345L19.612,1.4V9.755a3.014,3.014,0,0,0,3.022,3h8.449l.049,7.592a2.068,2.068,0,0,0,.08,1.543l-5.873,5.87a2.289,2.289,0,0,0-2.555.559,2.163,2.163,0,0,0-.239,3.027l6.644,6.642a1.934,1.934,0,0,0,1.943.416,2.932,2.932,0,0,1-.829,2.344,2.845,2.845,0,0,1-2.052.833l-1.332-.01a2.4,2.4,0,0,0-1.511-1.234v-.551A2.387,2.387,0,0,0,23.023,37.4H15.015a2.387,2.387,0,0,0-2.385,2.385v.551a2.394,2.394,0,0,0-1.459,1.136H4.158A2.84,2.84,0,0,1,1.3,38.658V9.605a.65.65,0,1,0-1.3,0V38.658a4.143,4.143,0,0,0,4.158,4.117h6.708v.577a1.085,1.085,0,0,0,1.084,1.084h2.965a.65.65,0,1,0,0-1.3H12.167v-.494a1.085,1.085,0,0,1,1.084-1.084H24.788a1.085,1.085,0,0,1,1.084,1.084v.494H17.951a.65.65,0,1,0,0,1.3h8.138a1.085,1.085,0,0,0,1.084-1.084v-.477l1.1.008a4.152,4.152,0,0,0,2.946-1.211,4.068,4.068,0,0,0,1.213-2.906V37.5a2.213,2.213,0,0,0,.343-2.305l1.249-1.248,4.461,5.671c1.6,1.944,3.227,1.748,4.825.3a3.312,3.312,0,0,0,1.083-2.542ZM15.016,38.7h8.008a1.085,1.085,0,0,1,1.084,1.084v.468H13.932v-.468A1.085,1.085,0,0,1,15.016,38.7ZM32.689,20.231c.34-.313.792-.534,1.175-.234l6.625,6.66c.253.255.144.812-.234,1.192-.35.33-.864.559-1.228.182l-2.454-2.467a.65.65,0,1,0-.922.917l2,2.008c-1.722,1.719-4,4-5.723,5.72l-5.6-5.6,5.739-5.736,1.428,1.435a.65.65,0,1,0,.922-.917l-1.889-1.9c-.345-.272-.244-.844.163-1.265ZM20.913,9.755v-7.5l9.288,9.2H22.634a1.712,1.712,0,0,1-1.721-1.7Zm9.195,27.314-6.644-6.642c-.3-.383-.08-.837.231-1.179.413-.4.983-.511,1.251-.176l6.58,6.579c.3.384.078.842-.235,1.183-.378.378-.931.487-1.184.235Zm12.281,1.938a1.7,1.7,0,0,1-2.876-.184l-4.561-5.8,1.475-1.474,5.779,4.569a1.711,1.711,0,0,1,.184,2.888Z" transform="translate(0 -0.044)"/>
      </g>
    </g>
  </g>
</svg>
