<svg xmlns="http://www.w3.org/2000/svg" xmlns:xlink="http://www.w3.org/1999/xlink" width="93.656" height="93.656" viewBox="0 0 93.656 93.656">
  <defs>
    <filter id="Trazado_982547" x="0" y="0" width="93.656" height="93.656" filterUnits="userSpaceOnUse">
      <feOffset dy="3" input="SourceAlpha"/>
      <feGaussianBlur stdDeviation="3" result="blur"/>
      <feFlood flood-opacity="0.161"/>
      <feComposite operator="in" in2="blur"/>
      <feComposite in="SourceGraphic"/>
    </filter>
  </defs>
  <g id="Grupo_1202306" data-name="Grupo 1202306" transform="translate(-194.576 -801.331)">
    <g id="Grupo_1201530" data-name="Grupo 1201530" transform="translate(11.114 179.392)">
      <g id="Grupo_1183674" data-name="Grupo 1183674" transform="translate(-11 -235.188)">
        <g id="Grupo_1182352" data-name="Grupo 1182352" transform="translate(0 -1625.054)">
          <g id="Grupo_1181671" data-name="Grupo 1181671" transform="translate(-0.539 1249.182)">
            <g id="Grupo_1180314" data-name="Grupo 1180314" transform="translate(-5.461 -6557)">
              <g id="Grupo_1174894" data-name="Grupo 1174894" transform="translate(11.291 2507.168)">
                <g id="Grupo_1172067" data-name="Grupo 1172067" transform="translate(198.17 5288.832)">
                  <g id="Grupo_1164308" data-name="Grupo 1164308" transform="translate(0 0)">
                    <g id="Grupo_1163948" data-name="Grupo 1163948" transform="translate(0)">
                      <g id="Grupo_1158168" data-name="Grupo 1158168" transform="translate(0)">
                        <g id="Grupo_1152576" data-name="Grupo 1152576">
                          <g id="Grupo_1148633" data-name="Grupo 1148633">
                            <g id="Grupo_1148525" data-name="Grupo 1148525">
                              <g transform="matrix(1, 0, 0, 1, -9, -6)" filter="url(#Trazado_982547)">
                                <g id="Trazado_982547-2" data-name="Trazado 982547" transform="translate(9 6)" fill="#f2f7f5">
                                  <path d="M 37.8281364440918 74.15627288818359 C 32.92320251464844 74.15627288818359 28.16579246520996 73.19596862792969 23.68804740905762 71.30204772949219 C 19.36230278015137 69.47240447998047 15.47705841064453 66.85280609130859 12.1402702331543 63.51601409912109 C 8.803469657897949 60.17921447753906 6.1838698387146 56.29397964477539 4.354236602783203 51.96822357177734 C 2.460303068161011 47.49048233032227 1.500003099441528 42.73307037353516 1.500003099441528 37.8281364440918 C 1.500003099441528 32.92321395874023 2.460303068161011 28.16579246520996 4.354236602783203 23.68804740905762 C 6.1838698387146 19.36230278015137 8.803469657897949 15.47706985473633 12.1402702331543 12.1402702331543 C 15.47706985473633 8.803469657897949 19.36230278015137 6.1838698387146 23.68804740905762 4.354236602783203 C 28.16579246520996 2.460303068161011 32.92321395874023 1.500003099441528 37.8281364440918 1.500003099441528 C 42.73307037353516 1.500003099441528 47.49048233032227 2.460303068161011 51.96822357177734 4.354236602783203 C 56.29397964477539 6.1838698387146 60.17921447753906 8.803469657897949 63.51601409912109 12.1402702331543 C 66.85280609130859 15.47705841064453 69.47240447998047 19.36230278015137 71.30204772949219 23.68804740905762 C 73.19596862792969 28.16579246520996 74.15627288818359 32.92320251464844 74.15627288818359 37.8281364440918 C 74.15627288818359 42.73307037353516 73.19596862792969 47.49048233032227 71.30204772949219 51.96822357177734 C 69.47240447998047 56.29397964477539 66.85280609130859 60.17921447753906 63.51601409912109 63.51601409912109 C 60.17921447753906 66.85280609130859 56.29397964477539 69.47240447998047 51.96822357177734 71.30204772949219 C 47.49048233032227 73.19596862792969 42.73307037353516 74.15627288818359 37.8281364440918 74.15627288818359 Z" stroke="none"/>
                                  <path d="M 37.8281364440918 3 C 33.12504959106445 3 28.56423568725586 3.920433044433594 24.27237319946289 5.735733032226562 C 20.12542343139648 7.48974609375 16.40044784545898 10.00139617919922 13.20092391967773 13.20092391967773 C 10.00139617919922 16.40044784545898 7.48974609375 20.12542343139648 5.735733032226562 24.27237319946289 C 3.920433044433594 28.56423568725586 3 33.12504959106445 3 37.8281364440918 C 3 42.53122329711914 3.920433044433594 47.09203720092773 5.735733032226562 51.3838996887207 C 7.48974609375 55.53084945678711 10.00139617919922 59.25582122802734 13.20092391967773 62.45534896850586 C 16.40044784545898 65.65487670898438 20.12542343139648 68.16652679443359 24.27237319946289 69.92053985595703 C 28.56423568725586 71.73583984375 33.12504959106445 72.65627288818359 37.8281364440918 72.65627288818359 C 42.53122329711914 72.65627288818359 47.09203720092773 71.73583984375 51.3838996887207 69.92053985595703 C 55.53084945678711 68.16652679443359 59.25582122802734 65.65487670898438 62.45534896850586 62.45534896850586 C 65.65487670898438 59.25582122802734 68.16652679443359 55.53084945678711 69.92053985595703 51.3838996887207 C 71.73583984375 47.09203720092773 72.65627288818359 42.53122329711914 72.65627288818359 37.8281364440918 C 72.65627288818359 33.12504959106445 71.73583984375 28.56423568725586 69.92053985595703 24.27237319946289 C 68.16652679443359 20.12542343139648 65.65487670898438 16.40044784545898 62.45534896850586 13.20092391967773 C 59.25582122802734 10.00139617919922 55.53084945678711 7.48974609375 51.3838996887207 5.735733032226562 C 47.09203720092773 3.920433044433594 42.53122329711914 3 37.8281364440918 3 M 37.8281364440918 0 C 58.72003555297852 0 75.65627288818359 16.93623733520508 75.65627288818359 37.8281364440918 C 75.65627288818359 58.72003555297852 58.72003555297852 75.65627288818359 37.8281364440918 75.65627288818359 C 16.93623733520508 75.65627288818359 0 58.72003555297852 0 37.8281364440918 C 0 16.93623733520508 16.93623733520508 0 37.8281364440918 0 Z" stroke="none" fill="#4a665c"/>
                                </g>
                              </g>
                            </g>
                          </g>
                        </g>
                      </g>
                    </g>
                  </g>
                </g>
              </g>
            </g>
          </g>
        </g>
      </g>
    </g>
    <g id="innovacion" transform="translate(216.448 817.853)">
      <path id="Trazado_1049801" data-name="Trazado 1049801" d="M188.352,472.6a4.912,4.912,0,0,0,9.389,0Zm0,0" transform="translate(-168.09 -421.763)" fill="#7b7179"/>
      <path id="Trazado_1049802" data-name="Trazado 1049802" d="M111.864,100.892a16.465,16.465,0,1,0-25.9,13.492,5.122,5.122,0,0,1,2.179,4.2h14.519a5.167,5.167,0,0,1,2.212-4.219,16.444,16.444,0,0,0,6.993-13.468Zm0,0" transform="translate(-70.443 -75.346)" fill="#ffe55a"/>
      <path id="Trazado_1049803" data-name="Trazado 1049803" d="M164.293,374.906h-8.16a5.13,5.13,0,0,1,.9,2.9h14.519a5.11,5.11,0,0,1,.909-2.9Zm0,0" transform="translate(-139.337 -334.576)" fill="#ffd500"/>
      <path id="Trazado_1049804" data-name="Trazado 1049804" d="M176.365,409.512h-9.2a2.661,2.661,0,0,1-2.661-2.661v-4.944h14.519v4.944a2.661,2.661,0,0,1-2.661,2.661Zm0,0" transform="translate(-146.811 -358.673)" fill="#9c8f9a"/>
      <path id="Trazado_1049805" data-name="Trazado 1049805" d="M176.365,423.528h-9.2a2.661,2.661,0,0,1-2.661-2.661v2.9a2.661,2.661,0,0,0,2.661,2.661h9.2a2.661,2.661,0,0,0,2.661-2.661v-2.9A2.661,2.661,0,0,1,176.365,423.528Zm0,0" transform="translate(-146.811 -375.594)" fill="#8c808a"/>
      <path id="Trazado_1049806" data-name="Trazado 1049806" d="M151.731,158.919v-3.3l-2.7-.384a8.482,8.482,0,0,0-.99-2.391l1.64-2.183-2.337-2.337-2.183,1.64a8.5,8.5,0,0,0-2.391-.99l-.384-2.7h-3.3l-.384,2.7a8.508,8.508,0,0,0-2.391.99l-2.183-1.64-2.337,2.337,1.64,2.183a8.507,8.507,0,0,0-.99,2.391l-2.7.384v3.3l2.7.384a8.507,8.507,0,0,0,.99,2.391l-1.64,2.183,2.337,2.337,2.183-1.64a8.494,8.494,0,0,0,2.391.99l.384,2.7h3.3l.384-2.7a8.5,8.5,0,0,0,2.391-.99l2.183,1.64,2.337-2.337-1.64-2.183a8.482,8.482,0,0,0,.99-2.391Zm-11,2.77a4.422,4.422,0,1,1,4.422-4.422A4.422,4.422,0,0,1,140.731,161.688Zm0,0" transform="translate(-115.775 -130.532)" fill="#ff4755"/>
      <path id="Trazado_1049807" data-name="Trazado 1049807" d="M188.615,199.988a5.222,5.222,0,1,0,5.229,5.222A5.231,5.231,0,0,0,188.615,199.988Zm0,8.833a3.611,3.611,0,1,1,3.615-3.61A3.617,3.617,0,0,1,188.615,208.821Zm0,0" transform="translate(-163.659 -178.475)"/>
      <path id="Trazado_1049808" data-name="Trazado 1049808" d="M143.555,143.527l-2.337-2.334a.808.808,0,0,0-1.055-.074l-1.76,1.321a9.3,9.3,0,0,0-1.6-.664l-.309-2.177a.807.807,0,0,0-.8-.693h-3.3a.807.807,0,0,0-.8.693l-.309,2.177a9.3,9.3,0,0,0-1.6.664l-1.76-1.321a.808.808,0,0,0-1.056.074l-2.336,2.334a.805.805,0,0,0-.075,1.054l1.323,1.759a9.282,9.282,0,0,0-.665,1.6l-2.18.309a.806.806,0,0,0-.693.8v3.3a.806.806,0,0,0,.693.8l2.18.309a9.25,9.25,0,0,0,.665,1.6l-1.323,1.759a.805.805,0,0,0,.075,1.054l2.336,2.334a.809.809,0,0,0,1.056.074l1.76-1.321a9.332,9.332,0,0,0,1.6.664l.309,2.177a.807.807,0,0,0,.8.693h3.3a.807.807,0,0,0,.8-.693l.309-2.177a9.336,9.336,0,0,0,1.6-.664l1.76,1.321a.807.807,0,0,0,1.055-.074l2.337-2.334a.805.805,0,0,0,.074-1.054l-1.323-1.759a9.247,9.247,0,0,0,.665-1.6l2.18-.309a.806.806,0,0,0,.694-.8v-3.3a.806.806,0,0,0-.694-.8l-2.18-.309a9.247,9.247,0,0,0-.665-1.6l1.323-1.759A.805.805,0,0,0,143.555,143.527Zm.677,6.221v1.9l-2.01.285a.807.807,0,0,0-.671.606,7.656,7.656,0,0,1-.9,2.162.8.8,0,0,0,.045.9l1.219,1.621-1.346,1.344-1.623-1.218a.807.807,0,0,0-.9-.045,7.7,7.7,0,0,1-2.164.9.807.807,0,0,0-.607.669l-.285,2.007h-1.9l-.285-2.007a.806.806,0,0,0-.607-.669,7.7,7.7,0,0,1-2.164-.9.807.807,0,0,0-.9.045L127.5,158.57l-1.346-1.345,1.219-1.621a.805.805,0,0,0,.045-.9,7.667,7.667,0,0,1-.9-2.162.806.806,0,0,0-.67-.606l-2.01-.285v-1.9l2.01-.285a.806.806,0,0,0,.67-.606,7.664,7.664,0,0,1,.9-2.162.805.805,0,0,0-.045-.9l-1.219-1.621,1.346-1.345,1.623,1.218a.808.808,0,0,0,.9.045,7.676,7.676,0,0,1,2.164-.9.807.807,0,0,0,.607-.67l.285-2.007h1.9l.285,2.007a.808.808,0,0,0,.607.67,7.679,7.679,0,0,1,2.164.9.808.808,0,0,0,.9-.045l1.623-1.218,1.346,1.345-1.219,1.621a.8.8,0,0,0-.045.9,7.666,7.666,0,0,1,.9,2.161.806.806,0,0,0,.67.607Zm0,0" transform="translate(-109.082 -123.964)"/>
      <path id="Trazado_1049809" data-name="Trazado 1049809" d="M225.295,6.338a.806.806,0,0,0,.807-.806V.806a.807.807,0,0,0-1.614,0V5.532A.806.806,0,0,0,225.295,6.338Zm0,0" transform="translate(-200.339 0)"/>
      <path id="Trazado_1049810" data-name="Trazado 1049810" d="M410.527,224.215H405.8a.806.806,0,1,0,0,1.611h4.732a.806.806,0,1,0,0-1.611Zm0,0" transform="translate(-361.423 -200.096)"/>
      <path id="Trazado_1049811" data-name="Trazado 1049811" d="M5.539,224.215H.807a.806.806,0,1,0,0,1.611H5.539a.806.806,0,1,0,0-1.611Zm0,0" transform="translate(0 -200.096)"/>
      <path id="Trazado_1049812" data-name="Trazado 1049812" d="M69.333,70.389a.815.815,0,0,0,1.141,0,.8.8,0,0,0,0-1.14l-3.346-3.342a.807.807,0,0,0-1.141,1.14Zm0,0" transform="translate(-58.678 -58.607)"/>
      <path id="Trazado_1049813" data-name="Trazado 1049813" d="M43.959,153.2l-1.635-.64a.806.806,0,1,0-.589,1.5l1.635.64a.815.815,0,0,0,1.045-.456A.805.805,0,0,0,43.959,153.2Zm0,0" transform="translate(-36.789 -136.097)"/>
      <path id="Trazado_1049814" data-name="Trazado 1049814" d="M153.227,43.51a.815.815,0,0,0,1.045.456.806.806,0,0,0,.457-1.044l-.66-1.681a.807.807,0,0,0-1.5.587Zm0,0" transform="translate(-136.106 -36.347)"/>
      <path id="Trazado_1049815" data-name="Trazado 1049815" d="M290.841,43.967a.815.815,0,0,0,1.045-.456l.66-1.681a.807.807,0,0,0-1.5-.588l-.659,1.681A.806.806,0,0,0,290.841,43.967Zm0,0" transform="translate(-259.097 -36.349)"/>
      <path id="Trazado_1049816" data-name="Trazado 1049816" d="M352.926,70.625a.8.8,0,0,0,.571-.236l3.346-3.341a.806.806,0,0,0-1.141-1.14l-3.346,3.342a.806.806,0,0,0,.571,1.376Zm0,0" transform="translate(-314.241 -58.608)"/>
      <path id="Trazado_1049817" data-name="Trazado 1049817" d="M395.74,153.014a.807.807,0,0,0-1.045-.456l-1.635.64a.805.805,0,0,0-.457,1.044.815.815,0,0,0,1.045.456l1.635-.64A.805.805,0,0,0,395.74,153.014Zm0,0" transform="translate(-350.32 -136.097)"/>
      <path id="Trazado_1049818" data-name="Trazado 1049818" d="M88.852,77.147a17.129,17.129,0,0,0-9.479,2.767.806.806,0,1,0,.878,1.352,15.522,15.522,0,0,1,8.458-2.508h.13a15.635,15.635,0,0,1,8.873,28.432,6,6,0,0,0-2.5,4.066h-2.76a.806.806,0,1,0,0,1.612h2.7V117a1.855,1.855,0,0,1-1.854,1.852h-9.2A1.855,1.855,0,0,1,82.252,117v-4.132h6.974a.806.806,0,1,0,0-1.612H82.195a5.921,5.921,0,0,0-2.466-4.044A15.659,15.659,0,0,1,73.047,94.4a15.489,15.489,0,0,1,4.795-11.216.806.806,0,1,0-1.122-1.158A17.089,17.089,0,0,0,71.433,94.4a17.273,17.273,0,0,0,7.37,14.134,4.311,4.311,0,0,1,1.835,3.531V117a3.47,3.47,0,0,0,2.781,3.395,5.722,5.722,0,0,0,10.57,0A3.47,3.47,0,0,0,96.771,117v-4.938a4.364,4.364,0,0,1,1.87-3.555,17.25,17.25,0,0,0-9.789-31.36ZM88.7,122.313a4.083,4.083,0,0,1-3.435-1.849h6.87A4.083,4.083,0,0,1,88.7,122.313Zm0,0" transform="translate(-63.749 -68.848)"/>
    </g>
  </g>
</svg>
