<svg xmlns="http://www.w3.org/2000/svg" xmlns:xlink="http://www.w3.org/1999/xlink" width="103" height="103" viewBox="0 0 103 103">
  <defs>
    <filter id="Trazado_978624" x="0" y="0" width="103" height="103" filterUnits="userSpaceOnUse">
      <feOffset dy="3" input="SourceAlpha"/>
      <feGaussianBlur stdDeviation="3" result="blur"/>
      <feFlood flood-opacity="0.161"/>
      <feComposite operator="in" in2="blur"/>
      <feComposite in="SourceGraphic"/>
    </filter>
  </defs>
  <g id="Grupo_1201665" data-name="Grupo 1201665" transform="translate(-611 -295)">
    <g id="Grupo_1183928" data-name="Grupo 1183928" transform="translate(420 -18)">
      <g id="Grupo_1182731" data-name="Grupo 1182731">
        <g id="Grupo_1179559" data-name="Grupo 1179559" transform="translate(200 319)">
          <g id="Grupo_1144531" data-name="Grupo 1144531">
            <g transform="matrix(1, 0, 0, 1, -9, -6)" filter="url(#Trazado_978624)">
              <g id="Trazado_978624-2" data-name="Trazado 978624" transform="translate(9 6)" fill="#f1f0f2">
                <path d="M 42.5 83.5 C 36.96437835693359 83.5 31.59512901306152 82.41617584228516 26.54141235351562 80.27863311767578 C 21.65934181213379 78.21369171142578 17.27447128295898 75.25723266601562 13.50862312316895 71.49137878417969 C 9.742764472961426 67.72553253173828 6.786305904388428 63.34066009521484 4.721364498138428 58.45858764648438 C 2.583823442459106 53.40486907958984 1.5 48.03562164306641 1.5 42.5 C 1.5 36.96437835693359 2.583823442459106 31.59512901306152 4.721364498138428 26.54141235351562 C 6.786305904388428 21.65934181213379 9.742764472961426 17.27447128295898 13.50862312316895 13.50862312316895 C 17.27447128295898 9.742764472961426 21.65934181213379 6.786305904388428 26.54141235351562 4.721364498138428 C 31.59512901306152 2.583823442459106 36.96437835693359 1.5 42.5 1.5 C 48.03562164306641 1.5 53.40486907958984 2.583823442459106 58.45858764648438 4.721364498138428 C 63.34066009521484 6.786305904388428 67.72553253173828 9.742764472961426 71.49137878417969 13.50862312316895 C 75.25723266601562 17.27447128295898 78.21369171142578 21.65934181213379 80.27863311767578 26.54141235351562 C 82.41617584228516 31.59512901306152 83.5 36.96437835693359 83.5 42.5 C 83.5 48.03562164306641 82.41617584228516 53.40486907958984 80.27863311767578 58.45858764648438 C 78.21369171142578 63.34066009521484 75.25723266601562 67.72553253173828 71.49137878417969 71.49137878417969 C 67.72553253173828 75.25723266601562 63.34066009521484 78.21369171142578 58.45858764648438 80.27863311767578 C 53.40486907958984 82.41617584228516 48.03562164306641 83.5 42.5 83.5 Z" stroke="none"/>
                <path d="M 42.5 3 C 37.16621398925781 3 31.99356079101562 4.043960571289062 27.125732421875 6.102882385253906 C 22.42246627807617 8.092185974121094 18.19785308837891 10.94070434570312 14.56928253173828 14.56928253173828 C 10.94070434570312 18.19785308837891 8.092185974121094 22.42246627807617 6.102882385253906 27.125732421875 C 4.043960571289062 31.99356079101562 3 37.16621398925781 3 42.5 C 3 47.83378601074219 4.043960571289062 53.00643920898438 6.102882385253906 57.87425231933594 C 8.092185974121094 62.57753372192383 10.94070434570312 66.80213165283203 14.56928253173828 70.43071746826172 C 18.19786834716797 74.05929565429688 22.42246627807617 76.90781402587891 27.125732421875 78.89711761474609 C 31.99356079101562 80.95603942871094 37.16621398925781 82 42.5 82 C 47.83378601074219 82 53.00642395019531 80.95603942871094 57.87425231933594 78.89711761474609 C 62.57753372192383 76.90781402587891 66.80213165283203 74.05929565429688 70.43071746826172 70.43071746826172 C 74.05929565429688 66.80213165283203 76.90781402587891 62.57753372192383 78.89711761474609 57.87425231933594 C 80.95603942871094 53.00642395019531 82 47.83378601074219 82 42.5 C 82 37.16621398925781 80.95603942871094 31.99356079101562 78.89711761474609 27.125732421875 C 76.90781402587891 22.42246627807617 74.05929565429688 18.19786834716797 70.43071746826172 14.56928253173828 C 66.80213165283203 10.94070434570312 62.57753372192383 8.092185974121094 57.87425231933594 6.102882385253906 C 53.00643920898438 4.043960571289062 47.83378601074219 3 42.5 3 M 42.5 0 C 65.97209167480469 0 85 19.02789306640625 85 42.5 C 85 65.97209167480469 65.97209167480469 85 42.5 85 C 19.02789306640625 85 0 65.97209167480469 0 42.5 C 0 19.02789306640625 19.02789306640625 0 42.5 0 Z" stroke="none" fill="#817489"/>
              </g>
            </g>
          </g>
        </g>
      </g>
    </g>
    <g id="Layer_x0020_1" transform="translate(637.89 315)">
      <path id="Trazado_1048372" data-name="Trazado 1048372" d="M32.867,8.2H3.518a3.406,3.406,0,0,1-3.4-3.4V2.067a.672.672,0,0,1,.672-.672H31.03a.672.672,0,0,1,0,1.344H1.46V4.8A2.06,2.06,0,0,0,3.519,6.854H32.867a.672.672,0,0,1,0,1.345Z" transform="translate(0.185 45.471)" fill-rule="evenodd"/>
      <path id="Trazado_1048373" data-name="Trazado 1048373" d="M11.218,5.35H1.206a.672.672,0,0,1-.672-.672V2.067a.672.672,0,0,1,.672-.672H11.219a.673.673,0,0,1,.672.672V4.678a.673.673,0,0,1-.673.672ZM1.878,4.006h8.669V2.739H1.878Z" transform="translate(13.833 45.471)" fill-rule="evenodd"/>
      <path id="Trazado_1048374" data-name="Trazado 1048374" d="M6.243,12.556a6.132,6.132,0,1,1,6.132-6.132A6.139,6.139,0,0,1,6.243,12.556Zm0-10.92a4.789,4.789,0,1,0,4.789,4.789A4.794,4.794,0,0,0,6.243,1.635Z" transform="translate(0 9.475)" fill-rule="evenodd"/>
      <path id="Trazado_1048375" data-name="Trazado 1048375" d="M5.1,6.13A6.1,6.1,0,0,1,.291,3.806.672.672,0,0,1,.267,3,5.9,5.9,0,0,1,9.928,3a.672.672,0,0,1-.024.8A6.1,6.1,0,0,1,5.1,6.13ZM1.692,3.364a4.789,4.789,0,0,0,6.812,0,4.552,4.552,0,0,0-6.812,0Z" transform="translate(1.145 15.901)" fill-rule="evenodd"/>
      <path id="Trazado_1048376" data-name="Trazado 1048376" d="M2.951,5.844A2.74,2.74,0,1,1,5.69,3.1,2.743,2.743,0,0,1,2.951,5.844Zm0-4.135a1.4,1.4,0,1,0,1.4,1.4A1.4,1.4,0,0,0,2.951,1.709Z" transform="translate(3.292 11.889)" fill-rule="evenodd"/>
      <path id="Trazado_1048377" data-name="Trazado 1048377" d="M6.888,12a5.626,5.626,0,1,1,5.626-5.626A5.633,5.633,0,0,1,6.888,12Zm0-9.908a4.282,4.282,0,1,0,4.281,4.281A4.286,4.286,0,0,0,6.888,2.09Z" transform="translate(37.534 24.335)" fill-rule="evenodd"/>
      <path id="Trazado_1048378" data-name="Trazado 1048378" d="M2.851,7.106A1.483,1.483,0,0,1,1.358,5.62V2.311A1.492,1.492,0,0,1,3.593,1.019L6.454,2.671a1.493,1.493,0,0,1,0,2.584L3.594,6.907a1.49,1.49,0,0,1-.742.2Zm0-4.941a.146.146,0,0,0-.147.153v3.3a.147.147,0,0,0,.149.148.138.138,0,0,0,.071-.02L5.783,4.09a.149.149,0,0,0,0-.256L2.922,2.184a.141.141,0,0,0-.074-.019Z" transform="translate(40.667 26.744)" fill-rule="evenodd"/>
      <path id="Trazado_1048379" data-name="Trazado 1048379" d="M12.354,15.034a.67.67,0,0,1-.324-.084L8.76,13.15A6.533,6.533,0,0,1,1.2,6.7a6.529,6.529,0,1,1,11.909,3.7l-.08,3.973a.673.673,0,0,1-.671.659ZM8.875,11.775a.67.67,0,0,1,.324.084L11.7,13.238l.062-3.07a.673.673,0,0,1,.131-.386,5.185,5.185,0,1,0-4.172,2.106,5.239,5.239,0,0,0,1.018-.1.643.643,0,0,1,.131-.014Z" transform="translate(35.426 5.671)" fill-rule="evenodd"/>
      <path id="Trazado_1048380" data-name="Trazado 1048380" d="M7.569,1.681H1.96a.672.672,0,0,1,0-1.344h5.61a.672.672,0,0,1,0,1.344Z" transform="translate(38.388 10.977)" fill-rule="evenodd"/>
      <path id="Trazado_1048381" data-name="Trazado 1048381" d="M7.57,1.761H1.96a.672.672,0,0,1,0-1.344H7.57a.672.672,0,0,1,0,1.344Z" transform="translate(38.388 13.598)" fill-rule="evenodd"/>
      <path id="Trazado_1048382" data-name="Trazado 1048382" d="M5.734,1.612H1.994a.672.672,0,1,1,0-1.344h3.74a.672.672,0,0,1,0,1.344Z" transform="translate(39.5 8.75)" fill-rule="evenodd"/>
      <path id="Trazado_1048383" data-name="Trazado 1048383" d="M18.324,12.49,12.762,2.857a.664.664,0,0,0-1.149.664l1.939,3.358a.672.672,0,1,1-1.165.672L10.442,4.181A.664.664,0,0,0,9.3,4.857l1.939,3.358a.672.672,0,0,1-1.164.672L8.127,5.514a.664.664,0,0,0-1.141.678L8.924,9.551a.672.672,0,0,1-1.164.672L3.473,2.8a.664.664,0,0,0-1.15.665c.929,1.611,3.949,7.02,4.816,8.182a.673.673,0,0,1-.767,1.049c-1.965-.7-3.2-1.117-3.568-.876,0,.006-.108.694,1.159,1.458l4.111,2.643A8.8,8.8,0,0,0,12.4,17.093a.672.672,0,0,1,.561.336l1.4,2.425a.672.672,0,0,1-1.164.673l-1.217-2.108A9.8,9.8,0,0,1,7.33,17.036L3.271,14.425a3.614,3.614,0,0,1-1.791-2.285,1.411,1.411,0,0,1,.488-1.376c.679-.533,1.8-.369,3.028.012L1.159,4.133A2.008,2.008,0,0,1,4.636,2.125l1.4,2.426A2,2,0,0,1,7.968,3.9,2,2,0,0,1,10.281,2.56a2.009,2.009,0,0,1,3.644-.376l5.547,9.608a2.7,2.7,0,0,1,.269,2.1l1.14,1.974a.672.672,0,0,1-1.164.672l-1.3-2.258c-.328-.569.422-.933-.09-1.792Z" transform="translate(25.279 36.475)" fill-rule="evenodd"/>
      <path id="Trazado_1048384" data-name="Trazado 1048384" d="M4.431,3.41A4.783,4.783,0,0,0,7,2.058a4.552,4.552,0,0,0-6.809,0A4.784,4.784,0,0,0,2.765,3.411a4.834,4.834,0,0,0,.831.072,4.833,4.833,0,0,0,.8-.066l.038-.007Z" transform="translate(2.647 17.205)" fill="#8dbd57" fill-rule="evenodd"/>
      <path id="Trazado_1048385" data-name="Trazado 1048385" d="M1.647,3.2a1.4,1.4,0,1,0-1.4-1.4A1.4,1.4,0,0,0,1.647,3.2Z" transform="translate(4.596 13.193)" fill="#ffe5c1" fill-rule="evenodd"/>
      <path id="Trazado_1048386" data-name="Trazado 1048386" d="M4.939,1.474A2.738,2.738,0,0,1,7.022,5.991a5.912,5.912,0,0,1,2.134,1.4A4.788,4.788,0,1,0,.15,5.119,4.759,4.759,0,0,0,.721,7.386a5.912,5.912,0,0,1,2.134-1.4A2.738,2.738,0,0,1,4.939,1.474Z" transform="translate(1.304 10.78)" fill="#ffe5c1" fill-rule="evenodd"/>
      <path id="Trazado_1048387" data-name="Trazado 1048387" d="M21.143,22.9h0ZM6.29,2.43A2.615,2.615,0,0,1,6.417.735H2.368A2.14,2.14,0,0,0,.23,2.873V22.9H26.143l-.979-1.695H2.6a.672.672,0,0,1-.672-.672V3.1A.672.672,0,0,1,2.6,2.43H6.29Z" transform="translate(3.908 23.967)" fill="#7a7a7a" fill-rule="evenodd"/>
      <path id="Trazado_1048388" data-name="Trazado 1048388" d="M13.55,4.046a.672.672,0,0,1-.672-.672V1.435H.156V3.493A2.06,2.06,0,0,0,2.214,5.55H29.276L27.06,4.124A3.614,3.614,0,0,1,25.269,1.84a2.024,2.024,0,0,1-.012-.405H24.234V3.374a.673.673,0,0,1-.673.672H13.55Z" transform="translate(1.49 46.775)" fill="#5e5d5d" fill-rule="evenodd"/>
      <path id="Trazado_1048389" data-name="Trazado 1048389" d="M.575,2.7H9.243V1.435H.575Z" transform="translate(15.137 46.775)" fill="#545353" fill-rule="evenodd"/>
      <path id="Trazado_1048390" data-name="Trazado 1048390" d="M1.4,1.014v3.3a.147.147,0,0,0,.149.148.138.138,0,0,0,.071-.02l2.86-1.651a.149.149,0,0,0,0-.256L1.618.879A.141.141,0,0,0,1.545.86a.146.146,0,0,0-.147.153Z" transform="translate(41.971 28.048)" fill="#ffe470" fill-rule="evenodd"/>
      <path id="Trazado_1048391" data-name="Trazado 1048391" d="M5.421,2.124,8.282,3.776a1.493,1.493,0,0,1,0,2.584L5.422,8.012A1.491,1.491,0,0,1,3.186,6.725V3.416A1.492,1.492,0,0,1,5.422,2.124ZM1.3,5.068A4.282,4.282,0,1,0,5.583.787,4.286,4.286,0,0,0,1.3,5.068Z" transform="translate(38.839 25.638)" fill="#eb5468" fill-rule="evenodd"/>
      <path id="Trazado_1048392" data-name="Trazado 1048392" d="M13.113,18.645l5.51-3.181a.705.705,0,0,1-.2-.229l-1.3-2.258c-.328-.569.422-.933-.09-1.792L11.463,1.551a.664.664,0,0,0-1.149.664l1.939,3.358a.672.672,0,1,1-1.165.672L9.143,2.876A.664.664,0,0,0,8,3.551L9.939,6.909a.672.672,0,0,1-1.164.672L6.828,4.209A.706.706,0,0,0,6.7,4.043a.672.672,0,0,1-.131-.091.673.673,0,0,0-.877.934L7.626,8.245a.672.672,0,0,1-1.164.672L2.174,1.491a.664.664,0,0,0-1.15.665C1.473,2.934,2.41,4.6,3.356,6.242a.672.672,0,0,1,.178.308C4.486,8.2,5.418,9.772,5.84,10.337a.673.673,0,0,1-.767,1.049c-1.965-.7-3.2-1.117-3.568-.876,0,.006-.108.694,1.159,1.458l4.111,2.643A8.8,8.8,0,0,0,11.1,15.787a.672.672,0,0,1,.561.336l1.4,2.425a.807.807,0,0,1,.048.1Z" transform="translate(26.578 37.78)" fill="#ffc6b9" fill-rule="evenodd"/>
      <path id="Trazado_1048393" data-name="Trazado 1048393" d="M3.617,7.041h5.61a.672.672,0,0,1,0,1.344H3.617a.672.672,0,0,1,0-1.344ZM1.237,5.4a5.19,5.19,0,0,0,6.2,5.085.643.643,0,0,1,.131-.014.67.67,0,0,1,.324.084L10.4,11.933l.062-3.07a.673.673,0,0,1,.131-.386A5.185,5.185,0,1,0,1.237,5.4Zm7.99.284H3.617a.672.672,0,0,1,0-1.344h5.61a.672.672,0,0,1,0,1.344ZM8.5,3.388H4.341a.672.672,0,1,1,0-1.344H8.5a.672.672,0,0,1,0,1.344Z" transform="translate(36.731 6.975)" fill="#1ab193" fill-rule="evenodd"/>
      <path id="Trazado_1048394" data-name="Trazado 1048394" d="M28.611,25.548H.862a.673.673,0,0,1-.672-.672V4.177A3.485,3.485,0,0,1,3.672.7H9.183A.672.672,0,0,1,9.518,1.95a1.282,1.282,0,0,0-.62.788,1.261,1.261,0,0,0,.124.962L10.41,6.1a1.3,1.3,0,0,0,1.765.473L16.3,4.194l-.54-.936a.672.672,0,0,1,1.164-.672l.661,1.145,9.332-.887L26.261,1.7A.672.672,0,0,1,26.843.7h4.342A3.512,3.512,0,0,1,34.693,4.2v11.75a.672.672,0,0,1-1.344,0V4.2a2.167,2.167,0,0,0-2.164-2.164H28.007l.6,1.037a.671.671,0,0,1-.518,1L17.43,5.095,12.847,7.74a2.641,2.641,0,0,1-3.6-.965l-1.387-2.4A2.592,2.592,0,0,1,7.6,2.391a2.671,2.671,0,0,1,.121-.352H3.672A2.14,2.14,0,0,0,1.534,4.177V24.2H28.612a.672.672,0,0,1,0,1.344Z" transform="translate(2.604 22.663)" fill-rule="evenodd"/>
      <path id="Trazado_1048395" data-name="Trazado 1048395" d="M23.909,19.561H.952a.672.672,0,0,1-.672-.672V1.458A.672.672,0,0,1,.952.786H5.7a.671.671,0,0,1,.582.336L7.461,3.156a1.3,1.3,0,0,0,1.765.473L13.785,1a.644.644,0,0,1,.467-.211H28.033a.672.672,0,0,1,.672.672v14.16a.672.672,0,0,1-1.344,0V2.13H14.511L9.9,4.793a2.642,2.642,0,0,1-3.6-.965l-.981-1.7H1.624V18.217H23.908a.672.672,0,0,1,0,1.344Z" transform="translate(5.552 25.611)" fill-rule="evenodd"/>
      <path id="Trazado_1048396" data-name="Trazado 1048396" d="M3.992,2.43a.672.672,0,0,1,.672.672V15.237a2,2,0,0,1,1.3-.168,2.011,2.011,0,0,1,.393-.7V2.9A2.167,2.167,0,0,0,4.2.735H1.018l.6,1.037a.671.671,0,0,1,.015.644l-.007.014H3.992Z" transform="translate(29.594 23.966)" fill="#7a7a7a" fill-rule="evenodd"/>
      <path id="Trazado_1048397" data-name="Trazado 1048397" d="M4.433,10.723A2.648,2.648,0,0,1,2.145,9.407L.757,7a2.615,2.615,0,0,1,.957-3.569L6.444.7A.672.672,0,0,1,7.361.95L10.7,6.735a.672.672,0,0,1-.246.918l-4.71,2.719a2.633,2.633,0,0,1-1.313.351Zm2.1-8.52L2.386,4.6a1.27,1.27,0,0,0-.465,1.733l1.388,2.4a1.3,1.3,0,0,0,1.124.644,1.281,1.281,0,0,0,.641-.172L9.2,6.824,6.534,2.2Z" transform="translate(9.705 20.032)" fill-rule="evenodd"/>
      <path id="Trazado_1048398" data-name="Trazado 1048398" d="M4.59,16.322a.671.671,0,0,1-.582-.336L.668,10.2A.672.672,0,0,1,.7,9.476L6.994.634a.672.672,0,0,1,1.13.053l7.851,13.6a.672.672,0,0,1-.518,1l-10.8,1.028a.508.508,0,0,1-.064,0ZM2.048,9.9,4.956,14.94l9.332-.888L7.482,2.265,2.048,9.9Z" transform="translate(15.235 11.452)" fill-rule="evenodd"/>
      <path id="Trazado_1048399" data-name="Trazado 1048399" d="M4.777,7.883A.671.671,0,0,1,4.2,7.547L.923,1.879A.672.672,0,0,1,1.178.956,3.945,3.945,0,0,1,5.122,7.788a.674.674,0,0,1-.345.1Zm-2.3-6.006L4.973,6.2a2.6,2.6,0,0,0-2.5-4.327Z" transform="translate(23.56 14.898)" fill-rule="evenodd"/>
      <path id="Trazado_1048400" data-name="Trazado 1048400" d="M7.113,10.574a.673.673,0,0,1-.493-.215L.716,4A.671.671,0,0,1,.873,2.96L4.448.9a.672.672,0,0,1,.828.124l5.9,6.36a.671.671,0,0,1-.156,1.039L7.449,10.483a.663.663,0,0,1-.335.091ZM2.275,3.7,7.241,9.052,9.622,7.677,4.656,2.328,2.275,3.7Z" transform="translate(13.906 26.279)" fill-rule="evenodd"/>
      <path id="Trazado_1048401" data-name="Trazado 1048401" d="M1.7,3.76a.672.672,0,0,1-.336-1.254L4.836.5a.672.672,0,0,1,.672,1.164l-3.471,2a.666.666,0,0,1-.335.09Z" transform="translate(29.967 13.444)" fill-rule="evenodd"/>
      <path id="Trazado_1048402" data-name="Trazado 1048402" d="M1.664,5.506a.683.683,0,0,1-.175-.023.672.672,0,0,1-.475-.823L2.052.789a.672.672,0,1,1,1.3.348L2.312,5.007a.671.671,0,0,1-.648.5Z" transform="translate(28.716 9.467)" fill-rule="evenodd"/>
      <path id="Trazado_1048403" data-name="Trazado 1048403" d="M5.612,2.92A.683.683,0,0,1,5.437,2.9L1.566,1.86a.672.672,0,0,1,.348-1.3L5.786,1.6A.672.672,0,0,1,5.612,2.92Z" transform="translate(31.217 17.552)" fill-rule="evenodd"/>
      <path id="Trazado_1048404" data-name="Trazado 1048404" d="M2.4,1.612H1.981a.672.672,0,1,1,0-1.344H2.4a.672.672,0,0,1,0,1.344Z" transform="translate(39.09 8.75)" fill-rule="evenodd"/>
      <path id="Trazado_1048405" data-name="Trazado 1048405" d="M4.769,11.906a.672.672,0,0,1-.579-.33l-1.183-2H2.472A2.033,2.033,0,0,1,.442,7.542V2.03A2.033,2.033,0,0,1,2.472,0H21.819A2.033,2.033,0,0,1,23.85,2.03V7.543a2.033,2.033,0,0,1-2.031,2.031H6.53l-1.183,2a.672.672,0,0,1-.579.33ZM2.473,1.343a.687.687,0,0,0-.686.686V7.542a.687.687,0,0,0,.686.687h.918a.672.672,0,0,1,.579.33l.8,1.354.8-1.354a.672.672,0,0,1,.579-.33H21.82a.687.687,0,0,0,.686-.687V2.03a.687.687,0,0,0-.686-.686H2.473Z" transform="translate(10.817)" fill-rule="evenodd"/>
      <path id="Trazado_1048406" data-name="Trazado 1048406" d="M4.927,5.819a.671.671,0,0,1-.316-.079l-1.119-.6-1.119.6A.672.672,0,0,1,1.4,5.03L1.617,3.78.7,2.9a.672.672,0,0,1,.373-1.149l1.257-.175L2.888.435A.672.672,0,0,1,4.1.435l.555,1.141,1.257.175A.672.672,0,0,1,6.281,2.9l-.914.881L5.589,5.03a.671.671,0,0,1-.661.789ZM3.491,3.71a.67.67,0,0,1,.316.079l.217.115-.043-.242a.672.672,0,0,1,.2-.6l.176-.17L4.11,2.857A.672.672,0,0,1,3.6,2.485l-.107-.221-.107.221a.671.671,0,0,1-.511.371l-.243.034.176.17a.673.673,0,0,1,.2.6L2.958,3.9l.217-.115a.674.674,0,0,1,.317-.079Z" transform="translate(12.613 1.848)" fill-rule="evenodd"/>
      <path id="Trazado_1048407" data-name="Trazado 1048407" d="M5.131,5.819a.671.671,0,0,1-.316-.079L3.7,5.143l-1.119.6A.672.672,0,0,1,1.6,5.03L1.821,3.78.907,2.9A.672.672,0,0,1,1.28,1.751l1.256-.175L3.091.435A.672.672,0,0,1,4.3.435l.555,1.141,1.256.175A.672.672,0,0,1,6.485,2.9l-.913.881L5.793,5.03a.671.671,0,0,1-.662.789ZM3.7,3.71a.67.67,0,0,1,.316.079l.217.115-.043-.242a.673.673,0,0,1,.2-.6l.177-.17-.243-.034A.673.673,0,0,1,3.8,2.485L3.7,2.265l-.107.221a.672.672,0,0,1-.512.371l-.243.034.176.17a.673.673,0,0,1,.2.6L3.163,3.9l.217-.115A.667.667,0,0,1,3.7,3.71Z" transform="translate(19.267 1.848)" fill-rule="evenodd"/>
      <path id="Trazado_1048408" data-name="Trazado 1048408" d="M5.335,5.818a.674.674,0,0,1-.316-.079L3.9,5.143l-1.119.6a.671.671,0,0,1-.977-.71L2.025,3.78,1.111,2.9a.672.672,0,0,1,.373-1.149l1.257-.175L3.3.435A.672.672,0,0,1,4.5.435l.554,1.141,1.257.175A.672.672,0,0,1,6.689,2.9l-.914.88L6,5.029a.671.671,0,0,1-.662.789Zm-2.3-2.928.176.17a.672.672,0,0,1,.2.6L3.367,3.9l.217-.116a.668.668,0,0,1,.632,0l.216.115-.043-.242a.672.672,0,0,1,.2-.6l.176-.17-.243-.034a.672.672,0,0,1-.511-.371L3.9,2.264l-.107.221a.671.671,0,0,1-.511.371l-.243.034Z" transform="translate(25.921 1.849)" fill-rule="evenodd"/>
      <path id="Trazado_1048409" data-name="Trazado 1048409" d="M14.562,2.49H13.04a.672.672,0,0,1,0-1.344h1.522a.672.672,0,0,1,0,1.344Zm-4.4,0H1.094a.672.672,0,0,1,0-1.344h9.065a.672.672,0,0,1,0,1.344Z" transform="translate(10.173 37.36)" fill-rule="evenodd"/>
      <path id="Trazado_1048410" data-name="Trazado 1048410" d="M14.562,2.562H5.5a.672.672,0,1,1,0-1.344h9.065a.672.672,0,0,1,0,1.344Zm-11.946,0H1.094a.672.672,0,1,1,0-1.344H2.616a.672.672,0,1,1,0,1.344Z" transform="translate(10.173 39.716)" fill-rule="evenodd"/>
      <g id="Grupo_1201664" data-name="Grupo 1201664" transform="translate(15.242 4.113)">
        <path id="Trazado_1048411" data-name="Trazado 1048411" d="M.737.919a.673.673,0,0,1,.2.6L.89,1.762l.217-.115a.674.674,0,0,1,.632,0l.217.115L1.912,1.52a.672.672,0,0,1,.2-.6l.176-.17L2.041.715A.672.672,0,0,1,1.53.343L1.422.123,1.315.343A.671.671,0,0,1,.8.715L.561.748l.176.17Z" transform="translate(-0.561 -0.123)" fill="#ffe8b2" fill-rule="evenodd"/>
        <path id="Trazado_1048412" data-name="Trazado 1048412" d="M.765.748l.176.17a.673.673,0,0,1,.2.6l-.043.242.217-.115a.671.671,0,0,1,.632,0l.217.115L2.116,1.52a.673.673,0,0,1,.195-.6l.177-.17L2.245.715A.673.673,0,0,1,1.734.343L1.626.123,1.519.343a.672.672,0,0,1-.512.371L.765.748Z" transform="translate(6.094 -0.122)" fill="#ffe8b2" fill-rule="evenodd"/>
        <path id="Trazado_1048413" data-name="Trazado 1048413" d="M.969.749l.176.17a.672.672,0,0,1,.2.6L1.3,1.762l.217-.116a.668.668,0,0,1,.632,0l.216.115L2.32,1.52a.672.672,0,0,1,.2-.6l.176-.17L2.449.715A.672.672,0,0,1,1.937.343L1.831.123,1.723.343a.671.671,0,0,1-.511.371L.969.749Z" transform="translate(12.748 -0.122)" fill="#ffe8b2" fill-rule="evenodd"/>
      </g>
      <path id="Trazado_1048414" data-name="Trazado 1048414" d="M15.825,4.326l-.914-.88A.672.672,0,0,1,15.285,2.3l1.257-.175L17.1.98A.672.672,0,0,1,18.3.98l.554,1.141,1.257.175a.672.672,0,0,1,.373,1.149l-.914.88L19.8,5.575a.672.672,0,0,1-.978.71l-1.119-.6-1.119.6a.671.671,0,0,1-.977-.71l.222-1.249Zm-3.108,0,.222,1.249a.672.672,0,0,1-.978.71l-1.119-.6-1.119.6a.672.672,0,0,1-.978-.71l.222-1.249-.914-.881A.672.672,0,0,1,8.426,2.3l1.256-.175L10.237.98a.672.672,0,0,1,1.208,0L12,2.121l1.256.175a.672.672,0,0,1,.374,1.149l-.913.881Zm-7.875,2.6H20.515a.687.687,0,0,0,.686-.687V.727a.687.687,0,0,0-.686-.686H1.169A.687.687,0,0,0,.482.727V6.239a.687.687,0,0,0,.686.687h.918a.672.672,0,0,1,.579.33l.8,1.354.8-1.354a.672.672,0,0,1,.579-.33Zm.972-.69a.673.673,0,0,1-.711.049l-1.119-.6-1.119.6a.672.672,0,0,1-.978-.71l.222-1.249L1.2,3.445A.672.672,0,0,1,1.568,2.3l1.257-.175L3.38.98a.672.672,0,0,1,1.208,0l.555,1.141L6.4,2.3a.672.672,0,0,1,.373,1.149l-.914.881.222,1.249a.673.673,0,0,1-.267.661Z" transform="translate(12.121 1.303)" fill="#ffbe61" fill-rule="evenodd"/>
      <path id="Trazado_1048415" data-name="Trazado 1048415" d="M3.763,7.669l.006,0ZM7.349,4.335,5.228.662l-4.1,2.367-.017.01-.031.018A1.275,1.275,0,0,0,.616,4.79l.213.369L2,7.193a1.284,1.284,0,0,0,.785.6,1.3,1.3,0,0,0,.339.044,1.28,1.28,0,0,0,.634-.168l.006,0L7.344,5.6,7.9,5.283l-.541-.936-.006-.011Z" transform="translate(11.01 21.574)" fill="#ff4974" fill-rule="evenodd"/>
      <path id="Trazado_1048416" data-name="Trazado 1048416" d="M2.969.851.589,2.226l4.967,5.35L7.936,6.2Z" transform="translate(15.592 27.756)" fill="#fe6a8d" fill-rule="evenodd"/>
      <path id="Trazado_1048417" data-name="Trazado 1048417" d="M3.53,13.084l9.332-.888L11.1,9.153l-.01-.017L7.822,3.469l-.007-.013L6.056.408.621,8.047,3.53,13.084Z" transform="translate(16.661 13.309)" fill="#ececff" fill-rule="evenodd"/>
      <path id="Trazado_1048418" data-name="Trazado 1048418" d="M.882.574,3.38,4.9A2.6,2.6,0,0,0,1.5.5,2.593,2.593,0,0,0,.882.574Z" transform="translate(25.153 16.202)" fill="#ff4974" fill-rule="evenodd"/>
      <path id="Trazado_1048419" data-name="Trazado 1048419" d="M26.058.826h-12.7l-.175.017h0L12.9,1l5.331,5.742a.671.671,0,0,1-.156,1.039L14.5,9.848a.663.663,0,0,1-.335.091.673.673,0,0,1-.493-.215L8.092,3.714A2.647,2.647,0,0,1,5.02,2.569l-.026-.044L4.013.826H.321V16.913H21.442l-1.859-3.22a2.008,2.008,0,0,1,3.477-2.008l1.4,2.426a2,2,0,0,1,1.6-.7V.826ZM17.879,11.591a.672.672,0,0,1,0,1.344H16.357a.672.672,0,0,1,0-1.344ZM8.814,14.02h9.065a.672.672,0,0,1,0,1.344H8.814a.672.672,0,1,1,0-1.344Zm-4.4-2.429h9.065a.672.672,0,0,1,0,1.344H4.411a.672.672,0,0,1,0-1.344Zm2.194,3.1a.672.672,0,0,1-.672.672H4.411a.672.672,0,1,1,0-1.344H5.934A.672.672,0,0,1,6.606,14.692Z" transform="translate(6.856 26.915)" fill="#ffffe6" fill-rule="evenodd"/>
    </g>
  </g>
</svg>
