<svg xmlns="http://www.w3.org/2000/svg" xmlns:xlink="http://www.w3.org/1999/xlink" width="190" height="212.069" viewBox="0 0 190 212.069">
  <defs>
    <clipPath id="clip-path">
      <rect id="Rectángulo_415521" data-name="Rectángulo 415521" width="190" height="189.62" transform="translate(39.984 -9)" fill="#fff" stroke="#707070" stroke-width="1" opacity="0.4"/>
    </clipPath>
  </defs>
  <g id="Grupo_1179470" data-name="Grupo 1179470" transform="translate(-219.984 -6228.5)">
    <g id="Enmascarar_grupo_1098801" data-name="Enmascarar grupo 1098801" transform="translate(180 6237.5)" clip-path="url(#clip-path)">
      <g id="Grupo_1179469" data-name="Grupo 1179469" transform="translate(0 7.177)">
        <g id="Grupo_1179467" data-name="Grupo 1179467" transform="translate(0 17.386)">
          <g id="Grupo_1179089" data-name="Grupo 1179089" transform="translate(0 0)">
            <path id="Trazado_1038589" data-name="Trazado 1038589" d="M141.207,183.2c-18.594-5.57-46.212-35.769-30.2-60.738,13.544-21.118,35.609-15.026,56.95-30.131,12.226-8.654,14.454-16.935,23.269-25.942C204.4,52.93,221.207,44.513,239.855,45.5,350.137,47.25,368.778,233.8,141.207,183.2Z" transform="matrix(0.438, 0.899, -0.899, 0.438, 144.727, -155.141)" fill="#f1f0f2"/>
          </g>
        </g>
        <g id="Grupo_1179466" data-name="Grupo 1179466" transform="translate(40.93 0)">
          <g id="Grupo_1178798" data-name="Grupo 1178798" transform="translate(0 0)">
            <path id="Trazado_1038178" data-name="Trazado 1038178" d="M68.657,196.993l21.357-38.654c5.131-4.315,11.476-8.193,17.729-8.68,9.609-.749,19.682.975,28.919,3.557,2.083-4.206,4.051-8.5,6.261-12.637.686-1.286,5.013-10.773,5.978-10.773q8.148,2.892,16.527,5.07c-2.665,9.144-6.133,18.053-8.874,27.224,8.557,4.566,17.529,9.515,22.514,17.835,3.51,5.859,4.669,12.887,4.447,19.714a83.955,83.955,0,0,1-2.075,14.836H78.976A11.79,11.79,0,0,1,68.657,196.993Z" transform="translate(-67.17 -36.3)" fill="#ff946a"/>
            <g id="Grupo_1178778" data-name="Grupo 1178778" transform="translate(0 113.609)">
              <path id="Trazado_1038179" data-name="Trazado 1038179" d="M68.657,199l21.36-38.662c4.623-3.883,10.234-7.406,15.872-8.422a56.224,56.224,0,0,0,72.624,29.168c.186.286.377.566.554.859,3.51,5.859,4.669,12.888,4.447,19.714a83.954,83.954,0,0,1-2.075,14.836H78.976A11.792,11.792,0,0,1,68.657,199Z" transform="translate(-67.17 -151.915)" fill="#f2b64c"/>
            </g>
            <g id="Grupo_1178779" data-name="Grupo 1178779" transform="translate(33.238 113.608)">
              <path id="Trazado_1038180" data-name="Trazado 1038180" d="M115,173.941c-5.146-5.887-8.616-12.906-11.274-20.3a24.47,24.47,0,0,1,5.482-1.726,56.224,56.224,0,0,0,72.624,29.168c.186.286.377.566.554.859a28.815,28.815,0,0,1,2.494,5.4,41.289,41.289,0,0,1-11.3,3.353c-10.468,1.733-21.309,1.792-31.6-.807S121.981,181.929,115,173.941Z" transform="translate(-103.723 -151.914)" fill="#e2a23b"/>
            </g>
            <path id="Trazado_1038181" data-name="Trazado 1038181" d="M183.35,216.453a82.469,82.469,0,0,1,2.029-12.07c.778-3.04,1.49-4.849,1.608-4.813.149.045-.317,1.918-.911,4.968s-1.257,7.291-1.72,12.014c-.144,1.471-.265,2.894-.373,4.26H183C183.092,219.416,183.2,217.961,183.35,216.453Z" transform="translate(-77.676 -42.628)" fill="#e2a23b"/>
            <path id="Trazado_1038182" data-name="Trazado 1038182" d="M93.7,198.736c2.8-8.247,5.489-15.663,7.514-21,1.011-2.669,1.853-4.82,2.461-6.3a11.743,11.743,0,0,1,1.039-2.258,11.709,11.709,0,0,1-.67,2.393c-.495,1.518-1.234,3.705-2.159,6.4l-7.229,21.083-6.4,19H87.44C89.048,212.808,91.211,206.065,93.7,198.736Z" transform="translate(-69.008 -39.872)" fill="#e2a23b"/>
            <g id="Grupo_1178780" data-name="Grupo 1178780" transform="translate(88.969 174.203)">
              <path id="Trazado_1038183" data-name="Trazado 1038183" d="M193.576,238.122c1.151-3.646,1.541-7.47,3.073-11,.507-1.17.709-2.858,1.866-3.578.362-.225,3.576-1.175,3.56-1.209-.782-1.739-5.1-2.266-6.744-2.622a74.894,74.894,0,0,0-10.464-1.036c-4.327-.324-8.986-.164-12.547,2.316a11.321,11.321,0,0,0-4.133,5.062c-.8,1.993-5.055,11.052-2.2,12.195,1.977.793,4.4-5.792,5.3-7.17a21.83,21.83,0,0,1,2.576-3.22q.852-.867,1.783-1.653c.387-.325,1.491-.865,1.7-1.295a57.911,57.911,0,0,0-5.043,16.237c-.134.865-.067,2.027.777,2.254,1.676.45,3.391-4.135,3.828-5.251,1.758-4.489,3.978-9.363,7.882-12.392a62.287,62.287,0,0,1-1.984,7.139,32.565,32.565,0,0,0-2.264,8.017c-.1.842.165,4.306,1.821,3.083a2.927,2.927,0,0,0,.711-.892,53.517,53.517,0,0,0,3-5.453,94.247,94.247,0,0,1,5.874-11.023,46.727,46.727,0,0,0-2.176,11.394c-.055.868-.009,1.9.717,2.379a1.725,1.725,0,0,0,2.05-.328A4.431,4.431,0,0,0,193.576,238.122Z" transform="translate(-165.013 -218.552)" fill="#ff946a"/>
            </g>
            <g id="Grupo_1178781" data-name="Grupo 1178781" transform="translate(24.414 174.883)">
              <path id="Trazado_1038184" data-name="Trazado 1038184" d="M101.181,238.869c-1.151-3.646-1.541-7.47-3.073-11-.931-2.147-1.358-3.744-3.635-4.8-1.637-.762,1.661-1.7,2.065-1.83a21.788,21.788,0,0,1,5.629-1.35c2.575-.136,5.134-.266,7.723-.459,4.327-.324,8.986-.165,12.547,2.316a11.315,11.315,0,0,1,4.133,5.062,27.885,27.885,0,0,1,1.473,3.33,30.724,30.724,0,0,0,1.659,4.679c.453,1.044.481,4.443-1.041,4.74a.907.907,0,0,1-.6-.144,5.477,5.477,0,0,1-1.976-2.374c-.911-1.71-1.556-3.586-2.62-5.206a21.774,21.774,0,0,0-2.576-3.22c-.568-.578-1.162-1.131-1.783-1.652-.387-.325-1.491-.865-1.7-1.295a57.915,57.915,0,0,1,5.044,16.237c.134.865.067,2.028-.777,2.254-.761.2-1.4-.576-1.8-1.252-3.313-5.562-6.871-10.891-10.229-16.446.357,2.643,1.743,5.065,2.694,7.524a24.638,24.638,0,0,1,1.594,6.871c.065.787.509,5.415-1.54,3.9a2.926,2.926,0,0,1-.711-.892,53.51,53.51,0,0,1-3-5.453,94.243,94.243,0,0,0-5.874-11.023,46.725,46.725,0,0,1,2.176,11.394c.055.868.009,1.9-.717,2.379a1.725,1.725,0,0,1-2.05-.328A4.427,4.427,0,0,1,101.181,238.869Z" transform="translate(-94.019 -219.3)" fill="#ff946a"/>
            </g>
            <g id="Grupo_1178782" data-name="Grupo 1178782" transform="translate(73.093 93.506)" opacity="0.23">
              <path id="Trazado_1038185" data-name="Trazado 1038185" d="M165.788,155.948a57.349,57.349,0,0,1-18.235-10.126c.863-1.761,1.739-3.517,2.66-5.243.686-1.286,5.013-10.773,5.978-10.773q8.148,2.892,16.527,5.07C170.651,141.964,168.106,148.912,165.788,155.948Z" transform="translate(-147.553 -129.806)" fill="#ffa279"/>
            </g>
            <g id="Grupo_1178783" data-name="Grupo 1178783" transform="translate(120.805 64.264)">
              <path id="Trazado_1038186" data-name="Trazado 1038186" d="M206.667,98.314c2.013-1.3,4.878-.587,6.516,1.16a9.422,9.422,0,0,1,2.168,6.662c-.145,7.528-7.087,16.395-15.327,14.1" transform="translate(-200.024 -97.648)" fill="#f28564"/>
            </g>
            <g id="Grupo_1178784" data-name="Grupo 1178784" transform="translate(126.609 69.094)">
              <path id="Trazado_1038187" data-name="Trazado 1038187" d="M206.459,115.839c-.138-.05.018-.866.267-2.18a35.015,35.015,0,0,1,1.294-5.137,10.713,10.713,0,0,1,2.95-4.53c1.088-.915,1.969-1.118,2.013-1,.075.145-.642.573-1.5,1.535A13.34,13.34,0,0,0,209,108.881c-.674,1.879-1.108,3.69-1.561,4.969C207,115.137,206.591,115.887,206.459,115.839Z" transform="translate(-206.407 -102.96)" fill="#d67456"/>
            </g>
            <g id="Grupo_1178785" data-name="Grupo 1178785" transform="translate(8.302 0)">
              <path id="Trazado_1038188" data-name="Trazado 1038188" d="M151.1,45.062c-.719-5.643-4.476-10.626-9.291-13.654s-10.586-4.264-16.273-4.417a47.667,47.667,0,0,0-25.583,6.7,20.066,20.066,0,0,0-7.113,6.424c-1.8,2.961-2.371,6.626-4.585,9.292-2.1,2.531-5.384,3.786-7.731,6.094-3.273,3.218-4.336,8.111-4.216,12.7.146,5.625,2.3,11.745,7.3,14.326,2.918,1.507,6.693,1.789,8.645,4.429,1.988,2.691,1.075,6.418.822,9.753A17.419,17.419,0,0,0,96.636,109.1c2.812,3.392,7.48,5.351,11.775,4.365,1.406-.323,2.9-.935,4.229-.383,1.477.611,2.055,2.344,2.957,3.664,2.074,3.036,6.261,4.02,9.874,3.327s6.8-2.738,9.88-4.742" transform="translate(-76.3 -26.973)" fill="#824e51"/>
            </g>
            <g id="Grupo_1178786" data-name="Grupo 1178786" transform="translate(63.052 25.579)">
              <path id="Trazado_1038189" data-name="Trazado 1038189" d="M149.368,128.066c-5.461-7.494-8.233-17.424-10.488-27.022-3.282-13.967-5.114-30.766,8.15-40.676,7.767-5.8,21.129-5.786,30.334-4.712,6.391.746,11.835,3.825,16.785,7.791,3.01,2.412,4.306,6.4,5.129,10.018A96.9,96.9,0,0,1,201.657,86.1a109.7,109.7,0,0,1-1.156,27.4c-1.414,8.91-4.013,16.517-11.614,22.044-6.27,4.559-15.334,5.74-22.781,3.871A29.357,29.357,0,0,1,149.368,128.066Z" transform="translate(-136.51 -55.104)" fill="#ff946a"/>
            </g>
            <g id="Grupo_1178787" data-name="Grupo 1178787" transform="translate(52.073 67.762)">
              <path id="Trazado_1038190" data-name="Trazado 1038190" d="M139.279,103.626c-.015-.492-.464-.848-.892-1.09-2.521-1.424-6.926-1.475-9.28.392a11.969,11.969,0,0,0-4.652,8.6A13.084,13.084,0,0,0,130.589,123a15.549,15.549,0,0,0,13.126,1.343" transform="translate(-124.437 -101.495)" fill="#ff946a"/>
            </g>
            <g id="Grupo_1178788" data-name="Grupo 1178788" transform="translate(93.819 80.252)">
              <path id="Trazado_1038191" data-name="Trazado 1038191" d="M171.038,121.577c-.828-1.832-.717-4.366-.637-6.347a25.665,25.665,0,0,0,5.57,3.471,34.829,34.829,0,0,0,6.168,2.405c-2.181,2.124-4.7,4.825-8.1,3.5A5.724,5.724,0,0,1,171.038,121.577Z" transform="translate(-170.346 -115.23)" fill="#fff"/>
            </g>
            <g id="Grupo_1178789" data-name="Grupo 1178789" transform="translate(58.335 71.85)">
              <path id="Trazado_1038192" data-name="Trazado 1038192" d="M140.651,122.413c.017.064-.315.238-.971.392a5.6,5.6,0,0,1-2.887-.08,3.61,3.61,0,0,1-1.75-1.188,3.392,3.392,0,0,1-.662-2.387,3.548,3.548,0,0,1,1.255-2.444,6.76,6.76,0,0,1,1.192-.686,1.7,1.7,0,0,0,.737-.683,3.192,3.192,0,0,0,.115-2.169,9.816,9.816,0,0,0-.856-2.124,12.675,12.675,0,0,0-2.372-3.156,6.252,6.252,0,0,0-2.171-1.467c-.585-.211-.952-.216-.956-.3-.009-.059.366-.2,1.057-.095a5.561,5.561,0,0,1,2.562,1.309,11.883,11.883,0,0,1,2.722,3.242,10.067,10.067,0,0,1,1.007,2.342,4.086,4.086,0,0,1-.192,2.917,2.739,2.739,0,0,1-1.163,1.1,6.576,6.576,0,0,0-1.042.568,2.627,2.627,0,0,0-.937,1.747,2.558,2.558,0,0,0,.4,1.769,2.948,2.948,0,0,0,1.311,1.013,6.3,6.3,0,0,0,2.582.37C140.268,122.377,140.633,122.337,140.651,122.413Z" transform="translate(-131.324 -105.991)" fill="#d67456"/>
            </g>
            <g id="Grupo_1178790" data-name="Grupo 1178790" transform="translate(103.893 52.782)">
              <path id="Trazado_1038193" data-name="Trazado 1038193" d="M182.892,111.943c-.015-.087.427-.186,1.135-.522a6.436,6.436,0,0,0,2.448-2.111,4.184,4.184,0,0,0,.409-4.353,8.9,8.9,0,0,0-1.812-2.171,24.787,24.787,0,0,1-2.339-2.313,5.308,5.308,0,0,1-1.3-3.237,11.59,11.59,0,0,1,.455-3.1,39.629,39.629,0,0,1,1.534-4.9c1.06-2.725,2-4.276,2.116-4.218.143.066-.555,1.719-1.42,4.462-.431,1.371-.895,3.018-1.294,4.871a11.425,11.425,0,0,0-.37,2.838,4.339,4.339,0,0,0,1.093,2.622c1.318,1.591,3.242,2.8,4.2,4.7a4.617,4.617,0,0,1,.4,2.932,5.419,5.419,0,0,1-1.066,2.3,6.092,6.092,0,0,1-2.892,2.053C183.367,112.039,182.9,112,182.892,111.943Z" transform="translate(-181.426 -85.02)" fill="#d67456"/>
            </g>
            <g id="Grupo_1178791" data-name="Grupo 1178791" transform="translate(101.539 76.063)">
              <path id="Trazado_1038194" data-name="Trazado 1038194" d="M178.992,110.671c.241-.157.677.084.972.536s.339.948.1,1.106-.677-.084-.972-.537S178.752,110.829,178.992,110.671Z" transform="translate(-178.837 -110.623)" fill="#d67456"/>
            </g>
            <g id="Grupo_1178792" data-name="Grupo 1178792" transform="translate(115.086 62.317)">
              <path id="Trazado_1038195" data-name="Trazado 1038195" d="M194.267,104.181c-.433-.041-.6-1.991-.507-4.365s.422-4.3.857-4.31.806,1.953.707,4.373S194.694,104.222,194.267,104.181Z" transform="translate(-193.735 -95.506)" fill="#d67456"/>
            </g>
            <g id="Grupo_1178793" data-name="Grupo 1178793" transform="translate(90.07 61.673)">
              <path id="Trazado_1038196" data-name="Trazado 1038196" d="M166.758,103.317c-.431-.031-.645-1.962-.477-4.315s.652-4.235,1.083-4.2.645,1.962.477,4.315S167.189,103.348,166.758,103.317Z" transform="translate(-166.223 -94.799)" fill="#d67456"/>
            </g>
            <g id="Grupo_1178794" data-name="Grupo 1178794" transform="translate(113.4 45.674)">
              <path id="Trazado_1038197" data-name="Trazado 1038197" d="M192.3,81.668c-.7-1.578-.663-3.218,1.185-4.047,3.531-1.585,9.209,1.668,11.3,4.41,1.628,2.133.651,3.8-1.849,4.079C199.6,86.483,193.747,84.938,192.3,81.668Z" transform="translate(-191.881 -77.204)" fill="#d67456"/>
            </g>
            <g id="Grupo_1178795" data-name="Grupo 1178795" transform="translate(84.639 45.841)">
              <path id="Trazado_1038198" data-name="Trazado 1038198" d="M173.635,82.011c.773-1.542.816-3.183-.989-4.1-3.451-1.751-9.279,1.226-11.5,3.865-1.728,2.053-.832,3.764,1.651,4.163C166.119,86.473,172.034,85.208,173.635,82.011Z" transform="translate(-160.251 -77.387)" fill="#d67456"/>
            </g>
            <g id="Grupo_1178796" data-name="Grupo 1178796" transform="translate(54.354 16.621)">
              <path id="Trazado_1038199" data-name="Trazado 1038199" d="M127.739,66.806c1.238-6.036,5.246-12.808,12.228-11.732,4.708-15.977,22.777-7.86,34.2-7.009,7.154.533,14.467-1.989,21.434-.211,6.134,1.566,11.226,6.441,13.991,12.355a35.012,35.012,0,0,1,2.505,19.269,2.5,2.5,0,0,1-.452,1.335,2.337,2.337,0,0,1-1.173.612,70.489,70.489,0,0,1-13.547,2.537A92.473,92.473,0,0,0,190.33,73.78a34.557,34.557,0,0,0,1.119,10.276c.38,1.436-17.932,3.369-19.645,3.492-1.533-3.553-1.471-7.136-4.006-10.135l-1.768,8.5a4.9,4.9,0,0,1-.888,2.271,4.475,4.475,0,0,1-2.3,1.166,191.57,191.57,0,0,1-24.965,5.166c-5.833.807-7.532-.82-9.2-6.657a46.169,46.169,0,0,1-1.071-20.347C127.646,67.277,127.691,67.043,127.739,66.806Z" transform="translate(-126.945 -45.252)" fill="#955d5e"/>
            </g>
            <g id="Grupo_1178797" data-name="Grupo 1178797" transform="translate(54.193 29.946)">
              <path id="Trazado_1038200" data-name="Trazado 1038200" d="M150.811,81.386a22.713,22.713,0,0,1-11.542,20.245,5.264,5.264,0,0,1-1.83.69c-1.531.191-2.948-.815-4.036-1.908-5.638-5.657-6.816-14.35-6.612-22.333.158-6.211.616-16.145,8.13-18.174" transform="translate(-126.768 -59.906)" fill="#955d5e"/>
            </g>
            <path id="Trazado_1038201" data-name="Trazado 1038201" d="M190.191,120.9a9.327,9.327,0,0,1,15.8-6.72c-.186,1.486-.388,2.97-.623,4.446a46.818,46.818,0,0,1-2.977,11.153,9.329,9.329,0,0,1-12.2-8.879Z" transform="translate(-78.328 -34.646)" fill="#ffa279" opacity="0.23"/>
            <circle id="Elipse_12288" data-name="Elipse 12288" cx="9.197" cy="9.197" r="9.197" transform="translate(70.694 72.723) rotate(-9.189)" fill="#ffa279" opacity="0.23"/>
          </g>
          <g id="Grupo_1179413" data-name="Grupo 1179413" transform="translate(124.622 111.548)">
            <path id="Trazado_1038649" data-name="Trazado 1038649" d="M499.237,298.04H449.369a3.993,3.993,0,0,1-3.993-3.993V260.513a3.993,3.993,0,0,1,3.993-3.993h49.869a3.993,3.993,0,0,1,3.993,3.993v33.535A3.993,3.993,0,0,1,499.237,298.04Z" transform="translate(-445.376 -256.52)" fill="#8ed1d0"/>
            <g id="Grupo_1179412" data-name="Grupo 1179412" transform="translate(5.037 7.713)">
              <g id="Grupo_1179404" data-name="Grupo 1179404" transform="translate(4.42)">
                <g id="Grupo_1179401" data-name="Grupo 1179401" transform="translate(0 0.539)">
                  <path id="Trazado_1038650" data-name="Trazado 1038650" d="M471.258,295.884l-.4-.622,13.5-8.776,5.529,3.447,17.737-11.183.4.628L489.882,290.81l-5.523-3.444Z" transform="translate(-470.853 -278.75)" fill="#5e3b3b"/>
                </g>
                <g id="Grupo_1179403" data-name="Grupo 1179403" transform="translate(36.094)">
                  <g id="Grupo_1179402" data-name="Grupo 1179402">
                    <path id="Trazado_1038651" data-name="Trazado 1038651" d="M568.089,277.386l2.219-.087-1.034,1.965Z" transform="translate(-568.089 -277.299)" fill="#5e3b3b"/>
                  </g>
                </g>
              </g>
              <g id="Grupo_1179410" data-name="Grupo 1179410" transform="translate(4.342 6.871)">
                <g id="Grupo_1179405" data-name="Grupo 1179405" transform="translate(0 14)">
                  <rect id="Rectángulo_415516" data-name="Rectángulo 415516" width="4.562" height="5.222" fill="#ff6b57"/>
                </g>
                <g id="Grupo_1179406" data-name="Grupo 1179406" transform="translate(8.634 8.272)">
                  <rect id="Rectángulo_415517" data-name="Rectángulo 415517" width="4.562" height="10.951" fill="#fefefe"/>
                </g>
                <g id="Grupo_1179407" data-name="Grupo 1179407" transform="translate(17.267 11.512)">
                  <rect id="Rectángulo_415518" data-name="Rectángulo 415518" width="4.562" height="7.711" fill="#ff6b57"/>
                </g>
                <g id="Grupo_1179408" data-name="Grupo 1179408" transform="translate(25.901 6.221)">
                  <rect id="Rectángulo_415519" data-name="Rectángulo 415519" width="4.562" height="13.002" fill="#fefefe"/>
                </g>
                <g id="Grupo_1179409" data-name="Grupo 1179409" transform="translate(34.534)">
                  <rect id="Rectángulo_415520" data-name="Rectángulo 415520" width="4.562" height="19.223" fill="#fefefe"/>
                </g>
              </g>
              <g id="Grupo_1179411" data-name="Grupo 1179411" transform="translate(0 2.401)">
                <path id="Trazado_1038652" data-name="Trazado 1038652" d="M506.354,307.6H458.945V283.766h.742v23.089h46.666Z" transform="translate(-458.945 -283.766)" fill="#5e3b3b"/>
              </g>
            </g>
          </g>
        </g>
      </g>
    </g>
    <g id="Grupo_1178781-2" data-name="Grupo 1178781" transform="translate(245.344 6414.817)">
      <path id="Trazado_1038184-2" data-name="Trazado 1038184" d="M101.181,238.869c-1.151-3.646-1.541-7.47-3.073-11-.931-2.147-1.358-3.744-3.635-4.8-1.637-.762,1.661-1.7,2.065-1.83a21.788,21.788,0,0,1,5.629-1.35c2.575-.136,5.134-.266,7.723-.459,4.327-.324,8.986-.165,12.547,2.316a11.315,11.315,0,0,1,4.133,5.062,27.885,27.885,0,0,1,1.473,3.33,30.724,30.724,0,0,0,1.659,4.679c.453,1.044.481,4.443-1.041,4.74a.907.907,0,0,1-.6-.144,5.477,5.477,0,0,1-1.976-2.374c-.911-1.71-1.556-3.586-2.62-5.206a21.774,21.774,0,0,0-2.576-3.22c-.568-.578-1.162-1.131-1.783-1.652-.387-.325-1.491-.865-1.7-1.295a57.915,57.915,0,0,1,5.044,16.237c.134.865.067,2.028-.777,2.254-.761.2-1.4-.576-1.8-1.252-3.313-5.562-6.871-10.891-10.229-16.446.357,2.643,1.743,5.065,2.694,7.524a24.638,24.638,0,0,1,1.594,6.871c.065.787.509,5.415-1.54,3.9a2.926,2.926,0,0,1-.711-.892,53.51,53.51,0,0,1-3-5.453,94.243,94.243,0,0,0-5.874-11.023,46.725,46.725,0,0,1,2.176,11.394c.055.868.009,1.9-.717,2.379a1.725,1.725,0,0,1-2.05-.328A4.427,4.427,0,0,1,101.181,238.869Z" transform="translate(-94.019 -219.3)" fill="#ff946a"/>
    </g>
    <g id="Grupo_1178780-2" data-name="Grupo 1178780" transform="translate(308.636 6410.347)">
      <path id="Trazado_1038183-2" data-name="Trazado 1038183" d="M193.576,238.122c1.151-3.646,1.541-7.47,3.073-11,.507-1.17.709-2.858,1.866-3.578.362-.225,3.576-1.175,3.56-1.209-.782-1.739-5.1-2.266-6.744-2.622a74.894,74.894,0,0,0-10.464-1.036c-4.327-.324-8.986-.164-12.547,2.316a11.321,11.321,0,0,0-4.133,5.062c-.8,1.993-5.055,11.052-2.2,12.195,1.977.793,4.4-5.792,5.3-7.17a21.83,21.83,0,0,1,2.576-3.22q.852-.867,1.783-1.653c.387-.325,1.491-.865,1.7-1.295a57.911,57.911,0,0,0-5.043,16.237c-.134.865-.067,2.027.777,2.254,1.676.45,3.391-4.135,3.828-5.251,1.758-4.489,3.978-9.363,7.882-12.392a62.287,62.287,0,0,1-1.984,7.139,32.565,32.565,0,0,0-2.264,8.017c-.1.842.165,4.306,1.821,3.083a2.927,2.927,0,0,0,.711-.892,53.517,53.517,0,0,0,3-5.453,94.247,94.247,0,0,1,5.874-11.023,46.727,46.727,0,0,0-2.176,11.394c-.055.868-.009,1.9.717,2.379a1.725,1.725,0,0,0,2.05-.328A4.431,4.431,0,0,0,193.576,238.122Z" transform="translate(-165.013 -218.552)" fill="#ff946a"/>
    </g>
  </g>
</svg>
