<svg xmlns="http://www.w3.org/2000/svg" xmlns:xlink="http://www.w3.org/1999/xlink" width="110" height="110" viewBox="0 0 110 110">
  <defs>
    <filter id="Trazado_982547" x="0" y="0" width="110" height="110" filterUnits="userSpaceOnUse">
      <feOffset dy="3" input="SourceAlpha"/>
      <feGaussianBlur stdDeviation="3" result="blur"/>
      <feFlood flood-opacity="0.161"/>
      <feComposite operator="in" in2="blur"/>
      <feComposite in="SourceGraphic"/>
    </filter>
  </defs>
  <g id="Grupo_1201875" data-name="Grupo 1201875" transform="translate(-1275 -1859.07)">
    <g id="Grupo_1201344" data-name="Grupo 1201344" transform="translate(161 432)">
      <g id="Grupo_1179216" data-name="Grupo 1179216" transform="translate(1 -2794.687)">
        <g id="Grupo_1172349" data-name="Grupo 1172349" transform="translate(1122 4227.757)">
          <g id="Grupo_1164700" data-name="Grupo 1164700" transform="translate(0 0)">
            <g id="Grupo_1160931" data-name="Grupo 1160931" transform="translate(0 0)">
              <g id="Grupo_1160749" data-name="Grupo 1160749" transform="translate(0 0)">
                <g id="Grupo_1158891" data-name="Grupo 1158891" transform="translate(0 0)">
                  <g id="Grupo_1157406" data-name="Grupo 1157406" transform="translate(0 0)">
                    <g id="Grupo_1155793" data-name="Grupo 1155793">
                      <g id="Grupo_1154704" data-name="Grupo 1154704">
                        <g id="Grupo_1150790" data-name="Grupo 1150790">
                          <g id="Grupo_1154214" data-name="Grupo 1154214">
                            <g id="Grupo_1152583" data-name="Grupo 1152583">
                              <g id="Grupo_1146973" data-name="Grupo 1146973">
                                <g id="Grupo_1146954" data-name="Grupo 1146954">
                                  <g transform="matrix(1, 0, 0, 1, -9, -6)" filter="url(#Trazado_982547)">
                                    <g id="Trazado_982547-2" data-name="Trazado 982547" transform="translate(9 6)" fill="#f2f7f5">
                                      <path d="M 46.00000762939453 90.49987030029297 C 39.99188613891602 90.49987030029297 34.16427612304688 89.32350921630859 28.67906188964844 87.00345611572266 C 23.38020706176758 84.76224517822266 18.62104797363281 81.55341339111328 14.53375434875488 77.46613311767578 C 10.44647407531738 73.37885284423828 7.237647533416748 68.61969757080078 4.996420860290527 63.32085418701172 C 2.676367521286011 57.83565521240234 1.500007629394531 52.008056640625 1.500007629394531 45.99993515014648 C 1.500007629394531 39.99181365966797 2.676367521286011 34.16421508789062 4.996420860290527 28.67901420593262 C 7.237647533416748 23.38017463684082 10.44647407531738 18.62101554870605 14.53375434875488 14.53373527526855 C 18.62104797363281 10.44645500183105 23.38020706176758 7.23762845993042 28.67906188964844 4.996415138244629 C 34.16427612304688 2.676361799240112 39.99188613891602 1.500001788139343 46.00000762939453 1.500001788139343 C 52.00812911987305 1.500001788139343 57.83573913574219 2.676361799240112 63.32095336914062 4.996415138244629 C 68.61980438232422 7.23762845993042 73.37896728515625 10.44645500183105 77.46626281738281 14.53373527526855 C 81.55354309082031 18.62101554870605 84.76236724853516 23.38017463684082 87.00359344482422 28.67901420593262 C 89.32364654541016 34.16421508789062 90.50000762939453 39.99181365966797 90.50000762939453 45.99993515014648 C 90.50000762939453 52.008056640625 89.32364654541016 57.83565521240234 87.00359344482422 63.32085418701172 C 84.76236724853516 68.61969757080078 81.55354309082031 73.37885284423828 77.46626281738281 77.46613311767578 C 73.37896728515625 81.55341339111328 68.61980438232422 84.76224517822266 63.32095336914062 87.00345611572266 C 57.83573913574219 89.32350921630859 52.00812911987305 90.49987030029297 46.00000762939453 90.49987030029297 Z" stroke="none"/>
                                      <path d="M 46.00000762939453 2.999992370605469 C 40.19372177124023 2.999992370605469 34.56270599365234 4.136489868164062 29.26339340209961 6.377906799316406 C 24.14333343505859 8.543502807617188 19.54443359375 11.64437866210938 15.59442138671875 15.59437561035156 C 11.6444091796875 19.54439544677734 8.543533325195312 24.14329528808594 6.377937316894531 29.26333618164062 C 4.136505126953125 34.56264877319336 3.000007629394531 40.19366455078125 3.000007629394531 45.99993515014648 C 3.000007629394531 51.80620574951172 4.136505126953125 57.43720626831055 6.377937316894531 62.73651885986328 C 8.543533325195312 67.8565673828125 11.6444091796875 72.45545959472656 15.59442138671875 76.40547943115234 C 19.54443359375 80.35547637939453 24.14333343505859 83.45635223388672 29.26339340209961 85.6219482421875 C 34.56270599365234 87.86336517333984 40.19372177124023 88.99986267089844 46.00000762939453 88.99986267089844 C 51.80629348754883 88.99986267089844 57.43730926513672 87.86336517333984 62.73663711547852 85.6219482421875 C 67.85668182373047 83.45635223388672 72.45559692382812 80.35547637939453 76.40560913085938 76.40547943115234 C 80.35560607910156 72.45545959472656 83.45649719238281 67.8565673828125 85.62209320068359 62.73651885986328 C 87.86351013183594 57.43720626831055 89.00000762939453 51.80620574951172 89.00000762939453 45.99993515014648 C 89.00000762939453 40.19366455078125 87.86351013183594 34.56264877319336 85.62209320068359 29.26333618164062 C 83.45649719238281 24.14329528808594 80.35560607910156 19.54439544677734 76.40560913085938 15.59437561035156 C 72.45559692382812 11.64437866210938 67.85668182373047 8.543502807617188 62.73663711547852 6.377906799316406 C 57.43730926513672 4.136489868164062 51.80629348754883 2.999992370605469 46.00000762939453 2.999992370605469 M 46.00000762939453 -7.62939453125e-06 C 71.40510559082031 -7.62939453125e-06 92.00000762939453 20.59486389160156 92.00000762939453 45.99993515014648 C 92.00000762939453 71.40499114990234 71.40510559082031 91.99986267089844 46.00000762939453 91.99986267089844 C 20.59492492675781 91.99986267089844 7.62939453125e-06 71.40499114990234 7.62939453125e-06 45.99993515014648 C 7.62939453125e-06 20.59486389160156 20.59492492675781 -7.62939453125e-06 46.00000762939453 -7.62939453125e-06 Z" stroke="none" fill="#4a665c"/>
                                    </g>
                                  </g>
                                </g>
                              </g>
                            </g>
                          </g>
                        </g>
                      </g>
                    </g>
                  </g>
                </g>
              </g>
            </g>
          </g>
        </g>
      </g>
    </g>
    <g id="_02-Financial_Plan" data-name="02-Financial Plan" transform="translate(1298 1879)">
      <rect id="Rectángulo_416858" data-name="Rectángulo 416858" width="38" height="47" rx="4" transform="translate(5 9)" fill="#eee"/>
      <path id="Trazado_1048786" data-name="Trazado 1048786" d="M28,7a4,4,0,0,0-8,0H16a2,2,0,0,0-2,2v3a2,2,0,0,0,2,2H32a2,2,0,0,0,2-2V9a2,2,0,0,0-2-2Z" fill="#ef5350"/>
      <path id="Trazado_1048787" data-name="Trazado 1048787" d="M43,13V52a4,4,0,0,1-4,4H9a4,4,0,0,1-4-4V49a4,4,0,0,0,4,4H34a4,4,0,0,0,4-4V13a4,4,0,0,0-4-4h5A4,4,0,0,1,43,13Z" fill="#e0e0e0"/>
      <path id="Trazado_1048788" data-name="Trazado 1048788" d="M22.5,3.3A3.756,3.756,0,0,1,24,3a4,4,0,0,1,4,4H25a3.978,3.978,0,0,0-2.5-3.7Z" fill="#e53935"/>
      <path id="Trazado_1048789" data-name="Trazado 1048789" d="M34,9v3a2.006,2.006,0,0,1-2,2H16a2.006,2.006,0,0,1-2-2V9a2.015,2.015,0,0,0,2,2H29a2,2,0,1,0,0-4h3a2.006,2.006,0,0,1,2,2Z" fill="#e53935"/>
      <g id="Grupo_1201874" data-name="Grupo 1201874">
        <path id="Trazado_1048790" data-name="Trazado 1048790" d="M11,20h6v6H11Z" fill="#ffb74d"/>
        <path id="Trazado_1048791" data-name="Trazado 1048791" d="M11,32h6v6H11Z" fill="#ffb74d"/>
        <path id="Trazado_1048792" data-name="Trazado 1048792" d="M11,44h6v6H11Z" fill="#ffb74d"/>
      </g>
      <path id="Trazado_1048793" data-name="Trazado 1048793" d="M17,20v6H11V23a3,3,0,0,0,3-3Z" fill="#ffa726"/>
      <path id="Trazado_1048794" data-name="Trazado 1048794" d="M17,32v6H11V35a3,3,0,0,0,3-3Z" fill="#ffa726"/>
      <path id="Trazado_1048795" data-name="Trazado 1048795" d="M17,44v6H11V47a3,3,0,0,0,3-3Z" fill="#ffa726"/>
      <circle id="Elipse_14286" data-name="Elipse 14286" cx="15" cy="15" r="15" transform="translate(29 31)" fill="#ffd54f"/>
      <path id="Trazado_1048796" data-name="Trazado 1048796" d="M59,46A15.006,15.006,0,0,1,44,61a14.6,14.6,0,0,1-2-.14,14.993,14.993,0,0,0,0-29.72A14.6,14.6,0,0,1,44,31,15.006,15.006,0,0,1,59,46Z" fill="#ffca28"/>
      <circle id="Elipse_14287" data-name="Elipse 14287" cx="11" cy="11" r="11" transform="translate(33 35)" fill="#ffb74d"/>
      <path id="Trazado_1048797" data-name="Trazado 1048797" d="M46,56.82a11,11,0,1,1,0-21.64,11,11,0,0,0,0,21.64Z" fill="#ffa726"/>
      <path id="Trazado_1048798" data-name="Trazado 1048798" d="M21,44a1,1,0,0,1,1-1h3a1,1,0,0,1,0,2H22A1,1,0,0,1,21,44Zm7-6a1,1,0,0,0-1-1H22a1,1,0,0,0,0,2h5A1,1,0,0,0,28,38ZM22,51h4a1,1,0,0,0,0-2H22a1,1,0,0,0,0,2Zm38-5A16,16,0,1,1,44,30,16,16,0,0,1,60,46Zm-2,0A14,14,0,1,0,44,60,14,14,0,0,0,58,46ZM28.866,56a1,1,0,0,1-1,1H9a5.006,5.006,0,0,1-5-5V13A5.006,5.006,0,0,1,9,8h4.184A3,3,0,0,1,16,6h3.1a5,5,0,0,1,9.8,0H32a3,3,0,0,1,2.816,2H39a5.006,5.006,0,0,1,5,5V27.05a1,1,0,1,1-2,0V13a3,3,0,0,0-3-3H35v2a3,3,0,0,1-3,3H16a3,3,0,0,1-3-3V10H9a3,3,0,0,0-3,3V52a3,3,0,0,0,3,3H27.866a1,1,0,0,1,1,1ZM15,12a1,1,0,0,0,1,1H32a1,1,0,0,0,1-1V9a1,1,0,0,0-1-1H28a1,1,0,0,1-1-1,3,3,0,0,0-6,0,1,1,0,0,1-1,1H16a1,1,0,0,0-1,1ZM32,32a1,1,0,0,0-1-1H22a1,1,0,0,0,0,2h9A1,1,0,0,0,32,32Zm5-13H22a1,1,0,0,0,0,2H37a1,1,0,0,0,0-2ZM56,46A12,12,0,1,1,44,34,12,12,0,0,1,56,46Zm-2,0A10,10,0,1,0,44,56,10,10,0,0,0,54,46ZM18,44v6a1,1,0,0,1-1,1H11a1,1,0,0,1-1-1V44a1,1,0,0,1,1-1h6A1,1,0,0,1,18,44Zm-2,1H12v4h4Zm2-19a1,1,0,0,1-1,1H11a1,1,0,0,1-1-1V20a1,1,0,0,1,1-1h6a1,1,0,0,1,1,1Zm-2-5H12v4h4Zm22,5a1,1,0,0,0-1-1H22a1,1,0,0,0,0,2H37A1,1,0,0,0,38,26ZM18,38a1,1,0,0,1-1,1H11a1,1,0,0,1-1-1V32a1,1,0,0,1,1-1h6a1,1,0,0,1,1,1Zm-2-5H12v4h4Zm27.5,9H47a1,1,0,0,0,0-2H45V39a1,1,0,0,0-2,0v1.05A3.492,3.492,0,0,0,43.5,47h1a1.5,1.5,0,0,1,0,3H41a1,1,0,0,0,0,2h2v1a1,1,0,0,0,2,0V51.95A3.492,3.492,0,0,0,44.5,45h-1a1.5,1.5,0,0,1,0-3Z"/>
    </g>
  </g>
</svg>
