<svg xmlns="http://www.w3.org/2000/svg" width="295.07" height="573.434" viewBox="0 0 295.07 573.434">
  <g id="Grupo_1202035" data-name="Grupo 1202035" transform="translate(-180 -2762)">
    <g id="Grupo_1201914" data-name="Grupo 1201914" transform="translate(0 -23)">
      <rect id="Rectángulo_416878" data-name="Rectángulo 416878" width="241" height="570" rx="65" transform="translate(207 2785)" fill="#edae3b"/>
      <g id="Grupo_1201913" data-name="Grupo 1201913" transform="translate(0 -26.559)">
        <g id="Grupo_1201912" data-name="Grupo 1201912" transform="translate(-753.38 74.896)">
          <path id="Trazado_1038033" data-name="Trazado 1038033" d="M864.974,380.957l-2.679-2.4-.043.047a280.274,280.274,0,0,1-30.863,29.07,242.6,242.6,0,0,0-26.2,24.447c-4.65,5.061-11.48,13.32-17.521,20.668a174.272,174.272,0,0,0-19.259,5.142,46.306,46.306,0,0,0-11.291-6.761l-.082-.036-.008.089c-.044.517-.081,1.033-.11,1.534v.029l.02.021a51.645,51.645,0,0,1,7.762,9.74c3.5,5.714,15.248,27.02,18,33.027.492,1.075,1.008,2.214,1.575,3.483h0l.119-.052c-.718-1.635-1.223-2.731-1.446-3.21a131.735,131.735,0,0,1,14.809,16.117c8.182,10.237,20.448,27.752,32.417,53.064l.12-.048a319.827,319.827,0,0,0-26.57-59.581c2.553-2.6,4.978-5.277,7.208-7.959l84.45-89.085.045-.048Z" transform="translate(279.604 2466.86)" fill="#a75b3f"/>
          <path id="Trazado_1038034" data-name="Trazado 1038034" d="M502.362,895.523c-9.528-7.505-19.333-14.939-29.143-22.1q-.992-.724-1.984-1.444c.2-3.146.324-6.4.372-9.691-.337-1.517-.713-3.362-1.147-5.5a312.117,312.117,0,0,0-8.005-32.347c-4.814-15.3-10.864-28.526-17.981-39.3-19.715-29.854-44.933-51.551-71.633-74.521q-3.121-2.685-6.273-5.4c-4.213-3.637-13.6-17.584-15.074-24.394.056-.276.12-.56.193-.844l.048-.189-.151.124a44.15,44.15,0,0,0-10.424,12.025c-2.684,4.681-3.883,9.318-3.469,13.411-4.92,3.353-8.219,8.57-10.8,13.233a122.2,122.2,0,0,0-15.2,57.676c-.261,25.315,7.42,50.106,14.847,74.082,7.134,23.026,14.509,46.834,14.868,71.117.2,13.613-1.62,28.2-3.381,42.313-2.758,22.1-5.61,44.942-1.084,65.592l.006.027.023.014a46.385,46.385,0,0,0,8.97,4c13.25,4.531,34.066,7.551,55.683,8.079q3.468.085,6.871.084c21.252,0,40.505-2.457,54.784-7.036l.034-.011.009-.035a178.878,178.878,0,0,0,3.135-18.041c1.007-7.272,2.048-14.792,4.232-21.935,3.258-10.652,6.765-21.429,10.156-31.85,1.431-4.4,2.911-8.946,4.352-13.423l36.549,27.542.053.04,27.013-38.007,1.854-2.607.033-.046-.043-.038C535.046,922.129,518.8,908.473,502.362,895.523Zm-104.868,145.76c-7.2-.276-14.263-.829-20.95-1.629C383.205,1040.444,390.27,1041,397.494,1041.283Z" transform="translate(621.696 2235.408)" fill="#a75b3f"/>
          <path id="Trazado_1038035" data-name="Trazado 1038035" d="M919.322,960.387q-1.693-3.815-3.4-7.42c-23.176-49.015-47.47-69.4-47.47-69.4s.578,1.216,1.574,3.485c25.771,57.735,30.58,104.66,29.3,131.826h0q-.073,4.855-.376,9.709,1.006.729,2.013,1.464,15.082,11,29.141,22.094C929.99,1036.158,928.875,981.915,919.322,960.387Z" transform="translate(193.909 2078.84)" fill="#85392e"/>
          <path id="Trazado_1038036" data-name="Trazado 1038036" d="M1252.607,1797.4l-.051-.021-24.806,34.9-.04.053,8.919,6.257.056.039,22.608-38.05.034-.06Z" transform="translate(-82.124 1376.719)" fill="#e4f4fe"/>
          <path id="Trazado_1038037" data-name="Trazado 1038037" d="M1248.593,383.066l5.961-5.64.047-.044-19.733-20.664-5.33-5.584-6.7,8.763-.035.047,25.747,23.082Z" transform="translate(-78.352 2487.929)" fill="#e4f4fe"/>
          <path id="Trazado_1038038" data-name="Trazado 1038038" d="M572.477,686.491c-2.749-6.008-14.552-27.4-18-33.033a51.6,51.6,0,0,0-7.772-9.753c-.833,13.961,3.416,20.806,3.416,20.806l4.51,15.61s-35.45-1.005-57.908-36.872V627.143l-.713-.071c-4.637,1.544-10.81,5.539-12.574,12.388q-.109.423-.2.86c1.448,6.716,10.779,20.715,15.1,24.443,29.175,25.183,56.657,47.748,77.894,79.908,18.727,28.358,24.305,64.445,27.123,77.131h0c1.276-27.166-3.532-74.091-29.3-131.826Q573.277,688.24,572.477,686.491Z" transform="translate(489.884 2275.914)" fill="#e4f4fe"/>
          <path id="Trazado_1038039" data-name="Trazado 1038039" d="M1359.768,1893.685c-3.622-7.766-9.183-13.976-14.466-20.618q-4.266-5.361-8.458-10.78-2.1-2.71-4.174-5.433c-.547-.717-3.1-5.061-3.864-5.1l6.841.309a25.222,25.222,0,0,0,7.765-.454,8.531,8.531,0,0,0,5.862-4.727c.478-1.218.458-2.827-.6-3.592a3.092,3.092,0,0,0-1.218-.472c-2-.4-4.067.027-6.109.09-9.445.3-17.244-7.036-26.189-10.082a43.537,43.537,0,0,0-8.308-1.816l-13.6,22.89c4.171,3.844,9.413,6.792,13.921,10.288,9.671,7.5,18.7,16.125,25.011,26.708,1.121,1.88,2.3,3.945,4.317,4.785a2.329,2.329,0,0,0,2.079.011,1.527,1.527,0,0,0,.48-.461q.607.624,1.232,1.226a5,5,0,0,0,2.344,1.492,1.9,1.9,0,0,0,2.16-1.054,40.4,40.4,0,0,0,4.18,3.966c1.171.961,2.8,1.89,4.1,1.123a2.813,2.813,0,0,0,1.175-2.47q.353.312.722.606a4.547,4.547,0,0,0,3.29,1.267,2.894,2.894,0,0,0,1.947-1.286,4.107,4.107,0,0,0,.709-2.025A9.177,9.177,0,0,0,1359.768,1893.685Z" transform="translate(-132.479 1350.875)" fill="#f7b7a1"/>
          <path id="Trazado_1038040" data-name="Trazado 1038040" d="M1288.364,219.27c3.484-4.087,7.206-8,10.82-11.969,5.206-5.717,10.908-12.319,13.012-19.9a6.7,6.7,0,0,0,.263-3.4,3,3,0,0,0-1.552-1.964,17.484,17.484,0,0,0,1.442-4.623,9.09,9.09,0,0,0,.134-1.42,4.16,4.16,0,0,0-.463-2.072,2.652,2.652,0,0,0-1.756-1.284,20.043,20.043,0,0,0,1.055-5.911c.036-1.425-.24-3.11-1.515-3.749a2.214,2.214,0,0,0-1.331-.192,23.712,23.712,0,0,0,.545-3.344,7.128,7.128,0,0,0-1.027-5.087,2.08,2.08,0,0,0-.917-.719c-1.218-.419-2.276.9-2.906,2.022-2.4,4.28-4.868,8.97-7.989,12.777a63.043,63.043,0,0,1-6.164,6.11,63.885,63.885,0,0,0-6.8,7.317l-.022.028a29.5,29.5,0,0,0-.76-13.983,2.953,2.953,0,0,0-1.039-1.724,2.14,2.14,0,0,0-2.7.731,6.677,6.677,0,0,0-.993,2.876q-.4,2.137-.956,4.242a68.317,68.317,0,0,0-1.888,7.75,20.823,20.823,0,0,0,.825,8.33c.71,2.7,2.684,4.941,2.879,7.806.088,1.306-1.834,4.369-3.874,7.038Z" transform="translate(-118.222 2639.74)" fill="#f7b7a1"/>
          <path id="Trazado_1038041" data-name="Trazado 1038041" d="M535.6,332.871q-.165,1-.355,2.017a87.6,87.6,0,0,0-3.609-18.882,51.03,51.03,0,0,1-6.864-2.244c-1.92-.778-3.785-1.655-5.608-2.6,3.534,3.924,7.626,7.566,12.793,9.246a61.78,61.78,0,0,1-25.578-4.39c-6-2.427-11.53-5.8-17.7-7.819a42.541,42.541,0,0,0-5.367-1.369,40.944,40.944,0,0,1,7.059,4.756c5.138,3.938,10.647,8.577,16.474,11.429a68.6,68.6,0,0,1-12.383-5.395c-12.079-6.8-21.726-11.566-35.536-6.821q-.378.353-.726.74h0c-4.938,7.277-4.933,29.114-4.933,29.114-.228-.65-.486-1.32-.768-2.008a7.783,7.783,0,0,0-10.126,3.434c-2.806,4.782-1.626,11.782,2.636,15.635,2.813,2.543,6.266,3.079,9.1,1.774q.123.578.261,1.156a36.29,36.29,0,0,0,9.788,17.512v19.038c22.459,35.867,57.909,36.872,57.909,36.872l-4.511-15.61s-4.249-6.845-3.416-20.806q.045-.752.11-1.532a73.417,73.417,0,0,1,1.221-8.445,67.2,67.2,0,0,0,9.7-8.734c6.624-6.974,10.867-14.29,11.8-24.1.037-.394.069-.788.1-1.181,2.984.9,6.328-.117,8.758-3.029,3.681-4.411,3.87-11.507.423-15.85A7.787,7.787,0,0,0,535.6,332.871Z" transform="translate(522.46 2521.972)" fill="#f7b7a1"/>
          <path id="Trazado_1038042" data-name="Trazado 1038042" d="M747.8,481.651c-.269-3.815-5.561-6.616-12.125-6.616-.541,0-1.093.02-1.651.059-7.305.513-13.012,4.291-12.722,8.421.269,3.815,5.562,6.616,12.128,6.616q.812,0,1.648-.058C742.38,489.558,748.087,485.781,747.8,481.651Z" transform="translate(306.981 2392.731)" fill="#f18c77"/>
          <path id="Trazado_1038043" data-name="Trazado 1038043" d="M539.718,490.94a19.385,19.385,0,0,0-9.508-1.526c-7.305.514-13.013,4.292-12.722,8.421.269,3.815,5.562,6.617,12.125,6.617q.814,0,1.65-.059a19.448,19.448,0,0,0,9.2-2.84c2.411-1.591,3.662-3.572,3.521-5.58S542.329,492.178,539.718,490.94Z" transform="translate(463.577 2381.729)" fill="#f18c77"/>
          <path id="Trazado_1038044" data-name="Trazado 1038044" d="M598.854,1843.937l0-.031-1.936-1.865-.073-.069-.028.111c-1.45,5.757-3.9,10.385-5.335,16.042-3.392,13.319-9.2,21.914-12.46,35.528-2.187,9.141-1.854,16.294-2.862,25.594-.819,7.559-1.573-.043-3.031,7.577a42.863,42.863,0,0,1-9.261,2.694c-2.881.591-7.731,2.071-11.281,2.526-8.5,1.09-18.37,2.615-31.468,1.974-7.224-.361-16.644-1.949-23.306-2.959-11.793-1.8-8.132,3.56-16.277,0l-12.208-2.95-15.167-5.928L457.082,1964l0,.086H611.9l0-.085C610.668,1923.426,604.124,1876.313,598.854,1843.937Z" transform="translate(509.984 1342.457)" fill="#421f35"/>
          <path id="Trazado_1038045" data-name="Trazado 1038045" d="M1199.181,1907.67a3.09,3.09,0,1,0,3.09,3.09A3.094,3.094,0,0,0,1199.181,1907.67Z" transform="translate(-57.829 1291.978)" fill="#421f35"/>
          <path id="Trazado_1038046" data-name="Trazado 1038046" d="M596.46,654.287l-.059-.109c-5.215-9.451-1.084-23.9-.906-24.515l.048-.163-.144.09-.028.021c-.352.392-3.706,3.863-12.937,4.988-.786.119-1.591.21-2.4.268l-.063,0c-.9.061-1.813.081-2.708.066q-.409.006-.83.006c-13.7,0-27.166-12.879-28.657-14.349l-.482-.435.312.452a89.446,89.446,0,0,0,16.553,18.228,77.235,77.235,0,0,0,15.755,10.13c9.424,4.521,16.35,5.3,16.419,5.3Z" transform="translate(440.664 2281.226)" fill="#421f35"/>
          <path id="Trazado_1038047" data-name="Trazado 1038047" d="M572.739,423.227a2.65,2.65,0,0,0-2.078,1.68,7.376,7.376,0,0,0-.644,3.719c.187,2.794,1.649,4.993,3.291,4.993l.122,0c1.691-.112,2.912-2.534,2.722-5.4a7.372,7.372,0,0,0-1.133-3.6A2.633,2.633,0,0,0,572.739,423.227Z" transform="translate(423.224 2432.541)" fill="#421f35"/>
          <path id="Trazado_1038048" data-name="Trazado 1038048" d="M762.778,410.558l-.124,0a2.65,2.65,0,0,0-2.078,1.679,8,8,0,0,0,.49,7.319,2.716,2.716,0,0,0,2.155,1.393l.125,0a2.649,2.649,0,0,0,2.077-1.68,8,8,0,0,0-.488-7.319A2.719,2.719,0,0,0,762.778,410.558Z" transform="translate(277.304 2442.271)" fill="#421f35"/>
          <path id="Trazado_1038049" data-name="Trazado 1038049" d="M653.9,474.513l.557-.081c4.495-.651,7.842-2.057,10.238-4.3l.04-.039-.385-.555c-2.654-4.155-3.7-9.223-4.713-14.124l-.084-.4-.029-.177c-.113-.671-.231-1.363-.376-2.047l-.11-.518-.018.529c-.234,6.942,1.064,12.673,3.854,17.034-2.283,1.975-5.178,3.194-8.45,4.473Z" transform="translate(358.759 2410.221)" fill="#421f35"/>
          <path id="Trazado_1038050" data-name="Trazado 1038050" d="M447.14,193.006c.3.724.549,1.379.768,2l.125.358v-.379c0-.218.051-21.892,4.919-29.074.223-.249.462-.491.709-.723,13.5-4.634,22.81-.307,35.47,6.82a68.684,68.684,0,0,0,12.394,5.4l.048-.12c-4.842-2.37-9.415-5.937-13.839-9.387-.866-.675-1.76-1.373-2.622-2.034a41.1,41.1,0,0,0-6.7-4.564,42.646,42.646,0,0,1,4.945,1.286,83.549,83.549,0,0,1,10.436,4.49c2.355,1.143,4.789,2.325,7.263,3.327a61.853,61.853,0,0,0,23.082,4.446c.841,0,1.683-.017,2.523-.052l.36-.015-.342-.111c-5.435-1.767-9.534-5.673-12.525-8.963,1.818.936,3.555,1.737,5.3,2.442a51.143,51.143,0,0,0,6.838,2.238,88.239,88.239,0,0,1,3.6,18.832l.033.51.095-.5c.13-.688.25-1.368.356-2.018a97.542,97.542,0,0,0,1.249-15.83,36.185,36.185,0,0,0,10.356-.176l-.01-.063h0l-.01-.064h0l-.034,0c-.825,0-2.671-4.615-3.129-5.945a35.919,35.919,0,0,1-1.456-6.711,70.436,70.436,0,0,0-3.408-13.833,29.1,29.1,0,0,0-6.87-10.541,40.353,40.353,0,0,0-10.282-7.388c-6.345-3.217-13.082-4.412-18.98-3.367-8.871-4.068-16.828-6.056-24.257-6.056q-.954,0-1.9.044c-11.5.532-21.75,6.573-26.112,15.39a28.969,28.969,0,0,0-2.7,13.17c-4.243,2.031-6.9,4.765-8.121,8.358-2.815,8.288,2.857,19.427,7.863,29.255C444.3,186.871,445.941,190.089,447.14,193.006Z" transform="translate(527.751 2667.634)" fill="#421f35"/>
          <path id="Trazado_1038051" data-name="Trazado 1038051" d="M735.358,360.231l.235-.223-.3.116a8.506,8.506,0,0,0-3.638,2.346,9.176,9.176,0,0,0-2.317,6.426l-.011.25.131-.214a3.129,3.129,0,0,1,1.036-.91,6.422,6.422,0,0,0,.616-.433,6.5,6.5,0,0,0-.206,1.8v.191l.115-.153c.786-1.054,12.86-3.234,21.418,1.351l.182.1-.093-.184c-3.723-7.3-11.216-8.921-15.491-7.766l.008-.01a11.266,11.266,0,0,0,1.24-1.772l.039-.074-.082-.018A6.128,6.128,0,0,0,734,362.316c.081-.187.169-.375.264-.558A6.069,6.069,0,0,1,735.358,360.231Z" transform="translate(300.806 2481.111)" fill="#421f35"/>
          <path id="Trazado_1038052" data-name="Trazado 1038052" d="M509.845,385.633l-.068.195.166-.122c7.832-5.738,20.089-5.268,21.019-4.335l.134.135-.024-.189a6.565,6.565,0,0,0-.455-1.749,6.3,6.3,0,0,0,.67.344,3.137,3.137,0,0,1,1.155.755l.159.193-.047-.246a9.176,9.176,0,0,0-3.193-6.037,8.5,8.5,0,0,0-3.931-1.815l-.317-.073.264.189a5.99,5.99,0,0,1,1.295,1.358c.12.167.235.341.339.515a6.138,6.138,0,0,0-4.371-.663l-.078.03.048.068a11.517,11.517,0,0,0,1.479,1.584l.007.006C519.7,375.236,512.512,377.884,509.845,385.633Z" transform="translate(469.493 2471.367)" fill="#421f35"/>
          <path id="Trazado_1038053" data-name="Trazado 1038053" d="M647.09,1505.163l3.683-13.964.011-.045-.039-.025c-35.574-23.494-65.854-50.452-84.992-68.931-20.737-20.021-33.219-34.675-33.343-34.821l-.1.08a655.4,655.4,0,0,0,52.113,61.974,117.964,117.964,0,0,1-45.342,26.048l-.062.019,4.719,15.453.019.062.062-.019a134.26,134.26,0,0,0,51.972-29.982c29.867,29.591,51.013,43.958,51.223,44.1Z" transform="translate(452.18 1691.74)" fill="#421f35"/>
          <path id="Trazado_1038054" data-name="Trazado 1038054" d="M814.3,1221.588a206.062,206.062,0,0,0-31.511-42.377l-.1.087a231.124,231.124,0,0,1,15.177,20.744c7.493,11.446,17.508,28.861,22.675,46.828l.006.022,10.011,7.124.092.065.77-8.04,0-.033-.024-.022c-.044-.041-4.509-4.085-7.729-4.835A150.146,150.146,0,0,0,814.3,1221.588Z" transform="translate(259.798 1851.684)" fill="#421f35"/>
          <path id="Trazado_1038055" data-name="Trazado 1038055" d="M757.374,865.993l-.213.129a23.6,23.6,0,0,0-5.094,4.537,20.964,20.964,0,0,0-5.188,13.361l0,.247,10.373-18.057Z" transform="translate(287.32 2092.342)" fill="#421f35"/>
          <path id="Trazado_1038056" data-name="Trazado 1038056" d="M817,730.669l.341.4c.184.217,18.528,21.94,30.974,42.424l.044.073,7.446-7.911.036-.037-.028-.043c-.089-.134-9.238-13.619-38.385-34.6Z" transform="translate(233.443 2196.317)" fill="#421f35"/>
          <path id="Trazado_1038057" data-name="Trazado 1038057" d="M602.44,569.327l-.284-.066-.256.159-.065.289.16.252c4.063,2.862,7.594,4.2,11.11,4.2a14.534,14.534,0,0,0,4.751-.82.39.39,0,0,0,.241-.492.384.384,0,0,0-.492-.242h0C612.7,574.271,608.027,573.261,602.44,569.327Z" transform="translate(398.761 2320.333)" fill="#421f35"/>
          <path id="Trazado_1038058" data-name="Trazado 1038058" d="M464.311,467.859a2.135,2.135,0,0,1,2.158.333,4.452,4.452,0,0,1,1.77,2.531h0a.382.382,0,0,0,.455.282.388.388,0,0,0,.3-.444c-.071-.42-.131-.844-.19-1.255l0-.016a17.482,17.482,0,0,0-.867-3.877,5.536,5.536,0,0,0-3.889-3.666,4.047,4.047,0,0,0-4.539,5.383l.2.218.3.011.217-.2.011-.3a3.272,3.272,0,0,1,3.671-4.351,4.771,4.771,0,0,1,3.306,3.185,13.3,13.3,0,0,1,.68,2.745,5.065,5.065,0,0,0-.986-.886,2.883,2.883,0,0,0-2.979-.368,2.616,2.616,0,0,0-1.179,2.4,6.949,6.949,0,0,0,.689,2.423.39.39,0,0,0,.366.234h0l.139-.03a.389.389,0,0,0,.206-.509,6.28,6.28,0,0,1-.628-2.147A1.845,1.845,0,0,1,464.311,467.859Z" transform="translate(508.305 2402.991)" fill="#421f35"/>
          <path id="Trazado_1038059" data-name="Trazado 1038059" d="M859.333,440.347l.244.171a.387.387,0,0,0,.463-.292,4.047,4.047,0,0,0-5.216-4.732,5.535,5.535,0,0,0-3.367,4.149,17.4,17.4,0,0,0-.344,3.947v.022c0,.418-.008.85-.023,1.273a.384.384,0,0,0,.352.4l.271-.064.149-.275a4.46,4.46,0,0,1,1.421-2.743,2.132,2.132,0,0,1,2.094-.617,1.848,1.848,0,0,1,1,1.581,6.269,6.269,0,0,1-.337,2.212.391.391,0,0,0,.279.479l.094.011a.389.389,0,0,0,.375-.287,6.949,6.949,0,0,0,.361-2.49,2.623,2.623,0,0,0-1.486-2.225,2.884,2.884,0,0,0-2.9.761,5.01,5.01,0,0,0-.862,1.011,13.3,13.3,0,0,1,.309-2.812,4.91,4.91,0,0,1,2.855-3.6,3.27,3.27,0,0,1,4.216,3.825Z" transform="translate(207.249 2423.263)" fill="#421f35"/>
          <path id="Trazado_1038060" data-name="Trazado 1038060" d="M470.959,835.7l.293.067.231-.153L481.251,821l9.017,35.19.2.257.31.011.014-.006c.062-.025,6.234-2.524,15.929,1.5,12.229,5.077,30.806,20.894,49.865,67.412a.387.387,0,0,0,.367.239h0l.134-.027a.388.388,0,0,0,.212-.506c-19.158-46.764-37.919-62.7-50.283-67.835-8.6-3.568-14.423-2.2-16.107-1.653l-9.127-35.619a.39.39,0,0,0-.312-.287.4.4,0,0,0-.388.167l-10.013,14.991c-8.472-5.937-17.914-17.316-24.348-25.826-7.154-9.461-12.2-17.432-12.247-17.51a.388.388,0,0,0-.656.414C434.662,793.241,454.547,824.435,470.959,835.7Z" transform="translate(527.897 2149.713)" fill="#421f35"/>
          <path id="Trazado_1038061" data-name="Trazado 1038061" d="M499.85,1344.526l-.167.245.056.291,4.156,6.3.317.179.2-.061.016-.008.167-.246-.056-.291-4.157-6.3h0A.388.388,0,0,0,499.85,1344.526Z" transform="translate(477.249 1724.714)" fill="#421f35"/>
          <path id="Trazado_1038062" data-name="Trazado 1038062" d="M494.9,1359.56l-.286.067-.158.252.065.289a23.93,23.93,0,0,0,4.707,4.936l.243.088.278-.136.023-.017.081-.285-.145-.26a23.079,23.079,0,0,1-4.553-4.776Z" transform="translate(481.267 1713.113)" fill="#421f35"/>
          <path id="Trazado_1038063" data-name="Trazado 1038063" d="M756.4,1149.6h0a.389.389,0,0,0-.009.547,28.2,28.2,0,0,1,4.082,5.4l.009.015.317.183.188-.05.016-.006a.387.387,0,0,0,.139-.53,28.823,28.823,0,0,0-4.193-5.554A.39.39,0,0,0,756.4,1149.6Z" transform="translate(280.095 1874.514)" fill="#421f35"/>
          <path id="Trazado_1038064" data-name="Trazado 1038064" d="M770.474,1150.835l-.23-.188-.294.029a.389.389,0,0,0-.16.524,27.857,27.857,0,0,0,2.642,4.06l.3.153.225-.077.019-.01a.389.389,0,0,0,.065-.544A27,27,0,0,1,770.474,1150.835Z" transform="translate(269.749 1873.631)" fill="#421f35"/>
          <path id="Trazado_1038065" data-name="Trazado 1038065" d="M614.982,1429.76l-.252.157a.388.388,0,0,0,.089.54,99.538,99.538,0,0,0,53.745,18.333.388.388,0,0,0,.013-.775,98.74,98.74,0,0,1-53.307-18.188Z" transform="translate(388.909 1659.176)" fill="#421f35"/>
          <path id="Trazado_1038066" data-name="Trazado 1038066" d="M885.061,1401.922a.388.388,0,0,0,.39.365h.019a.39.39,0,0,0,.366-.408,79.308,79.308,0,0,0-8.38-31.192.391.391,0,0,0-.52-.172h0l-.193.225.023.3A78.492,78.492,0,0,1,885.061,1401.922Z" transform="translate(187.54 1704.727)" fill="#421f35"/>
          <path id="Trazado_1038067" data-name="Trazado 1038067" d="M938.378,1480.771a.383.383,0,0,0-.46.3l-1.748,7.985a.389.389,0,0,0,.3.463l.077.008a.39.39,0,0,0,.379-.3l1.748-7.985a.389.389,0,0,0-.3-.462Z" transform="translate(141.885 1619.989)" fill="#421f35"/>
          <path id="Trazado_1038068" data-name="Trazado 1038068" d="M953.825,1491.633l-.28-.075a.389.389,0,0,0-.347.425,59.477,59.477,0,0,0,1.562,8.785.389.389,0,0,0,.376.291h0l.094-.012.237-.178.042-.293a58.592,58.592,0,0,1-1.542-8.672Z" transform="translate(128.797 1611.694)" fill="#421f35"/>
          <path id="Trazado_1038069" data-name="Trazado 1038069" d="M1310.82,1784.428a21.546,21.546,0,0,0-4.426,2.462.39.39,0,0,0-.088.541l.31.166.215-.069.018-.009a20.708,20.708,0,0,1,4.265-2.373l.211-.21v-.3A.385.385,0,0,0,1310.82,1784.428Z" transform="translate(-142.458 1386.694)" fill="#421f35"/>
          <path id="Trazado_1038070" data-name="Trazado 1038070" d="M1319.236,1793.276l-1.621,1.622a.387.387,0,0,0,0,.548l.274.119.253-.1,1.642-1.637a.387.387,0,0,0-.547-.548Z" transform="translate(-151.114 1379.959)" fill="#421f35"/>
          <path id="Trazado_1038071" data-name="Trazado 1038071" d="M1280.635,1756a.388.388,0,0,0-.387.387,66.2,66.2,0,0,1-2.168,16.864h0a.391.391,0,0,0,.285.475l.091.011a.391.391,0,0,0,.376-.289,67.107,67.107,0,0,0,2.191-17.061A.387.387,0,0,0,1280.635,1756Z" transform="translate(-120.816 1408.512)" fill="#421f35"/>
          <path id="Trazado_1038072" data-name="Trazado 1038072" d="M1211.8,1885.987l-.249-.158-.287.056-.163.26a17.543,17.543,0,0,0-.255,3.318.39.39,0,0,0,.387.38h.007l.273-.119.107-.276a16.775,16.775,0,0,1,.242-3.171Z" transform="translate(-69.165 1308.759)" fill="#421f35"/>
          <path id="Trazado_1038073" data-name="Trazado 1038073" d="M1220.8,1892.852a.389.389,0,0,0-.521.166l-1.236,2.376a.388.388,0,0,0,.164.523l.189.049.325-.2,1.244-2.394.026-.3Z" transform="translate(-75.427 1303.396)" fill="#421f35"/>
          <path id="Trazado_1038074" data-name="Trazado 1038074" d="M1180.028,1858.937l-.294-.031-.231.187a64.076,64.076,0,0,1-5.037,7.847.389.389,0,0,0,.077.543l.239.082.282-.141.023-.02a65.027,65.027,0,0,0,5.1-7.942A.389.389,0,0,0,1180.028,1858.937Z" transform="translate(-41.155 1329.445)" fill="#421f35"/>
          <path id="Trazado_1038075" data-name="Trazado 1038075" d="M1255.379,1805.58l-.286.064-.156.262a66.272,66.272,0,0,1-3.623,13.763l.008.3.228.209.126.022a.39.39,0,0,0,.362-.248,67.076,67.076,0,0,0,3.666-13.926l-.072-.288Z" transform="translate(-100.26 1370.418)" fill="#421f35"/>
          <path id="Trazado_1038076" data-name="Trazado 1038076" d="M874.027,1356.806l.321.189.183-.047.015-.006a.389.389,0,0,0,.152-.527c-1.973-3.56-4.085-7.131-6.275-10.61a.389.389,0,0,0-.534-.121l-.172.241.049.293c2.17,3.446,4.274,7,6.253,10.572Z" transform="translate(194.474 1723.821)" fill="#421f35"/>
          <path id="Trazado_1038077" data-name="Trazado 1038077" d="M612.993,1409.517a69.418,69.418,0,0,1-11.338-8.756l-.268-.106h-.01l-.27.12-.108.277.12.271a70.315,70.315,0,0,0,11.464,8.852l.212.063.314-.175.009-.014A.387.387,0,0,0,612.993,1409.517Z" transform="translate(399.403 1681.538)" fill="#421f35"/>
          <path id="Trazado_1038078" data-name="Trazado 1038078" d="M807.566,1519.836a.388.388,0,0,0,.044-.773l-9.983-1.126a.373.373,0,0,0-.428.342.388.388,0,0,0,.341.429l9.985,1.126Z" transform="translate(248.656 1591.428)" fill="#421f35"/>
          <path id="Trazado_1038079" data-name="Trazado 1038079" d="M652.8,1648.981l.055.291.317.179.2-.061.016-.008a63.135,63.135,0,0,0,14.9-13.733l.081-.284-.145-.261-.288-.08-.256.146a62.437,62.437,0,0,1-14.714,13.565Z" transform="translate(359.6 1501.462)" fill="#421f35"/>
          <path id="Trazado_1038080" data-name="Trazado 1038080" d="M688.51,1629.635l.245.089.276-.134,4-5.024.082-.286-.144-.259a.387.387,0,0,0-.544.062l-3.975,5.006-.082.286Z" transform="translate(332.276 1509.981)" fill="#421f35"/>
          <path id="Trazado_1038081" data-name="Trazado 1038081" d="M947.436,668.674l.038,0a.387.387,0,0,0,.386-.346,156.147,156.147,0,0,0,.635-16.346h-.064l.064-.028c.024-8.078.047-15.708,2.082-24.029a.391.391,0,0,0-.285-.469.386.386,0,0,0-.469.284c-2.056,8.416-2.078,16.1-2.1,24.226v.014a155.38,155.38,0,0,1-.632,16.266l.084.284Z" transform="translate(133.49 2275.626)" fill="#421f35"/>
          <path id="Trazado_1038082" data-name="Trazado 1038082" d="M935.169,784.4h.033a.386.386,0,0,0,.386-.352l.819-8.819a.388.388,0,0,0-.351-.421h-.031a.387.387,0,0,0-.39.352l-.819,8.819.087.283Z" transform="translate(142.918 2162.402)" fill="#421f35"/>
          <path id="Trazado_1038083" data-name="Trazado 1038083" d="M1092.466,511.964l.043,0a.387.387,0,0,0,.385-.344A127.83,127.83,0,0,1,1100,481.6a.387.387,0,1,0-.727-.268,128.5,128.5,0,0,0-7.146,30.207l.082.285Z" transform="translate(22.052 2388.091)" fill="#421f35"/>
          <path id="Trazado_1038084" data-name="Trazado 1038084" d="M1125.4,482.661l.078.008a.389.389,0,0,0,.38-.309l2.109-10.16a.388.388,0,0,0-.3-.458l-.292.052-.168.249-2.109,10.16A.39.39,0,0,0,1125.4,482.661Z" transform="translate(-3.274 2395.26)" fill="#421f35"/>
          <path id="Trazado_1038085" data-name="Trazado 1038085" d="M1210.649,452.3l.092.283.265.133h.029a.389.389,0,0,0,.386-.358,223.36,223.36,0,0,0-2.181-52.619.376.376,0,0,0-.445-.32.389.389,0,0,0-.322.443A222.487,222.487,0,0,1,1210.649,452.3Z" transform="translate(-67.341 2450.832)" fill="#421f35"/>
          <path id="Trazado_1038086" data-name="Trazado 1038086" d="M1220.836,408.328a.391.391,0,0,0,.389.335h0l.048,0a.389.389,0,0,0,.332-.437l-.809-5.827a.389.389,0,0,0-.77.107Z" transform="translate(-76.218 2448.798)" fill="#421f35"/>
          <path id="Trazado_1038087" data-name="Trazado 1038087" d="M1304.707,506.281l2.839-10.312a.389.389,0,0,0-.272-.477.385.385,0,0,0-.474.271l-2.839,10.312a.39.39,0,0,0,.279.479l.095.011A.385.385,0,0,0,1304.707,506.281Z" transform="translate(-140.7 2377.023)" fill="#421f35"/>
          <path id="Trazado_1038088" data-name="Trazado 1038088" d="M1320.446,504.081l-.053,0a.387.387,0,0,0-.385.335,22.394,22.394,0,0,1-1.013,4.246l.017.3.232.2.116.018a.388.388,0,0,0,.366-.261,23.211,23.211,0,0,0,1.051-4.392.388.388,0,0,0-.332-.437h0Z" transform="translate(-152.262 2370.416)" fill="#421f35"/>
          <path id="Trazado_1038089" data-name="Trazado 1038089" d="M1058.447,666.214l.208.06.315-.179.009-.014a254.365,254.365,0,0,0,17.192-34.313.387.387,0,1,0-.717-.293,253.518,253.518,0,0,1-17.141,34.208A.39.39,0,0,0,1058.447,666.214Z" transform="translate(48.072 2272.718)" fill="#421f35"/>
          <path id="Trazado_1038090" data-name="Trazado 1038090" d="M1066.446,745.417l-.231.189c-2.239,4.21-4.638,8.4-7.129,12.464l-.047.293.174.24.211.062.314-.176.009-.014c2.5-4.073,4.9-8.28,7.151-12.507a.389.389,0,0,0-.16-.524Z" transform="translate(47.472 2184.985)" fill="#421f35"/>
          <path id="Trazado_1038091" data-name="Trazado 1038091" d="M415.133,801.085l-.3-.011-.217.2a35.371,35.371,0,0,0-2.487,7.835.388.388,0,0,0,.312.455l.068.006a.386.386,0,0,0,.38-.314,34.694,34.694,0,0,1,2.434-7.663A.39.39,0,0,0,415.133,801.085Z" transform="translate(544.523 2142.222)" fill="#421f35"/>
          <path id="Trazado_1038092" data-name="Trazado 1038092" d="M431.329,809.264h0l.085-.011a.39.39,0,0,0,.285-.468,17.091,17.091,0,0,1-.422-5.735.389.389,0,0,0-.348-.423l-.28.081-.144.268a17.932,17.932,0,0,0,.439,5.994A.39.39,0,0,0,431.329,809.264Z" transform="translate(530.463 2141.029)" fill="#421f35"/>
          <path id="Trazado_1038093" data-name="Trazado 1038093" d="M664.43,976.57a.388.388,0,0,0,.376.266h0l.11-.018.226-.193.023-.3a85.482,85.482,0,0,1-3.5-15.522l-.155-.262-.28-.073a.389.389,0,0,0-.334.435A86.375,86.375,0,0,0,664.43,976.57Z" transform="translate(353.382 2019.749)" fill="#421f35"/>
          <path id="Trazado_1038094" data-name="Trazado 1038094" d="M551.359,924.921l.26.1.265-.119.021-.016a.387.387,0,0,0-.031-.547,103.04,103.04,0,0,1-8.857-8.922.39.39,0,0,0-.547-.035l-.131.266.1.281A103.408,103.408,0,0,0,551.359,924.921Z" transform="translate(444.475 2054.465)" fill="#421f35"/>
          <path id="Trazado_1038095" data-name="Trazado 1038095" d="M793.61,1077.958a104.254,104.254,0,0,1,8.552,8.726l.29.139.237-.089.02-.012.133-.266-.094-.281a105.285,105.285,0,0,0-8.617-8.792.394.394,0,0,0-.548.026h0l-.1.28Z" transform="translate(251.511 1929.997)" fill="#421f35"/>
          <path id="Trazado_1038096" data-name="Trazado 1038096" d="M804.427,862.768l-.2.215.008.3.216.206a23.418,23.418,0,0,1,10.689,8.4l.305.168.1-.011a.388.388,0,0,0,.3-.32,39.071,39.071,0,0,0,.347-8.55.385.385,0,0,0-.4-.36h-.011a.388.388,0,0,0-.358.413,38.386,38.386,0,0,1-.211,7.432,24.312,24.312,0,0,0-10.476-7.9Z" transform="translate(243.258 2094.826)" fill="#421f35"/>
          <path id="Trazado_1038097" data-name="Trazado 1038097" d="M804.778,886.092l.02-.013.124-.27-.1-.278a72.072,72.072,0,0,0-5.941-5.728l-.281-.092-.265.133a.389.389,0,0,0,.042.547,71.323,71.323,0,0,1,5.875,5.666l.284.13Z" transform="translate(247.856 2081.801)" fill="#421f35"/>
          <path id="Trazado_1038098" data-name="Trazado 1038098" d="M835.546,953.7a170.007,170.007,0,0,1,7.916,19.41.387.387,0,0,0,.377.271h0l.106-.017.228-.19.025-.3a170.488,170.488,0,0,0-7.944-19.487l-.019-.041c-3.942-8.63-8.018-17.554-9.84-26.975a.381.381,0,0,0-.454-.307.386.386,0,0,0-.305.454c1.837,9.511,5.932,18.476,9.9,27.158Z" transform="translate(226.809 2046.189)" fill="#421f35"/>
          <path id="Trazado_1038099" data-name="Trazado 1038099" d="M810.479,941.814l.266.132a.371.371,0,0,0,.284-.09l.129-.271a2.4,2.4,0,0,0-.731-1.881.979.979,0,0,0-1-.3,1.018,1.018,0,0,0-.594.893,8.084,8.084,0,0,0,.77,4.99,3.2,3.2,0,0,0,.993,1.238,1.181,1.181,0,0,0,.626.228h.028a1.117,1.117,0,0,0,1.008-.833,2.486,2.486,0,0,0,0-1.083.384.384,0,0,0-.385-.327l-.059,0-.254.155-.07.289a1.8,1.8,0,0,1,.02.745.362.362,0,0,1-.255.274l-.226-.094a2.467,2.467,0,0,1-.738-.949,7.294,7.294,0,0,1-.7-4.511.749.749,0,0,1,.082-.274l.223.118a1.623,1.623,0,0,1,.487,1.262Z" transform="translate(239.805 2035.968)" fill="#421f35"/>
          <path id="Trazado_1038100" data-name="Trazado 1038100" d="M843.806,1024.7a.387.387,0,0,0,.388-.382,1.862,1.862,0,0,0-.269-1.205,1.013,1.013,0,0,0-.867-.378.761.761,0,0,0-.63.409,1.1,1.1,0,0,0-.1.487,11.075,11.075,0,0,0,1.281,5.368,3.93,3.93,0,0,0,1.388,1.627,1.149,1.149,0,0,0,.59.184h0l.142-.013a.952.952,0,0,0,.727-.824,2.044,2.044,0,0,0-.106-.833.389.389,0,0,0-.476-.269h0l-.234.185-.033.3a1.485,1.485,0,0,1,.082.5l-.122.18-.177-.073a3.251,3.251,0,0,1-1.1-1.323,10.318,10.318,0,0,1-1.19-4.979l.049-.13.161.066a1.29,1.29,0,0,1,.1.707A.391.391,0,0,0,843.806,1024.7Z" transform="translate(213.98 1971.916)" fill="#421f35"/>
          <path id="Trazado_1038101" data-name="Trazado 1038101" d="M520.254,1805.4l.322.193.193-.051a442.824,442.824,0,0,0,41.122-25.119c11.607-7.991,23.351-17.062,30.637-29.221a.389.389,0,0,0-.134-.532l-.3-.044-.235.177c-7.208,12.032-18.875,21.039-30.41,28.981a442.176,442.176,0,0,1-41.049,25.075l-.188.229.03.3Z" transform="translate(461.473 1412.641)" fill="#421f35"/>
          <path id="Trazado_1038102" data-name="Trazado 1038102" d="M799.458,1770.134l.273.118.255-.106.02-.014a64.3,64.3,0,0,0,10.571-14.045.389.389,0,0,0-.15-.526h0a.39.39,0,0,0-.527.15,63.432,63.432,0,0,1-10.442,13.876A.388.388,0,0,0,799.458,1770.134Z" transform="translate(247.008 1408.888)" fill="#421f35"/>
          <path id="Trazado_1038103" data-name="Trazado 1038103" d="M502.65,1956.122h0l.136-.028a37.859,37.859,0,0,0,10.038-6.14l.136-.263-.092-.283h0a.391.391,0,0,0-.546-.044,37.057,37.057,0,0,1-9.834,6.014l-.209.211v.3A.382.382,0,0,0,502.65,1956.122Z" transform="translate(475.251 1260.014)" fill="#421f35"/>
          <path id="Trazado_1038104" data-name="Trazado 1038104" d="M428.919,2155.144h0a.386.386,0,0,0-.51.2l-1.748,3.993a.389.389,0,0,0,.212.514l.142.029a.386.386,0,0,0,.355-.232l1.748-3.992A.39.39,0,0,0,428.919,2155.144Z" transform="translate(533.381 1101.859)" fill="#421f35"/>
          <path id="Trazado_1038105" data-name="Trazado 1038105" d="M438.926,2176.667l-.284-.073a10.992,10.992,0,0,0-4.105,1.365l-.182.233.038.3.007.015.319.185.186-.05.015-.006a10.235,10.235,0,0,1,3.816-1.268.389.389,0,0,0,.338-.432Z" transform="translate(527.442 1085.353)" fill="#421f35"/>
          <path id="Trazado_1038106" data-name="Trazado 1038106" d="M926.237,2174.784l-.221-.2-.3.016-.2.221.016.3a24.186,24.186,0,0,0,3.273,5.09l.294.144.231-.085.02-.01.138-.263-.09-.284A23.514,23.514,0,0,1,926.237,2174.784Z" transform="translate(150.059 1086.896)" fill="#421f35"/>
          <path id="Trazado_1038107" data-name="Trazado 1038107" d="M943.856,2158.313l.042,0,.259-.145.081-.286-.8-6.732-.149-.261-.281-.077-.259.145-.081.286.8,6.732A.388.388,0,0,0,943.856,2158.313Z" transform="translate(136.889 1105.165)" fill="#421f35"/>
          <path id="Trazado_1038108" data-name="Trazado 1038108" d="M984.771,1929.908l.177.044.324-.2.008-.016a91.494,91.494,0,0,0,6.375-15.248l-.025-.3-.229-.191-.3.024-.191.229a90.878,90.878,0,0,1-6.319,15.12A.389.389,0,0,0,984.771,1929.908Z" transform="translate(104.705 1287.11)" fill="#421f35"/>
          <path id="Trazado_1038109" data-name="Trazado 1038109" d="M984.429,1900.136l-.206-.212-.3-.006-.214.21a51.878,51.878,0,0,1-5.45,9.66l-.067.288.156.252.232.078.285-.148.024-.02a52.545,52.545,0,0,0,5.531-9.805Z" transform="translate(109.588 1297.934)" fill="#421f35"/>
          <path id="Trazado_1038110" data-name="Trazado 1038110" d="M674.967,1894.663l-.14-.262a.391.391,0,0,0-.546.053c-18.185,22.095-36.991,44.942-60.368,62.37l-.151.254.073.288.305.161.218-.073.019-.009c23.451-17.484,42.287-40.368,60.5-62.5Z" transform="translate(389.598 1302.24)" fill="#421f35"/>
          <path id="Trazado_1038111" data-name="Trazado 1038111" d="M719.25,2014.022l-.29-.069-.25.155a152.163,152.163,0,0,1-23.6,25.684.388.388,0,0,0-.042.547l.291.14.236-.089.019-.012a152.832,152.832,0,0,0,23.721-25.815l.07-.289Z" transform="translate(327.198 1210.316)" fill="#421f35"/>
          <path id="Trazado_1038112" data-name="Trazado 1038112" d="M891.559,1635.172a.388.388,0,0,0,.38-.311l-.057-.291-.248-.165a260.77,260.77,0,0,1-71.293-25.318.388.388,0,0,0-.364.686,261.58,261.58,0,0,0,71.511,25.393Z" transform="translate(231.311 1521.424)" fill="#421f35"/>
          <path id="Trazado_1038113" data-name="Trazado 1038113" d="M821.069,1592.481l8.235,4.741.2.056.319-.184.009-.015a.392.392,0,0,0-.143-.53l-8.236-4.741a.389.389,0,0,0-.529.142h0A.392.392,0,0,0,821.069,1592.481Z" transform="translate(230.463 1534.707)" fill="#421f35"/>
          <path id="Trazado_1038114" data-name="Trazado 1038114" d="M1104.985,1730.956a.389.389,0,0,0-.372-.4,181.1,181.1,0,0,1-20.421-1.969.384.384,0,0,0-.443.324l.07.288.254.154a181.852,181.852,0,0,0,20.524,1.978A.387.387,0,0,0,1104.985,1730.956Z" transform="translate(28.487 1429.582)" fill="#421f35"/>
          <path id="Trazado_1038115" data-name="Trazado 1038115" d="M1024.25,1482.688l.261-7.985a.389.389,0,0,0-.375-.4h-.013a.386.386,0,0,0-.387.375l-.261,7.985a.392.392,0,0,0,.387.4A.386.386,0,0,0,1024.25,1482.688Z" transform="translate(74.799 1624.952)" fill="#421f35"/>
          <path id="Trazado_1038116" data-name="Trazado 1038116" d="M1031.527,1494.333a.387.387,0,0,0,.381-.318l.962-5.248a.39.39,0,0,0-.312-.451h0a.4.4,0,0,0-.449.313l-.961,5.247a.39.39,0,0,0,.318.452Z" transform="translate(68.909 1614.188)" fill="#421f35"/>
          <path id="Trazado_1038117" data-name="Trazado 1038117" d="M1108.57,1572.96l-.3.016-.2.222.017.3,1.873,3.867a.385.385,0,0,0,.358.217h0l.155-.037.2-.222-.018-.3-1.873-3.867Z" transform="translate(9.796 1549.149)" fill="#421f35"/>
          <path id="Trazado_1038118" data-name="Trazado 1038118" d="M1119.768,1572.767h.028l.265-.134.092-.283a36.845,36.845,0,0,0-.631-4.539l-.168-.248-.289-.055a.388.388,0,0,0-.3.457,36.085,36.085,0,0,1,.618,4.444A.388.388,0,0,0,1119.768,1572.767Z" transform="translate(1.592 1553.339)" fill="#421f35"/>
          <path id="Trazado_1038119" data-name="Trazado 1038119" d="M916.814,970.245l-.23.188-.029.295,1.045,3.479a.39.39,0,0,0,.379.276h0l.1-.016.23-.187.029-.295L917.3,970.5A.378.378,0,0,0,916.814,970.245Z" transform="translate(156.949 2012.255)" fill="#421f35"/>
          <path id="Trazado_1038120" data-name="Trazado 1038120" d="M928.357,979.16h0l.139-.029a.388.388,0,0,0,.206-.508,174.811,174.811,0,0,0-15.492-28.771l-.247-.165-.29.057a.389.389,0,0,0-.109.537,173.991,173.991,0,0,1,15.424,28.642A.389.389,0,0,0,928.357,979.16Z" transform="translate(160.063 2028.035)" fill="#421f35"/>
          <path id="Trazado_1038121" data-name="Trazado 1038121" d="M982.614,1050.072l-.207.212,0,.3,2.548,5.966a.386.386,0,0,0,.365.234h0l.14-.03.207-.212,0-.3-2.548-5.966-.211-.207Z" transform="translate(106.352 1950.908)" fill="#421f35"/>
          <path id="Trazado_1038122" data-name="Trazado 1038122" d="M1029.192,1155.582c2.609,10.113,4.178,20.609,5.695,30.76a.387.387,0,0,0,.389.33l.052,0,.255-.152.072-.289-.006-.039c-1.519-10.158-3.089-20.662-5.7-30.8-2.955-11.465-6.858-20.941-11.935-28.969a.39.39,0,0,0-.534-.12l-.172.243.052.292C1022.388,1134.8,1026.259,1144.2,1029.192,1155.582Z" transform="translate(79.54 1892.383)" fill="#421f35"/>
          <path id="Trazado_1038123" data-name="Trazado 1038123" d="M1051.715,1244.225h.021a.389.389,0,0,0,.366-.408,74.052,74.052,0,0,0-3.85-19.9.387.387,0,1,0-.734.25,73.268,73.268,0,0,1,3.809,19.7A.387.387,0,0,0,1051.715,1244.225Z" transform="translate(56.34 1817.538)" fill="#421f35"/>
          <path id="Trazado_1038124" data-name="Trazado 1038124" d="M1044.85,1384.548a.389.389,0,0,0-.217.5,77.621,77.621,0,0,1,4.793,18.046.391.391,0,0,0,.389.333h0l.049,0a.388.388,0,0,0,.33-.437,78.586,78.586,0,0,0-4.841-18.226h0A.388.388,0,0,0,1044.85,1384.548Z" transform="translate(58.562 1693.935)" fill="#421f35"/>
          <path id="Trazado_1038125" data-name="Trazado 1038125" d="M563.955,1569.187l-.131.266.1.281.288.137.238-.09.02-.012a104.141,104.141,0,0,0,18.846-21.874.387.387,0,0,0-.115-.535l-.291-.055-.245.171A103.337,103.337,0,0,1,563.955,1569.187Z" transform="translate(427.967 1568.861)" fill="#421f35"/>
          <path id="Trazado_1038126" data-name="Trazado 1038126" d="M609.582,1546.555l.238.083.281-.141.023-.019a63.973,63.973,0,0,0,5.341-8.378.389.389,0,0,0-.16-.524l-.3-.029-.228.188a63.177,63.177,0,0,1-5.276,8.276l-.074.287Z" transform="translate(392.924 1576.359)" fill="#421f35"/>
          <path id="Trazado_1038127" data-name="Trazado 1038127" d="M613.034,837.273h-.025l-.265.131-.1.281.131.266c4.174,3.663,8.516,7.253,12.907,10.669l.241.087.28-.137.021-.018.08-.286-.148-.258c-4.389-3.417-8.719-7-12.87-10.639Z" transform="translate(390.454 2114.408)" fill="#421f35"/>
          <path id="Trazado_1038128" data-name="Trazado 1038128" d="M640.937,851.568l.246.09.276-.133.023-.018a.389.389,0,0,0-.061-.545l-6.242-4.987a.388.388,0,1,0-.484.606Z" transform="translate(373.625 2107.787)" fill="#421f35"/>
          <path id="Trazado_1038129" data-name="Trazado 1038129" d="M492.633,694.205l.294.143.234-.085.019-.011a.389.389,0,0,0,.047-.546,38.636,38.636,0,0,1-3.608-5.062h0l-.24-.178-.292.043-.178.239.043.293A39.323,39.323,0,0,0,492.633,694.205Z" transform="translate(485.527 2228.744)" fill="#421f35"/>
          <path id="Trazado_1038130" data-name="Trazado 1038130" d="M498.553,690.272l.278-.135.023-.018.081-.285-.145-.26-6.145-4.837-.285-.08-.259.145-.081.286.145.258,6.145,4.837Z" transform="translate(483.138 2231.669)" fill="#421f35"/>
          <path id="Trazado_1038131" data-name="Trazado 1038131" d="M527.571,682.1l.231-.083.02-.011a.392.392,0,0,0,.053-.546,40.522,40.522,0,0,1-7.679-14.7l-.18-.233-.3-.037-.234.184-.034.294a41.292,41.292,0,0,0,7.822,14.982Z" transform="translate(462.06 2245.623)" fill="#421f35"/>
          <path id="Trazado_1038132" data-name="Trazado 1038132" d="M631.926,800.326a.388.388,0,0,0,.165-.738,91.86,91.86,0,0,1-17.4-10.677l-.281-.081-.263.148-.08.286.148.259a92.554,92.554,0,0,0,17.559,10.772Z" transform="translate(389.362 2151.63)" fill="#421f35"/>
          <path id="Trazado_1038133" data-name="Trazado 1038133" d="M739.717,857.641a.385.385,0,0,0,.386-.353l-.088-.283-.263-.138a51.811,51.811,0,0,1-7.434-1.227.394.394,0,0,0-.467.286.389.389,0,0,0,.287.468h0a52.732,52.732,0,0,0,7.548,1.245Z" transform="translate(298.872 2100.302)" fill="#421f35"/>
          <path id="Trazado_1038134" data-name="Trazado 1038134" d="M779.054,769.165h0l.129-.023a.39.39,0,0,0,.231-.5,143.579,143.579,0,0,1-6.042-21.853.392.392,0,0,0-.453-.308.388.388,0,0,0-.307.454,144.179,144.179,0,0,0,6.072,21.972A.39.39,0,0,0,779.054,769.165Z" transform="translate(267.548 2184.17)" fill="#421f35"/>
          <path id="Trazado_1038135" data-name="Trazado 1038135" d="M822.907,828.5h0l.1-.016.229-.193.025-.294a63.073,63.073,0,0,0-2.337-6.279.388.388,0,0,0-.712.309,62.231,62.231,0,0,1,2.309,6.2A.387.387,0,0,0,822.907,828.5Z" transform="translate(230.991 2126.542)" fill="#421f35"/>
          <path id="Trazado_1038136" data-name="Trazado 1038136" d="M716.878,922.776l.009.014.315.176.193-.054.016-.007a.39.39,0,0,0,.13-.533,44.608,44.608,0,0,0-7.011-8.775l-.269-.11h0l-.276.117a.388.388,0,0,0,.009.548A43.8,43.8,0,0,1,716.878,922.776Z" transform="translate(315.752 2055.85)" fill="#421f35"/>
          <path id="Trazado_1038137" data-name="Trazado 1038137" d="M1357.483,241.842a5.473,5.473,0,0,1,2.247,1.687l.3.153.224-.078.019-.011.145-.258-.081-.286a6.253,6.253,0,0,0-2.565-1.927l-.3,0-.208.213v.3Z" transform="translate(-181.67 2572.455)" fill="#421f35"/>
          <path id="Trazado_1038138" data-name="Trazado 1038138" d="M1373.568,259.639c-.606-.511-1.259-.585-1.656-.187l-.114.274.114.274.274.113h0l.272-.114c.082-.079.375.035.609.233a6.515,6.515,0,0,1,1.509,1.833l.009.015.321.189.183-.047.015-.006a.389.389,0,0,0,.151-.528A7.287,7.287,0,0,0,1373.568,259.639Z" transform="translate(-192.833 2558.568)" fill="#421f35"/>
          <path id="Trazado_1038139" data-name="Trazado 1038139" d="M1393.938,285.1l.083-.011.008,0,.236-.181.039-.293a4.365,4.365,0,0,0-2.183-2.72l-.294-.026-.23.194a.391.391,0,0,0,.169.522,3.582,3.582,0,0,1,1.788,2.229.39.39,0,0,0,.382.288h0Z" transform="translate(-208.013 2541.151)" fill="#421f35"/>
          <path id="Trazado_1038140" data-name="Trazado 1038140" d="M1402.045,309.029l-.247-.091h-.032l-.265.137-.09.284.138.262a4.284,4.284,0,0,1,1.5,3.005.389.389,0,0,0,.39.366h.019a.388.388,0,0,0,.366-.407A5.075,5.075,0,0,0,1402.045,309.029Z" transform="translate(-215.585 2520.35)" fill="#421f35"/>
          <path id="Trazado_1038141" data-name="Trazado 1038141" d="M1409.11,282.057a.391.391,0,0,0-.481.262,10.079,10.079,0,0,1-1.932,3.616l-.089.283.136.262.252.1.273-.127.021-.017a10.834,10.834,0,0,0,2.084-3.9A.386.386,0,0,0,1409.11,282.057Z" transform="translate(-219.579 2541.015)" fill="#421f35"/>
          <path id="Trazado_1038142" data-name="Trazado 1038142" d="M1401.481,241.592l-.293-.03-.232.19a47.278,47.278,0,0,1-4.446,6.87l-.079.286.147.258.241.087.28-.137.022-.018a48,48,0,0,0,4.519-6.983l.029-.3Z" transform="translate(-211.76 2572.118)" fill="#421f35"/>
          <path id="Trazado_1038143" data-name="Trazado 1038143" d="M1379.788,220.08l.235.081.284-.144.023-.019a42.332,42.332,0,0,0,5.065-9.014v-.3l-.211-.211h-.3l-.208.212a41.577,41.577,0,0,1-4.972,8.848l-.072.29Z" transform="translate(-198.853 2596.002)" fill="#421f35"/>
          <path id="Trazado_1038144" data-name="Trazado 1038144" d="M1319.279,287.3a.387.387,0,0,0,.775.014,7.542,7.542,0,0,0-1.123-4.068.387.387,0,1,0-.657.409A6.769,6.769,0,0,1,1319.279,287.3Z" transform="translate(-151.662 2540.228)" fill="#421f35"/>
          <path id="Trazado_1038145" data-name="Trazado 1038145" d="M1333.993,273.505a.39.39,0,0,0-.474-.273l-.236.182-.037.294a30.423,30.423,0,0,1-1.091,19.125.392.392,0,0,0,.228.508l.12.023h.013a.386.386,0,0,0,.361-.244A31.212,31.212,0,0,0,1333.993,273.505Z" transform="translate(-162.352 2547.794)" fill="#421f35"/>
          <path id="Trazado_1038146" data-name="Trazado 1038146" d="M1352.3,327.483l-.291.056a21.715,21.715,0,0,0-7.756,9.021l-.01.3.216.223.148.03a.389.389,0,0,0,.353-.226,20.922,20.922,0,0,1,7.473-8.7l.168-.245-.056-.29Z" transform="translate(-171.658 2506.101)" fill="#421f35"/>
          <path id="Trazado_1038147" data-name="Trazado 1038147" d="M1463.294,2064.643a.388.388,0,0,0-.621.466c1.393,1.849,2.723,3.782,3.953,5.749l.009.015.312.172.2-.057.017-.007a.388.388,0,0,0,.122-.534C1466.048,2068.469,1464.7,2066.519,1463.294,2064.643Z" transform="translate(-262.596 1171.488)" fill="#421f35"/>
          <path id="Trazado_1038148" data-name="Trazado 1038148" d="M1480.437,2056.682a.387.387,0,1,0-.626.456c2.5,3.429,4.938,6.966,7.252,10.509l.316.181.2-.06.016-.008.168-.247-.056-.29C1485.392,2063.669,1482.943,2060.122,1480.437,2056.682Z" transform="translate(-275.766 1177.609)" fill="#421f35"/>
          <path id="Trazado_1038149" data-name="Trazado 1038149" d="M1515.062,2064.978a141.814,141.814,0,0,0-8.243-12.526l-.254-.153-.288.072a.387.387,0,0,0-.082.542,141.343,141.343,0,0,1,8.2,12.456l.009.015.317.182.188-.051.017-.007A.389.389,0,0,0,1515.062,2064.978Z" transform="translate(-296.038 1180.854)" fill="#421f35"/>
        </g>
      </g>
    </g>
    <path id="Trazado_1048914" data-name="Trazado 1048914" d="M29.058,0H313.275" transform="translate(156.388 3331.434)" fill="none" stroke="#817489" stroke-linecap="round" stroke-width="8"/>
  </g>
</svg>
