<svg xmlns="http://www.w3.org/2000/svg" xmlns:xlink="http://www.w3.org/1999/xlink" width="400" height="447" viewBox="0 0 400 447">
  <defs>
    <clipPath id="clip-path">
      <rect id="Rectángulo_416856" data-name="Rectángulo 416856" width="400" height="447" transform="translate(1020 893)" fill="#fff" stroke="#707070" stroke-width="1" opacity="0.91"/>
    </clipPath>
  </defs>
  <g id="Enmascarar_grupo_1183041" data-name="Enmascarar grupo 1183041" transform="translate(-1020 -893)" clip-path="url(#clip-path)">
    <g id="Grupo_1201807" data-name="Grupo 1201807">
      <g id="OBJECTS" transform="translate(983.427 859.187)">
        <g id="Grupo_1201679" data-name="Grupo 1201679" transform="translate(15.441 38.561)" opacity="0.5">
          <g id="Grupo_1201668" data-name="Grupo 1201668" transform="translate(204.04)">
            <g id="Grupo_1201667" data-name="Grupo 1201667" opacity="0.59">
              <path id="Trazado_1048420" data-name="Trazado 1048420" d="M240.165,61.245s5.008-11.073,18.682-7.772c13.52,3.263,19.343-16.1,31.381-14.853s7.722,12.363,23.082,14.853,19.8-3.569,26.274,7.772Z" transform="translate(-240.165 -38.561)" fill="#edae3b"/>
            </g>
          </g>
          <g id="Grupo_1201670" data-name="Grupo 1201670" transform="translate(33.601 48.879)" opacity="0.3">
            <g id="Grupo_1201669" data-name="Grupo 1201669">
              <path id="Trazado_1048421" data-name="Trazado 1048421" d="M364.906,387.393c37.734,0,61.9-25.5,61.195-70.831-.005-.362-.132-.715-.17-1.077-2.807-26.6-10.95-54.532-59.875-78.205-97.976-47.406-82.1-100.963-144.229-132.144-69.576-34.918-132.947,5.8-117.354,75.194,15.159,67.461-25.5,68.726-45.324,109.342-22.786,46.682,16.3,97.915,60.754,97.72Z" transform="translate(-52.449 -92.395)" fill="orange"/>
            </g>
          </g>
          <g id="Grupo_1201671" data-name="Grupo 1201671" transform="translate(24.895 261.608)" opacity="0.2">
            <path id="Trazado_1048422" data-name="Trazado 1048422" d="M96.5,414.351a1.425,1.425,0,0,1-.479-.084c-14.437-5.146-26.183-12.894-34.913-23.027a73.426,73.426,0,0,1-15.077-28.663,87.038,87.038,0,0,1-2.432-34.7,1.425,1.425,0,0,1,2.809.482h0a85.843,85.843,0,0,0,2.4,33.566c6.645,23.926,22.852,40.635,48.171,49.66a1.426,1.426,0,0,1-.479,2.768Z" transform="translate(-42.86 -326.69)" fill="#fff"/>
          </g>
          <g id="Grupo_1201672" data-name="Grupo 1201672" transform="translate(383.693 208.501)" opacity="0.2">
            <path id="Trazado_1048423" data-name="Trazado 1048423" d="M468.036,351.984a1.479,1.479,0,0,1-.178-.011,1.425,1.425,0,0,1-1.239-1.59c3.536-28.434-4.252-48.55-11.409-60.419-7.765-12.877-16.489-19.115-16.576-19.176a1.425,1.425,0,0,1,1.639-2.331c.373.261,9.223,6.567,17.3,19.908a87.083,87.083,0,0,1,10.32,25.616,105.493,105.493,0,0,1,1.554,36.754A1.425,1.425,0,0,1,468.036,351.984Z" transform="translate(-438.03 -268.198)" fill="#fff"/>
          </g>
          <g id="Grupo_1201675" data-name="Grupo 1201675" transform="translate(0 145.194)">
            <g id="Grupo_1201674" data-name="Grupo 1201674">
              <g id="Grupo_1201673" data-name="Grupo 1201673" opacity="0.3">
                <path id="Trazado_1048424" data-name="Trazado 1048424" d="M98.715,219.974s-8.77-12.18-19.748-9.53c-10.853,2.619-15.528-12.924-25.192-11.924s-8.792,7.059-21.122,9.059-15.075,1.469-17.212,12.4H98.715Z" transform="translate(-15.441 -198.474)" fill="#fff"/>
              </g>
            </g>
          </g>
          <g id="Grupo_1201678" data-name="Grupo 1201678" transform="translate(322.28 349.269)">
            <g id="Grupo_1201677" data-name="Grupo 1201677">
              <g id="Grupo_1201676" data-name="Grupo 1201676" opacity="0.3">
                <path id="Trazado_1048425" data-name="Trazado 1048425" d="M469.243,457.379s-4.979-11.01-18.576-7.728c-13.442,3.244-19.232-16.007-31.2-14.769s-10.889,8.744-26.16,11.22-16.481,0-22.914,11.277Z" transform="translate(-370.391 -434.825)" fill="#edae3b"/>
              </g>
            </g>
          </g>
        </g>
        <g id="Grupo_1201689" data-name="Grupo 1201689" transform="translate(102.212 72.241)">
          <g id="Grupo_1201681" data-name="Grupo 1201681" transform="translate(101.476 261.492)">
            <path id="Trazado_1048426" data-name="Trazado 1048426" d="M222.77,414.212l6.024,14.934,1.613,4,1.533,3.8.409,1.014,19.854,49.21H394L344.01,363.655Z" transform="translate(-222.77 -363.655)" fill="#ffb9b1"/>
            <g id="Grupo_1201680" data-name="Grupo 1201680" transform="translate(71.011 74.294)">
              <path id="Trazado_1048427" data-name="Trazado 1048427" d="M315.585,484.486a1.818,1.818,0,0,0,1.708-2.434L304.5,446.679a1.816,1.816,0,0,0-3.416,1.235l12.789,35.372A1.817,1.817,0,0,0,315.585,484.486Z" transform="translate(-300.98 -445.481)" fill="#ff8283"/>
            </g>
            <path id="Trazado_1048428" data-name="Trazado 1048428" d="M229.405,431.121l1.614,4,1.533,3.8.409,1.014,98.55,2.814A16.386,16.386,0,0,0,347,432.911h0a16.38,16.38,0,0,0,1.281-8.174l-3.964-39.623Z" transform="translate(-223.381 -365.63)" fill="#ff8283"/>
          </g>
          <path id="Trazado_1048429" data-name="Trazado 1048429" d="M152.615,323.964s-24.178-13.525-33.525,4.92,20.118,31.855,45.846,39.285S152.615,323.964,152.615,323.964Z" transform="translate(-111.589 -98.07)" fill="#ffb9b1"/>
          <path id="Trazado_1048430" data-name="Trazado 1048430" d="M147.021,275.465s-24.929-12.164-34.276,6.28,20.869,30.495,46.6,37.924S147.021,275.465,147.021,275.465Z" transform="translate(-111.008 -93.684)" fill="#ffb9b1"/>
          <path id="Trazado_1048431" data-name="Trazado 1048431" d="M153.36,209.345s-20.2-26.406-36.63-13.844,13.516,46.122,33.472,63.98S153.36,209.345,153.36,209.345Z" transform="translate(-111.098 -86.374)" fill="#ffb9b1"/>
          <path id="Trazado_1048432" data-name="Trazado 1048432" d="M147.72,190.9c2.538,2.453,5.13,4.842,7.686,7.129,19.955,17.858,8.081-45.173,8.081-45.173a44.811,44.811,0,0,0-6.2-6.142c-4.148-3.4-10-6.95-16.4-6.976a17.677,17.677,0,0,0-11.014,3.9C115.56,154.6,130.446,174.224,147.72,190.9Z" transform="translate(-112.216 -81.554)" fill="#ffb9b1"/>
          <g id="Grupo_1201686" data-name="Grupo 1201686" transform="translate(34.85)">
            <g id="Grupo_1201685" data-name="Grupo 1201685">
              <g id="Grupo_1201682" data-name="Grupo 1201682" transform="translate(5.1)">
                <path id="Trazado_1048433" data-name="Trazado 1048433" d="M155.007,92.7V392.968a17.039,17.039,0,0,0,17.041,17.041h149.53a17.037,17.037,0,0,0,17.041-17.042V92.7a17.039,17.039,0,0,0-17.041-17.041H172.048A17.032,17.032,0,0,0,155.007,92.7Z" transform="translate(-155.007 -75.655)" fill="#2d144c"/>
              </g>
              <g id="Grupo_1201683" data-name="Grupo 1201683" transform="translate(0 51.004)">
                <path id="Trazado_1048434" data-name="Trazado 1048434" d="M357.231,174.816h1.084a5.15,5.15,0,0,0,5.15-5.149V140.3a5.15,5.15,0,0,0-5.15-5.15h-1.084Z" transform="translate(-168.52 -132.134)" fill="#552b65"/>
                <path id="Trazado_1048435" data-name="Trazado 1048435" d="M154.49,164.131H153.6a4.213,4.213,0,0,1-4.213-4.213V136.042a4.212,4.212,0,0,1,4.213-4.213h.887Z" transform="translate(-149.39 -131.829)" fill="#552b65"/>
                <path id="Trazado_1048436" data-name="Trazado 1048436" d="M357.231,224.435h1.084a5.15,5.15,0,0,0,5.15-5.149V189.915a5.149,5.149,0,0,0-5.15-5.149h-1.084Z" transform="translate(-168.52 -136.701)" fill="#552b65"/>
              </g>
              <g id="Grupo_1201684" data-name="Grupo 1201684" transform="translate(13.604 8.5)">
                <path id="Trazado_1048437" data-name="Trazado 1048437" d="M330.98,92.524V394.858a7.509,7.509,0,0,1-7.509,7.51H171.88a7.5,7.5,0,0,1-7.507-7.509V92.524a7.489,7.489,0,0,1,7.507-7.507H323.471A7.512,7.512,0,0,1,330.98,92.524Z" transform="translate(-164.373 -85.017)" fill="#fff"/>
              </g>
              <path id="Trazado_1048438" data-name="Trazado 1048438" d="M164.374,92.524V106.6h166.6V92.524a7.511,7.511,0,0,0-7.507-7.507H171.881a7.493,7.493,0,0,0-7.507,7.507Z" transform="translate(-150.769 -76.517)" fill="#e3dcf7"/>
              <path id="Trazado_1048439" data-name="Trazado 1048439" d="M294.293,84.775l-4.147,4.147a22.146,22.146,0,0,1-15.66,6.486H229.168a22.146,22.146,0,0,1-15.66-6.486l-4.114-4.114Z" transform="translate(-154.913 -76.494)" fill="#2d144c"/>
              <path id="Trazado_1048440" data-name="Trazado 1048440" d="M224.052,90.34h57.983A1.342,1.342,0,0,0,283.373,89v-.188a1.341,1.341,0,0,0-1.337-1.337H224.052a1.341,1.341,0,0,0-1.337,1.337V89A1.341,1.341,0,0,0,224.052,90.34Z" transform="translate(-156.139 -76.743)" fill="#552b65"/>
              <rect id="Rectángulo_416852" data-name="Rectángulo 416852" width="171.846" height="32.678" transform="translate(183.764 327.618) rotate(180)" fill="#2d144c"/>
              <circle id="Elipse_14266" data-name="Elipse 14266" cx="12.053" cy="12.053" r="12.053" transform="translate(85.788 299.631)" fill="#552b65"/>
            </g>
          </g>
          <path id="Trazado_1048441" data-name="Trazado 1048441" d="M133.45,281.39l2.579-9.575s20.6,2.836,35.277,18.672-.169,29.939-17.348,24.222c-5.519-1.837-23.907-6.7-23.907-6.7Z" transform="translate(-112.76 -93.71)" fill="#ffb9b1"/>
          <path id="Trazado_1048442" data-name="Trazado 1048442" d="M138.271,329.976l2.579-9.575s17.072-.26,24.336,19.972c2.976,8.29-.3,20.841-9.978,21.829-11.122,1.135-27.243-10.81-27.243-10.81Z" transform="translate(-112.568 -98.182)" fill="#ffb9b1"/>
          <g id="Grupo_1201688" data-name="Grupo 1201688" transform="translate(211.082 80.47)">
            <path id="Trazado_1048443" data-name="Trazado 1048443" d="M351.786,270.384q.3.726.613,1.407a23.586,23.586,0,0,1-.3,2.774c-3.348,21.579-1.648,63.3,5.011,90.224,0,0,33.888-24.289,31.084-64.472-1.9-27.268-8.972-64.007-8.972-64.007l.106-69.192s-4.165-9.731-21.092,6.864c-17.894,17.544-14.489,56.186-14.489,56.186S345.852,256.075,351.786,270.384Z" transform="translate(-343.488 -164.283)" fill="#ffb9b1"/>
            <g id="Grupo_1201687" data-name="Grupo 1201687" transform="translate(8.298 106.101)">
              <path id="Trazado_1048444" data-name="Trazado 1048444" d="M353.24,282.547s-.12.971-.3,2.774a28.219,28.219,0,0,0,15.3,7.108,1.614,1.614,0,0,0,.188.011,1.362,1.362,0,0,0,.184-2.71,25.352,25.352,0,0,1-15.983-8.589C352.827,281.623,353.031,282.093,353.24,282.547Z" transform="translate(-352.627 -281.14)" fill="#ff8283"/>
            </g>
            <path id="Trazado_1048445" data-name="Trazado 1048445" d="M381.38,171.677s-8.654,3.02-11.447,8.419-4.813,29.189-.553,31.335,10.649.38,11.11-1.988C381.358,204.971,381.38,171.677,381.38,171.677Z" transform="translate(-345.645 -164.963)" fill="#ffd2ca"/>
          </g>
          <path id="Trazado_1048446" data-name="Trazado 1048446" d="M172.291,295.27c.467,7.637-.8,11.827-5.578,16.343,0,0-13.216-1.156-17.755-10.29S152.579,277.754,172.291,295.27Z" transform="translate(-114.388 -95.109)" fill="#ffd2ca"/>
          <path id="Trazado_1048447" data-name="Trazado 1048447" d="M162.172,342.389c-1.174,7.561-3.036,10.812-8.668,14.2,0,0-11.588-1.5-14.073-11.39S146.936,322.231,162.172,342.389Z" transform="translate(-113.589 -99.232)" fill="#ffd2ca"/>
        </g>
        <g id="Grupo_1201702" data-name="Grupo 1201702" transform="translate(374.577 212.095)">
          <g id="Grupo_1201690" data-name="Grupo 1201690" transform="translate(7.23 41.669)">
            <path id="Trazado_1048448" data-name="Trazado 1048448" d="M441.944,305.553h-17.5a5.5,5.5,0,0,1-5.5-5.5v-15.9a5.5,5.5,0,0,1,5.5-5.5h17.5a5.5,5.5,0,0,1,5.5,5.5v15.9A5.5,5.5,0,0,1,441.944,305.553Z" transform="translate(-418.946 -275.863)" fill="#0079db"/>
            <path id="Trazado_1048449" data-name="Trazado 1048449" d="M441.944,302.476h-17.5a5.5,5.5,0,0,1-5.5-5.5v-15.9a5.5,5.5,0,0,1,5.5-5.5l17.5,0a5.5,5.5,0,0,1,5.5,5.5v15.9A5.5,5.5,0,0,1,441.944,302.476Z" transform="translate(-418.946 -275.58)" fill="#009cff"/>
            <path id="Trazado_1048450" data-name="Trazado 1048450" d="M438.164,286.73h0l-2.206.013c0-.9-.027-1.777,0-2.648a.944.944,0,0,1,.954-1.067c.377-.047.757-.058,1.138-.073h1.215v-3.391l-1.272.017v0c-.647.016-1.295.033-1.942.054a4.047,4.047,0,0,0-4.06,3.909c-.064,1.06-.038,2.125-.054,3.211a1.7,1.7,0,0,1-.277.05q-1.175.011-2.351.01c-.376,0-.7.022-.591.557a3.959,3.959,0,0,1,0,.7c.013.685.03,1.368.046,2.095.805,0,1.511,0,2.215,0,1.05-.01,1.03-.013,1.035,1.032.009,1.774.03,3.549.054,5.323h0v2.7h.421v0c1.181.008,2.364-.009,3.612-.021-.031-3.06-.062-6.072-.093-9.1.778-.009,1.481-.025,2.184-.024a.857.857,0,0,0,.134-.01h.44l.726-3.341Z" transform="translate(-419.843 -275.947)" fill="#fff"/>
          </g>
          <g id="Grupo_1201694" data-name="Grupo 1201694">
            <g id="Grupo_1201691" data-name="Grupo 1201691" transform="translate(0 2.876)">
              <path id="Trazado_1048451" data-name="Trazado 1048451" d="M433.981,259.751h-17.5a5.5,5.5,0,0,1-5.5-5.5v-15.9a5.5,5.5,0,0,1,5.5-5.5h17.5a5.5,5.5,0,0,1,5.5,5.5v15.9A5.5,5.5,0,0,1,433.981,259.751Z" transform="translate(-410.983 -232.855)" fill="#d2274c"/>
            </g>
            <g id="Grupo_1201692" data-name="Grupo 1201692">
              <path id="Trazado_1048452" data-name="Trazado 1048452" d="M433.981,256.582l-17.5,0a5.5,5.5,0,0,1-5.5-5.5v-15.9a5.5,5.5,0,0,1,5.5-5.5h17.5a5.5,5.5,0,0,1,5.5,5.5v15.9A5.5,5.5,0,0,1,433.981,256.582Z" transform="translate(-410.983 -229.687)" fill="#ff3d5e"/>
            </g>
            <g id="Grupo_1201693" data-name="Grupo 1201693" transform="translate(9.651 6.463)">
              <path id="Trazado_1048453" data-name="Trazado 1048453" d="M429.43,241.2l-1.643-.924-6.175-3.473.026,6.992.008,2.372.017,4.622,6.15-3.52,6.15-3.519Z" transform="translate(-421.612 -236.805)" fill="#fff"/>
            </g>
          </g>
          <g id="Grupo_1201701" data-name="Grupo 1201701" transform="translate(0.006 87.252)">
            <g id="Grupo_1201697" data-name="Grupo 1201697" transform="translate(0 2.388)">
              <g id="Grupo_1201696" data-name="Grupo 1201696">
                <g id="Grupo_1201695" data-name="Grupo 1201695">
                  <path id="Trazado_1048454" data-name="Trazado 1048454" d="M433.988,355.31h-17.5a5.5,5.5,0,0,1-5.5-5.5v-15.9a5.5,5.5,0,0,1,5.5-5.5h17.5a5.5,5.5,0,0,1,5.5,5.5v15.9A5.5,5.5,0,0,1,433.988,355.31Z" transform="translate(-410.99 -328.414)" fill="#00a680"/>
                </g>
              </g>
            </g>
            <g id="Grupo_1201700" data-name="Grupo 1201700">
              <g id="Grupo_1201699" data-name="Grupo 1201699">
                <g id="Grupo_1201698" data-name="Grupo 1201698">
                  <path id="Trazado_1048455" data-name="Trazado 1048455" d="M433.988,352.68h-17.5a5.5,5.5,0,0,1-5.5-5.5v-15.9a5.5,5.5,0,0,1,5.5-5.5h17.5a5.5,5.5,0,0,1,5.5,5.5v15.9A5.5,5.5,0,0,1,433.988,352.68Z" transform="translate(-410.99 -325.784)" fill="#00d590"/>
                </g>
              </g>
            </g>
            <ellipse id="Elipse_14267" data-name="Elipse 14267" cx="9.156" cy="7.503" rx="9.156" ry="7.503" transform="translate(5.093 5.504)" fill="#fff"/>
            <path id="Trazado_1048456" data-name="Trazado 1048456" d="M429.878,345.74l4.322,4.683L433,344.54Z" transform="translate(-412.728 -327.51)" fill="#fff"/>
          </g>
        </g>
        <g id="Grupo_1201703" data-name="Grupo 1201703" transform="translate(97.779 45.567)">
          <path id="Trazado_1048457" data-name="Trazado 1048457" d="M142.762,80.982c-4.225.8-5.583,2.163-6.387,6.387a.6.6,0,0,1-1.173,0c-.8-4.225-2.163-5.583-6.387-6.387a.6.6,0,0,1,0-1.172c4.225-.8,5.582-2.163,6.387-6.387a.6.6,0,0,1,1.173,0c.8,4.225,2.163,5.582,6.387,6.387A.6.6,0,0,1,142.762,80.982Z" transform="translate(-108.17 -48.731)" fill="#fff"/>
          <path id="Trazado_1048458" data-name="Trazado 1048458" d="M128.808,58.92c-6.64,1.264-8.774,3.4-10.038,10.038a.938.938,0,0,1-1.843,0c-1.264-6.64-3.4-8.775-10.038-10.038a.938.938,0,0,1,0-1.843c6.64-1.264,8.774-3.4,10.038-10.038a.938.938,0,0,1,1.843,0c1.264,6.64,3.4,8.775,10.038,10.038A.938.938,0,0,1,128.808,58.92Z" transform="translate(-106.126 -46.277)" fill="#ffbf00"/>
          <path id="Trazado_1048459" data-name="Trazado 1048459" d="M401.521,373.762c-.8,4.225-2.163,5.582-6.387,6.387a.6.6,0,0,0,0,1.173c4.225.8,5.582,2.163,6.387,6.387a.6.6,0,0,0,1.172,0c.8-4.225,2.163-5.582,6.387-6.387a.6.6,0,0,0,0-1.173c-4.225-.8-5.582-2.163-6.387-6.387A.6.6,0,0,0,401.521,373.762Z" transform="translate(-132.682 -76.374)" fill="#ffbf00"/>
          <path id="Trazado_1048460" data-name="Trazado 1048460" d="M422.718,386.852c-1.264,6.64-3.4,8.774-10.038,10.038a.938.938,0,0,0,0,1.843c6.64,1.264,8.775,3.4,10.038,10.038a.938.938,0,0,0,1.843,0c1.264-6.64,3.4-8.775,10.038-10.038a.938.938,0,0,0,0-1.843c-6.64-1.264-8.775-3.4-10.038-10.038A.938.938,0,0,0,422.718,386.852Z" transform="translate(-134.271 -77.554)" fill="#fff"/>
        </g>
        <g id="Grupo_1201705" data-name="Grupo 1201705" transform="translate(166.388 98.096)">
          <g id="Grupo_1201704" data-name="Grupo 1201704" transform="translate(0)">
            <ellipse id="Elipse_14268" data-name="Elipse 14268" cx="52.821" cy="52.822" rx="52.821" ry="52.822" transform="translate(0 43.913) rotate(-20.641)" fill="#e3dcf7"/>
            <ellipse id="Elipse_14269" data-name="Elipse 14269" cx="52.821" cy="52.822" rx="52.821" ry="52.822" transform="translate(0 37.239) rotate(-20.641)" fill="#ff3d5e"/>
            <circle id="Elipse_14270" data-name="Elipse 14270" cx="41.75" cy="41.75" r="41.75" transform="translate(9.004 68.068) rotate(-45)" fill="#fff"/>
            <circle id="Elipse_14271" data-name="Elipse 14271" cx="30.677" cy="30.677" r="30.677" transform="translate(29.824 88.604) rotate(-73.243)" fill="#ff3d5e"/>
            <path id="Trazado_1048461" data-name="Trazado 1048461" d="M249.356,195.987a19.6,19.6,0,1,0-13.584-24.169A19.626,19.626,0,0,0,249.356,195.987Z" transform="translate(-186.6 -109.043)" fill="#fff"/>
            <path id="Trazado_1048462" data-name="Trazado 1048462" d="M253.469,186.448a8.532,8.532,0,1,0-5.912-10.519A8.542,8.542,0,0,0,253.469,186.448Z" transform="translate(-187.723 -110.166)" fill="#ff3d5e"/>
          </g>
          <path id="Trazado_1048463" data-name="Trazado 1048463" d="M191.413,141.62l12.753-1.941-1.941-12.753a1.352,1.352,0,0,1,2.673-.407L207,140.3l4.9,3.6L210.2,132.794a1.352,1.352,0,1,1,2.673-.407l2.1,13.779,6.185,4.551-1.691-11.106a1.352,1.352,0,1,1,2.673-.407l2.1,13.779,26.077,19.187a4,4,0,0,1,0,3.357l-27.96-20.573-13.292,2.023a1.352,1.352,0,0,1-.407-2.673l10.619-1.616-6.184-4.551L199.8,150.161a1.352,1.352,0,1,1-.407-2.673l10.619-1.616-4.9-3.6-13.292,2.023a1.352,1.352,0,0,1-.409-2.672Z" transform="translate(-182.479 -106.086)" fill="#552b65"/>
        </g>
        <g id="Grupo_1201708" data-name="Grupo 1201708" transform="translate(34.355 73.214)">
          <circle id="Elipse_14272" data-name="Elipse 14272" cx="29.772" cy="29.772" r="29.772" transform="translate(0 52.077) rotate(-60.995)" fill="#ffbf00"/>
          <circle id="Elipse_14273" data-name="Elipse 14273" cx="29.772" cy="29.772" r="29.772" transform="matrix(0.999, -0.031, 0.031, 0.999, 9.788, 8.989)" fill="#ffd600"/>
          <g id="Grupo_1201706" data-name="Grupo 1201706" transform="translate(15.725 11.798)">
            <path id="Trazado_1048464" data-name="Trazado 1048464" d="M76,90.393l-.022-.03a1.54,1.54,0,0,0-1.483-.625A26.416,26.416,0,0,0,53.678,107.1,1.553,1.553,0,0,0,54.465,109l.028.014a1.554,1.554,0,0,0,2.144-.893A23.271,23.271,0,0,1,74.986,92.832,1.55,1.55,0,0,0,76,90.393Z" transform="translate(-53.592 -89.72)" fill="#ffed93"/>
            <path id="Trazado_1048465" data-name="Trazado 1048465" d="M101.641,130.231a23.248,23.248,0,0,1-18.517,12.284,1.547,1.547,0,0,0-1.312,2.061l.011.032a1.548,1.548,0,0,0,1.6,1.024A26.388,26.388,0,0,0,104.4,131.716a1.555,1.555,0,0,0-.258-1.817l-.025-.024A1.547,1.547,0,0,0,101.641,130.231Z" transform="translate(-56.181 -93.373)" fill="#ffed93"/>
          </g>
          <circle id="Elipse_14274" data-name="Elipse 14274" cx="21.494" cy="21.494" r="21.494" transform="matrix(0.202, -0.979, 0.979, 0.202, 15.061, 54.837)" fill="#ffbf00"/>
          <g id="Grupo_1201707" data-name="Grupo 1201707" transform="translate(30.041 22.797)">
            <path id="Trazado_1048466" data-name="Trazado 1048466" d="M82.225,128.731l-.039,3.595-4.566-.05.037-3.433a19.07,19.07,0,0,1-8.3-2.357l2.522-5.543a15.551,15.551,0,0,0,7.458,2.154c2.17.024,2.952-.421,2.96-1.2.031-2.85-12.527-.687-12.434-9.14.04-3.659,2.729-6.707,8.048-7.394l.038-3.53,4.566.05-.038,3.465a16.9,16.9,0,0,1,6.554,1.95l-2.36,5.513a13.977,13.977,0,0,0-6.3-1.752c-2.234-.025-2.954.616-2.963,1.393-.03,2.72,12.528.59,12.437,8.945C89.813,124.9,87.253,127.911,82.225,128.731Z" transform="translate(-69.359 -101.834)" fill="#ffed93"/>
          </g>
        </g>
        <g id="Grupo_1201730" data-name="Grupo 1201730" transform="translate(356.411 54.384)">
          <g id="Grupo_1201724" data-name="Grupo 1201724">
            <g id="Grupo_1201719" data-name="Grupo 1201719">
              <g id="Grupo_1201709" data-name="Grupo 1201709" transform="translate(0.001 4.309)">
                <path id="Trazado_1048467" data-name="Trazado 1048467" d="M458.959,64.087V196.165a4.5,4.5,0,0,1-4.5,4.5H395.473a4.5,4.5,0,0,1-4.5-4.5V64.087a3.353,3.353,0,0,1,3.353-3.353h61.275A3.353,3.353,0,0,1,458.959,64.087Z" transform="translate(-390.977 -60.734)" fill="#e3dcf7"/>
              </g>
              <g id="Grupo_1201710" data-name="Grupo 1201710" transform="translate(0.001)">
                <path id="Trazado_1048468" data-name="Trazado 1048468" d="M458.959,59.341V191.419a4.5,4.5,0,0,1-4.5,4.5H395.473a4.5,4.5,0,0,1-4.5-4.5V59.341a3.353,3.353,0,0,1,3.353-3.353h61.275A3.352,3.352,0,0,1,458.959,59.341Z" transform="translate(-390.977 -55.988)" fill="#fff"/>
              </g>
              <g id="Grupo_1201717" data-name="Grupo 1201717" transform="translate(11.024 76.25)">
                <g id="Grupo_1201711" data-name="Grupo 1201711">
                  <path id="Trazado_1048469" data-name="Trazado 1048469" d="M449.9,142.955H404.611a1.493,1.493,0,0,1-1.494-1.494h0a1.493,1.493,0,0,1,1.494-1.494H449.9a1.493,1.493,0,0,1,1.494,1.494h0A1.494,1.494,0,0,1,449.9,142.955Z" transform="translate(-403.117 -139.968)" fill="#e3dcf7"/>
                </g>
                <g id="Grupo_1201712" data-name="Grupo 1201712" transform="translate(0 9.473)">
                  <path id="Trazado_1048470" data-name="Trazado 1048470" d="M449.9,153.388H404.611a1.493,1.493,0,0,1-1.494-1.494h0a1.493,1.493,0,0,1,1.494-1.494H449.9a1.493,1.493,0,0,1,1.494,1.494h0A1.494,1.494,0,0,1,449.9,153.388Z" transform="translate(-403.117 -150.401)" fill="#e3dcf7"/>
                </g>
                <g id="Grupo_1201713" data-name="Grupo 1201713" transform="translate(0 18.945)">
                  <path id="Trazado_1048471" data-name="Trazado 1048471" d="M449.9,163.821H404.611a1.493,1.493,0,0,1-1.494-1.494h0a1.493,1.493,0,0,1,1.494-1.494H449.9a1.493,1.493,0,0,1,1.494,1.494h0A1.494,1.494,0,0,1,449.9,163.821Z" transform="translate(-403.117 -160.834)" fill="#e3dcf7"/>
                </g>
                <g id="Grupo_1201714" data-name="Grupo 1201714" transform="translate(0 28.417)">
                  <path id="Trazado_1048472" data-name="Trazado 1048472" d="M449.9,174.253H404.611a1.493,1.493,0,0,1-1.494-1.494h0a1.494,1.494,0,0,1,1.494-1.494H449.9a1.494,1.494,0,0,1,1.494,1.494h0A1.494,1.494,0,0,1,449.9,174.253Z" transform="translate(-403.117 -171.266)" fill="#e3dcf7"/>
                </g>
                <g id="Grupo_1201715" data-name="Grupo 1201715" transform="translate(0 37.89)">
                  <path id="Trazado_1048473" data-name="Trazado 1048473" d="M449.9,184.686H404.611a1.493,1.493,0,0,1-1.494-1.494h0a1.493,1.493,0,0,1,1.494-1.494H449.9a1.493,1.493,0,0,1,1.494,1.494h0A1.494,1.494,0,0,1,449.9,184.686Z" transform="translate(-403.117 -181.699)" fill="#e3dcf7"/>
                </g>
                <g id="Grupo_1201716" data-name="Grupo 1201716" transform="translate(0 47.362)">
                  <path id="Trazado_1048474" data-name="Trazado 1048474" d="M449.9,195.118H404.611a1.493,1.493,0,0,1-1.494-1.494h0a1.494,1.494,0,0,1,1.494-1.494H449.9a1.493,1.493,0,0,1,1.494,1.494h0A1.494,1.494,0,0,1,449.9,195.118Z" transform="translate(-403.117 -192.131)" fill="#e3dcf7"/>
                </g>
              </g>
              <g id="Grupo_1201718" data-name="Grupo 1201718">
                <path id="Trazado_1048475" data-name="Trazado 1048475" d="M458.958,59.341v9.3H390.976v-9.3a3.353,3.353,0,0,1,3.353-3.353H455.6A3.352,3.352,0,0,1,458.958,59.341Z" transform="translate(-390.976 -55.988)" fill="#e3dcf7"/>
              </g>
            </g>
            <g id="Grupo_1201723" data-name="Grupo 1201723" transform="translate(47.1 3.506)">
              <g id="Grupo_1201720" data-name="Grupo 1201720">
                <path id="Trazado_1048476" data-name="Trazado 1048476" d="M447.271,62.059a2.21,2.21,0,1,1-2.21-2.21A2.21,2.21,0,0,1,447.271,62.059Z" transform="translate(-442.851 -59.849)" fill="#ff3d5e"/>
              </g>
              <g id="Grupo_1201721" data-name="Grupo 1201721" transform="translate(7.165)">
                <path id="Trazado_1048477" data-name="Trazado 1048477" d="M455.162,62.059a2.21,2.21,0,1,1-2.21-2.21A2.21,2.21,0,0,1,455.162,62.059Z" transform="translate(-450.742 -59.849)" fill="#00d590"/>
              </g>
              <g id="Grupo_1201722" data-name="Grupo 1201722" transform="translate(14.023)">
                <path id="Trazado_1048478" data-name="Trazado 1048478" d="M462.716,62.059a2.21,2.21,0,1,1-2.21-2.21A2.21,2.21,0,0,1,462.716,62.059Z" transform="translate(-458.296 -59.849)" fill="#ffbf00"/>
              </g>
            </g>
          </g>
          <g id="Grupo_1201729" data-name="Grupo 1201729" transform="translate(13.263 22.723)">
            <g id="Grupo_1201726" data-name="Grupo 1201726">
              <g id="Grupo_1201725" data-name="Grupo 1201725">
                <path id="Trazado_1048479" data-name="Trazado 1048479" d="M445.07,88.934a22.362,22.362,0,0,0-17.08-7.92c-.137,0-.273,0-.409,0-.09,0-.179,0-.269.006-.373.011-.747.031-1.118.061-.074,0-.146.011-.22.018-.11.009-.222.02-.331.032-.079.007-.159.016-.238.026-.1.012-.2.023-.3.036l-.283.038-.343.052-.23.036c-.072.012-.143.025-.213.038s-.133.023-.2.036l-.267.052-.328.067-.3.069c-.328.074-.654.159-.977.249l-.227.065c-.3.087-.591.178-.884.278s-.582.2-.869.312-.57.225-.852.348l-.281.123c-.093.041-.184.084-.278.126s-.184.087-.276.131-.16.078-.241.117a.59.59,0,0,0-.054.027c-.175.087-.349.177-.521.268l-.207.112c-.11.059-.218.121-.326.182-.088.05-.175.1-.263.153s-.173.1-.261.155c-.178.107-.355.216-.529.33q-.75.482-1.46,1.022l-.014.011q-.6.459-1.169.957c-.076.065-.153.133-.227.2-.149.135-.3.271-.443.41-.074.069-.146.139-.218.209l-.215.212c-.142.143-.283.288-.42.433l-.207.221c-.137.148-.272.3-.4.449-.065.076-.133.153-.2.229s-.131.154-.2.232-.144.175-.215.263c-.1.128-.206.258-.306.389a22.4,22.4,0,0,0,17.02,36.016q.38.014.762.014a22.4,22.4,0,0,0,17.08-36.895ZM428.883,119.25c-.3.018-.593.026-.892.026a15.846,15.846,0,0,1-13.81-23.631,15.32,15.32,0,0,1,.848-1.338q.274-.388.57-.759a15.849,15.849,0,1,1,13.283,25.7Z" transform="translate(-405.583 -81.014)" fill="#00d590"/>
              </g>
            </g>
            <path id="Trazado_1048480" data-name="Trazado 1048480" d="M447.075,121.5a22.353,22.353,0,0,1-16.891,7.7q-.381,0-.763-.014l1.655-6.567a15.811,15.811,0,0,0,10.684-5.007Z" transform="translate(-407.777 -84.383)" fill="#ffbf00"/>
            <g id="Grupo_1201727" data-name="Grupo 1201727" transform="translate(0.001 8.134)">
              <path id="Trazado_1048481" data-name="Trazado 1048481" d="M428.883,120.075l-1.653,6.566a22.4,22.4,0,0,1-17.02-36.016q.253-.331.521-.652l4.3,5.158A15.844,15.844,0,0,0,427.991,120.1Q428.44,120.1,428.883,120.075Z" transform="translate(-405.584 -89.973)" fill="#009cff"/>
            </g>
            <g id="Grupo_1201728" data-name="Grupo 1201728" transform="translate(4.625 0.003)">
              <path id="Trazado_1048482" data-name="Trazado 1048482" d="M445.539,88.934l-3.566,6.207a15.837,15.837,0,0,0-25.9-1.593c-.2.247-.387.5-.57.759a15.542,15.542,0,0,0-.848,1.338L410.677,89.8q.151-.2.306-.389c.07-.088.142-.177.215-.263s.13-.155.2-.232.131-.153.2-.229c.133-.151.267-.3.4-.449.069-.074.137-.148.207-.221.137-.145.279-.29.421-.433l.215-.212c.072-.07.144-.14.218-.209.146-.139.294-.274.443-.41.074-.067.151-.134.227-.2.378-.334.768-.652,1.169-.957l.014-.011c.472-.36.961-.7,1.46-1.022.173-.113.35-.222.529-.33.087-.054.173-.105.261-.155s.175-.1.263-.153c.108-.063.216-.123.326-.182l.207-.112q.259-.139.521-.268a.489.489,0,0,1,.054-.027c.081-.04.16-.079.241-.117s.182-.088.276-.131.184-.085.278-.126l.281-.123c.281-.122.566-.238.852-.348s.577-.215.869-.312.586-.192.884-.278l.227-.065q.485-.135.977-.249l.3-.069.328-.067c.088-.018.178-.035.267-.052.065-.014.133-.025.2-.036s.142-.025.213-.038l.23-.036.343-.052.283-.038c.1-.014.2-.025.3-.036l.238-.026c.11-.012.221-.023.331-.032.073-.007.146-.014.22-.018.37-.031.744-.05,1.118-.061.09,0,.178-.006.269-.006.135,0,.271,0,.409,0A22.352,22.352,0,0,1,445.539,88.934Z" transform="translate(-410.677 -81.017)" fill="#ff3d5e"/>
            </g>
          </g>
        </g>
        <g id="Grupo_1201742" data-name="Grupo 1201742" transform="translate(165.724 233.393)">
          <g id="Grupo_1201733" data-name="Grupo 1201733" transform="translate(1.842 82.325)">
            <g id="Grupo_1201732" data-name="Grupo 1201732" transform="translate(0.002)">
              <g id="Grupo_1201731" data-name="Grupo 1201731">
                <path id="Trazado_1048483" data-name="Trazado 1048483" d="M196.784,382.971H185.4a2.41,2.41,0,0,1-2.41-2.411V346.224a2.41,2.41,0,0,1,2.41-2.411h11.384a2.41,2.41,0,0,1,2.41,2.411v34.337A2.41,2.41,0,0,1,196.784,382.971Z" transform="translate(-182.99 -343.813)" fill="#00d590"/>
              </g>
            </g>
            <path id="Trazado_1048484" data-name="Trazado 1048484" d="M199.193,367.027V382.68a2.408,2.408,0,0,1-2.406,2.406H185.394a2.407,2.407,0,0,1-2.406-2.406V369.129C185.878,367.445,190.8,366.237,199.193,367.027Z" transform="translate(-182.988 -345.927)" fill="#00a680"/>
          </g>
          <g id="Grupo_1201736" data-name="Grupo 1201736" transform="translate(25.744 54.517)">
            <g id="Grupo_1201735" data-name="Grupo 1201735" transform="translate(0.001)">
              <g id="Grupo_1201734" data-name="Grupo 1201734">
                <path id="Trazado_1048485" data-name="Trazado 1048485" d="M223.109,380.152H211.725a2.411,2.411,0,0,1-2.411-2.411V315.6a2.411,2.411,0,0,1,2.411-2.411h11.384a2.411,2.411,0,0,1,2.411,2.411v62.145A2.411,2.411,0,0,1,223.109,380.152Z" transform="translate(-209.314 -313.186)" fill="#ffd600"/>
              </g>
            </g>
            <path id="Trazado_1048486" data-name="Trazado 1048486" d="M225.518,367.772v15a2.408,2.408,0,0,1-2.406,2.406H211.719a2.408,2.408,0,0,1-2.406-2.406V368.149A53.556,53.556,0,0,0,225.518,367.772Z" transform="translate(-209.313 -318.21)" fill="#ffbf00"/>
          </g>
          <g id="Grupo_1201739" data-name="Grupo 1201739" transform="translate(52.212 33.997)">
            <g id="Grupo_1201738" data-name="Grupo 1201738">
              <g id="Grupo_1201737" data-name="Grupo 1201737">
                <path id="Trazado_1048487" data-name="Trazado 1048487" d="M252.258,378.072H240.874a2.41,2.41,0,0,1-2.41-2.411V293a2.409,2.409,0,0,1,2.41-2.41h11.384a2.41,2.41,0,0,1,2.411,2.41v82.666A2.41,2.41,0,0,1,252.258,378.072Z" transform="translate(-238.464 -290.586)" fill="#009cff"/>
              </g>
            </g>
            <path id="Trazado_1048488" data-name="Trazado 1048488" d="M238.464,363.4a74.407,74.407,0,0,0,16.205-9.788v27.856a2.407,2.407,0,0,1-2.406,2.406H240.87a2.407,2.407,0,0,1-2.406-2.406Z" transform="translate(-238.464 -296.387)" fill="#fff"/>
            <path id="Trazado_1048489" data-name="Trazado 1048489" d="M238.464,363.4a74.407,74.407,0,0,0,16.205-9.788v27.856a2.407,2.407,0,0,1-2.406,2.406H240.87a2.407,2.407,0,0,1-2.406-2.406Z" transform="translate(-238.464 -296.387)" fill="#0079db"/>
          </g>
          <g id="Grupo_1201741" data-name="Grupo 1201741" transform="translate(78.138 9.916)">
            <g id="Grupo_1201740" data-name="Grupo 1201740" transform="translate(0.001)">
              <path id="Trazado_1048490" data-name="Trazado 1048490" d="M280.818,375.631H269.425a2.406,2.406,0,0,1-2.406-2.406V266.47a2.406,2.406,0,0,1,2.406-2.406h11.393a2.406,2.406,0,0,1,2.406,2.406V373.226A2.406,2.406,0,0,1,280.818,375.631Z" transform="translate(-267.019 -264.064)" fill="#ff3d5e"/>
            </g>
            <path id="Trazado_1048491" data-name="Trazado 1048491" d="M283.223,346.064V380.5a2.406,2.406,0,0,1-2.406,2.406H269.424a2.408,2.408,0,0,1-2.406-2.406V345.032C272.589,341.586,278.357,343.091,283.223,346.064Z" transform="translate(-267.018 -271.334)" fill="#d2274c"/>
          </g>
          <path id="Trazado_1048492" data-name="Trazado 1048492" d="M252.1,253.143l-14.966,3.21,4.019,3.941-22.913,23.36-8.041-7.887-28.435,28.988a2.806,2.806,0,0,0,.038,3.968h0a2.806,2.806,0,0,0,3.968-.038L210.273,283.7l8.041,7.887,26.843-27.366,4.019,3.941Z" transform="translate(-180.959 -253.143)" fill="#ffbf00"/>
        </g>
        <g id="Grupo_1201751" data-name="Grupo 1201751" transform="translate(277.558 237.493)">
          <g id="Grupo_1201744" data-name="Grupo 1201744" transform="translate(0 31.01)">
            <g id="Grupo_1201743" data-name="Grupo 1201743">
              <path id="Trazado_1048493" data-name="Trazado 1048493" d="M304.129,293.585l.015,20.564A1.756,1.756,0,0,0,305.9,315.9l13.31-.01,0,0h2.7l5.119,0a1.755,1.755,0,0,0,1.755-1.758l-.015-20.564a1.756,1.756,0,0,0-1.755-1.755l-21.126.014A1.761,1.761,0,0,0,304.129,293.585Z" transform="translate(-304.129 -291.812)" fill="#ff3d5e"/>
              <path id="Trazado_1048494" data-name="Trazado 1048494" d="M309.777,302.821a4.134,4.134,0,0,0,1.256,2.967l5.709,5.572,5.7-5.579a4.142,4.142,0,0,0,0-5.935c-1.56-1.523-3.934-1.246-5.707,1.33-1.776-2.572-4.15-2.846-5.708-1.322A4.135,4.135,0,0,0,309.777,302.821Z" transform="translate(-304.649 -292.466)" fill="#fff"/>
            </g>
          </g>
          <g id="Grupo_1201746" data-name="Grupo 1201746" transform="translate(0 62.149)">
            <path id="Trazado_1048495" data-name="Trazado 1048495" d="M304.129,327.882l.015,20.563A1.756,1.756,0,0,0,305.9,350.2l13.31-.01,0,0h2.7l5.119,0a1.755,1.755,0,0,0,1.755-1.758l-.015-20.564a1.756,1.756,0,0,0-1.755-1.755l-21.126.015A1.762,1.762,0,0,0,304.129,327.882Z" transform="translate(-304.129 -326.108)" fill="#009cff"/>
            <g id="Grupo_1201745" data-name="Grupo 1201745" transform="translate(5.227 8.935)">
              <path id="Trazado_1048496" data-name="Trazado 1048496" d="M314,335.949l.035,8.874-3.816,0a.294.294,0,0,1-.242-.125.289.289,0,0,1-.054-.168l-.033-8.286a.3.3,0,0,1,.034-.141c0-.008.009-.016.015-.025a.331.331,0,0,1,.036-.044.3.3,0,0,1,.208-.087Z" transform="translate(-309.886 -335.949)" fill="#fff"/>
            </g>
            <path id="Trazado_1048497" data-name="Trazado 1048497" d="M324.559,336.667a1.181,1.181,0,0,1-.037.118,1.336,1.336,0,0,1-.247.414l-.065.07a1.667,1.667,0,0,1-.322.252,1.008,1.008,0,0,1,.358.886c0,.024-.005.05-.009.075s-.008.053-.014.08-.012.054-.019.082h0c-.007.028-.015.056-.024.084a2.209,2.209,0,0,1-.084.227,1.013,1.013,0,0,1-.208.307,1.532,1.532,0,0,1-.539.338,1.481,1.481,0,0,1,.53,1.313,2.028,2.028,0,0,1-.054.308.886.886,0,0,1-.152.32l-.019.025a1.221,1.221,0,0,1-.085.1,1.492,1.492,0,0,1-.452.291c.024.013.046.027.07.042l.045.031a.9.9,0,0,1,.133.112c.014.014.028.028.041.043h0a.752.752,0,0,1,.057.071c.012.016.025.034.035.052s.022.036.031.055a.906.906,0,0,1,.094.5,1.282,1.282,0,0,1-.02.148,1.5,1.5,0,0,1-.041.161.738.738,0,0,1-.028.079c-.005.013-.01.025-.016.038s-.024.05-.036.073a1.031,1.031,0,0,1-.09.135c-.025.032-.052.063-.08.093s-.059.057-.09.084l-.032.026-.067.051q-.069.049-.144.093c-.038.021-.076.042-.116.061a2.558,2.558,0,0,1-.29.119l-.174.054c-.088.024-.178.046-.267.065l-.089.017c-.089.016-.177.031-.263.042l-.085.011-.125.014-.081.007-.04,0-.077.005-.145.008c-.3.013-.5,0-.5,0l-4.309.017v.005l-1.09,0-.035-8.88a2.5,2.5,0,0,0,1.094-.314,3.6,3.6,0,0,0,.463-.284,10.836,10.836,0,0,0,1.267-1.259,5.622,5.622,0,0,0,1.2-2.879l0-.008c.075-.291.181-.449.453-.42.768.083,1.956,1.3.366,5.056.288-.023.681-.049,1.11-.066l.067,0h.007l.043,0c.244-.009.5-.015.75-.016.156,0,.311,0,.462,0a4.43,4.43,0,0,1,1.465.21.874.874,0,0,1,.254.178l.024.025c.015.016.031.035.045.053a.954.954,0,0,1,.1.147c.011.021.022.042.032.064A1.177,1.177,0,0,1,324.559,336.667Z" transform="translate(-305.157 -326.488)" fill="#fff"/>
          </g>
          <g id="Grupo_1201748" data-name="Grupo 1201748">
            <path id="Trazado_1048498" data-name="Trazado 1048498" d="M304.129,259.431,304.144,280a1.756,1.756,0,0,0,1.758,1.755l13.31-.01,0,0h2.7l5.119,0a1.755,1.755,0,0,0,1.755-1.758l-.015-20.563a1.756,1.756,0,0,0-1.755-1.755l-21.126.015A1.76,1.76,0,0,0,304.129,259.431Z" transform="translate(-304.129 -257.659)" fill="#ffd600"/>
            <g id="Grupo_1201747" data-name="Grupo 1201747" transform="translate(4.423 3.74)">
              <path id="Trazado_1048499" data-name="Trazado 1048499" d="M321.707,268.131l-.332,2.789h2.678v3.32h-3.1l-.377,3.033h-3.542l.377-3.033H315.22l-.376,3.033H311.3l.376-3.033H309v-3.32h3.1l.332-2.789h-2.678v-3.32h3.1l.376-3.033h3.542l-.376,3.033h2.192l.376-3.033h3.542l-.377,3.033h2.679v3.32Zm-3.542,0h-2.192l-.332,2.789h2.192Z" transform="translate(-309 -261.778)" fill="#fff"/>
            </g>
          </g>
          <g id="Grupo_1201750" data-name="Grupo 1201750" transform="translate(0 93.292)">
            <path id="Trazado_1048500" data-name="Trazado 1048500" d="M304.129,362.18l.015,20.564A1.756,1.756,0,0,0,305.9,384.5l13.31-.01,0,0h2.7l5.119,0a1.755,1.755,0,0,0,1.755-1.758l-.015-20.563a1.756,1.756,0,0,0-1.755-1.755l-21.126.015A1.76,1.76,0,0,0,304.129,362.18Z" transform="translate(-304.129 -360.408)" fill="#00d590"/>
            <g id="Grupo_1201749" data-name="Grupo 1201749" transform="translate(4.284 4.212)">
              <path id="Trazado_1048501" data-name="Trazado 1048501" d="M308.847,373.089a8.042,8.042,0,1,0,8.042-8.042A8.051,8.051,0,0,0,308.847,373.089Zm4.513,2.97a10.645,10.645,0,0,1-.43-2.817h3.636v2.817Zm1.9,4.244a7.366,7.366,0,0,1-4.815-3.6h2.45a8.965,8.965,0,0,0,1.4,2.563A8.261,8.261,0,0,0,315.255,380.3Zm1.31-3.6v3.771a6.727,6.727,0,0,1-1.785-1.629,8.252,8.252,0,0,1-1.2-2.143h2.985Zm-2.809-7.575a10.046,10.046,0,0,1,2.521-3.41c.1-.008.193-.014.288-.018v3.428Zm-3.11,0a7.434,7.434,0,0,1,4.5-3.23,10.859,10.859,0,0,0-1.018,1.254,10.564,10.564,0,0,0-1.083,1.976Zm2.288,3.464a9.248,9.248,0,0,1,.558-2.817h3.073v2.817Zm-3.424,0a7.292,7.292,0,0,1,.768-2.817h2.528a9.906,9.906,0,0,0-.519,2.817Zm2.773.647a11.37,11.37,0,0,0,.4,2.817h-2.569a7.324,7.324,0,0,1-.621-2.817Zm9.136,0h2.863a7.306,7.306,0,0,1-.621,2.817h-2.644A11.374,11.374,0,0,0,321.42,373.241Zm-4.207-4.111V365.7l.205.011a9.605,9.605,0,0,1,1.632,1.826,9.879,9.879,0,0,1,.9,1.592h-2.737Zm3,.646a9.287,9.287,0,0,1,.558,2.817h-3.556v-2.817Zm.442-.646a10.613,10.613,0,0,0-1.083-1.976,10.922,10.922,0,0,0-1.039-1.276,7.417,7.417,0,0,1,4.6,3.251Zm.12,4.111a10.606,10.606,0,0,1-.429,2.817h-3.132v-2.817Zm.643-.647a9.91,9.91,0,0,0-.519-2.817h2.6a7.293,7.293,0,0,1,.768,2.817Zm1.922,4.111a7.461,7.461,0,0,1-4.914,3.617,8.075,8.075,0,0,0,.991-1.055,8.967,8.967,0,0,0,1.4-2.563h2.525Zm-3.216,0a7.609,7.609,0,0,1-2.91,3.725v-3.725Z" transform="translate(-308.847 -365.047)" fill="#fff"/>
            </g>
          </g>
        </g>
        <g id="Grupo_1201773" data-name="Grupo 1201773" transform="translate(67.968 175.464)">
          <g id="Grupo_1201772" data-name="Grupo 1201772" transform="translate(0 0)">
            <g id="Grupo_1201754" data-name="Grupo 1201754" transform="translate(82.698 6.94)">
              <g id="Grupo_1201753" data-name="Grupo 1201753">
                <g id="Grupo_1201752" data-name="Grupo 1201752">
                  <path id="Trazado_1048502" data-name="Trazado 1048502" d="M180.952,197.013l-.113,70.968-16.466-.027V196.986Z" transform="translate(-164.373 -196.986)" fill="#e3dcf7"/>
                </g>
              </g>
            </g>
            <g id="Grupo_1201757" data-name="Grupo 1201757" transform="translate(0 0)">
              <g id="Grupo_1201756" data-name="Grupo 1201756">
                <g id="Grupo_1201755" data-name="Grupo 1201755">
                  <rect id="Rectángulo_416853" data-name="Rectángulo 416853" width="99.161" height="70.968" transform="translate(0.114 0) rotate(0.092)" fill="#009cff"/>
                </g>
              </g>
            </g>
            <g id="Grupo_1201760" data-name="Grupo 1201760" transform="translate(37.793 9.607)" opacity="0.5">
              <g id="Grupo_1201759" data-name="Grupo 1201759">
                <g id="Grupo_1201758" data-name="Grupo 1201758">
                  <path id="Trazado_1048503" data-name="Trazado 1048503" d="M154.3,219.648a19.694,19.694,0,1,1-19.663-19.725A19.695,19.695,0,0,1,154.3,219.648Z" transform="translate(-114.916 -199.923)" fill="#fff"/>
                </g>
              </g>
            </g>
            <g id="Grupo_1201762" data-name="Grupo 1201762" transform="translate(46.431 17.298)">
              <g id="Grupo_1201761" data-name="Grupo 1201761">
                <path id="Trazado_1048504" data-name="Trazado 1048504" d="M177.19,243.442l-4.807-8.126-15.927-26.922L124.43,262.136l52.73.084Z" transform="translate(-124.43 -208.394)" fill="#2d144c"/>
              </g>
            </g>
            <g id="Grupo_1201765" data-name="Grupo 1201765" transform="translate(0.002 6.867)">
              <g id="Grupo_1201764" data-name="Grupo 1201764">
                <g id="Grupo_1201763" data-name="Grupo 1201763">
                  <path id="Trazado_1048505" data-name="Trazado 1048505" d="M113.113,261.069l-39.818-.064,19.96-32.05,19.96-32.05,19.858,32.114,19.857,32.113Z" transform="translate(-73.295 -196.905)" fill="#552b65"/>
                </g>
              </g>
            </g>
            <g id="Grupo_1201768" data-name="Grupo 1201768" transform="translate(26.982 6.867)">
              <g id="Grupo_1201767" data-name="Grupo 1201767">
                <g id="Grupo_1201766" data-name="Grupo 1201766">
                  <path id="Trazado_1048506" data-name="Trazado 1048506" d="M103.009,217.685l12.892,9.682,12.922-9.641L115.949,196.9Z" transform="translate(-103.009 -196.905)" fill="#fff"/>
                </g>
              </g>
            </g>
            <g id="Grupo_1201771" data-name="Grupo 1201771" transform="translate(67.556 17.298)">
              <g id="Grupo_1201770" data-name="Grupo 1201770">
                <g id="Grupo_1201769" data-name="Grupo 1201769">
                  <path id="Trazado_1048507" data-name="Trazado 1048507" d="M147.7,226.686l10.857,8.6,10.885-8.57L158.6,208.394Z" transform="translate(-147.697 -208.394)" fill="#fff"/>
                </g>
              </g>
            </g>
          </g>
        </g>
        <g id="Grupo_1201778" data-name="Grupo 1201778" transform="translate(74.672 340.616)">
          <g id="Grupo_1201775" data-name="Grupo 1201775" transform="translate(20.533 9.02)" opacity="0.35">
            <path id="Trazado_1048508" data-name="Trazado 1048508" d="M139.545,385.619v41.312a4.456,4.456,0,0,1-4.449,4.449H107.739a4.45,4.45,0,0,1-4.449-4.449V385.619a4.445,4.445,0,0,1,4.449-4.449H135.1A4.45,4.45,0,0,1,139.545,385.619Z" transform="translate(-103.29 -381.17)" fill="#815f20"/>
            <g id="Grupo_1201774" data-name="Grupo 1201774">
              <path id="Trazado_1048509" data-name="Trazado 1048509" d="M133.772,390.4H110.117a1.082,1.082,0,0,1-1.082-1.082h0a1.083,1.083,0,0,1,1.082-1.082h23.655a1.082,1.082,0,0,1,1.082,1.082h0A1.083,1.083,0,0,1,133.772,390.4Z" transform="translate(-103.819 -381.82)" fill="#815f20"/>
              <path id="Trazado_1048510" data-name="Trazado 1048510" d="M121.413,381.17v38.956a4.835,4.835,0,0,1-4.835,4.835H103.29V385.619a4.449,4.449,0,0,1,4.449-4.449Z" transform="translate(-103.29 -381.17)" fill="#815f20"/>
              <path id="Trazado_1048511" data-name="Trazado 1048511" d="M133.772,396.862H110.117a1.083,1.083,0,0,1-1.082-1.082h0a1.083,1.083,0,0,1,1.082-1.082h23.655a1.083,1.083,0,0,1,1.082,1.082h0A1.083,1.083,0,0,1,133.772,396.862Z" transform="translate(-103.819 -382.415)" fill="#815f20"/>
              <path id="Trazado_1048512" data-name="Trazado 1048512" d="M133.772,403.326H110.117a1.082,1.082,0,0,1-1.082-1.082h0a1.083,1.083,0,0,1,1.082-1.082h23.655a1.083,1.083,0,0,1,1.082,1.082h0A1.083,1.083,0,0,1,133.772,403.326Z" transform="translate(-103.819 -383.01)" fill="#815f20"/>
              <path id="Trazado_1048513" data-name="Trazado 1048513" d="M133.772,409.789H110.117a1.083,1.083,0,0,1-1.082-1.082h0a1.083,1.083,0,0,1,1.082-1.082h23.655a1.083,1.083,0,0,1,1.082,1.082h0A1.083,1.083,0,0,1,133.772,409.789Z" transform="translate(-103.819 -383.605)" fill="#815f20"/>
              <path id="Trazado_1048514" data-name="Trazado 1048514" d="M133.772,416.253H110.117a1.083,1.083,0,0,1-1.082-1.082h0a1.083,1.083,0,0,1,1.082-1.082h23.655a1.082,1.082,0,0,1,1.082,1.082h0A1.083,1.083,0,0,1,133.772,416.253Z" transform="translate(-103.819 -384.2)" fill="#815f20"/>
              <path id="Trazado_1048515" data-name="Trazado 1048515" d="M133.772,422.717H110.117a1.083,1.083,0,0,1-1.082-1.082h0a1.083,1.083,0,0,1,1.082-1.082h23.655a1.083,1.083,0,0,1,1.082,1.082h0A1.083,1.083,0,0,1,133.772,422.717Z" transform="translate(-103.819 -384.795)" fill="#815f20"/>
              <path id="Trazado_1048516" data-name="Trazado 1048516" d="M133.772,429.18H110.117a1.082,1.082,0,0,1-1.082-1.082h0a1.083,1.083,0,0,1,1.082-1.082h23.655a1.082,1.082,0,0,1,1.082,1.082h0A1.083,1.083,0,0,1,133.772,429.18Z" transform="translate(-103.819 -385.39)" fill="#815f20"/>
            </g>
          </g>
          <g id="Grupo_1201777" data-name="Grupo 1201777">
            <path id="Trazado_1048517" data-name="Trazado 1048517" d="M112.479,421.443H85.124A4.448,4.448,0,0,1,80.676,417V375.684a4.448,4.448,0,0,1,4.448-4.448H112.48a4.448,4.448,0,0,1,4.448,4.448V417A4.449,4.449,0,0,1,112.479,421.443Z" transform="translate(-80.676 -371.236)" fill="#fff"/>
            <g id="Grupo_1201776" data-name="Grupo 1201776" transform="translate(5.215 6.384)">
              <path id="Trazado_1048518" data-name="Trazado 1048518" d="M111.158,380.432H87.5a1.083,1.083,0,0,1-1.082-1.082h0a1.083,1.083,0,0,1,1.082-1.082h23.655a1.083,1.083,0,0,1,1.082,1.082h0A1.082,1.082,0,0,1,111.158,380.432Z" transform="translate(-86.42 -378.267)" fill="#e3dcf7"/>
              <path id="Trazado_1048519" data-name="Trazado 1048519" d="M111.158,386.9H87.5a1.083,1.083,0,0,1-1.082-1.082h0a1.083,1.083,0,0,1,1.082-1.082h23.655a1.082,1.082,0,0,1,1.082,1.082h0A1.082,1.082,0,0,1,111.158,386.9Z" transform="translate(-86.42 -378.862)" fill="#e3dcf7"/>
              <path id="Trazado_1048520" data-name="Trazado 1048520" d="M111.158,393.359H87.5a1.083,1.083,0,0,1-1.082-1.082h0a1.083,1.083,0,0,1,1.082-1.082h23.655a1.083,1.083,0,0,1,1.082,1.082h0A1.081,1.081,0,0,1,111.158,393.359Z" transform="translate(-86.42 -379.457)" fill="#e3dcf7"/>
              <path id="Trazado_1048521" data-name="Trazado 1048521" d="M111.158,399.823H87.5a1.082,1.082,0,0,1-1.082-1.082h0a1.083,1.083,0,0,1,1.082-1.082h23.655a1.082,1.082,0,0,1,1.082,1.082h0A1.081,1.081,0,0,1,111.158,399.823Z" transform="translate(-86.42 -380.052)" fill="#e3dcf7"/>
              <path id="Trazado_1048522" data-name="Trazado 1048522" d="M111.158,406.287H87.5A1.083,1.083,0,0,1,86.42,405.2h0a1.083,1.083,0,0,1,1.082-1.082h23.655a1.083,1.083,0,0,1,1.082,1.082h0A1.082,1.082,0,0,1,111.158,406.287Z" transform="translate(-86.42 -380.647)" fill="#e3dcf7"/>
              <path id="Trazado_1048523" data-name="Trazado 1048523" d="M111.158,412.75H87.5a1.083,1.083,0,0,1-1.082-1.082h0a1.083,1.083,0,0,1,1.082-1.082h23.655a1.083,1.083,0,0,1,1.082,1.082h0A1.081,1.081,0,0,1,111.158,412.75Z" transform="translate(-86.42 -381.242)" fill="#e3dcf7"/>
              <path id="Trazado_1048524" data-name="Trazado 1048524" d="M111.158,419.214H87.5a1.083,1.083,0,0,1-1.082-1.082h0a1.083,1.083,0,0,1,1.082-1.082h23.655a1.083,1.083,0,0,1,1.082,1.082h0A1.081,1.081,0,0,1,111.158,419.214Z" transform="translate(-86.42 -381.837)" fill="#e3dcf7"/>
            </g>
          </g>
        </g>
        <path id="Trazado_1048525" data-name="Trazado 1048525" d="M99.255,307.585v.055h0A.365.365,0,0,0,99.255,307.585Z" transform="translate(-7.714 -24.761)" fill="#e3dcf7"/>
        <g id="Grupo_1201783" data-name="Grupo 1201783" transform="translate(45.779 260.487)">
          <g id="Grupo_1201780" data-name="Grupo 1201780" transform="translate(0 2.127)">
            <g id="Grupo_1201779" data-name="Grupo 1201779" transform="translate(0 16.137)">
              <path id="Trazado_1048526" data-name="Trazado 1048526" d="M61.627,303.1l.108,27.586-11.862.008a.916.916,0,0,1-.918-.91l-.1-25.758a.918.918,0,0,1,.108-.437c.014-.025.029-.051.045-.075a1.068,1.068,0,0,1,.112-.135.911.911,0,0,1,.646-.271Z" transform="translate(-48.854 -303.1)" fill="#0079db"/>
            </g>
            <path id="Trazado_1048527" data-name="Trazado 1048527" d="M94.586,302.134v2.309a.363.363,0,0,1,0,.054,3.518,3.518,0,0,1-.123.833,3.161,3.161,0,0,1-.113.368,4.156,4.156,0,0,1-.767,1.287c-.064.073-.132.145-.2.216a5.138,5.138,0,0,1-1,.785,3.618,3.618,0,0,1,.5.527,3.013,3.013,0,0,1,.622,1.7v.431c0,.032,0,.064-.006.1-.006.079-.015.157-.027.236s-.025.163-.041.247-.039.171-.059.254v0c-.023.086-.047.175-.074.263a6.914,6.914,0,0,1-.259.706,3.18,3.18,0,0,1-.647.953,4.771,4.771,0,0,1-1.677,1.049,4.675,4.675,0,0,1,1.332,1.8l.34-.34V318c0,.168-.006.345-.025.527a6.3,6.3,0,0,1-.166.958,2.791,2.791,0,0,1-.47,1,.921.921,0,0,1-.061.079,3.687,3.687,0,0,1-.266.3,4.573,4.573,0,0,1-1.407.906c.073.041.145.084.218.132.047.03.1.064.143.1a3.185,3.185,0,0,1,.415.345c.041.041.082.083.12.127l.695-.676v2.441a3.321,3.321,0,0,1-.009.365,3.987,3.987,0,0,1-.064.458,4.784,4.784,0,0,1-.127.5c-.025.083-.053.165-.084.247-.015.039-.032.079-.052.118-.034.079-.073.154-.113.23a3.22,3.22,0,0,1-.277.419,3.409,3.409,0,0,1-.25.289c-.089.092-.183.177-.28.263-.034.027-.068.054-.1.082-.068.054-.138.106-.209.156-.143.1-.293.2-.449.289-.115.066-.236.127-.359.189a7.892,7.892,0,0,1-.9.37l-.54.168c-.274.077-.551.145-.828.2l-.277.054c-.274.052-.549.1-.817.129l-.265.034-.39.041c-.084.009-.168.016-.25.023l-.123.011c-.082,0-.161.012-.238.016-.157.009-.309.018-.451.025-.917.038-1.542.006-1.542.006l-13.4.053v.015L65.789,329l-.107-27.6a7.748,7.748,0,0,0,3.4-.976,10.889,10.889,0,0,0,1.442-.883,33.438,33.438,0,0,0,3.939-3.916c3.142-3.7,3.255-7.132,3.72-8.948a.1.1,0,0,0,.009-.027c.233-.9.561-1.4,1.407-1.307,2.39.259,6.079,4.04,1.138,15.719.9-.068,2.118-.15,3.452-.206.068,0,.139-.007.209-.009a.072.072,0,0,0,.023,0c.045,0,.091,0,.132,0,.761-.027,1.551-.047,2.333-.05.484,0,.965,0,1.435.014a13.674,13.674,0,0,1,4.553.654,2.665,2.665,0,0,1,.79.554.985.985,0,0,1,.074.077,2.122,2.122,0,0,1,.143.165c.053.066.1.134.147.2C94.214,302.243,94.4,302.11,94.586,302.134Z" transform="translate(-50.403 -285.327)" fill="#e3dcf7"/>
            <path id="Trazado_1048528" data-name="Trazado 1048528" d="M96.316,313.164v-.431A3.419,3.419,0,0,1,96.316,313.164Z" transform="translate(-53.222 -287.849)" fill="#e3dcf7"/>
            <path id="Trazado_1048529" data-name="Trazado 1048529" d="M96.253,310.376v2.141a3.013,3.013,0,0,0-.622-1.7Z" transform="translate(-53.159 -287.632)" fill="#e3dcf7"/>
          </g>
          <g id="Grupo_1201782" data-name="Grupo 1201782">
            <g id="Grupo_1201781" data-name="Grupo 1201781" transform="translate(0 16.138)">
              <path id="Trazado_1048530" data-name="Trazado 1048530" d="M61.627,300.758l.108,27.586-11.862.008a.916.916,0,0,1-.918-.91l-.1-25.758a.918.918,0,0,1,.108-.437c.014-.025.029-.051.045-.075a1,1,0,0,1,.112-.135.91.91,0,0,1,.646-.27Z" transform="translate(-48.854 -300.758)" fill="#009cff"/>
            </g>
            <path id="Trazado_1048531" data-name="Trazado 1048531" d="M94.463,302.988a3.8,3.8,0,0,1-.115.367,4.161,4.161,0,0,1-.767,1.288c-.064.073-.131.145-.2.216a5.15,5.15,0,0,1-1,.785,3.133,3.133,0,0,1,1.113,2.754c-.007.078-.017.157-.027.235s-.025.163-.042.248-.037.169-.058.254h0c-.023.087-.047.174-.074.264a6.717,6.717,0,0,1-.261.7,3.11,3.11,0,0,1-.646.953,4.743,4.743,0,0,1-1.676,1.049,4.6,4.6,0,0,1,1.648,4.08,6.339,6.339,0,0,1-.166.956,2.785,2.785,0,0,1-.471,1,.946.946,0,0,1-.06.079,3.413,3.413,0,0,1-.266.3,4.6,4.6,0,0,1-1.406.907c.073.04.145.084.217.13.047.031.1.064.143.1a3.12,3.12,0,0,1,.416.346c.043.043.086.088.128.133h0c.062.069.121.143.177.22.037.052.075.105.109.162s.067.112.1.171a2.829,2.829,0,0,1,.294,1.568,4.164,4.164,0,0,1-.064.46c-.032.161-.074.327-.126.5-.025.084-.054.166-.086.246-.016.04-.032.081-.05.119-.036.078-.073.154-.114.228a3.368,3.368,0,0,1-.527.708c-.089.091-.183.179-.28.263-.034.028-.066.055-.1.082-.068.054-.137.106-.208.157a5.038,5.038,0,0,1-.449.287c-.117.066-.238.129-.36.19a7.951,7.951,0,0,1-.9.37l-.541.168c-.274.077-.552.144-.829.2l-.277.055c-.275.052-.549.094-.818.131l-.265.033-.39.042-.25.023c-.042,0-.083.007-.123.01l-.24.017c-.156.01-.308.018-.45.025-.918.04-1.541.006-1.541.006l-13.394.053v.016l-3.39.014-.108-27.6a7.783,7.783,0,0,0,3.4-.975,10.93,10.93,0,0,0,1.44-.883,33.633,33.633,0,0,0,3.939-3.915c3.14-3.7,3.255-7.134,3.72-8.949a.23.23,0,0,0,.008-.027c.234-.9.562-1.4,1.409-1.307,2.389.257,6.079,4.039,1.138,15.719.9-.069,2.116-.152,3.451-.208.07,0,.141-.007.21-.009a.084.084,0,0,0,.021,0c.047,0,.091,0,.133,0,.76-.028,1.549-.047,2.332-.051.484,0,.966,0,1.435.015a13.68,13.68,0,0,1,4.553.653,2.666,2.666,0,0,1,.79.553c.025.025.051.052.075.079.048.052.1.106.141.164a3.064,3.064,0,0,1,.3.457c.035.064.067.131.1.2A3.669,3.669,0,0,1,94.463,302.988Z" transform="translate(-50.403 -282.985)" fill="#fff"/>
          </g>
        </g>
        <g id="Grupo_1201806" data-name="Grupo 1201806" transform="translate(248.324 162.497)">
          <circle id="Elipse_14272-2" data-name="Elipse 14272" cx="26.074" cy="26.074" r="26.074" transform="translate(0 45.609) rotate(-60.995)" fill="#ffbf00"/>
          <circle id="Elipse_14273-2" data-name="Elipse 14273" cx="26.074" cy="26.074" r="26.074" transform="matrix(0.999, -0.031, 0.031, 0.999, 8.572, 7.873)" fill="#ffd600"/>
          <g id="Grupo_1201706-2" data-name="Grupo 1201706" transform="translate(13.772 10.333)">
            <path id="Trazado_1048464-2" data-name="Trazado 1048464" d="M73.216,90.309l-.019-.026a1.349,1.349,0,0,0-1.3-.547,23.135,23.135,0,0,0-18.231,15.2,1.36,1.36,0,0,0,.689,1.67l.025.012a1.361,1.361,0,0,0,1.877-.782,20.381,20.381,0,0,1,16.07-13.393A1.357,1.357,0,0,0,73.216,90.309Z" transform="translate(-53.592 -89.72)" fill="#ffed93"/>
            <path id="Trazado_1048465-2" data-name="Trazado 1048465" d="M99.167,130.129A20.36,20.36,0,0,1,82.95,140.887a1.355,1.355,0,0,0-1.149,1.805l.01.028a1.356,1.356,0,0,0,1.4.9,23.111,23.111,0,0,0,18.37-12.187,1.362,1.362,0,0,0-.226-1.591l-.021-.021A1.355,1.355,0,0,0,99.167,130.129Z" transform="translate(-59.353 -97.849)" fill="#ffed93"/>
          </g>
          <circle id="Elipse_14274-2" data-name="Elipse 14274" cx="18.824" cy="18.824" r="18.824" transform="matrix(0.202, -0.979, 0.979, 0.202, 13.191, 48.026)" fill="#ffbf00"/>
          <g id="Grupo_1201707-2" data-name="Grupo 1201707" transform="translate(26.31 19.965)">
            <path id="Trazado_1048466-2" data-name="Trazado 1048466" d="M80.627,125.391l-.034,3.148-4-.044.033-3.007a16.7,16.7,0,0,1-7.267-2.064l2.209-4.855a13.619,13.619,0,0,0,6.532,1.886c1.9.021,2.585-.369,2.592-1.05.027-2.5-10.971-.6-10.89-8,.035-3.2,2.39-5.874,7.049-6.476l.033-3.092,4,.044-.033,3.034a14.8,14.8,0,0,1,5.74,1.708l-2.067,4.828a12.241,12.241,0,0,0-5.515-1.535c-1.957-.021-2.588.539-2.595,1.22-.026,2.382,10.972.517,10.892,7.834C87.272,122.031,85.031,124.673,80.627,125.391Z" transform="translate(-69.359 -101.834)" fill="#ffed93"/>
          </g>
        </g>
      </g>
      <path id="Trazado_1048681" data-name="Trazado 1048681" d="M29.058,0H230" transform="translate(1148.5 1316.434)" fill="none" stroke="#817489" stroke-linecap="round" stroke-width="8"/>
    </g>
  </g>
</svg>
