<svg xmlns="http://www.w3.org/2000/svg" xmlns:xlink="http://www.w3.org/1999/xlink" width="108" height="108" viewBox="0 0 108 108">
  <defs>
    <filter id="Trazado_904820" x="0" y="0" width="108" height="108" filterUnits="userSpaceOnUse">
      <feOffset dy="3" input="SourceAlpha"/>
      <feGaussianBlur stdDeviation="3" result="blur"/>
      <feFlood flood-opacity="0.161"/>
      <feComposite operator="in" in2="blur"/>
      <feComposite in="SourceGraphic"/>
    </filter>
  </defs>
  <g id="Grupo_1201805" data-name="Grupo 1201805" transform="translate(-200 -935.67)">
    <g id="Grupo_1182736" data-name="Grupo 1182736" transform="translate(-0.228 162)">
      <g id="Grupo_1179560" data-name="Grupo 1179560" transform="translate(-0.227 18)">
        <g id="Grupo_1173787" data-name="Grupo 1173787" transform="translate(209.455 761.67)">
          <g id="Grupo_1171910" data-name="Grupo 1171910" transform="translate(0)">
            <g id="Grupo_1167341" data-name="Grupo 1167341">
              <g id="Grupo_1166792" data-name="Grupo 1166792">
                <g transform="matrix(1, 0, 0, 1, -9, -6)" filter="url(#Trazado_904820)">
                  <g id="Trazado_904820-2" data-name="Trazado 904820" transform="translate(9 6)" fill="#f1f0f2">
                    <path d="M 44.99999618530273 88.50003051757812 C 39.12687301635742 88.50003051757812 33.43022155761719 87.35010528564453 28.06829643249512 85.08219909667969 C 22.88852119445801 82.89134216308594 18.23629570007324 79.75461578369141 14.24084663391113 75.75916290283203 C 10.24540901184082 71.76371765136719 7.108683586120605 67.11150360107422 4.917821407318115 61.93172836303711 C 2.649921178817749 56.56978988647461 1.499996185302734 50.87313842773438 1.499996185302734 45.00001525878906 C 1.499996185302734 39.12689208984375 2.649921178817749 33.43024063110352 4.917821407318115 28.06831550598145 C 7.108683586120605 22.88854026794434 10.24540901184082 18.23631477355957 14.24084663391113 14.24086570739746 C 18.23629570007324 10.24541568756104 22.88852119445801 7.10869026184082 28.06829643249512 4.917840480804443 C 33.43022155761719 2.649927854537964 39.12687301635742 1.50000274181366 44.99999618530273 1.50000274181366 C 50.87311935424805 1.50000274181366 56.56977081298828 2.649927854537964 61.93169784545898 4.917840480804443 C 67.11147308349609 7.10869026184082 71.76369476318359 10.24541568756104 75.75914764404297 14.24086570739746 C 79.75458526611328 18.23631477355957 82.89131164550781 22.88854026794434 85.08216857910156 28.06831550598145 C 87.35007476806641 33.43024063110352 88.5 39.12689208984375 88.5 45.00001525878906 C 88.5 50.87313842773438 87.35007476806641 56.56978988647461 85.08216857910156 61.93172836303711 C 82.89131164550781 67.11150360107422 79.75458526611328 71.76371765136719 75.75914764404297 75.75916290283203 C 71.76369476318359 79.75461578369141 67.11147308349609 82.89134216308594 61.93169784545898 85.08219909667969 C 56.56977081298828 87.35010528564453 50.87311935424805 88.50003051757812 44.99999618530273 88.50003051757812 Z" stroke="none"/>
                    <path d="M 44.99999618530273 3 C 39.32870864868164 3 33.82865142822266 4.110061645507812 28.65262603759766 6.299346923828125 C 23.65165710449219 8.414573669433594 19.15968322753906 11.44334411621094 15.301513671875 15.301513671875 C 11.44333648681641 19.15968322753906 8.414566040039062 23.65165710449219 6.299339294433594 28.65262985229492 C 4.110054016113281 33.82867050170898 2.999992370605469 39.32872772216797 2.999992370605469 45.00001525878906 C 2.999992370605469 50.67130279541016 4.110054016113281 56.17136001586914 6.299339294433594 61.34738922119141 C 8.414566040039062 66.34837341308594 11.44333648681641 70.84033203125 15.301513671875 74.69850158691406 C 19.15968322753906 78.55668640136719 23.65165710449219 81.58545684814453 28.65262603759766 83.70068359375 C 33.82865142822266 85.88996887207031 39.32870864868164 87.00003051757812 44.99999618530273 87.00003051757812 C 50.67128372192383 87.00003051757812 56.17134094238281 85.88996887207031 61.34736633300781 83.70068359375 C 66.34834289550781 81.58545684814453 70.84030914306641 78.55668640136719 74.69847869873047 74.69850158691406 C 78.55665588378906 70.84033203125 81.58542633056641 66.34837341308594 83.70065307617188 61.34738922119141 C 85.88993835449219 56.17136001586914 87 50.67130279541016 87 45.00001525878906 C 87 39.32872772216797 85.88993835449219 33.82867050170898 83.70065307617188 28.65262985229492 C 81.58542633056641 23.65165710449219 78.55665588378906 19.15968322753906 74.69847869873047 15.301513671875 C 70.84030914306641 11.44334411621094 66.34834289550781 8.414573669433594 61.34736633300781 6.299346923828125 C 56.17134094238281 4.110061645507812 50.67128372192383 3 44.99999618530273 3 M 44.99999618530273 0 C 69.85281372070312 0 90 20.14718627929688 90 45.00001525878906 C 90 69.85282897949219 69.85281372070312 90.00003051757812 44.99999618530273 90.00003051757812 C 20.14717864990234 90.00003051757812 -7.62939453125e-06 69.85282897949219 -7.62939453125e-06 45.00001525878906 C -7.62939453125e-06 20.14718627929688 20.14717864990234 0 44.99999618530273 0 Z" stroke="none" fill="#817489"/>
                  </g>
                </g>
              </g>
            </g>
          </g>
        </g>
      </g>
    </g>
    <g id="presupuesto_12_" data-name="presupuesto (12)" transform="translate(225.165 958.324)">
      <path id="Trazado_1048635" data-name="Trazado 1048635" d="M139.443,17.642V51.1c0,.067,0,.134,0,.2a4.319,4.319,0,0,1-4.315,4.118H110.842a4.319,4.319,0,0,1-4.319-4.318V12.363a4.313,4.313,0,0,1,4.319-4.319H130.13a4.305,4.305,0,0,1,1.876.43c1.167.562,1.5,1.271,3.592,3.415,2.412,2.619,2.988,2.888,3.48,4.022A4.272,4.272,0,0,1,139.443,17.642Z" transform="translate(-94.24 -7.153)" fill="#ffc477"/>
      <path id="Trazado_1048636" data-name="Trazado 1048636" d="M166.266,17.641V51.095c0,.067,0,.134,0,.2a4.332,4.332,0,0,1-.975.11H141a4.319,4.319,0,0,1-4.319-4.318V8.355c0-.068,0-.135,0-.2a4.339,4.339,0,0,1,.975-.11h19.288a4.326,4.326,0,0,1,3.156,1.372l2.312,2.474,2.647,2.77a4.347,4.347,0,0,1,1.2,2.983Z" transform="translate(-121.062 -7.152)" fill="#ffdaaa"/>
      <path id="Trazado_1048637" data-name="Trazado 1048637" d="M278.483,181v24.284a6.1,6.1,0,0,1-6.1,6.1H256.518a6.1,6.1,0,0,1-6.1-6.1V181a6.1,6.1,0,0,1,6.1-6.1h15.861A6.1,6.1,0,0,1,278.483,181Z" transform="translate(-222.198 -155.53)" fill="#4cba68"/>
      <path id="Trazado_1048638" data-name="Trazado 1048638" d="M298.751,181v24.284a3.132,3.132,0,0,1-3.58,4.1H279.31a6.1,6.1,0,0,1-6.1-6.1V179a6.071,6.071,0,0,1,1.182-3.61,6.078,6.078,0,0,1,2.4-.49h15.861A6.1,6.1,0,0,1,298.751,181Z" transform="translate(-242.466 -155.53)" fill="#7ccc92"/>
      <path id="Trazado_1048639" data-name="Trazado 1048639" d="M360.717,366.882v2.852a.912.912,0,0,1-.912.913h-2.853a.913.913,0,0,1-.913-.913v-2.852a.913.913,0,0,1,.913-.913h2.853A.912.912,0,0,1,360.717,366.882Z" transform="translate(-316.128 -325.446)" fill="#2c733f"/>
      <path id="Trazado_1048640" data-name="Trazado 1048640" d="M307.977,209.046V212.1a1.968,1.968,0,0,1-1.968,1.968H290.265A1.969,1.969,0,0,1,288.3,212.1v-3.056a1.969,1.969,0,0,1,1.968-1.968h15.743A1.968,1.968,0,0,1,307.977,209.046Z" transform="translate(-255.886 -184.149)" fill="#1e81ce"/>
      <path id="Trazado_1048641" data-name="Trazado 1048641" d="M334.8,209.046V212.1a1.968,1.968,0,0,1-1.968,1.968h-12.4a1.969,1.969,0,0,1-1.968-1.968v-3.056a1.969,1.969,0,0,1,1.968-1.968h12.4A1.968,1.968,0,0,1,334.8,209.046Z" transform="translate(-282.708 -184.149)" fill="#3d9ae2"/>
      <g id="Grupo_1201801" data-name="Grupo 1201801" transform="translate(32.411 33.064)">
        <path id="Trazado_1048642" data-name="Trazado 1048642" d="M292.976,366.882v2.852a.913.913,0,0,1-.913.913H289.21a.913.913,0,0,1-.913-.913v-2.852a.913.913,0,0,1,.913-.913h2.853A.913.913,0,0,1,292.976,366.882Z" transform="translate(-288.297 -358.51)" fill="#2c733f"/>
        <path id="Trazado_1048643" data-name="Trazado 1048643" d="M360.717,299.521v2.852a.912.912,0,0,1-.912.913h-2.853a.913.913,0,0,1-.913-.913v-2.852a.913.913,0,0,1,.913-.913h2.853A.912.912,0,0,1,360.717,299.521Z" transform="translate(-348.538 -298.608)" fill="#2c733f"/>
      </g>
      <path id="Trazado_1048644" data-name="Trazado 1048644" d="M429.274,299.521v2.852a.913.913,0,0,1-.913.913h-2.852a.913.913,0,0,1-.913-.913v-2.852a.913.913,0,0,1,.913-.913h2.852A.913.913,0,0,1,429.274,299.521Z" transform="translate(-377.094 -265.544)" fill="#ee8700"/>
      <g id="Grupo_1201802" data-name="Grupo 1201802" transform="translate(32.411 33.064)">
        <path id="Trazado_1048645" data-name="Trazado 1048645" d="M292.976,299.521v2.852a.913.913,0,0,1-.913.913H289.21a.913.913,0,0,1-.913-.913v-2.852a.913.913,0,0,1,.913-.913h2.853A.913.913,0,0,1,292.976,299.521Z" transform="translate(-288.297 -298.608)" fill="#2c733f"/>
        <path id="Trazado_1048646" data-name="Trazado 1048646" d="M360.717,430.943V433.8a.912.912,0,0,1-.912.913h-2.853a.913.913,0,0,1-.913-.913v-2.853a.912.912,0,0,1,.913-.912h2.853A.912.912,0,0,1,360.717,430.943Z" transform="translate(-348.538 -415.479)" fill="#2c733f"/>
        <path id="Trazado_1048647" data-name="Trazado 1048647" d="M292.976,430.943V433.8a.913.913,0,0,1-.913.913H289.21a.913.913,0,0,1-.913-.913v-2.853a.913.913,0,0,1,.913-.912h2.853A.912.912,0,0,1,292.976,430.943Z" transform="translate(-288.297 -415.479)" fill="#2c733f"/>
      </g>
      <path id="Trazado_1048648" data-name="Trazado 1048648" d="M429.274,367.324v8.858a1.557,1.557,0,0,1-1.556,1.557h-1.565a1.557,1.557,0,0,1-1.556-1.557v-8.858a1.356,1.356,0,0,1,1.356-1.356h1.966A1.356,1.356,0,0,1,429.274,367.324Z" transform="translate(-377.094 -325.445)" fill="#ee8700"/>
      <g id="Grupo_1201803" data-name="Grupo 1201803" transform="translate(32.411 33.064)">
        <path id="Trazado_1048649" data-name="Trazado 1048649" d="M360.717,366.882v.848a.912.912,0,0,1-.912.913h-2.853a.913.913,0,0,1-.913-.913v-.848a.913.913,0,0,1,.913-.913h2.853A.912.912,0,0,1,360.717,366.882Z" transform="translate(-348.538 -358.51)" fill="#317f46"/>
        <path id="Trazado_1048650" data-name="Trazado 1048650" d="M292.976,366.882v.848a.913.913,0,0,1-.913.913H289.21a.913.913,0,0,1-.913-.913v-.848a.913.913,0,0,1,.913-.913h2.853A.913.913,0,0,1,292.976,366.882Z" transform="translate(-288.297 -358.51)" fill="#317f46"/>
        <path id="Trazado_1048651" data-name="Trazado 1048651" d="M360.717,299.521v.848a.912.912,0,0,1-.912.913h-2.853a.913.913,0,0,1-.913-.913v-.848a.913.913,0,0,1,.913-.913h2.853A.912.912,0,0,1,360.717,299.521Z" transform="translate(-348.538 -298.608)" fill="#317f46"/>
      </g>
      <path id="Trazado_1048652" data-name="Trazado 1048652" d="M429.274,299.521v.848a.913.913,0,0,1-.913.913h-2.852a.913.913,0,0,1-.913-.913v-.848a.913.913,0,0,1,.913-.913h2.852A.913.913,0,0,1,429.274,299.521Z" transform="translate(-377.094 -265.544)" fill="#ff9811"/>
      <g id="Grupo_1201804" data-name="Grupo 1201804" transform="translate(32.411 33.064)">
        <path id="Trazado_1048653" data-name="Trazado 1048653" d="M292.976,299.521v.848a.913.913,0,0,1-.913.913H289.21a.913.913,0,0,1-.913-.913v-.848a.913.913,0,0,1,.913-.913h2.853A.913.913,0,0,1,292.976,299.521Z" transform="translate(-288.297 -298.608)" fill="#317f46"/>
        <path id="Trazado_1048654" data-name="Trazado 1048654" d="M360.717,430.943v.849a.913.913,0,0,1-.912.913h-2.853a.913.913,0,0,1-.913-.913v-.849a.912.912,0,0,1,.913-.912h2.853A.912.912,0,0,1,360.717,430.943Z" transform="translate(-348.538 -415.479)" fill="#317f46"/>
        <path id="Trazado_1048655" data-name="Trazado 1048655" d="M292.976,430.943v.849a.913.913,0,0,1-.913.913H289.21a.913.913,0,0,1-.913-.913v-.849a.913.913,0,0,1,.913-.912h2.853A.912.912,0,0,1,292.976,430.943Z" transform="translate(-288.297 -415.479)" fill="#317f46"/>
      </g>
      <path id="Trazado_1048656" data-name="Trazado 1048656" d="M429.274,367.324v6.854a1.557,1.557,0,0,1-1.556,1.557h-1.565a1.557,1.557,0,0,1-1.556-1.557v-6.854a1.356,1.356,0,0,1,1.356-1.356h1.966A1.356,1.356,0,0,1,429.274,367.324Z" transform="translate(-377.094 -325.445)" fill="#ff9811"/>
      <path id="Trazado_1048657" data-name="Trazado 1048657" d="M343.734,19.361h-5.412a1.66,1.66,0,0,1-1.66-1.66V11.924a4.314,4.314,0,0,1,1.28.941l2.313,2.474,2.647,2.77A4.276,4.276,0,0,1,343.734,19.361Z" transform="translate(-298.895 -10.604)" fill="#ffb655"/>
      <path id="Trazado_1048658" data-name="Trazado 1048658" d="M86.644,463.766a2.121,2.121,0,0,1-2.115,2.115H71.571a2.115,2.115,0,0,1,0-4.23H84.529A2.121,2.121,0,0,1,86.644,463.766Z" transform="translate(-61.277 -410.534)" fill="#aa6100"/>
      <path id="Trazado_1048659" data-name="Trazado 1048659" d="M86.644,425.561a2.121,2.121,0,0,1-2.115,2.115H71.571a2.115,2.115,0,0,1,0-4.23H84.529A2.121,2.121,0,0,1,86.644,425.561Z" transform="translate(-61.277 -376.559)" fill="#cc7400"/>
      <path id="Trazado_1048660" data-name="Trazado 1048660" d="M86.644,387.357a2.121,2.121,0,0,1-2.115,2.115H71.571a2.115,2.115,0,0,1,0-4.23H84.529A2.121,2.121,0,0,1,86.644,387.357Z" transform="translate(-61.277 -342.585)" fill="#ee8700"/>
      <path id="Trazado_1048661" data-name="Trazado 1048661" d="M86.644,349.151a2.121,2.121,0,0,1-2.115,2.115H71.571a2.121,2.121,0,0,1-2.115-2.115,2.121,2.121,0,0,1,2.115-2.115H84.529A2.122,2.122,0,0,1,86.644,349.151Z" transform="translate(-61.277 -308.61)" fill="#ff9811"/>
      <path id="Trazado_1048662" data-name="Trazado 1048662" d="M84.529,313.064H71.571a2.121,2.121,0,0,1-2.115-2.115h0a2.121,2.121,0,0,1,2.115-2.115H84.529a2.121,2.121,0,0,1,2.115,2.115h0A2.121,2.121,0,0,1,84.529,313.064Z" transform="translate(-61.277 -274.638)" fill="#ffa733"/>
      <path id="Trazado_1048663" data-name="Trazado 1048663" d="M25.105,384.215a6.882,6.882,0,0,0-7.172-6.59h-2.7a6.891,6.891,0,0,0,.589,13.77h2.107v0c.192.008.386.01.582,0a7.006,7.006,0,0,0,1.28-.175,6.892,6.892,0,0,0,5.311-6.46v-.008C25.113,384.574,25.113,384.4,25.105,384.215Z" transform="translate(-7.18 -335.806)" fill="#cc7400"/>
      <path id="Trazado_1048664" data-name="Trazado 1048664" d="M72.182,386.206v.008a6.891,6.891,0,0,1-5.311,6.46,6.894,6.894,0,0,1-5.3-6.414c0-.016,0-.03,0-.046v-.008a6.894,6.894,0,0,1,5.31-6.951,6.893,6.893,0,0,1,5.307,6.416C72.189,385.851,72.189,386.029,72.182,386.206Z" transform="translate(-54.256 -337.261)" fill="#ee8700"/>
      <path id="Trazado_1048665" data-name="Trazado 1048665" d="M50.181,18.531H46.094V10.489a5.223,5.223,0,0,0-1.444-3.6L42.01,4.127C39.769,1.818,39.486,1.166,38.151.518A5.222,5.222,0,0,0,35.89,0H16.6a5.216,5.216,0,0,0-5.21,5.21v28.1h-1.1a3,3,0,0,0-2.133,5.121,3,3,0,0,0-.873,2.115,3.084,3.084,0,0,0,.059.594A7.577,7.577,0,0,0,8.43,56.244l14.821-.006a3,3,0,0,0,2.133-5.121,2.99,2.99,0,0,0,.868-1.966h1.128v.6a6.946,6.946,0,0,0,6.939,6.939H50.181a6.946,6.946,0,0,0,6.939-6.939V25.47A6.946,6.946,0,0,0,50.181,18.531ZM38.657,3.149l4.434,4.688s0,0,0,0h0l0,.006h0a.019.019,0,0,0,.007.007l0,0s0,0,0,0,0,0,0,0,0,0,0,0H38.657V3.149ZM10.294,35.087H23.252a1.225,1.225,0,1,1,0,2.449H10.294a1.225,1.225,0,1,1,0-2.449Zm0,4.23H23.252a1.225,1.225,0,1,1,0,2.449H14.3a7.254,7.254,0,0,0-1.128-.407,7.508,7.508,0,0,0-1.781-.262c-.175,0-.35,0-.524,0H9.206a1.2,1.2,0,0,1-.137-.56A1.227,1.227,0,0,1,10.294,39.317Zm14.182,5.455A1.226,1.226,0,0,1,23.252,46H18.268a7.492,7.492,0,0,0-1.512-2.449h6.5A1.227,1.227,0,0,1,24.477,44.772Zm-18.515-1.6a7.685,7.685,0,0,0-1.4,1.8H3.521A5.882,5.882,0,0,1,5.961,43.173ZM2.574,46.642h1.3a7.689,7.689,0,0,0-.243,1.335H2.258A5.852,5.852,0,0,1,2.574,46.642Zm.144,4.414A5.842,5.842,0,0,1,2.3,49.647h1.36a6.72,6.72,0,0,0,.318,1.409Zm1.111,1.67c.547,0,.864,0,.938,0a7.52,7.52,0,0,0,1.2,1.449A5.883,5.883,0,0,1,3.828,52.726Zm7.6,1.849A5.908,5.908,0,1,1,15.17,44.321,5.9,5.9,0,0,1,11.427,54.575Zm11.825-.118H16.064a7.629,7.629,0,0,0,1.914-2.449h5.274a1.225,1.225,0,0,1,0,2.449Zm1.215-5.306a1.225,1.225,0,0,1-1.215,1.075h-4.66a7.651,7.651,0,0,0,.108-2.449h4.552A1.226,1.226,0,0,1,24.467,49.151Zm2.914-1.781H25.773a2.955,2.955,0,0,0-.389-.483,3,3,0,0,0,0-4.23,3,3,0,0,0,0-4.23,3.008,3.008,0,0,0-2.133-5.121H13.174V5.21A3.433,3.433,0,0,1,16.6,1.781H36.876V8.758a.89.89,0,0,0,.891.891h6.441c.186.721.071.483.106,8.882H34.32a6.946,6.946,0,0,0-6.939,6.939v21.9ZM55.45,49.753a5.275,5.275,0,0,1-5.269,5.269H34.32a5.275,5.275,0,0,1-5.269-5.269V25.47A5.275,5.275,0,0,1,34.32,20.2H50.181A5.275,5.275,0,0,1,55.45,25.47V49.753Z"/>
      <path id="Trazado_1048666" data-name="Trazado 1048666" d="M286.589,206.53H283.56a1.137,1.137,0,0,1-1.133-1.133v-3.056a1.137,1.137,0,0,1,1.133-1.133H299.3a1.134,1.134,0,0,1,1.133,1.133V205.4a1.134,1.134,0,0,1-1.133,1.133h-9.114a.835.835,0,1,0,0,1.67H299.3a2.806,2.806,0,0,0,2.8-2.8v-3.056a2.806,2.806,0,0,0-2.8-2.8H283.56a2.8,2.8,0,0,0-2.8,2.8V205.4a2.8,2.8,0,0,0,2.8,2.8h3.029a.835.835,0,0,0,0-1.67Z" transform="translate(-249.181 -177.444)"/>
      <path id="Trazado_1048667" data-name="Trazado 1048667" d="M282.5,364.777h2.853a1.749,1.749,0,0,0,1.748-1.748v-2.852a1.749,1.749,0,0,0-1.748-1.748H282.5a1.75,1.75,0,0,0-1.748,1.748v2.852A1.75,1.75,0,0,0,282.5,364.777Zm-.078-4.6a.078.078,0,0,1,.078-.078h2.853a.078.078,0,0,1,.078.078v2.852a.078.078,0,0,1-.078.078H282.5a.078.078,0,0,1-.078-.078Z" transform="translate(-249.181 -318.741)"/>
      <path id="Trazado_1048668" data-name="Trazado 1048668" d="M421.656,291.068H418.8a1.749,1.749,0,0,0-1.748,1.748v2.852a1.749,1.749,0,0,0,1.748,1.748h2.852a1.749,1.749,0,0,0,1.748-1.748v-2.852A1.749,1.749,0,0,0,421.656,291.068Zm.078,4.6a.078.078,0,0,1-.078.078H418.8a.078.078,0,0,1-.078-.078c.035-2.822-.072-2.93.078-2.93h2.852a.077.077,0,0,1,.078.078Z" transform="translate(-370.388 -258.839)"/>
      <path id="Trazado_1048669" data-name="Trazado 1048669" d="M282.5,297.416h2.853a1.749,1.749,0,0,0,1.748-1.748v-2.852a1.749,1.749,0,0,0-1.748-1.748H282.5a1.75,1.75,0,0,0-1.748,1.748v2.852A1.75,1.75,0,0,0,282.5,297.416Zm-.078-4.6a.078.078,0,0,1,.078-.078h2.853a.078.078,0,0,1,.078.078v2.852a.078.078,0,0,1-.078.078H282.5a.078.078,0,0,1-.078-.078Z" transform="translate(-249.181 -258.839)"/>
      <path id="Trazado_1048670" data-name="Trazado 1048670" d="M286.642,423.08a1.747,1.747,0,0,0-1.308-.589h-2.853a1.743,1.743,0,0,0-1.307.589,2.388,2.388,0,0,0-.441,1.781v2.23a1.75,1.75,0,0,0,1.748,1.748h2.853a1.749,1.749,0,0,0,1.748-1.748v-2.23A2.408,2.408,0,0,0,286.642,423.08Zm-1.308,4.089c-2.819-.035-2.931.072-2.931-.078,0-3.02-.033-2.93.078-2.93h2.853c.137,0,.052.19.078.7A11.872,11.872,0,0,1,285.334,427.169Z" transform="translate(-249.157 -375.71)"/>
      <path id="Trazado_1048671" data-name="Trazado 1048671" d="M421.212,358.428h-1.966a2.194,2.194,0,0,0-2.191,2.191v8.858a2.4,2.4,0,0,0,2.391,2.392h1.565a2.394,2.394,0,0,0,2.391-2.392v-8.858A2.193,2.193,0,0,0,421.212,358.428Zm.521,11.049a.722.722,0,0,1-.721.723h-1.565a.723.723,0,0,1-.721-.723v-8.858a.522.522,0,0,1,.521-.521h1.966a.522.522,0,0,1,.521.521v8.858Z" transform="translate(-370.387 -318.74)"/>
      <path id="Trazado_1048672" data-name="Trazado 1048672" d="M166.244,173.017h0c-1.018-.374-1.753-.644-1.753-1.587,0-.86.571-1.3,1.7-1.3,1.2,0,1.517.526,1.938.526a.8.8,0,0,0,.712-.822c0-.7-1.135-1.041-2.149-1.132v-.627a.791.791,0,1,0-1.582,0v.727a2.588,2.588,0,0,0-2.149,2.706c0,1.943,1.431,2.481,2.58,2.913,1.126.423,2.015.757,2.015,2.042,0,1.062-.589,1.6-1.752,1.6-1.7,0-1.718-1.149-2.367-1.149a.835.835,0,0,0-.726.822c0,.658.98,1.523,2.4,1.747v.606a.791.791,0,0,0,1.582,0v-.622a2.858,2.858,0,0,0,2.4-3.087C169.085,174.061,167.51,173.482,166.244,173.017Z" transform="translate(-144.203 -148.765)"/>
      <path id="Trazado_1048673" data-name="Trazado 1048673" d="M353.078,422.491h-2.853a1.747,1.747,0,0,0-1.308.589,2.4,2.4,0,0,0-.44,1.781v2.23a1.749,1.749,0,0,0,1.748,1.748h2.853a1.749,1.749,0,0,0,1.747-1.748v-2.853a1.749,1.749,0,0,0-1.747-1.747Zm0,4.678c-2.819-.035-2.931.072-2.931-.078v-2.853a.078.078,0,0,1,.078-.077h2.853a.077.077,0,0,1,.077.077C353.121,427.063,353.226,427.169,353.078,427.169Z" transform="translate(-309.4 -375.71)"/>
      <path id="Trazado_1048674" data-name="Trazado 1048674" d="M353.1,291.068h-2.853a1.749,1.749,0,0,0-1.748,1.748v2.852a1.749,1.749,0,0,0,1.748,1.748H353.1a1.722,1.722,0,0,0,.636-.12,1.75,1.75,0,0,0,1.111-1.628v-2.852A1.75,1.75,0,0,0,353.1,291.068Zm.077,4.6a.077.077,0,0,1-.077.078h-2.853a.078.078,0,0,1-.078-.078v-2.852c0-.15.1-.045,2.931-.078a.077.077,0,0,1,.077.078v2.852Z" transform="translate(-309.422 -258.839)"/>
      <path id="Trazado_1048675" data-name="Trazado 1048675" d="M353.736,358.548a1.722,1.722,0,0,0-.636-.12h-2.853a1.749,1.749,0,0,0-1.748,1.748v2.852a1.749,1.749,0,0,0,1.748,1.748H353.1a1.749,1.749,0,0,0,1.747-1.748v-2.852A1.75,1.75,0,0,0,353.736,358.548Zm-.559,4.48a.077.077,0,0,1-.077.078h-2.853a.078.078,0,0,1-.078-.078v-2.852a.078.078,0,0,1,.078-.078H353.1a.077.077,0,0,1,.077.078Z" transform="translate(-309.422 -318.74)"/>
      <path id="Trazado_1048676" data-name="Trazado 1048676" d="M320.882,104.712h2.1a.835.835,0,0,0,0-1.67h-2.1a.835.835,0,0,0,0,1.67Z" transform="translate(-284.121 -91.632)"/>
      <path id="Trazado_1048677" data-name="Trazado 1048677" d="M157,104.712h14.806a.835.835,0,1,0,0-1.67H157a.835.835,0,1,0,0,1.67Z" transform="translate(-138.389 -91.632)"/>
      <path id="Trazado_1048678" data-name="Trazado 1048678" d="M159.659,142.142a.835.835,0,1,0,0-1.67H157a.835.835,0,1,0,0,1.67Z" transform="translate(-138.389 -124.918)"/>
      <path id="Trazado_1048679" data-name="Trazado 1048679" d="M226.218,141.307a.835.835,0,0,0-.835-.835H211.134a.835.835,0,1,0,0,1.67h14.249A.835.835,0,0,0,226.218,141.307Z" transform="translate(-186.525 -124.918)"/>
      <path id="Trazado_1048680" data-name="Trazado 1048680" d="M79.182,401.2c0-.21.077-.27.15-.31a1.434,1.434,0,0,1,1.21.082.954.954,0,0,0,.452.137c.823,0,1.475-1.53-.492-1.868v-.053a.846.846,0,1,0-1.692,0v.161a1.9,1.9,0,0,0-1.291,1.9c0,1.424,1.035,1.813,1.79,2.1.72.271.97.389.97.879,0,.306-.082.59-.681.59-.873,0-.768-.69-1.421-.69a.872.872,0,0,0-.807.865c0,.578.6,1.127,1.44,1.35v.063a.846.846,0,1,0,1.692,0v-.086a2.092,2.092,0,0,0,1.44-2.143C81.942,401.639,79.182,402.02,79.182,401.2Z" transform="translate(-68.314 -354.235)"/>
    </g>
  </g>
</svg>
