<svg xmlns="http://www.w3.org/2000/svg" xmlns:xlink="http://www.w3.org/1999/xlink" width="110" height="110" viewBox="0 0 110 110">
  <defs>
    <filter id="Trazado_982547" x="0" y="0" width="110" height="110" filterUnits="userSpaceOnUse">
      <feOffset dy="3" input="SourceAlpha"/>
      <feGaussianBlur stdDeviation="3" result="blur"/>
      <feFlood flood-opacity="0.161"/>
      <feComposite operator="in" in2="blur"/>
      <feComposite in="SourceGraphic"/>
    </filter>
  </defs>
  <g id="Grupo_1201811" data-name="Grupo 1201811" transform="translate(-798 -1511.313)">
    <g id="Grupo_1182958" data-name="Grupo 1182958" transform="translate(0 84)">
      <g id="Grupo_1179215" data-name="Grupo 1179215" transform="translate(1 -2794.687)">
        <g id="Grupo_1171898" data-name="Grupo 1171898" transform="translate(806 4228)">
          <g id="Grupo_1164700" data-name="Grupo 1164700" transform="translate(0 0)">
            <g id="Grupo_1160931" data-name="Grupo 1160931" transform="translate(0 0)">
              <g id="Grupo_1160749" data-name="Grupo 1160749" transform="translate(0 0)">
                <g id="Grupo_1158891" data-name="Grupo 1158891" transform="translate(0 0)">
                  <g id="Grupo_1157406" data-name="Grupo 1157406" transform="translate(0 0)">
                    <g id="Grupo_1155793" data-name="Grupo 1155793">
                      <g id="Grupo_1154704" data-name="Grupo 1154704">
                        <g id="Grupo_1150790" data-name="Grupo 1150790">
                          <g id="Grupo_1154214" data-name="Grupo 1154214">
                            <g id="Grupo_1152583" data-name="Grupo 1152583">
                              <g id="Grupo_1146973" data-name="Grupo 1146973">
                                <g id="Grupo_1146954" data-name="Grupo 1146954">
                                  <g transform="matrix(1, 0, 0, 1, -9, -6)" filter="url(#Trazado_982547)">
                                    <g id="Trazado_982547-2" data-name="Trazado 982547" transform="translate(9 6)" fill="#f2f7f5">
                                      <path d="M 46.00000762939453 90.49987030029297 C 39.99188613891602 90.49987030029297 34.16427612304688 89.32350921630859 28.67906188964844 87.00345611572266 C 23.38020706176758 84.76224517822266 18.62104797363281 81.55341339111328 14.53375434875488 77.46613311767578 C 10.44647407531738 73.37885284423828 7.237647533416748 68.61969757080078 4.996420860290527 63.32085418701172 C 2.676367521286011 57.83565521240234 1.500007629394531 52.008056640625 1.500007629394531 45.99993515014648 C 1.500007629394531 39.99181365966797 2.676367521286011 34.16421508789062 4.996420860290527 28.67901420593262 C 7.237647533416748 23.38017463684082 10.44647407531738 18.62101554870605 14.53375434875488 14.53373527526855 C 18.62104797363281 10.44645500183105 23.38020706176758 7.23762845993042 28.67906188964844 4.996415138244629 C 34.16427612304688 2.676361799240112 39.99188613891602 1.500001788139343 46.00000762939453 1.500001788139343 C 52.00812911987305 1.500001788139343 57.83573913574219 2.676361799240112 63.32095336914062 4.996415138244629 C 68.61980438232422 7.23762845993042 73.37896728515625 10.44645500183105 77.46626281738281 14.53373527526855 C 81.55354309082031 18.62101554870605 84.76236724853516 23.38017463684082 87.00359344482422 28.67901420593262 C 89.32364654541016 34.16421508789062 90.50000762939453 39.99181365966797 90.50000762939453 45.99993515014648 C 90.50000762939453 52.008056640625 89.32364654541016 57.83565521240234 87.00359344482422 63.32085418701172 C 84.76236724853516 68.61969757080078 81.55354309082031 73.37885284423828 77.46626281738281 77.46613311767578 C 73.37896728515625 81.55341339111328 68.61980438232422 84.76224517822266 63.32095336914062 87.00345611572266 C 57.83573913574219 89.32350921630859 52.00812911987305 90.49987030029297 46.00000762939453 90.49987030029297 Z" stroke="none"/>
                                      <path d="M 46.00000762939453 2.999992370605469 C 40.19372177124023 2.999992370605469 34.56270599365234 4.136489868164062 29.26339340209961 6.377906799316406 C 24.14333343505859 8.543502807617188 19.54443359375 11.64437866210938 15.59442138671875 15.59437561035156 C 11.6444091796875 19.54439544677734 8.543533325195312 24.14329528808594 6.377937316894531 29.26333618164062 C 4.136505126953125 34.56264877319336 3.000007629394531 40.19366455078125 3.000007629394531 45.99993515014648 C 3.000007629394531 51.80620574951172 4.136505126953125 57.43720626831055 6.377937316894531 62.73651885986328 C 8.543533325195312 67.8565673828125 11.6444091796875 72.45545959472656 15.59442138671875 76.40547943115234 C 19.54443359375 80.35547637939453 24.14333343505859 83.45635223388672 29.26339340209961 85.6219482421875 C 34.56270599365234 87.86336517333984 40.19372177124023 88.99986267089844 46.00000762939453 88.99986267089844 C 51.80629348754883 88.99986267089844 57.43730926513672 87.86336517333984 62.73663711547852 85.6219482421875 C 67.85668182373047 83.45635223388672 72.45559692382812 80.35547637939453 76.40560913085938 76.40547943115234 C 80.35560607910156 72.45545959472656 83.45649719238281 67.8565673828125 85.62209320068359 62.73651885986328 C 87.86351013183594 57.43720626831055 89.00000762939453 51.80620574951172 89.00000762939453 45.99993515014648 C 89.00000762939453 40.19366455078125 87.86351013183594 34.56264877319336 85.62209320068359 29.26333618164062 C 83.45649719238281 24.14329528808594 80.35560607910156 19.54439544677734 76.40560913085938 15.59437561035156 C 72.45559692382812 11.64437866210938 67.85668182373047 8.543502807617188 62.73663711547852 6.377906799316406 C 57.43730926513672 4.136489868164062 51.80629348754883 2.999992370605469 46.00000762939453 2.999992370605469 M 46.00000762939453 -7.62939453125e-06 C 71.40510559082031 -7.62939453125e-06 92.00000762939453 20.59486389160156 92.00000762939453 45.99993515014648 C 92.00000762939453 71.40499114990234 71.40510559082031 91.99986267089844 46.00000762939453 91.99986267089844 C 20.59492492675781 91.99986267089844 7.62939453125e-06 71.40499114990234 7.62939453125e-06 45.99993515014648 C 7.62939453125e-06 20.59486389160156 20.59492492675781 -7.62939453125e-06 46.00000762939453 -7.62939453125e-06 Z" stroke="none" fill="#4a665c"/>
                                    </g>
                                  </g>
                                </g>
                              </g>
                            </g>
                          </g>
                        </g>
                      </g>
                    </g>
                  </g>
                </g>
              </g>
            </g>
          </g>
        </g>
      </g>
    </g>
    <g id="mision-cumplida_2_" data-name="mision-cumplida (2)" transform="translate(812.146 1522.367)">
      <g id="Grupo_1201810" data-name="Grupo 1201810" transform="translate(9.261 9.154)">
        <g id="Grupo_1201808" data-name="Grupo 1201808" transform="translate(0 0)">
          <path id="Trazado_1048682" data-name="Trazado 1048682" d="M49.516,20.424a22.786,22.786,0,0,1,6.672,2.766l4.336-1.926,5.11,5.11-1.925,4.334a22.784,22.784,0,0,1,2.767,6.674l4.423,1.7v7.227l-4.424,1.7a22.786,22.786,0,0,1-2.766,6.672l1.926,4.336-5.11,5.11L56.19,62.208a22.781,22.781,0,0,1-6.674,2.767l-1.7,4.423H40.587l-1.7-4.424a22.788,22.788,0,0,1-6.672-2.766l-4.336,1.926-5.11-5.11,1.925-4.334a22.786,22.786,0,0,1-2.767-6.674l-4.423-1.7V39.086l4.424-1.7a22.785,22.785,0,0,1,2.766-6.673l-1.925-4.335,5.11-5.11,4.336,1.926a22.79,22.79,0,0,1,6.672-2.766L40.587,16h7.226Z" transform="translate(-17.501 -16)" fill="#ffe177" fill-rule="evenodd"/>
          <path id="Trazado_1048683" data-name="Trazado 1048683" d="M95.788,62.207l-4.336,1.926-.668-.668L94.85,61.66q.463.285.938.547Zm17.3-41.783a22.786,22.786,0,0,1,6.672,2.766l-1.232.547a30.056,30.056,0,0,0-7.61-3.313L109.219,16h2.171Zm6.674,41.783a22.781,22.781,0,0,1-6.674,2.767l-1.7,4.423h-2.171l1.7-4.423a30.046,30.046,0,0,0,7.612-3.314ZM90.785,21.932l.668-.668,4.336,1.926q-.475.262-.938.547Zm31.812,0,1.5-.668,5.11,5.11-1.925,4.334a22.784,22.784,0,0,1,2.767,6.674l4.423,1.7v7.227l-4.424,1.7a22.786,22.786,0,0,1-2.766,6.672l1.926,4.336-5.11,5.11-1.5-.668,4.442-4.442-1.926-4.336a22.786,22.786,0,0,0,2.766-6.672l4.424-1.7V39.085l-4.423-1.7a22.785,22.785,0,0,0-2.767-6.674l1.925-4.334Z" transform="translate(-81.077 -16)" fill="#ffd064" fill-rule="evenodd"/>
          <circle id="Elipse_14279" data-name="Elipse 14279" cx="14.157" cy="14.157" r="14.157" transform="translate(9.668 16.166) rotate(-13.3)" fill="#eceff1"/>
          <path id="Trazado_1048684" data-name="Trazado 1048684" d="M126.34,110.68a14.157,14.157,0,0,0,0,28.314q.569,0,1.126-.045a14.157,14.157,0,0,1,0-28.225Q126.909,110.681,126.34,110.68Z" transform="translate(-99.641 -98.138)" fill="#d1d1d6" fill-rule="evenodd"/>
        </g>
        <g id="Grupo_1201809" data-name="Grupo 1201809" transform="translate(26.322 26.758)">
          <circle id="Elipse_14280" data-name="Elipse 14280" cx="16.612" cy="16.612" r="16.612" transform="translate(0 3.602)" fill="#fe646f"/>
          <path id="Trazado_1048685" data-name="Trazado 1048685" d="M337.277,245.192a16.612,16.612,0,1,1,0,33.223c-.222,0-.443-.006-.662-.014a16.61,16.61,0,0,0,0-33.194c.22-.009.44-.014.662-.014Z" transform="translate(-320.666 -241.59)" fill="#fd4755" fill-rule="evenodd"/>
          <circle id="Elipse_14281" data-name="Elipse 14281" cx="10.675" cy="10.675" r="10.675" transform="translate(5.937 9.539)" fill="#eceff1"/>
          <path id="Trazado_1048686" data-name="Trazado 1048686" d="M271.7,290.011c.223,0,.443.008.662.021a10.674,10.674,0,0,0,0,21.307c-.219.013-.44.021-.662.021a10.675,10.675,0,0,1,0-21.35Z" transform="translate(-255.092 -280.472)" fill="#d1d1d6" fill-rule="evenodd"/>
          <circle id="Elipse_14282" data-name="Elipse 14282" cx="4.738" cy="4.738" r="4.738" transform="translate(10.44 17.642) rotate(-22.514)" fill="#fe646f"/>
          <path id="Trazado_1048687" data-name="Trazado 1048687" d="M310.586,334.829a4.77,4.77,0,0,1,.662.046,4.738,4.738,0,0,0,0,9.383,4.738,4.738,0,1,1-.662-9.429Z" transform="translate(-293.974 -319.353)" fill="#fd4755" fill-rule="evenodd"/>
          <path id="Trazado_1048688" data-name="Trazado 1048688" d="M413.208,224.341l-5.937,5.937a.387.387,0,0,1-.365.107l-4.657-1a.39.39,0,0,1-.3-.3l-1-4.657a.387.387,0,0,1,.107-.365l5.937-5.937a.4.4,0,0,1,.669.2l.9,4.156a.39.39,0,0,0,.3.3l4.156.9a.4.4,0,0,1,.2.669Z" transform="translate(-376.463 -218.001)" fill="#e3a76f" fill-rule="evenodd"/>
          <path id="Trazado_1048689" data-name="Trazado 1048689" d="M419.392,261.274l-5.937,5.937a.387.387,0,0,1-.365.107l-4.657-1a.39.39,0,0,1-.3-.3l-.069-.321,4.633,1a.387.387,0,0,0,.365-.107l5.937-5.937a.424.424,0,0,0,.056-.07l.145.031a.4.4,0,0,1,.2.669Z" transform="translate(-382.646 -254.934)" fill="#c48958" fill-rule="evenodd"/>
        </g>
      </g>
      <path id="Trazado_1048690" data-name="Trazado 1048690" d="M70.52,42.348l-2.655-.572L63.044,46.6l2.653.572ZM39.619,8.109a1.06,1.06,0,0,1,.743.65l1.506,3.91a23.8,23.8,0,0,1,5.953,2.469l3.833-1.7a1.06,1.06,0,0,1,1.18.219l5.11,5.11a1.06,1.06,0,0,1,.219,1.179l-1.7,3.831a23.79,23.79,0,0,1,2.469,5.956l3.91,1.5a1.061,1.061,0,0,1,.678.989v1.616a1.06,1.06,0,1,1-2.12,0v-.889l-3.743-1.442a1.055,1.055,0,0,1-.65-.743A21.677,21.677,0,0,0,54.366,24.4a1.061,1.061,0,0,1-.066-.986l1.631-3.669-4.081-4.081-3.67,1.63a1.061,1.061,0,0,1-.986-.066A21.672,21.672,0,0,0,40.831,14.6a1.056,1.056,0,0,1-.743-.65L38.645,10.2h-5.77l-1.442,3.746a1.062,1.062,0,0,1-.743.65,21.677,21.677,0,0,0-6.362,2.637,1.061,1.061,0,0,1-.986.066l-3.67-1.63L15.59,19.749l1.631,3.67a1.063,1.063,0,0,1-.066.986,21.654,21.654,0,0,0-2.637,6.362,1.063,1.063,0,0,1-.65.743l-3.745,1.442v5.771l3.744,1.441a1.061,1.061,0,0,1,.65.743,21.665,21.665,0,0,0,2.638,6.364,1.062,1.062,0,0,1,.066.986L15.59,51.928l4.081,4.081,3.67-1.63a1.061,1.061,0,0,1,.986.066,21.677,21.677,0,0,0,6.362,2.637,1.06,1.06,0,0,1,.743.65l1.488,3.863a1.06,1.06,0,0,1-.486,2h-.287a1.058,1.058,0,0,1-.988-.679l-1.506-3.911A23.773,23.773,0,0,1,23.7,56.539l-3.834,1.7a1.057,1.057,0,0,1-1.179-.22l-5.111-5.11a1.06,1.06,0,0,1-.218-1.179l1.7-3.831a23.753,23.753,0,0,1-2.469-5.955L8.681,40.441A1.058,1.058,0,0,1,8,39.452V32.226a1.058,1.058,0,0,1,.678-.989l3.91-1.505a23.755,23.755,0,0,1,2.469-5.954l-1.7-3.833a1.059,1.059,0,0,1,.218-1.179l5.111-5.11a1.058,1.058,0,0,1,1.179-.219l3.834,1.7a23.779,23.779,0,0,1,5.953-2.469l1.506-3.91a1.058,1.058,0,0,1,.743-.65h7.717Zm27.927,48A15.546,15.546,0,1,1,58.758,42.1a1.092,1.092,0,0,0,.023.224l.982,4.555-.236.236a11.739,11.739,0,1,0,1.5,1.5l.24-.239,4.554.982a1.04,1.04,0,0,0,.205.023,15.582,15.582,0,0,1,1.526,6.725ZM58.02,48.626a9.63,9.63,0,1,0,1.494,1.5l-2.726,2.726A5.808,5.808,0,1,1,55.3,51.349ZM55.248,54.4,52.764,56.88a1.06,1.06,0,0,1-1.5-1.5l2.5-2.5a3.679,3.679,0,1,0,1.488,1.51Zm5.726-11.95L65.8,37.624l.572,2.654L61.546,45.1Zm12.42.026-5.64,5.64a17.67,17.67,0,1,1-7.709-7.734l5.629-5.628a1.06,1.06,0,0,1,1.785.526l.693,3.218.33-.33a1.06,1.06,0,0,1,1.5,1.5l-.33.33,3.218.693a1.059,1.059,0,0,1,.526,1.785Zm-38.34-1.233,7.656-9.467a1.06,1.06,0,1,0-1.648-1.333l-6.916,8.551-3.761-3.761a1.06,1.06,0,0,0-1.5,1.5l4.594,4.595a1.062,1.062,0,0,0,.75.31h.056A1.061,1.061,0,0,0,35.053,41.238ZM32.7,48.577A13.1,13.1,0,1,1,48.856,35.645a1.059,1.059,0,0,0,1.059,1.044h.016a1.058,1.058,0,0,0,1.044-1.074,15.216,15.216,0,1,0-27.107,9.718,15.292,15.292,0,0,0,8.345,5.305,1.049,1.049,0,0,0,.247.029,1.06,1.06,0,0,0,.245-2.091Z" fill="#242222" fill-rule="evenodd"/>
    </g>
  </g>
</svg>
