<svg xmlns="http://www.w3.org/2000/svg" xmlns:xlink="http://www.w3.org/1999/xlink" width="110" height="110" viewBox="0 0 110 110">
  <defs>
    <filter id="Trazado_982547" x="0" y="0" width="110" height="110" filterUnits="userSpaceOnUse">
      <feOffset dy="3" input="SourceAlpha"/>
      <feGaussianBlur stdDeviation="3" result="blur"/>
      <feFlood flood-opacity="0.161"/>
      <feComposite operator="in" in2="blur"/>
      <feComposite in="SourceGraphic"/>
    </filter>
  </defs>
  <g id="Grupo_1201819" data-name="Grupo 1201819" transform="translate(-1114 -1511.07)">
    <g id="Grupo_1182959" data-name="Grupo 1182959" transform="translate(0 84)">
      <g id="Grupo_1179216" data-name="Grupo 1179216" transform="translate(1 -2794.687)">
        <g id="Grupo_1172349" data-name="Grupo 1172349" transform="translate(1122 4227.757)">
          <g id="Grupo_1164700" data-name="Grupo 1164700" transform="translate(0 0)">
            <g id="Grupo_1160931" data-name="Grupo 1160931" transform="translate(0 0)">
              <g id="Grupo_1160749" data-name="Grupo 1160749" transform="translate(0 0)">
                <g id="Grupo_1158891" data-name="Grupo 1158891" transform="translate(0 0)">
                  <g id="Grupo_1157406" data-name="Grupo 1157406" transform="translate(0 0)">
                    <g id="Grupo_1155793" data-name="Grupo 1155793">
                      <g id="Grupo_1154704" data-name="Grupo 1154704">
                        <g id="Grupo_1150790" data-name="Grupo 1150790">
                          <g id="Grupo_1154214" data-name="Grupo 1154214">
                            <g id="Grupo_1152583" data-name="Grupo 1152583">
                              <g id="Grupo_1146973" data-name="Grupo 1146973">
                                <g id="Grupo_1146954" data-name="Grupo 1146954">
                                  <g transform="matrix(1, 0, 0, 1, -9, -6)" filter="url(#Trazado_982547)">
                                    <g id="Trazado_982547-2" data-name="Trazado 982547" transform="translate(9 6)" fill="#f2f7f5">
                                      <path d="M 46.00000762939453 90.49987030029297 C 39.99188613891602 90.49987030029297 34.16427612304688 89.32350921630859 28.67906188964844 87.00345611572266 C 23.38020706176758 84.76224517822266 18.62104797363281 81.55341339111328 14.53375434875488 77.46613311767578 C 10.44647407531738 73.37885284423828 7.237647533416748 68.61969757080078 4.996420860290527 63.32085418701172 C 2.676367521286011 57.83565521240234 1.500007629394531 52.008056640625 1.500007629394531 45.99993515014648 C 1.500007629394531 39.99181365966797 2.676367521286011 34.16421508789062 4.996420860290527 28.67901420593262 C 7.237647533416748 23.38017463684082 10.44647407531738 18.62101554870605 14.53375434875488 14.53373527526855 C 18.62104797363281 10.44645500183105 23.38020706176758 7.23762845993042 28.67906188964844 4.996415138244629 C 34.16427612304688 2.676361799240112 39.99188613891602 1.500001788139343 46.00000762939453 1.500001788139343 C 52.00812911987305 1.500001788139343 57.83573913574219 2.676361799240112 63.32095336914062 4.996415138244629 C 68.61980438232422 7.23762845993042 73.37896728515625 10.44645500183105 77.46626281738281 14.53373527526855 C 81.55354309082031 18.62101554870605 84.76236724853516 23.38017463684082 87.00359344482422 28.67901420593262 C 89.32364654541016 34.16421508789062 90.50000762939453 39.99181365966797 90.50000762939453 45.99993515014648 C 90.50000762939453 52.008056640625 89.32364654541016 57.83565521240234 87.00359344482422 63.32085418701172 C 84.76236724853516 68.61969757080078 81.55354309082031 73.37885284423828 77.46626281738281 77.46613311767578 C 73.37896728515625 81.55341339111328 68.61980438232422 84.76224517822266 63.32095336914062 87.00345611572266 C 57.83573913574219 89.32350921630859 52.00812911987305 90.49987030029297 46.00000762939453 90.49987030029297 Z" stroke="none"/>
                                      <path d="M 46.00000762939453 2.999992370605469 C 40.19372177124023 2.999992370605469 34.56270599365234 4.136489868164062 29.26339340209961 6.377906799316406 C 24.14333343505859 8.543502807617188 19.54443359375 11.64437866210938 15.59442138671875 15.59437561035156 C 11.6444091796875 19.54439544677734 8.543533325195312 24.14329528808594 6.377937316894531 29.26333618164062 C 4.136505126953125 34.56264877319336 3.000007629394531 40.19366455078125 3.000007629394531 45.99993515014648 C 3.000007629394531 51.80620574951172 4.136505126953125 57.43720626831055 6.377937316894531 62.73651885986328 C 8.543533325195312 67.8565673828125 11.6444091796875 72.45545959472656 15.59442138671875 76.40547943115234 C 19.54443359375 80.35547637939453 24.14333343505859 83.45635223388672 29.26339340209961 85.6219482421875 C 34.56270599365234 87.86336517333984 40.19372177124023 88.99986267089844 46.00000762939453 88.99986267089844 C 51.80629348754883 88.99986267089844 57.43730926513672 87.86336517333984 62.73663711547852 85.6219482421875 C 67.85668182373047 83.45635223388672 72.45559692382812 80.35547637939453 76.40560913085938 76.40547943115234 C 80.35560607910156 72.45545959472656 83.45649719238281 67.8565673828125 85.62209320068359 62.73651885986328 C 87.86351013183594 57.43720626831055 89.00000762939453 51.80620574951172 89.00000762939453 45.99993515014648 C 89.00000762939453 40.19366455078125 87.86351013183594 34.56264877319336 85.62209320068359 29.26333618164062 C 83.45649719238281 24.14329528808594 80.35560607910156 19.54439544677734 76.40560913085938 15.59437561035156 C 72.45559692382812 11.64437866210938 67.85668182373047 8.543502807617188 62.73663711547852 6.377906799316406 C 57.43730926513672 4.136489868164062 51.80629348754883 2.999992370605469 46.00000762939453 2.999992370605469 M 46.00000762939453 -7.62939453125e-06 C 71.40510559082031 -7.62939453125e-06 92.00000762939453 20.59486389160156 92.00000762939453 45.99993515014648 C 92.00000762939453 71.40499114990234 71.40510559082031 91.99986267089844 46.00000762939453 91.99986267089844 C 20.59492492675781 91.99986267089844 7.62939453125e-06 71.40499114990234 7.62939453125e-06 45.99993515014648 C 7.62939453125e-06 20.59486389160156 20.59492492675781 -7.62939453125e-06 46.00000762939453 -7.62939453125e-06 Z" stroke="none" fill="#4a665c"/>
                                    </g>
                                  </g>
                                </g>
                              </g>
                            </g>
                          </g>
                        </g>
                      </g>
                    </g>
                  </g>
                </g>
              </g>
            </g>
          </g>
        </g>
      </g>
    </g>
    <g id="apreton-de-manos_2_" data-name="apreton-de-manos (2)" transform="translate(1135.588 1448.152)">
      <g id="Grupo_1201817" data-name="Grupo 1201817" transform="translate(0.978 99.036)">
        <g id="Grupo_1201812" data-name="Grupo 1201812" transform="translate(15.414 0.897)">
          <path id="Trazado_1048691" data-name="Trazado 1048691" d="M163.8,129.78l-1.7-13.79-3.181.392v0l-6.167-3.471a3.716,3.716,0,0,0-2.164-.462l-9.738.9a3.716,3.716,0,0,0-2.87,1.833l-6.863,11.813a1.633,1.633,0,0,0,.835,2.347l.281.106a6.088,6.088,0,0,0,1.65.368l-.87.757-1.74,1.516-4.948,4.221a2.114,2.114,0,0,0-.205,2.983l.5.575a2.717,2.717,0,0,0,3.833.262l1.891,2.169a2.712,2.712,0,0,0,3.833.262l1.889,2.169a2.718,2.718,0,0,0,3.835.264l1.027.887a2.718,2.718,0,0,0,3.835.263l1.4-1.218,11.733-9.138.013-.012,4.629,0Z" transform="translate(-125.598 -112.431)" fill="#f29f5c"/>
          <path id="Trazado_1048692" data-name="Trazado 1048692" d="M158.777,260l-.013.012-11.733,9.138-1.4,1.218a2.718,2.718,0,0,1-3.835-.263l-1.027-.887a2.718,2.718,0,0,1-3.835-.264l-1.889-2.169a2.712,2.712,0,0,1-3.833-.262l-1.891-2.169a2.717,2.717,0,0,1-3.365.16,2.113,2.113,0,0,0,.167,2.556l.5.575a2.717,2.717,0,0,0,3.833.262l1.891,2.169a2.712,2.712,0,0,0,3.833.262l1.889,2.169a2.718,2.718,0,0,0,3.835.264l1.027.887a2.718,2.718,0,0,0,3.835.263l1.4-1.218,11.733-9.138.013-.012,4.629,0-.512-4.16Z" transform="translate(-125.608 -240.209)" fill="#d37d42"/>
        </g>
        <g id="Grupo_1201813" data-name="Grupo 1201813" transform="translate(9.035 1.443)">
          <path id="Trazado_1048693" data-name="Trazado 1048693" d="M118.411,141.822l-6.286-5.42-1.748-1.506-1.251-1.077-5.378-4.636.621-5.287a3.649,3.649,0,0,0-2.651-3.943l-11.724-3.244a2.713,2.713,0,0,0-3.138,1.378l-1.474,2.878-6.329-.43-1.621,13.8-.7,6,6.16.41.013.012,12.869,11.093,1.4,1.21a2.718,2.718,0,0,0,3.833-.285l1.877-2.178a2.718,2.718,0,0,0,3.833-.285l1.877-2.18a2.712,2.712,0,0,0,3.831-.283l1.879-2.18a2.717,2.717,0,0,0,3.831-.283l.5-.578A2.114,2.114,0,0,0,118.411,141.822Z" transform="translate(-76.727 -116.61)" fill="#f9c295"/>
          <path id="Trazado_1048694" data-name="Trazado 1048694" d="M248.96,298.782l-1.915-1.651a2.244,2.244,0,0,1-.093,2.815l-.53.613a2.884,2.884,0,0,1-4.067.3l-1.995,2.314a2.879,2.879,0,0,1-4.067.3l-1.993,2.314a2.886,2.886,0,0,1-4.069.3l-1.993,2.312a2.865,2.865,0,0,1-1.367.881l.848.732a2.718,2.718,0,0,0,3.833-.285l1.877-2.178a2.718,2.718,0,0,0,3.833-.285l1.877-2.18a2.712,2.712,0,0,0,3.831-.283l1.879-2.18a2.717,2.717,0,0,0,3.831-.283l.5-.578A2.114,2.114,0,0,0,248.96,298.782Z" transform="translate(-207.275 -273.57)" fill="#e59f6a"/>
        </g>
        <g id="Grupo_1201815" data-name="Grupo 1201815" transform="translate(14.277 24.594)">
          <g id="Grupo_1201814" data-name="Grupo 1201814">
            <path id="Trazado_1048695" data-name="Trazado 1048695" d="M118.127,294.953l-.746.985a2.435,2.435,0,0,0,.471,3.412h0a2.435,2.435,0,0,0,3.412-.471l.746-.985a2.435,2.435,0,0,0-.471-3.412h0A2.435,2.435,0,0,0,118.127,294.953Z" transform="translate(-116.887 -293.988)" fill="#f29f5c"/>
            <path id="Trazado_1048696" data-name="Trazado 1048696" d="M148.535,310.819l-1.4,1.854a2.435,2.435,0,0,0,.471,3.412h0a2.435,2.435,0,0,0,3.412-.471l1.4-1.854a2.436,2.436,0,0,0-.471-3.412h0A2.435,2.435,0,0,0,148.535,310.819Z" transform="translate(-142.754 -307.783)" fill="#f29f5c"/>
            <path id="Trazado_1048697" data-name="Trazado 1048697" d="M178.794,328.194l-1.914,2.527a2.435,2.435,0,0,0,.471,3.412h0a2.436,2.436,0,0,0,3.412-.471l1.914-2.527a2.436,2.436,0,0,0-.471-3.412h0A2.436,2.436,0,0,0,178.794,328.194Z" transform="translate(-168.62 -322.891)" fill="#f29f5c"/>
            <path id="Trazado_1048698" data-name="Trazado 1048698" d="M208.655,349.6l-2.025,2.674a2.436,2.436,0,0,0,.471,3.412h0a2.435,2.435,0,0,0,3.412-.471l2.025-2.674a2.435,2.435,0,0,0-.471-3.412h0A2.435,2.435,0,0,0,208.655,349.6Z" transform="translate(-194.487 -341.503)" fill="#f29f5c"/>
          </g>
        </g>
        <path id="Trazado_1048699" data-name="Trazado 1048699" d="M194.2,116.379l-6.167-3.471a3.716,3.716,0,0,0-2.164-.462l-9.738.9a3.716,3.716,0,0,0-2.871,1.833L166.4,126.994a1.633,1.633,0,0,0,.835,2.347l.281.106a6.1,6.1,0,0,0,7-1.991l2.63-3.422s6.321,7.319,13.28-1.228" transform="translate(-145.466 -111.534)" fill="#f29f5c"/>
        <path id="Trazado_1048700" data-name="Trazado 1048700" d="M414.333,105.557l3.226,26.2-7.542.929a2.6,2.6,0,0,1-2.9-2.263l-2.59-21.04a2.6,2.6,0,0,1,2.263-2.9Z" transform="translate(-352.691 -105.557)" fill="#5c9cee"/>
        <path id="Trazado_1048701" data-name="Trazado 1048701" d="M424.9,276.117a2.851,2.851,0,0,1-3.129-2.2l.356,2.893a2.6,2.6,0,0,0,2.9,2.263l7.542-.928-.361-2.928Z" transform="translate(-367.704 -251.944)" fill="#3580d3"/>
        <path id="Trazado_1048702" data-name="Trazado 1048702" d="M10.727,105.557,7.5,131.759l7.542.929a2.6,2.6,0,0,0,2.9-2.263l2.59-21.04a2.6,2.6,0,0,0-2.263-2.9Z" transform="translate(-7.501 -105.557)" fill="#ed5575"/>
        <path id="Trazado_1048703" data-name="Trazado 1048703" d="M15.221,280.518l-7.351-.9-.369,3,7.542.928a2.6,2.6,0,0,0,2.9-2.263l.274-2.223A3.055,3.055,0,0,1,15.221,280.518Z" transform="translate(-7.501 -256.409)" fill="#cc3a60"/>
        <g id="Grupo_1201816" data-name="Grupo 1201816" transform="translate(3.288 19.994)">
          <circle id="Elipse_14283" data-name="Elipse 14283" cx="1.892" cy="1.892" r="1.892" transform="translate(54.402)" fill="#ebeef2"/>
          <circle id="Elipse_14284" data-name="Elipse 14284" cx="1.892" cy="1.892" r="1.892" fill="#ebeef2"/>
        </g>
      </g>
      <g id="Grupo_1201818" data-name="Grupo 1201818" transform="translate(-0.001 98.057)">
        <path id="Trazado_1048704" data-name="Trazado 1048704" d="M33.425,130.476a3.406,3.406,0,0,0-2.688-.633,3.413,3.413,0,0,0-3.834-2.822,3.45,3.45,0,0,0-.65.155,3.41,3.41,0,0,0-4.578-2.195,3.415,3.415,0,0,0-5.622-1.362l-3.583-.238,2.2-17.84,3.935.267.067,0a.979.979,0,0,0,.871-.533l1.475-2.878a1.741,1.741,0,0,1,2.006-.88l2.19.606a.979.979,0,0,0,.522-1.887l-2.19-.605a3.707,3.707,0,0,0-4.27,1.874l-1.181,2.3-3.185-.216.075-.613a3.583,3.583,0,0,0-3.115-3.99l-7.542-.928a.979.979,0,0,0-.239,1.943l7.542.929a1.622,1.622,0,0,1,1.411,1.808l-2.59,21.04A1.624,1.624,0,0,1,8.64,125.2L1.1,124.267a.979.979,0,1,0-.239,1.943l7.542.929a3.576,3.576,0,0,0,3.573-1.827l2.68.178a3.415,3.415,0,0,0,3.029,4.976,3.48,3.48,0,0,0,.474-.033l.03,0c0,.01,0,.02,0,.03a3.411,3.411,0,0,0,3.378,2.946,3.444,3.444,0,0,0,.5-.038,3.407,3.407,0,0,0,3.38,2.979,3.442,3.442,0,0,0,.5-.038c0,.011,0,.022,0,.033a3.416,3.416,0,0,0,3.375,2.948,3.48,3.48,0,0,0,.474-.033,3.392,3.392,0,0,0,2.255-1.321l2.025-2.674A3.418,3.418,0,0,0,33.425,130.476ZM17.89,128.493a1.456,1.456,0,0,1-1.36-2.322l.746-.985a1.456,1.456,0,0,1,2.322,1.759l-.746.985A1.448,1.448,0,0,1,17.89,128.493Zm2.8,2.659a1.456,1.456,0,0,1-.282-2.04l.746-.984h0l.658-.87a1.456,1.456,0,0,1,2.322,1.759l-1.4,1.854A1.458,1.458,0,0,1,20.694,131.152Zm3.883,2.941a1.457,1.457,0,0,1-.282-2.04h0l1.4-1.854h0l.51-.673a1.456,1.456,0,0,1,2.323,1.758l-1.914,2.528h0A1.458,1.458,0,0,1,24.577,134.092Zm7.948-.015L30.5,136.751a1.456,1.456,0,1,1-2.322-1.759l1.914-2.527h0l.11-.145a1.456,1.456,0,1,1,2.322,1.759Z" transform="translate(0.001 -98.057)"/>
        <path id="Trazado_1048705" data-name="Trazado 1048705" d="M204.786,125.119a.979.979,0,0,0-1.091-.852l-7.542.929a1.623,1.623,0,0,1-1.808-1.411l-.077-.628h0l-.018-.145-2.495-20.266a1.622,1.622,0,0,1,1.411-1.808l7.542-.929a.979.979,0,0,0-.239-1.943l-7.542.929a3.584,3.584,0,0,0-3.141,3.645l-1.9.234-5.89-3.315a4.674,4.674,0,0,0-2.734-.584h-.006l-1.773.164a.979.979,0,0,0,.18,1.949l1.778-.164a2.725,2.725,0,0,1,1.594.34l6.107,3.437a.979.979,0,0,0,.659.155l2.209-.272,1.62,13.162.56,4.552-3.524,0a.978.978,0,0,0-.639.238l-.273.212-8.846-7.624a11.875,11.875,0,0,0,5.751-4.2.979.979,0,0,0-1.518-1.236c-2.014,2.473-4.131,3.746-6.294,3.784a8,8,0,0,1-5.486-2.577.979.979,0,0,0-1.517.043l-2.63,3.422a5.094,5.094,0,0,1-5.873,1.671l-.281-.106a.654.654,0,0,1-.334-.94l6.863-11.813a2.742,2.742,0,0,1,2.114-1.35l4.063-.376a.979.979,0,0,0-.18-1.949l-4.063.376a4.7,4.7,0,0,0-3.627,2.316L159.032,114a2.611,2.611,0,0,0,1.335,3.755l.281.106a7.132,7.132,0,0,0,2.523.464,7.041,7.041,0,0,0,5.594-2.774L170.727,113a9.667,9.667,0,0,0,5.516,2.413l12.784,11.018a1.136,1.136,0,0,1,.119,1.6l-.5.578a1.742,1.742,0,0,1-2.452.18.978.978,0,0,0-.128-.092l-3.319-2.862a.979.979,0,1,0-1.278,1.483l2.7,2.325-1.23,1.428a1.734,1.734,0,0,1-2.451.181l-.014-.011-3.084-2.659a.979.979,0,0,0-1.278,1.483l2.356,2.032-1.237,1.437a1.741,1.741,0,0,1-1.523.592.979.979,0,1,0-.229,1.944,3.7,3.7,0,0,0,3.234-1.259l1.323-1.536a3.694,3.694,0,0,0,4.386-.926l1.325-1.538a3.7,3.7,0,0,0,4.385-.924l.5-.579a3.093,3.093,0,0,0-.324-4.363l-.8-.692,2.937,0a3.577,3.577,0,0,0,3.953,2.883l7.542-.929A.979.979,0,0,0,204.786,125.119Z" transform="translate(-137.967 -98.058)"/>
        <path id="Trazado_1048706" data-name="Trazado 1048706" d="M444.875,251.249a2.871,2.871,0,1,0,2.871,2.871A2.874,2.874,0,0,0,444.875,251.249Zm0,3.785a.913.913,0,1,1,.913-.913A.915.915,0,0,1,444.875,255.034Z" transform="translate(-384.314 -231.255)"/>
        <path id="Trazado_1048707" data-name="Trazado 1048707" d="M30.935,254.12a2.871,2.871,0,1,0-2.871,2.871A2.874,2.874,0,0,0,30.935,254.12Zm-3.785,0a.913.913,0,1,1,.913.913A.914.914,0,0,1,27.151,254.12Z" transform="translate(-21.905 -231.255)"/>
      </g>
    </g>
  </g>
</svg>
