<svg xmlns="http://www.w3.org/2000/svg" xmlns:xlink="http://www.w3.org/1999/xlink" width="110" height="110" viewBox="0 0 110 110">
  <defs>
    <filter id="Trazado_982547" x="0" y="0" width="110" height="110" filterUnits="userSpaceOnUse">
      <feOffset dy="3" input="SourceAlpha"/>
      <feGaussianBlur stdDeviation="3" result="blur"/>
      <feFlood flood-opacity="0.161"/>
      <feComposite operator="in" in2="blur"/>
      <feComposite in="SourceGraphic"/>
    </filter>
  </defs>
  <g id="Grupo_1201824" data-name="Grupo 1201824" transform="translate(-959 -1502.313)">
    <g id="Grupo_1201341" data-name="Grupo 1201341" transform="translate(161 75)">
      <g id="Grupo_1179215" data-name="Grupo 1179215" transform="translate(1 -2794.687)">
        <g id="Grupo_1171898" data-name="Grupo 1171898" transform="translate(806 4228)">
          <g id="Grupo_1164700" data-name="Grupo 1164700" transform="translate(0 0)">
            <g id="Grupo_1160931" data-name="Grupo 1160931" transform="translate(0 0)">
              <g id="Grupo_1160749" data-name="Grupo 1160749" transform="translate(0 0)">
                <g id="Grupo_1158891" data-name="Grupo 1158891" transform="translate(0 0)">
                  <g id="Grupo_1157406" data-name="Grupo 1157406" transform="translate(0 0)">
                    <g id="Grupo_1155793" data-name="Grupo 1155793">
                      <g id="Grupo_1154704" data-name="Grupo 1154704">
                        <g id="Grupo_1150790" data-name="Grupo 1150790">
                          <g id="Grupo_1154214" data-name="Grupo 1154214">
                            <g id="Grupo_1152583" data-name="Grupo 1152583">
                              <g id="Grupo_1146973" data-name="Grupo 1146973">
                                <g id="Grupo_1146954" data-name="Grupo 1146954">
                                  <g transform="matrix(1, 0, 0, 1, -9, -6)" filter="url(#Trazado_982547)">
                                    <g id="Trazado_982547-2" data-name="Trazado 982547" transform="translate(9 6)" fill="#f2f7f5">
                                      <path d="M 46.00000762939453 90.49987030029297 C 39.99188613891602 90.49987030029297 34.16427612304688 89.32350921630859 28.67906188964844 87.00345611572266 C 23.38020706176758 84.76224517822266 18.62104797363281 81.55341339111328 14.53375434875488 77.46613311767578 C 10.44647407531738 73.37885284423828 7.237647533416748 68.61969757080078 4.996420860290527 63.32085418701172 C 2.676367521286011 57.83565521240234 1.500007629394531 52.008056640625 1.500007629394531 45.99993515014648 C 1.500007629394531 39.99181365966797 2.676367521286011 34.16421508789062 4.996420860290527 28.67901420593262 C 7.237647533416748 23.38017463684082 10.44647407531738 18.62101554870605 14.53375434875488 14.53373527526855 C 18.62104797363281 10.44645500183105 23.38020706176758 7.23762845993042 28.67906188964844 4.996415138244629 C 34.16427612304688 2.676361799240112 39.99188613891602 1.500001788139343 46.00000762939453 1.500001788139343 C 52.00812911987305 1.500001788139343 57.83573913574219 2.676361799240112 63.32095336914062 4.996415138244629 C 68.61980438232422 7.23762845993042 73.37896728515625 10.44645500183105 77.46626281738281 14.53373527526855 C 81.55354309082031 18.62101554870605 84.76236724853516 23.38017463684082 87.00359344482422 28.67901420593262 C 89.32364654541016 34.16421508789062 90.50000762939453 39.99181365966797 90.50000762939453 45.99993515014648 C 90.50000762939453 52.008056640625 89.32364654541016 57.83565521240234 87.00359344482422 63.32085418701172 C 84.76236724853516 68.61969757080078 81.55354309082031 73.37885284423828 77.46626281738281 77.46613311767578 C 73.37896728515625 81.55341339111328 68.61980438232422 84.76224517822266 63.32095336914062 87.00345611572266 C 57.83573913574219 89.32350921630859 52.00812911987305 90.49987030029297 46.00000762939453 90.49987030029297 Z" stroke="none"/>
                                      <path d="M 46.00000762939453 2.999992370605469 C 40.19372177124023 2.999992370605469 34.56270599365234 4.136489868164062 29.26339340209961 6.377906799316406 C 24.14333343505859 8.543502807617188 19.54443359375 11.64437866210938 15.59442138671875 15.59437561035156 C 11.6444091796875 19.54439544677734 8.543533325195312 24.14329528808594 6.377937316894531 29.26333618164062 C 4.136505126953125 34.56264877319336 3.000007629394531 40.19366455078125 3.000007629394531 45.99993515014648 C 3.000007629394531 51.80620574951172 4.136505126953125 57.43720626831055 6.377937316894531 62.73651885986328 C 8.543533325195312 67.8565673828125 11.6444091796875 72.45545959472656 15.59442138671875 76.40547943115234 C 19.54443359375 80.35547637939453 24.14333343505859 83.45635223388672 29.26339340209961 85.6219482421875 C 34.56270599365234 87.86336517333984 40.19372177124023 88.99986267089844 46.00000762939453 88.99986267089844 C 51.80629348754883 88.99986267089844 57.43730926513672 87.86336517333984 62.73663711547852 85.6219482421875 C 67.85668182373047 83.45635223388672 72.45559692382812 80.35547637939453 76.40560913085938 76.40547943115234 C 80.35560607910156 72.45545959472656 83.45649719238281 67.8565673828125 85.62209320068359 62.73651885986328 C 87.86351013183594 57.43720626831055 89.00000762939453 51.80620574951172 89.00000762939453 45.99993515014648 C 89.00000762939453 40.19366455078125 87.86351013183594 34.56264877319336 85.62209320068359 29.26333618164062 C 83.45649719238281 24.14329528808594 80.35560607910156 19.54439544677734 76.40560913085938 15.59437561035156 C 72.45559692382812 11.64437866210938 67.85668182373047 8.543502807617188 62.73663711547852 6.377906799316406 C 57.43730926513672 4.136489868164062 51.80629348754883 2.999992370605469 46.00000762939453 2.999992370605469 M 46.00000762939453 -7.62939453125e-06 C 71.40510559082031 -7.62939453125e-06 92.00000762939453 20.59486389160156 92.00000762939453 45.99993515014648 C 92.00000762939453 71.40499114990234 71.40510559082031 91.99986267089844 46.00000762939453 91.99986267089844 C 20.59492492675781 91.99986267089844 7.62939453125e-06 71.40499114990234 7.62939453125e-06 45.99993515014648 C 7.62939453125e-06 20.59486389160156 20.59492492675781 -7.62939453125e-06 46.00000762939453 -7.62939453125e-06 Z" stroke="none" fill="#4a665c"/>
                                    </g>
                                  </g>
                                </g>
                              </g>
                            </g>
                          </g>
                        </g>
                      </g>
                    </g>
                  </g>
                </g>
              </g>
            </g>
          </g>
        </g>
      </g>
    </g>
    <g id="segmento-de-mercado" transform="translate(975.108 1500.306)">
      <g id="Grupo_1201822" data-name="Grupo 1201822" transform="translate(10.353 27.689)">
        <g id="Grupo_1201820" data-name="Grupo 1201820" transform="translate(0 0)">
          <path id="Trazado_1048708" data-name="Trazado 1048708" d="M66.409,89.9A28,28,0,1,1,57.9,34.56v7.3a20.787,20.787,0,0,0,3.6,41.26q.495,0,.983-.023Z" transform="translate(-33.493 -34.56)" fill="#8ac9fe" fill-rule="evenodd"/>
          <path id="Trazado_1048709" data-name="Trazado 1048709" d="M42.341,82.751A28,28,0,0,1,57.9,34.56v1.458A28,28,0,0,0,42.341,82.751Z" transform="translate(-33.493 -34.56)" fill="#60b7ff" fill-rule="evenodd"/>
          <path id="Trazado_1048710" data-name="Trazado 1048710" d="M321.168,272.969a20.8,20.8,0,0,0,12.372-19.01h7.216a28.018,28.018,0,0,1-15.965,25.286Z" transform="translate(-284.754 -226.187)" fill="#ffe177" fill-rule="evenodd"/>
          <path id="Trazado_1048711" data-name="Trazado 1048711" d="M358.611,253.959h1.294a28.018,28.018,0,0,1-15.965,25.286l-.848-1.469a28.023,28.023,0,0,0,15.519-23.816Z" transform="translate(-303.903 -226.187)" fill="#ffd064" fill-rule="evenodd"/>
          <path id="Trazado_1048712" data-name="Trazado 1048712" d="M283.129,34.56A28.05,28.05,0,0,1,306.6,55.136h-7.562a20.833,20.833,0,0,0-15.906-13.279Z" transform="translate(-251.53 -34.56)" fill="#6cf5c2" fill-rule="evenodd"/>
          <path id="Trazado_1048713" data-name="Trazado 1048713" d="M283.129,36.018V34.56A28.05,28.05,0,0,1,306.6,55.136h-1.634A28.064,28.064,0,0,0,283.129,36.018Z" transform="translate(-251.53 -34.56)" fill="#00e499" fill-rule="evenodd"/>
        </g>
        <g id="Grupo_1201821" data-name="Grupo 1201821" transform="translate(13.058 14.559)">
          <path id="Trazado_1048714" data-name="Trazado 1048714" d="M156.743,214.555h24.8v15.977a1.089,1.089,0,0,1-1.087,1.087H157.83a1.089,1.089,0,0,1-1.087-1.087Z" transform="translate(-154.2 -206.33)" fill="#eceff1" fill-rule="evenodd"/>
          <path id="Trazado_1048715" data-name="Trazado 1048715" d="M334.151,214.555H336.5v15.977a1.089,1.089,0,0,1-1.087,1.087h-1.257Z" transform="translate(-309.152 -206.33)" fill="#d1d1d6" fill-rule="evenodd"/>
          <path id="Trazado_1048716" data-name="Trazado 1048716" d="M204.206,278.338h5.6a.614.614,0,0,1,.613.613v8.377h-6.824v-8.377A.614.614,0,0,1,204.206,278.338Z" transform="translate(-195.12 -262.039)" fill="#d8ecfe" fill-rule="evenodd"/>
          <path id="Trazado_1048717" data-name="Trazado 1048717" d="M241.151,278.951v8.377h1.471v-8.377a.614.614,0,0,0-.613-.613h-1.471C240.2,278.338,241.151,278.613,241.151,278.951Z" transform="translate(-227.325 -262.039)" fill="#c4e2ff" fill-rule="evenodd"/>
          <path id="Trazado_1048718" data-name="Trazado 1048718" d="M136.655,157.8l4.117-7.9a.6.6,0,0,1,.543-.329H161.88a.6.6,0,0,1,.543.329l4.117,7.9a3.736,3.736,0,0,1-7.471,0,3.736,3.736,0,0,1-7.471,0,3.736,3.736,0,0,1-7.471,0,3.736,3.736,0,0,1-7.471,0Z" transform="translate(-136.655 -149.574)" fill="#ffe177" fill-rule="evenodd"/>
          <path id="Trazado_1048719" data-name="Trazado 1048719" d="M140.391,218.291a3.736,3.736,0,0,0,3.736-3.736h-7.471a3.732,3.732,0,0,0,3.736,3.736Zm11.207-3.736a3.736,3.736,0,0,0,7.471,0Z" transform="translate(-136.655 -206.33)" fill="#ffd064" fill-rule="evenodd"/>
          <path id="Trazado_1048720" data-name="Trazado 1048720" d="M218.094,157.8l-4.117-7.9a.6.6,0,0,0-.543-.329h-4.979l2.168,8.225a3.736,3.736,0,1,0,7.471,0Zm-18.679,3.736a3.736,3.736,0,0,0,3.736-3.736v-8.225h-5.3L195.68,157.8A3.736,3.736,0,0,0,199.416,161.535Z" transform="translate(-188.209 -149.574)" fill="#fe646f" fill-rule="evenodd"/>
          <path id="Trazado_1048721" data-name="Trazado 1048721" d="M210.623,214.555a3.736,3.736,0,1,0,7.471,0Zm-11.207,3.736a3.736,3.736,0,0,0,3.736-3.736H195.68A3.736,3.736,0,0,0,199.416,218.291Z" transform="translate(-188.209 -206.33)" fill="#fd4755" fill-rule="evenodd"/>
        </g>
      </g>
      <path id="Trazado_1048722" data-name="Trazado 1048722" d="M22.4,50.493a1.009,1.009,0,0,1,.115-.468l4.116-7.893a1.585,1.585,0,0,1,1.446-.88H48.638a1.586,1.586,0,0,1,1.44.88l4.116,7.893a1.011,1.011,0,0,1,.115.468,4.722,4.722,0,0,1-1.179,3.127A4.787,4.787,0,0,1,51.764,54.7V67.554a1.013,1.013,0,0,1-1.013,1.013H25.958a1.013,1.013,0,0,1-1.013-1.013V54.7a4.744,4.744,0,0,1-2.545-4.2Zm9.338-7.216h-3.42l-3.235,6.2h5.023Zm5.6,0h-3.51l-1.632,6.2h5.142Zm5.535,0h-3.51v6.2h5.142Zm8.749,6.2-3.235-6.2h-3.42l1.632,6.2ZM39.241,66.541h10.5V55.234q-.089,0-.179,0a4.745,4.745,0,0,1-3.736-1.815,4.749,4.749,0,0,1-7.468,0,4.751,4.751,0,0,1-7.47,0,4.744,4.744,0,0,1-3.736,1.815q-.09,0-.179,0V66.541h3.422V58.969a1.594,1.594,0,0,1,1.623-1.56h5.6a1.6,1.6,0,0,1,1.629,1.56Zm-6.823,0h4.8V59.435h-4.8Zm-7.8-15.035a2.727,2.727,0,0,0,5.058,0Zm27.467,0H47.031a2.727,2.727,0,0,0,5.058,0Zm-19.994,0a2.724,2.724,0,0,0,5.053,0Zm12.521,0H39.563a2.724,2.724,0,0,0,5.053,0ZM17.625,35.187l-3.6-4.506H8.013a1.013,1.013,0,1,1,0-2.025h6.494a1.012,1.012,0,0,1,.791.38l3.8,4.749A28.91,28.91,0,0,1,34.628,26.7a1.013,1.013,0,0,1,1.142,1V35a1.013,1.013,0,0,1-.838,1,19.774,19.774,0,0,0,3.424,39.25q.471,0,.936-.022a1.013,1.013,0,0,1,.924.505l3.931,6.808a1.013,1.013,0,0,1-.7,1.5A29.011,29.011,0,0,1,17.625,35.187ZM18.9,36.781A26.983,26.983,0,0,0,38.355,82.467a27.207,27.207,0,0,0,3.294-.2l-2.884-5q-.2,0-.41,0a21.8,21.8,0,0,1-4.61-43.106V28.883a26.9,26.9,0,0,0-13.381,6.486l1.553,1.942a1.013,1.013,0,1,1-1.582,1.265ZM59.755,75.062a29.13,29.13,0,0,1-8.928,6.616,1.013,1.013,0,0,1-1.313-.407l-3.624-6.276a1.013,1.013,0,0,1,.466-1.432,19.788,19.788,0,0,0,11.77-18.084,1.013,1.013,0,0,1,1.013-1.013h7.216a1.013,1.013,0,0,1,1.013,1.013,28.882,28.882,0,0,1-6.181,17.9l2.325,4.795h5.259a1.013,1.013,0,0,1,0,2.025H62.878a1.013,1.013,0,0,1-.911-.571Zm.44-3.734a26.848,26.848,0,0,0,5.129-14.837h-5.2A21.813,21.813,0,0,1,48.193,74.932l2.6,4.5A27.127,27.127,0,0,0,58.8,73.09l-1.165-2.4a1.013,1.013,0,1,1,1.822-.884ZM55.553,32.115A29.07,29.07,0,0,1,66.4,48.023a1.013,1.013,0,0,1-.979,1.273H57.859a1.013,1.013,0,0,1-.95-.662A19.818,19.818,0,0,0,41.778,36a1.013,1.013,0,0,1-.838-1v-7.3a1.013,1.013,0,0,1,1.142-1,28.834,28.834,0,0,1,11.8,4.268l2.8-3.858a1.012,1.012,0,0,1,.819-.418h7.6a1.013,1.013,0,1,1,0,2.025H58.018Zm-2.863.5a26.821,26.821,0,0,0-9.724-3.729V34.17a21.857,21.857,0,0,1,15.586,13.1h5.519a27.065,27.065,0,0,0-9.707-13.516L52.808,35.9a1.013,1.013,0,0,1-1.639-1.19ZM65.1,29.864a1.013,1.013,0,0,1,0,2.025h-5.89a1.013,1.013,0,0,1,0-2.025Zm0,3.092a1.013,1.013,0,0,1,0,2.025h-4.45a1.013,1.013,0,0,1,0-2.025Zm3.669,42.208a1.013,1.013,0,0,1,0,2.025H64.588a1.013,1.013,0,0,1,0-2.025Zm0-3.092a1.013,1.013,0,0,1,0,2.025H64.588a1.013,1.013,0,0,1,0-2.025ZM8.013,33.925a1.013,1.013,0,1,1,0-2.025H13.3a1.013,1.013,0,1,1,0,2.025Zm0,3.321a1.013,1.013,0,1,1,0-2.025H13.3a1.013,1.013,0,1,1,0,2.025Z" fill-rule="evenodd"/>
    </g>
  </g>
</svg>
