<svg xmlns="http://www.w3.org/2000/svg" xmlns:xlink="http://www.w3.org/1999/xlink" width="110" height="110" viewBox="0 0 110 110">
  <defs>
    <filter id="Trazado_982547" x="0" y="0" width="110" height="110" filterUnits="userSpaceOnUse">
      <feOffset dy="3" input="SourceAlpha"/>
      <feGaussianBlur stdDeviation="3" result="blur"/>
      <feFlood flood-opacity="0.161"/>
      <feComposite operator="in" in2="blur"/>
      <feComposite in="SourceGraphic"/>
    </filter>
  </defs>
  <g id="Grupo_1201873" data-name="Grupo 1201873" transform="translate(-959 -1859.313)">
    <g id="Grupo_1201343" data-name="Grupo 1201343" transform="translate(161 432)">
      <g id="Grupo_1179215" data-name="Grupo 1179215" transform="translate(1 -2794.687)">
        <g id="Grupo_1171898" data-name="Grupo 1171898" transform="translate(806 4228)">
          <g id="Grupo_1164700" data-name="Grupo 1164700" transform="translate(0 0)">
            <g id="Grupo_1160931" data-name="Grupo 1160931" transform="translate(0 0)">
              <g id="Grupo_1160749" data-name="Grupo 1160749" transform="translate(0 0)">
                <g id="Grupo_1158891" data-name="Grupo 1158891" transform="translate(0 0)">
                  <g id="Grupo_1157406" data-name="Grupo 1157406" transform="translate(0 0)">
                    <g id="Grupo_1155793" data-name="Grupo 1155793">
                      <g id="Grupo_1154704" data-name="Grupo 1154704">
                        <g id="Grupo_1150790" data-name="Grupo 1150790">
                          <g id="Grupo_1154214" data-name="Grupo 1154214">
                            <g id="Grupo_1152583" data-name="Grupo 1152583">
                              <g id="Grupo_1146973" data-name="Grupo 1146973">
                                <g id="Grupo_1146954" data-name="Grupo 1146954">
                                  <g transform="matrix(1, 0, 0, 1, -9, -6)" filter="url(#Trazado_982547)">
                                    <g id="Trazado_982547-2" data-name="Trazado 982547" transform="translate(9 6)" fill="#f2f7f5">
                                      <path d="M 46.00000762939453 90.49987030029297 C 39.99188613891602 90.49987030029297 34.16427612304688 89.32350921630859 28.67906188964844 87.00345611572266 C 23.38020706176758 84.76224517822266 18.62104797363281 81.55341339111328 14.53375434875488 77.46613311767578 C 10.44647407531738 73.37885284423828 7.237647533416748 68.61969757080078 4.996420860290527 63.32085418701172 C 2.676367521286011 57.83565521240234 1.500007629394531 52.008056640625 1.500007629394531 45.99993515014648 C 1.500007629394531 39.99181365966797 2.676367521286011 34.16421508789062 4.996420860290527 28.67901420593262 C 7.237647533416748 23.38017463684082 10.44647407531738 18.62101554870605 14.53375434875488 14.53373527526855 C 18.62104797363281 10.44645500183105 23.38020706176758 7.23762845993042 28.67906188964844 4.996415138244629 C 34.16427612304688 2.676361799240112 39.99188613891602 1.500001788139343 46.00000762939453 1.500001788139343 C 52.00812911987305 1.500001788139343 57.83573913574219 2.676361799240112 63.32095336914062 4.996415138244629 C 68.61980438232422 7.23762845993042 73.37896728515625 10.44645500183105 77.46626281738281 14.53373527526855 C 81.55354309082031 18.62101554870605 84.76236724853516 23.38017463684082 87.00359344482422 28.67901420593262 C 89.32364654541016 34.16421508789062 90.50000762939453 39.99181365966797 90.50000762939453 45.99993515014648 C 90.50000762939453 52.008056640625 89.32364654541016 57.83565521240234 87.00359344482422 63.32085418701172 C 84.76236724853516 68.61969757080078 81.55354309082031 73.37885284423828 77.46626281738281 77.46613311767578 C 73.37896728515625 81.55341339111328 68.61980438232422 84.76224517822266 63.32095336914062 87.00345611572266 C 57.83573913574219 89.32350921630859 52.00812911987305 90.49987030029297 46.00000762939453 90.49987030029297 Z" stroke="none"/>
                                      <path d="M 46.00000762939453 2.999992370605469 C 40.19372177124023 2.999992370605469 34.56270599365234 4.136489868164062 29.26339340209961 6.377906799316406 C 24.14333343505859 8.543502807617188 19.54443359375 11.64437866210938 15.59442138671875 15.59437561035156 C 11.6444091796875 19.54439544677734 8.543533325195312 24.14329528808594 6.377937316894531 29.26333618164062 C 4.136505126953125 34.56264877319336 3.000007629394531 40.19366455078125 3.000007629394531 45.99993515014648 C 3.000007629394531 51.80620574951172 4.136505126953125 57.43720626831055 6.377937316894531 62.73651885986328 C 8.543533325195312 67.8565673828125 11.6444091796875 72.45545959472656 15.59442138671875 76.40547943115234 C 19.54443359375 80.35547637939453 24.14333343505859 83.45635223388672 29.26339340209961 85.6219482421875 C 34.56270599365234 87.86336517333984 40.19372177124023 88.99986267089844 46.00000762939453 88.99986267089844 C 51.80629348754883 88.99986267089844 57.43730926513672 87.86336517333984 62.73663711547852 85.6219482421875 C 67.85668182373047 83.45635223388672 72.45559692382812 80.35547637939453 76.40560913085938 76.40547943115234 C 80.35560607910156 72.45545959472656 83.45649719238281 67.8565673828125 85.62209320068359 62.73651885986328 C 87.86351013183594 57.43720626831055 89.00000762939453 51.80620574951172 89.00000762939453 45.99993515014648 C 89.00000762939453 40.19366455078125 87.86351013183594 34.56264877319336 85.62209320068359 29.26333618164062 C 83.45649719238281 24.14329528808594 80.35560607910156 19.54439544677734 76.40560913085938 15.59437561035156 C 72.45559692382812 11.64437866210938 67.85668182373047 8.543502807617188 62.73663711547852 6.377906799316406 C 57.43730926513672 4.136489868164062 51.80629348754883 2.999992370605469 46.00000762939453 2.999992370605469 M 46.00000762939453 -7.62939453125e-06 C 71.40510559082031 -7.62939453125e-06 92.00000762939453 20.59486389160156 92.00000762939453 45.99993515014648 C 92.00000762939453 71.40499114990234 71.40510559082031 91.99986267089844 46.00000762939453 91.99986267089844 C 20.59492492675781 91.99986267089844 7.62939453125e-06 71.40499114990234 7.62939453125e-06 45.99993515014648 C 7.62939453125e-06 20.59486389160156 20.59492492675781 -7.62939453125e-06 46.00000762939453 -7.62939453125e-06 Z" stroke="none" fill="#4a665c"/>
                                    </g>
                                  </g>
                                </g>
                              </g>
                            </g>
                          </g>
                        </g>
                      </g>
                    </g>
                  </g>
                </g>
              </g>
            </g>
          </g>
        </g>
      </g>
    </g>
    <g id="busqueda-de-talentos_1_" data-name="busqueda-de-talentos (1)" transform="translate(984.831 1882.736)">
      <g id="Grupo_1201842" data-name="Grupo 1201842" transform="translate(10.077 0.837)">
        <path id="Trazado_1048752" data-name="Trazado 1048752" d="M107.953,10.645a19.245,19.245,0,0,1,18.5,13.942V7.5h-37V24.587A19.251,19.251,0,0,1,107.953,10.645Z" transform="translate(-89.452 -7.5)" fill="#eff6ff" fill-rule="evenodd"/>
      </g>
      <g id="Grupo_1201843" data-name="Grupo 1201843" transform="translate(10.077 28.521)">
        <path id="Trazado_1048753" data-name="Trazado 1048753" d="M119.994,265.21A19.247,19.247,0,0,1,89.453,255.5V266.46a.878.878,0,0,1,.639.326l1.215,1.456,1.933,2.319,2.914,1.022,1.826.642a.856.856,0,0,1,.459,1.31L97.382,275.1l-1.718,2.5-.114,2.978-.041,1.4h30.943V255.5A19.264,19.264,0,0,1,119.994,265.21Z" transform="translate(-89.453 -255.502)" fill="#eff6ff" fill-rule="evenodd"/>
      </g>
      <g id="Grupo_1201844" data-name="Grupo 1201844" transform="translate(29.062 0.837)">
        <path id="Trazado_1048754" data-name="Trazado 1048754" d="M262.184,10.9A19.257,19.257,0,0,1,277.54,24.587V7.5H259.526A24.881,24.881,0,0,1,262.184,10.9Z" transform="translate(-259.526 -7.5)" fill="#d9eeff" fill-rule="evenodd"/>
      </g>
      <g id="Grupo_1201845" data-name="Grupo 1201845" transform="translate(30.806 28.521)">
        <path id="Trazado_1048755" data-name="Trazado 1048755" d="M284.884,265.268a19.278,19.278,0,0,1-3.569,2.25,42.477,42.477,0,0,1-3.569,10.243,30.01,30.01,0,0,1-2.6,4.224h16.27V255.5a19.263,19.263,0,0,1-6.458,9.708Z" transform="translate(-275.145 -255.503)" fill="#d9eeff" fill-rule="evenodd"/>
      </g>
      <g id="Grupo_1201846" data-name="Grupo 1201846" transform="translate(12.071 6.682)">
        <path id="Trazado_1048756" data-name="Trazado 1048756" d="M140.324,76.361a16.508,16.508,0,1,0-28.038,11.812C112.261,95.878,140.324,98.3,140.324,76.361Z" transform="translate(-107.309 -59.856)" fill="#9fd4fe" fill-rule="evenodd"/>
      </g>
      <g id="Grupo_1201847" data-name="Grupo 1201847" transform="translate(18.042 27.927)">
        <path id="Trazado_1048757" data-name="Trazado 1048757" d="M165.943,250.174a6.524,6.524,0,0,0-5.145,6.088,15.027,15.027,0,0,0,8.436,4.145v-6.044l-1.37.927Z" transform="translate(-160.798 -250.174)" fill="#ffd772" fill-rule="evenodd"/>
      </g>
      <g id="Grupo_1201848" data-name="Grupo 1201848" transform="translate(23.187 27.787)">
        <path id="Trazado_1048758" data-name="Trazado 1048758" d="M206.888,249.066l1.921,5.117,1.37-.927,2.1-1.421-3.114-2.908h-.933A6.485,6.485,0,0,0,206.888,249.066Z" transform="translate(-206.888 -248.927)" fill="#eff6ff" fill-rule="evenodd"/>
      </g>
      <g id="Grupo_1201849" data-name="Grupo 1201849" transform="translate(26.477 30.695)">
        <path id="Trazado_1048759" data-name="Trazado 1048759" d="M236.368,276.4v6.044a15.239,15.239,0,0,0,4.2,0V276.4l-2.1-1.421Z" transform="translate(-236.368 -274.977)" fill="#eb5468" fill-rule="evenodd"/>
      </g>
      <g id="Grupo_1201850" data-name="Grupo 1201850" transform="translate(28.578 27.787)">
        <path id="Trazado_1048760" data-name="Trazado 1048760" d="M255.189,251.835l2.1,1.421,1.367.927,1.924-5.117a6.483,6.483,0,0,0-1.345-.139H258.3Z" transform="translate(-255.189 -248.927)" fill="#eff6ff" fill-rule="evenodd"/>
      </g>
      <g id="Grupo_1201851" data-name="Grupo 1201851" transform="translate(30.679 27.927)">
        <path id="Trazado_1048761" data-name="Trazado 1048761" d="M277.3,250.174l-1.924,5.117-1.367-.927v6.044a15.037,15.037,0,0,0,8.436-4.145A6.528,6.528,0,0,0,277.3,250.174Z" transform="translate(-274.011 -250.174)" fill="#ffd772" fill-rule="evenodd"/>
      </g>
      <g id="Grupo_1201852" data-name="Grupo 1201852" transform="translate(25.465 24.908)">
        <path id="Trazado_1048762" data-name="Trazado 1048762" d="M227.3,223.132v2.879l3.114,2.908,3.114-2.908v-2.879A4.52,4.52,0,0,1,227.3,223.132Z" transform="translate(-227.297 -223.132)" fill="#fed1a3" fill-rule="evenodd"/>
      </g>
      <g id="Grupo_1201853" data-name="Grupo 1201853" transform="translate(22.747 15.105)">
        <path id="Trazado_1048763" data-name="Trazado 1048763" d="M205.666,145.117a4.519,4.519,0,0,0,6.227,0c1.573-1.389,2.718-3.952,2.718-7.68,0-.165-.006-.329-.022-.49-3.677,1.639-8.363.614-11.239-1.633a5.773,5.773,0,0,0-.4,2.123C202.948,141.165,204.093,143.728,205.666,145.117Z" transform="translate(-202.948 -135.314)" fill="#ffe5c1" fill-rule="evenodd"/>
      </g>
      <g id="Grupo_1201854" data-name="Grupo 1201854" transform="translate(23.149 11.396)">
        <path id="Trazado_1048764" data-name="Trazado 1048764" d="M206.548,105.8c2.876,2.247,7.562,3.272,11.239,1.633a5.83,5.83,0,0,0-11.239-1.633Z" transform="translate(-206.548 -102.092)" fill="#375e7d" fill-rule="evenodd"/>
      </g>
      <g id="Grupo_1201855" data-name="Grupo 1201855" transform="translate(9.34 3.982)">
        <path id="Trazado_1048765" data-name="Trazado 1048765" d="M102.085,39.831a15.085,15.085,0,0,1,2.1,30.023,15.236,15.236,0,0,1-4.2,0,15.085,15.085,0,0,1,2.1-30.023Zm0-4.155a19.258,19.258,0,0,0-18.5,24.536v0a19.245,19.245,0,0,0,37,0v0a19.239,19.239,0,0,0-18.5-24.536Z" transform="translate(-82.847 -35.676)" fill="#375e7d" fill-rule="evenodd"/>
      </g>
      <g id="Grupo_1201856" data-name="Grupo 1201856" transform="translate(0.942 39.479)">
        <path id="Trazado_1048766" data-name="Trazado 1048766" d="M8.947,362.487l1.588,2.323.117,2.978.054,1.861a.9.9,0,0,0,1.152.832l1.886-.462,3-.737,3.006.737,1.886.462a.9.9,0,0,0,1.152-.832l.013-.456.041-1.4.114-2.978,1.718-2.5,1.057-1.563a.856.856,0,0,0-.459-1.31l-1.826-.642-2.914-1.022L18.6,355.449l-1.215-1.456a.787.787,0,0,0-1.275,0L14.9,355.449l-1.937,2.319-2.911,1.022-1.829.642a.856.856,0,0,0-.456,1.31Z" transform="translate(-7.611 -353.668)" fill="#ffd772" fill-rule="evenodd"/>
      </g>
      <g id="Grupo_1201857" data-name="Grupo 1201857" transform="translate(43.057 41.064)">
        <path id="Trazado_1048767" data-name="Trazado 1048767" d="M386,368.828a3.553,3.553,0,0,0-.146,5.009l1.93,2.047,3.778-1.161,1.376-3.7-1.93-2.047a3.3,3.3,0,0,0-.557-.478A3.553,3.553,0,0,0,386,368.828Z" transform="translate(-384.896 -367.865)" fill="#f5a96c" fill-rule="evenodd"/>
      </g>
      <g id="Grupo_1201858" data-name="Grupo 1201858" transform="translate(48.348 46.764)">
        <path id="Trazado_1048768" data-name="Trazado 1048768" d="M437.447,418.921l-3.775,1.158-1.38,3.7.269.288,1.661,1.763a3.543,3.543,0,1,0,5.154-4.863Z" transform="translate(-432.293 -418.921)" fill="#f5a96c" fill-rule="evenodd"/>
      </g>
      <g id="Grupo_1201859" data-name="Grupo 1201859" transform="translate(0.942 39.479)">
        <path id="Trazado_1048769" data-name="Trazado 1048769" d="M7.764,360.743l1.183,1.743,1.588,2.323.117,2.978.054,1.861a.9.9,0,0,0,1.152.832l1.886-.462,3-.737,3.006.737,1.886.462a.9.9,0,0,0,1.152-.832l.013-.456.041-1.4.114-2.978,1.718-2.5,1.057-1.563a.856.856,0,0,0-.459-1.31l-1.826-.642-2.914-1.022L18.6,355.449l-1.215-1.456a.787.787,0,0,0-1.275,0L14.9,355.449l-1.937,2.319-2.911,1.022-1.829.642a.856.856,0,0,0-.456,1.31Z" transform="translate(-7.612 -353.668)" fill="#ffd772" fill-rule="evenodd"/>
      </g>
      <g id="Grupo_1201860" data-name="Grupo 1201860" transform="translate(9.479 39.479)">
        <path id="Trazado_1048770" data-name="Trazado 1048770" d="M85.331,353.993a.878.878,0,0,0-.639-.326.619.619,0,0,0-.108.009c.038.142.073.285.108.43a28.313,28.313,0,0,1,.753,6.655,26.288,26.288,0,0,1-1.351,8.667l.6-.149,3.006.737,1.886.462a.9.9,0,0,0,1.152-.832l.013-.456.041-1.4.114-2.978,1.718-2.5,1.057-1.563a.856.856,0,0,0-.459-1.31l-1.826-.642-2.914-1.022-1.933-2.319Z" transform="translate(-84.094 -353.667)" fill="#fbba58" fill-rule="evenodd"/>
      </g>
      <g id="Grupo_1201861" data-name="Grupo 1201861" transform="translate(43.355 41.064)">
        <path id="Trazado_1048771" data-name="Trazado 1048771" d="M393.306,372.913l2.006-1.892-1.93-2.047a3.3,3.3,0,0,0-.557-.478,3.553,3.553,0,0,0-4.452.332,3.488,3.488,0,0,0-.81,1.149,3.567,3.567,0,0,1,3.256.408,3.47,3.47,0,0,1,.557.481Z" transform="translate(-387.563 -367.866)" fill="#ea9a58" fill-rule="evenodd"/>
      </g>
      <g id="Grupo_1201862" data-name="Grupo 1201862" transform="translate(51.496 46.764)">
        <path id="Trazado_1048772" data-name="Trazado 1048772" d="M462.5,418.921,460.5,420.81l1.933,2.05a3.554,3.554,0,0,1,.661,3.857,3.464,3.464,0,0,0,1.2-.74,3.553,3.553,0,0,0,.146-5.009Z" transform="translate(-460.497 -418.921)" fill="#ea9a58" fill-rule="evenodd"/>
      </g>
      <g id="Grupo_1201863" data-name="Grupo 1201863" transform="translate(27.566 11.396)">
        <path id="Trazado_1048773" data-name="Trazado 1048773" d="M246.119,102.181a5.851,5.851,0,0,1,3.411,5.3c0,.253,0,.5-.013.74a9.522,9.522,0,0,0,3.424-.791,5.85,5.85,0,0,0-5.81-5.341A5.939,5.939,0,0,0,246.119,102.181Z" transform="translate(-246.119 -102.092)" fill="#2b4d66" fill-rule="evenodd"/>
      </g>
      <g id="Grupo_1201864" data-name="Grupo 1201864" transform="translate(26.344 16.738)">
        <path id="Trazado_1048774" data-name="Trazado 1048774" d="M243.22,149.941a9.524,9.524,0,0,1-3.424.791c-.2,4.67-2.275,7.341-4.62,8.012a4.485,4.485,0,0,0,5.347-.633c1.573-1.389,2.718-3.952,2.718-7.68C243.242,150.267,243.236,150.1,243.22,149.941Z" transform="translate(-235.177 -149.941)" fill="#fed1a3" fill-rule="evenodd"/>
      </g>
      <g id="Grupo_1201865" data-name="Grupo 1201865" transform="translate(25.465 24.908)">
        <path id="Trazado_1048775" data-name="Trazado 1048775" d="M227.3,224.571a4.557,4.557,0,0,0,4.015,1.145c.652-.139.57.028.57.7v1.126l1.642-1.532v-2.879a4.485,4.485,0,0,1-5.347.633,5.261,5.261,0,0,1-.88-.633Z" transform="translate(-227.297 -223.131)" fill="#ffbc85" fill-rule="evenodd"/>
      </g>
      <g id="Grupo_1201866" data-name="Grupo 1201866" transform="translate(33.176 27.927)">
        <path id="Trazado_1048776" data-name="Trazado 1048776" d="M296.376,252.291a6.528,6.528,0,0,1,4.237,5.4,14.987,14.987,0,0,0,1.7-1.433,6.528,6.528,0,0,0-5.145-6.088Z" transform="translate(-296.376 -250.174)" fill="#fbba58" fill-rule="evenodd"/>
      </g>
      <g id="Grupo_1201867" data-name="Grupo 1201867" transform="translate(29.952 27.787)">
        <path id="Trazado_1048777" data-name="Trazado 1048777" d="M269.276,250.693a6.439,6.439,0,0,1,1.44.49l.794-2.117a6.481,6.481,0,0,0-1.345-.139h-.933l-1.642,1.532-.1.092h.44A6.483,6.483,0,0,1,269.276,250.693Z" transform="translate(-267.491 -248.927)" fill="#d9eeff" fill-rule="evenodd"/>
      </g>
      <g id="Grupo_1201868" data-name="Grupo 1201868" transform="translate(45.95 44.219)">
        <path id="Trazado_1048778" data-name="Trazado 1048778" d="M415.961,396.13l-5.154,4.864,2.4,2.541,5.154-4.86Z" transform="translate(-410.807 -396.13)" fill="#eb5468" fill-rule="evenodd"/>
      </g>
      <g id="Grupo_1201869" data-name="Grupo 1201869" transform="translate(49.098 44.219)">
        <path id="Trazado_1048779" data-name="Trazado 1048779" d="M441.017,396.13l-2.006,1.892,2.4,2.541,2.006-1.889Z" transform="translate(-439.011 -396.13)" fill="#e5384f" fill-rule="evenodd"/>
      </g>
      <g id="Grupo_1201870" data-name="Grupo 1201870" transform="translate(27.889 8.137)">
        <path id="Trazado_1048780" data-name="Trazado 1048780" d="M260.217,87.492a15.054,15.054,0,0,1-1.763,7.085,6.484,6.484,0,0,1,1.782,4.2A15.084,15.084,0,0,0,249.7,72.9c-.231,0-.462.006-.69.016A15.092,15.092,0,0,1,260.217,87.492Z" transform="translate(-249.01 -72.895)" fill="#85beef" fill-rule="evenodd"/>
      </g>
      <g id="Grupo_1201871" data-name="Grupo 1201871" transform="translate(24.05 3.982)">
        <path id="Trazado_1048781" data-name="Trazado 1048781" d="M234.239,54.915a15.042,15.042,0,0,1-4.547,10.793c-.259.253-.525.5-.8.728a19.2,19.2,0,0,1-14.264,7.183,19.25,19.25,0,0,0,23.026-13.4v0a19.239,19.239,0,0,0-18.5-24.536c-.247,0-.494.006-.74.016a19.278,19.278,0,0,1,12.559,9.85A15.018,15.018,0,0,1,234.239,54.915Z" transform="translate(-214.627 -35.676)" fill="#2b4d66" fill-rule="evenodd"/>
      </g>
      <g id="Grupo_1201872" data-name="Grupo 1201872" transform="translate(0.103 0)">
        <path id="Trazado_1048782" data-name="Trazado 1048782" d="M228.238,415.589a.837.837,0,1,0,0-1.674H222.9a.837.837,0,0,0,0,1.674Z" transform="translate(-197.289 -367.71)"/>
        <path id="Trazado_1048783" data-name="Trazado 1048783" d="M195.448,448.229a.837.837,0,0,0,.837.837h11.663a.837.837,0,1,0,0-1.674H196.285A.837.837,0,0,0,195.448,448.229Z" transform="translate(-173.642 -397.45)"/>
        <path id="Trazado_1048784" data-name="Trazado 1048784" d="M56.042,48.236,49.783,41.6a4.354,4.354,0,0,0-1.869-1.17v-11.8a20.112,20.112,0,0,0,0-10.815V.837A.837.837,0,0,0,47.076,0H20.026a.837.837,0,0,0,0,1.674H46.239V13.682a20.069,20.069,0,0,0-35.324.006V1.674h5.172a.837.837,0,0,0,0-1.674H10.077A.837.837,0,0,0,9.24.837V17.826a20.111,20.111,0,0,0,0,10.79V38.89a1.954,1.954,0,0,0-.422.356l-.02.023-3,3.6L1.272,44.455l-.039.015A1.765,1.765,0,0,0,.184,45.548a1.712,1.712,0,0,0,.2,1.447l.02.03,1.183,1.744,0,0,1.452,2.124.107,2.728L3.2,55.483c0,.014,0,.029,0,.043a1.718,1.718,0,0,0,1.743,1.628,2.052,2.052,0,0,0,.411-.042l.032-.007,4.69-1.15L14.77,57.1l.031.007a1.808,1.808,0,0,0,1.468-.3,1.709,1.709,0,0,0,.633-.969H36.52a.837.837,0,0,0,0-1.674H17l.015-.536.1-2.736L18.7,48.586l1.057-1.563.019-.029a1.71,1.71,0,0,0,.2-1.447,1.767,1.767,0,0,0-1.053-1.078l-.037-.014L14.36,42.866l-3-3.6-.022-.025a1.964,1.964,0,0,0-.423-.355V32.754A20.055,20.055,0,0,0,40.456,39.4l2.584,2.65a4.4,4.4,0,0,0,.37,5.564l1.93,2.047h0l.012.013.886.939v3.556H40.46a.837.837,0,1,0,0,1.674h6.616A.837.837,0,0,0,47.913,55V52.386l1.756,1.863a4.381,4.381,0,0,0,6.372-6.013Zm-42.82-4.12a.836.836,0,0,0,.366.254L18.3,46.026a.063.063,0,0,1,.038.1l-1.025,1.517-1.718,2.5a.837.837,0,0,0-.146.442l-.114,2.985-.053,1.83a.091.091,0,0,1-.136.069l-4.872-1.194a.839.839,0,0,0-.4,0L5.009,55.473a.111.111,0,0,1-.136-.066L4.82,53.565,4.7,50.588a.837.837,0,0,0-.146-.44L2.969,47.827,1.8,46.1c-.009-.016-.018-.058.052-.078L6.567,44.37a.835.835,0,0,0,.365-.253l3.14-3.761a.015.015,0,0,1,.015,0Zm15.356-2.493a18.4,18.4,0,1,1,18.4-18.4,18.422,18.422,0,0,1-18.4,18.4Zm13.19-3.28a20.21,20.21,0,0,0,4.47-5.582v7.48a4.359,4.359,0,0,0-1.979.658ZM45.984,47.9l-1.356-1.438a2.716,2.716,0,0,1,.111-3.825h0a2.709,2.709,0,0,1,3.825.111l1.356,1.438Zm1.149,1.218L51.07,45.4l1.25,1.326-3.937,3.712Zm7.58,4.093a2.712,2.712,0,0,1-3.826-.11L49.53,51.66l3.938-3.713,1.356,1.438A2.709,2.709,0,0,1,54.713,53.21Z" transform="translate(-0.103 0)"/>
        <path id="Trazado_1048785" data-name="Trazado 1048785" d="M128.487,65.4a15.921,15.921,0,1,0,15.921,15.921A15.939,15.939,0,0,0,128.487,65.4Zm-2.938,29.863a14.224,14.224,0,0,1-6.732-3.49,5.73,5.73,0,0,1,3.767-4.726l1.648,4.391a.837.837,0,0,0,1.253.4l.064-.043v3.469Zm-.122-5.408-1.173-3.125c.062,0,.79,0,.79,0l2.1,1.966Zm2.812-13.55a12.694,12.694,0,0,0,2.092.177,10.928,10.928,0,0,0,3.135-.446c-.211,5.062-2.678,7.379-4.978,7.379-2.406,0-4.994-2.531-4.994-8.086a5.014,5.014,0,0,1,.058-.764A13.139,13.139,0,0,0,128.239,76.3Zm-4.132-3.374a4.993,4.993,0,0,1,9.268,1.373A10.92,10.92,0,0,1,124.107,72.926Zm6.656,11.633v.96l-2.276,2.126-2.276-2.126v-.96a5.193,5.193,0,0,0,4.553,0Zm-1.012,10.948c-.417.037-.838.057-1.264.057s-.847-.02-1.264-.057v-4.85l1.264-.855,1.264.856v4.849Zm2.18-8.787s.727,0,.789,0l-1.175,3.125-1.719-1.164Zm-.505,8.538V91.792l.06.041a.837.837,0,0,0,1.253-.4l1.651-4.391a5.737,5.737,0,0,1,3.768,4.726,14.224,14.224,0,0,1-6.732,3.49Zm8.131-4.984a7.361,7.361,0,0,0-7.023-5.229h-.1V83.374c1.578-1.556,2.718-4.2,2.718-8.05a6.669,6.669,0,1,0-13.338,0c0,3.85,1.14,6.494,2.718,8.05v1.673h-.1a7.36,7.36,0,0,0-7.023,5.228,14.247,14.247,0,1,1,22.14,0Z" transform="translate(-100.012 -58.096)"/>
      </g>
    </g>
  </g>
</svg>
