<svg xmlns="http://www.w3.org/2000/svg" width="75.934" height="75.934" viewBox="0 0 75.934 75.934">
  <g id="Grupo_1202063" data-name="Grupo 1202063" transform="translate(-618.033 -2577.316)">
    <g id="Grupo_1201436" data-name="Grupo 1201436" transform="translate(0 -7005.971)">
      <g id="Grupo_1183002" data-name="Grupo 1183002" transform="translate(0 8919.287)">
        <g id="Grupo_1182334" data-name="Grupo 1182334" transform="translate(420 -1122)">
          <g id="Grupo_1176309" data-name="Grupo 1176309" transform="translate(0 -206)">
            <g id="Grupo_1172970" data-name="Grupo 1172970" transform="translate(-1 -9042)">
              <g id="Grupo_1171971" data-name="Grupo 1171971" transform="translate(199.033 11034)">
                <g id="Grupo_1167337" data-name="Grupo 1167337">
                  <g id="Grupo_1166720" data-name="Grupo 1166720">
                    <g id="Grupo_1164305" data-name="Grupo 1164305">
                      <g id="Grupo_1163948" data-name="Grupo 1163948">
                        <g id="Grupo_1158168" data-name="Grupo 1158168">
                          <g id="Grupo_1152576" data-name="Grupo 1152576">
                            <g id="Grupo_1148633" data-name="Grupo 1148633">
                              <g id="Grupo_1148525" data-name="Grupo 1148525">
                                <g id="Trazado_982547" data-name="Trazado 982547">
                                  <path id="Trazado_1045810" data-name="Trazado 1045810" d="M37.967,74.434A36.477,36.477,0,0,1,23.773,4.365a36.477,36.477,0,0,1,28.388,67.2A36.239,36.239,0,0,1,37.967,74.434Z" fill="#f2f7f5"/>
                                  <path id="Trazado_1045811" data-name="Trazado 1045811" d="M37.967,3a34.977,34.977,0,0,0-13.61,67.187A34.977,34.977,0,0,0,51.576,5.747,34.745,34.745,0,0,0,37.967,3m0-3A37.967,37.967,0,1,1,0,37.967,37.967,37.967,0,0,1,37.967,0Z" fill="#4a665c"/>
                                </g>
                              </g>
                            </g>
                          </g>
                        </g>
                      </g>
                    </g>
                  </g>
                </g>
              </g>
            </g>
          </g>
        </g>
      </g>
    </g>
    <g id="sostenibilidad" transform="translate(622.452 2581.73)">
      <g id="Grupo_1202062" data-name="Grupo 1202062" transform="translate(9.691 9.707)">
        <g id="Grupo_1202058" data-name="Grupo 1202058" transform="translate(18.257 6.893)">
          <circle id="Elipse_14293" data-name="Elipse 14293" cx="13.429" cy="13.429" r="13.429" transform="translate(0 1.128) rotate(-2.407)" fill="#a4d4ff"/>
          <g id="Grupo_1202057" data-name="Grupo 1202057" transform="translate(3.264 0.552)">
            <path id="Trazado_1048929" data-name="Trazado 1048929" d="M242.608,105.459c-1.534-1.352-.89-2.01.318-2.345a27,27,0,0,1,3.949-.431c.991-.211,1.277-.908.519-1.565-.89-.771-2.448-1.62-2.811-2.31-.5-.955-.137-1.24.51-1.44,1.37-.424,4.009-.467,2.378-5.688a13.448,13.448,0,0,0-14.963,4.655,7.813,7.813,0,0,1,1.587,3.057c.208,4.257,2.219,4.221,2.811,4.451,1.494.582,2.616,4.052,3.549,5.133.54.626,1.679,1.94,3.477.987C246.11,108.809,243.253,106.027,242.608,105.459Z" transform="translate(-232.507 -90.996)" fill="#89c053" fill-rule="evenodd"/>
            <path id="Trazado_1048930" data-name="Trazado 1048930" d="M416.473,204.383c-1.241,1.214.539,3.831-2.226,5.535-1.593.982.889,2.945,0,5.239a1.253,1.253,0,0,0,.34,1.441,13.453,13.453,0,0,0,5.069-12.866C417.909,203.665,416.942,203.923,416.473,204.383Z" transform="translate(-395.689 -192.517)" fill="#89c053" fill-rule="evenodd"/>
          </g>
        </g>
        <g id="Grupo_1202060" data-name="Grupo 1202060" transform="translate(0 27.387)">
          <g id="Grupo_1202059" data-name="Grupo 1202059" transform="translate(2.958)">
            <path id="Trazado_1048931" data-name="Trazado 1048931" d="M55.514,293.175c-3.236,1.585-6.5,3.108-9.757,4.65l4.6,11.011,6.759-3.292a4.066,4.066,0,0,1,3.02-.259l7.171,2.076c2.272.658,5.086-.551,7.2-1.368L87.952,300.8c3.542-1.368,4.4-8.476-3.97-6.021l-9.6,2.817a3.057,3.057,0,0,0-2.153-2.144l-6.5-1.737C61.3,290.576,59.045,291.445,55.514,293.175Z" transform="translate(-45.757 -291.617)" fill="#efc7a4" fill-rule="evenodd"/>
            <path id="Trazado_1048932" data-name="Trazado 1048932" d="M201.21,332.573l-14.535-3.883a3.06,3.06,0,0,0,2.16,3.735l8.64,2.308A3.06,3.06,0,0,0,201.21,332.573Z" transform="translate(-172.575 -325.005)" fill="#d5a889" fill-rule="evenodd"/>
          </g>
          <path id="Trazado_1048933" data-name="Trazado 1048933" d="M27.319,327.762l-3.447,1.431a1.474,1.474,0,0,1-1.922-.793l-5.836-14.015a1.464,1.464,0,0,1,.794-1.924l3.447-1.431a1.474,1.474,0,0,1,1.922.793l5.836,14.015A1.464,1.464,0,0,1,27.319,327.762Z" transform="translate(-15.998 -308.999)" fill="#e4e8eb" fill-rule="evenodd"/>
        </g>
        <g id="Grupo_1202061" data-name="Grupo 1202061" transform="translate(25.471 0)">
          <path id="Trazado_1048934" data-name="Trazado 1048934" d="M279.02,22.866c-1.114-.221-3.41-.6-4.741-1.744a6.667,6.667,0,0,1-2.027-4.495.5.5,0,0,1,.531-.528,6.951,6.951,0,0,1,4.493,2.025C278.4,19.388,278.68,21.35,279.02,22.866Z" transform="translate(-272.25 -16.098)" fill="#c6ea94" fill-rule="evenodd"/>
          <path id="Trazado_1048935" data-name="Trazado 1048935" d="M340.353,46.813c1.114-.221,3.41-.6,4.741-1.744a6.667,6.667,0,0,0,2.027-4.495.5.5,0,0,0-.531-.528,6.951,6.951,0,0,0-4.493,2.025C340.974,43.335,340.693,45.3,340.353,46.813Z" transform="translate(-333.584 -37.665)" fill="#c6ea94" fill-rule="evenodd"/>
        </g>
      </g>
      <path id="Trazado_1048936" data-name="Trazado 1048936" d="M54.59,45.646,41.137,50.831,40.7,51c-1.971.767-4.424,1.723-6.317,1.173l-7.169-2.081a4.777,4.777,0,0,0-3.518.3l-2.173,1.058-4.029-9.672c1.674-.791,3.444-1.634,5.224-2.5,3.429-1.677,5.409-2.416,9.507.488a.7.7,0,0,0,.223.106l6.5,1.741a2.354,2.354,0,0,1-1.219,4.548l-8.638-2.315a.7.7,0,1,0-.361,1.345L37.367,47.5a3.748,3.748,0,0,0,4.7-3.921l9-2.641c2.973-.872,5.038-.538,5.523.894a3.363,3.363,0,0,1-2,3.812ZM21.166,54.8a.772.772,0,0,0,0-.595L15.326,40.2a.774.774,0,0,0-.717-.477.782.782,0,0,0-.3.058l-3.446,1.432a.769.769,0,0,0-.418,1.014l5.836,14.014a.777.777,0,0,0,1.013.419l3.446-1.432A.776.776,0,0,0,21.166,54.8ZM29.2,30.586A12.679,12.679,0,0,0,31.24,37.5a16.921,16.921,0,0,1,1.686,1.051l6.379,1.709a3.721,3.721,0,0,1,2.272,1.747c.043.076.084.151.121.228l7.256-2.128a2.65,2.65,0,0,1,.164-.565,3.6,3.6,0,0,0-.241-2.54c-.327-.945-.774-2.24.525-3.04,1.334-.823,1.351-1.818,1.371-2.971a3.24,3.24,0,0,1,.733-2.47,3.984,3.984,0,0,1,2.81-.855,12.858,12.858,0,0,0-7.124-8.678,5.022,5.022,0,0,1-.23,3.479,3.625,3.625,0,0,1-2.546,1.609c-.151.039-.294.075-.417.113a1.586,1.586,0,0,0-.246.094,1.509,1.509,0,0,0,.146.358,6.451,6.451,0,0,0,1.444,1.2c.42.3.855.6,1.205.906a1.6,1.6,0,0,1,.63,1.6,1.753,1.753,0,0,1-1.459,1.173,7.31,7.31,0,0,1-.958.078,15.1,15.1,0,0,0-2.949.343,1.442,1.442,0,0,0-.707.33c.01.054.087.315.663.822.6.53,2.549,2.391,2.35,4.067A2.016,2.016,0,0,1,42.96,36.74a3.325,3.325,0,0,1-1.565.424,3.8,3.8,0,0,1-2.765-1.571,11.057,11.057,0,0,1-1.178-1.98c-.585-1.132-1.385-2.682-2.1-2.959-.033-.013-.116-.035-.188-.053-.855-.224-2.857-.748-3.065-5.012a7.747,7.747,0,0,0-.862-1.911A12.654,12.654,0,0,0,29.2,30.586ZM41.235,17.872v2.543a.7.7,0,0,0,.695.7h0a.7.7,0,0,0,.7-.7v-.981a14.252,14.252,0,0,0,3.029-.885c.418,1.513.451,2.6.093,3.246a2.416,2.416,0,0,1-1.677.938c-.168.043-.327.084-.482.132a1.649,1.649,0,0,0-1.139.87,1.859,1.859,0,0,0,.219,1.557,6.129,6.129,0,0,0,1.875,1.692c.392.276.8.563,1.1.821a.766.766,0,0,1,.177.2.919.919,0,0,1-.384.155c-.09.018-.448.035-.737.05a16.182,16.182,0,0,0-3.254.391c-.365.1-1.475.409-1.694,1.357-.232,1.006.771,1.891,1.1,2.181C41.828,33,42.823,34.3,42.74,35c-.016.139-.08.322-.431.509-1.21.641-1.96-.057-2.625-.827a10.7,10.7,0,0,1-1-1.709c-.762-1.476-1.625-3.149-2.828-3.618a3.049,3.049,0,0,0-.34-.1c-.653-.172-1.87-.49-2.029-3.734a8.28,8.28,0,0,0-1.378-3.035,12.719,12.719,0,0,1,9.121-4.613Zm-5.361-7.443A6.245,6.245,0,0,1,39.667,12.2,5.4,5.4,0,0,1,40.7,14.267l-1.67-1.67a.7.7,0,1,0-.984.984l1.666,1.666a5.982,5.982,0,0,1-2.07-1.038A5.881,5.881,0,0,1,35.874,10.429Zm8.32,4.153a6.242,6.242,0,0,1,3.792-1.772,5.882,5.882,0,0,1-1.769,3.78,6,6,0,0,1-2.069,1.037l1.666-1.666a.7.7,0,0,0-.984-.984l-1.67,1.67a5.381,5.381,0,0,1,1.034-2.065Zm6.817,24.929a12.686,12.686,0,0,0,3.558-10.453c-1.322,0-1.867.245-2.088.462-.279.272-.3.747-.314,1.5a4.274,4.274,0,0,1-2.034,4.131c-.283.175-.311.325.061,1.4a5.248,5.248,0,0,1,.351,3.093l.135-.04Zm6.9,1.876a3.326,3.326,0,0,0-2.361-2.119A6.563,6.563,0,0,0,53.2,39.1a14.131,14.131,0,0,0,0-17.03,14.265,14.265,0,0,0-5.928-4.559,7.493,7.493,0,0,0,2.134-5.444.694.694,0,0,0-.685-.685,7.74,7.74,0,0,0-5.568,2.274,4.975,4.975,0,0,0-.528.718v-3.66a.7.7,0,1,0-1.392,0V12a5,5,0,0,0-.528-.718A7.767,7.767,0,0,0,35.138,9a.7.7,0,0,0-.685.685,7.413,7.413,0,0,0,2.283,5.577,7.637,7.637,0,0,0,2.834,1.4,14.13,14.13,0,0,0-10.4,19.986c-2.533-.7-4.515.132-7.064,1.378-1.751.856-3.5,1.688-5.148,2.468l-.346-.831a2.171,2.171,0,0,0-2.831-1.168l-3.447,1.432a2.161,2.161,0,0,0-1.169,2.834L15,56.771a2.169,2.169,0,0,0,2.832,1.169l3.446-1.431a2.161,2.161,0,0,0,1.169-2.834l-.391-.939L24.3,51.643a3.385,3.385,0,0,1,2.521-.215l7.169,2.081a5.772,5.772,0,0,0,1.627.22A16.227,16.227,0,0,0,41.2,52.3l.435-.169,13.454-5.185A4.729,4.729,0,0,0,57.913,41.387Z" transform="translate(0)" fill-rule="evenodd"/>
    </g>
  </g>
</svg>
