<svg xmlns="http://www.w3.org/2000/svg" width="75.934" height="75.934" viewBox="0 0 75.934 75.934">
  <g id="Grupo_1202066" data-name="Grupo 1202066" transform="translate(-1038 -2577)">
    <g id="Grupo_1201437" data-name="Grupo 1201437" transform="translate(0 -7006.287)">
      <g id="Grupo_1183008" data-name="Grupo 1183008" transform="translate(0 8919.287)">
        <g id="Grupo_1182335" data-name="Grupo 1182335" transform="translate(839.967 -1122)">
          <g id="Grupo_1176309" data-name="Grupo 1176309" transform="translate(0 -206)">
            <g id="Grupo_1172970" data-name="Grupo 1172970" transform="translate(-1 -9042)">
              <g id="Grupo_1171971" data-name="Grupo 1171971" transform="translate(199.033 11034)">
                <g id="Grupo_1167337" data-name="Grupo 1167337">
                  <g id="Grupo_1166720" data-name="Grupo 1166720">
                    <g id="Grupo_1164305" data-name="Grupo 1164305">
                      <g id="Grupo_1163948" data-name="Grupo 1163948">
                        <g id="Grupo_1158168" data-name="Grupo 1158168">
                          <g id="Grupo_1152576" data-name="Grupo 1152576">
                            <g id="Grupo_1148633" data-name="Grupo 1148633">
                              <g id="Grupo_1148525" data-name="Grupo 1148525">
                                <g id="Trazado_982547" data-name="Trazado 982547">
                                  <path id="Trazado_1045812" data-name="Trazado 1045812" d="M37.967,74.434A36.477,36.477,0,0,1,23.773,4.365a36.477,36.477,0,0,1,28.388,67.2A36.239,36.239,0,0,1,37.967,74.434Z" fill="#f2f7f5"/>
                                  <path id="Trazado_1045813" data-name="Trazado 1045813" d="M37.967,3a34.977,34.977,0,0,0-13.61,67.187A34.977,34.977,0,0,0,51.576,5.747,34.745,34.745,0,0,0,37.967,3m0-3A37.967,37.967,0,1,1,0,37.967,37.967,37.967,0,0,1,37.967,0Z" fill="#4a665c"/>
                                </g>
                              </g>
                            </g>
                          </g>
                        </g>
                      </g>
                    </g>
                  </g>
                </g>
              </g>
            </g>
          </g>
        </g>
      </g>
    </g>
    <g id="publicidad-digital" transform="translate(1047.53 2587.702)">
      <g id="Grupo_1202064" data-name="Grupo 1202064" transform="translate(6.148 5.976)">
        <path id="Trazado_1048937" data-name="Trazado 1048937" d="M51.242,41.01v-22.3a3.163,3.163,0,0,0-3.161-3.162h-37.7A3.163,3.163,0,0,0,7.22,18.706v22.3H51.242Z" transform="translate(-7.22 -12.25)" fill="#7cd6f3"/>
        <path id="Trazado_1048938" data-name="Trazado 1048938" d="M48.081,86.6a3.163,3.163,0,0,0,3.161-3.162v-2.21H7.22v2.21A3.163,3.163,0,0,0,10.381,86.6Z" transform="translate(-7.22 -52.475)" fill="#696eaf"/>
        <path id="Trazado_1048939" data-name="Trazado 1048939" d="M53.7,95.089l-1.18,5.382h8.9l-1.18-5.382Z" transform="translate(-34.96 -60.959)" fill="#4c5696"/>
        <rect id="Rectángulo_416879" data-name="Rectángulo 416879" width="15.523" height="4.645" rx="2.129" transform="translate(14.249 39.512)" fill="#696eaf"/>
        <path id="Trazado_1048940" data-name="Trazado 1048940" d="M17.321,49.129l4.133-1.872-2.1-4.63L15.221,44.5a1.163,1.163,0,0,0-.579,1.539L15.78,48.55a1.163,1.163,0,0,0,1.541.578Z" transform="translate(-11.701 -28.834)" fill="#696eaf"/>
        <path id="Trazado_1048941" data-name="Trazado 1048941" d="M36.962,37.287a1.14,1.14,0,0,0,1.021-1.611l-1.919-4.235-1.919-4.235a1.14,1.14,0,0,0-1.885-.294l-5.294,5.861,1.049,2.316L29.064,37.4Z" transform="translate(-19.311 -18.982)" fill="#ff7a8c"/>
        <path id="Trazado_1048942" data-name="Trazado 1048942" d="M26.172,62.722l.326-.148a1.246,1.246,0,0,0,.62-1.649l-2.192-4.836-2.6,1.177L24.523,62.1A1.247,1.247,0,0,0,26.172,62.722Z" transform="translate(-16.472 -37.077)" fill="#ff7a8c"/>
        <path id="Trazado_1048943" data-name="Trazado 1048943" d="M51.016,34.717A2.245,2.245,0,0,0,48.045,33.6L49.9,37.688A2.245,2.245,0,0,0,51.016,34.717Z" transform="translate(-32.219 -23.183)" fill="#696eaf"/>
        <path id="Trazado_1048944" data-name="Trazado 1048944" d="M72.742,48.507H86.923v9.336H72.742Z" transform="translate(-47.342 -32.435)" fill="#fdcb71"/>
        <path id="Trazado_1048945" data-name="Trazado 1048945" d="M69.433,7.048H84.9v11.4H69.433Z" transform="translate(-45.316 -7.048)" fill="#ecebfd"/>
        <path id="Trazado_1048946" data-name="Trazado 1048946" d="M72.742,48.507l7.091,4.668,7.091-4.668Z" transform="translate(-47.342 -32.435)" fill="#fdb158"/>
        <path id="Trazado_1048947" data-name="Trazado 1048947" d="M82.988,16.635v3.235l5.649-3.235L82.988,13.4Z" transform="translate(-53.616 -10.938)" fill="#ff7a8c"/>
      </g>
      <g id="Grupo_1202065" data-name="Grupo 1202065" transform="translate(5.47 5.298)">
        <path id="Trazado_1048948" data-name="Trazado 1048948" d="M47.007,8.594h-.6V5.976a.678.678,0,0,0-.678-.678H30.266a.678.678,0,0,0-.678.678V8.594H9.312A3.844,3.844,0,0,0,5.47,12.432v1.4a.678.678,0,1,0,1.357,0v-1.4A2.486,2.486,0,0,1,9.312,9.951H29.586V17.37a.681.681,0,0,0,.68.68H45.728a.679.679,0,0,0,.665-.543.7.7,0,0,0,.014-.138V9.951h.6a2.486,2.486,0,0,1,2.485,2.481V34.057H6.827V22.833a.678.678,0,1,0-1.357,0V36.943a3.846,3.846,0,0,0,3.842,3.842H24.046l-.882,4.025H21.223a1.506,1.506,0,0,0-1.5,1.5v2.993a1.505,1.505,0,0,0,1.5,1.5H35.1a1.505,1.505,0,0,0,1.5-1.5V46.313a1.506,1.506,0,0,0-1.5-1.5H33.155l-.882-4.024h10.2a.678.678,0,1,0,0-1.357H9.312a2.488,2.488,0,0,1-2.485-2.485V35.414H49.492v1.529a2.488,2.488,0,0,1-2.485,2.485h-.992a.678.678,0,1,0,0,1.357h.992a3.846,3.846,0,0,0,3.842-3.842V12.432a3.844,3.844,0,0,0-3.842-3.838ZM45.049,6.656V16.692H30.944V6.656ZM35.242,46.313v2.993a.147.147,0,0,1-.147.147H21.223a.147.147,0,0,1-.147-.147V46.313a.147.147,0,0,1,.147-.147H35.1a.147.147,0,0,1,.147.147Zm-4.358-5.528.881,4.025h-7.21l.882-4.025Z" transform="translate(-5.47 -5.298)"/>
        <path id="Trazado_1048949" data-name="Trazado 1048949" d="M6.148,37.976a.678.678,0,0,0,.678-.678V35.367a.678.678,0,0,0-1.357,0V37.3A.679.679,0,0,0,6.148,37.976Z" transform="translate(-5.47 -23.295)"/>
        <path id="Trazado_1048950" data-name="Trazado 1048950" d="M30.046,29.162a2.926,2.926,0,0,0-3.218-1.66l-.747-1.648a1.819,1.819,0,0,0-3.006-.468l-5.2,5.757-4,1.815a1.84,1.84,0,0,0-.917,2.437l1.138,2.512a1.844,1.844,0,0,0,1.68,1.081,1.811,1.811,0,0,0,.358-.039l1.932,4.264a1.921,1.921,0,0,0,2.547.961l.327-.148a1.924,1.924,0,0,0,.959-2.547l-1.912-4.221.551-.25,7.756-.116a1.819,1.819,0,0,0,1.628-2.569l-.746-1.647A2.926,2.926,0,0,0,30.046,29.162ZM15.33,37.346,14.19,34.835a.485.485,0,0,1,.242-.642L17.951,32.6l1.536,3.395-.68.31-.951.431-1.883.852a.485.485,0,0,1-.644-.241Zm5.345,5.125a.565.565,0,0,1-.3.317l-.327.148a.569.569,0,0,1-.751-.283l-1.912-4.217,1.361-.617,1.912,4.218A.565.565,0,0,1,20.675,42.471Zm7.98-7.149a.456.456,0,0,1-.383.214l-7.453.109-1.731-3.82,5-5.53a.462.462,0,0,1,.763.119l.992,2.189,1.391,3.07,1.454,3.209a.457.457,0,0,1-.03.439ZM27.419,28.8a1.567,1.567,0,0,1,1.166,2.572l-.411-.906Z" transform="translate(-9.953 -17.231)"/>
        <path id="Trazado_1048951" data-name="Trazado 1048951" d="M86.528,47.4a.693.693,0,0,0-.009-.093c0-.021-.012-.039-.017-.06a.616.616,0,0,0-.021-.067.656.656,0,0,0-.039-.073c-.008-.014-.013-.029-.022-.042l0,0a.637.637,0,0,0-.06-.073.68.68,0,0,0-.1-.092c-.009-.007-.016-.015-.026-.021a.663.663,0,0,0-.067-.036c-.017-.009-.032-.019-.05-.026a.617.617,0,0,0-.07-.022.668.668,0,0,0-.085-.02.616.616,0,0,0-.1-.01H71.669a.63.63,0,0,0-.1.01.676.676,0,0,0-.1.025.548.548,0,0,0-.055.017c-.017.007-.039.021-.058.031a.659.659,0,0,0-.059.032c-.016.01-.029.024-.044.036a.718.718,0,0,0-.078.074.7.7,0,0,0-.062.078l0,0c-.009.014-.014.028-.022.042a.653.653,0,0,0-.039.073.609.609,0,0,0-.021.067.622.622,0,0,0-.017.06A.638.638,0,0,0,71,47.4c0,.012,0,.024,0,.039v9.333a.679.679,0,0,0,.678.678H85.855a.679.679,0,0,0,.678-.678V47.436C86.532,47.423,86.529,47.411,86.528,47.4Zm-2.939.716-4.826,3.179-4.826-3.179ZM72.351,56.093v-7.4l6.039,3.976a.679.679,0,0,0,.746,0l6.039-3.976v7.4Z" transform="translate(-45.594 -30.686)"/>
        <path id="Trazado_1048952" data-name="Trazado 1048952" d="M81.576,19.386a.679.679,0,0,0,.677,0L87.9,16.15a.678.678,0,0,0,0-1.177L82.253,11.74a.678.678,0,0,0-1.015.588V18.8a.678.678,0,0,0,.338.587ZM82.595,13.5,86.2,15.564l-3.605,2.065Z" transform="translate(-51.866 -9.188)"/>
      </g>
    </g>
  </g>
</svg>
