<svg xmlns="http://www.w3.org/2000/svg" width="37.979" height="41.046" viewBox="0 0 37.979 41.046">
  <g id="XMLID_947_" transform="translate(-19.127)">
    <g id="XMLID_335_" transform="translate(19.127)">
      <path id="XMLID_363_" d="M127.674,104.2l3.454-7.392a11.808,11.808,0,1,0-21.4,0l3.454,7.392a2.4,2.4,0,0,0-.171,3.379,2.4,2.4,0,0,0,1.791,4.008h1.861a3.848,3.848,0,0,0,7.527,0h1.861a2.4,2.4,0,0,0,1.791-4.008,2.4,2.4,0,0,0-.171-3.379Zm-13.014-.629-3.477-7.442a10.2,10.2,0,1,1,18.491,0l-3.477,7.442h-3.043V96.835h1.122a2.726,2.726,0,1,0-2.726-2.726v1.122h-2.245V94.109a2.726,2.726,0,1,0-2.726,2.726H117.7v6.734Zm3.043-8.337h-1.122a1.122,1.122,0,1,1,1.122-1.122Zm1.6,1.6h2.245v6.734h-2.245Zm3.848-1.6V94.109a1.122,1.122,0,1,1,1.122,1.122Zm-2.726,17.8a2.248,2.248,0,0,1-2.1-1.443h4.192A2.248,2.248,0,0,1,120.43,113.029Zm5.625-3.046H114.8a.8.8,0,1,1,0-1.6h2.017a.8.8,0,1,0,0-1.6H114.8a.8.8,0,1,1,0-1.6h11.249a.8.8,0,1,1,0,1.6h-2.017a.8.8,0,0,0,0,1.6h2.017a.8.8,0,1,1,0,1.6Z" transform="translate(-101.44 -73.587)"/>
      <path id="XMLID_372_" d="M246.8,4.81a.8.8,0,0,0,.8-.8V.8a.8.8,0,1,0-1.6,0V4.008A.8.8,0,0,0,246.8,4.81Z" transform="translate(-227.812)"/>
      <path id="XMLID_373_" d="M88.026,70.212a.8.8,0,0,0,1.134-1.134l-2.267-2.267a.8.8,0,0,0-1.134,1.134Z" transform="translate(-80.2 -61.239)"/>
      <path id="XMLID_374_" d="M23.135,227.127H19.929a.8.8,0,0,0,0,1.6h3.207a.8.8,0,0,0,0-1.6Z" transform="translate(-19.127 -208.919)"/>
      <path id="XMLID_375_" d="M88.206,359.553l-2.267,2.267a.8.8,0,1,0,1.134,1.134l2.267-2.267a.8.8,0,0,0-1.134-1.134Z" transform="translate(-80.366 -330.513)"/>
      <path id="XMLID_376_" d="M380.693,66.811l-2.267,2.268a.8.8,0,1,0,1.134,1.134l2.267-2.267a.8.8,0,0,0-1.134-1.134Z" transform="translate(-349.406 -61.239)"/>
      <path id="XMLID_377_" d="M436.881,227.127h-3.207a.8.8,0,1,0,0,1.6h3.207a.8.8,0,1,0,0-1.6Z" transform="translate(-399.704 -208.919)"/>
      <path id="XMLID_378_" d="M379.381,359.554a.8.8,0,0,0-1.134,1.134l2.267,2.267a.8.8,0,1,0,1.134-1.134Z" transform="translate(-349.241 -330.513)"/>
      <path id="XMLID_379_" d="M246.8,414a.8.8,0,1,0,.567.235A.808.808,0,0,0,246.8,414Z" transform="translate(-227.812 -380.811)"/>
    </g>
  </g>
</svg>
