<svg xmlns="http://www.w3.org/2000/svg" width="33.923" height="33.922" viewBox="0 0 33.923 33.922">
  <g id="ai" transform="translate(-0.125 -0.125)">
    <path id="Trazado_1048004" data-name="Trazado 1048004" d="M25.173,7.866V2.482a.808.808,0,0,0-1.615,0V5.917l-.825-.824A16.987,16.987,0,0,0,6.218.735a.807.807,0,0,0,.429,1.556A15.377,15.377,0,0,1,21.591,6.235l.824.823H18.981a.808.808,0,1,0,0,1.615h5.385a.808.808,0,0,0,.808-.808Z" transform="translate(6.346 0)"/>
    <path id="Trazado_1048005" data-name="Trazado 1048005" d="M19.825,18.288a15.384,15.384,0,0,1-4.093.551A15.243,15.243,0,0,1,4.881,14.345l-.824-.823H7.491a.808.808,0,1,0,0-1.615H2.1a.808.808,0,0,0-.806.807V18.1a.808.808,0,1,0,1.615,0V14.663l.825.824a16.847,16.847,0,0,0,11.993,4.968,16.977,16.977,0,0,0,4.522-.61.807.807,0,1,0-.429-1.556Z" transform="translate(1.354 13.593)"/>
    <path id="Trazado_1048006" data-name="Trazado 1048006" d="M18.1,23.558H14.663l.824-.825a16.847,16.847,0,0,0,4.968-11.993,16.978,16.978,0,0,0-.61-4.522.807.807,0,1,0-1.556.429,15.384,15.384,0,0,1,.551,4.093,15.243,15.243,0,0,1-4.495,10.851l-.823.824V18.982a.808.808,0,0,0-1.615,0v5.385a.808.808,0,0,0,.808.808H18.1a.808.808,0,1,0,0-1.615Z" transform="translate(13.593 6.346)"/>
    <path id="Trazado_1048007" data-name="Trazado 1048007" d="M1.74,15.732A15.243,15.243,0,0,1,6.235,4.881l.823-.824V7.491a.808.808,0,1,0,1.615,0V2.106A.808.808,0,0,0,7.866,1.3H2.482a.808.808,0,1,0,0,1.615H5.917l-.824.825A16.987,16.987,0,0,0,.735,20.254a.808.808,0,0,0,.778.593.8.8,0,0,0,.215-.029.807.807,0,0,0,.564-.993,15.384,15.384,0,0,1-.551-4.093Z" transform="translate(0 1.354)"/>
    <path id="Trazado_1048008" data-name="Trazado 1048008" d="M5.942,15.819a.814.814,0,0,0,1.012-.53l.5-1.587h3.928l.5,1.587a.808.808,0,0,0,.771.567.8.8,0,0,0,.241-.037.807.807,0,0,0,.53-1.012L10.723,6.192a.807.807,0,0,0-.771-.567H8.875a.807.807,0,0,0-.771.567L5.412,14.807a.807.807,0,0,0,.53,1.012Zm3.472-8.4,1.459,4.669H7.954Z" transform="translate(6.057 6.346)"/>
    <path id="Trazado_1048009" data-name="Trazado 1048009" d="M10.683,5.625a.808.808,0,0,0-.808.808v8.615a.808.808,0,1,0,1.615,0V6.433A.808.808,0,0,0,10.683,5.625Z" transform="translate(11.25 6.346)"/>
  </g>
</svg>
