<svg xmlns="http://www.w3.org/2000/svg" xmlns:xlink="http://www.w3.org/1999/xlink" width="110" height="110" viewBox="0 0 110 110">
  <defs>
    <filter id="Trazado_982547" x="0" y="0" width="110" height="110" filterUnits="userSpaceOnUse">
      <feOffset dy="3" input="SourceAlpha"/>
      <feGaussianBlur stdDeviation="3" result="blur"/>
      <feFlood flood-opacity="0.161"/>
      <feComposite operator="in" in2="blur"/>
      <feComposite in="SourceGraphic"/>
    </filter>
  </defs>
  <g id="Grupo_1202292" data-name="Grupo 1202292" transform="translate(-10268 -2710)">
    <g id="Grupo_1201491" data-name="Grupo 1201491" transform="translate(9470 1282.687)">
      <g id="Grupo_1179215" data-name="Grupo 1179215" transform="translate(1 -2794.687)">
        <g id="Grupo_1171898" data-name="Grupo 1171898" transform="translate(806 4228)">
          <g id="Grupo_1164700" data-name="Grupo 1164700" transform="translate(0 0)">
            <g id="Grupo_1160931" data-name="Grupo 1160931" transform="translate(0 0)">
              <g id="Grupo_1160749" data-name="Grupo 1160749" transform="translate(0 0)">
                <g id="Grupo_1158891" data-name="Grupo 1158891" transform="translate(0 0)">
                  <g id="Grupo_1157406" data-name="Grupo 1157406" transform="translate(0 0)">
                    <g id="Grupo_1155793" data-name="Grupo 1155793">
                      <g id="Grupo_1154704" data-name="Grupo 1154704">
                        <g id="Grupo_1150790" data-name="Grupo 1150790">
                          <g id="Grupo_1154214" data-name="Grupo 1154214">
                            <g id="Grupo_1152583" data-name="Grupo 1152583">
                              <g id="Grupo_1146973" data-name="Grupo 1146973">
                                <g id="Grupo_1146954" data-name="Grupo 1146954">
                                  <g transform="matrix(1, 0, 0, 1, -9, -6)" filter="url(#Trazado_982547)">
                                    <g id="Trazado_982547-2" data-name="Trazado 982547" transform="translate(9 6)" fill="#f2f7f5">
                                      <path d="M 46.00000762939453 90.49987030029297 C 39.99188613891602 90.49987030029297 34.16427612304688 89.32350921630859 28.67906188964844 87.00345611572266 C 23.38020706176758 84.76224517822266 18.62104797363281 81.55341339111328 14.53375434875488 77.46613311767578 C 10.44647407531738 73.37885284423828 7.237647533416748 68.61969757080078 4.996420860290527 63.32085418701172 C 2.676367521286011 57.83565521240234 1.500007629394531 52.008056640625 1.500007629394531 45.99993515014648 C 1.500007629394531 39.99181365966797 2.676367521286011 34.16421508789062 4.996420860290527 28.67901420593262 C 7.237647533416748 23.38017463684082 10.44647407531738 18.62101554870605 14.53375434875488 14.53373527526855 C 18.62104797363281 10.44645500183105 23.38020706176758 7.23762845993042 28.67906188964844 4.996415138244629 C 34.16427612304688 2.676361799240112 39.99188613891602 1.500001788139343 46.00000762939453 1.500001788139343 C 52.00812911987305 1.500001788139343 57.83573913574219 2.676361799240112 63.32095336914062 4.996415138244629 C 68.61980438232422 7.23762845993042 73.37896728515625 10.44645500183105 77.46626281738281 14.53373527526855 C 81.55354309082031 18.62101554870605 84.76236724853516 23.38017463684082 87.00359344482422 28.67901420593262 C 89.32364654541016 34.16421508789062 90.50000762939453 39.99181365966797 90.50000762939453 45.99993515014648 C 90.50000762939453 52.008056640625 89.32364654541016 57.83565521240234 87.00359344482422 63.32085418701172 C 84.76236724853516 68.61969757080078 81.55354309082031 73.37885284423828 77.46626281738281 77.46613311767578 C 73.37896728515625 81.55341339111328 68.61980438232422 84.76224517822266 63.32095336914062 87.00345611572266 C 57.83573913574219 89.32350921630859 52.00812911987305 90.49987030029297 46.00000762939453 90.49987030029297 Z" stroke="none"/>
                                      <path d="M 46.00000762939453 2.999992370605469 C 40.19372177124023 2.999992370605469 34.56270599365234 4.136489868164062 29.26339340209961 6.377906799316406 C 24.14333343505859 8.543502807617188 19.54443359375 11.64437866210938 15.59442138671875 15.59437561035156 C 11.6444091796875 19.54439544677734 8.543533325195312 24.14329528808594 6.377937316894531 29.26333618164062 C 4.136505126953125 34.56264877319336 3.000007629394531 40.19366455078125 3.000007629394531 45.99993515014648 C 3.000007629394531 51.80620574951172 4.136505126953125 57.43720626831055 6.377937316894531 62.73651885986328 C 8.543533325195312 67.8565673828125 11.6444091796875 72.45545959472656 15.59442138671875 76.40547943115234 C 19.54443359375 80.35547637939453 24.14333343505859 83.45635223388672 29.26339340209961 85.6219482421875 C 34.56270599365234 87.86336517333984 40.19372177124023 88.99986267089844 46.00000762939453 88.99986267089844 C 51.80629348754883 88.99986267089844 57.43730926513672 87.86336517333984 62.73663711547852 85.6219482421875 C 67.85668182373047 83.45635223388672 72.45559692382812 80.35547637939453 76.40560913085938 76.40547943115234 C 80.35560607910156 72.45545959472656 83.45649719238281 67.8565673828125 85.62209320068359 62.73651885986328 C 87.86351013183594 57.43720626831055 89.00000762939453 51.80620574951172 89.00000762939453 45.99993515014648 C 89.00000762939453 40.19366455078125 87.86351013183594 34.56264877319336 85.62209320068359 29.26333618164062 C 83.45649719238281 24.14329528808594 80.35560607910156 19.54439544677734 76.40560913085938 15.59437561035156 C 72.45559692382812 11.64437866210938 67.85668182373047 8.543502807617188 62.73663711547852 6.377906799316406 C 57.43730926513672 4.136489868164062 51.80629348754883 2.999992370605469 46.00000762939453 2.999992370605469 M 46.00000762939453 -7.62939453125e-06 C 71.40510559082031 -7.62939453125e-06 92.00000762939453 20.59486389160156 92.00000762939453 45.99993515014648 C 92.00000762939453 71.40499114990234 71.40510559082031 91.99986267089844 46.00000762939453 91.99986267089844 C 20.59492492675781 91.99986267089844 7.62939453125e-06 71.40499114990234 7.62939453125e-06 45.99993515014648 C 7.62939453125e-06 20.59486389160156 20.59492492675781 -7.62939453125e-06 46.00000762939453 -7.62939453125e-06 Z" stroke="none" fill="#4a665c"/>
                                    </g>
                                  </g>
                                </g>
                              </g>
                            </g>
                          </g>
                        </g>
                      </g>
                    </g>
                  </g>
                </g>
              </g>
            </g>
          </g>
        </g>
      </g>
    </g>
    <g id="analisis_3_" data-name="analisis (3)" transform="translate(10294 2727.442)">
      <g id="Grupo_1202290" data-name="Grupo 1202290" transform="translate(0.845 7.403)">
        <g id="Grupo_1202288" data-name="Grupo 1202288" transform="translate(0 0)">
          <path id="Trazado_1049734" data-name="Trazado 1049734" d="M7.5,49.161V84.036a1.546,1.546,0,0,0,1.546,1.546h45.57a1.546,1.546,0,0,0,1.546-1.546V49.161a1.546,1.546,0,0,0-1.546-1.546H9.046A1.546,1.546,0,0,0,7.5,49.161Z" transform="translate(-7.5 -43.833)" fill="#ebeef2"/>
          <path id="Trazado_1049735" data-name="Trazado 1049735" d="M403.488,47.616h-2.8a1.546,1.546,0,0,1,1.546,1.546V84.037a1.546,1.546,0,0,1-1.546,1.546h2.8a1.546,1.546,0,0,0,1.546-1.546V49.162A1.546,1.546,0,0,0,403.488,47.616Z" transform="translate(-356.372 -43.833)" fill="#d1d6de"/>
          <g id="Grupo_1202287" data-name="Grupo 1202287" transform="translate(10.72 8.623)">
            <g id="Grupo_1202283" data-name="Grupo 1202283" transform="translate(0 10.839)">
              <circle id="Elipse_14314" data-name="Elipse 14314" cx="1.973" cy="1.973" r="1.973" fill="#5c9cee"/>
            </g>
            <g id="Grupo_1202284" data-name="Grupo 1202284" transform="translate(7.759 6.434)">
              <circle id="Elipse_14315" data-name="Elipse 14315" cx="1.973" cy="1.973" r="1.973" fill="#f2df33"/>
            </g>
            <g id="Grupo_1202285" data-name="Grupo 1202285" transform="translate(15.517 10.839)">
              <circle id="Elipse_14316" data-name="Elipse 14316" cx="1.973" cy="1.973" r="1.973" fill="#ed5575"/>
            </g>
            <g id="Grupo_1202286" data-name="Grupo 1202286" transform="translate(23.276)">
              <circle id="Elipse_14317" data-name="Elipse 14317" cx="1.973" cy="1.973" r="1.973" fill="#9fd479"/>
            </g>
          </g>
          <path id="Trazado_1049736" data-name="Trazado 1049736" d="M80.428,387.171v-2.706H112.65v2.706a1.077,1.077,0,0,1-1.077,1.077H81.5A1.077,1.077,0,0,1,80.428,387.171Z" transform="translate(-72.208 -342.716)" fill="#f2df33"/>
          <path id="Trazado_1049737" data-name="Trazado 1049737" d="M333.584,384.465v2.706a1.077,1.077,0,0,1-1.077,1.077h2.733a1.077,1.077,0,0,0,1.077-1.077v-2.706Z" transform="translate(-295.875 -342.716)" fill="#fcab29"/>
          <path id="Trazado_1049738" data-name="Trazado 1049738" d="M189.243,17.84V15.333a1.276,1.276,0,0,1,1.276-1.276h5.142a1.276,1.276,0,0,1,1.276,1.276v2.507h-7.693Z" transform="translate(-168.758 -14.057)" fill="#f2df33"/>
          <path id="Trazado_1049739" data-name="Trazado 1049739" d="M224.509,14.058h-2.753a1.276,1.276,0,0,1,1.276,1.276V17.84h2.753V15.334A1.276,1.276,0,0,0,224.509,14.058Z" transform="translate(-197.607 -14.058)" fill="#fcab29"/>
          <rect id="Rectángulo_416959" data-name="Rectángulo 416959" width="3.429" height="7.47" transform="translate(10.978 29.42)" fill="#48cfb7"/>
          <rect id="Rectángulo_416960" data-name="Rectángulo 416960" width="3.429" height="11.79" transform="translate(18.737 25.1)" fill="#48cfb7"/>
          <rect id="Rectángulo_416961" data-name="Rectángulo 416961" width="3.429" height="7.47" transform="translate(26.496 29.42)" fill="#48cfb7"/>
          <rect id="Rectángulo_416962" data-name="Rectángulo 416962" width="3.429" height="15.158" transform="translate(34.254 21.731)" fill="#48cfb7"/>
        </g>
        <g id="Grupo_1202289" data-name="Grupo 1202289" transform="translate(33.308 15.543)">
          <path id="Trazado_1049740" data-name="Trazado 1049740" d="M409.456,293.429l6.293,10.9a2.368,2.368,0,0,0,3.235.867h0a2.368,2.368,0,0,0,.867-3.235l-6.293-10.9Z" transform="translate(-397.459 -275.382)" fill="#ed5575"/>
          <path id="Trazado_1049741" data-name="Trazado 1049741" d="M413.558,291.06l-4.1,2.368,2.453,4.249a12.9,12.9,0,0,0,4.1-2.368Z" transform="translate(-397.459 -275.381)" fill="#cc3a60"/>
          <circle id="Elipse_14318" data-name="Elipse 14318" cx="10.203" cy="10.203" r="10.203" fill="#f2df33"/>
          <circle id="Elipse_14319" data-name="Elipse 14319" cx="7.181" cy="7.181" r="7.181" transform="translate(3.023 3.023)" fill="#5c9cee"/>
        </g>
      </g>
      <g id="Grupo_1202291" data-name="Grupo 1202291" transform="translate(0 6.558)">
        <path id="Trazado_1049742" data-name="Trazado 1049742" d="M121.211,88.7a2.821,2.821,0,1,0-2.251-1.126l-4.63,6.47a2.81,2.81,0,0,0-2.8.616l-3.086-1.751a2.818,2.818,0,1,0-5.509,0l-3.086,1.751a2.813,2.813,0,1,0,.837,1.469l3.086-1.751a2.811,2.811,0,0,0,3.836,0l3.086,1.751a2.818,2.818,0,1,0,5.006-1.1l4.63-6.47A2.809,2.809,0,0,0,121.211,88.7Zm0-3.945a1.127,1.127,0,1,1-1.127,1.127A1.128,1.128,0,0,1,121.211,84.752ZM97.935,97.845a1.127,1.127,0,1,1,1.127-1.127A1.128,1.128,0,0,1,97.935,97.845Zm7.759-4.405a1.127,1.127,0,1,1,1.127-1.127A1.128,1.128,0,0,1,105.694,93.44Zm7.759,4.405a1.127,1.127,0,1,1,1.127-1.127A1.128,1.128,0,0,1,113.453,97.845Z" transform="translate(-84.397 -74.438)"/>
        <path id="Trazado_1049743" data-name="Trazado 1049743" d="M47.2,78.083H2.391a.7.7,0,0,1-.7-.7V42.507a.7.7,0,0,1,.7-.7H6.376a.845.845,0,0,0,0-1.691H2.391A2.394,2.394,0,0,0,0,42.507V77.382a2.394,2.394,0,0,0,2.391,2.391H8.22v1.86a1.924,1.924,0,0,0,1.922,1.922H18.6L14.62,91.333a.845.845,0,1,0,1.5.771L20.5,83.556H29.85L34.228,92.1a.845.845,0,1,0,1.5-.771l-3.983-7.777h8.462a1.924,1.924,0,0,0,1.922-1.922v-1.86H47.2a.845.845,0,0,0,0-1.691Zm-6.761,3.551a.232.232,0,0,1-.231.231H10.142a.232.232,0,0,1-.231-.231v-1.86H40.442Z" transform="translate(0 -36.334)"/>
        <path id="Trazado_1049744" data-name="Trazado 1049744" d="M79.916,12.031h38.2a.7.7,0,0,1,.7.7v8.038a.845.845,0,0,0,1.691,0V12.732a2.394,2.394,0,0,0-2.391-2.391H100.027V8.679a2.123,2.123,0,0,0-2.121-2.121H92.764a2.123,2.123,0,0,0-2.121,2.121V10.34H79.916a.845.845,0,0,0,0,1.691ZM92.334,8.679a.431.431,0,0,1,.43-.43h5.142a.431.431,0,0,1,.43.43V10.34h-6V8.679Z" transform="translate(-70.159 -6.558)"/>
        <path id="Trazado_1049745" data-name="Trazado 1049745" d="M98.247,267.576a.845.845,0,0,0-.845.845v7.47a.845.845,0,0,0,.845.845h3.43a.845.845,0,0,0,.845-.845v-7.47a.845.845,0,0,0-.845-.845Zm2.584,7.47H99.093v-5.779h1.739Z" transform="translate(-86.424 -238.156)"/>
        <path id="Trazado_1049746" data-name="Trazado 1049746" d="M167.082,229.248a.845.845,0,0,0-.845.845v11.79a.845.845,0,0,0,.845.845h3.429a.845.845,0,0,0,.845-.845v-11.79a.845.845,0,0,0-.845-.845Zm2.584,11.79h-1.739v-10.1h1.739Z" transform="translate(-147.5 -204.148)"/>
        <path id="Trazado_1049747" data-name="Trazado 1049747" d="M235.918,267.576a.845.845,0,0,0-.845.845v7.47a.845.845,0,0,0,.845.845h3.43a.845.845,0,0,0,.845-.845v-7.47a.845.845,0,0,0-.845-.845Zm2.584,7.47h-1.739v-5.779H238.5Z" transform="translate(-208.577 -238.156)"/>
        <path id="Trazado_1049748" data-name="Trazado 1049748" d="M304.754,311.832a.845.845,0,0,0-.845.845v2.482a.845.845,0,0,0,.845.845h3.43a.845.845,0,0,0,0-1.691H305.6v-1.636A.845.845,0,0,0,304.754,311.832Z" transform="translate(-269.655 -277.424)"/>
        <path id="Trazado_1049749" data-name="Trazado 1049749" d="M319.5,171.474l-4.85-8.4a11.054,11.054,0,1,0-10.931,3.119,11.109,11.109,0,0,0,2.877.381,10.909,10.909,0,0,0,2.488-.287l4.849,8.4a3.213,3.213,0,1,0,5.566-3.213Zm-15.343-6.914a9.358,9.358,0,1,1,7.1-.935A9.3,9.3,0,0,1,304.157,164.56Zm13.322,9.839a1.524,1.524,0,0,1-2.08-.557l-4.665-8.082a11.095,11.095,0,0,0,2.636-1.523l4.666,8.082a1.521,1.521,0,0,1-.557,2.08Z" transform="translate(-262.223 -128.929)"/>
        <path id="Trazado_1049750" data-name="Trazado 1049750" d="M337.994,181.653a8,8,0,0,0-.4-5.8.845.845,0,1,0-1.529.72,6.332,6.332,0,1,1-1.909-2.359.845.845,0,1,0,1.02-1.348,8.028,8.028,0,1,0,2.818,8.782Z" transform="translate(-285.973 -152.68)"/>
      </g>
    </g>
  </g>
</svg>
