<svg xmlns="http://www.w3.org/2000/svg" xmlns:xlink="http://www.w3.org/1999/xlink" width="110" height="110" viewBox="0 0 110 110">
  <defs>
    <filter id="Trazado_982547" x="0" y="0" width="110" height="110" filterUnits="userSpaceOnUse">
      <feOffset dy="3" input="SourceAlpha"/>
      <feGaussianBlur stdDeviation="3" result="blur"/>
      <feFlood flood-opacity="0.161"/>
      <feComposite operator="in" in2="blur"/>
      <feComposite in="SourceGraphic"/>
    </filter>
  </defs>
  <g id="Grupo_1202295" data-name="Grupo 1202295" transform="translate(-10584 -2709.512)">
    <g id="Grupo_1201492" data-name="Grupo 1201492" transform="translate(9470 1282.442)">
      <g id="Grupo_1179216" data-name="Grupo 1179216" transform="translate(1 -2794.687)">
        <g id="Grupo_1172349" data-name="Grupo 1172349" transform="translate(1122 4227.757)">
          <g id="Grupo_1164700" data-name="Grupo 1164700" transform="translate(0 0)">
            <g id="Grupo_1160931" data-name="Grupo 1160931" transform="translate(0 0)">
              <g id="Grupo_1160749" data-name="Grupo 1160749" transform="translate(0 0)">
                <g id="Grupo_1158891" data-name="Grupo 1158891" transform="translate(0 0)">
                  <g id="Grupo_1157406" data-name="Grupo 1157406" transform="translate(0 0)">
                    <g id="Grupo_1155793" data-name="Grupo 1155793">
                      <g id="Grupo_1154704" data-name="Grupo 1154704">
                        <g id="Grupo_1150790" data-name="Grupo 1150790">
                          <g id="Grupo_1154214" data-name="Grupo 1154214">
                            <g id="Grupo_1152583" data-name="Grupo 1152583">
                              <g id="Grupo_1146973" data-name="Grupo 1146973">
                                <g id="Grupo_1146954" data-name="Grupo 1146954">
                                  <g transform="matrix(1, 0, 0, 1, -9, -6)" filter="url(#Trazado_982547)">
                                    <g id="Trazado_982547-2" data-name="Trazado 982547" transform="translate(9 6)" fill="#f2f7f5">
                                      <path d="M 46.00000762939453 90.49987030029297 C 39.99188613891602 90.49987030029297 34.16427612304688 89.32350921630859 28.67906188964844 87.00345611572266 C 23.38020706176758 84.76224517822266 18.62104797363281 81.55341339111328 14.53375434875488 77.46613311767578 C 10.44647407531738 73.37885284423828 7.237647533416748 68.61969757080078 4.996420860290527 63.32085418701172 C 2.676367521286011 57.83565521240234 1.500007629394531 52.008056640625 1.500007629394531 45.99993515014648 C 1.500007629394531 39.99181365966797 2.676367521286011 34.16421508789062 4.996420860290527 28.67901420593262 C 7.237647533416748 23.38017463684082 10.44647407531738 18.62101554870605 14.53375434875488 14.53373527526855 C 18.62104797363281 10.44645500183105 23.38020706176758 7.23762845993042 28.67906188964844 4.996415138244629 C 34.16427612304688 2.676361799240112 39.99188613891602 1.500001788139343 46.00000762939453 1.500001788139343 C 52.00812911987305 1.500001788139343 57.83573913574219 2.676361799240112 63.32095336914062 4.996415138244629 C 68.61980438232422 7.23762845993042 73.37896728515625 10.44645500183105 77.46626281738281 14.53373527526855 C 81.55354309082031 18.62101554870605 84.76236724853516 23.38017463684082 87.00359344482422 28.67901420593262 C 89.32364654541016 34.16421508789062 90.50000762939453 39.99181365966797 90.50000762939453 45.99993515014648 C 90.50000762939453 52.008056640625 89.32364654541016 57.83565521240234 87.00359344482422 63.32085418701172 C 84.76236724853516 68.61969757080078 81.55354309082031 73.37885284423828 77.46626281738281 77.46613311767578 C 73.37896728515625 81.55341339111328 68.61980438232422 84.76224517822266 63.32095336914062 87.00345611572266 C 57.83573913574219 89.32350921630859 52.00812911987305 90.49987030029297 46.00000762939453 90.49987030029297 Z" stroke="none"/>
                                      <path d="M 46.00000762939453 2.999992370605469 C 40.19372177124023 2.999992370605469 34.56270599365234 4.136489868164062 29.26339340209961 6.377906799316406 C 24.14333343505859 8.543502807617188 19.54443359375 11.64437866210938 15.59442138671875 15.59437561035156 C 11.6444091796875 19.54439544677734 8.543533325195312 24.14329528808594 6.377937316894531 29.26333618164062 C 4.136505126953125 34.56264877319336 3.000007629394531 40.19366455078125 3.000007629394531 45.99993515014648 C 3.000007629394531 51.80620574951172 4.136505126953125 57.43720626831055 6.377937316894531 62.73651885986328 C 8.543533325195312 67.8565673828125 11.6444091796875 72.45545959472656 15.59442138671875 76.40547943115234 C 19.54443359375 80.35547637939453 24.14333343505859 83.45635223388672 29.26339340209961 85.6219482421875 C 34.56270599365234 87.86336517333984 40.19372177124023 88.99986267089844 46.00000762939453 88.99986267089844 C 51.80629348754883 88.99986267089844 57.43730926513672 87.86336517333984 62.73663711547852 85.6219482421875 C 67.85668182373047 83.45635223388672 72.45559692382812 80.35547637939453 76.40560913085938 76.40547943115234 C 80.35560607910156 72.45545959472656 83.45649719238281 67.8565673828125 85.62209320068359 62.73651885986328 C 87.86351013183594 57.43720626831055 89.00000762939453 51.80620574951172 89.00000762939453 45.99993515014648 C 89.00000762939453 40.19366455078125 87.86351013183594 34.56264877319336 85.62209320068359 29.26333618164062 C 83.45649719238281 24.14329528808594 80.35560607910156 19.54439544677734 76.40560913085938 15.59437561035156 C 72.45559692382812 11.64437866210938 67.85668182373047 8.543502807617188 62.73663711547852 6.377906799316406 C 57.43730926513672 4.136489868164062 51.80629348754883 2.999992370605469 46.00000762939453 2.999992370605469 M 46.00000762939453 -7.62939453125e-06 C 71.40510559082031 -7.62939453125e-06 92.00000762939453 20.59486389160156 92.00000762939453 45.99993515014648 C 92.00000762939453 71.40499114990234 71.40510559082031 91.99986267089844 46.00000762939453 91.99986267089844 C 20.59492492675781 91.99986267089844 7.62939453125e-06 71.40499114990234 7.62939453125e-06 45.99993515014648 C 7.62939453125e-06 20.59486389160156 20.59492492675781 -7.62939453125e-06 46.00000762939453 -7.62939453125e-06 Z" stroke="none" fill="#4a665c"/>
                                    </g>
                                  </g>
                                </g>
                              </g>
                            </g>
                          </g>
                        </g>
                      </g>
                    </g>
                  </g>
                </g>
              </g>
            </g>
          </g>
        </g>
      </g>
    </g>
    <g id="lupa" transform="translate(10610.357 2732.87)">
      <g id="Grupo_1202293" data-name="Grupo 1202293" transform="translate(0.937 0.826)">
        <path id="Trazado_1049751" data-name="Trazado 1049751" d="M204.862,39.043a18.543,18.543,0,0,1-26.223,0,18.9,18.9,0,0,1-1.4-1.569,18.545,18.545,0,0,1,26.057-26.057,18.9,18.9,0,0,1,1.569,1.4A18.542,18.542,0,0,1,204.862,39.043Z" transform="translate(-154.776 -7.389)" fill="#317794"/>
        <path id="Trazado_1049752" data-name="Trazado 1049752" d="M236.857,71.039a18.543,18.543,0,0,1-26.223,0,18.9,18.9,0,0,1-1.4-1.569,18.545,18.545,0,0,0,26.057-26.057,18.9,18.9,0,0,1,1.569,1.4A18.542,18.542,0,0,1,236.857,71.039Z" transform="translate(-186.77 -39.384)" fill="#04627e"/>
        <path id="Trazado_1049753" data-name="Trazado 1049753" d="M229.2,63.447a15.185,15.185,0,1,1,0-21.464,15.177,15.177,0,0,1,0,21.464Z" transform="translate(-181.495 -34.165)" fill="#dcf3ff"/>
        <path id="Trazado_1049754" data-name="Trazado 1049754" d="M254.563,89.015A15.191,15.191,0,0,1,231.845,87.6a15.18,15.18,0,0,0,21.333-21.274,15.185,15.185,0,0,1,1.385,22.691Z" transform="translate(-206.855 -59.733)" fill="#aedff4"/>
        <path id="Trazado_1049755" data-name="Trazado 1049755" d="M29.3,320.934l-15.61,15.61a3.11,3.11,0,0,1-4.4-4.4l15.61-15.61,2.253-.085,2.318-.089Z" transform="translate(-8.381 -281.811)" fill="#b56c3a"/>
        <path id="Trazado_1049756" data-name="Trazado 1049756" d="M30.094,320.935l-15.61,15.61a3.108,3.108,0,0,1-5.209-1.419,3.106,3.106,0,0,0,2.978-.811l15.61-15.61.085-2.252,2.318-.089Z" transform="translate(-9.175 -281.812)" fill="#a35623"/>
        <path id="Trazado_1049757" data-name="Trazado 1049757" d="M0,0H3.891V6.22H0Z" transform="translate(1.598 49.515) rotate(-45)" fill="#ffb651"/>
        <path id="Trazado_1049758" data-name="Trazado 1049758" d="M0,0H3.891V3.067H0Z" transform="translate(3.826 51.744) rotate(-45)" fill="#ff9827"/>
      </g>
      <g id="Grupo_1202294" data-name="Grupo 1202294" transform="translate(0)">
        <path id="Trazado_1049759" data-name="Trazado 1049759" d="M51.617,5.667a19.381,19.381,0,0,0-27.989,26.8L21.57,34.528l-4.242.161a.839.839,0,0,0-.561.245l-1.829,1.829a.839.839,0,0,0,1.186,1.186l1.6-1.6,3.339-.126-.126,3.338L9.69,50.806,6.478,47.594,13.4,40.671a.839.839,0,1,0-1.186-1.186L1.157,50.544a3.949,3.949,0,1,0,5.584,5.584l15.61-15.61a.839.839,0,0,0,.245-.561l.161-4.243,2.057-2.057a19.381,19.381,0,0,0,26.8-27.99ZM8.5,51.993,6.938,53.558,3.726,50.346l1.565-1.565ZM3.949,55.607A2.271,2.271,0,0,1,2.343,51.73l.2-.2,3.212,3.212-.2.2A2.256,2.256,0,0,1,3.949,55.607ZM50.431,31.89a17.7,17.7,0,1,1,0-25.037A17.588,17.588,0,0,1,50.431,31.89Z" transform="translate(0)"/>
        <path id="Trazado_1049760" data-name="Trazado 1049760" d="M223.158,34.726A16.02,16.02,0,0,0,203.4,32.432a.839.839,0,0,0,.885,1.425A14.4,14.4,0,0,1,213.4,31.8,14.337,14.337,0,1,1,201.7,35.912a.839.839,0,0,0-1.186-1.186,16.014,16.014,0,1,0,22.647,0Z" transform="translate(-173.922 -26.677)"/>
        <path id="Trazado_1049761" data-name="Trazado 1049761" d="M410.665,199.816a.839.839,0,0,0-1.066.521,8.315,8.315,0,0,1-1.194,2.263.839.839,0,0,0,1.346,1,9.991,9.991,0,0,0,1.435-2.719A.839.839,0,0,0,410.665,199.816Z" transform="translate(-362.587 -177.431)"/>
        <path id="Trazado_1049762" data-name="Trazado 1049762" d="M343.762,82.674a11.415,11.415,0,0,0-11.4-11.4.839.839,0,0,0,0,1.677,9.735,9.735,0,0,1,9.724,9.724.839.839,0,1,0,1.677,0Z" transform="translate(-294.447 -63.302)"/>
      </g>
    </g>
  </g>
</svg>
