<svg xmlns="http://www.w3.org/2000/svg" xmlns:xlink="http://www.w3.org/1999/xlink" width="108" height="108" viewBox="0 0 108 108">
  <defs>
    <filter id="Trazado_904820" x="0" y="0" width="108" height="108" filterUnits="userSpaceOnUse">
      <feOffset dy="3" input="SourceAlpha"/>
      <feGaussianBlur stdDeviation="3" result="blur"/>
      <feFlood flood-opacity="0.161"/>
      <feComposite operator="in" in2="blur"/>
      <feComposite in="SourceGraphic"/>
    </filter>
  </defs>
  <g id="Grupo_1202274" data-name="Grupo 1202274" transform="translate(-141.001 -3443.521)">
    <g id="Grupo_1201526" data-name="Grupo 1201526" transform="translate(-59.227 2664.851)">
      <g id="Grupo_1179560" data-name="Grupo 1179560" transform="translate(-0.227 23)">
        <g id="Grupo_1173787" data-name="Grupo 1173787" transform="translate(209.455 761.67)">
          <g id="Grupo_1171910" data-name="Grupo 1171910" transform="translate(0)">
            <g id="Grupo_1167341" data-name="Grupo 1167341">
              <g id="Grupo_1166792" data-name="Grupo 1166792">
                <g transform="matrix(1, 0, 0, 1, -9, -6)" filter="url(#Trazado_904820)">
                  <g id="Trazado_904820-2" data-name="Trazado 904820" transform="translate(9 6)" fill="#f2f7f5">
                    <path d="M 44.99999618530273 88.50003051757812 C 39.12687301635742 88.50003051757812 33.43022155761719 87.35010528564453 28.06829643249512 85.08219909667969 C 22.88852119445801 82.89134216308594 18.23629570007324 79.75461578369141 14.24084663391113 75.75916290283203 C 10.24540901184082 71.76371765136719 7.108683586120605 67.11150360107422 4.917821407318115 61.93172836303711 C 2.649921178817749 56.56978988647461 1.499996185302734 50.87313842773438 1.499996185302734 45.00001525878906 C 1.499996185302734 39.12689208984375 2.649921178817749 33.43024063110352 4.917821407318115 28.06831550598145 C 7.108683586120605 22.88854026794434 10.24540901184082 18.23631477355957 14.24084663391113 14.24086570739746 C 18.23629570007324 10.24541568756104 22.88852119445801 7.10869026184082 28.06829643249512 4.917840480804443 C 33.43022155761719 2.649927854537964 39.12687301635742 1.50000274181366 44.99999618530273 1.50000274181366 C 50.87311935424805 1.50000274181366 56.56977081298828 2.649927854537964 61.93169784545898 4.917840480804443 C 67.11147308349609 7.10869026184082 71.76369476318359 10.24541568756104 75.75914764404297 14.24086570739746 C 79.75458526611328 18.23631477355957 82.89131164550781 22.88854026794434 85.08216857910156 28.06831550598145 C 87.35007476806641 33.43024063110352 88.5 39.12689208984375 88.5 45.00001525878906 C 88.5 50.87313842773438 87.35007476806641 56.56978988647461 85.08216857910156 61.93172836303711 C 82.89131164550781 67.11150360107422 79.75458526611328 71.76371765136719 75.75914764404297 75.75916290283203 C 71.76369476318359 79.75461578369141 67.11147308349609 82.89134216308594 61.93169784545898 85.08219909667969 C 56.56977081298828 87.35010528564453 50.87311935424805 88.50003051757812 44.99999618530273 88.50003051757812 Z" stroke="none"/>
                    <path d="M 44.99999618530273 3 C 39.32870864868164 3 33.82865142822266 4.110061645507812 28.65262603759766 6.299346923828125 C 23.65165710449219 8.414573669433594 19.15968322753906 11.44334411621094 15.301513671875 15.301513671875 C 11.44333648681641 19.15968322753906 8.414566040039062 23.65165710449219 6.299339294433594 28.65262985229492 C 4.110054016113281 33.82867050170898 2.999992370605469 39.32872772216797 2.999992370605469 45.00001525878906 C 2.999992370605469 50.67130279541016 4.110054016113281 56.17136001586914 6.299339294433594 61.34738922119141 C 8.414566040039062 66.34837341308594 11.44333648681641 70.84033203125 15.301513671875 74.69850158691406 C 19.15968322753906 78.55668640136719 23.65165710449219 81.58545684814453 28.65262603759766 83.70068359375 C 33.82865142822266 85.88996887207031 39.32870864868164 87.00003051757812 44.99999618530273 87.00003051757812 C 50.67128372192383 87.00003051757812 56.17134094238281 85.88996887207031 61.34736633300781 83.70068359375 C 66.34834289550781 81.58545684814453 70.84030914306641 78.55668640136719 74.69847869873047 74.69850158691406 C 78.55665588378906 70.84033203125 81.58542633056641 66.34837341308594 83.70065307617188 61.34738922119141 C 85.88993835449219 56.17136001586914 87 50.67130279541016 87 45.00001525878906 C 87 39.32872772216797 85.88993835449219 33.82867050170898 83.70065307617188 28.65262985229492 C 81.58542633056641 23.65165710449219 78.55665588378906 19.15968322753906 74.69847869873047 15.301513671875 C 70.84030914306641 11.44334411621094 66.34834289550781 8.414573669433594 61.34736633300781 6.299346923828125 C 56.17134094238281 4.110061645507812 50.67128372192383 3 44.99999618530273 3 M 44.99999618530273 0 C 69.85281372070312 0 90 20.14718627929688 90 45.00001525878906 C 90 69.85282897949219 69.85281372070312 90.00003051757812 44.99999618530273 90.00003051757812 C 20.14717864990234 90.00003051757812 -7.62939453125e-06 69.85282897949219 -7.62939453125e-06 45.00001525878906 C -7.62939453125e-06 20.14718627929688 20.14717864990234 0 44.99999618530273 0 Z" stroke="none" fill="#88bba9"/>
                  </g>
                </g>
              </g>
            </g>
          </g>
        </g>
      </g>
    </g>
    <g id="_x32_9_x2C__Online_Streaming_x2C__Video_Player_x2C__Video_x2C__Video_Player_x2C__Play_Button" transform="translate(168.96 3468.855)">
      <g id="Grupo_1202273" data-name="Grupo 1202273" transform="translate(1 1)">
        <path id="Trazado_1049667" data-name="Trazado 1049667" d="M59.118,391v7.856a2.946,2.946,0,0,1-2.946,2.946H13.946A2.946,2.946,0,0,1,11,398.856V391Z" transform="translate(-10.018 -352.702)" fill="#3aaaff"/>
        <path id="Trazado_1049668" data-name="Trazado 1049668" d="M11,131H59.118v25.532H11Z" transform="translate(-10.018 -118.234)" fill="#7cc8f0"/>
        <path id="Trazado_1049669" data-name="Trazado 1049669" d="M56.172,11H13.946A2.946,2.946,0,0,0,11,13.946v8.838H59.118V13.946A2.946,2.946,0,0,0,56.172,11Z" transform="translate(-10.018 -10.018)" fill="#00516a"/>
        <path id="Trazado_1049670" data-name="Trazado 1049670" d="M131.442,173.946V185.73a2.946,2.946,0,0,1-2.946,2.946h-24.55A2.946,2.946,0,0,1,101,185.73V173.946A2.946,2.946,0,0,1,103.946,171H128.5A2.946,2.946,0,0,1,131.442,173.946Zm-19.64,10.8,8.838-4.91-8.838-4.91Z" transform="translate(-91.18 -154.306)" fill="#fa382e"/>
        <path id="Trazado_1049671" data-name="Trazado 1049671" d="M219.838,215.91,211,220.82V211Z" transform="translate(-190.378 -190.378)" fill="#e2e0e1"/>
        <ellipse id="Elipse_14309" data-name="Elipse 14309" cx="2.057" cy="1.371" rx="2.057" ry="1.371" transform="translate(20.57 5.485)" fill="#fa382e"/>
        <ellipse id="Elipse_14310" data-name="Elipse 14310" cx="2.057" cy="1.371" rx="2.057" ry="1.371" transform="translate(12.342 5.485)" fill="#b8dc38"/>
        <circle id="Elipse_14311" data-name="Elipse 14311" cx="1.371" cy="1.371" r="1.371" transform="translate(5.485 5.485)" fill="#ffdc87"/>
        <path id="Trazado_1049672" data-name="Trazado 1049672" d="M211.3,206.024l-8.838-4.91a.983.983,0,0,0-1.459.858v9.82a.982.982,0,0,0,1.459.858l8.838-4.91A.983.983,0,0,0,211.3,206.024Zm-8.333,4.1v-6.482l5.834,3.241Z" transform="translate(-181.36 -181.35)"/>
        <path id="Trazado_1049673" data-name="Trazado 1049673" d="M119.478,161H94.928A3.932,3.932,0,0,0,91,164.928v11.784a3.932,3.932,0,0,0,3.928,3.928h24.55a3.932,3.932,0,0,0,3.928-3.928V164.928A3.932,3.932,0,0,0,119.478,161Zm1.964,15.712a1.966,1.966,0,0,1-1.964,1.964H94.928a1.966,1.966,0,0,1-1.964-1.964V164.928a1.966,1.966,0,0,1,1.964-1.964h24.55a1.966,1.966,0,0,1,1.964,1.964Z" transform="translate(-82.162 -145.288)"/>
        <path id="Trazado_1049674" data-name="Trazado 1049674" d="M51.982,421a.982.982,0,0,0-.982.982v2.946a.982.982,0,0,0,1.964,0v-2.946A.982.982,0,0,0,51.982,421Z" transform="translate(-46.09 -379.756)"/>
        <path id="Trazado_1049675" data-name="Trazado 1049675" d="M91.982,421a.982.982,0,0,0-.982.982v2.946a.982.982,0,0,0,1.964,0v-2.946A.982.982,0,0,0,91.982,421Z" transform="translate(-82.162 -379.756)"/>
        <path id="Trazado_1049676" data-name="Trazado 1049676" d="M162.424,436H131.982a.982.982,0,0,0,0,1.964h30.442a.982.982,0,0,0,0-1.964Z" transform="translate(-118.234 -393.283)"/>
        <path id="Trazado_1049677" data-name="Trazado 1049677" d="M43.946,46.892A2.946,2.946,0,1,0,41,43.946,2.949,2.949,0,0,0,43.946,46.892Zm0-3.928a.982.982,0,1,1-.982.982A.983.983,0,0,1,43.946,42.964Z" transform="translate(-37.072 -37.072)"/>
        <path id="Trazado_1049678" data-name="Trazado 1049678" d="M123.946,46.892A2.946,2.946,0,1,0,121,43.946,2.949,2.949,0,0,0,123.946,46.892Zm0-3.928a.982.982,0,1,1-.982.982A.983.983,0,0,1,123.946,42.964Z" transform="translate(-109.216 -37.072)"/>
        <path id="Trazado_1049679" data-name="Trazado 1049679" d="M203.946,46.892A2.946,2.946,0,1,0,201,43.946,2.949,2.949,0,0,0,203.946,46.892Zm0-3.928a.982.982,0,1,1-.982.982A.983.983,0,0,1,203.946,42.964Z" transform="translate(-181.36 -37.072)"/>
        <path id="Trazado_1049680" data-name="Trazado 1049680" d="M301.982,62.964h14.73a.982.982,0,1,0,0-1.964h-14.73a.982.982,0,1,0,0,1.964Z" transform="translate(-271.54 -55.108)"/>
        <path id="Trazado_1049681" data-name="Trazado 1049681" d="M47.154,1H4.928A3.932,3.932,0,0,0,1,4.928V47.154a3.932,3.932,0,0,0,3.928,3.928H47.154a3.932,3.932,0,0,0,3.928-3.928V4.928A3.932,3.932,0,0,0,47.154,1ZM2.964,14.748H49.118V38.316H2.964ZM4.928,2.964H47.154a1.966,1.966,0,0,1,1.964,1.964v7.856H2.964V4.928A1.966,1.966,0,0,1,4.928,2.964ZM47.154,49.118H4.928a1.966,1.966,0,0,1-1.964-1.964V40.28H49.118v6.874A1.966,1.966,0,0,1,47.154,49.118Z" transform="translate(-1 -1)"/>
      </g>
    </g>
  </g>
</svg>
