<svg xmlns="http://www.w3.org/2000/svg" xmlns:xlink="http://www.w3.org/1999/xlink" width="110" height="110" viewBox="0 0 110 110">
  <defs>
    <filter id="Trazado_982547" x="0" y="0" width="110" height="110" filterUnits="userSpaceOnUse">
      <feOffset dy="3" input="SourceAlpha"/>
      <feGaussianBlur stdDeviation="3" result="blur"/>
      <feFlood flood-opacity="0.161"/>
      <feComposite operator="in" in2="blur"/>
      <feComposite in="SourceGraphic"/>
    </filter>
  </defs>
  <g id="Grupo_1202275" data-name="Grupo 1202275" transform="translate(-798 -2309.756)">
    <g id="Grupo_1201486" data-name="Grupo 1201486" transform="translate(0 882.442)">
      <g id="Grupo_1179215" data-name="Grupo 1179215" transform="translate(1 -2794.687)">
        <g id="Grupo_1171898" data-name="Grupo 1171898" transform="translate(806 4228)">
          <g id="Grupo_1164700" data-name="Grupo 1164700" transform="translate(0 0)">
            <g id="Grupo_1160931" data-name="Grupo 1160931" transform="translate(0 0)">
              <g id="Grupo_1160749" data-name="Grupo 1160749" transform="translate(0 0)">
                <g id="Grupo_1158891" data-name="Grupo 1158891" transform="translate(0 0)">
                  <g id="Grupo_1157406" data-name="Grupo 1157406" transform="translate(0 0)">
                    <g id="Grupo_1155793" data-name="Grupo 1155793">
                      <g id="Grupo_1154704" data-name="Grupo 1154704">
                        <g id="Grupo_1150790" data-name="Grupo 1150790">
                          <g id="Grupo_1154214" data-name="Grupo 1154214">
                            <g id="Grupo_1152583" data-name="Grupo 1152583">
                              <g id="Grupo_1146973" data-name="Grupo 1146973">
                                <g id="Grupo_1146954" data-name="Grupo 1146954">
                                  <g transform="matrix(1, 0, 0, 1, -9, -6)" filter="url(#Trazado_982547)">
                                    <g id="Trazado_982547-2" data-name="Trazado 982547" transform="translate(9 6)" fill="#f2f7f5">
                                      <path d="M 46.00000762939453 90.49987030029297 C 39.99188613891602 90.49987030029297 34.16427612304688 89.32350921630859 28.67906188964844 87.00345611572266 C 23.38020706176758 84.76224517822266 18.62104797363281 81.55341339111328 14.53375434875488 77.46613311767578 C 10.44647407531738 73.37885284423828 7.237647533416748 68.61969757080078 4.996420860290527 63.32085418701172 C 2.676367521286011 57.83565521240234 1.500007629394531 52.008056640625 1.500007629394531 45.99993515014648 C 1.500007629394531 39.99181365966797 2.676367521286011 34.16421508789062 4.996420860290527 28.67901420593262 C 7.237647533416748 23.38017463684082 10.44647407531738 18.62101554870605 14.53375434875488 14.53373527526855 C 18.62104797363281 10.44645500183105 23.38020706176758 7.23762845993042 28.67906188964844 4.996415138244629 C 34.16427612304688 2.676361799240112 39.99188613891602 1.500001788139343 46.00000762939453 1.500001788139343 C 52.00812911987305 1.500001788139343 57.83573913574219 2.676361799240112 63.32095336914062 4.996415138244629 C 68.61980438232422 7.23762845993042 73.37896728515625 10.44645500183105 77.46626281738281 14.53373527526855 C 81.55354309082031 18.62101554870605 84.76236724853516 23.38017463684082 87.00359344482422 28.67901420593262 C 89.32364654541016 34.16421508789062 90.50000762939453 39.99181365966797 90.50000762939453 45.99993515014648 C 90.50000762939453 52.008056640625 89.32364654541016 57.83565521240234 87.00359344482422 63.32085418701172 C 84.76236724853516 68.61969757080078 81.55354309082031 73.37885284423828 77.46626281738281 77.46613311767578 C 73.37896728515625 81.55341339111328 68.61980438232422 84.76224517822266 63.32095336914062 87.00345611572266 C 57.83573913574219 89.32350921630859 52.00812911987305 90.49987030029297 46.00000762939453 90.49987030029297 Z" stroke="none"/>
                                      <path d="M 46.00000762939453 2.999992370605469 C 40.19372177124023 2.999992370605469 34.56270599365234 4.136489868164062 29.26339340209961 6.377906799316406 C 24.14333343505859 8.543502807617188 19.54443359375 11.64437866210938 15.59442138671875 15.59437561035156 C 11.6444091796875 19.54439544677734 8.543533325195312 24.14329528808594 6.377937316894531 29.26333618164062 C 4.136505126953125 34.56264877319336 3.000007629394531 40.19366455078125 3.000007629394531 45.99993515014648 C 3.000007629394531 51.80620574951172 4.136505126953125 57.43720626831055 6.377937316894531 62.73651885986328 C 8.543533325195312 67.8565673828125 11.6444091796875 72.45545959472656 15.59442138671875 76.40547943115234 C 19.54443359375 80.35547637939453 24.14333343505859 83.45635223388672 29.26339340209961 85.6219482421875 C 34.56270599365234 87.86336517333984 40.19372177124023 88.99986267089844 46.00000762939453 88.99986267089844 C 51.80629348754883 88.99986267089844 57.43730926513672 87.86336517333984 62.73663711547852 85.6219482421875 C 67.85668182373047 83.45635223388672 72.45559692382812 80.35547637939453 76.40560913085938 76.40547943115234 C 80.35560607910156 72.45545959472656 83.45649719238281 67.8565673828125 85.62209320068359 62.73651885986328 C 87.86351013183594 57.43720626831055 89.00000762939453 51.80620574951172 89.00000762939453 45.99993515014648 C 89.00000762939453 40.19366455078125 87.86351013183594 34.56264877319336 85.62209320068359 29.26333618164062 C 83.45649719238281 24.14329528808594 80.35560607910156 19.54439544677734 76.40560913085938 15.59437561035156 C 72.45559692382812 11.64437866210938 67.85668182373047 8.543502807617188 62.73663711547852 6.377906799316406 C 57.43730926513672 4.136489868164062 51.80629348754883 2.999992370605469 46.00000762939453 2.999992370605469 M 46.00000762939453 -7.62939453125e-06 C 71.40510559082031 -7.62939453125e-06 92.00000762939453 20.59486389160156 92.00000762939453 45.99993515014648 C 92.00000762939453 71.40499114990234 71.40510559082031 91.99986267089844 46.00000762939453 91.99986267089844 C 20.59492492675781 91.99986267089844 7.62939453125e-06 71.40499114990234 7.62939453125e-06 45.99993515014648 C 7.62939453125e-06 20.59486389160156 20.59492492675781 -7.62939453125e-06 46.00000762939453 -7.62939453125e-06 Z" stroke="none" fill="#4a665c"/>
                                    </g>
                                  </g>
                                </g>
                              </g>
                            </g>
                          </g>
                        </g>
                      </g>
                    </g>
                  </g>
                </g>
              </g>
            </g>
          </g>
        </g>
      </g>
    </g>
    <g id="hablar_2_" data-name="hablar (2)" transform="translate(821.045 2336.317)">
      <path id="Trazado_1049682" data-name="Trazado 1049682" d="M35.356,195.559H13.581a3.591,3.591,0,0,0-3.58,3.58v11.5a3.591,3.591,0,0,0,3.58,3.58h4.335l6.553,6.553v-6.553H35.356a3.591,3.591,0,0,0,3.58-3.58v-11.5a3.591,3.591,0,0,0-3.58-3.58Zm0,0" transform="translate(-8.752 -171.148)" fill="#c0f4f1" fill-rule="evenodd"/>
      <path id="Trazado_1049683" data-name="Trazado 1049683" d="M127.347,10h35.744a5.9,5.9,0,0,1,5.878,5.878V34.76a5.9,5.9,0,0,1-5.878,5.878h-7.115L145.22,51.395V40.638H127.347a5.9,5.9,0,0,1-5.878-5.878V15.878A5.9,5.9,0,0,1,127.347,10Zm0,0" transform="translate(-106.307 -8.751)" fill="#39ddd2" fill-rule="evenodd"/>
      <path id="Trazado_1049684" data-name="Trazado 1049684" d="M62.662,20.313a1.248,1.248,0,0,0-1.248,1.248v4.448a4.635,4.635,0,0,1-4.63,4.63H49.669a1.25,1.25,0,0,0-.883.365L40.161,39.63V31.887a1.248,1.248,0,0,0-1.248-1.248H21.04a4.635,4.635,0,0,1-4.63-4.63V7.127A4.635,4.635,0,0,1,21.04,2.5H56.784a4.635,4.635,0,0,1,4.63,4.629v4.448a1.248,1.248,0,1,0,2.5,0V7.127A7.134,7.134,0,0,0,56.784,0H21.04a7.134,7.134,0,0,0-7.126,7.126V23.163H4.828A4.834,4.834,0,0,0,0,27.992V39.5a4.834,4.834,0,0,0,4.829,4.829H8.646l6.187,6.187a1.249,1.249,0,0,0,2.131-.883v-5.3H26.6A4.834,4.834,0,0,0,31.432,39.5V33.136h6.232v9.508a1.248,1.248,0,0,0,2.131.883L50.186,33.136h6.6a7.134,7.134,0,0,0,7.126-7.126V21.561a1.249,1.249,0,0,0-1.248-1.248ZM28.936,39.495A2.335,2.335,0,0,1,26.6,41.827H15.716a1.248,1.248,0,0,0-1.248,1.248v3.539l-4.422-4.422a1.248,1.248,0,0,0-.883-.366H4.828A2.335,2.335,0,0,1,2.5,39.495v-11.5A2.335,2.335,0,0,1,4.828,25.66h9.085v.35a7.134,7.134,0,0,0,7.126,7.126h7.9Zm0,0"/>
      <path id="Trazado_1049685" data-name="Trazado 1049685" d="M229.823,65.531H205.482a1.248,1.248,0,0,0,0,2.5h24.341a1.248,1.248,0,1,0,0-2.5Zm0,0" transform="translate(-178.741 -57.351)"/>
      <path id="Trazado_1049686" data-name="Trazado 1049686" d="M231.072,120.783a1.248,1.248,0,0,0-1.248-1.248H205.482a1.248,1.248,0,1,0,0,2.5h24.341A1.248,1.248,0,0,0,231.072,120.783Zm0,0" transform="translate(-178.741 -104.613)"/>
      <path id="Trazado_1049687" data-name="Trazado 1049687" d="M205.482,173.535a1.248,1.248,0,0,0,0,2.5h14.043a1.248,1.248,0,0,0,0-2.5Zm0,0" transform="translate(-178.741 -151.873)"/>
      <path id="Trazado_1049688" data-name="Trazado 1049688" d="M493.248,122.723a1.248,1.248,0,1,0,1.248,1.248A1.251,1.251,0,0,0,493.248,122.723Zm0,0" transform="translate(-430.586 -107.403)"/>
    </g>
  </g>
</svg>
