<svg xmlns="http://www.w3.org/2000/svg" xmlns:xlink="http://www.w3.org/1999/xlink" width="110" height="110" viewBox="0 0 110 110">
  <defs>
    <filter id="Trazado_982547" x="0" y="0" width="110" height="110" filterUnits="userSpaceOnUse">
      <feOffset dy="3" input="SourceAlpha"/>
      <feGaussianBlur stdDeviation="3" result="blur"/>
      <feFlood flood-opacity="0.161"/>
      <feComposite operator="in" in2="blur"/>
      <feComposite in="SourceGraphic"/>
    </filter>
  </defs>
  <g id="Grupo_1202280" data-name="Grupo 1202280" transform="translate(-10268 -2310)">
    <g id="Grupo_1201489" data-name="Grupo 1201489" transform="translate(9470 882.687)">
      <g id="Grupo_1179215" data-name="Grupo 1179215" transform="translate(1 -2794.687)">
        <g id="Grupo_1171898" data-name="Grupo 1171898" transform="translate(806 4228)">
          <g id="Grupo_1164700" data-name="Grupo 1164700" transform="translate(0 0)">
            <g id="Grupo_1160931" data-name="Grupo 1160931" transform="translate(0 0)">
              <g id="Grupo_1160749" data-name="Grupo 1160749" transform="translate(0 0)">
                <g id="Grupo_1158891" data-name="Grupo 1158891" transform="translate(0 0)">
                  <g id="Grupo_1157406" data-name="Grupo 1157406" transform="translate(0 0)">
                    <g id="Grupo_1155793" data-name="Grupo 1155793">
                      <g id="Grupo_1154704" data-name="Grupo 1154704">
                        <g id="Grupo_1150790" data-name="Grupo 1150790">
                          <g id="Grupo_1154214" data-name="Grupo 1154214">
                            <g id="Grupo_1152583" data-name="Grupo 1152583">
                              <g id="Grupo_1146973" data-name="Grupo 1146973">
                                <g id="Grupo_1146954" data-name="Grupo 1146954">
                                  <g transform="matrix(1, 0, 0, 1, -9, -6)" filter="url(#Trazado_982547)">
                                    <g id="Trazado_982547-2" data-name="Trazado 982547" transform="translate(9 6)" fill="#f2f7f5">
                                      <path d="M 46.00000762939453 90.49987030029297 C 39.99188613891602 90.49987030029297 34.16427612304688 89.32350921630859 28.67906188964844 87.00345611572266 C 23.38020706176758 84.76224517822266 18.62104797363281 81.55341339111328 14.53375434875488 77.46613311767578 C 10.44647407531738 73.37885284423828 7.237647533416748 68.61969757080078 4.996420860290527 63.32085418701172 C 2.676367521286011 57.83565521240234 1.500007629394531 52.008056640625 1.500007629394531 45.99993515014648 C 1.500007629394531 39.99181365966797 2.676367521286011 34.16421508789062 4.996420860290527 28.67901420593262 C 7.237647533416748 23.38017463684082 10.44647407531738 18.62101554870605 14.53375434875488 14.53373527526855 C 18.62104797363281 10.44645500183105 23.38020706176758 7.23762845993042 28.67906188964844 4.996415138244629 C 34.16427612304688 2.676361799240112 39.99188613891602 1.500001788139343 46.00000762939453 1.500001788139343 C 52.00812911987305 1.500001788139343 57.83573913574219 2.676361799240112 63.32095336914062 4.996415138244629 C 68.61980438232422 7.23762845993042 73.37896728515625 10.44645500183105 77.46626281738281 14.53373527526855 C 81.55354309082031 18.62101554870605 84.76236724853516 23.38017463684082 87.00359344482422 28.67901420593262 C 89.32364654541016 34.16421508789062 90.50000762939453 39.99181365966797 90.50000762939453 45.99993515014648 C 90.50000762939453 52.008056640625 89.32364654541016 57.83565521240234 87.00359344482422 63.32085418701172 C 84.76236724853516 68.61969757080078 81.55354309082031 73.37885284423828 77.46626281738281 77.46613311767578 C 73.37896728515625 81.55341339111328 68.61980438232422 84.76224517822266 63.32095336914062 87.00345611572266 C 57.83573913574219 89.32350921630859 52.00812911987305 90.49987030029297 46.00000762939453 90.49987030029297 Z" stroke="none"/>
                                      <path d="M 46.00000762939453 2.999992370605469 C 40.19372177124023 2.999992370605469 34.56270599365234 4.136489868164062 29.26339340209961 6.377906799316406 C 24.14333343505859 8.543502807617188 19.54443359375 11.64437866210938 15.59442138671875 15.59437561035156 C 11.6444091796875 19.54439544677734 8.543533325195312 24.14329528808594 6.377937316894531 29.26333618164062 C 4.136505126953125 34.56264877319336 3.000007629394531 40.19366455078125 3.000007629394531 45.99993515014648 C 3.000007629394531 51.80620574951172 4.136505126953125 57.43720626831055 6.377937316894531 62.73651885986328 C 8.543533325195312 67.8565673828125 11.6444091796875 72.45545959472656 15.59442138671875 76.40547943115234 C 19.54443359375 80.35547637939453 24.14333343505859 83.45635223388672 29.26339340209961 85.6219482421875 C 34.56270599365234 87.86336517333984 40.19372177124023 88.99986267089844 46.00000762939453 88.99986267089844 C 51.80629348754883 88.99986267089844 57.43730926513672 87.86336517333984 62.73663711547852 85.6219482421875 C 67.85668182373047 83.45635223388672 72.45559692382812 80.35547637939453 76.40560913085938 76.40547943115234 C 80.35560607910156 72.45545959472656 83.45649719238281 67.8565673828125 85.62209320068359 62.73651885986328 C 87.86351013183594 57.43720626831055 89.00000762939453 51.80620574951172 89.00000762939453 45.99993515014648 C 89.00000762939453 40.19366455078125 87.86351013183594 34.56264877319336 85.62209320068359 29.26333618164062 C 83.45649719238281 24.14329528808594 80.35560607910156 19.54439544677734 76.40560913085938 15.59437561035156 C 72.45559692382812 11.64437866210938 67.85668182373047 8.543502807617188 62.73663711547852 6.377906799316406 C 57.43730926513672 4.136489868164062 51.80629348754883 2.999992370605469 46.00000762939453 2.999992370605469 M 46.00000762939453 -7.62939453125e-06 C 71.40510559082031 -7.62939453125e-06 92.00000762939453 20.59486389160156 92.00000762939453 45.99993515014648 C 92.00000762939453 71.40499114990234 71.40510559082031 91.99986267089844 46.00000762939453 91.99986267089844 C 20.59492492675781 91.99986267089844 7.62939453125e-06 71.40499114990234 7.62939453125e-06 45.99993515014648 C 7.62939453125e-06 20.59486389160156 20.59492492675781 -7.62939453125e-06 46.00000762939453 -7.62939453125e-06 Z" stroke="none" fill="#4a665c"/>
                                    </g>
                                  </g>
                                </g>
                              </g>
                            </g>
                          </g>
                        </g>
                      </g>
                    </g>
                  </g>
                </g>
              </g>
            </g>
          </g>
        </g>
      </g>
    </g>
    <g id="database" transform="translate(10293 2331)">
      <path id="Trazado_1049693" data-name="Trazado 1049693" d="M36.921,28v9.422c0,2.6-7.594,4.711-16.96,4.711S3,40.023,3,37.422V28c0,2.6,7.594,4.711,16.96,4.711S36.921,30.6,36.921,28Z" transform="translate(-0.058 -1.502)" fill="#c0ab91"/>
      <path id="Trazado_1049694" data-name="Trazado 1049694" d="M59.729,29.191v5.653l-4.3.716a12.33,12.33,0,0,1-.923,2.243l2.525,3.543-4,4L50.034,43.2a1.9,1.9,0,0,0,1.215-1.762V33.9a1.856,1.856,0,0,0-.1-.612,8.083,8.083,0,0,0,.1-1.272A7.538,7.538,0,0,0,39,26.138V20.711a12.258,12.258,0,0,1,1.168-.415l.716-4.3h5.653l.716,4.3a12.33,12.33,0,0,1,2.243.923l3.543-2.525,4,4-2.525,3.543a12.33,12.33,0,0,1,.923,2.243Z" transform="translate(-2.137 -0.809)" fill="#ffeb99"/>
      <rect id="Rect치ngulo_416957" data-name="Rect치ngulo 416957" width="38" height="11" rx="2" transform="translate(11.534 46.534)" fill="#57a4ff"/>
      <path id="Trazado_1049695" data-name="Trazado 1049695" d="M51.653,50.884v7.538a1.89,1.89,0,0,1-1.884,1.884H46a1.89,1.89,0,0,0,1.884-1.884V50.884A1.89,1.89,0,0,0,46,49h3.769A1.89,1.89,0,0,1,51.653,50.884Z" transform="translate(-2.542 -2.715)" fill="#2488ff"/>
      <path id="Trazado_1049696" data-name="Trazado 1049696" d="M51.249,32.538a8.084,8.084,0,0,1-.1,1.272,1.9,1.9,0,0,0-1.781-1.272H39v-5.88a7.538,7.538,0,0,1,12.249,5.88Z" transform="translate(-2.137 -1.329)" fill="#c6c5ca"/>
      <path id="Trazado_1049697" data-name="Trazado 1049697" d="M51.424,32.538a8.084,8.084,0,0,1-.1,1.272,1.9,1.9,0,0,0-1.781-1.272H47.655a7.554,7.554,0,0,0-5.635-7.3,7.538,7.538,0,0,1,9.4,7.3Z" transform="translate(-2.312 -1.329)" fill="#acabb1"/>
      <path id="Trazado_1049698" data-name="Trazado 1049698" d="M42,45h5.653v3.769H42Z" transform="translate(-2.311 -2.484)" fill="#c6c5ca"/>
      <path id="Trazado_1049699" data-name="Trazado 1049699" d="M36.921,18v9.422c0,2.6-7.594,4.711-16.96,4.711S3,30.023,3,27.422V18c0,2.6,7.594,4.711,16.96,4.711S36.921,20.6,36.921,18Z" transform="translate(-0.058 -0.924)" fill="#c0ab91"/>
      <path id="Trazado_1049700" data-name="Trazado 1049700" d="M36.921,8v9.422c0,2.6-7.594,4.711-16.96,4.711S3,20.023,3,17.422V8c0,2.6,7.594,4.711,16.96,4.711S36.921,10.6,36.921,8Z" transform="translate(-0.058 -0.347)" fill="#c0ab91"/>
      <ellipse id="Elipse_14312" data-name="Elipse 14312" cx="17" cy="5" rx="17" ry="5" transform="translate(2.534 2.534)" fill="#ffcd00"/>
      <g id="Grupo_1202279" data-name="Grupo 1202279" transform="translate(18.018 7.653)">
        <path id="Trazado_1049701" data-name="Trazado 1049701" d="M37.845,28v9.422c0,2.6-7.594,4.711-16.96,4.711-.641,0-1.263-.009-1.884-.038,8.48-.254,15.076-2.252,15.076-4.673V30.959C36.431,30.148,37.845,29.121,37.845,28Z" transform="translate(-19 -9.155)" fill="#b39a7c"/>
        <path id="Trazado_1049702" data-name="Trazado 1049702" d="M38.769,18v9.422c0,1.121-1.413,2.148-3.769,2.959V20.959C37.356,20.148,38.769,19.121,38.769,18Z" transform="translate(-19.924 -8.578)" fill="#b39a7c"/>
        <path id="Trazado_1049703" data-name="Trazado 1049703" d="M38.769,8v9.422c0,1.121-1.413,2.148-3.769,2.959V10.959c2.356-.81,3.769-1.837,3.769-2.959Z" transform="translate(-19.924 -8)" fill="#b39a7c"/>
      </g>
      <path id="Trazado_1049704" data-name="Trazado 1049704" d="M37.845,7.711c0,2.6-7.594,4.711-16.96,4.711-.641,0-1.263-.009-1.884-.038,8.48-.254,15.076-2.252,15.076-4.673S27.48,3.292,19,3.038C19.622,3.009,20.244,3,20.884,3,30.25,3,37.845,5.111,37.845,7.711Z" transform="translate(-0.982 -0.058)" fill="#ebbf00"/>
      <path id="Trazado_1049705" data-name="Trazado 1049705" d="M24,53h3.769v3.769H24Z" transform="translate(-1.271 -2.946)" fill="#ffeb99"/>
      <rect id="Rect치ngulo_416958" data-name="Rect치ngulo 416958" width="38" height="11" rx="2" transform="translate(11.534 31.534)" fill="#57a4ff"/>
      <path id="Trazado_1049706" data-name="Trazado 1049706" d="M51.653,34.884v7.538a1.89,1.89,0,0,1-1.884,1.884H46a1.89,1.89,0,0,0,1.884-1.884V34.884A1.89,1.89,0,0,0,46,33h3.769A1.89,1.89,0,0,1,51.653,34.884Z" transform="translate(-2.542 -1.791)" fill="#2488ff"/>
      <path id="Trazado_1049707" data-name="Trazado 1049707" d="M24,37h3.769v3.769H24Z" transform="translate(-1.271 -2.022)" fill="#ffeb99"/>
      <path id="Trazado_1049708" data-name="Trazado 1049708" d="M16,45h5.653v3.769H16Z" transform="translate(-0.809 -2.484)" fill="#c6c5ca"/>
      <path id="Trazado_1049709" data-name="Trazado 1049709" d="M16,53h3.769v3.769H16Z" transform="translate(-0.809 -2.946)" fill="#ffeb99"/>
      <path id="Trazado_1049710" data-name="Trazado 1049710" d="M16,37h3.769v3.769H16Z" transform="translate(-0.809 -2.022)" fill="#ffeb99"/>
      <path id="Trazado_1049711" data-name="Trazado 1049711" d="M19.711,36H15.942a.942.942,0,0,0-.942.942v3.769a.942.942,0,0,0,.942.942h3.769a.942.942,0,0,0,.942-.942V36.942A.942.942,0,0,0,19.711,36Zm-.942,3.769H16.884V37.884h1.884Z" transform="translate(-0.751 -1.964)"/>
      <path id="Trazado_1049712" data-name="Trazado 1049712" d="M27.711,36H23.942a.942.942,0,0,0-.942.942v3.769a.942.942,0,0,0,.942.942h3.769a.942.942,0,0,0,.942-.942V36.942A.942.942,0,0,0,27.711,36Zm-.942,3.769H24.884V37.884h1.884Z" transform="translate(-1.213 -1.964)"/>
      <path id="Trazado_1049713" data-name="Trazado 1049713" d="M31,36H44.191v1.884H31Z" transform="translate(-1.675 -1.964)"/>
      <path id="Trazado_1049714" data-name="Trazado 1049714" d="M47,36h1.884v1.884H47Z" transform="translate(-2.599 -1.964)"/>
      <path id="Trazado_1049715" data-name="Trazado 1049715" d="M31,40H44.191v1.884H31Z" transform="translate(-1.675 -2.195)"/>
      <path id="Trazado_1049716" data-name="Trazado 1049716" d="M47,40h1.884v1.884H47Z" transform="translate(-2.599 -2.195)"/>
      <path id="Trazado_1049717" data-name="Trazado 1049717" d="M15.942,57.653h3.769a.942.942,0,0,0,.942-.942V52.942A.942.942,0,0,0,19.711,52H15.942a.942.942,0,0,0-.942.942v3.769A.942.942,0,0,0,15.942,57.653Zm.942-3.769h1.884v1.884H16.884Z" transform="translate(-0.751 -2.888)"/>
      <path id="Trazado_1049718" data-name="Trazado 1049718" d="M23.942,57.653h3.769a.942.942,0,0,0,.942-.942V52.942A.942.942,0,0,0,27.711,52H23.942a.942.942,0,0,0-.942.942v3.769A.942.942,0,0,0,23.942,57.653Zm.942-3.769h1.884v1.884H24.884Z" transform="translate(-1.213 -2.888)"/>
      <path id="Trazado_1049719" data-name="Trazado 1049719" d="M31,52H44.191v1.884H31Z" transform="translate(-1.675 -2.888)"/>
      <path id="Trazado_1049720" data-name="Trazado 1049720" d="M47,52h1.884v1.884H47Z" transform="translate(-2.599 -2.888)"/>
      <path id="Trazado_1049721" data-name="Trazado 1049721" d="M31,56H44.191v1.884H31Z" transform="translate(-1.675 -3.119)"/>
      <path id="Trazado_1049722" data-name="Trazado 1049722" d="M47,56h1.884v1.884H47Z" transform="translate(-2.599 -3.119)"/>
      <path id="Trazado_1049723" data-name="Trazado 1049723" d="M57.743,27.45l-3.731-.622a10.79,10.79,0,0,0-.546-1.319l2.2-3.081a.942.942,0,0,0-.094-1.215l-4-4a.942.942,0,0,0-1.215-.094l-3.081,2.2a13.4,13.4,0,0,0-1.319-.546l-.622-3.731a.942.942,0,0,0-.933-.791H38.747a.942.942,0,0,0-.933.791l-.009.075V7.653C37.8,3.941,28.8,2,19.9,2S2,3.941,2,7.653V35.921c0,2.855,5.013,4.249,8.5,4.881a2.818,2.818,0,0,0,2.808,2.657h.942v1.884h-.942A2.835,2.835,0,0,0,10.48,48.17v7.538a2.835,2.835,0,0,0,2.827,2.827H47.227a2.835,2.835,0,0,0,2.827-2.827V48.17a2.835,2.835,0,0,0-2.827-2.827h-.942V43.458h.942a2.576,2.576,0,0,0,.471-.047l2.657,1.894a.982.982,0,0,0,.546.17.965.965,0,0,0,.669-.273l4-4a.942.942,0,0,0,.094-1.215l-2.2-3.081a10.79,10.79,0,0,0,.547-1.319l3.731-.622a.942.942,0,0,0,.791-.933V28.383a.942.942,0,0,0-.791-.933ZM37.8,25.829a6.557,6.557,0,0,1,10.317,4.6,2.838,2.838,0,0,0-.9-.16H37.8ZM19.9,3.884c10.365,0,16.018,2.488,16.018,3.769S30.267,11.422,19.9,11.422,3.884,8.935,3.884,7.653,9.538,3.884,19.9,3.884ZM3.884,10.311c3.1,1.969,9.573,3,16.018,3s12.918-1.027,16.018-3v6.765c0,1.281-5.653,3.769-16.018,3.769S3.884,18.357,3.884,17.076Zm6.6,22.783v5.785c-4.777-.9-6.6-2.271-6.6-2.959V29.155a20.241,20.241,0,0,0,7.123,2.3,2.813,2.813,0,0,0-.528,1.639Zm-6.6-6.6V19.733c3.1,1.969,9.573,3,16.018,3s12.918-1.027,16.018-3V26.5c0,1.281-5.653,3.769-16.018,3.769S3.884,27.78,3.884,26.5Zm32.036,2.657v1.112H33.584a11.749,11.749,0,0,0,2.337-1.112ZM47.227,47.227a.942.942,0,0,1,.942.942v7.538a.942.942,0,0,1-.942.942H13.307a.942.942,0,0,1-.942-.942V48.17a.942.942,0,0,1,.942-.942ZM16.134,45.343V43.458H19.9v1.884Zm5.653,0V43.458h16.96v1.884Zm18.845,0V43.458H44.4v1.884Zm7.538-4.711a.942.942,0,0,1-.942.942H13.307a.942.942,0,0,1-.942-.942V33.094a.942.942,0,0,1,.942-.942H47.227a.942.942,0,0,1,.942.942Zm8.48-7.4-3.505.584a.966.966,0,0,0-.754.66,11.128,11.128,0,0,1-.848,2.073.92.92,0,0,0,.066.989l2.054,2.893L50.8,43.3l-1.338-.952a2.8,2.8,0,0,0,.594-1.715V33.094a2.68,2.68,0,0,0-.094-.678,8.78,8.78,0,0,0,.094-1.206A8.461,8.461,0,0,0,37.8,23.624V20.571a4.643,4.643,0,0,1,.509-.179.969.969,0,0,0,.65-.754l.584-3.505H43.6l.584,3.505a.966.966,0,0,0,.66.754,11.4,11.4,0,0,1,2.073.848.942.942,0,0,0,.989-.066L50.8,19.12l2.864,2.864-2.054,2.893a.92.92,0,0,0-.066.989,11.128,11.128,0,0,1,.848,2.073.966.966,0,0,0,.754.66l3.505.584Z" transform="translate(0 0)"/>
      <path id="Trazado_1049724" data-name="Trazado 1049724" d="M5.884,48H4v7.538a.942.942,0,0,0,.942.942H8.711V54.6H5.884Z" transform="translate(-0.116 -2.657)"/>
      <path id="Trazado_1049725" data-name="Trazado 1049725" d="M60.076,4H45V5.884H59.134v9.032l-2.551,2.551L57.915,18.8l2.827-2.827a.942.942,0,0,0,.276-.666V4.942A.942.942,0,0,0,60.076,4Z" transform="translate(-2.484 -0.116)"/>
      <path id="Trazado_1049726" data-name="Trazado 1049726" d="M41,4h1.884V5.884H41Z" transform="translate(-2.253 -0.116)"/>
      <path id="Trazado_1049727" data-name="Trazado 1049727" d="M4,44H5.884v1.884H4Z" transform="translate(-0.116 -2.426)"/>
    </g>
  </g>
</svg>
