<svg xmlns="http://www.w3.org/2000/svg" xmlns:xlink="http://www.w3.org/1999/xlink" width="110" height="110" viewBox="0 0 110 110">
  <defs>
    <filter id="Trazado_982547" x="0" y="0" width="110" height="110" filterUnits="userSpaceOnUse">
      <feOffset dy="3" input="SourceAlpha"/>
      <feGaussianBlur stdDeviation="3" result="blur"/>
      <feFlood flood-opacity="0.161"/>
      <feComposite operator="in" in2="blur"/>
      <feComposite in="SourceGraphic"/>
    </filter>
  </defs>
  <g id="Grupo_1202282" data-name="Grupo 1202282" transform="translate(-10584 -2309.512)">
    <g id="Grupo_1201490" data-name="Grupo 1201490" transform="translate(9470 882.442)">
      <g id="Grupo_1179216" data-name="Grupo 1179216" transform="translate(1 -2794.687)">
        <g id="Grupo_1172349" data-name="Grupo 1172349" transform="translate(1122 4227.757)">
          <g id="Grupo_1164700" data-name="Grupo 1164700" transform="translate(0 0)">
            <g id="Grupo_1160931" data-name="Grupo 1160931" transform="translate(0 0)">
              <g id="Grupo_1160749" data-name="Grupo 1160749" transform="translate(0 0)">
                <g id="Grupo_1158891" data-name="Grupo 1158891" transform="translate(0 0)">
                  <g id="Grupo_1157406" data-name="Grupo 1157406" transform="translate(0 0)">
                    <g id="Grupo_1155793" data-name="Grupo 1155793">
                      <g id="Grupo_1154704" data-name="Grupo 1154704">
                        <g id="Grupo_1150790" data-name="Grupo 1150790">
                          <g id="Grupo_1154214" data-name="Grupo 1154214">
                            <g id="Grupo_1152583" data-name="Grupo 1152583">
                              <g id="Grupo_1146973" data-name="Grupo 1146973">
                                <g id="Grupo_1146954" data-name="Grupo 1146954">
                                  <g transform="matrix(1, 0, 0, 1, -9, -6)" filter="url(#Trazado_982547)">
                                    <g id="Trazado_982547-2" data-name="Trazado 982547" transform="translate(9 6)" fill="#f2f7f5">
                                      <path d="M 46.00000762939453 90.49987030029297 C 39.99188613891602 90.49987030029297 34.16427612304688 89.32350921630859 28.67906188964844 87.00345611572266 C 23.38020706176758 84.76224517822266 18.62104797363281 81.55341339111328 14.53375434875488 77.46613311767578 C 10.44647407531738 73.37885284423828 7.237647533416748 68.61969757080078 4.996420860290527 63.32085418701172 C 2.676367521286011 57.83565521240234 1.500007629394531 52.008056640625 1.500007629394531 45.99993515014648 C 1.500007629394531 39.99181365966797 2.676367521286011 34.16421508789062 4.996420860290527 28.67901420593262 C 7.237647533416748 23.38017463684082 10.44647407531738 18.62101554870605 14.53375434875488 14.53373527526855 C 18.62104797363281 10.44645500183105 23.38020706176758 7.23762845993042 28.67906188964844 4.996415138244629 C 34.16427612304688 2.676361799240112 39.99188613891602 1.500001788139343 46.00000762939453 1.500001788139343 C 52.00812911987305 1.500001788139343 57.83573913574219 2.676361799240112 63.32095336914062 4.996415138244629 C 68.61980438232422 7.23762845993042 73.37896728515625 10.44645500183105 77.46626281738281 14.53373527526855 C 81.55354309082031 18.62101554870605 84.76236724853516 23.38017463684082 87.00359344482422 28.67901420593262 C 89.32364654541016 34.16421508789062 90.50000762939453 39.99181365966797 90.50000762939453 45.99993515014648 C 90.50000762939453 52.008056640625 89.32364654541016 57.83565521240234 87.00359344482422 63.32085418701172 C 84.76236724853516 68.61969757080078 81.55354309082031 73.37885284423828 77.46626281738281 77.46613311767578 C 73.37896728515625 81.55341339111328 68.61980438232422 84.76224517822266 63.32095336914062 87.00345611572266 C 57.83573913574219 89.32350921630859 52.00812911987305 90.49987030029297 46.00000762939453 90.49987030029297 Z" stroke="none"/>
                                      <path d="M 46.00000762939453 2.999992370605469 C 40.19372177124023 2.999992370605469 34.56270599365234 4.136489868164062 29.26339340209961 6.377906799316406 C 24.14333343505859 8.543502807617188 19.54443359375 11.64437866210938 15.59442138671875 15.59437561035156 C 11.6444091796875 19.54439544677734 8.543533325195312 24.14329528808594 6.377937316894531 29.26333618164062 C 4.136505126953125 34.56264877319336 3.000007629394531 40.19366455078125 3.000007629394531 45.99993515014648 C 3.000007629394531 51.80620574951172 4.136505126953125 57.43720626831055 6.377937316894531 62.73651885986328 C 8.543533325195312 67.8565673828125 11.6444091796875 72.45545959472656 15.59442138671875 76.40547943115234 C 19.54443359375 80.35547637939453 24.14333343505859 83.45635223388672 29.26339340209961 85.6219482421875 C 34.56270599365234 87.86336517333984 40.19372177124023 88.99986267089844 46.00000762939453 88.99986267089844 C 51.80629348754883 88.99986267089844 57.43730926513672 87.86336517333984 62.73663711547852 85.6219482421875 C 67.85668182373047 83.45635223388672 72.45559692382812 80.35547637939453 76.40560913085938 76.40547943115234 C 80.35560607910156 72.45545959472656 83.45649719238281 67.8565673828125 85.62209320068359 62.73651885986328 C 87.86351013183594 57.43720626831055 89.00000762939453 51.80620574951172 89.00000762939453 45.99993515014648 C 89.00000762939453 40.19366455078125 87.86351013183594 34.56264877319336 85.62209320068359 29.26333618164062 C 83.45649719238281 24.14329528808594 80.35560607910156 19.54439544677734 76.40560913085938 15.59437561035156 C 72.45559692382812 11.64437866210938 67.85668182373047 8.543502807617188 62.73663711547852 6.377906799316406 C 57.43730926513672 4.136489868164062 51.80629348754883 2.999992370605469 46.00000762939453 2.999992370605469 M 46.00000762939453 -7.62939453125e-06 C 71.40510559082031 -7.62939453125e-06 92.00000762939453 20.59486389160156 92.00000762939453 45.99993515014648 C 92.00000762939453 71.40499114990234 71.40510559082031 91.99986267089844 46.00000762939453 91.99986267089844 C 20.59492492675781 91.99986267089844 7.62939453125e-06 71.40499114990234 7.62939453125e-06 45.99993515014648 C 7.62939453125e-06 20.59486389160156 20.59492492675781 -7.62939453125e-06 46.00000762939453 -7.62939453125e-06 Z" stroke="none" fill="#4a665c"/>
                                    </g>
                                  </g>
                                </g>
                              </g>
                            </g>
                          </g>
                        </g>
                      </g>
                    </g>
                  </g>
                </g>
              </g>
            </g>
          </g>
        </g>
      </g>
    </g>
    <g id="checklist-arrow-direction-button-pointer" transform="translate(10607 2330)">
      <circle id="Elipse_14313" data-name="Elipse 14313" cx="29" cy="29" r="29" transform="translate(3 3)" fill="#006df0"/>
      <path id="Trazado_1049728" data-name="Trazado 1049728" d="M32,3A29,29,0,0,0,11.494,52.506L52.506,11.494A28.909,28.909,0,0,0,32,3Z" fill="#2488ff"/>
      <path id="Trazado_1049729" data-name="Trazado 1049729" d="M50.213,20.444a4,4,0,0,0-5.655,0L29,36l-5.657-5.657A4,4,0,0,0,17.686,36l8.486,8.485a4,4,0,0,0,5.653,0L50.217,26.1a4,4,0,0,0,0-5.653Z" fill="#ffcd00"/>
      <g id="Grupo_1202281" data-name="Grupo 1202281">
        <path id="Trazado_1049730" data-name="Trazado 1049730" d="M32,62A30,30,0,1,1,62,32,30,30,0,0,1,32,62ZM32,4A28,28,0,1,0,60,32,28,28,0,0,0,32,4Z" fill="#231f20"/>
        <path id="Trazado_1049731" data-name="Trazado 1049731" d="M30,8.079a1,1,0,1,1-.078-2C30.61,6.028,31.31,6,32,6a1,1,0,1,1,0,2c-.638,0-1.285.025-1.921.076Z" fill="#231f20"/>
        <path id="Trazado_1049732" data-name="Trazado 1049732" d="M7,33a1,1,0,0,1-1-1A25.952,25.952,0,0,1,25.76,6.757,1,1,0,0,1,26.24,8.7,23.958,23.958,0,0,0,8,32a1,1,0,0,1-1,1Z" fill="#231f20"/>
        <path id="Trazado_1049733" data-name="Trazado 1049733" d="M29,46.655a4.986,4.986,0,0,1-3.537-1.463l-8.485-8.485a5,5,0,1,1,7.071-7.071L29,34.586,43.852,19.735A5,5,0,0,1,50.924,26.8L32.532,45.2A4.978,4.978,0,0,1,29,46.655ZM20.515,30.173a3,3,0,0,0-2.121,5.12l8.484,8.485a3,3,0,0,0,4.24,0L49.51,25.39a3,3,0,0,0-2.12-5.119,3.05,3.05,0,0,0-2.12.878L29.707,36.707a1,1,0,0,1-1.414,0L22.636,31.05a2.99,2.99,0,0,0-2.121-.877Z" fill="#231f20"/>
      </g>
    </g>
  </g>
</svg>
