<svg xmlns="http://www.w3.org/2000/svg" width="75.934" height="75.934" viewBox="0 0 75.934 75.934">
  <g id="Grupo_1202056" data-name="Grupo 1202056" transform="translate(-198 -2577.316)">
    <g id="Grupo_1201435" data-name="Grupo 1201435" transform="translate(0 -7005.971)">
      <g id="Grupo_1183001" data-name="Grupo 1183001" transform="translate(0 8919.287)">
        <g id="Grupo_1182333" data-name="Grupo 1182333" transform="translate(-0.033 -1122)">
          <g id="Grupo_1176309" data-name="Grupo 1176309" transform="translate(0 -206)">
            <g id="Grupo_1172970" data-name="Grupo 1172970" transform="translate(-1 -9042)">
              <g id="Grupo_1171971" data-name="Grupo 1171971" transform="translate(199.033 11034)">
                <g id="Grupo_1167337" data-name="Grupo 1167337">
                  <g id="Grupo_1166720" data-name="Grupo 1166720">
                    <g id="Grupo_1164305" data-name="Grupo 1164305">
                      <g id="Grupo_1163948" data-name="Grupo 1163948">
                        <g id="Grupo_1158168" data-name="Grupo 1158168">
                          <g id="Grupo_1152576" data-name="Grupo 1152576">
                            <g id="Grupo_1148633" data-name="Grupo 1148633">
                              <g id="Grupo_1148525" data-name="Grupo 1148525">
                                <g id="Trazado_982547" data-name="Trazado 982547">
                                  <path id="Trazado_1045808" data-name="Trazado 1045808" d="M37.967,74.434A36.477,36.477,0,0,1,23.773,4.365a36.477,36.477,0,0,1,28.388,67.2A36.239,36.239,0,0,1,37.967,74.434Z" fill="#f2f7f5"/>
                                  <path id="Trazado_1045809" data-name="Trazado 1045809" d="M37.967,3a34.977,34.977,0,0,0-13.61,67.187A34.977,34.977,0,0,0,51.576,5.747,34.745,34.745,0,0,0,37.967,3m0-3A37.967,37.967,0,1,1,0,37.967,37.967,37.967,0,0,1,37.967,0Z" fill="#4a665c"/>
                                </g>
                              </g>
                            </g>
                          </g>
                        </g>
                      </g>
                    </g>
                  </g>
                </g>
              </g>
            </g>
          </g>
        </g>
      </g>
    </g>
    <g id="redes-sociales_3_" data-name="redes-sociales (3)" transform="translate(211.806 2588.676)">
      <g id="Grupo_1202054" data-name="Grupo 1202054" transform="translate(0.7 3.398)">
        <g id="Grupo_1202042" data-name="Grupo 1202042" transform="translate(9.33)">
          <g id="Grupo_1202041" data-name="Grupo 1202041">
            <g id="Grupo_1202040" data-name="Grupo 1202040">
              <g id="Grupo_1202039" data-name="Grupo 1202039">
                <g id="Grupo_1202038" data-name="Grupo 1202038">
                  <path id="Trazado_1048915" data-name="Trazado 1048915" d="M132.425,56.614H111.131a3.736,3.736,0,0,1-3.736-3.736V13.933a3.736,3.736,0,0,1,3.736-3.736h21.294a3.736,3.736,0,0,1,3.736,3.736V52.878A3.736,3.736,0,0,1,132.425,56.614Z" transform="translate(-107.395 -10.197)" fill="#3d6d93"/>
                  <path id="Trazado_1048916" data-name="Trazado 1048916" d="M348.2,10.2h-2.8a3.736,3.736,0,0,1,3.736,3.736V52.878a3.736,3.736,0,0,1-3.736,3.736h2.8a3.736,3.736,0,0,0,3.736-3.736V13.933A3.736,3.736,0,0,0,348.2,10.2Z" transform="translate(-323.167 -10.197)" fill="#335e80"/>
                  <path id="Trazado_1048917" data-name="Trazado 1048917" d="M155.836,40.944a1.263,1.263,0,0,1-1.263,1.263H143.378a1.263,1.263,0,0,1-1.263-1.263.747.747,0,0,0-.747-.747H138.8a1.4,1.4,0,0,0-1.4,1.4V79.609a1.4,1.4,0,0,0,1.4,1.4h20.36a1.4,1.4,0,0,0,1.4-1.4V41.6a1.4,1.4,0,0,0-1.4-1.4h-2.573A.747.747,0,0,0,155.836,40.944Z" transform="translate(-134.593 -37.395)" fill="#f9f7f8"/>
                </g>
              </g>
            </g>
          </g>
        </g>
        <g id="Grupo_1202045" data-name="Grupo 1202045" transform="translate(0.504 5.1)">
          <g id="Grupo_1202043" data-name="Grupo 1202043">
            <circle id="Elipse_14288" data-name="Elipse 14288" cx="8.076" cy="8.076" r="8.076" transform="translate(0 0)" fill="#ffe179"/>
            <path id="Trazado_1048918" data-name="Trazado 1048918" d="M85.764,64.8a8.118,8.118,0,0,0-1.4.124,8.074,8.074,0,0,1,0,15.9,8.075,8.075,0,1,0,1.4-16.028Z" transform="translate(-77.688 -64.802)" fill="#fbd268"/>
          </g>
          <g id="Grupo_1202044" data-name="Grupo 1202044" transform="translate(3.873 3.873)">
            <path id="Trazado_1048919" data-name="Trazado 1048919" d="M61.367,114.675h-5.6a1.4,1.4,0,0,1-1.4-1.4v-5.6a1.4,1.4,0,0,1,1.4-1.4h5.6a1.4,1.4,0,0,1,1.4,1.4v5.6A1.4,1.4,0,0,1,61.367,114.675Z" transform="translate(-54.362 -106.27)" fill="#f58a97"/>
            <path id="Trazado_1048920" data-name="Trazado 1048920" d="M102.165,106.27h-2.8a1.4,1.4,0,0,1,1.4,1.4v5.6a1.4,1.4,0,0,1-1.4,1.4h2.8a1.4,1.4,0,0,0,1.4-1.4v-5.6A1.4,1.4,0,0,0,102.165,106.27Z" transform="translate(-95.16 -106.27)" fill="#f07281"/>
            <circle id="Elipse_14289" data-name="Elipse 14289" cx="1.401" cy="1.401" r="1.401" transform="translate(2.802 2.802)" fill="#fff"/>
          </g>
        </g>
        <g id="Grupo_1202047" data-name="Grupo 1202047" transform="translate(0 24.158)">
          <g id="Grupo_1202046" data-name="Grupo 1202046">
            <circle id="Elipse_14290" data-name="Elipse 14290" cx="8.076" cy="8.076" r="8.076" fill="#8fd8fa"/>
            <path id="Trazado_1048921" data-name="Trazado 1048921" d="M79.464,268.866a8.112,8.112,0,0,0-1.494.14,8.075,8.075,0,0,1,0,15.871,8.075,8.075,0,1,0,1.494-16.011Z" transform="translate(-71.388 -268.866)" fill="#6bcdfe"/>
          </g>
          <g id="Shape_2_" transform="translate(3.579 4.365)">
            <path id="Trazado_1048922" data-name="Trazado 1048922" d="M52.888,316.221a1.784,1.784,0,0,0-3.131,1.195v.4a4.246,4.246,0,0,1-3.322-1.468.239.239,0,0,0-.411.085,3.706,3.706,0,0,0,2.139,4.756,4.636,4.636,0,0,1-1.864.741c-.173.028-.087.346-.044.461.3.785,3.691,1.11,5.768-.6a5.446,5.446,0,0,0,1.8-3.341,3.672,3.672,0,0,0,.987-1.941.426.426,0,0,0-.611-.453,2.046,2.046,0,0,1-.448.156A2.086,2.086,0,0,1,52.888,316.221Z" transform="translate(-45.819 -315.608)" fill="#fff"/>
          </g>
        </g>
        <g id="Grupo_1202050" data-name="Grupo 1202050" transform="translate(30.77 24.158)">
          <g id="Grupo_1202048" data-name="Grupo 1202048">
            <circle id="Elipse_14291" data-name="Elipse 14291" cx="8.076" cy="8.076" r="8.076" transform="translate(0 0)" fill="#f58a97"/>
            <path id="Trazado_1048923" data-name="Trazado 1048923" d="M409.828,268.866a8.117,8.117,0,0,0-1.4.124,8.074,8.074,0,0,1,0,15.9,8.075,8.075,0,1,0,1.4-16.028Z" transform="translate(-401.752 -268.866)" fill="#f07281"/>
          </g>
          <g id="Grupo_1202049" data-name="Grupo 1202049" transform="translate(6.093 5.057)">
            <path id="Trazado_1048924" data-name="Trazado 1048924" d="M402.2,323.287a.271.271,0,0,1,.407-.235l4.911,2.837a.271.271,0,0,1,0,.47L402.6,329.2a.271.271,0,0,1-.407-.235Z" transform="translate(-402.196 -323.015)" fill="#fff"/>
          </g>
        </g>
        <g id="Grupo_1202052" data-name="Grupo 1202052" transform="translate(30.77 5.1)">
          <g id="Grupo_1202051" data-name="Grupo 1202051">
            <circle id="Elipse_14292" data-name="Elipse 14292" cx="8.076" cy="8.076" r="8.076" fill="#8fd8fa"/>
            <path id="Trazado_1048925" data-name="Trazado 1048925" d="M409.828,64.8a8.118,8.118,0,0,0-1.4.124,8.074,8.074,0,0,1,0,15.9,8.075,8.075,0,1,0,1.4-16.027Z" transform="translate(-401.752 -64.802)" fill="#6bcdfe"/>
          </g>
        </g>
        <path id="Trazado_1048926" data-name="Trazado 1048926" d="M201.83,198.261a5.645,5.645,0,0,0-5.192,7.462.645.645,0,0,1,0,.421l-.752,2.138a.374.374,0,0,0,.476.476l1.5-.529a.66.66,0,0,1,.628.109,5.644,5.644,0,1,0,3.339-10.078Z" transform="translate(-178.269 -180.695)" fill="#aee69c"/>
        <g id="Grupo_1202053" data-name="Grupo 1202053" transform="translate(22.307 17.564)">
          <path id="Trazado_1048927" data-name="Trazado 1048927" d="M247.6,198.261a5.577,5.577,0,0,0-1.247.176,5.643,5.643,0,0,1-.007,10.934,5.645,5.645,0,1,0,1.253-11.11Z" transform="translate(-246.35 -198.259)" fill="#89daa4"/>
        </g>
      </g>
      <g id="Grupo_1202055" data-name="Grupo 1202055" transform="translate(0 2.698)">
        <path id="Trazado_1048928" data-name="Trazado 1048928" d="M37.1,17.053h1.128v4.452a.7.7,0,0,0,1.4,0V17.053h1.128a.7.7,0,1,0,0-1.4H39.625V13.618a.71.71,0,0,1,.709-.709h1.66a.7.7,0,0,0,0-1.4h-1.66a2.113,2.113,0,0,0-2.11,2.11v2.035H37.1a.7.7,0,1,0,0,1.4ZM24.413,6.5a.7.7,0,1,0-.7-.7A.7.7,0,0,0,24.413,6.5ZM9.28,18.675a2.1,2.1,0,1,0-2.1-2.1A2.1,2.1,0,0,0,9.28,18.675Zm0-2.8a.7.7,0,1,1-.7.7A.7.7,0,0,1,9.28,15.873Zm2.8,5.6a2.1,2.1,0,0,0,2.1-2.1v-5.6a2.1,2.1,0,0,0-2.1-2.1h-5.6a2.1,2.1,0,0,0-2.1,2.1v5.6a2.1,2.1,0,0,0,2.1,2.1Zm-6.3-2.1v-5.6a.7.7,0,0,1,.7-.7h5.6a.7.7,0,0,1,.7.7v5.6a.7.7,0,0,1-.7.7h-5.6A.7.7,0,0,1,5.778,19.376Zm7.747,12.477a1.128,1.128,0,0,0-1.175-.112,1.36,1.36,0,0,1-.295.1,1.343,1.343,0,0,1-.376.03,2.485,2.485,0,0,0-4.142,1.511A3.529,3.529,0,0,1,5.425,32.2a.939.939,0,0,0-1.612.345,4.492,4.492,0,0,0,1.337,4.888c-.4.12-.846.111-1.076.512a1.2,1.2,0,0,0-.012,1.007,1.713,1.713,0,0,0,1.283.924,5.684,5.684,0,0,0,1.415.163,6.629,6.629,0,0,0,4.168-1.395,6.019,6.019,0,0,0,2-3.558,4.372,4.372,0,0,0,1.025-2.148,1.12,1.12,0,0,0-.432-1.089Zm-1.749,2.424a.7.7,0,0,0-.188.373,4.723,4.723,0,0,1-1.549,2.914,5.506,5.506,0,0,1-3.972,1.029,5.336,5.336,0,0,0,.951-.512.7.7,0,0,0-.109-1.22A2.886,2.886,0,0,1,5,33.732a4.914,4.914,0,0,0,3.237,1.1.7.7,0,0,0,.682-.7v-.4s0-.006,0-.009a1.084,1.084,0,0,1,1.9-.726.7.7,0,0,0,.392.227,2.764,2.764,0,0,0,1.239-.033,2.981,2.981,0,0,1-.675,1.088Zm27.77-7.421H39.5V25.349h.05A8.776,8.776,0,1,0,39.5,7.8V7.134A4.441,4.441,0,0,0,35.06,2.7H13.766A4.441,4.441,0,0,0,9.33,7.134V7.8A8.738,8.738,0,0,0,4.514,9.2a.7.7,0,0,0,.762,1.176,7.373,7.373,0,1,1-2.118,2.08A.7.7,0,1,0,2,11.677,8.777,8.777,0,0,0,9.28,25.35h.05v1.525c-.183-.011-.368-.018-.554-.018a8.776,8.776,0,0,0,0,17.552c.186,0,.37-.007.554-.018v1.689a4.441,4.441,0,0,0,4.436,4.436H35.06A4.441,4.441,0,0,0,39.5,46.079V44.408h.05a8.776,8.776,0,0,0,0-17.552Zm0-17.657a7.375,7.375,0,1,1-7.375,7.375A7.383,7.383,0,0,1,39.545,9.2Zm-1.451,16.03v1.746a8.735,8.735,0,0,0-1.4.352V24.874a8.687,8.687,0,0,0,1.4.355ZM12.131,7.6v.673a8.7,8.7,0,0,0-1.4-.355V7.134A3.039,3.039,0,0,1,13.766,4.1H35.06a3.039,3.039,0,0,1,3.035,3.035v.784a8.7,8.7,0,0,0-1.4.355V7.6a2.1,2.1,0,0,0-2.1-2.1H32.02a1.449,1.449,0,0,0-1.448,1.448.563.563,0,0,1-.562.562H18.816a.563.563,0,0,1-.562-.562A1.447,1.447,0,0,0,16.806,5.5H14.233A2.1,2.1,0,0,0,12.131,7.6Zm-1.4,17.628a8.7,8.7,0,0,0,1.4-.355v2.649a8.7,8.7,0,0,0-1.4-.448ZM8.776,43.007a7.375,7.375,0,1,1,7.375-7.375A7.29,7.29,0,0,1,8.776,43.007Zm29.319,3.072a3.039,3.039,0,0,1-3.035,3.035H13.766a3.039,3.039,0,0,1-3.035-3.035V44.188a8.7,8.7,0,0,0,1.4-.448v1.872a2.1,2.1,0,0,0,2.1,2.1h20.36a2.1,2.1,0,0,0,2.1-2.1v-1.68a8.7,8.7,0,0,0,1.4.355Zm1.451-3.072a7.382,7.382,0,0,1-7.138-9.24.7.7,0,1,0-1.356-.353,8.784,8.784,0,0,0,4.241,9.892v2.306a.7.7,0,0,1-.7.7H14.233a.7.7,0,0,1-.7-.7V43a8.77,8.77,0,0,0,0-14.744V24.248a8.772,8.772,0,0,0,0-15.349V7.6a.7.7,0,0,1,.7-.7h2.573a.047.047,0,0,1,.033.013.044.044,0,0,1,.013.033A1.965,1.965,0,0,0,18.816,8.91H30.01a1.965,1.965,0,0,0,1.963-1.963A.047.047,0,0,1,32.02,6.9h2.573a.7.7,0,0,1,.7.7V8.9a8.772,8.772,0,0,0,0,15.352.715.715,0,0,0,0,.081v3.617a8.794,8.794,0,0,0-2.7,2.329.7.7,0,1,0,1.109.855,7.285,7.285,0,0,1,5.845-2.876,7.375,7.375,0,1,1,0,14.75ZM26.98,26.375a.7.7,0,0,0-.962.235,1.682,1.682,0,0,1-.523.533.636.636,0,0,1-.672.01l-1.048-.636a.649.649,0,0,1-.3-.618,1.644,1.644,0,0,1,.23-.693.7.7,0,0,0-1.2-.727,3.057,3.057,0,0,0-.427,1.289v.014a2.045,2.045,0,0,0,.969,1.932l1.048.636a2.044,2.044,0,0,0,2.161-.031,3.09,3.09,0,0,0,.959-.982A.7.7,0,0,0,26.98,26.375Zm16.252,8.506L38.32,32.044a.979.979,0,0,0-1.458.841V38.56a.981.981,0,0,0,1.458.841l4.911-2.837A.983.983,0,0,0,43.231,34.881Zm-4.968,2.935V33.629l3.624,2.094ZM24.243,20.264A6.345,6.345,0,0,0,18.4,28.631l-.746,2.122a1.074,1.074,0,0,0,1.369,1.369L20.5,31.6a6.345,6.345,0,1,0,3.741-11.339Zm.308,11.285a4.961,4.961,0,0,1-3.195-1.057,1.364,1.364,0,0,0-.846-.3,1.348,1.348,0,0,0-.448.077l-.861.3.526-1.495a1.35,1.35,0,0,0,.006-.88,4.944,4.944,0,1,1,4.818,3.349Z" transform="translate(0 -2.698)"/>
      </g>
    </g>
  </g>
</svg>
