<svg xmlns="http://www.w3.org/2000/svg" xmlns:xlink="http://www.w3.org/1999/xlink" width="110" height="110" viewBox="0 0 110 110">
  <defs>
    <filter id="Trazado_982547" x="0" y="0" width="110" height="110" filterUnits="userSpaceOnUse">
      <feOffset dy="3" input="SourceAlpha"/>
      <feGaussianBlur stdDeviation="3" result="blur"/>
      <feFlood flood-opacity="0.161"/>
      <feComposite operator="in" in2="blur"/>
      <feComposite in="SourceGraphic"/>
    </filter>
  </defs>
  <g id="Grupo_1202389" data-name="Grupo 1202389" transform="translate(-797.001 -2368.138)">
    <g id="Grupo_1201533" data-name="Grupo 1201533" transform="translate(-0.999 940.825)">
      <g id="Grupo_1179215" data-name="Grupo 1179215" transform="translate(1 -2794.687)">
        <g id="Grupo_1171898" data-name="Grupo 1171898" transform="translate(806 4228)">
          <g id="Grupo_1164700" data-name="Grupo 1164700" transform="translate(0 0)">
            <g id="Grupo_1160931" data-name="Grupo 1160931" transform="translate(0 0)">
              <g id="Grupo_1160749" data-name="Grupo 1160749" transform="translate(0 0)">
                <g id="Grupo_1158891" data-name="Grupo 1158891" transform="translate(0 0)">
                  <g id="Grupo_1157406" data-name="Grupo 1157406" transform="translate(0 0)">
                    <g id="Grupo_1155793" data-name="Grupo 1155793">
                      <g id="Grupo_1154704" data-name="Grupo 1154704">
                        <g id="Grupo_1150790" data-name="Grupo 1150790">
                          <g id="Grupo_1154214" data-name="Grupo 1154214">
                            <g id="Grupo_1152583" data-name="Grupo 1152583">
                              <g id="Grupo_1146973" data-name="Grupo 1146973">
                                <g id="Grupo_1146954" data-name="Grupo 1146954">
                                  <g transform="matrix(1, 0, 0, 1, -9, -6)" filter="url(#Trazado_982547)">
                                    <g id="Trazado_982547-2" data-name="Trazado 982547" transform="translate(9 6)" fill="#f2f7f5">
                                      <path d="M 46.00000762939453 90.49987030029297 C 39.99188613891602 90.49987030029297 34.16427612304688 89.32350921630859 28.67906188964844 87.00345611572266 C 23.38020706176758 84.76224517822266 18.62104797363281 81.55341339111328 14.53375434875488 77.46613311767578 C 10.44647407531738 73.37885284423828 7.237647533416748 68.61969757080078 4.996420860290527 63.32085418701172 C 2.676367521286011 57.83565521240234 1.500007629394531 52.008056640625 1.500007629394531 45.99993515014648 C 1.500007629394531 39.99181365966797 2.676367521286011 34.16421508789062 4.996420860290527 28.67901420593262 C 7.237647533416748 23.38017463684082 10.44647407531738 18.62101554870605 14.53375434875488 14.53373527526855 C 18.62104797363281 10.44645500183105 23.38020706176758 7.23762845993042 28.67906188964844 4.996415138244629 C 34.16427612304688 2.676361799240112 39.99188613891602 1.500001788139343 46.00000762939453 1.500001788139343 C 52.00812911987305 1.500001788139343 57.83573913574219 2.676361799240112 63.32095336914062 4.996415138244629 C 68.61980438232422 7.23762845993042 73.37896728515625 10.44645500183105 77.46626281738281 14.53373527526855 C 81.55354309082031 18.62101554870605 84.76236724853516 23.38017463684082 87.00359344482422 28.67901420593262 C 89.32364654541016 34.16421508789062 90.50000762939453 39.99181365966797 90.50000762939453 45.99993515014648 C 90.50000762939453 52.008056640625 89.32364654541016 57.83565521240234 87.00359344482422 63.32085418701172 C 84.76236724853516 68.61969757080078 81.55354309082031 73.37885284423828 77.46626281738281 77.46613311767578 C 73.37896728515625 81.55341339111328 68.61980438232422 84.76224517822266 63.32095336914062 87.00345611572266 C 57.83573913574219 89.32350921630859 52.00812911987305 90.49987030029297 46.00000762939453 90.49987030029297 Z" stroke="none"/>
                                      <path d="M 46.00000762939453 2.999992370605469 C 40.19372177124023 2.999992370605469 34.56270599365234 4.136489868164062 29.26339340209961 6.377906799316406 C 24.14333343505859 8.543502807617188 19.54443359375 11.64437866210938 15.59442138671875 15.59437561035156 C 11.6444091796875 19.54439544677734 8.543533325195312 24.14329528808594 6.377937316894531 29.26333618164062 C 4.136505126953125 34.56264877319336 3.000007629394531 40.19366455078125 3.000007629394531 45.99993515014648 C 3.000007629394531 51.80620574951172 4.136505126953125 57.43720626831055 6.377937316894531 62.73651885986328 C 8.543533325195312 67.8565673828125 11.6444091796875 72.45545959472656 15.59442138671875 76.40547943115234 C 19.54443359375 80.35547637939453 24.14333343505859 83.45635223388672 29.26339340209961 85.6219482421875 C 34.56270599365234 87.86336517333984 40.19372177124023 88.99986267089844 46.00000762939453 88.99986267089844 C 51.80629348754883 88.99986267089844 57.43730926513672 87.86336517333984 62.73663711547852 85.6219482421875 C 67.85668182373047 83.45635223388672 72.45559692382812 80.35547637939453 76.40560913085938 76.40547943115234 C 80.35560607910156 72.45545959472656 83.45649719238281 67.8565673828125 85.62209320068359 62.73651885986328 C 87.86351013183594 57.43720626831055 89.00000762939453 51.80620574951172 89.00000762939453 45.99993515014648 C 89.00000762939453 40.19366455078125 87.86351013183594 34.56264877319336 85.62209320068359 29.26333618164062 C 83.45649719238281 24.14329528808594 80.35560607910156 19.54439544677734 76.40560913085938 15.59437561035156 C 72.45559692382812 11.64437866210938 67.85668182373047 8.543502807617188 62.73663711547852 6.377906799316406 C 57.43730926513672 4.136489868164062 51.80629348754883 2.999992370605469 46.00000762939453 2.999992370605469 M 46.00000762939453 -7.62939453125e-06 C 71.40510559082031 -7.62939453125e-06 92.00000762939453 20.59486389160156 92.00000762939453 45.99993515014648 C 92.00000762939453 71.40499114990234 71.40510559082031 91.99986267089844 46.00000762939453 91.99986267089844 C 20.59492492675781 91.99986267089844 7.62939453125e-06 71.40499114990234 7.62939453125e-06 45.99993515014648 C 7.62939453125e-06 20.59486389160156 20.59492492675781 -7.62939453125e-06 46.00000762939453 -7.62939453125e-06 Z" stroke="none" fill="#4a665c"/>
                                    </g>
                                  </g>
                                </g>
                              </g>
                            </g>
                          </g>
                        </g>
                      </g>
                    </g>
                  </g>
                </g>
              </g>
            </g>
          </g>
        </g>
      </g>
    </g>
    <g id="vendor_4647626" transform="translate(813.337 2384.651)">
      <path id="Trazado_1049845" data-name="Trazado 1049845" d="M70,46.349l-3.356-1.937a26.687,26.687,0,0,0,0-14.119L70,28.355a1.27,1.27,0,0,0,.465-1.734l-5.421-9.389a1.27,1.27,0,0,0-1.734-.465l-3.362,1.941a26.529,26.529,0,0,0-12.222-7.064V7.77a1.27,1.27,0,0,0-1.27-1.27H35.612a1.27,1.27,0,0,0-1.27,1.27v3.874A26.529,26.529,0,0,0,22.12,18.708l-3.362-1.941a1.27,1.27,0,0,0-1.734.465L11.6,26.62a1.27,1.27,0,0,0,.465,1.734l3.356,1.937a26.687,26.687,0,0,0,0,14.119l-3.356,1.937a1.27,1.27,0,0,0-.465,1.734l5.421,9.389a1.27,1.27,0,0,0,1.734.465L22.12,56A26.529,26.529,0,0,0,34.342,63.06v3.874a1.27,1.27,0,0,0,1.27,1.27H46.453a1.27,1.27,0,0,0,1.27-1.27V63.06A26.529,26.529,0,0,0,59.944,56l3.362,1.941a1.27,1.27,0,0,0,1.734-.465l5.421-9.389A1.269,1.269,0,0,0,70,46.349Z" transform="translate(-1.868 -1.865)" fill="#72c2e9"/>
      <path id="Trazado_1049846" data-name="Trazado 1049846" d="M116.1,33.2c-.566-.18-1.143-.338-1.729-.467a4.315,4.315,0,0,1-8.567,0c-.587.129-1.163.287-1.729.467a6.094,6.094,0,1,1,12.026,0Z" transform="translate(-70.924 -16.503)" fill="#4ba5c8"/>
      <path id="Trazado_1049847" data-name="Trazado 1049847" d="M89.775,71.425A19.722,19.722,0,1,1,64.039,52.637h0c.566-.18,1.14-.338,1.727-.467a4.315,4.315,0,0,0,8.567,0c.587.129,1.16.287,1.727.467h0A19.73,19.73,0,0,1,89.775,71.425Z" transform="translate(-30.888 -35.938)" fill="#efefef"/>
      <path id="Trazado_1049848" data-name="Trazado 1049848" d="M100.7,74.368v5.683a3.131,3.131,0,0,1,1.8,2.829v.663a3.131,3.131,0,0,1-3.128,3.126H79.318a3.131,3.131,0,0,1-3.128-3.126V82.88a3.135,3.135,0,0,1,1.8-2.831v-5.68A4.068,4.068,0,0,1,76.19,71V69.175a1.772,1.772,0,0,1,.317-1.016l3.385-5.211V61.507a3.051,3.051,0,0,1,3.047-3.047H87.1a2.866,2.866,0,0,1-.168-1.216,6.085,6.085,0,0,1-3.6-4.606c.566-.18,1.14-.338,1.727-.467a4.315,4.315,0,0,0,8.567,0c.587.13,1.16.287,1.727.467a6.085,6.085,0,0,1-3.6,4.606,2.861,2.861,0,0,1-.168,1.216h4.162A3.051,3.051,0,0,1,98.8,61.507v1.442l3.387,5.218a1.771,1.771,0,0,1,.315,1.008V71A4.069,4.069,0,0,1,100.7,74.368Z" transform="translate(-50.181 -35.938)" fill="#afafaf"/>
      <path id="Trazado_1049849" data-name="Trazado 1049849" d="M119.633,37.437a3.925,3.925,0,0,1-.033.521,4.315,4.315,0,0,1-8.567,0,3.927,3.927,0,0,1-.033-.521,4.317,4.317,0,1,1,8.633,0Z" transform="translate(-76.152 -21.726)" fill="#13bf6d"/>
      <g id="Grupo_1202314" data-name="Grupo 1202314" transform="translate(27.786 24.299)">
        <path id="Trazado_1049850" data-name="Trazado 1049850" d="M109.436,123.193v8.3H90.28v-8.3a2.277,2.277,0,0,0,2.753-2.224V119.14h13.651v1.828a2.277,2.277,0,0,0,2.753,2.224Z" transform="translate(-88.48 -110.202)" fill="#f0c020"/>
        <path id="Trazado_1049851" data-name="Trazado 1049851" d="M87.743,119.14v1.828a2.276,2.276,0,0,1-4.553,0V119.14Z" transform="translate(-83.19 -110.202)" fill="#fc5d3d"/>
        <path id="Trazado_1049852" data-name="Trazado 1049852" d="M109.436,123.193V125.1a4.086,4.086,0,0,1-2.758-.65,4.143,4.143,0,0,1-4.545,0,4.147,4.147,0,0,1-4.55,0,4.143,4.143,0,0,1-4.545,0,4.093,4.093,0,0,1-2.758.65v-1.912a2.277,2.277,0,0,0,2.753-2.224V119.14h13.651v1.828A2.277,2.277,0,0,0,109.436,123.193Z" transform="translate(-88.48 -110.202)" fill="#e8a61e"/>
        <path id="Trazado_1049853" data-name="Trazado 1049853" d="M104.6,171.159H84.543a1.349,1.349,0,0,1-1.349-1.349v-.663a1.349,1.349,0,0,1,1.349-1.349H104.6a1.348,1.348,0,0,1,1.349,1.348v.663A1.349,1.349,0,0,1,104.6,171.159Z" transform="translate(-83.193 -146.505)" fill="#fc5d3d"/>
        <g id="Grupo_1202312" data-name="Grupo 1202312" transform="translate(4.552 8.938)">
          <path id="Trazado_1049854" data-name="Trazado 1049854" d="M103.527,123.243h-.268a2.141,2.141,0,0,1-2.141-2.141V119.14h4.551V121.1A2.141,2.141,0,0,1,103.527,123.243Z" transform="translate(-101.117 -119.14)" fill="#efefef"/>
          <path id="Trazado_1049855" data-name="Trazado 1049855" d="M121.448,123.243h-.268a2.141,2.141,0,0,1-2.141-2.141V119.14h4.551V121.1A2.141,2.141,0,0,1,121.448,123.243Z" transform="translate(-114.488 -119.14)" fill="#fc5d3d"/>
          <path id="Trazado_1049856" data-name="Trazado 1049856" d="M139.37,123.243H139.1a2.141,2.141,0,0,1-2.141-2.141V119.14h4.551V121.1A2.141,2.141,0,0,1,139.37,123.243Z" transform="translate(-127.859 -119.14)" fill="#efefef"/>
          <path id="Trazado_1049857" data-name="Trazado 1049857" d="M159.436,119.14v1.829a2.276,2.276,0,0,1-4.552,0V119.14Z" transform="translate(-141.231 -119.14)" fill="#fc5d3d"/>
        </g>
        <path id="Trazado_1049858" data-name="Trazado 1049858" d="M102.246,96.692H86.9l-3.7,5.7h22.755Z" transform="translate(-83.193 -93.454)" fill="#fc5d3d"/>
        <path id="Trazado_1049859" data-name="Trazado 1049859" d="M105.668,102.392h-4.551l2.221-5.7h3.07Z" transform="translate(-96.565 -93.454)" fill="#efefef"/>
        <path id="Trazado_1049860" data-name="Trazado 1049860" d="M139.336,102.392h-4.551l-.74-5.7h3.07Z" transform="translate(-121.132 -93.454)" fill="#efefef"/>
        <path id="Trazado_1049861" data-name="Trazado 1049861" d="M111.855,83.941H99.045a1.27,1.27,0,0,0-1.27,1.27v1.968h15.35V85.211A1.27,1.27,0,0,0,111.855,83.941Z" transform="translate(-94.072 -83.941)" fill="#f0c020"/>
        <g id="Grupo_1202313" data-name="Grupo 1202313" transform="translate(8.866 16.003)">
          <path id="Trazado_1049862" data-name="Trazado 1049862" d="M123.129,152.256H118.1v-4.783a.508.508,0,0,1,.508-.508h4.01a.508.508,0,0,1,.508.508Z" transform="translate(-118.104 -146.965)" fill="#72c2e9"/>
        </g>
      </g>
      <path id="Trazado_1049863" data-name="Trazado 1049863" d="M82.068,94.241a22.759,22.759,0,0,1-12.76-3.893.635.635,0,1,1,.709-1.053A21.624,21.624,0,1,0,93.881,53.228a.635.635,0,1,1,.695-1.062A22.9,22.9,0,0,1,82.068,94.241ZM67.23,88.769q-.3-.254-.587-.518a.635.635,0,0,1,.856-.937q.273.249.555.49a.635.635,0,0,1-.824.966Z" transform="translate(-42.904 -35.858)" fill="#c5e5fe"/>
      <path id="Trazado_1049864" data-name="Trazado 1049864" d="M120.126,46.525a.634.634,0,0,0,.9,0l2.254-2.254a.635.635,0,1,0-.9-.9l-1.8,1.8-.71-.709a.635.635,0,0,0-.9.9Z" transform="translate(-81.958 -29.237)"/>
      <path id="Trazado_1049865" data-name="Trazado 1049865" d="M229.989,189.272a.635.635,0,1,0,.635-1.1.652.652,0,0,0-.868.231A.641.641,0,0,0,229.989,189.272Z" transform="translate(-164.69 -137.347)"/>
      <path id="Trazado_1049866" data-name="Trazado 1049866" d="M9.186,46.535l5.421,9.39a1.906,1.906,0,0,0,2.6.7l2.94-1.7a27.275,27.275,0,0,0,11.691,6.757v3.387a1.908,1.908,0,0,0,1.9,1.9H44.586a1.908,1.908,0,0,0,1.9-1.9V61.682a27.275,27.275,0,0,0,11.691-6.757l2.94,1.7a1.9,1.9,0,0,0,2.6-.7l1.173-2.034a.635.635,0,0,0-.231-.866.648.648,0,0,0-.866.231L62.622,55.29a.632.632,0,0,1-.866.231l-3.362-1.94a.645.645,0,0,0-.769.1A25.919,25.919,0,0,1,45.7,60.58a.636.636,0,0,0-.475.614v3.875a.638.638,0,0,1-.635.635H33.743a.638.638,0,0,1-.635-.635V61.194a.636.636,0,0,0-.475-.614A25.906,25.906,0,0,1,20.7,53.685a.645.645,0,0,0-.769-.1l-3.362,1.94a.632.632,0,0,1-.866-.231L10.286,45.9a.632.632,0,0,1,.231-.866L13.874,43.1a.635.635,0,0,0,.295-.719,26.083,26.083,0,0,1,0-13.783.634.634,0,0,0-.295-.719l-3.357-1.937a.632.632,0,0,1-.231-.866l5.421-9.39a.632.632,0,0,1,.866-.231l3.362,1.94a.645.645,0,0,0,.769-.1,25.906,25.906,0,0,1,11.929-6.894.636.636,0,0,0,.475-.614V5.9a.64.64,0,0,1,.635-.635H44.586a.64.64,0,0,1,.635.635V9.779a.636.636,0,0,0,.475.614,25.919,25.919,0,0,1,11.929,6.894.645.645,0,0,0,.769.1l3.362-1.94a.632.632,0,0,1,.866.231l5.421,9.39a.632.632,0,0,1-.231.866l-3.357,1.937a.637.637,0,0,0-.295.719,26.086,26.086,0,0,1,0,13.783.637.637,0,0,0,.295.719l3.357,1.937a.632.632,0,0,1,.231.866l-1.706,2.958a.637.637,0,0,0,.231.868.655.655,0,0,0,.868-.234v0l1.706-2.956a1.9,1.9,0,0,0-.7-2.6l-2.933-1.7a27.38,27.38,0,0,0,0-13.5l2.933-1.7a1.9,1.9,0,0,0,.7-2.6l-5.421-9.39a1.905,1.905,0,0,0-2.6-.7l-2.938,1.7A27.264,27.264,0,0,0,46.49,9.292V5.9a1.908,1.908,0,0,0-1.9-1.9H33.743a1.908,1.908,0,0,0-1.9,1.9V9.292a27.264,27.264,0,0,0-11.691,6.757l-2.94-1.7a1.9,1.9,0,0,0-2.6.7l-5.421,9.39a1.9,1.9,0,0,0,.7,2.6l2.935,1.7a27.379,27.379,0,0,0,0,13.5l-2.933,1.7a1.9,1.9,0,0,0-.7,2.6Z" transform="translate(0 0)"/>
      <path id="Trazado_1049867" data-name="Trazado 1049867" d="M200.425,105.686a.634.634,0,1,0,1.224-.335.643.643,0,0,0-.78-.444A.634.634,0,0,0,200.425,105.686Z" transform="translate(-142.854 -75.267)"/>
      <path id="Trazado_1049868" data-name="Trazado 1049868" d="M47.83,55.347a20.357,20.357,0,0,0,40.714,0,20.747,20.747,0,0,0-.2-2.839.643.643,0,0,0-.716-.541.633.633,0,0,0-.541.716,19.4,19.4,0,0,1,.183,2.664A19.088,19.088,0,1,1,63.413,36.866a4.942,4.942,0,0,0,4.139,3.611v1.031a.635.635,0,0,0,1.27,0V40.478a4.942,4.942,0,0,0,4.14-3.611A19.046,19.046,0,0,1,85.791,47.958a.635.635,0,0,0,1.171-.49A20.382,20.382,0,0,0,73.137,35.6a4.95,4.95,0,1,0-9.9,0A20.353,20.353,0,0,0,47.83,55.347ZM68.187,31.89a3.682,3.682,0,1,1-3.682,3.682A3.686,3.686,0,0,1,68.187,31.89Z" transform="translate(-29.023 -19.861)"/>
      <path id="Trazado_1049869" data-name="Trazado 1049869" d="M104.717,92.844V91.014a.652.652,0,0,0-.117-.367l-3.586-5.521v-1.78a1.906,1.906,0,0,0-1.9-1.9H86.3a1.906,1.906,0,0,0-1.9,1.9v1.78L80.8,90.655a.658.658,0,0,0-.112.36v1.829a2.939,2.939,0,0,0,1.8,2.689v7.211a1.994,1.994,0,0,0-1.8,1.975v.663a1.986,1.986,0,0,0,1.984,1.984h20.056a1.986,1.986,0,0,0,1.984-1.984v-.663a1.992,1.992,0,0,0-1.8-1.974V95.532A2.936,2.936,0,0,0,104.717,92.844ZM93.681,85.949l.575,4.429H91.151l.575-4.429Zm.9,16.786H90.826V98.715h3.756ZM98.9,92.976a1.508,1.508,0,0,1-1.507,1.507h-.268a1.508,1.508,0,0,1-1.507-1.507V91.649H98.9C98.9,92.139,98.9,92.492,98.9,92.976Zm-9.1,0a1.508,1.508,0,0,1-1.507,1.507h-.268a1.508,1.508,0,0,1-1.507-1.507v-.133h0V91.649h3.281v1.327Zm1.27-1.327h3.281v1.327a1.508,1.508,0,0,1-1.507,1.507H92.57a1.508,1.508,0,0,1-1.507-1.507Zm11.082,2.8h0a1.641,1.641,0,0,1-1.976-1.6V91.649h3.282v1.194A1.649,1.649,0,0,1,102.146,94.447Zm-2.111-8.5,2.878,4.43H99.964l-1.726-4.43ZM98.6,90.379H95.537l-.575-4.429h1.914Zm-8.73,0H86.807l1.726-4.429h1.914Zm-4.427,0H82.5l2.878-4.43h1.8Zm-3.483,1.27h3.282v1.194a1.641,1.641,0,1,1-3.282,0V91.649Zm1.8,4.1a2.92,2.92,0,0,0,2.083-1.057,2.771,2.771,0,0,0,2.176,1.058h.268a2.772,2.772,0,0,0,2.142-1.011,2.772,2.772,0,0,0,2.141,1.011h.268a2.772,2.772,0,0,0,2.141-1.011,2.772,2.772,0,0,0,2.142,1.011h.268a2.771,2.771,0,0,0,2.176-1.058,2.91,2.91,0,0,0,2.083,1.057v6.984h-5.8V98.588a1.144,1.144,0,0,0-1.143-1.143H90.7a1.144,1.144,0,0,0-1.143,1.143v4.148h-5.8V95.752Zm1.9-12.406a.636.636,0,0,1,.635-.635H99.109a.636.636,0,0,1,.635.635V84.68H85.664Zm17.783,22.036a.715.715,0,0,1-.714.714H82.676a.715.715,0,0,1-.714-.714v-.663a.715.715,0,0,1,.714-.714h20.056a.715.715,0,0,1,.714.713v.663Z" transform="translate(-53.539 -57.778)"/>
    </g>
  </g>
</svg>
