<svg xmlns="http://www.w3.org/2000/svg" width="75.934" height="75.934" viewBox="0 0 75.934 75.934">
  <g id="Grupo_1202067" data-name="Grupo 1202067" transform="translate(-198 -2747.316)">
    <g id="Grupo_1201438" data-name="Grupo 1201438" transform="translate(0 -7005.971)">
      <g id="Grupo_1183001" data-name="Grupo 1183001" transform="translate(0 9089.287)">
        <g id="Grupo_1182333" data-name="Grupo 1182333" transform="translate(-0.033 -1122)">
          <g id="Grupo_1176309" data-name="Grupo 1176309" transform="translate(0 -206)">
            <g id="Grupo_1172970" data-name="Grupo 1172970" transform="translate(-1 -9042)">
              <g id="Grupo_1171971" data-name="Grupo 1171971" transform="translate(199.033 11034)">
                <g id="Grupo_1167337" data-name="Grupo 1167337">
                  <g id="Grupo_1166720" data-name="Grupo 1166720">
                    <g id="Grupo_1164305" data-name="Grupo 1164305">
                      <g id="Grupo_1163948" data-name="Grupo 1163948">
                        <g id="Grupo_1158168" data-name="Grupo 1158168">
                          <g id="Grupo_1152576" data-name="Grupo 1152576">
                            <g id="Grupo_1148633" data-name="Grupo 1148633">
                              <g id="Grupo_1148525" data-name="Grupo 1148525">
                                <g id="Trazado_982547" data-name="Trazado 982547">
                                  <path id="Trazado_1045808" data-name="Trazado 1045808" d="M37.967,74.434A36.477,36.477,0,0,1,23.773,4.365a36.477,36.477,0,0,1,28.388,67.2A36.239,36.239,0,0,1,37.967,74.434Z" fill="#f2f7f5"/>
                                  <path id="Trazado_1045809" data-name="Trazado 1045809" d="M37.967,3a34.977,34.977,0,0,0-13.61,67.187A34.977,34.977,0,0,0,51.576,5.747,34.745,34.745,0,0,0,37.967,3m0-3A37.967,37.967,0,1,1,0,37.967,37.967,37.967,0,0,1,37.967,0Z" fill="#4a665c"/>
                                </g>
                              </g>
                            </g>
                          </g>
                        </g>
                      </g>
                    </g>
                  </g>
                </g>
              </g>
            </g>
          </g>
        </g>
      </g>
    </g>
    <g id="revisar_1_" data-name="revisar (1)" transform="translate(211.581 2760.893)">
      <path id="Trazado_1048953" data-name="Trazado 1048953" d="M70.479,403.716l-2.13-.309-5.222,2.48,2.473,5.981,1.9,1a1.429,1.429,0,0,0,2.074-1.507l-.523-3.049,2.216-2.16A1.429,1.429,0,0,0,70.479,403.716Z" transform="translate(-57.114 -364.974)" fill="#ffcf57"/>
      <path id="Trazado_1048954" data-name="Trazado 1048954" d="M18.022,368.2l-.932-.135-1.369-2.774a1.429,1.429,0,0,0-2.563,0l-1.369,2.774-3.062.445a1.429,1.429,0,0,0-.792,2.438l2.216,2.16-.523,3.049a1.429,1.429,0,0,0,2.074,1.507l2.739-1.44.834.438a.714.714,0,0,0,1.037-.753l-.652-3.8,2.76-2.691a.715.715,0,0,0-.4-1.219Z" transform="translate(-6.787 -329.771)" fill="#ffe46b"/>
      <path id="Trazado_1048955" data-name="Trazado 1048955" d="M246.145,403.716l-2.13-.309-5.222,2.48,2.473,5.981,1.9,1a1.429,1.429,0,0,0,2.074-1.507l-.523-3.049,2.216-2.16A1.429,1.429,0,0,0,246.145,403.716Z" transform="translate(-216.047 -364.974)" fill="#ffcf57"/>
      <path id="Trazado_1048956" data-name="Trazado 1048956" d="M193.688,368.2l-.932-.135-1.369-2.775a1.429,1.429,0,0,0-2.563,0l-1.369,2.775-3.062.445a1.429,1.429,0,0,0-.792,2.438l2.216,2.16-.523,3.049a1.429,1.429,0,0,0,2.074,1.507l2.738-1.44.834.438a.714.714,0,0,0,1.037-.753l-.652-3.8,2.76-2.691A.714.714,0,0,0,193.688,368.2Z" transform="translate(-165.719 -329.77)" fill="#ffe46b"/>
      <path id="Trazado_1048957" data-name="Trazado 1048957" d="M421.812,403.716l-2.13-.309-5.222,2.48,2.473,5.981,1.9,1a1.429,1.429,0,0,0,2.074-1.507l-.523-3.049,2.216-2.16A1.429,1.429,0,0,0,421.812,403.716Z" transform="translate(-374.98 -364.974)" fill="#ffcf57"/>
      <path id="Trazado_1048958" data-name="Trazado 1048958" d="M369.355,368.2l-.932-.135-1.369-2.775a1.429,1.429,0,0,0-2.563,0l-1.369,2.775-3.062.445a1.429,1.429,0,0,0-.792,2.438l2.216,2.16-.523,3.049a1.429,1.429,0,0,0,2.074,1.507l2.739-1.44.834.438a.714.714,0,0,0,1.037-.753l-.652-3.8,2.76-2.691A.715.715,0,0,0,369.355,368.2Z" transform="translate(-324.652 -329.77)" fill="#ffe46b"/>
      <circle id="Elipse_14294" data-name="Elipse 14294" cx="15.575" cy="15.575" r="15.575" transform="translate(8.811 0.719)" fill="#fffbe5"/>
      <path id="Trazado_1048959" data-name="Trazado 1048959" d="M147.488,214.505a2.86,2.86,0,0,0-2.86,2.86,12.828,12.828,0,0,0,2.858,3.07l2.86-5.93Z" transform="translate(-130.852 -194.067)" fill="#25a5fa"/>
      <path id="Trazado_1048960" data-name="Trazado 1048960" d="M310.208,214.505H307.35l2.86,5.93a12.825,12.825,0,0,0,2.858-3.07A2.86,2.86,0,0,0,310.208,214.505Z" transform="translate(-278.073 -194.067)" fill="#4578de"/>
      <path id="Trazado_1048961" data-name="Trazado 1048961" d="M187.271,214.505h-9.783a2.86,2.86,0,0,0-2.86,2.86v3.07a12.688,12.688,0,0,0,15.5,0v-3.07A2.86,2.86,0,0,0,187.271,214.505Z" transform="translate(-157.994 -194.067)" fill="#3b88f5"/>
      <path id="Trazado_1048962" data-name="Trazado 1048962" d="M256,52.505V65.079a6.287,6.287,0,0,0,0-12.574Z" transform="translate(-231.615 -47.499)" fill="#4578de"/>
      <path id="Trazado_1048963" data-name="Trazado 1048963" d="M199.716,58.792c0-3.472-1.535-6.287-3.429-6.287a6.287,6.287,0,0,0,0,12.574C198.181,65.079,199.716,62.264,199.716,58.792Z" transform="translate(-171.902 -47.499)" fill="#3b88f5"/>
      <path id="Trazado_1048964" data-name="Trazado 1048964" d="M13.467,361.02l-2.69-.391-1.2-2.438a2.144,2.144,0,0,0-3.845,0l-1.2,2.438-2.69.391a2.144,2.144,0,0,0-1.188,3.656l1.947,1.9-.46,2.679a2.141,2.141,0,0,0,3.11,2.26l2.406-1.265,2.406,1.265a2.144,2.144,0,0,0,3.11-2.26l-.46-2.679,1.947-1.9a2.144,2.144,0,0,0-1.188-3.656Zm.191,2.633-2.216,2.16a.714.714,0,0,0-.205.632l.523,3.049a.715.715,0,0,1-1.037.754l-2.739-1.44a.715.715,0,0,0-.665,0l-2.739,1.44a.715.715,0,0,1-1.037-.754l.523-3.049a.715.715,0,0,0-.205-.632l-2.216-2.159a.715.715,0,0,1,.4-1.219l3.062-.445a.714.714,0,0,0,.538-.391l1.369-2.775a.715.715,0,0,1,1.282,0L9.662,361.6a.714.714,0,0,0,.538.391l3.062.445a.715.715,0,0,1,.4,1.219Z" transform="translate(0 -322.984)"/>
      <path id="Trazado_1048965" data-name="Trazado 1048965" d="M189.134,361.02l-2.69-.391-1.2-2.438a2.144,2.144,0,0,0-3.845,0l-1.2,2.438-2.69.391a2.144,2.144,0,0,0-1.188,3.656l1.947,1.9-.46,2.679a2.141,2.141,0,0,0,3.11,2.26l2.406-1.265,2.406,1.265a2.144,2.144,0,0,0,3.11-2.26l-.46-2.679,1.947-1.9a2.144,2.144,0,0,0-1.188-3.656Zm.191,2.633-2.216,2.16a.714.714,0,0,0-.205.632l.523,3.049a.715.715,0,0,1-1.037.754l-2.739-1.44a.715.715,0,0,0-.665,0l-2.739,1.44a.715.715,0,0,1-1.037-.754l.523-3.049a.715.715,0,0,0-.205-.632l-2.216-2.159a.715.715,0,0,1,.4-1.219l3.062-.445a.714.714,0,0,0,.538-.391l1.369-2.775a.715.715,0,0,1,1.282,0l1.369,2.775a.714.714,0,0,0,.538.391l3.062.445a.714.714,0,0,1,.4,1.219Z" transform="translate(-158.933 -322.984)"/>
      <path id="Trazado_1048966" data-name="Trazado 1048966" d="M366.531,362.479a2.13,2.13,0,0,0-1.73-1.459l-2.69-.391-1.2-2.438a2.144,2.144,0,0,0-3.845,0l-1.2,2.438-2.69.391a2.144,2.144,0,0,0-1.188,3.656l1.947,1.9-.46,2.679a2.141,2.141,0,0,0,3.11,2.26l2.406-1.265,2.406,1.265a2.144,2.144,0,0,0,3.11-2.26l-.46-2.679,1.947-1.9A2.131,2.131,0,0,0,366.531,362.479Zm-1.54,1.174-2.216,2.16a.715.715,0,0,0-.205.632l.523,3.05a.715.715,0,0,1-1.037.754l-2.739-1.44a.715.715,0,0,0-.665,0l-2.739,1.44a.715.715,0,0,1-1.037-.754l.523-3.05a.715.715,0,0,0-.205-.632l-2.216-2.16a.715.715,0,0,1,.4-1.219l3.062-.445a.714.714,0,0,0,.538-.391l1.369-2.775a.715.715,0,0,1,1.282,0L361,361.6a.714.714,0,0,0,.538.391l3.062.445a.715.715,0,0,1,.4,1.219Z" transform="translate(-317.865 -322.985)"/>
      <path id="Trazado_1048967" data-name="Trazado 1048967" d="M196.5,52.007a7,7,0,1,0-7,7A7.009,7.009,0,0,0,196.5,52.007Zm-12.574,0a5.573,5.573,0,1,1,5.573,5.573A5.579,5.579,0,0,1,183.929,52.007Z" transform="translate(-165.116 -40.713)"/>
      <path id="Trazado_1048968" data-name="Trazado 1048968" d="M137.128,210.579a.715.715,0,0,0,.119.395,13.421,13.421,0,0,0,22.41,0,.715.715,0,0,0,.119-.395A3.578,3.578,0,0,0,156.2,207H140.7a3.578,3.578,0,0,0-3.574,3.574Zm21.209-.2a11.991,11.991,0,0,1-19.77,0,2.148,2.148,0,0,1,2.136-1.941h15.5A2.148,2.148,0,0,1,158.337,210.375Z" transform="translate(-124.066 -187.281)"/>
      <path id="Trazado_1048969" data-name="Trazado 1048969" d="M101.289,32.583A16.289,16.289,0,1,0,91.059,3.619a.714.714,0,0,0,.9,1.111A14.861,14.861,0,1,1,90,6.631a.714.714,0,0,0-1.085-.93,16.289,16.289,0,0,0,12.374,26.882Z" transform="translate(-76.904)"/>
    </g>
  </g>
</svg>
