<svg xmlns="http://www.w3.org/2000/svg" width="75.934" height="75.934" viewBox="0 0 75.934 75.934">
  <g id="Grupo_1202094" data-name="Grupo 1202094" transform="translate(-618.033 -2747.316)">
    <g id="Grupo_1201439" data-name="Grupo 1201439" transform="translate(0 -7005.971)">
      <g id="Grupo_1183011" data-name="Grupo 1183011" transform="translate(0 8955.287)">
        <g id="Grupo_1182336" data-name="Grupo 1182336" transform="translate(420 -988)">
          <g id="Grupo_1176309" data-name="Grupo 1176309" transform="translate(0 -206)">
            <g id="Grupo_1172970" data-name="Grupo 1172970" transform="translate(-1 -9042)">
              <g id="Grupo_1171971" data-name="Grupo 1171971" transform="translate(199.033 11034)">
                <g id="Grupo_1167337" data-name="Grupo 1167337">
                  <g id="Grupo_1166720" data-name="Grupo 1166720">
                    <g id="Grupo_1164305" data-name="Grupo 1164305">
                      <g id="Grupo_1163948" data-name="Grupo 1163948">
                        <g id="Grupo_1158168" data-name="Grupo 1158168">
                          <g id="Grupo_1152576" data-name="Grupo 1152576">
                            <g id="Grupo_1148633" data-name="Grupo 1148633">
                              <g id="Grupo_1148525" data-name="Grupo 1148525">
                                <g id="Trazado_982547" data-name="Trazado 982547">
                                  <path id="Trazado_1045816" data-name="Trazado 1045816" d="M37.967,74.434A36.477,36.477,0,0,1,23.773,4.365a36.477,36.477,0,0,1,28.388,67.2A36.239,36.239,0,0,1,37.967,74.434Z" fill="#f2f7f5"/>
                                  <path id="Trazado_1045817" data-name="Trazado 1045817" d="M37.967,3a34.977,34.977,0,0,0-13.61,67.187A34.977,34.977,0,0,0,51.576,5.747,34.745,34.745,0,0,0,37.967,3m0-3A37.967,37.967,0,1,1,0,37.967,37.967,37.967,0,0,1,37.967,0Z" fill="#4a665c"/>
                                </g>
                              </g>
                            </g>
                          </g>
                        </g>
                      </g>
                    </g>
                  </g>
                </g>
              </g>
            </g>
          </g>
        </g>
      </g>
    </g>
    <g id="resultados-de-la-encuesta" transform="translate(622.349 2762.516)">
      <g id="Grupo_1202068" data-name="Grupo 1202068" transform="translate(14.808 0.667)">
        <path id="Trazado_1048970" data-name="Trazado 1048970" d="M52.908,51.7H23.441a1.8,1.8,0,0,1-1.8-1.8V9.3a1.8,1.8,0,0,1,1.8-1.8H44.976a1.8,1.8,0,0,1,1.271.526l7.931,7.931a1.8,1.8,0,0,1,.526,1.271V49.9A1.8,1.8,0,0,1,52.908,51.7Z" transform="translate(-21.644 -7.5)" fill="#edf6ff"/>
      </g>
      <g id="Grupo_1202069" data-name="Grupo 1202069" transform="translate(36.729 0.667)">
        <path id="Trazado_1048971" data-name="Trazado 1048971" d="M278.737,15.958l-7.931-7.931a1.8,1.8,0,0,0-1.271-.526h-1.412v7.187a3.953,3.953,0,0,0,3.953,3.953h4.133a.9.9,0,0,1,.9.9V49.994a1.8,1.8,0,0,1-1.238,1.707h1.6a1.8,1.8,0,0,0,1.8-1.8V17.228a1.8,1.8,0,0,0-.526-1.271Z" transform="translate(-268.123 -7.5)" fill="#ddebfd"/>
      </g>
      <g id="Grupo_1202070" data-name="Grupo 1202070" transform="translate(38.885 0.831)">
        <path id="Trazado_1048972" data-name="Trazado 1048972" d="M294.165,18.16h7.024a1.8,1.8,0,0,0-.363-.526L292.894,9.7a1.794,1.794,0,0,0-.526-.363v7.024A1.8,1.8,0,0,0,294.165,18.16Z" transform="translate(-292.368 -9.34)" fill="#bed9fd"/>
      </g>
      <g id="Grupo_1202086" data-name="Grupo 1202086" transform="translate(17.683 3.542)">
        <g id="Grupo_1202072" data-name="Grupo 1202072" transform="translate(0 21.202)">
          <g id="Grupo_1202071" data-name="Grupo 1202071">
            <circle id="Elipse_14295" data-name="Elipse 14295" cx="1.437" cy="1.437" r="1.437" fill="#f7e365"/>
          </g>
        </g>
        <g id="Grupo_1202075" data-name="Grupo 1202075" transform="translate(0 8.984)">
          <g id="Grupo_1202074" data-name="Grupo 1202074">
            <g id="Grupo_1202073" data-name="Grupo 1202073">
              <circle id="Elipse_14296" data-name="Elipse 14296" cx="1.437" cy="1.437" r="1.437" fill="#a2f5c3"/>
            </g>
          </g>
        </g>
        <g id="Grupo_1202078" data-name="Grupo 1202078" transform="translate(0 14.733)">
          <g id="Grupo_1202077" data-name="Grupo 1202077">
            <g id="Grupo_1202076" data-name="Grupo 1202076">
              <circle id="Elipse_14297" data-name="Elipse 14297" cx="1.437" cy="1.437" r="1.437" fill="#e175a5"/>
            </g>
          </g>
        </g>
        <g id="Grupo_1202079" data-name="Grupo 1202079" transform="translate(5.75 8.984)">
          <path id="Trazado_1048973" data-name="Trazado 1048973" d="M139.462,143.717H119.339a.719.719,0,0,1-.719-.719v-1.437a.719.719,0,0,1,.719-.719h20.124a.719.719,0,0,1,.719.719V143A.719.719,0,0,1,139.462,143.717Z" transform="translate(-118.62 -140.842)" fill="#4172ca"/>
        </g>
        <g id="Grupo_1202080" data-name="Grupo 1202080" transform="translate(0)">
          <path id="Trazado_1048974" data-name="Trazado 1048974" d="M64.031,42.7H54.688a.719.719,0,0,1-.719-.719V40.545a.719.719,0,0,1,.719-.719h9.343a.719.719,0,0,1,.719.719v1.437A.719.719,0,0,1,64.031,42.7Z" transform="translate(-53.969 -39.826)" fill="#e175a5"/>
        </g>
        <g id="Grupo_1202081" data-name="Grupo 1202081" transform="translate(5.75 8.984)">
          <path id="Trazado_1048975" data-name="Trazado 1048975" d="M130.479,143.717h-11.14a.719.719,0,0,1-.719-.719v-1.437a.719.719,0,0,1,.719-.719h11.14a.719.719,0,0,1,.719.719V143A.719.719,0,0,1,130.479,143.717Z" transform="translate(-118.62 -140.842)" fill="#e69642"/>
        </g>
        <g id="Grupo_1202082" data-name="Grupo 1202082" transform="translate(5.75 14.733)">
          <path id="Trazado_1048976" data-name="Trazado 1048976" d="M139.462,208.367H119.339a.719.719,0,0,1-.719-.719v-1.437a.719.719,0,0,1,.719-.719h20.124a.719.719,0,0,1,.719.719v1.437A.719.719,0,0,1,139.462,208.367Z" transform="translate(-118.62 -205.492)" fill="#4172ca"/>
        </g>
        <g id="Grupo_1202083" data-name="Grupo 1202083" transform="translate(5.75 14.733)">
          <path id="Trazado_1048977" data-name="Trazado 1048977" d="M135.869,208.367h-16.53a.719.719,0,0,1-.719-.719v-1.437a.719.719,0,0,1,.719-.719h16.53a.719.719,0,0,1,.719.719v1.437A.719.719,0,0,1,135.869,208.367Z" transform="translate(-118.62 -205.492)" fill="#e69642"/>
        </g>
        <g id="Grupo_1202084" data-name="Grupo 1202084" transform="translate(5.75 21.202)">
          <path id="Trazado_1048978" data-name="Trazado 1048978" d="M139.462,281.1H119.339a.719.719,0,0,1-.719-.719v-1.437a.719.719,0,0,1,.719-.719h20.124a.719.719,0,0,1,.719.719v1.437A.719.719,0,0,1,139.462,281.1Z" transform="translate(-118.62 -278.224)" fill="#4172ca"/>
        </g>
        <g id="Grupo_1202085" data-name="Grupo 1202085" transform="translate(5.75 21.202)">
          <path id="Trazado_1048979" data-name="Trazado 1048979" d="M127.783,281.1h-8.445a.719.719,0,0,1-.719-.719v-1.437a.719.719,0,0,1,.719-.719h8.445a.719.719,0,0,1,.719.719v1.437A.719.719,0,0,1,127.783,281.1Z" transform="translate(-118.62 -278.224)" fill="#e69642"/>
        </g>
      </g>
      <g id="Grupo_1202092" data-name="Grupo 1202092" transform="translate(39.244 27.619)">
        <g id="Grupo_1202089" data-name="Grupo 1202089">
          <g id="Grupo_1202087" data-name="Grupo 1202087">
            <circle id="Elipse_14298" data-name="Elipse 14298" cx="8.625" cy="8.625" r="8.625" fill="#a2f5c3"/>
          </g>
          <g id="Grupo_1202088" data-name="Grupo 1202088" transform="translate(1.737 1.737)">
            <path id="Trazado_1048980" data-name="Trazado 1048980" d="M328.021,330.083a8.625,8.625,0,0,1-12.079,12.079,8.625,8.625,0,1,0,12.079-12.079Z" transform="translate(-315.942 -330.083)" fill="#88f2a9"/>
          </g>
        </g>
        <g id="Grupo_1202091" data-name="Grupo 1202091" transform="translate(3.973 3.973)">
          <g id="Grupo_1202090" data-name="Grupo 1202090">
            <circle id="Elipse_14299" data-name="Elipse 14299" cx="4.651" cy="4.651" r="4.651" fill="#77d192"/>
          </g>
        </g>
      </g>
      <g id="Grupo_1202093" data-name="Grupo 1202093" transform="translate(14.141 0)">
        <path id="Trazado_1048981" data-name="Trazado 1048981" d="M14.808,37.6a.667.667,0,0,0,.667-.667V2.464a1.131,1.131,0,0,1,1.13-1.129H38.141c.026,0,.051,0,.077,0V7.854a2.467,2.467,0,0,0,2.464,2.464H47.2c0,.026,0,.051,0,.077V12a.667.667,0,1,0,1.334,0V10.395a2.481,2.481,0,0,0-.722-1.742L39.883.722A2.448,2.448,0,0,0,38.141,0H16.605a2.467,2.467,0,0,0-2.464,2.463V36.933a.667.667,0,0,0,.667.667ZM46.258,8.984H40.682a1.131,1.131,0,0,1-1.13-1.13V2.278Z" transform="translate(-14.141 0)"/>
        <path id="Trazado_1048982" data-name="Trazado 1048982" d="M48.573,274.933a2.1,2.1,0,1,0-2.1-2.1A2.107,2.107,0,0,0,48.573,274.933Zm0-2.875a.77.77,0,1,1-.77.77A.771.771,0,0,1,48.573,272.058Z" transform="translate(-43.594 -246.647)"/>
        <path id="Trazado_1048983" data-name="Trazado 1048983" d="M48.573,137.551a2.1,2.1,0,1,0-2.1-2.1A2.107,2.107,0,0,0,48.573,137.551Zm0-2.875a.77.77,0,1,1-.77.77A.771.771,0,0,1,48.573,134.676Z" transform="translate(-43.594 -121.483)"/>
        <path id="Trazado_1048984" data-name="Trazado 1048984" d="M48.573,202.2a2.1,2.1,0,1,0-2.1-2.1A2.107,2.107,0,0,0,48.573,202.2Zm0-2.875a.77.77,0,1,1-.77.77A.771.771,0,0,1,48.573,199.326Z" transform="translate(-43.594 -180.384)"/>
        <path id="Trazado_1048985" data-name="Trazado 1048985" d="M47.855,36.534H57.2a1.387,1.387,0,0,0,1.386-1.386V33.711A1.387,1.387,0,0,0,57.2,32.325H47.855a1.387,1.387,0,0,0-1.386,1.386v1.437A1.387,1.387,0,0,0,47.855,36.534ZM47.8,33.711a.052.052,0,0,1,.052-.052H57.2a.052.052,0,0,1,.052.052v1.437a.052.052,0,0,1-.052.052H47.855a.052.052,0,0,1-.052-.052Z" transform="translate(-43.594 -29.45)"/>
        <path id="Trazado_1048986" data-name="Trazado 1048986" d="M47.136,98.31h2.156a.667.667,0,1,0,0-1.334H47.136a.667.667,0,1,0,0,1.334Z" transform="translate(-43.594 -88.351)"/>
        <path id="Trazado_1048987" data-name="Trazado 1048987" d="M110.122,97.643a.667.667,0,0,0-.667-.667h-5.75a.667.667,0,0,0,0,1.334h5.75A.667.667,0,0,0,110.122,97.643Z" transform="translate(-95.132 -88.351)"/>
        <path id="Trazado_1048988" data-name="Trazado 1048988" d="M134.015,134.728a1.387,1.387,0,0,0-1.386-1.386H112.506a1.387,1.387,0,0,0-1.386,1.386v1.437a1.387,1.387,0,0,0,1.386,1.386H132.63a1.387,1.387,0,0,0,1.386-1.386Zm-21.561,1.437v-1.437a.052.052,0,0,1,.052-.052h11.14a.052.052,0,0,1,.052.052v1.437a.052.052,0,0,1-.052.052h-11.14A.052.052,0,0,1,112.454,136.165Zm20.227,0a.052.052,0,0,1-.052.052h-7.6c0-.017,0-.034,0-.052v-1.437c0-.017,0-.034,0-.052h7.6a.052.052,0,0,1,.052.052v1.437Z" transform="translate(-102.495 -121.483)"/>
        <path id="Trazado_1048989" data-name="Trazado 1048989" d="M112.506,202.2H132.63a1.387,1.387,0,0,0,1.386-1.386v-1.437a1.387,1.387,0,0,0-1.386-1.386H112.506a1.387,1.387,0,0,0-1.386,1.386v1.437A1.387,1.387,0,0,0,112.506,202.2Zm20.175-2.823v1.437a.052.052,0,0,1-.052.052h-2.21c0-.017,0-.034,0-.052v-1.437c0-.017,0-.034,0-.052h2.21A.052.052,0,0,1,132.681,199.378Zm-20.227,0a.052.052,0,0,1,.052-.052h16.53a.052.052,0,0,1,.052.052v1.437a.052.052,0,0,1-.052.052h-16.53a.052.052,0,0,1-.052-.052Z" transform="translate(-102.495 -180.384)"/>
        <path id="Trazado_1048990" data-name="Trazado 1048990" d="M48.536,174.96V163.1a.667.667,0,0,0-1.334,0V174.96a9.245,9.245,0,0,0-1.581.252,1.38,1.38,0,0,0,.041-.327v-1.437a1.387,1.387,0,0,0-1.386-1.386H24.152a1.387,1.387,0,0,0-1.386,1.386v1.437a1.387,1.387,0,0,0,1.386,1.386H43.077a9.287,9.287,0,0,0,0,15.915H16.605a1.131,1.131,0,0,1-1.13-1.129V188.03a.667.667,0,0,0-1.334,0v3.026a2.467,2.467,0,0,0,2.464,2.464H47.869a9.291,9.291,0,0,0,.667-18.559Zm-4.209-1.513v1.437a.052.052,0,0,1-.052.052h-10.3c0-.017,0-.034,0-.052v-1.437c0-.017,0-.034,0-.052h10.3A.052.052,0,0,1,44.327,173.447ZM24.1,174.884v-1.437a.052.052,0,0,1,.052-.052H32.6a.052.052,0,0,1,.052.052v1.437a.052.052,0,0,1-.052.052H24.152a.052.052,0,0,1-.052-.052Zm23.769,17.3a7.957,7.957,0,0,1,0-15.915h0a7.957,7.957,0,0,1,0,15.915Z" transform="translate(-14.141 -147.984)"/>
        <path id="Trazado_1048991" data-name="Trazado 1048991" d="M374.433,390.777l-1.208,1.208-.368-.368a.667.667,0,0,0-.943.943l.84.84a.667.667,0,0,0,.943,0l1.68-1.68a.667.667,0,1,0-.943-.943Z" transform="translate(-339.917 -355.845)"/>
        <path id="Trazado_1048992" data-name="Trazado 1048992" d="M343.595,352.849a.666.666,0,0,0-.731.6,3.984,3.984,0,1,1-.608-2.556.667.667,0,1,0,1.123-.72,5.319,5.319,0,1,0,.812,3.41A.667.667,0,0,0,343.595,352.849Z" transform="translate(-305.173 -316.795)"/>
        <path id="Trazado_1048993" data-name="Trazado 1048993" d="M218.587,361.962a.667.667,0,1,0,0-1.334h-2.754a.667.667,0,1,0,0,1.334Z" transform="translate(-197.288 -328.556)"/>
        <path id="Trazado_1048994" data-name="Trazado 1048994" d="M110.462,393.62a.667.667,0,0,0,.667.667h12.065a.667.667,0,1,0,0-1.334H111.129A.667.667,0,0,0,110.462,393.62Z" transform="translate(-101.896 -358.006)"/>
        <path id="Trazado_1048995" data-name="Trazado 1048995" d="M47.136,394.287h2.785a.667.667,0,1,0,0-1.334H47.136a.667.667,0,1,0,0,1.334Z" transform="translate(-43.594 -358.006)"/>
        <path id="Trazado_1048996" data-name="Trazado 1048996" d="M59.264,360.628H47.136a.667.667,0,1,0,0,1.334H59.264a.667.667,0,1,0,0-1.334Z" transform="translate(-43.594 -328.556)"/>
        <path id="Trazado_1048997" data-name="Trazado 1048997" d="M47.136,426.612h10.9a.667.667,0,1,0,0-1.334h-10.9a.667.667,0,1,0,0,1.334Z" transform="translate(-43.594 -387.456)"/>
      </g>
    </g>
  </g>
</svg>
