<svg xmlns="http://www.w3.org/2000/svg" xmlns:xlink="http://www.w3.org/1999/xlink" width="108" height="108" viewBox="0 0 108 108">
  <defs>
    <filter id="Trazado_904820" x="0" y="0" width="108" height="108" filterUnits="userSpaceOnUse">
      <feOffset dy="3" input="SourceAlpha"/>
      <feGaussianBlur stdDeviation="3" result="blur"/>
      <feFlood flood-opacity="0.161"/>
      <feComposite operator="in" in2="blur"/>
      <feComposite in="SourceGraphic"/>
    </filter>
  </defs>
  <g id="Grupo_1202100" data-name="Grupo 1202100" transform="translate(-194 -704.887)">
    <g id="Grupo_1182736" data-name="Grupo 1182736" transform="translate(-6.228 -73.783)">
      <g id="Grupo_1179560" data-name="Grupo 1179560" transform="translate(-0.227 23)">
        <g id="Grupo_1173787" data-name="Grupo 1173787" transform="translate(209.455 761.67)">
          <g id="Grupo_1171910" data-name="Grupo 1171910" transform="translate(0)">
            <g id="Grupo_1167341" data-name="Grupo 1167341">
              <g id="Grupo_1166792" data-name="Grupo 1166792">
                <g transform="matrix(1, 0, 0, 1, -9, -6)" filter="url(#Trazado_904820)">
                  <g id="Trazado_904820-2" data-name="Trazado 904820" transform="translate(9 6)" fill="#fdf6ea">
                    <path d="M 44.99999618530273 88.50003051757812 C 39.12687301635742 88.50003051757812 33.43022155761719 87.35010528564453 28.06829643249512 85.08219909667969 C 22.88852119445801 82.89134216308594 18.23629570007324 79.75461578369141 14.24084663391113 75.75916290283203 C 10.24540901184082 71.76371765136719 7.108683586120605 67.11150360107422 4.917821407318115 61.93172836303711 C 2.649921178817749 56.56978988647461 1.499996185302734 50.87313842773438 1.499996185302734 45.00001525878906 C 1.499996185302734 39.12689208984375 2.649921178817749 33.43024063110352 4.917821407318115 28.06831550598145 C 7.108683586120605 22.88854026794434 10.24540901184082 18.23631477355957 14.24084663391113 14.24086570739746 C 18.23629570007324 10.24541568756104 22.88852119445801 7.10869026184082 28.06829643249512 4.917840480804443 C 33.43022155761719 2.649927854537964 39.12687301635742 1.50000274181366 44.99999618530273 1.50000274181366 C 50.87311935424805 1.50000274181366 56.56977081298828 2.649927854537964 61.93169784545898 4.917840480804443 C 67.11147308349609 7.10869026184082 71.76369476318359 10.24541568756104 75.75914764404297 14.24086570739746 C 79.75458526611328 18.23631477355957 82.89131164550781 22.88854026794434 85.08216857910156 28.06831550598145 C 87.35007476806641 33.43024063110352 88.5 39.12689208984375 88.5 45.00001525878906 C 88.5 50.87313842773438 87.35007476806641 56.56978988647461 85.08216857910156 61.93172836303711 C 82.89131164550781 67.11150360107422 79.75458526611328 71.76371765136719 75.75914764404297 75.75916290283203 C 71.76369476318359 79.75461578369141 67.11147308349609 82.89134216308594 61.93169784545898 85.08219909667969 C 56.56977081298828 87.35010528564453 50.87311935424805 88.50003051757812 44.99999618530273 88.50003051757812 Z" stroke="none"/>
                    <path d="M 44.99999618530273 3 C 39.32870864868164 3 33.82865142822266 4.110061645507812 28.65262603759766 6.299346923828125 C 23.65165710449219 8.414573669433594 19.15968322753906 11.44334411621094 15.301513671875 15.301513671875 C 11.44333648681641 19.15968322753906 8.414566040039062 23.65165710449219 6.299339294433594 28.65262985229492 C 4.110054016113281 33.82867050170898 2.999992370605469 39.32872772216797 2.999992370605469 45.00001525878906 C 2.999992370605469 50.67130279541016 4.110054016113281 56.17136001586914 6.299339294433594 61.34738922119141 C 8.414566040039062 66.34837341308594 11.44333648681641 70.84033203125 15.301513671875 74.69850158691406 C 19.15968322753906 78.55668640136719 23.65165710449219 81.58545684814453 28.65262603759766 83.70068359375 C 33.82865142822266 85.88996887207031 39.32870864868164 87.00003051757812 44.99999618530273 87.00003051757812 C 50.67128372192383 87.00003051757812 56.17134094238281 85.88996887207031 61.34736633300781 83.70068359375 C 66.34834289550781 81.58545684814453 70.84030914306641 78.55668640136719 74.69847869873047 74.69850158691406 C 78.55665588378906 70.84033203125 81.58542633056641 66.34837341308594 83.70065307617188 61.34738922119141 C 85.88993835449219 56.17136001586914 87 50.67130279541016 87 45.00001525878906 C 87 39.32872772216797 85.88993835449219 33.82867050170898 83.70065307617188 28.65262985229492 C 81.58542633056641 23.65165710449219 78.55665588378906 19.15968322753906 74.69847869873047 15.301513671875 C 70.84030914306641 11.44334411621094 66.34834289550781 8.414573669433594 61.34736633300781 6.299346923828125 C 56.17134094238281 4.110061645507812 50.67128372192383 3 44.99999618530273 3 M 44.99999618530273 0 C 69.85281372070312 0 90 20.14718627929688 90 45.00001525878906 C 90 69.85282897949219 69.85281372070312 90.00003051757812 44.99999618530273 90.00003051757812 C 20.14717864990234 90.00003051757812 -7.62939453125e-06 69.85282897949219 -7.62939453125e-06 45.00001525878906 C -7.62939453125e-06 20.14718627929688 20.14717864990234 0 44.99999618530273 0 Z" stroke="none" fill="#815f20"/>
                  </g>
                </g>
              </g>
            </g>
          </g>
        </g>
      </g>
    </g>
    <g id="planificacion_2_" data-name="planificacion (2)" transform="translate(219.211 727.098)">
      <g id="Grupo_1202098" data-name="Grupo 1202098" transform="translate(0.9 0.9)">
        <path id="Trazado_1048998" data-name="Trazado 1048998" d="M79.65,37.615l-2.325-.35a10.848,10.848,0,0,0-1.71-4.126l1.4-1.892a.832.832,0,0,0-.081-1.082l-1.2-1.2a.832.832,0,0,0-1.082-.081l-1.892,1.4a10.848,10.848,0,0,0-4.126-1.71l-.35-2.325a.832.832,0,0,0-.823-.708h-1.7a.832.832,0,0,0-.823.708l-.35,2.325a10.846,10.846,0,0,0-4.126,1.71l-1.892-1.4a.832.832,0,0,0-1.082.081l-1.2,1.2a.832.832,0,0,0-.081,1.082l1.4,1.892a10.848,10.848,0,0,0-1.71,4.126l-2.325.35a.832.832,0,0,0-.708.823v1.7a.832.832,0,0,0,.708.823l2.325.35a10.846,10.846,0,0,0,1.71,4.126l-1.4,1.892a.832.832,0,0,0,.081,1.082l1.2,1.2a.832.832,0,0,0,1.082.081l1.892-1.4a10.848,10.848,0,0,0,4.126,1.71l.35,2.325a.832.832,0,0,0,.823.708h1.7a.832.832,0,0,0,.823-.708l.35-2.325a10.848,10.848,0,0,0,4.126-1.71l1.892,1.4a.832.832,0,0,0,1.082-.081l1.2-1.2a.832.832,0,0,0,.081-1.082l-1.4-1.892a10.848,10.848,0,0,0,1.71-4.126l2.325-.35a.832.832,0,0,0,.708-.823v-1.7A.832.832,0,0,0,79.65,37.615ZM66.605,44.793a5.5,5.5,0,1,1,5.505-5.5A5.5,5.5,0,0,1,66.605,44.793Z" transform="translate(-47.808 -23.563)" fill="#ffe27a"/>
        <circle id="Elipse_14301" data-name="Elipse 14301" cx="3.008" cy="3.008" r="3.008" transform="translate(44.719)" fill="#ff4755"/>
        <path id="Trazado_1048999" data-name="Trazado 1048999" d="M408.658,27.745a3.009,3.009,0,0,1-2.833-2,3.008,3.008,0,1,0,5.666,0A3.009,3.009,0,0,1,408.658,27.745Z" transform="translate(-360.931 -23.753)" fill="#fc2b3a"/>
        <circle id="Elipse_14302" data-name="Elipse 14302" cx="3.008" cy="3.008" r="3.008" transform="translate(44.719 25.434)" fill="#ff4755"/>
        <path id="Trazado_1049000" data-name="Trazado 1049000" d="M408.658,253.911a3.009,3.009,0,0,1-2.833-2,3.008,3.008,0,1,0,5.666,0A3.009,3.009,0,0,1,408.658,253.911Z" transform="translate(-360.931 -224.485)" fill="#fc2b3a"/>
        <g id="Grupo_1202097" data-name="Grupo 1202097" transform="translate(0 33.243)">
          <path id="Trazado_1049001" data-name="Trazado 1049001" d="M315.244,323a2.3,2.3,0,0,1,2.3,2.3l5.409-2.851a2.051,2.051,0,1,0-1.928-3.62L313.325,323h1.919Z" transform="translate(-278.989 -316.898)" fill="#f4b184"/>
          <path id="Trazado_1049002" data-name="Trazado 1049002" d="M230.206,309.707l11.171-5.859a2.141,2.141,0,0,1,2.009,3.781l-3.833,2.078Z" transform="translate(-205.217 -303.603)" fill="#f4b184"/>
          <path id="Trazado_1049003" data-name="Trazado 1049003" d="M281.919,319.968l3.833-2.078a2.144,2.144,0,0,0,.949-2.725l-8.761,4.8Z" transform="translate(-247.582 -313.865)" fill="#eaa678"/>
          <path id="Trazado_1049004" data-name="Trazado 1049004" d="M345.864,336.44l5.409-2.851a2.053,2.053,0,0,0,.991-2.456l-7.025,3.733A2.291,2.291,0,0,1,345.864,336.44Z" transform="translate(-307.314 -328.037)" fill="#eaa678"/>
          <path id="Trazado_1049005" data-name="Trazado 1049005" d="M222.259,335.923a2.3,2.3,0,0,1-2.007,2.281l-14.28,1.809,6.065.731a27.043,27.043,0,0,0,16.377-3.214l5.556-3.089A2.075,2.075,0,0,0,232,330.79Z" transform="translate(-183.708 -327.52)" fill="#f4b184"/>
          <path id="Trazado_1049006" data-name="Trazado 1049006" d="M233.969,344.015a2.077,2.077,0,0,0,.877-2.678l-13.268,7.111-4.914-.216-10.693,1.354,6.065.731a27.043,27.043,0,0,0,16.377-3.214Z" transform="translate(-183.708 -337.094)" fill="#eaa678"/>
          <path id="Trazado_1049007" data-name="Trazado 1049007" d="M14.11,351.489a22.947,22.947,0,0,1,9.357-4.5,17.636,17.636,0,0,1,9.522.987H44.255a2.3,2.3,0,0,1,.288,4.58l-14.28,1.809,6.065.731a27.043,27.043,0,0,0,16.377-3.214l7.588-4.218a2.382,2.382,0,0,1,2.244,4.2l-11.1,6.046c-5.561,3.031-11.893,7-18.2,6.441L14.11,362.644H8V351.489Z" transform="translate(-8 -341.873)" fill="#ffc89f"/>
          <g id="Grupo_1202096" data-name="Grupo 1202096" transform="translate(0 6.283)">
            <path id="Trazado_1049008" data-name="Trazado 1049008" d="M63.3,359.655c-.048-.063-.1-.123-.151-.18A2.368,2.368,0,0,1,62,360.9L50.9,366.95c-5.561,3.031-11.893,7-18.2,6.441l-19.133-1.708H8v2.28h6.11l19.133,1.708c6.306.563,12.637-3.41,18.2-6.441l11.1-6.046A2.385,2.385,0,0,0,63.3,359.655Z" transform="translate(-8 -359.475)" fill="#f7bc94"/>
          </g>
        </g>
        <path id="Trazado_1049009" data-name="Trazado 1049009" d="M137.207,157.845a5.528,5.528,0,0,0-.094-1.012,5.5,5.5,0,0,1-10.821,0,5.5,5.5,0,1,0,10.916,1.012Z" transform="translate(-112.905 -140.095)" fill="#f9cf58"/>
        <circle id="Elipse_14303" data-name="Elipse 14303" cx="3.008" cy="3.008" r="3.008" transform="translate(44.719 12.717)" fill="#ff4755"/>
        <path id="Trazado_1049010" data-name="Trazado 1049010" d="M408.658,140.829a3.009,3.009,0,0,1-2.833-2,3.008,3.008,0,1,0,5.666,0A3.009,3.009,0,0,1,408.658,140.829Z" transform="translate(-360.931 -124.12)" fill="#fc2b3a"/>
      </g>
      <g id="Grupo_1202099" data-name="Grupo 1202099" transform="translate(0 0)">
        <path id="Trazado_1049011" data-name="Trazado 1049011" d="M43.968,368.054c-.572.312-1.152.633-1.739.959-4.969,2.755-10.6,5.878-16.015,5.395L7.042,372.7q-.037,0-.075,0H1.69v-9.487H6.967a.845.845,0,0,0,.546-.2,22.891,22.891,0,0,1,3.824-2.476.845.845,0,1,0-.779-1.5,25.417,25.417,0,0,0-3.89,2.485H.845a.845.845,0,0,0-.845.845v11.177a.845.845,0,0,0,.845.845H6.93l19.134,1.708q.648.058,1.295.057c5.487,0,10.886-2.993,15.691-5.657.584-.324,1.16-.643,1.728-.953a.845.845,0,0,0-.809-1.484Z" transform="translate(0 -318.57)"/>
        <path id="Trazado_1049012" data-name="Trazado 1049012" d="M161.188,302.988a3.213,3.213,0,0,0-3.815-1.037,2.92,2.92,0,0,0-4.275-2.4l-2.01,1.059a2.895,2.895,0,0,0-4.271-2.395l-1.5.814a2.988,2.988,0,0,0-4.37-2.511L130.1,302.206a18.564,18.564,0,0,0-9.65-.889,18,18,0,0,0-2.4.627.845.845,0,1,0,.536,1.6,16.3,16.3,0,0,1,2.173-.569,16.979,16.979,0,0,1,9.039.929.845.845,0,0,0,.346.074h11.289a1.459,1.459,0,0,1,.182,2.906L127.308,308.7a.845.845,0,0,0,.005,1.677l6.076.732a27.774,27.774,0,0,0,16.921-3.32l7.593-4.221a1.53,1.53,0,0,1,1.935.438,1.554,1.554,0,0,1-.492,2.285l-8.147,4.44a.845.845,0,0,0,.809,1.484l8.147-4.44a3.234,3.234,0,0,0,1.033-4.787Zm-19.458-4.974a1.288,1.288,0,0,1,1.645.381,1.309,1.309,0,0,1-.427,1.916l-3.653,1.98h-5.721Zm.769,4.463,5.124-2.778a1.2,1.2,0,0,1,1.606.437,1.218,1.218,0,0,1-.471,1.7l-4.445,2.342A3.163,3.163,0,0,0,142.5,302.478Zm6.99,3.834a26.079,26.079,0,0,1-15.141,3.2l7.48-.947a3.154,3.154,0,0,0,2.7-2.59l9.354-4.93a1.234,1.234,0,0,1,1.169,2.173Z" transform="translate(-104.262 -262.865)"/>
        <path id="Trazado_1049013" data-name="Trazado 1049013" d="M124.79,103.78a6.305,6.305,0,0,0,2.729-.614.845.845,0,0,0-.726-1.526,4.628,4.628,0,0,1-2,.45,4.668,4.668,0,1,1,4.093-2.418.845.845,0,1,0,1.48.817,6.361,6.361,0,1,0-5.572,3.291Z" transform="translate(-105.111 -80.818)"/>
        <path id="Trazado_1049014" data-name="Trazado 1049014" d="M46.368,19.114l1.752.263a11.622,11.622,0,0,0,1.39,3.353l-1.053,1.425a1.668,1.668,0,0,0,.163,2.184l1.206,1.206a1.669,1.669,0,0,0,2.184.163l1.425-1.053a11.621,11.621,0,0,0,3.353,1.39l.263,1.752a1.669,1.669,0,0,0,1.66,1.429h1.705a1.668,1.668,0,0,0,1.66-1.429l.263-1.751a11.621,11.621,0,0,0,3.353-1.39l1.425,1.053a1.668,1.668,0,0,0,2.184-.163l1.206-1.206a1.668,1.668,0,0,0,.163-2.184l-1.053-1.425a11.617,11.617,0,0,0,1.39-3.353l1.751-.263a1.669,1.669,0,0,0,1.429-1.66v-.008H79.2V28.218a1.973,1.973,0,0,0,1.971,1.971h3.61a3.859,3.859,0,1,0,0-1.69h-3.61a.281.281,0,0,1-.281-.281V17.446h3.891a3.859,3.859,0,1,0,0-1.69H80.9V4.985a.281.281,0,0,1,.281-.281h3.61a3.859,3.859,0,1,0,0-1.69h-3.61A1.973,1.973,0,0,0,79.2,4.985V15.756H74.19v-.007a1.668,1.668,0,0,0-1.429-1.66l-1.752-.263a11.62,11.62,0,0,0-1.39-3.353l1.053-1.425a1.668,1.668,0,0,0-.163-2.184L69.3,5.657a1.669,1.669,0,0,0-2.184-.163L65.694,6.546a11.62,11.62,0,0,0-3.353-1.39L62.077,3.4a1.668,1.668,0,0,0-1.66-1.429H58.712A1.668,1.668,0,0,0,57.052,3.4l-.263,1.752a11.623,11.623,0,0,0-3.353,1.39L52.01,5.493a1.668,1.668,0,0,0-2.184.163L48.62,6.862a1.668,1.668,0,0,0-.163,2.184l1.053,1.425a11.619,11.619,0,0,0-1.39,3.353l-1.752.263a1.668,1.668,0,0,0-1.429,1.66v1.705a1.669,1.669,0,0,0,1.429,1.66Zm42.183,8.06a2.169,2.169,0,1,1-2.169,2.169,2.171,2.171,0,0,1,2.169-2.169Zm0-12.742A2.169,2.169,0,1,1,86.382,16.6,2.171,2.171,0,0,1,88.551,14.432Zm0-12.742a2.169,2.169,0,1,1-2.169,2.169A2.171,2.171,0,0,1,88.551,1.69ZM46.629,15.759l2.32-.349a.845.845,0,0,0,.7-.68,9.972,9.972,0,0,1,1.58-3.813.845.845,0,0,0-.018-.979L49.822,8.05l1.192-1.192L52.9,8.253a.845.845,0,0,0,.979.018,9.974,9.974,0,0,1,3.813-1.58.845.845,0,0,0,.68-.7l.349-2.32h1.685l.349,2.32a.845.845,0,0,0,.68.7,9.971,9.971,0,0,1,3.813,1.58.845.845,0,0,0,.979-.018l1.887-1.394L69.307,8.05,67.913,9.938a.845.845,0,0,0-.018.979,9.972,9.972,0,0,1,1.58,3.813.845.845,0,0,0,.7.68l2.32.349v1.685l-2.32.349a.845.845,0,0,0-.7.68,9.972,9.972,0,0,1-1.58,3.813.845.845,0,0,0,.018.979l1.394,1.887-1.192,1.192L66.228,24.95a.845.845,0,0,0-.979-.018,9.972,9.972,0,0,1-3.813,1.58.845.845,0,0,0-.68.7l-.349,2.32H58.722l-.349-2.32a.845.845,0,0,0-.68-.7,9.972,9.972,0,0,1-3.813-1.58.845.845,0,0,0-.979.018l-1.887,1.394-1.192-1.192,1.394-1.887a.845.845,0,0,0,.018-.979,9.97,9.97,0,0,1-1.58-3.813.845.845,0,0,0-.7-.68l-2.32-.349Z" transform="translate(-39.885 0)"/>
      </g>
    </g>
  </g>
</svg>
