<svg xmlns="http://www.w3.org/2000/svg" xmlns:xlink="http://www.w3.org/1999/xlink" width="420" height="276" viewBox="0 0 420 276">
  <defs>
    <clipPath id="clip-path">
      <rect id="Rectángulo_416855" data-name="Rectángulo 416855" width="420" height="276" transform="translate(1000 747)" fill="#fff" stroke="#707070" stroke-width="1" opacity="0.88"/>
    </clipPath>
  </defs>
  <g id="Enmascarar_grupo_1183040" data-name="Enmascarar grupo 1183040" transform="translate(-1000 -747)" clip-path="url(#clip-path)">
    <g id="Grupo_1201800" data-name="Grupo 1201800" transform="translate(1000 748.756)">
      <g id="OBJECTS" transform="translate(0 0)">
        <path id="Trazado_1048532" data-name="Trazado 1048532" d="M415.587,187.21c0,37.886-22.1,72.116-57.579,96.466H98.593C63.112,259.325,41.014,225.1,41.014,187.21c0-73.835,83.92-133.78,187.285-133.78s187.288,59.945,187.288,133.78" transform="translate(-27.943 -1.057)" fill="#fffbf5"/>
        <path id="Trazado_1048533" data-name="Trazado 1048533" d="M608,332.378l.042-.055h0Z" transform="translate(-541.847 -137.001)" fill="#fba92d"/>
        <g id="Grupo_1201785" data-name="Grupo 1201785" transform="translate(29.004 195.811)">
          <path id="Trazado_1048534" data-name="Trazado 1048534" d="M597.556,333.312c.023.138.046.274.069.413l.013.069v0l.005.026.031.187-.033-.133a44.613,44.613,0,0,0,1.438,5.652,47.758,47.758,0,0,0,2.2,5.521,56.752,56.752,0,0,0,3.281,5.884c.866,1.376,1.853,2.866,3.109,4.688,1.168,1.7,2.358,3.391,3.549,5.077,1.123,1.594,2.248,3.189,3.352,4.793,4.237,6.159,8.989,13.391,11.782,21.267a35.375,35.375,0,0,1,2.142,11.1,28.12,28.12,0,0,1-.482,5.605,26.992,26.992,0,0,1-1.714,5.589,32.026,32.026,0,0,1-3.217,5.734.341.341,0,0,1,.028.074,1.083,1.083,0,0,1-.077.831,1.031,1.031,0,0,1-.615.518,15.908,15.908,0,0,1-2.024.415l-.07.013c-.615.1-1.281.19-2.155.292-1.2.141-2.525.264-4.16.387-2.7.205-5.459.333-8.125.456l-.235.01-1.953.085c-1.912.085-3.893.169-5.835.289-.7.041-1.4.087-2.094.131-1.678.108-3.416.22-5.123.295-1.413.062-2.678.09-3.873.09-1.222,0-2.35-.031-3.452-.092a37.712,37.712,0,0,1-7.2-1.046,28.033,28.033,0,0,1-6.312-2.483,22.61,22.61,0,0,1-4.5-3.137,16.673,16.673,0,0,1-3.07-3.739,17.886,17.886,0,0,1-1.848-4.4,26.775,26.775,0,0,1-.838-5.111,48.981,48.981,0,0,1-.059-5.715,66.672,66.672,0,0,1,1.971-13.7,64.694,64.694,0,0,1,2.132-6.759,60.216,60.216,0,0,1,2.827-6.374,52.714,52.714,0,0,1,7.922-11.418c1.663-1.82,3.509-3.529,5.257-5.124l.135-.123.18-.152c.638-.533,1.284-1.053,1.928-1.579,3.029-2.476,6.048-4.964,8.916-7.625,1.433-1.33,2.832-2.7,4.168-4.124q1.325-1.415,2.567-2.9a1.234,1.234,0,0,1,.058.244" transform="translate(-559.443 -333.068)" fill="#fba92d"/>
          <g id="Grupo_1201784" data-name="Grupo 1201784" transform="translate(11.178 5.952)">
            <path id="Trazado_1048535" data-name="Trazado 1048535" d="M614.715,367.494l.011-.008-.007.005Z" transform="translate(-593.108 -350.856)" fill="#ffbf6c"/>
            <path id="Trazado_1048536" data-name="Trazado 1048536" d="M597.018,381.333c0-.009.009-.02.014-.029l-.011.022Z" transform="translate(-563.803 -355.608)" fill="#ffbf6c"/>
            <path id="Trazado_1048537" data-name="Trazado 1048537" d="M581.967,382.9a.207.207,0,0,1,.062-.009.216.216,0,0,1,.2.148q.6,1.563,1.29,3.09l-.011-.02a47.367,47.367,0,0,0,6.4,10.575,33.281,33.281,0,0,0,3.175,3.342,37.462,37.462,0,0,0,3.674,2.856c.636.44,1.29.851,1.951,1.252-.047-.9-.094-1.8-.126-2.7q-.254-7.235.023-14.47.07-1.8.18-3.6c-.005,0-.013-.006-.018-.011a22.577,22.577,0,0,1-3.357-4.213c-.49-.749-.946-1.523-1.379-2.3s-.825-1.607-1.207-2.427a44,44,0,0,1-1.994-5.005,50.113,50.113,0,0,1-1.394-5.141c-.074-.341-.141-.682-.2-1.025a.187.187,0,0,1,.125-.228A.175.175,0,0,1,589.4,363a.179.179,0,0,1,.179.131,37.821,37.821,0,0,0,2.638,8.365c.3.653.616,1.3.947,1.93s.705,1.256,1.085,1.868a31.54,31.54,0,0,0,2.441,3.41q.731.861,1.521,1.669c.238.241.479.478.719.717q.274-3.872.667-7.735c.4-3.977.871-7.953,1.535-11.895.092-.542.2-1.082.3-1.623a.713.713,0,0,1-.113-.117,18.7,18.7,0,0,1-2.171-4.185,15.066,15.066,0,0,1-.9-4.546.163.163,0,0,1,.159-.169h0a.167.167,0,0,1,.165.159c.014.291.043.58.086.869a10.358,10.358,0,0,0,.324,1.325,13.4,13.4,0,0,0,.537,1.373,19.815,19.815,0,0,0,1.237,2.286c.246.39.5.779.754,1.161.071.1.145.208.217.312.129-.634.259-1.268.4-1.9.382-1.7.846-3.378,1.346-5.049.474-1.592,1.028-3.165,1.64-4.711a46.945,46.945,0,0,1,2.037-4.423.14.14,0,0,1,.128-.082.171.171,0,0,1,.154.249q-.6,1.161-1.115,2.371a.016.016,0,0,0,0,0c-.565,1.351-1.08,2.722-1.524,4.118-.474,1.486-.874,3-1.225,4.519-.457,1.988-.831,3.994-1.156,6.007.093-.054.187-.108.28-.163q.369-.218.726-.457l-.024.016.028-.019.085-.058-.078.052a10.649,10.649,0,0,0,1.083-.859,13.616,13.616,0,0,0,1.044-1.071c.4-.455.769-.929,1.124-1.415.366-.508.7-1.036,1.018-1.571s.612-1.053.9-1.592c.272-.51.541-1.022.8-1.54-.005.012-.013.026-.018.038.062-.123.121-.246.182-.371a.173.173,0,0,1,.152-.11.171.171,0,0,1,.055.01.165.165,0,0,1,.1.208c-.223.459-.436.92-.648,1.381-.223.489-.461.974-.692,1.461s-.495.982-.756,1.463c-.269.5-.543.989-.833,1.472a13.842,13.842,0,0,1-2.04,2.617,8.079,8.079,0,0,1-1.266,1.046,5.21,5.21,0,0,1-.684.392c-.1.049-.215.092-.325.131-.131.047-.264.082-.4.116q-.159,1.055-.3,2.111c-.524,3.921-.858,7.86-1.139,11.8-.156,2.227-.3,4.46-.4,6.692,0,.1-.006.19-.01.286.134-.071.267-.144.4-.213.51-.257,1.031-.492,1.543-.743a25.746,25.746,0,0,0,2.932-1.716,30.98,30.98,0,0,0,3.042-2.336,31.41,31.41,0,0,0,2.768-2.785q.551-.633,1.074-1.293c.382-.485.759-.98,1.112-1.487a25.368,25.368,0,0,0,1.78-3.03l-.007.013.011-.02.015-.031,0,.009a22.7,22.7,0,0,0,1.189-2.807.146.146,0,0,1,.144-.107.165.165,0,0,1,.166.215c-.259.789-.531,1.571-.859,2.337s-.692,1.507-1.081,2.237c-.4.757-.848,1.487-1.3,2.212a25.1,25.1,0,0,1-1.482,2.115,36.228,36.228,0,0,1-3.5,3.872c-.62.6-1.258,1.182-1.927,1.73s-1.338,1.058-2.035,1.55-1.4.961-2.13,1.389a9.106,9.106,0,0,1-1.076.539c-.223.094-.451.172-.682.251-.056.019-.112.031-.169.045-.055,1.666-.1,3.332-.111,5q-.058,6.805.333,13.6c.051.888.113,1.775.176,2.663l.466-.137c.323-.1.645-.2.967-.306l.131-.07c.625-.333,1.25-.674,1.876-1.007,1.294-.692,2.581-1.394,3.834-2.155q1.922-1.172,3.755-2.474c1.192-.846,2.327-1.779,3.439-2.728a39.467,39.467,0,0,0,6.862-7.494,28.793,28.793,0,0,0,2.312-4.069.353.353,0,0,1,.321-.2.357.357,0,0,1,.157.037.363.363,0,0,1,.161.479,45.069,45.069,0,0,1-5.461,8.773,44.566,44.566,0,0,1-3.57,4.008c-.633.636-1.3,1.243-1.976,1.83-.715.62-1.438,1.233-2.176,1.825a38.626,38.626,0,0,1-5.005,3.393,26.46,26.46,0,0,1-2.852,1.4c-.433.179-.874.343-1.318.492a7.847,7.847,0,0,1-1.42.342l-.03.012a.706.706,0,0,1-.32.041c.056.709.111,1.417.174,2.125.205,2.306.444,4.608.676,6.912a.955.955,0,0,1-.133.495.977.977,0,0,1-1.34.351.928.928,0,0,1-.448-.585q-.266-1.853-.467-3.714c-.129-1.2-.236-2.4-.331-3.6-.057-.726-.1-1.452-.149-2.178-.706-.424-1.39-.888-2.054-1.375q-1.023-.75-1.971-1.594c-.631-.561-1.212-1.176-1.786-1.794s-1.138-1.251-1.687-1.9a50.335,50.335,0,0,1-5.738-8.4,68.687,68.687,0,0,1-3.778-8.266A.209.209,0,0,1,581.967,382.9Z" transform="translate(-581.814 -342.139)" fill="#ffbf6c"/>
          </g>
        </g>
        <g id="Grupo_1201787" data-name="Grupo 1201787" transform="translate(0 207.355)">
          <path id="Trazado_1048538" data-name="Trazado 1048538" d="M596.924,350.663a14.382,14.382,0,0,1,1.93.136,19.128,19.128,0,0,1,4.641,1.287,26.035,26.035,0,0,1,4.261,2.245,29.426,29.426,0,0,1,3.876,3.053,34.693,34.693,0,0,1,3.437,3.645,43.792,43.792,0,0,1,5.452,8.674,43.26,43.26,0,0,1,2.3,5.883,12.535,12.535,0,0,1,1.511-2.268,11.19,11.19,0,0,1,1.762-1.711,9.6,9.6,0,0,1,2.054-1.21,9.252,9.252,0,0,1,4.829-.647,13.386,13.386,0,0,1,5.333,2.08,15.551,15.551,0,0,1,3.5,3.085,23.236,23.236,0,0,1,4.407,8.657,34.271,34.271,0,0,1,1.268,10.084c-.01.558-.031,1.12-.064,1.679a14.465,14.465,0,0,1,1.235-1.41,13.87,13.87,0,0,1,2.1-1.715,9.676,9.676,0,0,1,2.169-1.111,9.516,9.516,0,0,1,1.222-.356,8.587,8.587,0,0,1,1.336-.157c.1-.005.208-.007.313-.007a7.674,7.674,0,0,1,4.515,1.623,12.413,12.413,0,0,1,3.347,3.991,17.463,17.463,0,0,1,1.669,4.479,28.457,28.457,0,0,1,.328,10.109,40.239,40.239,0,0,1-1.187,5.759,35.484,35.484,0,0,1-1.8,5,.533.533,0,0,1-.471.336.5.5,0,0,1-.159-.028.582.582,0,0,1-.12-.062.327.327,0,0,1-.3.4c-4.067.186-8.527.291-14.034.333l-4.275.03c-3.253.021-6.508.043-9.762.083-2.331.031-4.694.082-7.025.154-2.091.064-4.325.167-7.029.328-.668.039-1.336.085-2,.132-.5.034-1,.069-1.5.1q-1.738.115-3.476.2c-2.572.119-4.837.186-6.925.2-.375,0-.751,0-1.125,0-2.106,0-4.207-.051-6.244-.15-1.215-.06-2.426-.146-3.6-.257-1.125-.106-2.448-.247-3.732-.482a.688.688,0,0,1-.549-.557,9.5,9.5,0,0,1-1.087-1.43,9.772,9.772,0,0,1-.9-1.931,10.176,10.176,0,0,1-.445-2.046,11.953,11.953,0,0,1,.915-5.875,10.685,10.685,0,0,1,2.093-3.163,8.607,8.607,0,0,1,1.872-1.474c.1-.054.19-.1.285-.156-.709-.514-1.409-1.069-2.083-1.64a28.52,28.52,0,0,1-3.594-3.627,16.917,16.917,0,0,1-2.523-4.135,10.886,10.886,0,0,1-.871-4.5,10.318,10.318,0,0,1,1.005-4.255,6.4,6.4,0,0,1,2.254-2.563,7.11,7.11,0,0,1,3.086-1.022,9.971,9.971,0,0,1,1.018-.054,12.8,12.8,0,0,1,2.3.226c.228.041.456.09.682.141a46.233,46.233,0,0,1-2.672-4.232A41.258,41.258,0,0,1,587.5,369.8a36.8,36.8,0,0,1-.841-5.878,22.19,22.19,0,0,1-.033-2.638,15.408,15.408,0,0,1,.325-2.418,11.536,11.536,0,0,1,1.538-3.847,9.7,9.7,0,0,1,1.237-1.541,9.258,9.258,0,0,1,1.493-1.213,9.5,9.5,0,0,1,3.477-1.392,11.388,11.388,0,0,1,2.229-.211m49.231,40.56-.01-.167-.014-.117c.009.1.016.19.024.285" transform="translate(-583.996 -350.663)" fill="#2fc3b0"/>
          <g id="Grupo_1201786" data-name="Grupo 1201786" transform="translate(8.452 4.574)">
            <path id="Trazado_1048539" data-name="Trazado 1048539" d="M647.631,428.849l.02.03-.006-.009C647.641,428.863,647.635,428.857,647.631,428.849Z" transform="translate(-615.899 -382.124)" fill="#34dcc7"/>
            <path id="Trazado_1048540" data-name="Trazado 1048540" d="M663.851,430.378l.024.007c.05.014.1.03.151.045C663.967,430.411,663.91,430.4,663.851,430.378Z" transform="translate(-642.916 -382.65)" fill="#34dcc7"/>
            <path id="Trazado_1048541" data-name="Trazado 1048541" d="M615.633,403.855c-1.655-.553-3.293-1.166-4.9-1.845a49.9,49.9,0,0,1-8.911-4.752c-.722-.495-1.427-1.018-2.117-1.561a.218.218,0,0,1,.14-.384.205.205,0,0,1,.129.048,34.5,34.5,0,0,0,3.565,2.432c-.021-.011-.039-.023-.059-.033a45.313,45.313,0,0,0,5.707,2.858c1.023.428,2.063.817,3.114,1.176s2.13.7,3.209,1c.738.2,1.477.4,2.219.589.818.205,1.643.372,2.468.539q2.414.48,4.855.818c1.594.223,3.191.407,4.788.6q1.191.146,2.377.32c-.282-.423-.558-.848-.841-1.27.012.016.023.034.035.05-4.613-6.858-9.383-13.612-13.955-20.5q-2.554-3.848-5.008-7.768a.446.446,0,0,1-.113-.095h0a.55.55,0,0,1-.28-.041,27.379,27.379,0,0,1-3.334-1.3A32.093,32.093,0,0,1,605.4,373a26.852,26.852,0,0,1-2.958-2.063,27.272,27.272,0,0,1-2.655-2.473.174.174,0,0,1,.005-.211.2.2,0,0,1,.146-.066.134.134,0,0,1,.1.038,19.576,19.576,0,0,0,3.977,3.1l-.022-.01a35.083,35.083,0,0,0,4.1,2.094c.7.305,1.42.582,2.14.848.439.159.879.31,1.32.463-2.408-3.929-4.7-7.926-6.808-12.026-.8-1.553-1.556-3.124-2.3-4.708a.246.246,0,0,1,.11-.325.247.247,0,0,1,.328.11c1.733,3.693,3.688,7.289,5.749,10.811,1.207,2.062,2.464,4.1,3.75,6.113.01-.049.018-.1.027-.148.082-.4.172-.8.261-1.207.18-.805.344-1.617.48-2.43a27.807,27.807,0,0,0,.4-4.871c-.01-.613-.039-1.224-.087-1.836-.054-.653-.141-1.3-.249-1.951a.172.172,0,0,1,.144-.192h.023a.172.172,0,0,1,.169.145,38.3,38.3,0,0,1,.515,6.825c-.015,1.156-.072,2.317-.2,3.466-.067.571-.146,1.143-.257,1.707-.056.287-.123.574-.2.856a4.95,4.95,0,0,1-.285.8q1.051,1.626,2.123,3.238c.184.28.371.554.556.831l-.062-.092c4.621,6.866,9.514,13.543,14.329,20.273q1.772,2.479,3.527,4.967.337.479.675.956l.043.008c.027-.062.052-.124.079-.186.207-.467.42-.933.63-1.4.451-.987.889-1.981,1.287-2.991q.611-1.553,1.128-3.142c.351-1.071.648-2.163.935-3.252a.18.18,0,0,1-.005.026q.383-1.5.7-3.025c.1-.5.192-1.007.277-1.515.09-.538.177-1.079.251-1.619a43.055,43.055,0,0,0,.394-6.287c0,.02,0,.041,0,.061a34.586,34.586,0,0,0-.351-4.664.186.186,0,0,1,.195-.215.181.181,0,0,1,.187.159,38.656,38.656,0,0,1,.433,5.072,50.7,50.7,0,0,1-.19,5.3q-.234,2.729-.715,5.428c-.318,1.8-.756,3.583-1.243,5.351-.208.764-.436,1.525-.679,2.279s-.485,1.482-.754,2.212c-.264.713-.543,1.417-.856,2.112-.154.338-.318.674-.492,1-.107.2-.222.392-.344.581q1.114,1.575,2.224,3.153c2.553,3.632,5.162,7.222,7.722,10.849q1.03,1.461,2.026,2.945c.658-.71,1.348-1.389,2.023-2.081a52.035,52.035,0,0,0,4.62-5.517c.71-.974,1.407-1.96,2.058-2.975.667-1.039,1.3-2.095,1.9-3.172l-.016.031a51.971,51.971,0,0,0,2.676-5.626,57.562,57.562,0,0,0,2.06-5.964.189.189,0,0,1,.187-.123.2.2,0,0,1,.182.272q-.746,2.619-1.682,5.172c-.633,1.717-1.335,3.4-2.094,5.067s-1.571,3.309-2.468,4.9c-.451.8-.907,1.6-1.4,2.373s-1.007,1.525-1.535,2.273q-1.23,1.737-2.62,3.36c-.469.55-.953,1.092-1.455,1.617a17.619,17.619,0,0,1-1.643,1.543.673.673,0,0,1-.06.033,1,1,0,0,1,.043.322.979.979,0,0,1-1.709.592c-.187-.239-.36-.489-.543-.731-.976.052-1.956.038-2.93.018s-1.948-.054-2.922-.1c-1.953-.1-3.908-.259-5.854-.464-.976-.1-1.956-.218-2.93-.333s-1.955-.236-2.93-.384-1.947-.3-2.919-.464-1.937-.354-2.9-.551c-3.609-.73-7.2-1.553-10.728-2.624a86.6,86.6,0,0,1-10.357-3.86.266.266,0,0,1,.107-.511.251.251,0,0,1,.1.022,70.175,70.175,0,0,0,9.639,3.475l-.02-.007q2.783.777,5.612,1.38c.959.2,1.919.4,2.886.569s1.937.315,2.912.451,1.953.249,2.929.364,1.959.223,2.94.31,1.963.179,2.947.256,1.966.136,2.95.184c1.922.1,3.845.172,5.769.239.974.033,1.948.069,2.919.1.461.016.921.031,1.381.051-.661-.924-1.307-1.858-1.947-2.8q-1.915-2.811-3.773-5.659c-1.21-1.858-2.445-3.7-3.655-5.559-.442-.678-.895-1.348-1.34-2.023a24.962,24.962,0,0,1-2.535-.149c-1.14-.117-2.271-.307-3.4-.518s-2.235-.464-3.347-.718c-1.187-.274-2.37-.587-3.544-.92l.179.051-.356-.1c-.818-.229-1.63-.472-2.441-.719C617.3,404.394,616.466,404.134,615.633,403.855Z" transform="translate(-599.624 -357.634)" fill="#34dcc7"/>
          </g>
        </g>
        <g id="Grupo_1201788" data-name="Grupo 1201788" transform="translate(30.556 127.731)">
          <path id="Trazado_1048542" data-name="Trazado 1048542" d="M643.869,239.9c-.251,1.281-.495,2.556-.73,3.813l-.426,2.243c-.646,3.386-1.46,7.364-2.6,11.21a53.365,53.365,0,0,1-1.881,5.354c-.346.828-.741,1.691-1.176,2.563a21.534,21.534,0,0,1-1.291,2.292,10.887,10.887,0,0,1-1.315,1.645,7.514,7.514,0,0,1-1.39,1.161,4.212,4.212,0,0,1-2.235.741,2.856,2.856,0,0,1-.487-.041,2.638,2.638,0,0,1-1.169-.518,3.29,3.29,0,0,1-.861-1.064,5.1,5.1,0,0,1-.487-1.507,9.109,9.109,0,0,1-.108-1.994,15.619,15.619,0,0,1,.32-2.478c.167-.843.379-1.71.646-2.65a39.885,39.885,0,0,1,1.855-5.11c2.733-6.225,6.7-11.724,11.251-17.681a40.732,40.732,0,0,0,2.948-3.681c-.272,1.9-.574,3.8-.864,5.7" transform="translate(-622.009 -230.987)" fill="#ffbf6c"/>
          <path id="Trazado_1048543" data-name="Trazado 1048543" d="M611.048,244.652c.125.328.249.656.369.987.144.421.285.841.426,1.264.154.512.3,1.025.451,1.543.408,1.415.749,2.7,1.038,3.916.418,1.781.728,3.4.949,4.949.156,1.1.256,2.112.3,3.083a15.069,15.069,0,0,1-.1,2.853,4.921,4.921,0,0,1-.735,2.135,2.643,2.643,0,0,1-.32.366,2.051,2.051,0,0,1-.407.3,1.872,1.872,0,0,1-.9.241l-.079,0a3.663,3.663,0,0,1-2.151-.774,4.993,4.993,0,0,1-1.491-1.935,9.867,9.867,0,0,1-.772-2.74,20.11,20.11,0,0,1-.2-3.3c.007-1.079.074-2.217.213-3.58.113-1.118.274-2.294.489-3.6.146-.882.308-1.771.492-2.681q.172-.634.334-1.27.309-1.108.626-2.215.264-.836.539-1.669c.308.713.62,1.418.93,2.125" transform="translate(-578.579 -233.852)" fill="#ffbf6c"/>
          <path id="Trazado_1048544" data-name="Trazado 1048544" d="M655.153,232.06l-.163.329c-.008.015-.015.031-.023.049v0c-.079.159-.156.32-.236.48q-.611,1.15-1.3,2.26l.023-.039a30.775,30.775,0,0,1-1.825,2.622c-.07.09-.138.177-.211.267-.064.074-.125.146-.19.218-.356.4-.72.774-1.084,1.112a9.268,9.268,0,0,1-1.161.913,4.193,4.193,0,0,1-1.13.541,2.5,2.5,0,0,1-.562.094l-.1,0a2.585,2.585,0,0,1-.466-.054,1.8,1.8,0,0,1-.487-.207,1.96,1.96,0,0,1-.458-.384,2.809,2.809,0,0,1-.351-.518,3.92,3.92,0,0,1-.287-.73,3.449,3.449,0,0,1-.113-1.43,4.255,4.255,0,0,1,.459-1.4,6.565,6.565,0,0,1,.9-1.292,10.768,10.768,0,0,1,1.249-1.2,19.817,19.817,0,0,1,2.278-1.6c.728-.441,1.495-.863,2.287-1.258,1.36-.587,2.771-1.04,4.171-1.527-.381.93-.794,1.846-1.222,2.756" transform="translate(-645.005 -229.304)" fill="#ffbf6c"/>
        </g>
        <g id="Grupo_1201789" data-name="Grupo 1201789" transform="translate(27.303 43.833)">
          <path id="Trazado_1048545" data-name="Trazado 1048545" d="M580.789,101.433a42.351,42.351,0,0,1,19.689,4.862c1.045.545,2.092,1.156,3.111,1.815a41.711,41.711,0,0,1,3.6,2.586,40.833,40.833,0,0,1,3.469,3.107l.066.074,0-.005a42.432,42.432,0,0,1,5.592,6.968c.417.648.819,1.312,1.2,1.974a41.663,41.663,0,0,1,3.409,7.682c.246.746.474,1.505.676,2.256a40.894,40.894,0,0,1,.938,4.465c.018.108.034.215.048.325.141.955.251,1.943.326,2.937.006.07.01.125.013.182a42.031,42.031,0,0,1-9.156,29.373,42.146,42.146,0,0,1-32.958,15.844q-.465,0-.929-.01a42.9,42.9,0,0,1-7.859-.917,41.688,41.688,0,0,1-13.5-5.432,42.124,42.124,0,0,1-10.344-9.092,42.3,42.3,0,0,1-7.07-12.419A41.691,41.691,0,0,1,538.6,142.8a43.236,43.236,0,0,1,.9-7.849,42.059,42.059,0,0,1,10.9-20.571,42.409,42.409,0,0,1,20.232-11.7,42.229,42.229,0,0,1,7.669-1.171c.824-.052,1.661-.077,2.489-.077" transform="translate(-538.588 -101.433)" fill="#206969"/>
          <path id="Trazado_1048546" data-name="Trazado 1048546" d="M586.058,117.907a32.122,32.122,0,0,1,9.59,1.476,31.724,31.724,0,0,1,5.286,2.2c.778.405,1.569.867,2.351,1.371a32.224,32.224,0,0,1,5.34,4.3l.063.075a31.634,31.634,0,0,1,4.212,5.239c.307.475.611.977.9,1.493a31.215,31.215,0,0,1,2.576,5.8c.207.629.374,1.186.51,1.7a30.72,30.72,0,0,1,.71,3.376l.039.246c.108.748.192,1.494.246,2.217,0,.047.005.093.01.138a32.14,32.14,0,0,1-1.382,11.8,31.425,31.425,0,0,1-2.314,5.519,32.006,32.006,0,0,1-22.9,16.414,32.158,32.158,0,0,1-5.234.426c-.23,0-.453,0-.68-.005a32.556,32.556,0,0,1-5.947-.695,31.436,31.436,0,0,1-10.2-4.1,31.756,31.756,0,0,1-7.816-6.867,32.165,32.165,0,0,1-3.063-4.455,31.839,31.839,0,0,1-4.176-16.419,32.937,32.937,0,0,1,.68-5.929,31.905,31.905,0,0,1,8.236-15.54,32,32,0,0,1,15.286-8.838,31.387,31.387,0,0,1,5.8-.887c.657-.039,1.289-.059,1.879-.059" transform="translate(-543.757 -107.098)" fill="#fba92d"/>
          <path id="Trazado_1048547" data-name="Trazado 1048547" d="M595.177,144.479a14.626,14.626,0,0,1,4.372.674,14.458,14.458,0,0,1,2.413,1c.338.174.689.379,1.072.625a14.864,14.864,0,0,1,1.241.893,13.48,13.48,0,0,1,1.2,1.069,14.6,14.6,0,0,1,1.951,2.428c.144.223.282.449.413.679a14.348,14.348,0,0,1,1.174,2.647c.085.256.161.515.234.774a14.576,14.576,0,0,1,.326,1.543l.015.114c.051.335.087.674.113,1.01a14.868,14.868,0,0,1-.626,5.449,14.453,14.453,0,0,1-1.057,2.515,14.821,14.821,0,0,1-1.468,2.226,14.629,14.629,0,0,1-8.979,5.265,14.812,14.812,0,0,1-2.372.195c-.108,0-.22,0-.33,0a15.375,15.375,0,0,1-2.708-.316,14.529,14.529,0,0,1-8.218-5.007,15.153,15.153,0,0,1-1.4-2.033,14.52,14.52,0,0,1-1.036-2.249,14.329,14.329,0,0,1-.867-5.241,15.13,15.13,0,0,1,.31-2.708,14.532,14.532,0,0,1,3.759-7.087,14.711,14.711,0,0,1,4.428-3.138,14.157,14.157,0,0,1,2.544-.892,14.6,14.6,0,0,1,2.643-.408c.285-.018.569-.026.859-.026" transform="translate(-552.874 -116.236)" fill="#fe514a"/>
          <path id="Trazado_1048548" data-name="Trazado 1048548" d="M589.923,117.658a31.79,31.79,0,0,1,5.362,1.188.272.272,0,0,1,.038.009,33.182,33.182,0,0,1,5.523,2.317q.538.286,1.063.594a32.361,32.361,0,0,1,9.514,8.437q.477.63.921,1.283c.006.01.013.019.02.029l.076.112c.024.035.047.07.071.1l.021.032q.651.976,1.229,2a32.2,32.2,0,0,1,3.87,11.569,32.543,32.543,0,0,1,.231,6.257,32.136,32.136,0,0,1-6.287,17.2,32.266,32.266,0,0,1-26.542,13.038,32.118,32.118,0,0,1-17.421-5.559,32.363,32.363,0,0,1-8.542-8.5,32.137,32.137,0,0,1-4.828-11.17,32.516,32.516,0,0,1-.761-6.171,32.315,32.315,0,0,1,8.493-22.615,32.514,32.514,0,0,1,4.542-4.093,32.253,32.253,0,0,1,23.407-6.053m-4.237.377a31.738,31.738,0,0,0-4.273.292c.028,0,.057-.008.087-.01a32.4,32.4,0,0,0-8.064,2.193,31.981,31.981,0,0,0-7.03,4.1,32.489,32.489,0,0,0-5.664,5.664l.008-.012-.033.043-.018.024.012-.014a32.689,32.689,0,0,0-4.133,7.1c.007-.016.014-.033.021-.049a32.283,32.283,0,0,0-2.207,8.1c.005-.028.008-.058.013-.087a32.6,32.6,0,0,0-.279,4.149,31.549,31.549,0,0,0,.287,4.313c-.005-.031-.008-.059-.013-.087a32.411,32.411,0,0,0,2.237,8.2l0-.006a32.248,32.248,0,0,0,4.027,6.9l-.013-.016.022.028.029.039-.007-.011a31.782,31.782,0,0,0,12.842,9.855l-.03-.014a32.269,32.269,0,0,0,8.052,2.185l-.087-.01a32.9,32.9,0,0,0,4.206.279,31.532,31.532,0,0,0,4.177-.277l-.086.013a32.646,32.646,0,0,0,8.187-2.211,32.114,32.114,0,0,0,7.034-4.105,32.486,32.486,0,0,0,5.672-5.677c-.006.009-.013.018-.02.028l.033-.044.018-.023-.006.007a32.714,32.714,0,0,0,4.1-7.03c0,.008-.007.016-.011.024a32.212,32.212,0,0,0,2.22-8.136c0,.028-.007.056-.01.087a32.714,32.714,0,0,0,.28-4.275,31.939,31.939,0,0,0-.293-4.227c0,.028.008.056.011.087a32.448,32.448,0,0,0-2.194-8.073,32.049,32.049,0,0,0-3.215-5.818l-.027-.039-.109-.154-.035-.049-.123-.172-.052-.072-.083-.113-.054-.073-.121-.165-.048-.065-.092-.121-.049-.065-.135-.176c.018.02.033.043.051.064a32.458,32.458,0,0,0-4.718-4.9l-.015-.012-.111-.093-.089-.074-.041-.033q-.362-.3-.734-.587-.284-.218-.574-.43a32.463,32.463,0,0,0-6.527-3.707l-.2-.082h0a32.162,32.162,0,0,0-7.855-2.1c.028,0,.056.008.087.01a32.434,32.434,0,0,0-4.236-.28m12.228,2.464h0l.049.02-.036-.015.005,0-.006,0-.014-.006h0m-24.409,58.222-.047-.019c.016.006.032.012.047.019m37.167-9.82-.013.016.025-.032-.012.016m-49.979-.021-.022-.028-.008-.011c.011.013.021.026.031.039m54.061-6.948c.007-.018.015-.035.023-.053-.008.017-.015.035-.023.053m-54.042-31.615.007-.009.024-.031c-.009.013-.02.026-.031.04m37.216-9.812h0l-.013-.005h0l.013,0" transform="translate(-543.239 -106.917)" fill="#ffbf6c"/>
          <path id="Trazado_1048549" data-name="Trazado 1048549" d="M597.1,144.348h.008a15.684,15.684,0,0,1,1.588.311l.01,0,.006,0,.024.006.13.033.111.03.041.011a14.589,14.589,0,0,1,3.569,1.523c.1.06.2.121.306.184a14.46,14.46,0,0,1,2.465,1.923l.011.011.108.106.032.032.108.108.011.011q.353.359.682.739a14.177,14.177,0,0,1,1.378,1.886l.008.013.027.045c.086.141.17.283.252.426a14.885,14.885,0,0,1,1.21,2.786,15.042,15.042,0,0,1,.618,2.991,14.716,14.716,0,0,1-.638,6.041,14.992,14.992,0,0,1-2.83,5.064,14.78,14.78,0,0,1-4.631,3.637,15,15,0,0,1-5.492,1.522,14.6,14.6,0,0,1-5.941-.754,14.993,14.993,0,0,1-5.082-2.978,14.739,14.739,0,0,1-3.376-4.408,15.046,15.046,0,0,1-1.53-5.654,14.654,14.654,0,0,1,.864-6.043,15.016,15.016,0,0,1,3.109-5.059,14.752,14.752,0,0,1,8.7-4.533.06.06,0,0,1,.018,0l.062-.009q.71-.1,1.428-.133.312-.015.625-.014a14.416,14.416,0,0,1,2.01.143m-3.306.574c-.161.014-.323.031-.485.05l-.129.016c.028,0,.056-.008.087-.01a14.181,14.181,0,0,0-11.242,8.529l.016-.039a14.822,14.822,0,0,0-1.02,3.714c.005-.028.008-.058.013-.087a14.714,14.714,0,0,0-.005,3.8c-.005-.028-.008-.056-.012-.087a15.119,15.119,0,0,0,1,3.719l-.016-.036a14.842,14.842,0,0,0,1.826,3.148l-.009-.011.022.028c.01.012.02.026.029.039l-.022-.029a15.016,15.016,0,0,0,2.577,2.573l-.01-.007.026.02.041.031-.026-.02a15.127,15.127,0,0,0,3.12,1.812l-.007,0a14.725,14.725,0,0,0,3.645.995c-.031,0-.059-.008-.087-.01a14.959,14.959,0,0,0,3.829.005l-.087.01a14.941,14.941,0,0,0,3.675-.984l-.01,0,.035-.015.045-.018-.015.006a14.867,14.867,0,0,0,3.069-1.787l-.025.02.038-.03.029-.022-.012.008a15.038,15.038,0,0,0,2.569-2.565l-.022.03.032-.041.02-.025-.009.01a15.089,15.089,0,0,0,1.85-3.184c0,.009-.008.017-.011.026l.013-.031c.006-.016.013-.032.02-.048-.006.012-.011.024-.016.035a14.823,14.823,0,0,0,.977-3.657c0,.028-.008.059-.01.087a14.9,14.9,0,0,0-.005-3.744c.005.028.008.059.013.087a15.088,15.088,0,0,0-.993-3.7l-.007-.014a14.653,14.653,0,0,0-1.192-2.233l-.011-.018-.045-.068-.031-.047c-.009-.012-.017-.026-.026-.038s-.035-.053-.053-.078l0,0q-.214-.313-.444-.617a15,15,0,0,0-1.716-1.858l-.006-.006-.073-.066-.024-.022-.054-.048c-.015-.012-.028-.026-.042-.037l-.038-.034-.064-.054-.011-.01q-.289-.249-.591-.484c-.079-.06-.157-.117-.236-.175a15.076,15.076,0,0,0-2.915-1.656l.008,0a14.914,14.914,0,0,0-3.516-.973l-.062-.008h.016l-.048-.006.011,0c-.213-.028-.428-.05-.642-.068h0l-.113-.009h-.011l-.1-.007h-.021l-.1-.007h-.024l-.091,0-.034,0-.083,0-.041,0-.068,0-.056,0-.055,0-.068,0h-.04l-.082,0h-.012q-.755-.011-1.508.053m3.18.066.012,0-.012,0m3.557.972a.471.471,0,0,0,.055.024l-.037-.015-.018-.009m3.182,1.853.032.025-.026-.02-.006,0m4.38,5.653c.007.018.015.036.023.053l-.007-.018-.016-.035m-7.527,18.61-.025.011a.566.566,0,0,1,.055-.023l-.03.012m3.112-1.808-.013.009.03-.023-.017.014m-17.225-.006-.015-.012-.016-.012.031.024m19.82-2.584-.009.011.02-.026-.011.014m-22.428-.013-.008-.01-.012-.017c.007.009.013.018.02.027m-1.813-3.1-.016-.041c.006.014.012.028.016.041m26.1-.092,0,.005.007-.018,0,.012m-11.165-19.484-.021,0Z" transform="translate(-552.78 -116.142)" fill="#b73b35"/>
        </g>
        <g id="Grupo_1201790" data-name="Grupo 1201790" transform="translate(146.189 100.036)">
          <circle id="Elipse_14275" data-name="Elipse 14275" cx="18.527" cy="18.527" r="18.527" fill="#fe514a"/>
          <path id="Trazado_1048550" data-name="Trazado 1048550" d="M451.387,195.98l-3.815,7.728-8.529,1.239,6.172,6.016-1.457,8.494,7.629-4.01,7.629,4.01-1.457-8.494,6.171-6.016-8.529-1.239Z" transform="translate(-432.86 -190.15)" fill="#fff"/>
        </g>
        <g id="Grupo_1201793" data-name="Grupo 1201793" transform="translate(189.338 130.118)">
          <path id="Trazado_1048551" data-name="Trazado 1048551" d="M369.489,286.034h0l0,0Z" transform="translate(-354.559 -251.2)" fill="#206969"/>
          <path id="Trazado_1048552" data-name="Trazado 1048552" d="M354.588,232.943c.171,0,.342,0,.513,0l.161,0,.189,0,.212.01c.453.022,1.016.05,1.551.05h.169l.509.027.17.01c.48.03.959.058,1.438.073.91.068,1.739.154,2.536.262.689.1,1.4.219,2.125.365.77.165,1.381.317,1.924.48a11.811,11.811,0,0,1,2.754,1.206,8.918,8.918,0,0,1,3.569,4,11.691,11.691,0,0,1,.856,2.767,16.721,16.721,0,0,1,.253,3.192,14.017,14.017,0,0,1-1.259,5.712,11.22,11.22,0,0,1-7.554,6.23,12.985,12.985,0,0,1-3.263.4c-.035.516-.1,1.053-.163,1.573l-.009.07-.02.164-.082.665a.414.414,0,0,1-.105.252.5.5,0,0,1-.117.317,4.752,4.752,0,0,1-2.563,1.387,8.86,8.86,0,0,1-1.981.207c-.348,0-.713-.016-1.115-.049a22.866,22.866,0,0,1-2.834-.481,10.528,10.528,0,0,1-1.571-.449,3.766,3.766,0,0,1-1.329-.8.389.389,0,0,1-.1-.177.223.223,0,0,1-.049-.037.405.405,0,0,1-.106-.253l.005-.072-.082-.486-.043-.273c-.073-.481-.164-1.08-.214-1.655a11.916,11.916,0,0,1-6.611-2.4,11.491,11.491,0,0,1-3.312-4.184,13.98,13.98,0,0,1-1.258-5.712,16.779,16.779,0,0,1,.253-3.192,11.715,11.715,0,0,1,.856-2.768,8.933,8.933,0,0,1,3.569-4,11.834,11.834,0,0,1,2.753-1.206c.542-.163,1.153-.315,1.924-.479.721-.146,1.436-.27,2.125-.365a46.886,46.886,0,0,1,4.93-.383h.393" transform="translate(-337.784 -232.943)" fill="#fca82d"/>
          <g id="Grupo_1201791" data-name="Grupo 1201791" transform="translate(11.681 14.021)">
            <path id="Trazado_1048553" data-name="Trazado 1048553" d="M357.33,255.424a.376.376,0,0,1,.08-.213,1.931,1.931,0,0,1,.5-.444,2.044,2.044,0,0,1,.7-.244,1.545,1.545,0,0,1,.205-.024,3.239,3.239,0,0,1,.465.015,3.109,3.109,0,0,1,.737.18,4,4,0,0,1,1.106.615,3.493,3.493,0,0,1,.822-.6,3.413,3.413,0,0,1,1.355-.39,2.985,2.985,0,0,1,1.382.252,2.818,2.818,0,0,1,.6.368c.054.041.107.085.158.132a2.971,2.971,0,0,1,.406-.231,2.353,2.353,0,0,1,1.332-.185,2.328,2.328,0,0,1,1.26.628.35.35,0,0,1,.092.375.143.143,0,0,1,0,.018q-1.155,6.72-2.309,13.437a.343.343,0,0,1-.407.262.347.347,0,0,1-.262-.407q1.137-6.648,2.284-13.295c-.032-.026-.063-.055-.1-.079a2.119,2.119,0,0,0-.373-.19,2.084,2.084,0,0,0-.409-.089,2.186,2.186,0,0,0-.448.024,2.21,2.21,0,0,0-.455.154c-.058.031-.113.064-.168.1.052.083.1.171.143.257a4.778,4.778,0,0,1,.254.593,4.052,4.052,0,0,1,.163.614,2.546,2.546,0,0,1,.05.6,1.64,1.64,0,0,1-.129.571,1.052,1.052,0,0,1-.353.418,1.181,1.181,0,0,1-.565.19.861.861,0,0,1-.508-.111,1.2,1.2,0,0,1-.52-.848,3.551,3.551,0,0,1-.023-1.115,2.368,2.368,0,0,1,.376-1.008,2.637,2.637,0,0,1,.158-.216,2.578,2.578,0,0,0-.209-.167,2.164,2.164,0,0,0-1.058-.37,2.874,2.874,0,0,0-.654.038,3.19,3.19,0,0,0-.668.226,3.3,3.3,0,0,0-.589.388c-.046.041-.091.083-.133.126a2.547,2.547,0,0,1,.435.715,2.411,2.411,0,0,1,.1.441,3.535,3.535,0,0,1,.038.533,2.381,2.381,0,0,1-.217,1.081.983.983,0,0,1-.325.367.735.735,0,0,1-.221.095,1.009,1.009,0,0,1-.347.016,1.125,1.125,0,0,1-.278-.083,1.2,1.2,0,0,1-.286-.17.974.974,0,0,1-.217-.241,1.2,1.2,0,0,1-.153-.341,1.956,1.956,0,0,1-.048-.7,3.279,3.279,0,0,1,.136-.681,3.952,3.952,0,0,1,.21-.558,2.931,2.931,0,0,1,.24-.421c-.053-.043-.108-.083-.163-.123a3.722,3.722,0,0,0-.778-.395,3.1,3.1,0,0,0-.627-.138,2.25,2.25,0,0,0-.47.024,1.753,1.753,0,0,0-.311.1,1.634,1.634,0,0,0-.238.157c-.039.037-.074.079-.11.119q1.46,6.716,2.918,13.433c.014.062.029.126.043.19l0,.01.022.1a.375.375,0,0,1-.019.266.348.348,0,0,1-.2.168.341.341,0,0,1-.265-.019.325.325,0,0,1-.168-.2c-.007-.035-.016-.068-.024-.1,0-.012-.005-.025-.007-.037q-1.44-6.622-2.878-13.242c-.034-.164-.07-.326-.106-.49A.411.411,0,0,1,357.33,255.424Zm7.753,2.3a1.541,1.541,0,0,0,.083.268.9.9,0,0,0,.066.1c.013.012.026.024.039.035l.035.019.051.01a.877.877,0,0,0,.093-.007.935.935,0,0,0,.139-.045c.025-.014.049-.031.072-.047a.83.83,0,0,0,.056-.062,1.2,1.2,0,0,0,.054-.109,1.542,1.542,0,0,0,.043-.224,2.51,2.51,0,0,0-.041-.514,4.345,4.345,0,0,0-.306-.9c0,.007.007.014.011.022l-.014-.027,0-.005,0,0,0-.005c-.026-.052-.054-.1-.083-.154l-.014.02a2.388,2.388,0,0,0-.215.417,2.45,2.45,0,0,0-.1.511A3.106,3.106,0,0,0,365.083,257.722Zm-4.286.222a1.127,1.127,0,0,0,.053.165c.019.032.039.062.06.093a.942.942,0,0,0,.071.064,1.082,1.082,0,0,0,.135.068.922.922,0,0,0,.1.023.339.339,0,0,0,.037,0l.027-.009.026-.018c.014-.015.028-.03.04-.046a1.151,1.151,0,0,0,.079-.161,2.322,2.322,0,0,0,.081-.429,3.394,3.394,0,0,0-.038-.752,1.7,1.7,0,0,0-.1-.32,2.4,2.4,0,0,0-.179-.282,3.259,3.259,0,0,0-.23.484,3.456,3.456,0,0,0-.177.792A1.82,1.82,0,0,0,360.8,257.944Z" transform="translate(-357.304 -254.313)" fill="#206969"/>
            <path id="Trazado_1048554" data-name="Trazado 1048554" d="M362,257.249l0,.006,0-.007Z" transform="translate(-353.84 -255.322)" fill="#206969"/>
          </g>
          <path id="Trazado_1048555" data-name="Trazado 1048555" d="M341.328,243.381a10.491,10.491,0,0,1,.762-2.46,7.946,7.946,0,0,1,3.176-3.555,10.6,10.6,0,0,1,2.449-1.073c.494-.148,1.039-.283,1.711-.426.642-.13,1.278-.239,1.89-.324a47.025,47.025,0,0,1,6.4-.369h.331c.19,0,.38.01.57.016l.115,0h.068l.1,0,.232.009,0,0,.2.009c.14.009.281.02.421.029h.047c.19.012.379.028.568.042.136.01.272.018.408.028l.023,0,0,0,.237.018.091.009c.515.063,1.027.15,1.537.24h.009c.612.087,1.248.194,1.89.326.672.141,1.216.277,1.711.425a10.618,10.618,0,0,1,2.449,1.074,7.937,7.937,0,0,1,3.176,3.555,10.445,10.445,0,0,1,.76,2.461,14.777,14.777,0,0,1,.226,2.842,12.459,12.459,0,0,1-1.12,5.082,9.974,9.974,0,0,1-6.719,5.543,11.6,11.6,0,0,1-2.9.353c-.012.173-.028.35-.047.528,0,.005,0,.01,0,.017s0,.021,0,.031c-.015.14-.031.277-.047.414-.034.244-.062.489-.092.734-.058.565-.157,1.127-.245,1.687a.126.126,0,0,1-.054.078c-.009.039-.014.079-.022.118a.13.13,0,0,1-.154.1c-.011,0-.016-.013-.026-.018-.015.013-.024.03-.041.039l-.1.054,0,.012a.126.126,0,0,1-.146.1c-.009,0-.013-.011-.021-.015-.21.114-.421.224-.638.322a8.512,8.512,0,0,1-1.018.381,10.667,10.667,0,0,1-1.111.262,8.559,8.559,0,0,1-1.1.128,14.428,14.428,0,0,1-2.2-.041,8.839,8.839,0,0,1-2.232-.46.746.746,0,0,1-.211-.16.271.271,0,0,1-.084.026.289.289,0,0,1-.265-.154.152.152,0,0,1-.042.007.2.2,0,0,1-.2-.14h0l0-.017,0-.015c-.009-.035-.016-.072-.024-.107a.115.115,0,0,1-.051-.02.134.134,0,0,1-.106.06.146.146,0,0,1-.152-.139c0-.045-.005-.091-.007-.136a.208.208,0,0,1-.008-.03c0-.028-.007-.055-.01-.083a.178.178,0,0,1-.1-.146c-.05-.476-.087-.951-.133-1.427-.008-.054-.015-.107-.024-.16-.009-.11-.02-.22-.031-.331,0,0,0-.007,0-.01v0c0-.014,0-.026,0-.039s0-.007,0-.011c-.022-.2-.049-.394-.086-.59-.034-.222-.069-.446-.117-.669a.091.091,0,0,0-.005-.017c-.005-.024-.008-.047-.012-.069a.187.187,0,0,0-.017-.053.312.312,0,0,0-.009-.033.106.106,0,0,0-.031-.047.127.127,0,0,0-.056-.028v-.01a10.354,10.354,0,0,1-2.107-.319,9.978,9.978,0,0,1-6.719-5.544,12.432,12.432,0,0,1-1.12-5.082A14.737,14.737,0,0,1,341.328,243.381Z" transform="translate(-339.332 -233.71)" fill="#fefefe"/>
          <path id="Trazado_1048556" data-name="Trazado 1048556" d="M344.351,245.5c-1.341-2.08-1.326-4.479.032-5.354s3.55.1,4.891,2.18,1.326,4.479-.033,5.355-3.55-.1-4.89-2.181" transform="translate(-318.191 -235.309)" fill="#fefefe"/>
          <path id="Trazado_1048557" data-name="Trazado 1048557" d="M343.429,254.9a1.31,1.31,0,1,1,1.317,1.471,1.4,1.4,0,0,1-1.317-1.471" transform="translate(-313.993 -239.978)" fill="#fefefe"/>
          <g id="Grupo_1201792" data-name="Grupo 1201792" transform="translate(10.734 26.309)">
            <path id="Trazado_1048558" data-name="Trazado 1048558" d="M362.747,276.734c.232,0,.464.009.694.025a9.9,9.9,0,0,1,2.24.419,6.024,6.024,0,0,1,1.55.716,2.923,2.923,0,0,1,.828.8.367.367,0,0,1,.213.19.293.293,0,0,1,.016.232A11.718,11.718,0,0,1,366.6,282.3a5.9,5.9,0,0,1-1.206,1.176,3.675,3.675,0,0,1-.762.416,3.217,3.217,0,0,1-.855.212,2.48,2.48,0,0,1-.3.018,3.085,3.085,0,0,1-1.209-.264,4.4,4.4,0,0,1-1.349-.943,7.631,7.631,0,0,1-1.052-1.343,11.736,11.736,0,0,1-.838-1.611c-.052-.119-.1-.239-.152-.36-.1-.247-.185-.474-.268-.7l-.023-.068c-.043-.121-.083-.242-.125-.363a.315.315,0,0,1,.025-.248.362.362,0,0,1,.217-.178.338.338,0,0,1,.092-.013.345.345,0,0,1,.305.188,1.688,1.688,0,0,1,.453-.588,3.573,3.573,0,0,1,1.69-.748,7.851,7.851,0,0,1,1.505-.14" transform="translate(-356.861 -274.312)" fill="#2fc3b0"/>
            <path id="Trazado_1048559" data-name="Trazado 1048559" d="M364.443,284.837a5.293,5.293,0,0,1,.6.039l-.03-.005a4.486,4.486,0,0,1,.514.1,4.594,4.594,0,0,1,.54.178l-.009,0,.01,0h0l.005,0h0a3.5,3.5,0,0,1,.416.2,4.046,4.046,0,0,1,.4.262l.106.087a5.255,5.255,0,0,1-.666.562,3.524,3.524,0,0,1-.765.417,3.4,3.4,0,0,1-.856.216,2.864,2.864,0,0,1-.3.018,3.1,3.1,0,0,1-1.214-.268,4.4,4.4,0,0,1-1.329-.922c.034-.03.068-.06.1-.089h0l0,0a.013.013,0,0,0,.005-.005l-.005.005,0,0h0l.019-.016-.009.007a.042.042,0,0,0,.009-.007l0,0h0a3.322,3.322,0,0,1,.394-.26,3.9,3.9,0,0,1,.369-.187l-.005,0a4.151,4.151,0,0,1,.613-.209,4.851,4.851,0,0,1,.531-.1,4.342,4.342,0,0,1,.514-.032h.035" transform="translate(-357.793 -277.098)" fill="#206969"/>
            <path id="Trazado_1048560" data-name="Trazado 1048560" d="M356.1,273.042h.026c.116.075.234.146.356.213l.113.064c.066.035.134.072.2.106s.159.08.238.117l.048.022.141.06a10.53,10.53,0,0,0,2.548.635l.071.016a19.817,19.817,0,0,0,2.387.146,18.861,18.861,0,0,0,2.434-.158c.345-.05.648-.1.948-.164.268-.055.5-.112.741-.178.032-.007.05-.013.066-.018.226-.062.428-.129.615-.2.07-.024.137-.048.2-.073s.134-.05.2-.077c.035-.014.071-.028.107-.045q.153-.061.3-.134l.079-.039c.022-.009.045-.02.066-.031.064-.032.13-.064.194-.1l.009-.005,0,0h0l0,0h0a.375.375,0,0,1,.342.171,2.411,2.411,0,0,1,.3,1.408,2.682,2.682,0,0,1-.468,1.378.366.366,0,0,1-.164.144,4.585,4.585,0,0,1-.755.389.734.734,0,0,1,.013.171,2.13,2.13,0,0,1-.049.36,1.581,1.581,0,0,1-.287.633.415.415,0,0,1-.154.164,6.875,6.875,0,0,1-2,.678,14.177,14.177,0,0,1-2.362.262q-.274.011-.544.01a15.94,15.94,0,0,1-1.765-.1,11.356,11.356,0,0,1-1.968-.378c-.2-.06-.375-.121-.549-.189-.125-.052-.226-.095-.326-.139l-.054-.025-.138-.07-.079-.047a.335.335,0,0,1-.163-.146,2.321,2.321,0,0,1-.246-1.073c0-.05,0-.1.007-.148l-.077-.027-.084-.037a.49.49,0,0,1-.046-.022l-.062-.032c-.064-.03-.109-.053-.15-.075l-.041-.022-.041-.028-.15-.086-.046-.033-.049-.032a.411.411,0,0,1-.154-.137,2.6,2.6,0,0,1-.458-1.44,3.171,3.171,0,0,1,.071-.79,2.131,2.131,0,0,1,.266-.679.355.355,0,0,1,.305-.175h.011Z" transform="translate(-355.445 -273.042)" fill="#206969"/>
            <path id="Trazado_1048561" data-name="Trazado 1048561" d="M367.752,278.541a.115.115,0,0,1-.079.141,18.361,18.361,0,0,1-2.266.494,19.594,19.594,0,0,1-2.43.209,18.249,18.249,0,0,1-2.483-.111c-.378-.041-.757-.1-1.13-.169-.2-.037-.4-.081-.6-.13s-.392-.1-.587-.162a.138.138,0,0,1-.094-.166.135.135,0,0,1,.166-.092c.679.155,1.365.283,2.056.377l-.043-.005a19.512,19.512,0,0,0,5.114-.005l-.035.005a16.775,16.775,0,0,0,2.275-.462.123.123,0,0,1,.031,0,.114.114,0,0,1,.108.082" transform="translate(-356.07 -274.905)" fill="#113939"/>
          </g>
        </g>
        <g id="Grupo_1201794" data-name="Grupo 1201794" transform="translate(180.078 223.335)">
          <path id="Trazado_1048562" data-name="Trazado 1048562" d="M374.854,396.261l2.741-1.463c0-.1,0-.208,0-.312q.017-.483.058-.959l0-.051.005-.057c.023-.245.058-.488.092-.732l-.7-.6-1.922-1.635a.183.183,0,0,1-.044-.183l.748-1.949.747-1.949a.256.256,0,0,1,.022-.043.184.184,0,0,1,.165-.1l3.269.091c.046-.075.089-.154.136-.227s.083-.129.125-.193c.245-.375.509-.736.783-1.088l-.32-.842-.9-2.359a.181.181,0,0,1,.05-.182l1.594-1.347,1.594-1.347a.323.323,0,0,1,.039-.028.186.186,0,0,1,.192,0l2.9,1.705.014-.009c.383-.209.779-.4,1.178-.583l.058-.026.041-.018c.106-.047.212-.089.318-.133l.194-1.239.39-2.493a.183.183,0,0,1,.134-.133l2.052-.38,2.052-.381a.233.233,0,0,1,.047,0,.186.186,0,0,1,.168.091l1.8,3.129.087.152a16.8,16.8,0,0,1,1.68.14l.752-.95,1.566-1.978a.182.182,0,0,1,.182-.05l1.974.678,1.974.678a.2.2,0,0,1,.043.02.186.186,0,0,1,.1.162l.026,3.609v.236q.576.363,1.122.774l1.062-.417,2.349-.921a.181.181,0,0,1,.182.048L409.154,382l1.364,1.579a.329.329,0,0,1,.028.039.185.185,0,0,1,.006.191l-1.793,3.131q.383.692.7,1.417l1.124.19,2.488.42a.183.183,0,0,1,.132.135l.356,2.056.356,2.056a.231.231,0,0,1,0,.048.184.184,0,0,1-.094.167l-2.974,1.663c0,.192,0,.384-.009.573-.018.447-.058.888-.109,1.325l.8.63,1.986,1.556a.182.182,0,0,1,.052.182l-.668,1.978-.668,1.977a.211.211,0,0,1-.02.043.187.187,0,0,1-.162.1l-3.537.045c-.165.276-.335.549-.516.814-.192.283-.395.555-.6.824l.318.777.954,2.336a.181.181,0,0,1-.045.183l-1.56,1.386-1.56,1.386a.257.257,0,0,1-.039.028.184.184,0,0,1-.191.008l-3.027-1.676a16.525,16.525,0,0,1-1.615.788l-.106.753-.351,2.5a.182.182,0,0,1-.131.136L398,414.16l-2.046.413a.288.288,0,0,1-.047.005.185.185,0,0,1-.169-.089l-1.7-2.85a16.308,16.308,0,0,1-1.867-.122l-.028,0-.548.677-1.587,1.961a.182.182,0,0,1-.182.049l-1.966-.7-1.966-.7a.26.26,0,0,1-.043-.02.186.186,0,0,1-.1-.164l.011-3.287A16.682,16.682,0,0,1,384.1,408.2l-.874.362-2.33.967a.182.182,0,0,1-.184-.045l-1.394-1.552-1.395-1.552a.239.239,0,0,1-.028-.039.184.184,0,0,1-.009-.191l1.731-3.166.007-.013a16.779,16.779,0,0,1-.772-1.6L378,401.21l-2.479-.469a.181.181,0,0,1-.129-.138l-.316-2.063-.316-2.063a.228.228,0,0,1,0-.048A.192.192,0,0,1,374.854,396.261Zm20.6-9.377a8.545,8.545,0,0,0-2.176,0,8.446,8.446,0,0,0-1.753.446l-.047.018-.052.02c-.056.022-.113.045-.169.068-.185.079-.354.158-.517.241l-.026.013-.026.013-.034.017v0l-.039.024-.032.018-.029.016-.043.024-.03.016-.051.029c-.236.133-.469.279-.694.436l-.028.02c-.083.058-.165.119-.248.182-.206.161-.4.331-.594.509l-.022.02-.031.03-.048.046-.019.019-.019.018h0l-.022.025-.038.038-.047.048-.03.031-.02.02,0,0-.024.029-.033.035-.025.026h0l-.02.026,0,0-.022.028-.022.024h0l-.018.023-.033.036-.044.048c-.109.125-.216.252-.318.383h0l-.018.023a8.458,8.458,0,0,0-1.039,1.775l-.009.021c-.043.1-.085.21-.123.316a8.6,8.6,0,0,0-.363,1.3l-.008.047c0,.012,0,.026-.011.06-.017.094-.032.19-.049.3h0v.031c-.005.039-.01.081-.016.133a8.53,8.53,0,0,0,.02,2.029,8.645,8.645,0,0,0,.553,2.037l-.014-.047a8.383,8.383,0,0,0,1.071,1.842,8.085,8.085,0,0,0,3.217,2.493,8.37,8.37,0,0,0,2.078.574l.026,0a8.506,8.506,0,0,0,1.064.068,8.6,8.6,0,0,0,1.109-.073,8.367,8.367,0,0,0,2.058-.57h0a8.11,8.11,0,0,0,3.221-2.495,8.644,8.644,0,0,0,1.074-1.836l-.024.043a8.388,8.388,0,0,0,.559-2.035,8.475,8.475,0,0,0,0-2.184,8.026,8.026,0,0,0-1.6-3.83,8.092,8.092,0,0,0-3.3-2.54,8.4,8.4,0,0,0-1.791-.511C395.611,386.908,395.539,386.9,395.452,386.884Z" transform="translate(-374.755 -375.019)" fill="#2fc3b0"/>
          <path id="Trazado_1048563" data-name="Trazado 1048563" d="M397.677,387.476a11.653,11.653,0,0,0-3.469.745l-.028.009c-.131.051-.261.1-.39.159a11.676,11.676,0,0,0-2.144,1.189l-.012.009-.068.048-.024.017-.055.039-.038.028-.026.018-.065.048-.014.01-.039.029a12.175,12.175,0,0,0-1.325,1.161q-.224.228-.434.469l0,0-.057.066-.024.028-.04.047-.037.044-.03.035-.047.056-.022.026-.051.063-.018.024-.052.065-.018.024L389.1,392l-.023.03c-.014.018-.028.036-.041.055l-.03.038-.031.041-.039.052-.018.024c-.035.048-.071.1-.106.144a11.742,11.742,0,0,0-.394,13.064,11.829,11.829,0,0,0,5.156,4.487,11.456,11.456,0,0,0,3.429.945,11.745,11.745,0,0,0,13.041-13.085,11.483,11.483,0,0,0-.962-3.442,11.748,11.748,0,0,0-10.719-6.9c-.229,0-.458.01-.687.024m2.2.83a10.938,10.938,0,0,1,5.2,2.176,11.052,11.052,0,0,1,3.459,4.494c-.009-.022-.018-.043-.026-.066l.033.08,0,.01,0-.01a11.006,11.006,0,0,1-.03,8.508,11.048,11.048,0,0,1-5.86,5.851,11.6,11.6,0,0,1-2.782.762,11.745,11.745,0,0,1-2.985,0,11.587,11.587,0,0,1-2.805-.772l.062.026a11.006,11.006,0,0,1-6.675-8.728,11.794,11.794,0,0,1,.007-2.909,10.955,10.955,0,0,1,2.226-5.28c.2-.258.419-.507.643-.747h0l.047-.05.019-.02.018-.019a11.842,11.842,0,0,1,.9-.842l.01-.008.047-.039.03-.026.029-.024.05-.041.008-.007c.06-.048.119-.1.18-.142l.018-.014.032-.025.037-.028.043-.031.028-.021.049-.036.023-.016.058-.041.013-.009.066-.046.008-.006.071-.049,0,0a10.954,10.954,0,0,1,7.745-1.852m7.209,4.172.035.044-.035-.044m-19.608,5.251c0,.029-.009.058-.012.087,0-.029.008-.058.012-.087m0,2.963c0,.011,0,.022,0,.033,0-.011,0-.022,0-.033m12.426,9.416-.029,0,.029,0m-.03,0-.07.01.07-.01m8.673-15.121h0a.1.1,0,0,0-.007-.014.146.146,0,0,1,.007.014" transform="translate(-378.756 -379.295)" fill="#206969"/>
        </g>
        <g id="Grupo_1201795" data-name="Grupo 1201795" transform="translate(109.949 193.702)">
          <circle id="Elipse_14276" data-name="Elipse 14276" cx="19.69" cy="19.69" r="19.69" transform="translate(4.897 4.9)" fill="#fca82d"/>
          <circle id="Elipse_14277" data-name="Elipse 14277" cx="17.388" cy="17.388" r="17.388" transform="translate(24.59 49.181) rotate(-135)" fill="#fefefe"/>
          <text id="_" data-name="$" transform="matrix(-1, 0, 0, 1, 32.469, 30.804)" fill="#fff" font-size="23" font-family="SegoeUI, Segoe UI"><tspan x="0" y="0">$</tspan></text>
        </g>
        <path id="Trazado_1048564" data-name="Trazado 1048564" d="M258.125,188.818l26.535,10.918-16.617,12.814,29.674,39.138,25.6-21.552,37.527,49.188,23.564-23.273,33.164,45.673,20.946-19.2,34.036,43.928-4.946,17.164-30.836-38.982-20.654,20.072-33.746-46.254-22.982,22.4-37.527-48.873-27.345,22.109L255.532,222.2l-16.317,12.582L235.4,206.339,231.59,177.9Z" transform="translate(-159.382 -83.896)" fill="#2fc3b0"/>
        <g id="Grupo_1201798" data-name="Grupo 1201798" transform="translate(103.142)">
          <g id="Grupo_1201796" data-name="Grupo 1201796">
            <path id="Trazado_1048565" data-name="Trazado 1048565" d="M518.748,34.754a5.294,5.294,0,0,1,.949.285c.1.037.188.075.281.116l.124.054A5.954,5.954,0,0,1,522.41,37.1c.031.042.062.085.092.127l.059.083a5.7,5.7,0,0,1,.855,1.9c.048.184.086.37.116.559.014.1.028.19.038.286a6.229,6.229,0,0,1-.22,2.453.523.523,0,0,1-.022.06c-.006.021-.012.043-.02.064a6.1,6.1,0,0,1-9.739,2.77,5.991,5.991,0,0,1-1.712-2.348,6.093,6.093,0,0,1,.559-5.7,6.206,6.206,0,0,1,2.207-2.007,6.13,6.13,0,0,1,2.881-.722h.041a5.776,5.776,0,0,1,1.2.129m-1.88,1.223a4.768,4.768,0,0,0-2.282.947,6.014,6.014,0,0,0-.889.888,5.842,5.842,0,0,0-.612,1.047,5.644,5.644,0,0,0-.339,1.241,5.791,5.791,0,0,0,0,1.3,5.977,5.977,0,0,0,.339,1.222,4.829,4.829,0,0,0,1.5,1.924,6.013,6.013,0,0,0,1.043.61,5.756,5.756,0,0,0,1.237.338,5.932,5.932,0,0,0,1.272,0,4.793,4.793,0,0,0,2.3-.959,5.915,5.915,0,0,0,.869-.869,5.842,5.842,0,0,0,.617-1.05,5.781,5.781,0,0,0,.285-.934c.022-.1.041-.211.057-.317s.02-.2.026-.3c0-.008,0-.016,0-.024s0-.036,0-.054a6.049,6.049,0,0,0-.032-.919l-.008-.047a6.027,6.027,0,0,0-.31-1.122,5.934,5.934,0,0,0-.627-1.087,6.026,6.026,0,0,0-.771-.792l-.008-.007-.01-.008-.083-.068-.127-.092-.026-.018-.047-.031-.035-.024-.041-.027-.029-.019-.051-.033-.019-.012-.065-.04,0,0a5.777,5.777,0,0,0-.657-.343c-.146-.056-.295-.108-.444-.152l-.047-.014-.037-.01-.064-.018-.022-.006-.066-.017-.022-.005-.058-.014-.033-.008-.041-.009-.053-.012-.019,0c-.094-.02-.191-.037-.287-.052-.122-.014-.243-.024-.366-.03h-.047a5.831,5.831,0,0,0-.869.03m-3.231,7.606c.021.027.043.054.065.08-.022-.026-.043-.053-.065-.08" transform="translate(-497.163 -34.625)" fill="#206969"/>
            <path id="Trazado_1048566" data-name="Trazado 1048566" d="M546.778,53.535a3,3,0,0,1,.722.478q.087.075.167.155a2.723,2.723,0,0,1,.464.625,3.028,3.028,0,0,1,.209.449c.012.033.026.066.037.1a3.1,3.1,0,0,1,.079,1.584,2.993,2.993,0,0,1-.253.718,3.071,3.071,0,0,1-.4.6,2.888,2.888,0,0,1-1.194.856,3.049,3.049,0,0,1-2.855-.328,3.182,3.182,0,0,1-.928-1.025,3.091,3.091,0,0,1-.374-1.586,3.154,3.154,0,0,1,.379-1.356,3.1,3.1,0,0,1,1.056-1.107,2.824,2.824,0,0,1,1.148-.415,1.185,1.185,0,0,1,.143-.023l.093-.009.018,0a2.262,2.262,0,0,1,.241-.012,3.007,3.007,0,0,1,1.251.295m-1.291,1.024c-.058,0-.117,0-.177.006l-.04,0a2.788,2.788,0,0,0-.463.125,3.045,3.045,0,0,0-.377.222,1.7,1.7,0,0,0-.539.7,3.054,3.054,0,0,0-.117.428,2.7,2.7,0,0,0,0,.484,2.727,2.727,0,0,0,.12.431,2.948,2.948,0,0,0,.214.369,2.854,2.854,0,0,0,.3.309,2.735,2.735,0,0,0,.414.244,2.924,2.924,0,0,0,.43.116,2.707,2.707,0,0,0,.455,0,2.671,2.671,0,0,0,.449-.122,2.748,2.748,0,0,0,.392-.231,2.661,2.661,0,0,0,.317-.321,2.975,2.975,0,0,0,.215-.371,2.656,2.656,0,0,0,.117-.429,2.756,2.756,0,0,0,0-.483,2.69,2.69,0,0,0-.121-.434,2.734,2.734,0,0,0-.22-.375c-.024-.029-.049-.057-.074-.085l0,0-.034-.035c-.061-.064-.126-.126-.193-.186s-.152-.1-.232-.148h0l-.047-.026c-.037-.02-.074-.039-.113-.058a2.845,2.845,0,0,0-.4-.115l-.05-.009c-.074-.005-.148-.009-.222-.009" transform="translate(-542.448 -41.027)" fill="#206969"/>
            <path id="Trazado_1048567" data-name="Trazado 1048567" d="M287.87,401.858a3.837,3.837,0,0,1,1.531.852c.054.048.108.1.16.148a3.787,3.787,0,0,1,.777,1.115,4.061,4.061,0,0,1,.356,1.373l.006.06c.007.079.009.16.009.241v.055a4.026,4.026,0,0,1-.113.848.03.03,0,0,1,0,.007,3,3,0,0,1-.09.323,3.616,3.616,0,0,1-.321.7c-.03.051-.06.1-.092.152-.012.02-.027.041-.041.06q-.1.148-.213.286a3.871,3.871,0,0,1-2.478,1.42,4.272,4.272,0,0,1-.653.049,4.471,4.471,0,0,1-.72-.085,3.72,3.72,0,0,1-1.35-.561,3.918,3.918,0,0,1,2.153-7.194h.042a3.978,3.978,0,0,1,1.039.152m-1.434,1.181a2.611,2.611,0,0,0-1.237.516,3.6,3.6,0,0,0-.48.48,3.7,3.7,0,0,0-.337.576,3.889,3.889,0,0,0-.18.655,3.563,3.563,0,0,0,0,.72,3.729,3.729,0,0,0,.171.632,3.63,3.63,0,0,0,.337.587,3.716,3.716,0,0,0,.482.487,3.948,3.948,0,0,0,.591.345,2.621,2.621,0,0,0,1.338.18,3.551,3.551,0,0,0,.686-.186,4.024,4.024,0,0,0,.57-.332,3.756,3.756,0,0,0,.488-.492,3.629,3.629,0,0,0,.324-.556q.065-.171.113-.345l0-.01c0-.012.007-.023.009-.035l.01-.041s0,0,0-.007c.009-.033.016-.068.024-.1a.027.027,0,0,1,0-.007l.008-.038c0-.009,0-.016.005-.024a.142.142,0,0,0,0-.015c0-.02.007-.039.01-.058a3.773,3.773,0,0,0,0-.694,3.71,3.71,0,0,0-.176-.649c-.006-.014-.013-.028-.019-.041a3.662,3.662,0,0,0-.318-.543,3.806,3.806,0,0,0-.444-.452l-.01-.008-.028-.024a3.878,3.878,0,0,0-.4-.249h0l-.038-.02q-.067-.035-.136-.067a3.687,3.687,0,0,0-.682-.184,3.617,3.617,0,0,0-.684,0m-.724.2-.064.026.064-.026m-1.069,3.881.035.044c-.011-.015-.022-.029-.035-.044m3.7.6-.054.043.054-.043" transform="translate(-114.323 -160.861)" fill="#206969"/>
            <path id="Trazado_1048568" data-name="Trazado 1048568" d="M454.249,107.627a3.836,3.836,0,0,1,1.531.852c.055.048.108.1.16.148a3.787,3.787,0,0,1,.777,1.115,4.06,4.06,0,0,1,.356,1.373l.006.06c.007.079.009.16.009.241v.055a4.024,4.024,0,0,1-.113.848.027.027,0,0,1,0,.007,2.988,2.988,0,0,1-.09.323,3.621,3.621,0,0,1-.321.7c-.03.051-.06.1-.092.152-.012.02-.027.041-.041.06q-.1.148-.213.286a3.871,3.871,0,0,1-2.478,1.42,4.27,4.27,0,0,1-.653.049,4.464,4.464,0,0,1-.72-.085,3.72,3.72,0,0,1-1.35-.561,3.918,3.918,0,0,1,2.153-7.194h.042a3.976,3.976,0,0,1,1.039.152m-1.434,1.181a2.613,2.613,0,0,0-1.237.516,3.6,3.6,0,0,0-.48.48,3.7,3.7,0,0,0-.337.576,3.893,3.893,0,0,0-.18.655,3.563,3.563,0,0,0,0,.72,3.726,3.726,0,0,0,.171.632,3.625,3.625,0,0,0,.337.587,3.718,3.718,0,0,0,.482.487,3.943,3.943,0,0,0,.59.345,3.641,3.641,0,0,0,.669.179,3.678,3.678,0,0,0,.669,0,3.552,3.552,0,0,0,.686-.186,4.023,4.023,0,0,0,.57-.332,3.76,3.76,0,0,0,.488-.492,3.634,3.634,0,0,0,.324-.556c.043-.114.081-.229.113-.345l0-.01c0-.012.007-.023.009-.035l.01-.041s0,0,0-.007c.009-.033.016-.068.024-.1a.027.027,0,0,1,0-.007l.008-.038c0-.009,0-.016.005-.024a.151.151,0,0,0,0-.015c0-.02.007-.039.01-.058a3.767,3.767,0,0,0,0-.694,3.705,3.705,0,0,0-.176-.649c-.006-.014-.012-.028-.019-.041a3.655,3.655,0,0,0-.318-.543,3.8,3.8,0,0,0-.444-.452l-.01-.009-.028-.024a3.883,3.883,0,0,0-.4-.249h0l-.038-.02-.136-.067a3.681,3.681,0,0,0-.682-.184,3.613,3.613,0,0,0-.684,0m-.724.2-.064.026.064-.026m-1.069,3.881.035.044a.533.533,0,0,0-.035-.044m3.7.6-.054.043.054-.043" transform="translate(-389.865 -59.677)" fill="#206969"/>
          </g>
          <g id="Grupo_1201797" data-name="Grupo 1201797" transform="translate(11.1 6.107)">
            <path id="Trazado_1048569" data-name="Trazado 1048569" d="M467.011,43.933a2.009,2.009,0,0,1,1.982,1.982v7.556l7.506-.014a1.982,1.982,0,0,1,0,3.965h-7.52l.014,7.787a1.982,1.982,0,1,1-3.965,0v-7.8l-7.823.014a1.982,1.982,0,1,1,0-3.965h7.837l-.014-7.542a2.009,2.009,0,0,1,1.983-1.982" transform="translate(-426.278 -43.933)" fill="#fe514a"/>
            <path id="Trazado_1048570" data-name="Trazado 1048570" d="M522.392,83.233a1.059,1.059,0,0,1,1.044,1.045v3.952l3.92-.014a1.045,1.045,0,0,1,0,2.089h-3.934l.014,4.069a1.045,1.045,0,0,1-2.09,0V90.29l-4.086.014a1.045,1.045,0,0,1,0-2.089h4.1l-.015-3.938a1.059,1.059,0,0,1,1.045-1.045" transform="translate(-516.219 -57.448)" fill="#fba92d"/>
            <path id="Trazado_1048571" data-name="Trazado 1048571" d="M341.881,412.7a1.059,1.059,0,0,1,1.045,1.045v3.952l3.92-.014a1.045,1.045,0,0,1,0,2.089h-3.934l.014,4.069a1.045,1.045,0,0,1-2.09,0v-4.083l-4.086.014a1.045,1.045,0,0,1,0-2.089h4.1l-.015-3.938a1.059,1.059,0,0,1,1.045-1.045" transform="translate(-217.273 -170.748)" fill="#fba92d"/>
          </g>
        </g>
        <path id="Trazado_1048572" data-name="Trazado 1048572" d="M362.345,296a2.31,2.31,0,1,1,2.31,2.31A2.31,2.31,0,0,1,362.345,296Z" transform="translate(-139.583 -123.714)" fill="#206969"/>
        <path id="Trazado_1048573" data-name="Trazado 1048573" d="M400.013,364.3a2.31,2.31,0,1,1,2.31,2.31A2.31,2.31,0,0,1,400.013,364.3Z" transform="translate(-201.966 -147.202)" fill="#206969"/>
        <circle id="Elipse_14278" data-name="Elipse 14278" cx="2.31" cy="2.31" r="2.31" transform="translate(161.289 143.639)" fill="#206969"/>
        <path id="Trazado_1048574" data-name="Trazado 1048574" d="M499.379,323.274a2.31,2.31,0,1,1,2.31,2.31A2.31,2.31,0,0,1,499.379,323.274Z" transform="translate(-366.527 -133.095)" fill="#206969"/>
        <g id="Grupo_1201799" data-name="Grupo 1201799" transform="translate(159.978 6.47)">
          <path id="Trazado_1048575" data-name="Trazado 1048575" d="M313.73,172.525c.064,0,.129,0,.193.005a5.1,5.1,0,0,1,2.135.6,6.171,6.171,0,0,1,.985.672,4.705,4.705,0,0,1,.714.714,6.136,6.136,0,0,1,1,1.773,7.4,7.4,0,0,1,.408,1.955,11.665,11.665,0,0,1-.121,2.718,25.471,25.471,0,0,1-.6,2.94c-.244.943-.533,1.867-.807,2.733l-.125.394c-.175.552-.35,1.1-.5,1.658a.245.245,0,0,1,.214-.1.306.306,0,0,1,.147.039.3.3,0,0,1,.1.4,1.769,1.769,0,0,1-.514.61,1.435,1.435,0,0,1-.384.205,1.571,1.571,0,0,1-.239.054,4.9,4.9,0,0,1,.234.745.289.289,0,0,1-.207.354.256.256,0,0,1-.071.009.29.29,0,0,1-.283-.214,5.161,5.161,0,0,0-.217-.714,5.028,5.028,0,0,0-.571-.993,5.48,5.48,0,0,0-.952-.939A12.674,12.674,0,0,0,313,187.31c-.27-.157-.545-.3-.819-.446-.2-.1-.4-.209-.591-.318-.428-.236-.915-.5-1.379-.8a11.037,11.037,0,0,1-1.323-1,5.577,5.577,0,0,1-1.75-2.943,7.1,7.1,0,0,1,.346-4.164,9.278,9.278,0,0,1,1.052-1.972,8.427,8.427,0,0,1,1.479-1.639,5.96,5.96,0,0,1,3.716-1.5" transform="translate(-236.467 -88.518)" fill="#f6cfbe"/>
          <path id="Trazado_1048576" data-name="Trazado 1048576" d="M327.163,156.476a.472.472,0,0,1,.282.156.5.5,0,0,1,.292.526l-4.852,21.454q-.488,2.149-.971,4.3c-.009.034-.016.064-.025.091-.13.108-.262.212-.4.308a7.009,7.009,0,0,1-1.6.841,9.546,9.546,0,0,1-.945.287,9.431,9.431,0,0,1-1.384.223,11.546,11.546,0,0,1-1.33.036h.043a13.312,13.312,0,0,1-3.3-.554l-.007,0h0a.1.1,0,0,0-.023-.007.008.008,0,0,0-.006,0,11.674,11.674,0,0,1-1.264-.471A10.818,10.818,0,0,1,310.43,183l0,0-.017-.012,0,0h0s0,0-.005,0a.012.012,0,0,0-.008,0,7.4,7.4,0,0,1-.64-.466c-.14-.119-.276-.241-.405-.371a.381.381,0,0,1,0-.175q1.192-5.3,2.393-10.59l1.243-5.492.853-3.778.846-3.731a.518.518,0,0,1,.192-.331.6.6,0,0,1,.123-.067.411.411,0,0,1,.266-.233,17.743,17.743,0,0,1,2.95-.464l.436-.039c.341-.028.682-.059,1.023-.1.523-.056,1.041-.128,1.561-.2l.664-.1c.751-.108,1.5-.215,2.252-.295a19.459,19.459,0,0,1,2.012-.11q.5,0,1,.031" transform="translate(-246.569 -82.988)" fill="#206969"/>
          <path id="Trazado_1048577" data-name="Trazado 1048577" d="M335.78,196.892l-.007,0,.007,0" transform="translate(-271.946 -96.895)" fill="#206969"/>
          <path id="Trazado_1048578" data-name="Trazado 1048578" d="M335.772,196.894" transform="translate(-271.937 -96.898)" fill="#206969"/>
          <path id="Trazado_1048579" data-name="Trazado 1048579" d="M335.764,196.9l.005,0-.005,0" transform="translate(-271.929 -96.898)" fill="#206969"/>
          <path id="Trazado_1048580" data-name="Trazado 1048580" d="M335.745,196.915l-.009-.005.009.005" transform="translate(-271.886 -96.903)" fill="#206969"/>
          <path id="Trazado_1048581" data-name="Trazado 1048581" d="M331.913,198.642h0" transform="translate(-265.541 -97.499)" fill="#206969"/>
          <path id="Trazado_1048582" data-name="Trazado 1048582" d="M331.86,198.656h0Z" transform="translate(-265.462 -97.504)" fill="#206969"/>
          <path id="Trazado_1048583" data-name="Trazado 1048583" d="M331.857,198.659h0" transform="translate(-265.452 -97.504)" fill="#206969"/>
          <path id="Trazado_1048584" data-name="Trazado 1048584" d="M280.172,134.276c-3.036-.459-4.811-5.4-3.96-11.036s4.006-9.834,7.043-9.374,4.811,5.4,3.96,11.036-4.006,9.834-7.043,9.375" transform="translate(-184.375 -68.333)" fill="#113b3b"/>
          <path id="Trazado_1048585" data-name="Trazado 1048585" d="M298.64,50.557a.4.4,0,0,1,.209.052q6.327,4.037,12.662,8.06l4.835,3.075q10.4,6.617,20.8,13.235l16.4,10.437c1.43.907,2.814,1.789,4.2,2.67a.562.562,0,0,1,.222.223.516.516,0,0,1,.226.277,28.146,28.146,0,0,1,2.054,9.139,32.58,32.58,0,0,1-.869,9.641,29.856,29.856,0,0,1-2.909,7.516,26.167,26.167,0,0,1-2.195,3.307c-.421.542-.873,1.067-1.34,1.561a26.342,26.342,0,0,1-1.941,1.8.563.563,0,0,1-.335.161.5.5,0,0,1-.259.1q-7.595.788-15.19,1.581l-7.631.8q-11.906,1.238-23.812,2.478l-9.037.941-10.073,1.048-.073,0a.5.5,0,0,1-.033-1l.08-.008.076-.007a.326.326,0,0,1,.056-.04,14.728,14.728,0,0,0,2.367-1.678,28.116,28.116,0,0,0,4.634-5.491l.051-.06-.006,0c.632-.952,1.278-1.972,2.048-3.235.668-1.092,1.314-2.26,1.974-3.572a61,61,0,0,0,3.211-7.762l-.014.079a83.56,83.56,0,0,0,2.866-11.273,97.017,97.017,0,0,0,1.379-11.492,98.092,98.092,0,0,0,.072-10.166A67.237,67.237,0,0,0,302.1,62.462l-.015-.073a37.809,37.809,0,0,0-2.965-8.926c-.354-.7-.7-1.325-1.053-1.9a.509.509,0,0,1,.086-.652.278.278,0,0,1,.027-.07.5.5,0,0,1,.281-.252.553.553,0,0,1,.178-.028" transform="translate(-262.555 -46.574)" fill="#fba92d"/>
          <path id="Trazado_1048586" data-name="Trazado 1048586" d="M291.3,96h0l0,0,7.89,5.02c1.425.9,2.8,1.779,4.177,2.658a.611.611,0,0,1,.251.246.469.469,0,0,1,.228.277,28.123,28.123,0,0,1,2.058,9.149,32.583,32.583,0,0,1-.874,9.651,29.9,29.9,0,0,1-2.912,7.516,25.905,25.905,0,0,1-2.194,3.317c-.424.543-.875,1.068-1.341,1.562-.615.644-1.3,1.242-1.941,1.8a.653.653,0,0,1-.354.171.545.545,0,0,1-.256.1l-1.426.146-10.564,1.1.039-.094a48.888,48.888,0,0,0,3.017-5.372,54.232,54.232,0,0,0,2.332-5.648,58.871,58.871,0,0,0,2.8-12.04,57.151,57.151,0,0,0,.2-12.651,51.584,51.584,0,0,0-.968-6.127c-.06-.257-.119-.513-.18-.766,0,0,.014-.016.016-.016" transform="translate(-208.189 -62.202)" fill="#ffbf6c"/>
          <path id="Trazado_1048587" data-name="Trazado 1048587" d="M359.391,133.518a29.907,29.907,0,0,1-2.909,7.514,26.311,26.311,0,0,1-2.193,3.314c-.426.541-.877,1.066-1.34,1.561-.613.638-1.294,1.243-1.943,1.8a.6.6,0,0,1-.344.167.528.528,0,0,1-.259.1l-1.422.146-13.768,1.432-7.629.8-.11.01q-11.852,1.234-23.7,2.468l-9.037.94-10.072,1.048-.075.005a.524.524,0,0,1-.5-.477.53.53,0,0,1,.471-.554l.08-.007.077-.008a15.128,15.128,0,0,0,2.414-1.712,28.145,28.145,0,0,0,4.634-5.485l.051-.066c.672-1.023,1.32-2.05,2.04-3.232.625-1.024,1.229-2.11,1.842-3.313q2.277.517,4.582.9a83.6,83.6,0,0,0,14.775,1.115,87.371,87.371,0,0,0,14.66-1.43q3.5-.65,6.946-1.571c1.889-.507,3.767-1.064,5.62-1.691,1.994-.676,3.965-1.428,5.885-2.291a45.678,45.678,0,0,0,5.623-2.973,31.144,31.144,0,0,0,4.857-3.7,24.131,24.131,0,0,0,1.675-1.741,32.7,32.7,0,0,1-.922,6.934" transform="translate(-262.563 -72.719)" fill="#e29828" opacity="0.3"/>
          <path id="Trazado_1048588" data-name="Trazado 1048588" d="M379.824,127.3c-11.426-1.839-17.913-20.66-14.477-42s15.5-37.177,26.927-35.337,17.912,20.66,14.477,42-15.5,37.176-26.927,35.337" transform="translate(-362.637 -46.32)" fill="#206969"/>
          <path id="Trazado_1048589" data-name="Trazado 1048589" d="M402.417,72.464c3.387-8.7,8.269-15.445,13.6-18.864-5.334,3.451-10.218,10.233-13.6,18.864" transform="translate(-395.913 -47.62)" fill="#206969"/>
          <path id="Trazado_1048590" data-name="Trazado 1048590" d="M369.09,143.026l-.037-.01a57.209,57.209,0,0,0,6.8-14.865,56.787,56.787,0,0,1-6.766,14.875" transform="translate(-333.856 -73.258)" fill="#206969"/>
          <path id="Trazado_1048591" data-name="Trazado 1048591" d="M386.45,151.255a32.012,32.012,0,0,1-6.8,7.511,31.508,31.508,0,0,0,6.26-6.8q.251-.357.5-.726a.264.264,0,0,1,.036.01" transform="translate(-351.407 -81.2)" fill="#206969"/>
          <path id="Trazado_1048592" data-name="Trazado 1048592" d="M386.494,83.206q.579.057,1.152.149a66.488,66.488,0,0,1-.305,20.068,62.343,62.343,0,0,1-8.928,24.112q-.649-.186-1.278-.426a18,18,0,0,1-1.994-.9l.008.005-.023-.013-.007,0h0l.005,0,.015.008a.085.085,0,0,0-.02-.011l0,0h0s0,0,0,0h0a18.264,18.264,0,0,1-2.056-1.287,18.968,18.968,0,0,1-3.539-3.332,22.134,22.134,0,0,1-1.489-2.042s0,0,0,.005,0-.008-.007-.011-.011-.018-.016-.026v0l0,.006,0-.006a22.263,22.263,0,0,1-1.385-2.534,24.348,24.348,0,0,1-1.061-2.709h0a.009.009,0,0,0,0,0,.007.007,0,0,0,0,0,23.968,23.968,0,0,1-.783-3.166,26.591,26.591,0,0,1-.359-3.246.007.007,0,0,0,0,.006v0a26.1,26.1,0,0,1,.09-3.58,27.173,27.173,0,0,1,.546-3.4v0a25.608,25.608,0,0,1,.976-3.273,26.156,26.156,0,0,1,1.348-3,.311.311,0,0,0-.02.036,23.889,23.889,0,0,1,3.557-5.036l-.031.031a22.182,22.182,0,0,1,1.966-1.881,21.672,21.672,0,0,1,2.248-1.664,19.312,19.312,0,0,1,4.511-2.13,18.261,18.261,0,0,1,2.306-.569,18.912,18.912,0,0,1,2.275-.251l-.012,0h0c.242-.009.484-.014.726-.014.528,0,1.057.024,1.582.074m-18.481,36.309a.145.145,0,0,1,.011.018l0,.005Z" transform="translate(-343.214 -57.776)" fill="#113b3b"/>
          <path id="Trazado_1048593" data-name="Trazado 1048593" d="M384.441,148.773h0" transform="translate(-352.539 -80.349)" fill="#113b3b"/>
          <path id="Trazado_1048594" data-name="Trazado 1048594" d="M389.489,44.486a13.053,13.053,0,0,1,2.615.269,14.045,14.045,0,0,1,6.472,3.4A20.047,20.047,0,0,1,401.7,51.77l.048.072.044.077.005,0c.408.6.814,1.264,1.205,1.966l.062.115.063.115a35.19,35.19,0,0,1,2.889,7.152c.171.585.333,1.174.482,1.766l.02.085.02.085q.223.9.413,1.807a56.78,56.78,0,0,1,.948,6.467c.086.945.153,1.943.2,2.965l0,.077q.046,1.085.059,2.164.012.753.005,1.507-.008,1.153-.054,2.31-.108,2.669-.413,5.431a79.257,79.257,0,0,1-3.265,15.35,62.964,62.964,0,0,1-6.467,14.182,42.374,42.374,0,0,1-4.653,6.169,27.437,27.437,0,0,1-5.873,4.933,16.109,16.109,0,0,1-7.276,2.454q-.422.03-.844.03a12.847,12.847,0,0,1-2.979-.356,13.053,13.053,0,0,1-3.251-1.274,17.414,17.414,0,0,1-5.44-4.92,25.936,25.936,0,0,1-2.036-3.235,32.033,32.033,0,0,1-1.644-3.573,44.68,44.68,0,0,1-2.161-7.506,57.811,57.811,0,0,1-1.01-7.827,74.491,74.491,0,0,1,.749-15.92A77.451,77.451,0,0,1,365.486,69.1a57.073,57.073,0,0,1,7.375-13.972,35.509,35.509,0,0,1,5.229-5.734,21.2,21.2,0,0,1,6.581-4.017,14.643,14.643,0,0,1,3.759-.84c.35-.031.707-.047,1.06-.047m13.633,22.877c-.183-.869-.373-1.662-.577-2.416a35.3,35.3,0,0,0-1.76-4.994l-.044-.1-.049-.107-.031-.069-.064-.136c-.016-.039-.033-.074-.051-.11l-.041-.091-.077-.158c-.292-.606-.582-1.157-.879-1.678,0,0-.035-.063-.036-.063l-.009-.018-.021-.038-.026-.055-.038-.049a19.888,19.888,0,0,0-2.79-3.692c-.3-.3-.607-.585-.907-.84a13.714,13.714,0,0,0-1.839-1.329,12.1,12.1,0,0,0-1.247-.625,11.946,11.946,0,0,0-1.432-.51c-.261-.066-.522-.123-.783-.171a11.253,11.253,0,0,0-1.929-.187,12.393,12.393,0,0,0-2.995.415,15.765,15.765,0,0,0-3.389,1.43l-.07.039a22.967,22.967,0,0,0-4.46,3.489,37,37,0,0,0-5.6,7.38,58.271,58.271,0,0,0-5.793,14.108l0-.064a69.2,69.2,0,0,0-2.378,17.751A52.288,52.288,0,0,0,365.47,107.8l.018.064a31.9,31.9,0,0,0,3,7.414h0a20.078,20.078,0,0,0,2.919,3.9l.021.022-.008-.005.03.036,0,0a14.279,14.279,0,0,0,2.726,2.126,11.637,11.637,0,0,0,2.641,1.109,11.308,11.308,0,0,0,2.7.356,12.239,12.239,0,0,0,2.994-.412,15.635,15.635,0,0,0,3.492-1.492l-.058.051.092-.055-.027.016.039-.03,0,.005a23.775,23.775,0,0,0,4.337-3.411,37.176,37.176,0,0,0,5.693-7.513l-.056.117a58.954,58.954,0,0,0,5.789-14.1l-.005.064A69,69,0,0,0,404.2,78.28a59,59,0,0,0-.339-6.234c-.167-1.5-.395-2.967-.676-4.372l-.022-.1-.022-.112-.014-.1Z" transform="translate(-360.654 -44.486)" fill="#2fc3b0"/>
          <path id="Trazado_1048595" data-name="Trazado 1048595" d="M297.343,164.938c.577,0,1.2.028,1.9.085a31.185,31.185,0,0,1,3.138.428c.967.178,1.913.4,2.812.659a17,17,0,0,1,2.264.808,5.842,5.842,0,0,1,.749.395,5.147,5.147,0,0,1,.428.316,7.326,7.326,0,0,1,.77.705,8.114,8.114,0,0,1,1.875,3.368,12.872,12.872,0,0,1,.436,3.5,26.949,26.949,0,0,1-.305,3.792c-.171,1.237-.4,2.483-.625,3.689s-.453,2.447-.623,3.679a18.834,18.834,0,0,0-.205,3.031.481.481,0,0,1-.142.345.5.5,0,0,1-.856-.344c-.005-.177-.005-.354,0-.531a6.675,6.675,0,0,1-.833.684,7.4,7.4,0,0,1-1.68.87,7.283,7.283,0,0,1-2.548.453,7.556,7.556,0,0,1-1.069-.076,5.685,5.685,0,0,1-3.1-1.478,5.137,5.137,0,0,1-1.07-1.5,5.994,5.994,0,0,1-.531-1.916,19.852,19.852,0,0,1-.1-3.082c.032-.991.122-2.065.274-3.286.278-2.276.732-4.5,1.1-6.183a21.107,21.107,0,0,1-3.212-.412,7.677,7.677,0,0,1-3.572-1.634,4.236,4.236,0,0,1-1.307-2.772,2.86,2.86,0,0,1,.108-1.056,2.694,2.694,0,0,1,.514-.933,3.01,3.01,0,0,1,.776-.652,5,5,0,0,1,1.031-.472,10,10,0,0,1,2.559-.446c.349-.023.7-.033,1.051-.033" transform="translate(-218.699 -85.908)" fill="#f6cfbe"/>
          <path id="Trazado_1048596" data-name="Trazado 1048596" d="M326.012,171.406a7.657,7.657,0,0,1,1.421.141,8.953,8.953,0,0,1,3.87,1.788,5.969,5.969,0,0,1,1.321,1.457,3.877,3.877,0,0,1,.657,1.8,2.213,2.213,0,0,1-.429,1.5,2.769,2.769,0,0,1-1.108.827.747.747,0,0,1,.142.214,2.359,2.359,0,0,1,.182.563,2.322,2.322,0,0,1,.049.591,2.9,2.9,0,0,1-.11.68A3.025,3.025,0,0,1,330.7,182.7a3.835,3.835,0,0,1-.449.247,2.626,2.626,0,0,1,.168.68,3.193,3.193,0,0,1-.026.716,4.2,4.2,0,0,1-.2.72,2.759,2.759,0,0,1-.239.493,3.73,3.73,0,0,1-.272.421,3.445,3.445,0,0,1-.306.329,3.243,3.243,0,0,1-.829.583,3.956,3.956,0,0,1-.86.322,5,5,0,0,1-.959.161c-.165.01-.326.015-.49.015a8.055,8.055,0,0,1-1.48-.146,7.416,7.416,0,0,1-1.719-.541,5.521,5.521,0,0,1-1.272-.869,7.663,7.663,0,0,1-1.2-1.314,3.792,3.792,0,0,1-.691-1.5,1.718,1.718,0,0,1,.327-1.371,2.3,2.3,0,0,1,1.28-.728,3.938,3.938,0,0,1-.594-1.143,3.22,3.22,0,0,1,.008-2.432,2.023,2.023,0,0,1,.923-.89,2.774,2.774,0,0,1,.65-.2l.1-.008a5,5,0,0,1-.393-1.446,3.064,3.064,0,0,1,.365-1.9,2.6,2.6,0,0,1,1.21-1.02,2.385,2.385,0,0,1,.28-.108,5.069,5.069,0,0,1,1.973-.367" transform="translate(-259.007 -88.133)" fill="#f6cfbe"/>
          <path id="Trazado_1048597" data-name="Trazado 1048597" d="M322.684,178.18a4.072,4.072,0,0,0,.636.713l-.033-.031a7.363,7.363,0,0,0,1.579,1.025l0,0a12.155,12.155,0,0,0,2.888.959,10.987,10.987,0,0,0,2.668.174,4.628,4.628,0,0,0,.732-.1.343.343,0,1,1,.138.671c-.151.039-.3.082-.451.11a5.741,5.741,0,0,1-.59.067,6.757,6.757,0,0,1-1.245-.049,12.059,12.059,0,0,1-2.594-.638,11.046,11.046,0,0,1-2.353-1.163,5.744,5.744,0,0,1-1.617-1.518.168.168,0,0,1,.015-.233.184.184,0,0,1,.113-.039.135.135,0,0,1,.117.056" transform="translate(-258.952 -90.443)" fill="#da8c67"/>
          <path id="Trazado_1048598" data-name="Trazado 1048598" d="M325,185.744a10.385,10.385,0,0,0,1.453.877l-.016-.009a13.951,13.951,0,0,0,1.466.622,12.6,12.6,0,0,0,1.632.455,10.759,10.759,0,0,0,1.3.173,8.7,8.7,0,0,0,1.178,0q.51-.042,1.011-.134a.4.4,0,0,1,.469.308.391.391,0,0,1-.059.3.414.414,0,0,1-.249.167,5.391,5.391,0,0,1-2.094.159,9.953,9.953,0,0,1-1.094-.185,10.882,10.882,0,0,1-1.191-.338,14.766,14.766,0,0,1-2.143-.943,15.44,15.44,0,0,1-1.85-1.176.167.167,0,0,1-.047-.228.174.174,0,0,1,.142-.074.149.149,0,0,1,.087.027m1.438.868-.033-.016.033.016" transform="translate(-262.437 -93.054)" fill="#da8c67"/>
          <path id="Trazado_1048599" data-name="Trazado 1048599" d="M304.334,174.474c.177.133.356.257.543.372a.422.422,0,0,0-.036-.024,8.293,8.293,0,0,0,1.8.8l-.026-.007.051.014.011,0-.005,0a13.667,13.667,0,0,0,1.663.366,14.777,14.777,0,0,0,1.718.146,16.179,16.179,0,0,0,1.93-.075,13.621,13.621,0,0,0,1.846-.32c.176-.045.352-.091.525-.142a.457.457,0,0,1,.336.008.438.438,0,0,1,.226.233.451.451,0,0,1-.008.336.435.435,0,0,1-.236.226,12.6,12.6,0,0,1-2.6.479,13.219,13.219,0,0,1-2.863-.074,11.179,11.179,0,0,1-1.363-.277,10.4,10.4,0,0,1-1.369-.456,10.673,10.673,0,0,1-2.35-1.348.166.166,0,0,1-.026-.231.159.159,0,0,1,.126-.06.178.178,0,0,1,.1.035m9.466,1.279-.059.015.059-.015m-7.127-.125h-.006l-.024-.008.03.009" transform="translate(-230.309 -89.176)" fill="#da8c67"/>
          <path id="Trazado_1048600" data-name="Trazado 1048600" d="M77.84,171.254c.856,0,1.71.037,2.543.11a23.116,23.116,0,0,1,6.379,1.441,64.717,64.717,0,0,0,9.312,1.405c.657.066,1.313.133,1.968.2,1.6.173,3.707.428,5.805.872a28.866,28.866,0,0,1,5.665,1.789,24.427,24.427,0,0,1,4,2.271,22.988,22.988,0,0,1,3.656,3.157,13.55,13.55,0,0,1,3.941,8.3,10.633,10.633,0,0,1-.07,1.8,9.629,9.629,0,0,1-.436,1.862,10.84,10.84,0,0,1-1.806,3.283,11.243,11.243,0,0,1-2.115,2.06c.185.066.37.145.552.227a17.994,17.994,0,0,1,8.959,8.93,17.937,17.937,0,0,1,1.261,3.905,16.841,16.841,0,0,1,.31,4.038,15.789,15.789,0,0,1-.695,3.974,15.037,15.037,0,0,1-1.751,3.712,15.546,15.546,0,0,1-2.859,3.259,18.035,18.035,0,0,1-4.01,2.6,25.693,25.693,0,0,1-5.488,1.89,31.8,31.8,0,0,1-5.919.772q-.7.028-1.409.028a42.984,42.984,0,0,1-10.794-1.46,52.331,52.331,0,0,1-11.494-4.514,50.544,50.544,0,0,1-5.042-3.092,43.831,43.831,0,0,1-3.925-3.089,65.607,65.607,0,0,1-7.2-7.51,63.334,63.334,0,0,1-6.486-9.425A39.039,39.039,0,0,1,56.6,193.829a19.639,19.639,0,0,1,.01-9.812,14.879,14.879,0,0,1,.828-2.238,14.306,14.306,0,0,1,1.167-2.023,16.081,16.081,0,0,1,3.174-3.376,20.408,20.408,0,0,1,4.069-2.525,25.274,25.274,0,0,1,4.632-1.667,29.366,29.366,0,0,1,7.362-.933" transform="translate(119.628 -88.08)" fill="#021621"/>
          <path id="Trazado_1048601" data-name="Trazado 1048601" d="M73.734,182.689a30.206,30.206,0,0,1,3.516,1.3c.621.267,1.228.562,1.833.864.625.312,1.243.643,1.838,1.012a20.084,20.084,0,0,1,3.329,2.545,13.459,13.459,0,0,1,2.512,3.134,8.506,8.506,0,0,1,1.064,3.4,8.071,8.071,0,0,1-.056,1.924,9.31,9.31,0,0,1-.239,1.1,7.807,7.807,0,0,1-.366.979.865.865,0,0,1-.413.48.833.833,0,0,1-.613.043.818.818,0,0,1-.523-1.027,10.289,10.289,0,0,0,.5-1.719,8.724,8.724,0,0,0,.106-1.922,9.138,9.138,0,0,0-.432-2.012,11.394,11.394,0,0,0-1.268-2.459c.028.044.056.085.085.129a15.17,15.17,0,0,0-2.67-2.893,24.124,24.124,0,0,0-5.145-3.353l.046.023a22.674,22.674,0,0,0-3.2-1.235.165.165,0,0,1,.052-.32.173.173,0,0,1,.05.007M86.225,194.9c0,.022,0,.043.005.064,0-.021,0-.043-.005-.064" transform="translate(148.043 -92.01)" fill="#04293e"/>
          <path id="Trazado_1048602" data-name="Trazado 1048602" d="M83.053,199.515a11.349,11.349,0,0,1,1.817,2.158,8.228,8.228,0,0,1,1.115,2.729,7.438,7.438,0,0,1,.079,2.814,7.206,7.206,0,0,1-.382,1.44,6.271,6.271,0,0,1-.746,1.379.693.693,0,0,1-.425.287.659.659,0,0,1-.759-.851.652.652,0,0,1,.182-.283,7.623,7.623,0,0,0,.477-.63,4.959,4.959,0,0,0,.769-1.876c0,.008,0,.016,0,.024a7.379,7.379,0,0,0,.091-1.666,8.325,8.325,0,0,0-.152-1.029,9.464,9.464,0,0,0-.3-1.064c0,.007.005.012.007.019a9.252,9.252,0,0,0-.986-2.023l.016.02a7.319,7.319,0,0,0-1.049-1.233.166.166,0,0,1,.012-.231.158.158,0,0,1,.106-.041.189.189,0,0,1,.128.054m1.773,3.454c.007.02.013.04.02.058-.007-.018-.013-.039-.02-.058" transform="translate(143.673 -97.781)" fill="#04293e"/>
          <path id="Trazado_1048603" data-name="Trazado 1048603" d="M122.906,60.524c.395,0,.793.005,1.187.015a50.786,50.786,0,0,1,26.019,8.31,47.977,47.977,0,0,1,9.838,8.413,45.806,45.806,0,0,1,7.206,10.761,38.451,38.451,0,0,1,3.588,12.278,33.78,33.78,0,0,1-.945,12.769,38.028,38.028,0,0,1-4.953,11,42.149,42.149,0,0,1-29.734,18.614c-.792.09-1.6.15-2.38.207-.987.075-1.975.144-2.962.2-1.065.058-2.021.087-2.925.087-1.069,0-2.053-.039-3.006-.119a.539.539,0,0,1-.381-.2h-.024a.451.451,0,0,1-.274-.078,49.18,49.18,0,0,1-7.964-7.587l-.943-1.056c-.9-1.005-1.824-2.044-2.76-3.045-.488-.521-.987-1.029-1.487-1.536l-.44-.447c-.692-.7-1.395-1.442-2.148-2.256-2.918-3.143-5.631-6.388-8.161-9.442l-.519-.63c-.459-.557-.917-1.113-1.382-1.667-.566-.674-1.148-1.335-1.732-1.994l-.516-.581c-1.032-1.165-2.1-2.369-3.106-3.592-.923-1.116-1.77-2.245-2.517-3.355A21.72,21.72,0,0,1,87.508,102a.533.533,0,0,1-.039-.148,42.271,42.271,0,0,1-1.684-5.683,39.161,39.161,0,0,1-.818-5.827,40.8,40.8,0,0,1,.061-5.99,37.192,37.192,0,0,1,.615-4.4,25,25,0,0,1,2.789-7.634A13.5,13.5,0,0,1,93.6,67.1a11.29,11.29,0,0,1,4.86-1.287c.164-.007.328-.01.492-.01a15.309,15.309,0,0,1,2.372.2c.085.013.167.026.249.041.926-.52,1.877-1.008,2.823-1.453a43.341,43.341,0,0,1,18.507-4.073" transform="translate(57.472 -50.001)" fill="#021621"/>
          <path id="Trazado_1048604" data-name="Trazado 1048604" d="M138.732,170.189a.163.163,0,0,1,.012.231,36.256,36.256,0,0,1-3.983,3.288,39.065,39.065,0,0,1-4.493,2.737,41.877,41.877,0,0,1-16.569,4.7c-1.212.084-2.43.1-3.644.1-.674,0-1.346-.015-2.017-.062-.339-.023-.677-.059-1.015-.1a6.82,6.82,0,0,1-1.12-.208.441.441,0,0,1,.082-.871c.253-.01.5,0,.756.013.295.015.589.036.884.054.587.033,1.174.074,1.763.1,1.079.051,2.158.044,3.237,0a47.247,47.247,0,0,0,5.721-.577,43.782,43.782,0,0,0,10.935-3.272l-.069.031a38.1,38.1,0,0,0,4.1-2.189,33.811,33.811,0,0,0,3.821-2.745l-.035.028c.482-.4.951-.815,1.4-1.245a.182.182,0,0,1,.125-.053.155.155,0,0,1,.106.042M118.291,179.6l-.057.01.057-.01" transform="translate(76.093 -87.7)" fill="#04293e"/>
          <path id="Trazado_1048605" data-name="Trazado 1048605" d="M209.884,116.154h.08a7.444,7.444,0,0,1,3.078.751l.07.031a.157.157,0,0,1,.08.1.2.2,0,0,1-.016.151.177.177,0,0,1-.1.079,5.5,5.5,0,0,1,.642,1.869,14.1,14.1,0,0,1,.205,2.867,24.331,24.331,0,0,1-.3,3.258,21.981,21.981,0,0,1-.723,3.133,15.227,15.227,0,0,1-1.185,2.838,8.9,8.9,0,0,1-.8,1.193,5.542,5.542,0,0,1-.79.837,3.911,3.911,0,0,1-.991.636,3.1,3.1,0,0,1-1.253.3h-.068a4.061,4.061,0,0,1-.535-.048,2.714,2.714,0,0,1-.566-.141,4.483,4.483,0,0,1-1.2-.651,7.506,7.506,0,0,1-2.071-2.462,9.375,9.375,0,0,1-.951-3.042,12.31,12.31,0,0,1,.831-6.465,8.974,8.974,0,0,1,3.821-4.532,6,6,0,0,1,2.733-.7" transform="translate(-62.575 -69.132)" fill="#f0bea9"/>
          <path id="Trazado_1048606" data-name="Trazado 1048606" d="M202.363,119.761a6.278,6.278,0,0,1,1.144.256,6.618,6.618,0,0,1,1.184.508,8.71,8.71,0,0,1,2.045,1.542,8.822,8.822,0,0,1,.777.895,7.313,7.313,0,0,1,.653,1.043.408.408,0,0,1-.7.407A12.3,12.3,0,0,0,206,122.65a10.214,10.214,0,0,0-1.948-1.485,6.968,6.968,0,0,0-1.549-.624,5.269,5.269,0,0,0-1.165-.134,4.179,4.179,0,0,0-.9.138l.077-.023c-.1.028-.192.059-.287.093a.322.322,0,0,1-.413-.169.319.319,0,0,1,.169-.413,5.456,5.456,0,0,1,2.371-.272m1.643,1.374.047.027-.047-.027m.064.037.036.02Zm1.939,1.482c.025.025.049.049.075.072l-.075-.072" transform="translate(-55.154 -70.362)" fill="#da8c67"/>
          <path id="Trazado_1048607" data-name="Trazado 1048607" d="M136.631,76.469a.389.389,0,0,1,.211.06c1.667,1.05,3.384,2.088,5.043,3.092,3.761,2.273,7.65,4.624,11.242,7.289a48.7,48.7,0,0,1,7.02,6.239,36.59,36.59,0,0,1,5.591,8,42.137,42.137,0,0,1,1.735,3.891,45.655,45.655,0,0,1,1.515,4.509,31.726,31.726,0,0,1,.93,4.66,24.014,24.014,0,0,1,.131,4.225c.257-.119.527-.224.8-.322a10.726,10.726,0,0,1,2.651-.562c.193-.018.388-.026.585-.026a6.98,6.98,0,0,1,2.032.3,7.325,7.325,0,0,1,1.036.423,6.219,6.219,0,0,1,.89.541,5.987,5.987,0,0,1,1.367,1.35,6.678,6.678,0,0,1,.5.785,6.965,6.965,0,0,1,.4.915,8.48,8.48,0,0,1,.415,3.735,11.516,11.516,0,0,1-1.059,3.782,10.979,10.979,0,0,1-2.541,3.391,12.725,12.725,0,0,1-3.891,2.405,13.214,13.214,0,0,1-4.528.923c-.107,0-.214,0-.321,0a11.628,11.628,0,0,1-4.262-.812c-.224.14-.447.289-.667.445a14.515,14.515,0,0,0-2.58,2.475,21.027,21.027,0,0,0-2.742,4.473l.042-.121a25.794,25.794,0,0,0-1.92,6.286v-.06a20.992,20.992,0,0,0-.2,5.157,13.627,13.627,0,0,0,.781,3.424,10.276,10.276,0,0,0,1.107,2.054,12.97,12.97,0,0,0,2.1,2.248h0a14.314,14.314,0,0,0,2.989,1.88,13.863,13.863,0,0,0,2.231.783.489.489,0,0,1,.348.486.433.433,0,0,1,.076.1.474.474,0,0,1,.036.385,30.6,30.6,0,0,1-3.84,6.329,32.115,32.115,0,0,1-5.145,5.187,30.465,30.465,0,0,1-6.011,3.773,25.559,25.559,0,0,1-6.448,2.086,21.306,21.306,0,0,1-3.679.33,18.632,18.632,0,0,1-2.769-.2,17.752,17.752,0,0,1-3.12-.762,16.616,16.616,0,0,1-2.945-1.367,17.747,17.747,0,0,1-5.118-4.6,23.167,23.167,0,0,1-2.1-3.336,29.683,29.683,0,0,1-1.749-4.168,26.149,26.149,0,0,1-1.6-9.49.5.5,0,0,1,.493-.486.515.515,0,0,1,.374.169l.069-.015a15.047,15.047,0,0,0,1.727-.268l.1-.014v.007a13.6,13.6,0,0,0,2.856-1.069,11.8,11.8,0,0,0,2.287-1.593,11.476,11.476,0,0,0,1.781-2.1,11.664,11.664,0,0,0,1.245-2.659,13.026,13.026,0,0,0,.53-3.033l0-.073c.01-.344.007-.676-.005-1.007a27.41,27.41,0,0,1-9.242-5.142,22.632,22.632,0,0,1-3.927-4.168,20.347,20.347,0,0,1-2.508-4.794,23.623,23.623,0,0,1-1.238-5.253,30.359,30.359,0,0,1,.749-10.905,53.838,53.838,0,0,1,1.932-6.114c.642-1.723,1.35-3.454,2.035-5.127l.362-.888q.665-1.618,1.3-3.252h0c.881-2.294,1.528-4.221,2.032-6.053.15-.544.285-1.093.421-1.642.094-.381.188-.762.287-1.142.226-.865.452-1.662.692-2.435a31.951,31.951,0,0,1,1.761-4.526,19.974,19.974,0,0,1,2.5-3.93,16.867,16.867,0,0,1,2.89-2.746,17.975,17.975,0,0,1,3.45-2.005.539.539,0,0,1,.474-.318" transform="translate(27.556 -55.485)" fill="#f6cfbe"/>
          <path id="Trazado_1048608" data-name="Trazado 1048608" d="M135.935,76.513c1.6,1.007,3.255,2.006,4.855,2.973l.1.062.093.056c3.759,2.271,7.645,4.619,11.243,7.289a48.975,48.975,0,0,1,7.023,6.238,36.651,36.651,0,0,1,5.592,8,41.883,41.883,0,0,1,1.735,3.891,44.623,44.623,0,0,1,1.514,4.508,31.724,31.724,0,0,1,.933,4.662,24.268,24.268,0,0,1,.151,3.8c-.533.139-1.071.259-1.614.349a20.74,20.74,0,0,1-2.579.262h.043a19.786,19.786,0,0,1-4.936-.444h0l.022.005a.074.074,0,0,0-.022-.005,20.813,20.813,0,0,1-2.641-.772,24.534,24.534,0,0,1-2.519-1.1l.005,0s0,0-.005,0l-.026-.014a.085.085,0,0,1,.019.009.085.085,0,0,0-.019-.009,26.419,26.419,0,0,1-3.241-1.987,33.294,33.294,0,0,1-2.952-2.4c.011.01.023.018.033.028a45.464,45.464,0,0,1-7.61-9.3l.023.038q-.527-.838-1.027-1.694c-.348-.6-.687-1.2-1.023-1.812-.758-1.379-1.491-2.773-2.184-4.188a61.392,61.392,0,0,1-3.583-8.873s0,.005.005.008a41.37,41.37,0,0,1-1.163-4.746q-.233-1.29-.373-2.592a18.094,18.094,0,0,1,3.43-1.991.537.537,0,0,1,.479-.32.37.37,0,0,1,.218.067M133.344,86.1l.008.033a.2.2,0,0,0-.008-.033" transform="translate(28.468 -55.477)" fill="#f0bea9"/>
          <path id="Trazado_1048609" data-name="Trazado 1048609" d="M174.587,187.34a28.381,28.381,0,0,1-6.792,2.8h0a20.638,20.638,0,0,1-2.563.487,18.278,18.278,0,0,1-2.506.138h.043a15.267,15.267,0,0,1-1.986-.159,14.87,14.87,0,0,1-1.471-.293,11.769,11.769,0,0,0,1.214-2.608,13.086,13.086,0,0,0,.526-3.027l0-.074c.011-.34.008-.671-.005-1,.079.023.156.043.236.064a25.372,25.372,0,0,0,2.733.569,33.531,33.531,0,0,0,5.612.356,51.1,51.1,0,0,0,10.828-1.449,34.76,34.76,0,0,1-5.874,4.2" transform="translate(-0.852 -92.169)" fill="#da8c67"/>
          <path id="Trazado_1048610" data-name="Trazado 1048610" d="M134.262,144.983a.414.414,0,0,1,.149.259c.049.215.089.43.117.651a7.219,7.219,0,0,1,.041.781,8.575,8.575,0,0,1-.141,1.561,11.169,11.169,0,0,1-.387,1.494,11.631,11.631,0,0,1-.623,1.525,10.433,10.433,0,0,1-1.81,2.6,8.994,8.994,0,0,1-2.348,1.755.164.164,0,0,1-.125-.3c.066-.033.131-.07.194-.106a6.8,6.8,0,0,0,1.343-1.032.487.487,0,0,0-.038.036,10.29,10.29,0,0,0,1.627-2.127l-.038.069a12.138,12.138,0,0,0,1.172-2.787,10.66,10.66,0,0,0,.342-2.6,9.375,9.375,0,0,0-.113-1.4.4.4,0,0,1,.4-.45.39.39,0,0,1,.241.083" transform="translate(64.908 -79.018)" fill="#da8c67"/>
          <path id="Trazado_1048611" data-name="Trazado 1048611" d="M121.67,143.14a6.009,6.009,0,0,1,1.143.2,4.934,4.934,0,0,1,3.376,2.612.165.165,0,0,1-.087.215.168.168,0,0,1-.215-.087,3.331,3.331,0,0,0-.146-.3,3.667,3.667,0,0,0-.512-.664l.031.033a4.672,4.672,0,0,0-.917-.7,5.735,5.735,0,0,0-1.21-.5,5.378,5.378,0,0,0-1.315-.173,5.211,5.211,0,0,0-1.194.161,4.265,4.265,0,0,0-.869.363,4.2,4.2,0,0,0-.644.5.419.419,0,0,1-.318.085.438.438,0,0,1-.293-.167.453.453,0,0,1-.085-.316c.011-.038.021-.074.031-.113a.4.4,0,0,1,.138-.179,3.573,3.573,0,0,1,1.937-.92,4.377,4.377,0,0,1,.736-.058c.138,0,.276.006.412.014m.077.633h0Zm2.587.668,0,0Zm.009.005.016.009-.016-.009" transform="translate(80.245 -78.407)" fill="#da8c67"/>
          <path id="Trazado_1048612" data-name="Trazado 1048612" d="M127.638,74.61h.148c.185.005.372.016.557.026.412.021.822.051,1.233.087.747.065,1.514.16,2.279.282a33.288,33.288,0,0,1,4.435,1.023,36.947,36.947,0,0,1,8.306,3.706,44.658,44.658,0,0,1,13.345,12.6,47.434,47.434,0,0,1,4.547,8.069,43.481,43.481,0,0,1,2.8,8.653,39.367,39.367,0,0,1,.828,6.96.456.456,0,0,1-.013.122.46.46,0,0,1,.051.258.483.483,0,0,1-.177.346,10.426,10.426,0,0,1-1.444.808,9.381,9.381,0,0,1-1.5.521,9.251,9.251,0,0,1-2.315.28q-.366,0-.73-.024a12.743,12.743,0,0,1-3.134-.649,19.034,19.034,0,0,1-3.156-1.41,32.354,32.354,0,0,1-6.068-4.427,59.811,59.811,0,0,1-5.537-5.715c-1.563-1.83-3.063-3.769-4.457-5.765a54.188,54.188,0,0,1-3.094-4.919,105.091,105.091,0,0,1-4.834-9.763,45.008,45.008,0,0,1-3.1-10.412.518.518,0,0,1,.186-.483.452.452,0,0,1,.34-.165l.258,0Zm37.135,41.7c.117-.065.234-.133.349-.2-.112.066-.229.134-.349.2" transform="translate(34.923 -54.845)" fill="#021621"/>
          <path id="Trazado_1048613" data-name="Trazado 1048613" d="M136.421,86.833a43.764,43.764,0,0,0,2.048,4.7l-.007-.016a53.649,53.649,0,0,0,3.608,6.055c.684,1.007,1.412,1.981,2.153,2.947q1.063,1.389,2.224,2.7h0c.861.953,1.741,1.9,2.671,2.781s1.868,1.753,2.852,2.573a63.527,63.527,0,0,0,6,4.435c.764.489,1.543.949,2.329,1.4.423.241.848.479,1.274.718.2.11.392.22.587.333a7.411,7.411,0,0,0,.669.382.929.929,0,0,1,.438,1.235.92.92,0,0,1-.538.48.943.943,0,0,1-.7-.041l-.018-.008a19.12,19.12,0,0,1-4.4-2.009,33.776,33.776,0,0,1-4.27-2.991c-.658-.543-1.3-1.1-1.922-1.689s-1.235-1.21-1.835-1.833c-.636-.656-1.243-1.335-1.835-2.032-.564-.661-1.13-1.317-1.663-2-1.071-1.379-2.112-2.779-3.088-4.224-.484-.72-.943-1.46-1.4-2.2s-.877-1.484-1.295-2.237c-.815-1.469-1.556-2.975-2.25-4.5-.672-1.471-1.264-2.97-1.812-4.49-.044-.118-.085-.236-.128-.356a.159.159,0,0,1,.161-.212.152.152,0,0,1,.148.107m2.041,4.689-.022-.043a.365.365,0,0,1,.022.043" transform="translate(31.489 -59.012)" fill="#04293e"/>
          <path id="Trazado_1048614" data-name="Trazado 1048614" d="M156.578,93.835c.5.631,1.01,1.261,1.5,1.9s.966,1.284,1.455,1.922c1,1.307,2,2.606,3.1,3.834l-.027-.031c.374.413.751.821,1.142,1.22s.823.812,1.249,1.21a.4.4,0,0,1,.043.549.392.392,0,0,1-.548.043c-.4-.369-.777-.756-1.146-1.153q-.581-.627-1.12-1.287c-.7-.854-1.363-1.737-2.01-2.634s-1.281-1.8-1.924-2.706q-.469-.653-.946-1.3c-.34-.464-.682-.928-1.041-1.381a.168.168,0,0,1,.044-.228.162.162,0,0,1,.089-.027.187.187,0,0,1,.14.07m6.029,7.627-.032-.035.032.035" transform="translate(16.471 -61.433)" fill="#04293e"/>
          <path id="Trazado_1048615" data-name="Trazado 1048615" d="M131.152,314.85c1.052,0,2.022.014,2.963.043a63.6,63.6,0,0,1,20.728,3.752q.369.139.73.285a.481.481,0,0,1,.277-.407.488.488,0,0,1,.208-.047.5.5,0,0,1,.454.289l.113.24.211.451.123.053a.512.512,0,0,1,.31.667.643.643,0,0,1-.054.1c4.633,9.964,9,19.946,12.966,29.663,2.134,5.219,4.229,10.55,6.228,15.844,1.787,4.732,3.86,10.34,5.7,16.062A228.825,228.825,0,0,1,188.7,407.3a.475.475,0,0,1,.067.242.507.507,0,0,1-.5.5c-5.614.2-11.319.449-16.838.689-8.953.389-18.21.791-27.322,1.005-3.758.089-7.48.142-11.061.157q-.91,0-1.821,0c-2.834,0-5.864-.026-9.264-.081-5.514-.089-11.116-.245-16.535-.394q-2.821-.078-5.64-.154c-4.563-.121-8.051-.2-11.31-.248-3.368-.054-7.012-.08-11.467-.08a.5.5,0,0,1-.5-.5.481.481,0,0,1,.013-.106.318.318,0,0,1-.091-.09.54.54,0,0,1-.089-.371l.25-3.734c.295-4.429.6-9.008.973-13.507.258-3.109.528-5.922.825-8.6.287-2.575.642-5.3,1.085-8.328,1.627-11.2,3.17-20.566,5.41-29.887,1.038-4.312,2.147-8.253,3.391-12.048a106.1,106.1,0,0,1,4.491-11.5.5.5,0,0,1,.457-.289.472.472,0,0,1,.205.045.5.5,0,0,1,.244.661q-.469,1.008-.91,2.027a34.742,34.742,0,0,1,4.364-2.267,40.988,40.988,0,0,1,5.24-1.811c1.747-.488,3.508-.871,5.149-1.212,1.691-.354,3.391-.674,5.052-.951a112.7,112.7,0,0,1,18.582-1.623" transform="translate(45.283 -137.462)" fill="#021621"/>
          <path id="Trazado_1048616" data-name="Trazado 1048616" d="M176.722,377.426a7.908,7.908,0,0,0,.64.543,10.526,10.526,0,0,0,2.187,1.181,16.379,16.379,0,0,0,3.752.957l-.073-.008.112.013.051.007-.039-.006c.667.081,1.333.152,2,.2.7.046,1.4.082,2.107.113a.792.792,0,1,1,0,1.584,20.854,20.854,0,0,1-6.013-1.143,14.08,14.08,0,0,1-5.208-2.943.349.349,0,0,1-.008-.487.342.342,0,0,1,.244-.1.366.366,0,0,1,.243.094m.675.57.018.014L177.4,378m5.954,2.118h-.011l-.038-.005.049.007" transform="translate(-19.683 -158.949)" fill="#04293e"/>
          <path id="Trazado_1048617" data-name="Trazado 1048617" d="M168.761,382.758A90.327,90.327,0,0,1,171.7,399.1c.29,2.724.518,5.457.772,8.184q.419,4.459.813,8.921.361,4.11.676,8.225.157,2.056.305,4.116.073,1.073.146,2.15c.026.356.049.715.072,1.074a10.271,10.271,0,0,1,.041,1.054.973.973,0,0,1-.713.932.954.954,0,0,1-.72-.089.922.922,0,0,1-.462-.59c-.117-.722-.125-1.466-.171-2.2q-.074-1.165-.149-2.33-.146-2.238-.308-4.475-.319-4.471-.676-8.937-.357-4.409-.738-8.814c-.233-2.74-.453-5.48-.733-8.217-.144-1.384-.3-2.77-.484-4.152.01.075.02.146.031.22a72.015,72.015,0,0,0-2.228-11,.821.821,0,0,1,.793-1.033.838.838,0,0,1,.794.608" transform="translate(-0.056 -160.606)" fill="#04293e"/>
          <path id="Trazado_1048618" data-name="Trazado 1048618" d="M115.636,198.123a20.668,20.668,0,0,0,3.865.51,25.9,25.9,0,0,0,6.81-.633q.1.4.2.808.134.766.276,1.53c.6,3.737,1.432,7.708,2.593,12.314l-.043-.123c1.161,4.554,2.481,9.145,3.76,13.586.633,2.209,1.269,4.418,1.886,6.633,5.005-4.769,10.344-9.054,14.9-12.62l.339-.264c1.056-.82,2.147-1.671,3.2-2.533q1.376-1.122,2.735-2.263l.541-.451c2.31-1.925,4.777-3.97,7.345-5.921a72.525,72.525,0,0,1,8.064-5.416,32.831,32.831,0,0,1,8.314-3.473,18.685,18.685,0,0,1,4.529-.581,15.01,15.01,0,0,1,1.676.089.5.5,0,0,1,.264-.079.506.506,0,0,1,.5.5,17.239,17.239,0,0,0,.154,2.007,22.762,22.762,0,0,0,1.558,5.577l-.041-.064a23.513,23.513,0,0,0,2.84,4.9,18.113,18.113,0,0,0,3.086,3.1,16.68,16.68,0,0,0,3.547,2.071.154.154,0,0,0-.023-.005h0l0,0a.319.319,0,0,1-.036-.011,17.457,17.457,0,0,0,4.132,1.115l.074.016v-.005a18.819,18.819,0,0,0,2.276.138,20.608,20.608,0,0,0,2.612-.172,23.841,23.841,0,0,0,5.833-1.627,27.679,27.679,0,0,0,5.893-3.458,26.77,26.77,0,0,0,4.723-4.693,23.145,23.145,0,0,0,2.1-3.26.476.476,0,0,1,.43-.243.482.482,0,0,1,.182.033h.02a.582.582,0,0,1,.3.072c.423.234.851.459,1.287.669,1.081.515,2.209.966,3.3,1.4.808.326,1.615.649,2.409,1a25.4,25.4,0,0,1,2.8,1.428,20.108,20.108,0,0,1,2.514,1.812,27.79,27.79,0,0,1,3.9,3.944,25.19,25.19,0,0,1,2.9,4.521,24.591,24.591,0,0,1,1.83,5.01,25.384,25.384,0,0,1,.7,5.413,30.094,30.094,0,0,1-.507,5.929,48.753,48.753,0,0,1-1.533,6.115c-.861,2.75-1.92,5.482-2.942,8.125-.382.987-.764,1.974-1.138,2.965-.838,2.235-1.44,3.973-1.95,5.639-.282.928-.541,1.871-.772,2.8-.213.848-.4,1.76-.625,2.95l0,0a46.685,46.685,0,0,0-.951,9.56c-.007.692,0,1.386.044,2.079.028.507.069,1.015.136,1.517q.05.407.123.81.038.331.085.661a.455.455,0,0,1-.117.123,59.37,59.37,0,0,1-10.062,5.554,63.482,63.482,0,0,1-10.772,3.509,72.675,72.675,0,0,1-16.4,1.8c-2.063,0-4.185-.077-6.308-.234-1.888-.141-3.824-.348-5.753-.617-2.153-.3-4.034-.646-5.754-1.056a39.466,39.466,0,0,1-10.815-4.231c-.851-.5-1.682-1.035-2.466-1.594a.4.4,0,0,1-.1-.1.541.541,0,0,1-.056-.043c.156-1.056.3-2.112.4-3.173l.046-.5c.016-.1.028-.21.044-.318v.131a40.588,40.588,0,0,0-.1-10.447l.018.056a60.138,60.138,0,0,0-1.182-5.979c-.531-2.13-1.187-4.227-1.761-5.995a55.437,55.437,0,0,1-1.643-6.162c-.986.738-2.037,1.474-3.2,2.25a82.185,82.185,0,0,1-8.83,5.121,67.236,67.236,0,0,1-9.733,3.983,44.086,44.086,0,0,1-9.875,1.983c-.782.059-1.563.087-2.322.087a25.383,25.383,0,0,1-6.964-.928,21.179,21.179,0,0,1-4.295-1.768,20.809,20.809,0,0,1-3.658-2.558,23.388,23.388,0,0,1-5.282-6.84,36.187,36.187,0,0,1-3.071-8.373,59.655,59.655,0,0,1-1.407-8.947,77.443,77.443,0,0,1-.218-10.416,82.373,82.373,0,0,1,5.464-25.012l.1-.254c.167-.443.339-.9.541-1.345a14.318,14.318,0,0,0,2.519.835" transform="translate(-34.704 -97.033)" fill="#fe514a"/>
          <path id="Trazado_1048619" data-name="Trazado 1048619" d="M230.894,231.941a.166.166,0,0,1,.058.226,42.471,42.471,0,0,0-3.652,6.794.449.449,0,0,0,.02-.054,39.215,39.215,0,0,0-1.64,4.775,38.322,38.322,0,0,0-.985,4.874,39.031,39.031,0,0,0-.022,10.189c0-.032-.009-.063-.014-.094a92.733,92.733,0,0,0,2.8,11.979c.536,1.95,1.046,3.906,1.481,5.882.425,1.932.784,3.875,1.035,5.838a36.779,36.779,0,0,1,.3,6.1,27.279,27.279,0,0,1-.274,2.96,18.137,18.137,0,0,1-.684,2.976.427.427,0,0,1-.823-.228c.259-1.107.472-2.227.625-3.355,0,.018-.006.036-.009.054a37.905,37.905,0,0,0-.14-9.819c.005.038.01.074.015.11a55.532,55.532,0,0,0-1.123-5.8c-.489-1.989-1.061-3.957-1.63-5.923a69.846,69.846,0,0,1-2.67-12.023,33.791,33.791,0,0,1,.756-11.254,42.017,42.017,0,0,1,3.977-10.2c.731-1.354,1.525-2.67,2.369-3.957a.179.179,0,0,1,.146-.081.157.157,0,0,1,.08.022M229.1,290.931c0-.025.006-.049.009-.074,0,.024-.006.049-.009.074" transform="translate(-93.408 -108.943)" fill="#b73b35"/>
          <path id="Trazado_1048620" data-name="Trazado 1048620" d="M276.842,198.343a.417.417,0,0,1,.152.262c.074.331.149.659.207.989s.11.666.159,1c.1.669.187,1.338.279,2.007s.2,1.338.328,2,.264,1.343.407,2.015c.572,2.685,1.251,5.346,1.959,8-.011-.039-.02-.074-.031-.11q.831,3.11,1.679,6.215c.572,2.081,1.166,4.154,1.768,6.225s1.22,4.137,1.84,6.2c.251.835.507,1.671.748,2.509s.454,1.676.653,2.519c.22.943.4,1.9.543,2.853a25.182,25.182,0,0,1,.285,2.981,12.035,12.035,0,0,1-.91,5.323.164.164,0,0,1-.305-.123,9.212,9.212,0,0,0,.492-1.392s0,0,0,0a11.55,11.55,0,0,0,.329-2.82,22.166,22.166,0,0,0-.838-5.48l.023.085c-.444-1.661-.974-3.294-1.448-4.944-.284-.98-.556-1.961-.838-2.94-.3-1.035-.608-2.071-.913-3.106-.612-2.069-1.228-4.134-1.822-6.207s-1.156-4.134-1.722-6.2c-.789-2.893-1.558-5.795-2.207-8.722-.323-1.456-.623-2.919-.838-4.4-.105-.71-.192-1.422-.284-2.135-.049-.377-.1-.751-.154-1.128s-.1-.751-.161-1.123a.385.385,0,0,1,.384-.441.408.408,0,0,1,.236.077m10.252,49.492c0,.01-.005.018-.007.03,0-.01,0-.019.007-.03" transform="translate(-184.918 -97.37)" fill="#b73b35"/>
          <path id="Trazado_1048621" data-name="Trazado 1048621" d="M45.186,209.984a.42.42,0,0,1,.122.018,110.128,110.128,0,0,1,15.017,6.116,124.5,124.5,0,0,1,13.912,8.094,156.7,156.7,0,0,1,12.972,9.722,131.378,131.378,0,0,1,10.441,9.524,67.524,67.524,0,0,1,8.892,11.027,39.153,39.153,0,0,1,3.092,5.959,26.535,26.535,0,0,1,1.707,6.133,20.1,20.1,0,0,1-.039,6.2,19.641,19.641,0,0,1-2.145,6.169,26.283,26.283,0,0,1-4.579,6c-1.53,1.533-3.169,3.04-5.011,4.608a92.791,92.791,0,0,1-12.275,8.858,71.241,71.241,0,0,1-6.766,3.593,50.97,50.97,0,0,1-6.813,2.6,34.59,34.59,0,0,1-5.6,1.179h-.007a.507.507,0,0,1-.354-.14.525.525,0,0,1-.06-.07.485.485,0,0,1-.372-.244c-1.152-2-2.4-3.988-3.607-5.909-.984-1.566-2-3.186-2.962-4.8a.479.479,0,0,1-.016-.452.5.5,0,0,1,.078-.417c2.981-3.362,5.808-6.947,8.543-10.413,2.21-2.8,4.495-5.7,6.848-8.462,1.686-1.977,3.233-3.667,4.731-5.168a160.127,160.127,0,0,0-13.167-10.752l.115.066c-3.6-2.648-7.206-5.151-9.944-7.035q-.876-.6-1.756-1.2c-2.216-1.507-4.507-3.065-6.642-4.76a38.789,38.789,0,0,1-6.869-6.808,21.11,21.11,0,0,1-2.431-4,17.125,17.125,0,0,1-.825-2.166,14.234,14.234,0,0,1-.467-6.036,21.654,21.654,0,0,1,.749-3.55,20.727,20.727,0,0,1,3.443-6.92,10.478,10.478,0,0,1,3.965-3.246,7.784,7.784,0,0,1,2.514-.642c.1-.007.188-.012.283-.015-1.538-.568-3.162-1.134-4.828-1.671a.53.53,0,0,1-.312-.231.5.5,0,0,1-.057-.371.522.522,0,0,1,.481-.387M79.4,229.06l-.016-.017-.054-.025.365.247-.254-.175v0l-.021-.014-.012-.007-.007-.007-.01-.007Z" transform="translate(147.104 -101.399)" fill="#fe514a"/>
          <path id="Trazado_1048622" data-name="Trazado 1048622" d="M100.291,288.828a.163.163,0,0,1-.1.205,24.411,24.411,0,0,0-2.427,1.01l.007,0a32.567,32.567,0,0,0-6.993,4.76l.041-.037a84.583,84.583,0,0,0-7.984,8.2c-2.758,3.16-5.4,6.425-7.981,9.729-1.269,1.62-2.519,3.252-3.767,4.888q-.954,1.249-1.9,2.506c-.3.4-.608.792-.9,1.2a8.116,8.116,0,0,1-.989,1.258.618.618,0,0,1-.269.18.621.621,0,0,1-.787-.395.6.6,0,0,1,.031-.467,9.814,9.814,0,0,1,.925-1.2c.348-.413.679-.838,1.012-1.264.646-.823,1.3-1.646,1.945-2.468q1.945-2.472,3.9-4.939c2.609-3.283,5.262-6.535,8.009-9.706q1.03-1.188,2.079-2.363c.625-.7,1.258-1.394,1.92-2.063a41.434,41.434,0,0,1,4.118-3.662,35.726,35.726,0,0,1,9.5-5.32c.138-.051.277-.1.413-.149a.14.14,0,0,1,.051-.008.167.167,0,0,1,.156.113m-9.562,6.013.047-.04-.047.04m7.04-4.8.036-.018-.036.018" transform="translate(140.402 -128.474)" fill="#b73b35"/>
          <path id="Trazado_1048623" data-name="Trazado 1048623" d="M85.067,269.018c3.319,2.174,6.682,4.278,10.008,6.433,1.661,1.076,3.311,2.165,4.936,3.288s3.235,2.292,4.813,3.488q2.23,1.692,4.355,3.511,1.087.935,2.138,1.907c.351.328.7.656,1.038.991.172.167.341.336.51.508.085.087.169.171.257.256a1.869,1.869,0,0,1,.238.3.5.5,0,0,1-.676.7,1.7,1.7,0,0,1-.213-.148c-.062-.054-.121-.108-.177-.167-.141-.138-.292-.272-.441-.407-.264-.244-.526-.49-.789-.734q-.835-.773-1.678-1.53-1.642-1.468-3.332-2.878c-2.281-1.894-4.628-3.706-7.009-5.472l.087.064c-4.631-3.426-9.409-6.645-14.227-9.8a.175.175,0,0,1-.067-.233.18.18,0,0,1,.153-.089.144.144,0,0,1,.078.022" transform="translate(115.062 -121.693)" fill="#b73b35"/>
          <path id="Trazado_1048624" data-name="Trazado 1048624" d="M119.087,336.745a11.93,11.93,0,0,1,1.759.128,11.155,11.155,0,0,1,2.372.642,10.893,10.893,0,0,1,4.039,2.8,9.982,9.982,0,0,1,1.375,1.87,9.166,9.166,0,0,1,1.216,4.219,7.256,7.256,0,0,1-.249,2.129,6.86,6.86,0,0,1-.354.99,6.392,6.392,0,0,1-.575,1,6.906,6.906,0,0,1-1.68,1.678,19,19,0,0,1-2.533,1.538c-.354.187-.715.364-1.074.541-.232.114-.463.228-.692.344l.106-.07c-.524.285-1.045.584-1.562.882l-.149.085c-.667.384-1.335.766-2.014,1.125a19.926,19.926,0,0,1-2.092.977,6.861,6.861,0,0,1-1.922.477c-.094.008-.191.012-.288.012a2.541,2.541,0,0,1-1.045-.2,1.35,1.35,0,0,1-.706-.75,1.793,1.793,0,0,1-.028-1,4.426,4.426,0,0,1,.426-1.112,13.439,13.439,0,0,1,1.254-1.92c.426-.566.917-1.16,1.545-1.869l.485-.538c-.657.4-1.443.856-2.24,1.287a27.74,27.74,0,0,1-4.9,2.2,4.661,4.661,0,0,1-1.369.261,2.264,2.264,0,0,1-.421-.038,1.245,1.245,0,0,1-.951-.8,2.076,2.076,0,0,1,.033-1.245,6.99,6.99,0,0,1,.575-1.409,16.418,16.418,0,0,1,2.01-2.943,21.743,21.743,0,0,1,2.144-2.238l-.562.306c-.533.278-1.066.555-1.609.816a11.047,11.047,0,0,1-2.313.869,5.529,5.529,0,0,1-1.1.156l-.163,0a3.127,3.127,0,0,1-.745-.08,1.74,1.74,0,0,1-.643-.3,1.154,1.154,0,0,1-.382-.529,1.823,1.823,0,0,1,.108-1.263,5.881,5.881,0,0,1,.76-1.3,15.836,15.836,0,0,1,1.987-2.226c.381-.365.817-.741,1.374-1.187a23.534,23.534,0,0,1,2.269-1.612,18.545,18.545,0,0,1,5.095-2.254,13.464,13.464,0,0,1,3.431-.456" transform="translate(86.058 -144.991)" fill="#f6cfbe"/>
          <path id="Trazado_1048625" data-name="Trazado 1048625" d="M121,351.944a.236.236,0,0,1,0,.182.254.254,0,0,1-.131.133c-.646.326-1.284.667-1.907,1.036.018-.01.033-.021.049-.031a18.86,18.86,0,0,0-3.286,2.463.167.167,0,0,1-.231-.026.169.169,0,0,1,.028-.231,22.164,22.164,0,0,1,2.471-2.03,22.657,22.657,0,0,1,2.686-1.627.193.193,0,0,1,.089-.02.258.258,0,0,1,.229.151" transform="translate(87.367 -150.166)" fill="#da8c67"/>
          <path id="Trazado_1048626" data-name="Trazado 1048626" d="M128.665,344.723a.284.284,0,0,1-.151.369c-.461.179-.918.371-1.366.587-.43.205-.85.434-1.262.676l.019-.012-.029.018-.022.013.018-.01a28.033,28.033,0,0,0-2.94,2.089.169.169,0,0,1-.231-.028.165.165,0,0,1,.028-.231c.859-.69,1.715-1.381,2.622-2.007a14.037,14.037,0,0,1,2.942-1.614.3.3,0,0,1,.108-.02.281.281,0,0,1,.264.171m-2.793,1.64,0,0,.01-.006-.014.009" transform="translate(74.969 -147.676)" fill="#da8c67"/>
          <path id="Trazado_1048627" data-name="Trazado 1048627" d="M141.138,200.179c.044.495.123.987.205,1.479.087.543.19,1.085.3,1.623.218,1.048.486,2.086.8,3.108l-.01-.03.026.081.015.048c0-.008,0-.015-.007-.022a23.414,23.414,0,0,0,2.492,5.389l-.02-.029.04.061.031.049-.026-.041a17.74,17.74,0,0,0,2.8,3.3l-.01-.009a15.094,15.094,0,0,0,3.138,2.168l-.02-.009a15.6,15.6,0,0,0,3.561,1.262c-.041-.007-.082-.018-.123-.026a18.132,18.132,0,0,0,4.5.392,22.184,22.184,0,0,0,5.584-1.006A27.379,27.379,0,0,0,170.71,215L170.7,215a26.05,26.05,0,0,0,5.135-4.376l-.037.043.062-.07.023-.026-.018.019a28.935,28.935,0,0,0,3.434-4.816.493.493,0,0,1,.892.195.517.517,0,0,1-.079.361,28.052,28.052,0,0,1-6.21,7.53,27.147,27.147,0,0,1-8.586,4.831,21.092,21.092,0,0,1-10,1.066,15.947,15.947,0,0,1-4.759-1.494,15.331,15.331,0,0,1-2.2-1.34,16.365,16.365,0,0,1-1.986-1.735,20.078,20.078,0,0,1-4.275-6.853,29.983,29.983,0,0,1-1.22-3.977c-.159-.672-.3-1.348-.418-2.025-.118-.659-.233-1.323-.292-1.989a.527.527,0,0,1,.079-.361.5.5,0,0,1,.323-.208.455.455,0,0,1,.073-.006.489.489,0,0,1,.5.408m29.676,14.753c-.021.012-.042.026-.062.039l.062-.039M150.8,217.294l.071.036-.071-.036m13.614.67-.012,0,.012,0m-5.616,1.007-.033,0,.033,0m-13.808-7.077-.006-.009-.02-.032.026.041M175.86,210.6l-.024.027.03-.033-.005.007m-33.389-4.135c0-.009-.005-.017-.009-.026s-.01-.033-.016-.051c.009.026.016.051.024.076" transform="translate(11.977 -97.887)" fill="#b73b35"/>
          <path id="Trazado_1048628" data-name="Trazado 1048628" d="M184.713,121.093h0a.446.446,0,0,1,.06.016.21.21,0,0,1,.146.255,18.347,18.347,0,0,1-2.25,6.782,13.531,13.531,0,0,1-2.277,2.792c-.272.257-.556.5-.844.741-.179.154-.358.308-.535.464a9.588,9.588,0,0,0-1.2,1.252.369.369,0,0,1-.033.031s-.03.026-.033.026a6.348,6.348,0,0,0-.546.942,3.136,3.136,0,0,0-.179.621,2.452,2.452,0,0,0,0,.505,2.582,2.582,0,0,0,.136.486,3.957,3.957,0,0,0,.322.55,5.158,5.158,0,0,0,.747.757,4.049,4.049,0,0,0,.734.415c.24.1.481.178.727.251a.7.7,0,0,1,.165,1.285.745.745,0,0,1-.367.1.461.461,0,0,1-.174-.031,6.749,6.749,0,0,1-1.347-.673,5.325,5.325,0,0,1-1.234-1.219,3.712,3.712,0,0,1-.644-1.322,2.963,2.963,0,0,1-.028-1.292,3.216,3.216,0,0,1,.428-1.065,5.415,5.415,0,0,1,.806-1.024,17.346,17.346,0,0,1,1.87-1.586l.21-.162a13.246,13.246,0,0,0,2.213-2.2,13.644,13.644,0,0,0,1.68-2.887,19.828,19.828,0,0,0,1.237-4.65.216.216,0,0,1,.214-.162" transform="translate(-16.257 -70.831)" fill="#da8c67"/>
          <path id="Trazado_1048629" data-name="Trazado 1048629" d="M174.733,288.28h.026a.723.723,0,0,1,.7.768.689.689,0,0,1-.222.489c-.64.564-1.243,1.056-1.841,1.505-.655.487-1.353.968-2.074,1.425a34.849,34.849,0,0,1-4.334,2.338,37.077,37.077,0,0,1-4.765,1.776c-.739.219-1.537.425-2.438.628-.737.167-1.548.316-2.481.455a36.307,36.307,0,0,1-5.314.4c-.911,0-1.812-.035-2.676-.1a32.392,32.392,0,0,1-3.87-.547,31.184,31.184,0,0,1-3.825-1.071.258.258,0,0,1-.168-.318.261.261,0,0,1,.245-.182.178.178,0,0,1,.074.014,24.351,24.351,0,0,0,3.879.97l.063.032v-.006a32.558,32.558,0,0,0,3.826.361c.328.013.656.018.984.018.993,0,2.034-.051,3.093-.149a39.51,39.51,0,0,0,9.927-2.347l-.066.05a38.512,38.512,0,0,0,8.556-4.573l-.045.069.053-.055c.87-.652,1.578-1.214,2.2-1.743a.754.754,0,0,1,.5-.2" transform="translate(15.882 -128.325)" fill="#b73b35"/>
          <path id="Trazado_1048630" data-name="Trazado 1048630" d="M183.254,156.41s.012.008.012.012a8.546,8.546,0,0,1,.092,1.945,9.125,9.125,0,0,1-.367,1.952,6.607,6.607,0,0,1-2.02,3.217,4.92,4.92,0,0,1-1.7.909,4.6,4.6,0,0,1-1.3.18,5.928,5.928,0,0,1-.821-.062,4.832,4.832,0,0,1-2.015-.8,6.26,6.26,0,0,1-1.521-1.55,12.333,12.333,0,0,1-1.708-4.051.46.46,0,0,1-.008-.249c.632.056,1.255.087,1.857.087.129,0,.255,0,.383-.005a25.753,25.753,0,0,0,3.376-.315,58.213,58.213,0,0,0,5.733-1.266l0,0" transform="translate(-12.016 -82.976)" fill="#021621"/>
          <path id="Trazado_1048631" data-name="Trazado 1048631" d="M179.544,161.617a4.542,4.542,0,0,1,.566.09,3.749,3.749,0,0,1,.387.114c-.026.1-.053.19-.082.283a6.6,6.6,0,0,1-2.02,3.216,4.889,4.889,0,0,1-1.7.907,4.541,4.541,0,0,1-1.294.182,6.393,6.393,0,0,1-.823-.062,4.872,4.872,0,0,1-2.015-.8c-.071-.049-.141-.1-.211-.154a8.119,8.119,0,0,1,.58-.686l-.031.031a11.576,11.576,0,0,1,2.294-1.853c-.005,0-.015.01-.023.015a9.781,9.781,0,0,1,2.332-1.053c-.013,0-.028.007-.041.01a6.613,6.613,0,0,1,.774-.176,6.108,6.108,0,0,1,.753-.079l-.028,0,.194,0a3.636,3.636,0,0,1,.388.018m-4.372,1.281-.013.008.013-.008" transform="translate(-9.441 -84.76)" fill="#f68677"/>
          <path id="Trazado_1048632" data-name="Trazado 1048632" d="M158.767,137.574a.881.881,0,0,1,.245.033c.98.26,1.361,2.052.848,3.994-.465,1.757-1.525,3.082-2.464,3.082a.88.88,0,0,1-.245-.033,1.155,1.155,0,0,1-.7-.585,4.805,4.805,0,0,1-.147-3.406c.465-1.759,1.524-3.086,2.464-3.086" transform="translate(21.65 -76.498)" fill="#021621"/>
          <path id="Trazado_1048633" data-name="Trazado 1048633" d="M187.965,105.128c2.4,0,4.128.639,4.21,1.554.047.526-.458,1.068-1.421,1.526a11.118,11.118,0,0,1-3.657.9c-.408.036-.819.054-1.22.054-2.392,0-4.12-.639-4.2-1.554-.1-1.077,2.183-2.165,5.078-2.424.406-.035.814-.054,1.213-.054" transform="translate(-27.236 -65.34)" fill="#021621"/>
          <path id="Trazado_1048634" data-name="Trazado 1048634" d="M194.968,126.614a.932.932,0,0,1,.238.031c.459.121.8.589.951,1.317a5.627,5.627,0,0,1-.136,2.533c-.446,1.693-1.467,2.97-2.374,2.97a.932.932,0,0,1-.238-.031c-.459-.121-.8-.589-.95-1.317a5.637,5.637,0,0,1,.136-2.53c.444-1.695,1.465-2.973,2.374-2.973" transform="translate(-38.322 -72.729)" fill="#021621"/>
        </g>
      </g>
    </g>
  </g>
</svg>
