<svg xmlns="http://www.w3.org/2000/svg" xmlns:xlink="http://www.w3.org/1999/xlink" width="93.656" height="93.656" viewBox="0 0 93.656 93.656">
  <defs>
    <filter id="Trazado_982547" x="0" y="0" width="93.656" height="93.656" filterUnits="userSpaceOnUse">
      <feOffset dy="3" input="SourceAlpha"/>
      <feGaussianBlur stdDeviation="3" result="blur"/>
      <feFlood flood-opacity="0.161"/>
      <feComposite operator="in" in2="blur"/>
      <feComposite in="SourceGraphic"/>
    </filter>
  </defs>
  <g id="Grupo_1202305" data-name="Grupo 1202305" transform="translate(-826.576 -671.563)">
    <g id="Grupo_1201529" data-name="Grupo 1201529" transform="translate(11.114 179.392)">
      <g id="Grupo_1183675" data-name="Grupo 1183675" transform="translate(-11 -235.188)">
        <g id="Grupo_1182351" data-name="Grupo 1182351" transform="translate(0 -1607.235)">
          <g id="Grupo_1181638" data-name="Grupo 1181638" transform="translate(-0.539 1253.596)">
            <g id="Grupo_1180313" data-name="Grupo 1180313" transform="translate(-3.461 -6709)">
              <g id="Grupo_1180312" data-name="Grupo 1180312">
                <g id="Grupo_1174895" data-name="Grupo 1174895" transform="translate(641.291 2507.168)">
                  <g id="Grupo_1172067" data-name="Grupo 1172067" transform="translate(198.17 5288.832)">
                    <g id="Grupo_1164308" data-name="Grupo 1164308" transform="translate(0 0)">
                      <g id="Grupo_1163948" data-name="Grupo 1163948" transform="translate(0)">
                        <g id="Grupo_1158168" data-name="Grupo 1158168" transform="translate(0)">
                          <g id="Grupo_1152576" data-name="Grupo 1152576">
                            <g id="Grupo_1148633" data-name="Grupo 1148633">
                              <g id="Grupo_1148525" data-name="Grupo 1148525">
                                <g transform="matrix(1, 0, 0, 1, -9, -6)" filter="url(#Trazado_982547)">
                                  <g id="Trazado_982547-2" data-name="Trazado 982547" transform="translate(9 6)" fill="#f2f7f5">
                                    <path d="M 37.8281364440918 74.15627288818359 C 32.92320251464844 74.15627288818359 28.16579246520996 73.19596862792969 23.68804740905762 71.30204772949219 C 19.36230278015137 69.47240447998047 15.47705841064453 66.85280609130859 12.1402702331543 63.51601409912109 C 8.803469657897949 60.17921447753906 6.1838698387146 56.29397964477539 4.354236602783203 51.96822357177734 C 2.460303068161011 47.49048233032227 1.500003099441528 42.73307037353516 1.500003099441528 37.8281364440918 C 1.500003099441528 32.92321395874023 2.460303068161011 28.16579246520996 4.354236602783203 23.68804740905762 C 6.1838698387146 19.36230278015137 8.803469657897949 15.47706985473633 12.1402702331543 12.1402702331543 C 15.47706985473633 8.803469657897949 19.36230278015137 6.1838698387146 23.68804740905762 4.354236602783203 C 28.16579246520996 2.460303068161011 32.92321395874023 1.500003099441528 37.8281364440918 1.500003099441528 C 42.73307037353516 1.500003099441528 47.49048233032227 2.460303068161011 51.96822357177734 4.354236602783203 C 56.29397964477539 6.1838698387146 60.17921447753906 8.803469657897949 63.51601409912109 12.1402702331543 C 66.85280609130859 15.47705841064453 69.47240447998047 19.36230278015137 71.30204772949219 23.68804740905762 C 73.19596862792969 28.16579246520996 74.15627288818359 32.92320251464844 74.15627288818359 37.8281364440918 C 74.15627288818359 42.73307037353516 73.19596862792969 47.49048233032227 71.30204772949219 51.96822357177734 C 69.47240447998047 56.29397964477539 66.85280609130859 60.17921447753906 63.51601409912109 63.51601409912109 C 60.17921447753906 66.85280609130859 56.29397964477539 69.47240447998047 51.96822357177734 71.30204772949219 C 47.49048233032227 73.19596862792969 42.73307037353516 74.15627288818359 37.8281364440918 74.15627288818359 Z" stroke="none"/>
                                    <path d="M 37.8281364440918 3 C 33.12504959106445 3 28.56423568725586 3.920433044433594 24.27237319946289 5.735733032226562 C 20.12542343139648 7.48974609375 16.40044784545898 10.00139617919922 13.20092391967773 13.20092391967773 C 10.00139617919922 16.40044784545898 7.48974609375 20.12542343139648 5.735733032226562 24.27237319946289 C 3.920433044433594 28.56423568725586 3 33.12504959106445 3 37.8281364440918 C 3 42.53122329711914 3.920433044433594 47.09203720092773 5.735733032226562 51.3838996887207 C 7.48974609375 55.53084945678711 10.00139617919922 59.25582122802734 13.20092391967773 62.45534896850586 C 16.40044784545898 65.65487670898438 20.12542343139648 68.16652679443359 24.27237319946289 69.92053985595703 C 28.56423568725586 71.73583984375 33.12504959106445 72.65627288818359 37.8281364440918 72.65627288818359 C 42.53122329711914 72.65627288818359 47.09203720092773 71.73583984375 51.3838996887207 69.92053985595703 C 55.53084945678711 68.16652679443359 59.25582122802734 65.65487670898438 62.45534896850586 62.45534896850586 C 65.65487670898438 59.25582122802734 68.16652679443359 55.53084945678711 69.92053985595703 51.3838996887207 C 71.73583984375 47.09203720092773 72.65627288818359 42.53122329711914 72.65627288818359 37.8281364440918 C 72.65627288818359 33.12504959106445 71.73583984375 28.56423568725586 69.92053985595703 24.27237319946289 C 68.16652679443359 20.12542343139648 65.65487670898438 16.40044784545898 62.45534896850586 13.20092391967773 C 59.25582122802734 10.00139617919922 55.53084945678711 7.48974609375 51.3838996887207 5.735733032226562 C 47.09203720092773 3.920433044433594 42.53122329711914 3 37.8281364440918 3 M 37.8281364440918 0 C 58.72003555297852 0 75.65627288818359 16.93623733520508 75.65627288818359 37.8281364440918 C 75.65627288818359 58.72003555297852 58.72003555297852 75.65627288818359 37.8281364440918 75.65627288818359 C 16.93623733520508 75.65627288818359 0 58.72003555297852 0 37.8281364440918 C 0 16.93623733520508 16.93623733520508 0 37.8281364440918 0 Z" stroke="none" fill="#4a665c"/>
                                  </g>
                                </g>
                              </g>
                            </g>
                          </g>
                        </g>
                      </g>
                    </g>
                  </g>
                </g>
              </g>
            </g>
          </g>
        </g>
      </g>
    </g>
    <g id="ventaja-competitiva" transform="translate(842.735 648.269)">
      <g id="Grupo_1202304" data-name="Grupo 1202304" transform="translate(4.635 42.157)">
        <g id="Grupo_1202303" data-name="Grupo 1202303" transform="translate(0.162 0)">
          <path id="Trazado_1049790" data-name="Trazado 1049790" d="M11.531,180.076h4.712v16.673h7.931V180.076h4.712L20.208,171.4Z" transform="translate(-11.531 -158.29)" fill="#0e82f5" fill-rule="evenodd"/>
          <path id="Trazado_1049791" data-name="Trazado 1049791" d="M50.741,197.607h4.712V214.28h3.781V197.607h4.712l-6.6-6.6Z" transform="translate(-46.592 -175.821)" fill="#009ef9" fill-rule="evenodd"/>
          <path id="Trazado_1049792" data-name="Trazado 1049792" d="M174,56.2h4.712V85.983h7.931V56.2h4.712l-8.677-8.677Z" transform="translate(-156.807 -47.524)" fill="#41d980" fill-rule="evenodd"/>
          <path id="Trazado_1049793" data-name="Trazado 1049793" d="M213.21,73.732h4.712v29.782H221.7V73.732h4.712l-6.6-6.6Z" transform="translate(-191.868 -65.054)" fill="#4fe88e" fill-rule="evenodd"/>
        </g>
        <circle id="Elipse_14320" data-name="Elipse 14320" cx="6.304" cy="6.304" r="6.304" transform="translate(19.728 15.497)" fill="#fdc72e"/>
        <path id="Trazado_1049794" data-name="Trazado 1049794" d="M223.651,195a6.3,6.3,0,0,1,0,12.39,6.3,6.3,0,0,1,0-12.39Z" transform="translate(-196.45 -179.391)" fill="#fddb1e" fill-rule="evenodd"/>
        <path id="Trazado_1049795" data-name="Trazado 1049795" d="M236.991,221.064a.635.635,0,1,1-1.27,0v-.35a2.4,2.4,0,0,1-.974-.5,1.993,1.993,0,0,1-.716-1.512.635.635,0,1,1,1.27,0,.74.74,0,0,0,.274.555,1.257,1.257,0,0,0,1.562,0,.74.74,0,0,0,.274-.555c0-.581-.575-.708-1.137-.832-1.024-.226-2.024-.447-2.024-1.9a1.815,1.815,0,0,1,.652-1.378,2.169,2.169,0,0,1,.819-.44v-.359a.635.635,0,1,1,1.27,0v.359a2.168,2.168,0,0,1,.819.44,1.816,1.816,0,0,1,.652,1.378.635.635,0,1,1-1.27,0,.563.563,0,0,0-.21-.421,1.013,1.013,0,0,0-1.251,0,.562.562,0,0,0-.21.421c0,.439.507.551,1.027.666,1.054.233,2.134.471,2.134,2.067a1.993,1.993,0,0,1-.716,1.512,2.4,2.4,0,0,1-.974.5v.35Z" transform="translate(-210.323 -195.624)" fill="#f89b00" fill-rule="evenodd"/>
        <path id="Trazado_1049796" data-name="Trazado 1049796" d="M338,180.076h4.712v16.673h7.931V180.076h4.712l-8.677-8.677Z" transform="translate(-303.29 -158.29)" fill="#d93b43" fill-rule="evenodd"/>
        <path id="Trazado_1049797" data-name="Trazado 1049797" d="M377.21,197.607h4.712V214.28H385.7V197.607h4.712l-6.6-6.6Z" transform="translate(-338.351 -175.821)" fill="#fb545c" fill-rule="evenodd"/>
        <path id="Trazado_1049798" data-name="Trazado 1049798" d="M10,436.948H62.065v2.913H10Z" transform="translate(-10 -395.738)" fill="#6875b0"/>
        <path id="Trazado_1049799" data-name="Trazado 1049799" d="M71.759,436.948h45.529v2.913H71.759Z" transform="translate(-65.223 -395.738)" fill="#7986bf"/>
      </g>
      <path id="Trazado_1049800" data-name="Trazado 1049800" d="M56.065,85.645H5.27V84H56.065Zm.634-2.913H4.635A.635.635,0,0,0,4,83.367V86.28a.635.635,0,0,0,.635.635H56.7a.632.632,0,0,0,.634-.635V83.367A.632.632,0,0,0,56.7,82.732ZM48.023,56.164l7.147,7.145H51.985a.635.635,0,0,0-.634.635V79.981H44.692V63.944a.635.635,0,0,0-.635-.635H40.878Zm-9.264,8.023a.634.634,0,0,0,.586.392h4.077V80.616a.635.635,0,0,0,.635.635h7.928a.636.636,0,0,0,.639-.635V64.578H56.7a.636.636,0,0,0,.587-.392.627.627,0,0,0-.14-.692l-8.675-8.678a.634.634,0,0,0-.9,0L38.9,63.495a.635.635,0,0,0-.138.692ZM32.992,65.23a2.144,2.144,0,0,1-1.69,2.016V67.6a.635.635,0,1,1-1.27,0v-.351a2.145,2.145,0,0,1-1.69-2.016.635.635,0,0,1,1.27,0,1.087,1.087,0,0,0,2.11,0c0-.492-.17-.616-1.138-.83-.757-.167-2.023-.446-2.023-1.9a1.942,1.942,0,0,1,1.471-1.818v-.359a.635.635,0,1,1,1.27,0v.359A1.942,1.942,0,0,1,32.773,62.5a.635.635,0,1,1-1.27,0c0-.345-.383-.637-.836-.637s-.836.292-.836.637.1.458,1.028.664c.8.176,2.133.471,2.133,2.07ZM30.667,43.055,37.813,50.2h-3.18a.635.635,0,0,0-.635.635v7.034a6.952,6.952,0,0,0-6.66,0V50.835A.635.635,0,0,0,26.7,50.2H23.524l7.144-7.145Zm4.008,24.912a5.668,5.668,0,1,0-4.008,1.661A5.674,5.674,0,0,0,34.676,67.966ZM34,79.981h-6.66V70.048a6.952,6.952,0,0,0,6.66,0ZM21.99,51.47a.635.635,0,0,1-.448-1.084l8.678-8.678a.634.634,0,0,1,.9,0l8.678,8.678a.635.635,0,0,1-.448,1.084H35.268v7.3c.1.093.208.187.307.287a6.948,6.948,0,0,1,0,9.813c-.1.1-.2.194-.307.286V80.616a.634.634,0,0,1-.635.635H26.7a.635.635,0,0,1-.635-.635V69.151c-.1-.092-.206-.187-.306-.286a6.946,6.946,0,0,1,0-9.813c.1-.1.2-.194.306-.287v-7.3Zm-8.515,4.694,7.145,7.145H17.44a.635.635,0,0,0-.635.635V79.981h-6.66V63.944a.635.635,0,0,0-.635-.635H6.33ZM4.8,64.578H8.874V80.616a.635.635,0,0,0,.635.635h7.93a.634.634,0,0,0,.635-.635V64.578h4.077a.635.635,0,0,0,.449-1.084l-8.676-8.678a.635.635,0,0,0-.9,0L4.348,63.495A.635.635,0,0,0,4.8,64.578Z" fill="#242222" fill-rule="evenodd"/>
    </g>
  </g>
</svg>
