<svg xmlns="http://www.w3.org/2000/svg" xmlns:xlink="http://www.w3.org/1999/xlink" width="395" height="309" viewBox="0 0 395 309">
  <defs>
    <clipPath id="clip-path">
      <rect id="Rectángulo_416887" data-name="Rectángulo 416887" width="395" height="309" transform="translate(184.999 1102)" fill="#fff" stroke="#707070" stroke-width="1"/>
    </clipPath>
  </defs>
  <g id="Enmascarar_grupo_1183043" data-name="Enmascarar grupo 1183043" transform="translate(-184.999 -1102)" clip-path="url(#clip-path)">
    <g id="OBJECTS" transform="translate(153.832 1076.874)">
      <path id="Trazado_1049015" data-name="Trazado 1049015" d="M216.952,46.673c-4.433,0-9.113.146-13.909.434a225.026,225.026,0,0,0-30.335,3.962,214.6,214.6,0,0,0-31.2,8.759A204.624,204.624,0,0,0,114.13,72.145c-.3.161-.559.3-.815.444-3.039,1.673-6.016,3.407-8.878,5.17l-.471.293c-2.051,1.281-4.081,2.6-6.049,3.926-2.286,1.537-4.662,3.226-7.265,5.162-4.6,3.421-9.089,7.125-13.356,11.006-1.889,1.719-3.812,3.544-5.713,5.423-2.054,2.031-4.12,4.2-6.317,6.617A163.889,163.889,0,0,0,54.08,123.98a157.859,157.859,0,0,0-9.216,14.309c-1.188,2.077-2.39,4.325-3.675,6.874-1.446,2.867-2.845,5.921-4.277,9.338-1.036,2.466-2.067,5.181-3.155,8.3-.986,2.831-1.915,5.858-2.842,9.252-.761,2.792-1.452,5.75-2.114,9.045-.657,3.267-1.2,6.7-1.662,10.487a137.828,137.828,0,0,0,4.053,53.228,140.7,140.7,0,0,0,4.74,14.125l.052.133.076.194c.836,2.09,1.722,4.173,2.646,6.225.794,1.763,1.694,3.641,2.752,5.741,1.773,3.519,3.747,7.044,6.032,10.777.084.138.155.252.224.367l.063.1.065.1q1.721,2.755,3.611,5.553c1.264,1.864,2.625,3.768,4.157,5.821l.316.421c1.55,2.044,3.153,4.067,4.781,6.032a.5.5,0,0,0,.12.961h.685l.694.82a.384.384,0,0,0,.6,0,.526.526,0,0,0,.122-.348.537.537,0,0,0-.122-.353l-.114-.133,108.757.011H371.537l-.048.05,0,0-.469.545-.457.532a.541.541,0,0,0-.123.352.549.549,0,0,0,.123.351.383.383,0,0,0,.6,0l.379-.437.379-.438.062-.077.04-.054,0,0c.142-.163.28-.328.42-.495l.052-.058.063-.075.086-.1.04-.046,1.481-.045a.5.5,0,0,0,0-.993h-.624l.076-.076.092-.115.622-.754.036-.053,0,0,.082-.1.314-.39.29-.357.07-.085c1.725-2.15,3.411-4.358,5.011-6.565l.2-.276.172-.239.081-.11.034-.053.136-.19.132-.183.49-.689a.678.678,0,0,0,.04-.062c1.856-2.649,3.631-5.346,5.275-8.011l.2-.315.331-.542.152-.252c.187-.309.348-.576.506-.844.292-.5.563-.959.833-1.423l.078-.131.07-.121.129-.222.125-.217c.792-1.394,1.48-2.636,2.125-3.838.889-1.655,1.812-3.472,2.824-5.559,1.632-3.367,3.163-6.907,4.679-10.821l.073-.183.109-.289a.564.564,0,0,0,.022-.068c.612-1.62,1.209-3.279,1.775-4.927.661-1.929,1.309-4,2.039-6.53a137.829,137.829,0,0,0,5.063-29.76,136.615,136.615,0,0,0,.1-14.376c-.183-4.3-.6-8.72-1.284-13.517a138.482,138.482,0,0,0-3.2-15.644,140.091,140.091,0,0,0-4.373-13.606,143.29,143.29,0,0,0-6.179-14.05q-1.082-2.132-2.252-4.291c-.831-1.527-1.75-3.134-2.892-5.058-2-3.373-4.237-6.791-6.825-10.451-2.137-3.021-4.488-6.084-7.191-9.361-2.531-3.07-5.272-6.139-8.382-9.379A178.156,178.156,0,0,0,348.885,91.26a186.477,186.477,0,0,0-19.086-13.5l-.128-.079c-4.139-2.546-8.374-4.948-12.611-7.154-4.054-2.114-8.416-4.189-12.962-6.167A209.625,209.625,0,0,0,276.008,54.5l-.068-.019-.058-.017-.3-.082-.294-.079c-3.807-1.022-7.687-1.956-11.564-2.783-3.44-.736-7.071-1.408-11.1-2.056-6.372-1.023-13.056-1.782-19.866-2.255-.087-.007-.153-.012-.215-.015-4.949-.33-9.972-.5-14.932-.521h-.655M35.058,161.682l0-.024.027-.046q-.094.256-.186.512l.14-.4c0-.01.007-.02.011-.03h0v0l.008-.024Z" transform="translate(13.511 44.329)" fill="#f0cdc3"/>
      <g id="Grupo_1202101" data-name="Grupo 1202101" transform="translate(31.078 268.671)">
        <path id="Trazado_1049016" data-name="Trazado 1049016" d="M84.707,439.338q-.629,0-1.258.044a23.57,23.57,0,0,0-3.576.5,13.875,13.875,0,0,0-3.44,1.2,5.442,5.442,0,0,0-2.311,2.077,3.574,3.574,0,0,0-.429,1.429,4.2,4.2,0,0,0,.22,1.666,4.12,4.12,0,0,0,.389.883,3.341,3.341,0,0,0,.632.76,3.931,3.931,0,0,0,1.655.846A5.582,5.582,0,0,0,78,448.9c.193,0,.386-.008.576-.023a8.667,8.667,0,0,0,2.019-.4,8.141,8.141,0,0,0,1.748-.779,7.754,7.754,0,0,0,1.9-1.651,18.466,18.466,0,0,0,2.266-3.7c.386-.755.784-1.537,1.236-2.267a.255.255,0,0,0,.027-.2.26.26,0,0,0-.121-.161.264.264,0,0,0-.134-.038.532.532,0,0,0-.245-.148,14.707,14.707,0,0,0-2.56-.209" transform="translate(-43.888 -376.054)" fill="#fba92d"/>
        <path id="Trazado_1049017" data-name="Trazado 1049017" d="M47.341,352.692a3.053,3.053,0,0,0-.426.031,3.385,3.385,0,0,0-1.5.635,5.384,5.384,0,0,0-1.2,1.254,9.676,9.676,0,0,0-.942,1.69,13.871,13.871,0,0,0-1.047,3.871,11.364,11.364,0,0,0-.083,1.8c.038.863.126,1.778.26,2.722a34.608,34.608,0,0,0,1.293,5.568,39.716,39.716,0,0,0,3.1,7.214,32.28,32.28,0,0,0,4.006,5.748v.129c0,.09,0,.18,0,.27a.338.338,0,0,0,.1.247.421.421,0,0,0,.3.129.416.416,0,0,0,.288-.131.4.4,0,0,0,.1-.284c0-.089.005-.125.009-.159.063-.639.129-1.278.205-1.917.091-.722.2-1.444.308-2.163.148-.96.306-1.919.464-2.878q.154-.942.307-1.884c.315-1.969.537-3.574.7-5.05a45.955,45.955,0,0,0,.3-5.045,22.367,22.367,0,0,0-.465-4.655,12.015,12.015,0,0,0-1.55-3.932,9.473,9.473,0,0,0-1.439-1.741,5.681,5.681,0,0,0-1.806-1.217,3.51,3.51,0,0,0-1.28-.257" transform="translate(-35.381 -352.692)" fill="#fba92d"/>
        <path id="Trazado_1049018" data-name="Trazado 1049018" d="M60.1,379.378c-.069,0-.14,0-.212.006a3.467,3.467,0,0,0-1.452.432,4.527,4.527,0,0,0-1.192.974,7.779,7.779,0,0,0-.971,1.382,12.339,12.339,0,0,0-.763,1.659,19.955,19.955,0,0,0-.985,3.6,19.256,19.256,0,0,0-.343,3.029c-.015.483,0,.946.023,1.459.026.65.081,1.318.169,2.04a34.321,34.321,0,0,0,.69,3.838,56.249,56.249,0,0,0,1.917,6.272l-.179-.205-.2-.191c-.385-.362-.776-.722-1.167-1.076-.928-.84-1.908-1.685-2.916-2.511a46.962,46.962,0,0,0-7.209-4.986,21.071,21.071,0,0,0-3.759-1.627,10.477,10.477,0,0,0-3.075-.511c-.148,0-.3,0-.443.011a5.622,5.622,0,0,0-4.4,2.4,4.349,4.349,0,0,0-.494.92,3.555,3.555,0,0,0-.229,1,3.946,3.946,0,0,0,.332,1.879,6.446,6.446,0,0,0,1.105,1.751,11.118,11.118,0,0,0,1.636,1.556,16.176,16.176,0,0,0,1.843,1.276,15.535,15.535,0,0,0,1.781.916,19.441,19.441,0,0,0,2.512.868,29.567,29.567,0,0,0,6.1,1c.758.052,1.537.077,2.315.077a37.272,37.272,0,0,0,6.891-.654c0,.017.018.038.039.058a.415.415,0,0,0,.28.1.358.358,0,0,0,.291-.131c.1-.131.2-.262.3-.394l.16-.211c.145-.2.28-.4.408-.614a11.77,11.77,0,0,0,.739-1.478c.172-.385.327-.781.481-1.174l.082-.206c.115-.288.231-.579.351-.868l.1-.24.1-.245c.314-.753.626-1.5.925-2.263a55.344,55.344,0,0,0,2.5-7.719,24.6,24.6,0,0,0,.617-4.029,10.9,10.9,0,0,0-.288-3.523,5.105,5.105,0,0,0-1.575-2.586,4.558,4.558,0,0,0-1.377-.791,4.214,4.214,0,0,0-1.461-.278" transform="translate(-32.89 -359.887)" fill="#fba92d"/>
        <path id="Trazado_1049019" data-name="Trazado 1049019" d="M72.905,404.659a2.625,2.625,0,0,0-.561.063,2.384,2.384,0,0,0-.71.309,3.27,3.27,0,0,0-.677.575,5.925,5.925,0,0,0-1.017,1.583,10.6,10.6,0,0,0-.648,1.859,9.551,9.551,0,0,0-.28,1.784,16.292,16.292,0,0,0,.186,3.663,21.581,21.581,0,0,0,.922,3.678,21.846,21.846,0,0,0,1.535,3.465,18.574,18.574,0,0,0,1.361,2.138,7.1,7.1,0,0,0-.773-.4l-.773-.359-.528-.245c-.291-.134-.585-.259-.882-.379-.724-.3-1.486-.586-2.331-.874a47.427,47.427,0,0,0-6.244-1.694,26.833,26.833,0,0,0-3.273-.451c-.391-.028-.782-.046-1.174-.046a12.193,12.193,0,0,0-1.735.12,5.413,5.413,0,0,0-2.231.775,3.473,3.473,0,0,0-.435.34,3.2,3.2,0,0,0-.391.434,3.009,3.009,0,0,0-.478.978,3.9,3.9,0,0,0-.134,1.23,6.319,6.319,0,0,0,.24,1.491,9.134,9.134,0,0,0,1.722,3.418,7.635,7.635,0,0,0,2.859,2.115,10.447,10.447,0,0,0,3.594.794c.217.012.437.017.654.017a16.331,16.331,0,0,0,3.248-.353,20.827,20.827,0,0,0,7.31-3.117,14.312,14.312,0,0,0,2.672-2.338c.137-.157.266-.316.391-.48a.4.4,0,0,0,.278-.285c.123-.4.229-.816.331-1.226l.037-.143c.137-.551.268-1.107.391-1.664.3-1.375.557-2.742.759-4.062a43.664,43.664,0,0,0,.463-4.412,19.571,19.571,0,0,0-.155-4.024,6.6,6.6,0,0,0-1.082-2.943,3.635,3.635,0,0,0-1.275-1.032,2.754,2.754,0,0,0-.855-.275,2.313,2.313,0,0,0-.309-.02" transform="translate(-37.943 -366.704)" fill="#fba92d"/>
        <path id="Trazado_1049020" data-name="Trazado 1049020" d="M88.9,428.418a10.541,10.541,0,0,0-1.141-1.429c-.414-.454-.847-.887-1.281-1.32-.4-.4-.8-.8-1.2-1.2s-.79-.816-1.19-1.221c-1.461-1.486-2.984-2.91-4.541-4.294-3.127-2.781-6.4-5.4-9.569-8.131-.134-.115-.265-.231-.4-.346.062-.555.094-1.115.111-1.669.02-.659-.015-1.318-.034-1.977s-.034-1.323-.075-1.983c-.045-.71-.088-1.421-.12-2.131q-.094-1.994-.242-3.983c-.1-1.367-.24-2.727-.374-4.091a.186.186,0,0,0-.184-.166h-.015a.185.185,0,0,0-.166.2c.149,1.552.248,3.106.314,4.664.069,1.618.1,3.241.018,4.859,0-.031,0-.063,0-.1-.028.519-.077,1.033-.114,1.552q-.059.843-.165,1.686c-.085.673-.164,1.346-.233,2.02a75.59,75.59,0,0,1-8.464-8.6c-.234-.288-.458-.584-.687-.876,0-.009.009-.015.012-.024a8.054,8.054,0,0,0,.232-1.267c.057-.488.108-.976.157-1.464q.137-1.365.231-2.73t.166-2.733c.054-.962.114-1.92.156-2.879.043-.913.083-1.826.129-2.736.046-.961.069-1.922.1-2.884.057-1.877.077-3.757.074-5.635a.21.21,0,0,0-.211-.2.208.208,0,0,0-.2.211c0,1.64-.074,3.278-.174,4.915-.052.819-.126,1.638-.2,2.454-.073.86-.148,1.719-.237,2.576q-.346,3.035-.758,6.063c-.137,1.01-.254,2.022-.359,3.035-.055.525-.1,1.053-.148,1.581-.009.113-.015.226-.023.34a66.361,66.361,0,0,1-7.384-12.558,62.879,62.879,0,0,1-4.585-15.731,76.341,76.341,0,0,1-.821-12.369.2.2,0,0,0-.208-.2.215.215,0,0,0-.226.215c-.023,2.031.009,4.065.117,6.1.106,1.98.3,3.957.551,5.926q.377,2.885.964,5.732c.194.949.408,1.9.642,2.835s.5,1.866.776,2.791c.548,1.854,1.2,3.672,1.923,5.463q1.108,2.739,2.47,5.358c.881,1.686,1.846,3.326,2.878,4.923-.037-.008-.072-.018-.109-.027q-.993-.227-1.986-.456c-.616-.143-1.232-.3-1.846-.448-.657-.163-1.315-.326-1.966-.505-1.261-.348-2.516-.713-3.76-1.107-.6-.191-1.2-.385-1.795-.59-.634-.221-1.262-.459-1.888-.694-1.68-.643-3.341-1.331-4.953-2.122a.216.216,0,0,0-.089-.02.177.177,0,0,0-.159.094.186.186,0,0,0,.075.248c1.581.784,3.172,1.552,4.79,2.257.787.34,1.581.662,2.374.987.822.337,1.649.665,2.483.976q1.211.454,2.428.873c.859.294,1.714.591,2.579.868s1.729.542,2.6.793a14.949,14.949,0,0,0,2.361.557c.836,1.208,1.7,2.4,2.613,3.547a80.771,80.771,0,0,0,8.517,8.936q-.506.089-1.009.19c-.408.083-.816.177-1.224.253-.38.074-.76.132-1.139.193-.728.1-1.459.2-2.193.272-.785.08-1.578.12-2.368.148a34,34,0,0,1-4.684-.161,32.761,32.761,0,0,1-3.861-.643.189.189,0,0,0-.222.137.185.185,0,0,0,.137.22c.727.171,1.461.334,2.2.467s1.472.234,2.211.323c.714.085,1.429.148,2.146.211.787.066,1.581.091,2.371.108,1.535.031,3.07-.014,4.6-.108.371-.023.741-.054,1.112-.08s.742-.051,1.11-.091a12.918,12.918,0,0,0,2.007-.36c2.167,1.958,4.376,3.869,6.581,5.784-.4.166-.8.341-1.189.53a17.609,17.609,0,0,0-1.808.993c-1.227.773-2.382,1.646-3.569,2.479a.255.255,0,0,0-.066.348.249.249,0,0,0,.348.065,33.72,33.72,0,0,1,3.779-2.39c.411-.205.828-.4,1.253-.577a8.436,8.436,0,0,1,1.306-.411c.317-.064.637-.119.957-.158.271.237.543.473.814.71,1.723,1.512,3.429,3.047,5.083,4.636q1.293,1.245,2.525,2.548c.456.479.908.964,1.358,1.446a13.975,13.975,0,0,0,1.415,1.384.954.954,0,0,0,1.466-1.2Z" transform="translate(-33.895 -354.026)" fill="#e38907"/>
      </g>
      <g id="Grupo_1202103" data-name="Grupo 1202103" transform="translate(68.927 271.413)">
        <path id="Trazado_1049021" data-name="Trazado 1049021" d="M84.721,356.506c.331,1.829.773,3.669,1.2,5.446l.156.651c.528,2.211,1,4.2,1.4,6.208a54.7,54.7,0,0,1,.916,6.331A61.185,61.185,0,0,1,88.5,381.7l.017-.108.006-.106c-.091,2.55-.271,5.141-.445,7.643-.166,2.391-.337,4.864-.417,7.3a64.727,64.727,0,0,0,.118,7.5,41.7,41.7,0,0,0,1.25,7.449,38.764,38.764,0,0,0,1.432,4.348,33.025,33.025,0,0,0,2.212,4.559,21.855,21.855,0,0,0,2.542,3.524.481.481,0,0,0,.32.456l.154.051a13.721,13.721,0,0,0,3.806,2.81,10.412,10.412,0,0,0,3.463.981h.009a.49.49,0,0,0,.533-.391.5.5,0,0,0-.1-.374.42.42,0,0,0-.291-.168,9.957,9.957,0,0,1-1.709-.331,10.5,10.5,0,0,1-2.2-.987,12.739,12.739,0,0,1-1.2-.85,94.584,94.584,0,0,0,22.978,3.307c1.843.068,3.786.1,5.774.1,6.75,0,13.4-.376,20.191-.793.676-.039,1.352-.08,2.031-.105.53-.02,1.061-.034,1.592-.046l.388-.011c1.295-.034,2.685-.088,4.065-.234a17.521,17.521,0,0,0,3.883-.807,11.364,11.364,0,0,0,1.937-.859c-.04.328-.075.662-.111,1a.942.942,0,0,0,.773,1.07.789.789,0,0,0,.143.012.941.941,0,0,0,.93-.787,23.259,23.259,0,0,0,.171-2.776c.009-.85-.023-1.743-.1-2.736a37.163,37.163,0,0,0-.939-5.663,57.73,57.73,0,0,0-4.2-11.549,78.823,78.823,0,0,0-6.02-10.428c-1-1.472-2.066-2.907-3.158-4.262a56.6,56.6,0,0,0-4.231-4.667,64.35,64.35,0,0,0-20.066-13.073,119.969,119.969,0,0,0-11.511-4.191l-2.648-.822c-3.261-1-6.633-2.046-9.886-3.27l-.273-.1a.2.2,0,0,1-.126-.02c-.2-.088-.4-.174-.6-.26q-1.31-.513-2.534-1.049c-2.149-.867-4.311-1.718-6.38-2.746q-.5-.222-1-.456c-1.2-.562-2.377-1.161-3.52-1.826-.283-.162-.562-.331-.839-.5Z" transform="translate(-84.712 -356.446)" fill="#2fc3b0"/>
        <g id="Grupo_1202102" data-name="Grupo 1202102" transform="translate(3.522 3.76)">
          <path id="Trazado_1049022" data-name="Trazado 1049022" d="M141.072,445.809c-.151-.117-.308-.228-.462-.34-.345-.245-.7-.479-1.055-.7-.714-.445-1.456-.844-2.2-1.232a52.744,52.744,0,0,0-4.945-2.214c-.858-.337-1.726-.657-2.6-.953s-1.789-.579-2.688-.856-1.829-.513-2.747-.759q-.664-.175-1.327-.348c-.482-.123-.964-.231-1.446-.342-1.472-.345-2.945-.679-4.425-.976-1.421-.286-2.85-.537-4.282-.768-2.665-.431-5.349-.756-8.046-.944h-.015a.184.184,0,0,0-.01.366,75.854,75.854,0,0,1,9.315,1.3l-.063-.011c1.706.342,3.4.736,5.09,1.169.879.226,1.754.468,2.622.736s1.743.533,2.61.822,1.714.608,2.573.919,1.689.636,2.525.976,1.643.671,2.457,1.03c.751.328,1.492.679,2.231,1.037,1.136.554,2.256,1.137,3.352,1.762.548.311,1.087.636,1.629.956.251.145.5.294.747.445.271.16.554.311.81.494a.731.731,0,0,0,.8-1.221C141.366,446.046,141.221,445.926,141.072,445.809Z" transform="translate(-93.612 -381.487)" fill="#208b7e"/>
          <path id="Trazado_1049023" data-name="Trazado 1049023" d="M127.758,388.542l0-.022s0,0,0,.005A.113.113,0,0,0,127.758,388.542Z" transform="translate(-99.84 -368.854)" fill="#208b7e"/>
          <path id="Trazado_1049024" data-name="Trazado 1049024" d="M149.334,401.723a.327.327,0,0,0-.059-.006.317.317,0,0,0-.175.051.346.346,0,0,0-.134.2c-.083.237-.162.474-.245.711.007-.019.015-.039.022-.059-.332.949-.662,1.9-.98,2.846q-.523,1.558-1,3.13c-.654,2.128-1.241,4.279-1.732,6.454-.248,1.084-.459,2.177-.657,3.269s-.356,2.174-.467,3.267a33.205,33.205,0,0,0-.188,3.335c0,.523.012,1.048.055,1.571-.118-.262-.233-.524-.353-.787q-.663-1.451-1.375-2.881c-.95-1.917-1.96-3.812-3.016-5.675q-1.521-2.681-3.173-5.282c-.063-.167-.128-.334-.189-.5-.248-.676-.474-1.361-.682-2.051-.427-1.418-.771-2.862-1.064-4.314-.268-1.358-.479-2.731-.654-4.106q-.265-2.122-.376-4.26-.112-2.1-.117-4.2c0-1.326.054-2.653.14-3.977,0,.02,0,.039,0,.06.094-1.381.234-2.759.451-4.126a.2.2,0,0,0-.154-.234.191.191,0,0,0-.036,0,.2.2,0,0,0-.2.158c-.248,1.567-.416,3.141-.542,4.722-.066.856-.109,1.715-.142,2.573-.04.907-.072,1.818-.08,2.725-.014,1.871.06,3.74.177,5.606q.085,1.395.229,2.79c.091.907.225,1.814.365,2.718.149.968.347,1.93.568,2.886-.5-.741-1-1.481-1.517-2.215-2.468-3.526-5.13-6.922-7.92-10.2q-1.151-1.353-2.345-2.67c-.43-.882-.855-1.771-1.258-2.667q-.672-1.506-1.253-3.05a41.247,41.247,0,0,1-1.8-6.254.036.036,0,0,0,0,.009c0-.009,0-.017-.005-.026a.036.036,0,0,1,0-.009.005.005,0,0,0,0,0c-.237-1.181-.432-2.372-.554-3.572a28.152,28.152,0,0,1-.14-3.707.18.18,0,0,0-.183-.168h-.014a.184.184,0,0,0-.169.194,37.934,37.934,0,0,0,.194,4.964,39.7,39.7,0,0,0,.879,5.11,45.691,45.691,0,0,0,1.486,5.042c.228.633.479,1.26.744,1.881-1.4-1.484-2.852-2.926-4.319-4.344-3.056-2.956-6.268-5.752-9.435-8.591-2.155-1.932-4.3-3.877-6.392-5.87a.464.464,0,0,0-.026-.069q-.083-.159-.164-.321a10.886,10.886,0,0,1-.484-1.155,10.3,10.3,0,0,1-.337-1.235l.008.051a11.416,11.416,0,0,1-.191-3.076.177.177,0,0,0-.06-.126.2.2,0,0,0-.124-.046h-.01a.187.187,0,0,0-.123.06.2.2,0,0,0-.045.137,11.677,11.677,0,0,0,.67,4.933q-1.04-1-2.061-2.025a76.017,76.017,0,0,1-6.75-7.675.164.164,0,0,0-.132-.06.182.182,0,0,0-.139.305,95.887,95.887,0,0,0,8.036,9.234l-.014-.007a21.721,21.721,0,0,0-2.217-.982,19.116,19.116,0,0,0-2.369-.719,15.815,15.815,0,0,0-2.347-.379h-.018a.183.183,0,0,0-.176.169.186.186,0,0,0,.168.194c.466.045.923.112,1.378.2a15.909,15.909,0,0,1,2.1.6,22.81,22.81,0,0,1,2.16.93c-.02-.012-.042-.023-.066-.034.548.268,1.085.554,1.618.844l1.3.71c1.091,1.089,2.191,2.171,3.309,3.233,1.543,1.47,3.1,2.924,4.656,4.388s3.081,2.922,4.6,4.4,3,2.959,4.448,4.488q1.122,1.183,2.214,2.4c-.526-.321-1.058-.633-1.6-.922-.839-.448-1.7-.853-2.562-1.244a51.112,51.112,0,0,0-5.349-2.054c-1.821-.588-3.678-1.067-5.544-1.481a81,81,0,0,0-8.269-1.338h-.02a.184.184,0,0,0-.005.367c1.8.209,3.595.5,5.375.852l-.008,0a55.138,55.138,0,0,1,13.139,4.3,40,40,0,0,1,4.854,2.865c.771.525,1.518,1.082,2.254,1.652.375.291.737.6,1.1.9.939,1.117,1.871,2.24,2.776,3.385,2.143,2.706,4.163,5.506,6.1,8.365l-.058-.088c.987,1.466,1.938,2.957,2.868,4.461-.382-.274-.768-.54-1.163-.8a47.857,47.857,0,0,0-4.588-2.614,64.541,64.541,0,0,0-19.192-6.142,44.167,44.167,0,0,0-6.39-.5q-.963,0-1.927.055a.188.188,0,0,0-.194.168.184.184,0,0,0,.172.194,40.185,40.185,0,0,1,10.1.87c-.02-.005-.04-.008-.06-.014a61.349,61.349,0,0,1,14.563,4.986A49.732,49.732,0,0,1,130.381,411q1.276.844,2.5,1.761c.78.578,1.554,1.174,2.3,1.8l.045.04c.667,1.146,1.322,2.3,1.954,3.462q1.5,2.765,2.876,5.6.693,1.438,1.358,2.89.317.7.625,1.4c.1.237.208.477.308.716a7.254,7.254,0,0,0,.388.859,1.083,1.083,0,0,0,.371.422,1.081,1.081,0,0,0,1.492-.308,1.04,1.04,0,0,0,.157-.8c-.009-.033-.024-.063-.034-.095.009,0,.018,0,.027,0a.675.675,0,0,0,.465-.228.718.718,0,0,0,.174-.505c0-.3.009-.6.009-.9s-.009-.6-.015-.9c-.011-.645-.026-1.292-.026-1.937-.006-1.257.037-2.513.112-3.768a58.67,58.67,0,0,1,1.511-9.447c.365-1.543.779-3.073,1.224-4.593.433-1.472.882-2.938,1.375-4.391A.312.312,0,0,0,149.334,401.723Z" transform="translate(-89.535 -361.594)" fill="#208b7e"/>
        </g>
      </g>
      <path id="Trazado_1049025" data-name="Trazado 1049025" d="M333.385,103.363a7.75,7.75,0,0,0-3.233.8,13.346,13.346,0,0,0-3.274,2.243,20.2,20.2,0,0,0-2.8,3.122,21.8,21.8,0,0,0-2.129,3.525A11.39,11.39,0,0,0,320.7,117.4a.5.5,0,0,0,.145.37.586.586,0,0,0,.416.183.539.539,0,0,0,.492-.321,12.7,12.7,0,0,0,1.078,1.329,9.208,9.208,0,0,0,2.038,1.678,6.234,6.234,0,0,0,1.1.514,5.266,5.266,0,0,0,1.259.278,4.206,4.206,0,0,0,.47.026A5.454,5.454,0,0,0,329.8,121a11.553,11.553,0,0,0,3.4-2.5A27.519,27.519,0,0,0,336,115.312a18.016,18.016,0,0,0,2.271-3.794,7.29,7.29,0,0,0,.706-3.75,4.35,4.35,0,0,0-.575-1.714,5.2,5.2,0,0,0-1.325-1.4,7.082,7.082,0,0,0-.8-.537,6.55,6.55,0,0,0-.9-.409,5.7,5.7,0,0,0-1.72-.337c-.091,0-.183-.006-.271-.006" transform="translate(-79.413 -16.796)" fill="#db633c"/>
      <path id="Trazado_1049026" data-name="Trazado 1049026" d="M383.382,53.274a77.457,77.457,0,0,0-39.573,10.9l5.736,7.334,2.531,3.227,20.153,25.689,19.817,25.258a.184.184,0,0,1,.05.118.153.153,0,0,1-.022.085.184.184,0,0,1-.148.085l-13.775-4.227-9.512-2.924L352.634,113.9l-16.005-4.918-12.393-3.809-12.391-3.809a77.125,77.125,0,1,0,71.537-48.088" transform="translate(-75.477 -3.29)" fill="#206969"/>
      <path id="Trazado_1049027" data-name="Trazado 1049027" d="M320.574,50.94h0l0,0a76.6,76.6,0,0,0-31.02,35.46c-.174.4-.345.8-.511,1.21l.167.07,16.885,5.186q16.044,4.93,32.085,9.863l15.16,4.659L368.5,112.05l-7.709-9.869-7.729-9.848L342.929,79.42,332.841,66.561,326.73,58.77l-6.14-7.826-.015,0" transform="translate(-70.876 -2.661)" fill="#fba92d"/>
      <g id="Grupo_1202104" data-name="Grupo 1202104" transform="translate(73.056 41.07)">
        <path id="Trazado_1049028" data-name="Trazado 1049028" d="M173.512,41.07c-.8,0-1.606.017-2.408.048a68.19,68.19,0,0,0-7.448.719,57.264,57.264,0,0,0-6.229,1.267,52.783,52.783,0,0,0-10.2,3.834,37.432,37.432,0,0,0-8.937,6.183,29.165,29.165,0,0,0-2.8,3.06,31.912,31.912,0,0,0-2.551,3.764,59.7,59.7,0,0,0-4.157,8.756c-1.157,2.951-2.165,6.015-3.139,8.977l-.1.3-.169.518c-.431,1.317-.861,2.632-1.323,3.938-.5,1.43-1.069,2.887-1.727,4.455a72.686,72.686,0,0,1-3.715,7.5,62.057,62.057,0,0,1-4.642,6.963c-1.185,1.529-2.493,3.054-3.888,4.533-1.321,1.4-2.643,2.813-3.943,4.237a94.676,94.676,0,0,0-7.17,8.714,53.5,53.5,0,0,0-3.036,4.745,44.807,44.807,0,0,0-2.44,5.043,42.225,42.225,0,0,0-2.751,10.512,39.847,39.847,0,0,0-.154,9.493,34.838,34.838,0,0,0,2.046,8.578,34,34,0,0,0,4.05,7.573,36.7,36.7,0,0,0,5.855,6.44,42.972,42.972,0,0,0,8.646,5.8,51.346,51.346,0,0,0,11.051,4.114.562.562,0,0,0,.682-.387l.015-.072a37.714,37.714,0,0,0,4.78.279,99.315,99.315,0,0,0,10.05-.687l1.488-.151c2.42-.245,4.4-.478,6.237-.733,2.073-.283,4.19-.625,6.294-1.016a110.069,110.069,0,0,0,25.422-7.738c8.751-3.969,15.8-9,20.947-14.952a44.172,44.172,0,0,0,3.792-5.085,47.084,47.084,0,0,0,3.712-7.188,54.634,54.634,0,0,0,3.764-15.8,71.284,71.284,0,0,0,.283-8.215c-.027-1.437-.09-2.839-.188-4.168-.093-1.288-.261-2.669-.511-4.221a90.879,90.879,0,0,0-4.609-16.078l-.4-1.126c-.858-2.4-1.745-4.877-2.539-7.342a.59.59,0,0,0-.37-.381c-.138-.474-.275-.956-.4-1.441a.564.564,0,0,0,.171-.562c-.107-.46-.2-.947-.268-1.446a23.8,23.8,0,0,1,.119-6.121l.015-.1c.226-1.624.537-3.236.836-4.8.378-1.962.768-3.99.99-6.012a22.136,22.136,0,0,0,.009-5.294,15.248,15.248,0,0,0-.565-2.6,13.85,13.85,0,0,0-1.077-2.512,12.574,12.574,0,0,0-1.487-2.155,9.554,9.554,0,0,0-1.824-1.61,10.727,10.727,0,0,0-3.444-1.493c-.1-.238-.22-.478-.343-.712a11.614,11.614,0,0,0-1.933-2.618,15.515,15.515,0,0,0-5.66-3.554,28.823,28.823,0,0,0-7.246-1.678,46.015,46.015,0,0,0-5.453-.3" transform="translate(-90.365 -41.07)" fill="#021621"/>
        <path id="Trazado_1049029" data-name="Trazado 1049029" d="M236.562,88.409a3.674,3.674,0,0,0-1.307.237,3.9,3.9,0,0,0-.983.554.326.326,0,0,0-.262.221,4.615,4.615,0,0,0-.446.448.416.416,0,0,0,.18.7,17.528,17.528,0,0,0,.074,6.728,16.3,16.3,0,0,0,1.3,3.913,11.034,11.034,0,0,0,.987,1.651,7.568,7.568,0,0,0,1.356,1.494l-.122.085c-.223.169-.448.333-.675.5s-.452.329-.675.5a.955.955,0,0,0-.4.523.9.9,0,0,0,.089.676.865.865,0,0,0,.753.427.937.937,0,0,0,.443-.113,10.593,10.593,0,0,0,4.174-4.082,11.733,11.733,0,0,0,1.35-5.87,14.167,14.167,0,0,0-.377-3.071,11.48,11.48,0,0,0-.405-1.339,10.149,10.149,0,0,0-.605-1.362,5.964,5.964,0,0,0-1.7-1.885,4.794,4.794,0,0,0-2.186-.886,4.207,4.207,0,0,0-.563-.04" transform="translate(-128.943 -53.834)" fill="#cb5c37"/>
        <path id="Trazado_1049030" data-name="Trazado 1049030" d="M238.345,90.763a5.84,5.84,0,0,0-1.535.459,4.473,4.473,0,0,0-1.378,1.027,4.926,4.926,0,0,0-.5.682,4.279,4.279,0,0,0-.4.836,4.81,4.81,0,0,0-.22.816,4.6,4.6,0,0,0-.057.93.424.424,0,0,0,.348.377.436.436,0,0,0,.307-.069.411.411,0,0,0,.177-.277,5.751,5.751,0,0,1,.234-1.2,6.167,6.167,0,0,1,.56-1.188,5.913,5.913,0,0,1,.946-1.128,4.461,4.461,0,0,1,.748-.521,3.023,3.023,0,0,1,.668-.236c-.023,0-.043.009-.063.012.069-.014.137-.026.208-.037a.245.245,0,0,0,.22-.265.252.252,0,0,0-.236-.225l-.029,0M235.308,94.4l-.022.066c.007-.022.015-.044.022-.066" transform="translate(-129.161 -54.468)" fill="#b54626"/>
        <path id="Trazado_1049031" data-name="Trazado 1049031" d="M205.647,58.114a.511.511,0,0,0-.3.093l-.795.568c-2.41,1.72-4.9,3.5-7.425,5.147-1.467.958-2.922,1.849-4.327,2.651-1.127.641-2.345,1.282-3.834,2.017-1.17.576-2.361,1.139-3.553,1.7-2.281,1.079-4.639,2.195-6.9,3.418a46.434,46.434,0,0,0-4.916,3.044c-.787.568-1.535,1.162-2.225,1.767a15.453,15.453,0,0,0-2.01,2.024,8.561,8.561,0,0,0-1.3,2.356,10.6,10.6,0,0,0-.57,2.672,25,25,0,0,0,.328,5.663,11.129,11.129,0,0,0-3.3-.528c-.228,0-.456.009-.688.026a7.311,7.311,0,0,0-2.453.619,6,6,0,0,0-1.76,1.2,6.184,6.184,0,0,0-1.677,3.52,9.734,9.734,0,0,0,.365,4.183,11.313,11.313,0,0,0,5.671,6.817,11.55,11.55,0,0,0,2.19.845,11.318,11.318,0,0,0,2.42.382c.2.012.4.018.6.018a11.148,11.148,0,0,0,2.91-.394,46.867,46.867,0,0,1,2.808,4.894,34.77,34.77,0,0,1,2.9,8.361,25.007,25.007,0,0,1,.41,6.449v.05h-.005v.009l.006-.007v.036h.008a22.211,22.211,0,0,1-1.124,5.162l.041-.077a18.177,18.177,0,0,1-1.906,3.785l-.039.063a15.472,15.472,0,0,1-1.287,1.6.563.563,0,0,0-.037.694.473.473,0,0,0,.092.349,28.262,28.262,0,0,0,5.35,4.769,34.8,34.8,0,0,0,6.641,3.6,32.12,32.12,0,0,0,7.206,2.038,25.4,25.4,0,0,0,3.871.309,20.733,20.733,0,0,0,3.172-.237,15.594,15.594,0,0,0,6.22-2.318,13.831,13.831,0,0,0,4.556-5.089,17.512,17.512,0,0,0,1.424-3.691,20.7,20.7,0,0,0,.454-2.123,13.163,13.163,0,0,0,.206-3.077.559.559,0,0,0-.555-.527.575.575,0,0,0-.446.234,10.155,10.155,0,0,1-2.271-.644,10.845,10.845,0,0,1-2.116-1.255,13.6,13.6,0,0,1-2.284-2.321,19.572,19.572,0,0,1-2.393-4.2l.023.088a25.88,25.88,0,0,1-1.571-5.526,31.694,31.694,0,0,0,4.432-1.562,22.2,22.2,0,0,0,8.166-5.788,18.6,18.6,0,0,0,2.757-4.333,21.114,21.114,0,0,0,1.535-4.849,28.213,28.213,0,0,0-.083-10.356,34.147,34.147,0,0,0-1.33-5.011c-.27-.773-.566-1.534-.862-2.294l-.24-.616c-.405-1.041-.81-2.082-1.207-3.13a66.015,66.015,0,0,1-2.082-6.35c-.324-1.225-.584-2.486-.836-3.706-.152-.731-.3-1.463-.468-2.191a35.667,35.667,0,0,0-1.649-5.55,20.463,20.463,0,0,0-1.247-2.6,15.709,15.709,0,0,0-1.659-2.346l-.077-.086a.488.488,0,0,0-.377-.159.735.735,0,0,0-.083.006.589.589,0,0,0-.5-.291" transform="translate(-108.563 -45.665)" fill="#db633c"/>
        <path id="Trazado_1049032" data-name="Trazado 1049032" d="M208.873,58.189l-.8.568-.137.1c-2.225,1.589-4.75,3.39-7.284,5.05-1.494.973-2.95,1.863-4.327,2.651-1.145.645-2.363,1.287-3.834,2.014-1.17.576-2.36,1.141-3.553,1.706-2.154,1.015-4.593,2.168-6.9,3.418a45.413,45.413,0,0,0-4.918,3.043c-.762.546-1.51,1.142-2.228,1.766a16.015,16.015,0,0,0-2.011,2.023,8.565,8.565,0,0,0-1.3,2.362,10.641,10.641,0,0,0-.576,2.679c-.037.416-.053.832-.055,1.248q.317.039.633.076a0,0,0,0,0,0,0h0a41.933,41.933,0,0,0,4.937.261,35.688,35.688,0,0,0,4.756-.362c-.009,0-.02,0-.031.006a31.931,31.931,0,0,0,4-.85,34.047,34.047,0,0,0,3.991-1.4l-.042.017c.653-.279,1.3-.573,1.937-.893.505-.251,1-.513,1.5-.782q1.459-.791,2.878-1.66a58.819,58.819,0,0,0,5.692-3.966c-.011.012-.026.02-.037.031a43.159,43.159,0,0,0,7.988-8.1.007.007,0,0,1,0,0,29.444,29.444,0,0,0,2-3.1,25.972,25.972,0,0,0,1.524-3.215v0c.025-.064.049-.129.074-.194a18.945,18.945,0,0,0-.869-1.7,15.8,15.8,0,0,0-1.661-2.353l-.077-.086a.516.516,0,0,0-.389-.165.731.731,0,0,0-.083.006.58.58,0,0,0-.5-.291.521.521,0,0,0-.305.1m-37.326,28.7a.148.148,0,0,1,.037,0,.148.148,0,0,0-.037,0" transform="translate(-112.095 -45.659)" fill="#cb5c37"/>
        <path id="Trazado_1049033" data-name="Trazado 1049033" d="M194.157,140.517a19.4,19.4,0,0,0,1.786,1.375l-.039-.026a20.661,20.661,0,0,0,2.407,1.4,22.534,22.534,0,0,0,2.494,1.03.47.47,0,0,0-.046-.017,22.093,22.093,0,0,0,2.919.779,22.817,22.817,0,0,0,2.887.365l-.048-.006a21.062,21.062,0,0,0,2.682-.009,20.307,20.307,0,0,0,2.624-.354l-.036.007.035-.007a27.146,27.146,0,0,1-.951-3.881c.211-.055.422-.112.636-.175q-.667.137-1.338.234a29.992,29.992,0,0,1-6.174.225,42.151,42.151,0,0,1-11.261-2.327,16.407,16.407,0,0,0,1.424,1.391" transform="translate(-117.966 -67.508)" fill="#c94e2b"/>
        <path id="Trazado_1049034" data-name="Trazado 1049034" d="M168.795,108.238a.624.624,0,0,0-.2.229.641.641,0,0,0-.06.305,11.394,11.394,0,0,0,.819,5.092,8.417,8.417,0,0,0,1.347,2.223,6.778,6.778,0,0,0,1.94,1.567.285.285,0,1,0,.254-.511c-.156-.085-.307-.175-.453-.269a5.57,5.57,0,0,1-.906-.8,7.455,7.455,0,0,1-.986-1.476c.012.021.023.042.034.062a9.346,9.346,0,0,1-.755-2.183,11.02,11.02,0,0,1-.221-2.789c0,.032-.005.065-.008.1a8.755,8.755,0,0,1,.117-.942.6.6,0,0,0-.468-.7.617.617,0,0,0-.115-.011.6.6,0,0,0-.338.105m3.612,8.613.035.023-.035-.023m.035.023.025.018-.025-.018" transform="translate(-111.436 -59.152)" fill="#c94e2b"/>
        <path id="Trazado_1049035" data-name="Trazado 1049035" d="M164.009,106.756a6.448,6.448,0,0,0-1.6.36,6.613,6.613,0,0,0-1.549.8.213.213,0,0,0-.052.291.216.216,0,0,0,.291.051c.116-.08.235-.151.359-.221a5.267,5.267,0,0,1,.977-.364,5.117,5.117,0,0,1,1.155-.115,6.565,6.565,0,0,1,1.432.237,7.616,7.616,0,0,1,.868.332c.311.14.6.319.908.47a.579.579,0,0,0,.613-.97,4.4,4.4,0,0,0-1.612-.733,5.055,5.055,0,0,0-1.281-.154c-.169,0-.338.007-.5.02m-2.525,1.262-.018.01a.073.073,0,0,1,.018-.01" transform="translate(-109.348 -58.775)" fill="#c94e2b"/>
        <path id="Trazado_1049036" data-name="Trazado 1049036" d="M205.39,54.284a16.98,16.98,0,0,0-2.261.163,20.3,20.3,0,0,0-3.114.7,41.835,41.835,0,0,0-6.118,2.48c-.964.468-1.92.953-2.873,1.441l-.263.134c-.834.426-1.667.852-2.493,1.3a68.537,68.537,0,0,0-10.489,6.825,48.583,48.583,0,0,0-4.617,4.2,29.318,29.318,0,0,0-3.846,4.757,15.5,15.5,0,0,0-1.273,2.48,12.056,12.056,0,0,0-.706,2.578,11.7,11.7,0,0,0,.56,5.546c.209.623.47,1.3.8,2.055a10,10,0,0,0,1.042,1.879,4.306,4.306,0,0,0,.629.7,3.355,3.355,0,0,0,.909.58,2.3,2.3,0,0,0,.9.172,3.013,3.013,0,0,0,2.133-.941,4.55,4.55,0,0,0,.752-1.028,9.428,9.428,0,0,0,.942-2.81,17.956,17.956,0,0,0,.31-2.837c.012-.337.015-.673.006-1.011a32.4,32.4,0,0,0,6.246-1.045,47.5,47.5,0,0,0,5.187-1.672,43.312,43.312,0,0,0,9.177-4.9A45.713,45.713,0,0,0,210.5,60.654c.592-1.07,1.156-2.182,1.724-3.4a.532.532,0,0,0-.026-.42.564.564,0,0,0-.191-.22.579.579,0,0,0-.231-.365,9.837,9.837,0,0,0-2.655-1.393,11.091,11.091,0,0,0-2.912-.546c-.272-.017-.546-.026-.819-.026" transform="translate(-111.086 -44.633)" fill="#021621"/>
        <path id="Trazado_1049037" data-name="Trazado 1049037" d="M343.224,113.807a15.3,15.3,0,0,0-1.821.123c-.728.084-1.5.212-2.363.391a31.889,31.889,0,0,0-3.424.919.457.457,0,0,0-.152-.026.384.384,0,0,0-.15.029c-.288.107-.576.211-.865.316-.9.328-1.835.666-2.724,1.077a11.078,11.078,0,0,0-1.793,1.022,7.594,7.594,0,0,0-.777.638,5.18,5.18,0,0,0-.668.788,3.716,3.716,0,0,0-.139,3.925,3.1,3.1,0,0,0,1.5,1.287,5.346,5.346,0,0,0,2.034.383h.115c.105,0,.209,0,.314-.007a.556.556,0,0,0,.487.3.5.5,0,0,0,.148-.021c.537-.162,1.07-.375,1.585-.58l.091-.037c.895-.356,1.8-.741,2.759-1.176a52.936,52.936,0,0,0,6.161-3.187,18.126,18.126,0,0,0,2.457-1.77,4.315,4.315,0,0,0,1.315-1.755,1.586,1.586,0,0,0,.023-.914,1.623,1.623,0,0,0-.544-.8,3.658,3.658,0,0,0-1.117-.586,7.072,7.072,0,0,0-2.142-.329c-.1,0-.2-.006-.3-.006" transform="translate(-154.398 -60.682)" fill="#db633c"/>
        <path id="Trazado_1049038" data-name="Trazado 1049038" d="M341.906,113.634a14.421,14.421,0,0,0-2.528.527,11.3,11.3,0,0,0-1.2.443c-.168.077-.331.159-.493.248a5.754,5.754,0,0,0-.565.36.476.476,0,0,0,.534.779c.743-.341,1.484-.679,2.257-.952a18.888,18.888,0,0,1,2.274-.617,20.236,20.236,0,0,1,2.49-.355h-.008a12.111,12.111,0,0,1,2.128.031.184.184,0,0,0,.194-.171.186.186,0,0,0-.171-.194c-.363-.042-.728-.085-1.093-.123-.416-.042-.836-.063-1.255-.08-.208-.009-.418-.012-.627-.012a16.9,16.9,0,0,0-1.941.115m2.836.427-.037,0c.013,0,.025,0,.037,0m-4.9,1-.039.013.039-.013" transform="translate(-156.855 -60.604)" fill="#c94e2b"/>
        <path id="Trazado_1049039" data-name="Trazado 1049039" d="M272.171,120.628c-.3,0-.593.012-.888.037a.542.542,0,0,0-.445.326.831.831,0,0,0-.117.205.6.6,0,0,0-.056.13q-.727,1.629-1.461,3.255-1.482,3.3-2.98,6.56c-1.953,4.252-4.006,8.645-6.1,13.055-1.631,3.438-3.355,7.02-5.124,10.65q-1.288,2.653-2.594,5.3l-1.275,2.576-.307.624c-.256.521-.512,1.043-.777,1.561l-.177-.175-.188-.172c-1.627-1.479-3.139-2.792-4.625-4.015a66.757,66.757,0,0,0-9.975-6.9,44.141,44.141,0,0,0-11.988-4.608,54.919,54.919,0,0,0-11.759-1.059c-.437,0-.87,0-1.307.009-1.613.018-3.227.063-4.839.107l-.431.012a1.416,1.416,0,0,0-.868.9,11.863,11.863,0,0,1,.151,1.38,9.92,9.92,0,0,1-.2,2.315,8.267,8.267,0,0,1-.692,1.879,10.851,10.851,0,0,1-1.457,2,14.587,14.587,0,0,1-2.694,2.27,16.732,16.732,0,0,1-3.679,1.731,21.457,21.457,0,0,1-5.425.952l-.08.013v-.007q-.467.016-.934.017a27.976,27.976,0,0,1-6.029-.676,28.908,28.908,0,0,1-6.842-2.5l.011.007a23.331,23.331,0,0,1-4.691-3.238,18.679,18.679,0,0,1-1.669-1.748.539.539,0,0,0-.42-.2.58.58,0,0,0-.118.012.571.571,0,0,0-.227.055c-2.091,1-4.256,1.923-6.349,2.819-1.133.484-2.264.968-3.39,1.466a58.666,58.666,0,0,0-8.977,4.757,30.844,30.844,0,0,0-3.935,3.136,27.9,27.9,0,0,0-3.488,4,29.964,29.964,0,0,0-2.9,5.083,29.265,29.265,0,0,0-2,6.064,25.7,25.7,0,0,0-.454,3.051,20.813,20.813,0,0,0-.017,3.148.322.322,0,0,0,.02.094c.005.258.014.52.034.78a12.55,12.55,0,0,0,.414,2.409,11.8,11.8,0,0,0,.757,2,12.068,12.068,0,0,0,1.182,1.935,14.305,14.305,0,0,0,3.168,3.077,20.449,20.449,0,0,0,4.041,2.241,27.723,27.723,0,0,0,4.577,1.487c.8.194,1.606.341,2.5.5,1.161.209,2.323.4,3.486.574,4.247.652,8.659,1.151,13.49,1.524,6.27.483,13.1.717,20.894.717,2.165,0,4.4-.017,6.847-.053,6.714-.1,13.538-.325,20.137-.544q3.439-.114,6.879-.223a126.255,126.255,0,0,0,19.076-1.689,50.217,50.217,0,0,0,9.363-2.613,36.658,36.658,0,0,0,4.311-2.02,29.816,29.816,0,0,0,3.872-2.572,25.121,25.121,0,0,0,3.414-3.242c.471-.542.943-1.136,1.4-1.766.579-.793,1.09-1.629,1.513-2.343A45.944,45.944,0,0,0,271.4,181.8c.737-1.708,1.432-3.583,2.123-5.73,1.3-4.032,2.254-8.125,3.09-11.946.316-1.455.623-2.913.93-4.371l.317-1.509c.472-2.233.968-4.433,1.478-6.542.353-1.468.717-2.935,1.082-4.4,1.692-6.82,3.442-13.871,4.082-21a.513.513,0,0,0-.208-.44.931.931,0,0,0-.071-.071,22.581,22.581,0,0,0-2.691-1.975,25.2,25.2,0,0,0-3.345-1.773,19.17,19.17,0,0,0-3.447-1.125,11.769,11.769,0,0,0-2.567-.291" transform="translate(-103.031 -62.521)" fill="#fba92d"/>
        <path id="Trazado_1049040" data-name="Trazado 1049040" d="M246.953,185.541a.29.29,0,0,0,.012.4,34.664,34.664,0,0,1,2.535,2.834l-.007-.009.008.01.017.02-.009-.011a71.727,71.727,0,0,1,9.4,16.279l-.023-.053c.267.612.53,1.226.8,1.838l0-.009c.034.077.068.154.1.232-.037-.083-.074-.168-.111-.251.659,1.513,1.281,3.038,1.911,4.562.037.088.077.18.117.269a1.087,1.087,0,0,0,1.889-.046,1.033,1.033,0,0,0,.091-.816c-.779-1.869-1.618-3.721-2.513-5.538s-1.9-3.61-2.916-5.378c-1.027-1.786-2.145-3.518-3.3-5.227-1.139-1.683-2.354-3.315-3.652-4.881a57.111,57.111,0,0,0-3.929-4.243.274.274,0,0,0-.2-.078.3.3,0,0,0-.213.09M258.8,204.833l.072.164c-.023-.055-.047-.109-.072-.164m.871,2.014c-.034-.08-.069-.16-.1-.239.033.079.069.158.1.239M249.508,188.79l-.008-.009h0l.009.011" transform="translate(-132.564 -79.999)" fill="#e38907"/>
        <path id="Trazado_1049041" data-name="Trazado 1049041" d="M234.986,157.148c-.9.049-1.805.14-2.708.226q-.7.065-1.4.145c-.432.05-.862.119-1.293.194l-.407.123a.422.422,0,0,0-.14.293.4.4,0,0,0,.385.405c.66-.06,1.318-.077,1.98-.106s1.31-.048,1.963-.071c1.286-.049,2.573-.06,3.86-.04a56.283,56.283,0,0,1,7.774.63c-.006,0-.014,0-.023-.006a47.159,47.159,0,0,1,5.912,1.327,45.144,45.144,0,0,1,5.555,2.071l-.01-.006a59.743,59.743,0,0,1,13.166,8.274l-.01-.006a78.556,78.556,0,0,1,9.207,8.865.232.232,0,1,0,.34-.317,89.485,89.485,0,0,0-8.745-8.781,62.792,62.792,0,0,0-10.225-7.284,44.5,44.5,0,0,0-5.578-2.653c-1-.389-2.009-.725-3.03-1.039-1.067-.332-2.143-.622-3.23-.884a53.305,53.305,0,0,0-6.645-1.153,42.584,42.584,0,0,0-4.679-.26q-1.01,0-2.023.051m9.875,1.778a.8.8,0,0,1,.088.015c-.028-.006-.057-.009-.088-.015" transform="translate(-127.756 -72.354)" fill="#e38907"/>
        <path id="Trazado_1049042" data-name="Trazado 1049042" d="M215.3,158.363a.441.441,0,0,0-.04.209,11.628,11.628,0,0,1,.066,1.3,9.974,9.974,0,0,1-.08,1.269,10.3,10.3,0,0,1-.636,2.326c-.009.017-.014.034-.023.054a11.13,11.13,0,0,1-1.275,2.16,13.144,13.144,0,0,1-2.217,2.2,15.876,15.876,0,0,1-3.19,1.857l.009-.006A19.607,19.607,0,0,1,203,171.02a24.365,24.365,0,0,1-6.348.006l.145.018a24.832,24.832,0,0,1-6.291-1.715c.043.02.088.037.131.057a26.209,26.209,0,0,1-5.686-3.309,27.435,27.435,0,0,1-3.458-3.213.548.548,0,0,0-.773.776,26.881,26.881,0,0,0,9.26,6.647,25.226,25.226,0,0,0,5.41,1.638,24.584,24.584,0,0,0,5.694.37,25.544,25.544,0,0,0,2.913-.328,20.594,20.594,0,0,0,2.684-.627,16.392,16.392,0,0,0,4.548-2.22,13.311,13.311,0,0,0,3.481-3.541,10.865,10.865,0,0,0,1.1-2.208,10.445,10.445,0,0,0,.608-3.61c0-.394-.023-.8-.066-1.19a.6.6,0,0,0-.16-.388.567.567,0,0,0-.089-.072l-.806.251m-7.444,11.387a.731.731,0,0,1-.074.031c.023-.012.049-.02.074-.031" transform="translate(-114.685 -72.627)" fill="#e38907"/>
        <path id="Trazado_1049043" data-name="Trazado 1049043" d="M227.165,165.453a.179.179,0,0,1,.008-.018c0,.006-.006.012-.008.018" transform="translate(-127.25 -74.602)" fill="#e38907"/>
        <path id="Trazado_1049044" data-name="Trazado 1049044" d="M205.454,118.655h0l0,0s-.026.086-.026.086a9.056,9.056,0,0,0,.2,3.837,5.522,5.522,0,0,0,.825,1.719,4.044,4.044,0,0,0,2.5,1.617,3.313,3.313,0,0,0,.73.078c.15,0,.3-.009.444-.023a4.322,4.322,0,0,0,2.018-.823,6.254,6.254,0,0,0,1.538-1.629,7.885,7.885,0,0,0,1.017-2.22,5.942,5.942,0,0,0,.149-.643.463.463,0,0,0-.012-.2,33.857,33.857,0,0,1-4.727-.454,19.188,19.188,0,0,1-4.65-1.348l-.006,0" transform="translate(-121.357 -61.989)" fill="#021621"/>
        <path id="Trazado_1049045" data-name="Trazado 1049045" d="M212.937,91.643a.257.257,0,0,0-.18.083.2.2,0,0,0-.056.156c.1,1.226.241,2.332.419,3.382a17.136,17.136,0,0,0,.938,3.482,9.255,9.255,0,0,0,.73,1.462,3.841,3.841,0,0,0,.455.6,4.393,4.393,0,0,0,.558.489,11.843,11.843,0,0,0,1.25.79,11.529,11.529,0,0,1,1.213.761,3.431,3.431,0,0,1,.483.463,2.378,2.378,0,0,1,.229.384,2.131,2.131,0,0,1,.091.342,2.325,2.325,0,0,1,0,.384,2.506,2.506,0,0,1-.134.481,3.193,3.193,0,0,1-.373.616,5.2,5.2,0,0,1-.75.744,6.929,6.929,0,0,1-1.358.809c-.161.064-.326.118-.492.166a.624.624,0,0,0,.164,1.224.568.568,0,0,0,.167-.026,4.9,4.9,0,0,0,1.259-.6,6.129,6.129,0,0,0,1.242-1.054,3.948,3.948,0,0,0,1.141-2.8,2.386,2.386,0,0,0-.44-1.244,3.677,3.677,0,0,0-1.039-.939,11.62,11.62,0,0,0-1.093-.614,9.506,9.506,0,0,1-1.328-.779,2.977,2.977,0,0,1-.518-.523,8.568,8.568,0,0,1-.985-1.743,18.911,18.911,0,0,1-1.195-4.728c-.064-.481-.121-1.012-.164-1.542a.244.244,0,0,0-.235-.237" transform="translate(-123.35 -54.706)" fill="#c94e2b"/>
        <path id="Trazado_1049046" data-name="Trazado 1049046" d="M205.78,122.45c-.12,0-.24,0-.359.009a8.344,8.344,0,0,0,.237,1.145,5.549,5.549,0,0,0,.825,1.719,4.165,4.165,0,0,0,1.461,1.256,4.046,4.046,0,0,0,1.04.362,3.305,3.305,0,0,0,.73.078c.151,0,.3-.009.445-.023a4.258,4.258,0,0,0,1.916-.753l-.034-.057a9.619,9.619,0,0,0-.563-.836,7.723,7.723,0,0,0-.644-.736,8.482,8.482,0,0,0-.741-.661,7.457,7.457,0,0,0-.791-.538,8.078,8.078,0,0,0-.886-.443l.026.014a7,7,0,0,0-.852-.294,7.738,7.738,0,0,0-.907-.185l.04.007a6.978,6.978,0,0,0-.9-.064h-.042Zm2.66.535a.063.063,0,0,0,.009,0c-.005,0-.007,0-.009,0" transform="translate(-121.387 -63.012)" fill="#f68677"/>
        <path id="Trazado_1049047" data-name="Trazado 1049047" d="M195.11,102.352a1.046,1.046,0,0,0-.15.012c-.427.078-.769.471-.966,1.105a4.937,4.937,0,0,0-.076,2.248c.284,1.593,1.14,2.8,1.99,2.8a1.046,1.046,0,0,0,.15-.012c.427-.078.771-.471.968-1.105a4.9,4.9,0,0,0,.076-2.248c-.286-1.594-1.143-2.8-1.992-2.8" transform="translate(-118.26 -57.593)" fill="#021621"/>
        <path id="Trazado_1049048" data-name="Trazado 1049048" d="M225.46,95.281a.969.969,0,0,0-.145.012c-.416.077-.748.456-.938,1.069a4.729,4.729,0,0,0-.073,2.177c.28,1.542,1.109,2.7,1.929,2.7a.967.967,0,0,0,.145-.012c.414-.077.746-.456.936-1.07a4.707,4.707,0,0,0,.073-2.175c-.278-1.543-1.107-2.707-1.927-2.707" transform="translate(-126.454 -55.687)" fill="#021621"/>
        <path id="Trazado_1049049" data-name="Trazado 1049049" d="M219.917,77.08c-1.558,0-2.645.424-2.772,1.08-.176.944,1.64,2.081,4.05,2.534a10.53,10.53,0,0,0,1.919.188c1.557,0,2.644-.424,2.77-1.08a.9.9,0,0,0-.183-.679,6.539,6.539,0,0,0-3.864-1.854,10.376,10.376,0,0,0-1.919-.188" transform="translate(-124.545 -50.779)" fill="#021621"/>
      </g>
      <g id="Grupo_1202111" data-name="Grupo 1202111" transform="translate(87.285 146.523)">
        <g id="Grupo_1202106" data-name="Grupo 1202106">
          <g id="Grupo_1202105" data-name="Grupo 1202105" transform="translate(92.527 153.435)">
            <path id="Trazado_1049050" data-name="Trazado 1049050" d="M328.656,427.526c-32.06.26-30.647-32-30.647-32H245.591l-4.62,11.335,8.345,20.664Z" transform="translate(-237.728 -395.529)" fill="#8c969b"/>
            <path id="Trazado_1049051" data-name="Trazado 1049051" d="M244.394,395.53s-4.945,24.306,10.238,33.041v8.182s-20.6-1.876-17.849-41.223h7.611Z" transform="translate(-236.53 -395.529)" fill="#808a8e"/>
            <rect id="Rectángulo_416882" data-name="Rectángulo 416882" width="79.341" height="9.225" transform="translate(11.588 31.999)" fill="#808a8e"/>
          </g>
          <path id="Trazado_1049052" data-name="Trazado 1049052" d="M368,343.584H115.336a5.489,5.489,0,0,1-5.489-5.489V190.941a5.489,5.489,0,0,1,5.489-5.489H368a5.489,5.489,0,0,1,5.489,5.489V338.095A5.489,5.489,0,0,1,368,343.584Z" transform="translate(-109.847 -185.452)" fill="#96a0a5"/>
          <path id="Trazado_1049053" data-name="Trazado 1049053" d="M373.49,315.808V190.941A5.489,5.489,0,0,0,368,185.452H115.336a5.489,5.489,0,0,0-5.489,5.489V315.808Z" transform="translate(-109.847 -185.452)" fill="#0f2737"/>
          <rect id="Rectángulo_416883" data-name="Rectángulo 416883" width="243.204" height="115.287" transform="translate(10.039 7.87)" fill="#fff"/>
        </g>
        <g id="Grupo_1202107" data-name="Grupo 1202107" transform="translate(20.08 24.218)">
          <rect id="Rectángulo_416884" data-name="Rectángulo 416884" width="14.699" height="51.48" transform="translate(5.661 12.916)" fill="#2fc3b0"/>
          <rect id="Rectángulo_416885" data-name="Rectángulo 416885" width="14.699" height="64.397" transform="translate(27.572)" fill="#206969"/>
          <rect id="Rectángulo_416886" data-name="Rectángulo 416886" width="14.699" height="42.489" transform="translate(49.484 21.908)" fill="#fba92d"/>
          <line id="Línea_1771" data-name="Línea 1771" x2="70.193" transform="translate(0 63.865)" fill="none" stroke="#b86f05" stroke-linecap="round" stroke-miterlimit="10" stroke-width="5"/>
        </g>
        <g id="Grupo_1202108" data-name="Grupo 1202108" transform="translate(20.08 96.847)">
          <line id="Línea_1772" data-name="Línea 1772" x2="70.193" fill="none" stroke="#206969" stroke-linecap="round" stroke-miterlimit="10" stroke-width="2"/>
          <line id="Línea_1773" data-name="Línea 1773" x2="70.193" transform="translate(0 7.304)" fill="none" stroke="#206969" stroke-linecap="round" stroke-miterlimit="10" stroke-width="2"/>
          <line id="Línea_1774" data-name="Línea 1774" x2="70.193" transform="translate(0 14.608)" fill="none" stroke="#206969" stroke-linecap="round" stroke-miterlimit="10" stroke-width="2"/>
        </g>
        <g id="Grupo_1202109" data-name="Grupo 1202109" transform="translate(175.179 72.096)">
          <line id="Línea_1775" data-name="Línea 1775" x2="54.271" fill="none" stroke="#206969" stroke-linecap="round" stroke-miterlimit="10" stroke-width="2"/>
          <line id="Línea_1776" data-name="Línea 1776" x2="54.271" transform="translate(0 7.304)" fill="none" stroke="#206969" stroke-linecap="round" stroke-miterlimit="10" stroke-width="2"/>
          <line id="Línea_1777" data-name="Línea 1777" x2="54.271" transform="translate(0 14.608)" fill="none" stroke="#206969" stroke-linecap="round" stroke-miterlimit="10" stroke-width="2"/>
          <line id="Línea_1778" data-name="Línea 1778" x2="23.17" transform="translate(31.102 21.911)" fill="none" stroke="#206969" stroke-linecap="round" stroke-miterlimit="10" stroke-width="2"/>
        </g>
        <g id="Grupo_1202110" data-name="Grupo 1202110" transform="translate(193.172 109.25)">
          <path id="Trazado_1049054" data-name="Trazado 1049054" d="M380.005,337.871a2.838,2.838,0,1,0-2.838,2.837A2.837,2.837,0,0,0,380.005,337.871Z" transform="translate(-374.33 -335.033)" fill="#fba92d"/>
          <path id="Trazado_1049055" data-name="Trazado 1049055" d="M394.005,337.871a2.838,2.838,0,1,0-2.838,2.837A2.837,2.837,0,0,0,394.005,337.871Z" transform="translate(-378.105 -335.033)" fill="#fba92d"/>
          <path id="Trazado_1049056" data-name="Trazado 1049056" d="M408.005,337.871a2.838,2.838,0,1,0-2.838,2.837A2.837,2.837,0,0,0,408.005,337.871Z" transform="translate(-381.879 -335.033)" fill="#fba92d"/>
        </g>
      </g>
      <g id="Grupo_1202113" data-name="Grupo 1202113" transform="translate(252.867 131.859)">
        <path id="Trazado_1049057" data-name="Trazado 1049057" d="M410.355,176.415H374.881a2.143,2.143,0,0,0-2.043,2.18v49.838a2.143,2.143,0,0,0,2.043,2.181h35.474a2.143,2.143,0,0,0,2.042-2.181V178.6a2.143,2.143,0,0,0-2.042-2.18" transform="translate(-346.337 -168.351)" fill="#2fc3b0"/>
        <g id="Grupo_1202112" data-name="Grupo 1202112">
          <path id="Trazado_1049058" data-name="Trazado 1049058" d="M365.139,165.374H346.594c-3.392,2.08-6.729,4.246-10.04,6.454v45.917a3.637,3.637,0,0,0,3.589,3.589h37.064a3.637,3.637,0,0,0,3.589-3.589V168.963a3.637,3.637,0,0,0-3.589-3.589Z" transform="translate(-336.554 -165.374)" fill="#cfe7e0"/>
          <path id="Trazado_1049059" data-name="Trazado 1049059" d="M336.97,171.63c.729.323,1.464.634,2.211.912a20.578,20.578,0,0,0,2.993.907l-.048-.008a8.629,8.629,0,0,0,1.9.2h0a.023.023,0,0,0-.012,0,.216.216,0,0,1,.043,0,2.9,2.9,0,0,0,.382-.048c.091-.02.186-.043.277-.072a2.736,2.736,0,0,0,.5-.23l.014-.01-.007.005.009-.005a3.016,3.016,0,0,0,.483-.408l-.034.034a3.7,3.7,0,0,0,.494-.719.05.05,0,0,0-.006.02.144.144,0,0,1,.014-.031.045.045,0,0,1,.009-.014l0,0,0,0a.006.006,0,0,1,0,0,6.239,6.239,0,0,0,.466-1.41l-.009.048a10.6,10.6,0,0,0,.194-1.64c.026-.565.014-1.13-.015-1.694v0a14.542,14.542,0,0,0-.237-2.022c-2.929,1.8-6,3.768-9.618,6.18m9.215.541,0,.005h0a.107.107,0,0,0-.008.012.026.026,0,0,1,.008-.012s0,0,0-.005m-2.125,1.47h0Z" transform="translate(-336.666 -165.394)" fill="#e4fff7"/>
          <path id="Trazado_1049060" data-name="Trazado 1049060" d="M348.259,176.183l0,0,.011-.009-.007,0" transform="translate(-339.709 -168.287)" fill="#e4fff7"/>
        </g>
      </g>
      <g id="Grupo_1202115" data-name="Grupo 1202115" transform="translate(177.471 170.741)">
        <g id="Grupo_1202114" data-name="Grupo 1202114" transform="translate(0 7.714)">
          <path id="Trazado_1049061" data-name="Trazado 1049061" d="M306.055,328.214a6.034,6.034,0,0,0-5.2,2.991,5.781,5.781,0,0,0-.608,4.657l7.93,19.526,3.751,9.232,7.487,18.422.608,1.441a6.04,6.04,0,0,0,10.43,0,5.778,5.778,0,0,0,.608-4.657L321.539,356.4l-9.52-23.432c-.012-.029-.023-.057-.037-.086l-.045-.116-.049-.118-.608-1.44a5.984,5.984,0,0,0-2.166-2.166,6.047,6.047,0,0,0-3.059-.825" transform="translate(-251.296 -255.876)" fill="#b86f05"/>
          <path id="Trazado_1049062" data-name="Trazado 1049062" d="M309.611,321.325a.527.527,0,0,0-.275.075.552.552,0,0,0-.234.275c-.17-.01-.344-.013-.521-.013a18.539,18.539,0,0,0-4.17.513,25.82,25.82,0,0,0-4.98,1.738,24.862,24.862,0,0,0-4.481,2.651,20.789,20.789,0,0,0-1.892,1.6,15,15,0,0,0-1.318,1.459.483.483,0,0,0-.3-.1.548.548,0,0,0-.146.019.563.563,0,0,0-.387.682,5.635,5.635,0,0,0,1.54,2.6,6.429,6.429,0,0,0,2.6,1.431,9.992,9.992,0,0,0,2.829.371c.125,0,.25,0,.375-.006a15.96,15.96,0,0,0,3.5-.513,18.728,18.728,0,0,0,3.428-1.259,16.09,16.09,0,0,0,2.994-1.86,10.342,10.342,0,0,0,2.2-2.321,6.243,6.243,0,0,0,1.06-2.737,5.054,5.054,0,0,0-.063-1.56,5.932,5.932,0,0,0-.5-1.4,10.454,10.454,0,0,0-.779-1.376.585.585,0,0,0-.485-.272" transform="translate(-248.846 -254.019)" fill="#021621"/>
          <path id="Trazado_1049063" data-name="Trazado 1049063" d="M243.712,257.369a33.268,33.268,0,1,0,43.743-17.321,33.285,33.285,0,0,0-43.743,17.321" transform="translate(-235.387 -231.366)" fill="#cfe7e0"/>
          <path id="Trazado_1049064" data-name="Trazado 1049064" d="M272.015,229.172c-1.155,0-2.344.056-3.536.166l-.186.017-.112.013a40.064,40.064,0,0,0-4.922.814,38.552,38.552,0,0,0-8.472,3.042c-.283.143-.565.286-.844.431-.922.483-1.853,1.025-2.768,1.613-.417.262-.825.536-1.227.813-.863.6-1.711,1.236-2.517,1.9a38.047,38.047,0,0,0-7.177,7.776c-.1.143-.2.288-.3.435a38.387,38.387,0,0,0-4.691,9.567l-.027.084c-.093.288-.187.576-.273.864-.323,1.061-.6,2.163-.833,3.275-.012.052-.023.1-.032.158a38.829,38.829,0,0,0-.7,5.276l-.011.214c-.009.123-.014.245-.02.366-.015.287-.023.532-.029.778a38.894,38.894,0,0,0,5.536,21,38.132,38.132,0,0,0,9.357,10.561,38.886,38.886,0,0,0,12.559,6.5,38.037,38.037,0,0,0,11.157,1.656c1.131,0,2.276-.05,3.4-.149a38.881,38.881,0,0,0,13.828-3.9,38.468,38.468,0,0,0,18.426-19.6,38.635,38.635,0,0,0-18.411-49.62,39.432,39.432,0,0,0-6.809-2.623,38.865,38.865,0,0,0-7.237-1.295c-1.025-.088-2.08-.131-3.133-.131m-9.587,9.643.155-.05.079-.026c.06-.02.123-.04.186-.057l.257-.083a32.741,32.741,0,0,1,5.017-1.109,32.229,32.229,0,0,1,4.113-.266h0a31.54,31.54,0,0,1,4.1.269,32.254,32.254,0,0,1,7.867,2.148l.07.023,0,.007a31.016,31.016,0,0,1,18.616,24.366s.007.042.012.042.011.028.012.028h0a32.545,32.545,0,0,1-.02,8.253A32.047,32.047,0,0,1,300.7,280.3l.071-.126a32.753,32.753,0,0,1-4.063,6.951,30.921,30.921,0,0,1-12.474,9.589l.137-.04a32.959,32.959,0,0,1-8.06,2.208,32.3,32.3,0,0,1-4.144.269,31.911,31.911,0,0,1-4.127-.269l.143.032a32.763,32.763,0,0,1-8.13-2.239l.072.045a32.788,32.788,0,0,1-6.847-4.01,30.886,30.886,0,0,1-9.65-12.59l.023.088a32.623,32.623,0,0,1-2.147-7.935,32.017,32.017,0,0,1-.06-7.744c.012-.127.028-.251.043-.377v-.019c0,.01,0,.025,0,.025a31.9,31.9,0,0,1,2.193-8.044,32.616,32.616,0,0,1,1.638-3.294l.048-.1.006,0a32.723,32.723,0,0,1,2.228-3.364l.045-.058.044-.058.131-.165.052-.079.006,0a32.014,32.014,0,0,1,5.388-5.328c.863-.657,1.762-1.274,2.672-1.835l.117-.071.094-.057.074-.045.069-.042.068-.042.109-.063.108-.062.063-.038.105-.069,0,.007c.091-.052.137-.077.183-.106l.083-.046.069-.038.07-.039.083-.045c.046-.026.091-.052.137-.075.028-.018.057-.034.085-.048l.081-.044.095-.06,0,.007.163-.085c.04-.02.08-.04.117-.064l.1-.047c.043-.026.088-.049.134-.072a.774.774,0,0,0,.077-.04c.055-.026.106-.051.16-.08.114-.057.177-.088.24-.117.533-.262,1.052-.5,1.575-.719.433-.183.87-.351,1.312-.513l.126-.045.1-.036c.114-.042.171-.063.225-.08l.092-.041,0,.007.14-.045.123-.043.1-.041Z" transform="translate(-233.325 -229.172)" fill="#206969"/>
          <path id="Trazado_1049065" data-name="Trazado 1049065" d="M270.352,306.051h0a2.536,2.536,0,0,0-1.648.653,3.341,3.341,0,0,0-1.041,1.9,3.509,3.509,0,0,0,0,1.032,4.561,4.561,0,0,0,.343,1.107,6.172,6.172,0,0,0,1.4,1.885,6.833,6.833,0,0,0,1.757,1.194,5.1,5.1,0,0,0,.608.234q.227.094.462.171a4.255,4.255,0,0,0,1.292.221,2.545,2.545,0,0,0,1.571-.492,2.356,2.356,0,0,0,.8-1.308,3.56,3.56,0,0,0,.109-.783,4.193,4.193,0,0,0-.069-.977,5,5,0,0,0-.751-1.686,8.346,8.346,0,0,0-1.334-1.548,7.122,7.122,0,0,0-1.676-1.165,4.774,4.774,0,0,0-.886-.326,3.5,3.5,0,0,0-.944-.115" transform="translate(-242.573 -249.9)" fill="#fefefe"/>
          <path id="Trazado_1049066" data-name="Trazado 1049066" d="M263.341,254.211a3.562,3.562,0,0,0-1.141.206,6.585,6.585,0,0,0-1.965,1.114,15.993,15.993,0,0,0-2.15,2.041,24.083,24.083,0,0,0-3.464,5.12,33.323,33.323,0,0,0-3.031,9.388,29.47,29.47,0,0,0-.288,9.58,14.706,14.706,0,0,0,1.978,5.6c.12.2.245.394.38.585.114.186.237.365.368.542a10.365,10.365,0,0,0,.716.842c.2.223.408.437.622.646l.063.064c.174.167.325.307.476.447a.469.469,0,0,0,.157.09,5.819,5.819,0,0,0,.841.578,4.856,4.856,0,0,0,.866.383,4.69,4.69,0,0,0,1.017.219,3.48,3.48,0,0,0,.494.031,5.326,5.326,0,0,0,1.58-.256,6.249,6.249,0,0,0,1.043-.426,5.271,5.271,0,0,0,.914-.6,4.653,4.653,0,0,0,1.189-1.478,7.146,7.146,0,0,0,.737-2.922,16.783,16.783,0,0,0-.2-3.26c-.15-1.041-.361-2.07-.6-3.21l-.08-.371-.026-.12c-.164-.769-.309-1.463-.405-2.165l-.012-.088a21.014,21.014,0,0,1,.06-5.336,54.342,54.342,0,0,1,1.2-5.712,50.831,50.831,0,0,0,1.3-6.405,9.23,9.23,0,0,0-.037-2.489,3.792,3.792,0,0,0-.672-1.664,2.705,2.705,0,0,0-.606-.584,2.179,2.179,0,0,0-.733-.321,2.325,2.325,0,0,0-.6-.072" transform="translate(-238.1 -235.923)" fill="#fefefe"/>
        </g>
        <path id="Trazado_1049067" data-name="Trazado 1049067" d="M445.809,224.4a15.025,15.025,0,0,0-3.462.4,14.278,14.278,0,0,0-3.977,1.61,12.332,12.332,0,0,0-3.009,2.455,12.154,12.154,0,0,0-1.128,1.49,12.35,12.35,0,0,0-.856,1.624,14.022,14.022,0,0,0-.965,7.142,19.712,19.712,0,0,0,2.3,7.258,20.472,20.472,0,0,0,4.951,6.07,16.249,16.249,0,0,0,5.2,2.926.493.493,0,0,0,.162.026.6.6,0,0,0,.129-.014h.012a.441.441,0,0,0,.137-.018,22.348,22.348,0,0,0,5.4-2.471,29.845,29.845,0,0,0,4.763-3.736,37.142,37.142,0,0,0,3.961-4.466,15.849,15.849,0,0,0,1.4-2.141,12.174,12.174,0,0,0,.894-2.12,10.35,10.35,0,0,0,.4-2.082,9.482,9.482,0,0,0-.037-2.022,10.208,10.208,0,0,0-1.214-3.7,15.115,15.115,0,0,0-5.9-5.74,18.93,18.93,0,0,0-8.362-2.469c-.272-.014-.546-.023-.819-.023" transform="translate(-286.979 -220.172)" fill="#fba92d"/>
        <path id="Trazado_1049068" data-name="Trazado 1049068" d="M447.108,234.568a4.7,4.7,0,0,0-.488.031,3.812,3.812,0,0,0-.627.131c-.185.057-.362.12-.54.194l.043-.017a5.618,5.618,0,0,0-.651.34c-.183.114-.356.237-.527.362a10.324,10.324,0,0,0-1.792,1.814,9.752,9.752,0,0,0-.771,1.158,11.6,11.6,0,0,0-.591,1.193l.018-.043a12.57,12.57,0,0,0-.571,1.667,15.226,15.226,0,0,0-.348,1.763v-.007a19.014,19.014,0,0,0,.04,4.922c0-.009,0-.02,0-.031a26.306,26.306,0,0,0,1.829,6.606l-.018-.043q.285.673.6,1.332a16.118,16.118,0,0,0,4.254,2.191.588.588,0,0,0,.168.026.8.8,0,0,0,.134-.011.515.515,0,0,0,.14-.018,22.419,22.419,0,0,0,5.415-2.476,29.754,29.754,0,0,0,4.767-3.738q.452-.428.9-.885a49.7,49.7,0,0,0-2.14-6.427l.018.043a31.636,31.636,0,0,0-1.618-3.309,26.457,26.457,0,0,0-1.954-2.962A16.45,16.45,0,0,0,451.633,237a11.82,11.82,0,0,0-1.276-1.165l0,0,0,0h0l-.009-.007.006.005a.14.14,0,0,1-.023-.017l0,0-.01-.009a0,0,0,0,0,0,0h0l0,0,0,0h0c-.229-.17-.462-.334-.708-.482s-.48-.263-.73-.377a.073.073,0,0,1-.019-.007,5,5,0,0,0-.681-.235,5.584,5.584,0,0,0-.576-.114h.015l-.02,0,.006,0c-.008,0-.014,0-.023,0h0a4.251,4.251,0,0,0-.44-.028h-.042" transform="translate(-289.083 -222.913)" fill="#e38907"/>
        <path id="Trazado_1049069" data-name="Trazado 1049069" d="M452.094,235.087l.018.007-.031-.014.013.007" transform="translate(-292.307 -223.051)" fill="#e38907"/>
        <path id="Trazado_1049070" data-name="Trazado 1049070" d="M452.124,235.1" transform="translate(-292.319 -223.056)" fill="#e38907"/>
        <path id="Trazado_1049071" data-name="Trazado 1049071" d="M454.119,236.291l-.012-.008.012.008" transform="translate(-292.853 -223.375)" fill="#e38907"/>
        <path id="Trazado_1049072" data-name="Trazado 1049072" d="M440.415,269.61a.572.572,0,0,0-.514.329,5.45,5.45,0,0,1-.288.544,18.845,18.845,0,0,1-2.15,2.684c-.546.6-1.1,1.186-1.657,1.774-.435.461-.871.922-1.3,1.387a38.894,38.894,0,0,0-2.8,3.318,16.758,16.758,0,0,0-1.1,1.7,8.028,8.028,0,0,0-.681,1.582,5.157,5.157,0,0,0-.235,1.486,3.673,3.673,0,0,0,.261,1.369,4.72,4.72,0,0,0,1.409,1.795,7.274,7.274,0,0,0,1.039.722,7.014,7.014,0,0,0,1.112.537.633.633,0,0,0,.222.042.548.548,0,0,0,.509-.327.587.587,0,0,0,0-.451,18.548,18.548,0,0,0,4.639-7.818,52.162,52.162,0,0,0,1.954-9.091.556.556,0,0,0-.112-.419,4.339,4.339,0,0,0,.2-.386.532.532,0,0,0,.012-.414.541.541,0,0,0-.515-.361" transform="translate(-286.27 -232.361)" fill="#f6cfbe"/>
        <path id="Trazado_1049073" data-name="Trazado 1049073" d="M451.427,240.724h-.034a.612.612,0,0,0-.4.2,26.855,26.855,0,0,0-3.755,4.587,31.73,31.73,0,0,0-2.583,4.951,76.981,76.981,0,0,0-2.9,8.84q-.267.94-.536,1.877-.186.649-.379,1.3l.042-.089c-.3.942-.593,1.887-.9,2.825-.29.875-.627,1.8-1.029,2.827-.457,1.165-.94,2.319-1.424,3.474-.313.749-.627,1.5-.933,2.249-1.414,3.477-2.936,7.542-3.1,11.809a18.53,18.53,0,0,0,.129,3.052,17.556,17.556,0,0,0,.687,3.073,18,18,0,0,0,2.15,4.422,22,22,0,0,0,3.147,3.724,26.2,26.2,0,0,0,3.9,3.068,30.952,30.952,0,0,0,8.5,3.806c.876.244,1.757.447,2.617.6,0,.332,0,.672-.011,1.011l.017-.073,0-.074a36.1,36.1,0,0,1-1.464,8.9h0a40.46,40.46,0,0,1-2.7,6.772.507.507,0,0,0-.02.4.571.571,0,0,0,.3.333.359.359,0,0,0,.11.034.517.517,0,0,0,.292.334,37.145,37.145,0,0,0,4.85,1.672,55.129,55.129,0,0,0,5.5,1.21,66.878,66.878,0,0,0,11.316.974,38.558,38.558,0,0,0,4.962-.272,11.785,11.785,0,0,0,2.732-.671,7.855,7.855,0,0,0,2.493-1.533.613.613,0,0,0,.222-.361.56.56,0,0,0-.462-.636.517.517,0,0,0-.085-.007.652.652,0,0,0-.135.015,36.915,36.915,0,0,1-1.136-3.66,34.46,34.46,0,0,1-.964-8.888l-.017.073,0,.074a40.011,40.011,0,0,1,1.344-9.045.4.4,0,0,0,.179-.149l.435-.64c2.273-3.332,4.623-6.776,6.6-10.371a51.489,51.489,0,0,0,2.8-5.932,53.858,53.858,0,0,0,1.761-5.316,38.809,38.809,0,0,0,1.472-10.2,25.521,25.521,0,0,0-1.711-9.442,22.648,22.648,0,0,0-2.266-4.3,24.342,24.342,0,0,0-3.311-3.916,36.65,36.65,0,0,0-8.624-5.879,71.986,71.986,0,0,0-10.019-4.32,48.74,48.74,0,0,0-10.78-2.534,28.51,28.51,0,0,0-3.016-.168,20.945,20.945,0,0,0-3.4.265.449.449,0,0,0-.125-.156.565.565,0,0,0-.35-.124" transform="translate(-287.294 -224.572)" fill="#f6cfbe"/>
        <path id="Trazado_1049074" data-name="Trazado 1049074" d="M456.564,240.7a.627.627,0,0,0-.405.205,26.868,26.868,0,0,0-3.492,4.188,27.438,27.438,0,0,0,2.166,2.9,28.667,28.667,0,0,0,2.522,2.585l-.034-.034a29.507,29.507,0,0,0,3.3,2.575,33.819,33.819,0,0,0,3.637,2.126c-.017-.006-.031-.015-.045-.02a41.041,41.041,0,0,0,10.273,3.478l-.045-.009a53.414,53.414,0,0,0,13.583.9,57.128,57.128,0,0,0,8.759-1.2q-.264-.432-.548-.855a23.927,23.927,0,0,0-3.313-3.923,36.556,36.556,0,0,0-8.627-5.877,71.336,71.336,0,0,0-10.02-4.319,48.93,48.93,0,0,0-10.782-2.542c-1.112-.111-2.1-.168-3.018-.168a21.643,21.643,0,0,0-3.4.265.34.34,0,0,0-.114-.148.582.582,0,0,0-.359-.131Z" transform="translate(-292.465 -224.566)" fill="#f0bea9"/>
        <path id="Trazado_1049075" data-name="Trazado 1049075" d="M472.973,331.517a19.351,19.351,0,0,1-2.459.405,26.189,26.189,0,0,1-4.939.039c-.145-.011-.288-.026-.431-.039l-.191-.009c-.444-.023-.888-.055-1.331-.105-.429-.026-.857-.063-1.284-.112l-.013.472-.012.493.046-.068.008-.08q-.072,1.678-.31,3.39c.237,0,.47,0,.707-.009h-.048a21.767,21.767,0,0,0,5.66-.922,16.627,16.627,0,0,0,3.752-1.663.036.036,0,0,0,.011-.009s0-.005.006-.005h0a12.353,12.353,0,0,0,1.184-.83,10.9,10.9,0,0,0,1.007-.919c-.006.009-.014.015-.02.023.186-.2.362-.4.533-.614a19.415,19.415,0,0,1-1.877.562" transform="translate(-294.997 -248.901)" fill="#da8c67"/>
        <path id="Trazado_1049076" data-name="Trazado 1049076" d="M475.822,334.189l.009-.006-.009.006" transform="translate(-298.708 -249.771)" fill="#da8c67"/>
        <path id="Trazado_1049077" data-name="Trazado 1049077" d="M465.457,218.61c-.134,0-.268,0-.4.006a9.788,9.788,0,0,0-3.058.568,6.78,6.78,0,0,0-2.488,1.559,5.749,5.749,0,0,0-1.451,2.585,7.16,7.16,0,0,0-.221,1.728,8.652,8.652,0,0,0,.044.939c.014.16.031.32.054.48h-.019a9.785,9.785,0,0,0-3.828.76,11.011,11.011,0,0,0-3.489,2.433.476.476,0,0,0-.133.363.587.587,0,0,0,.193.421.555.555,0,0,0,.226.115,28.9,28.9,0,0,0,2.6,4.457,32.048,32.048,0,0,0,3.574,4.184,37.444,37.444,0,0,0,8.949,6.505,39.173,39.173,0,0,0,11.44,3.97,43.109,43.109,0,0,0-3.929,9.894,14.6,14.6,0,0,0-.217,5.467,11.307,11.307,0,0,0,.784,2.664,12.048,12.048,0,0,0,1.537,2.555c.051.066.1.131.157.194-.046.75-.1,1.488-.158,2.221l-.012.156a.614.614,0,0,0,.064.378.388.388,0,0,0-.129.168,38.077,38.077,0,0,0-2.448,8.315,28.364,28.364,0,0,0-.4,4.417,20.013,20.013,0,0,0,.389,4.216,16.973,16.973,0,0,0,.551,2.052,14.533,14.533,0,0,0,.834,1.924,12.534,12.534,0,0,0,2.518,3.329,13.879,13.879,0,0,0,3.827,2.529,16.646,16.646,0,0,0,2.393.87,10.857,10.857,0,0,0,2.093.36q.426.032.849.031a13.508,13.508,0,0,0,3.475-.479,18.684,18.684,0,0,0,4.193-1.761,29.071,29.071,0,0,0,4.009-2.728,46.285,46.285,0,0,0,3.807-3.434,71.759,71.759,0,0,0,6.5-7.573c.831-1.1,1.685-2.286,2.536-3.518,1.011-1.464,1.762-2.607,2.434-3.7a46.276,46.276,0,0,0,4.994-11.009,26.866,26.866,0,0,0,1-11.761,19.934,19.934,0,0,0-1.766-5.668,25.11,25.11,0,0,0-3.413-5.089,35.665,35.665,0,0,0-4.135-4.172,41.152,41.152,0,0,0-4.663-3.424,59.808,59.808,0,0,0-10.39-5.131c-3.7-1.448-7.525-2.659-11.127-3.775-.8-.248-1.608-.5-2.411-.761l-1.266-.4a37.442,37.442,0,0,0-5.824-5.423,18.709,18.709,0,0,0-2.4-1.467,14.874,14.874,0,0,0-2.452-.982,13.154,13.154,0,0,0-3.791-.554" transform="translate(-291.871 -218.61)" fill="#fba92d"/>
        <path id="Trazado_1049078" data-name="Trazado 1049078" d="M450.705,234.757a.185.185,0,0,0-.039.254,41.837,41.837,0,0,0,6.673,8.9,40.329,40.329,0,0,0,9.044,6.879,34.962,34.962,0,0,0,3.86,1.866A30.4,30.4,0,0,0,474.32,254c.682.174,1.375.316,2.068.439.8.14,1.609.237,2.417.331.893.106,1.786.188,2.682.22q.727.026,1.455.009a11.528,11.528,0,0,0,1.4-.126.657.657,0,0,0,.573-.716.643.643,0,0,0-.24-.433.7.7,0,0,0-.476-.14c-.616.008-1.231.016-1.844.009l.044,0-.1,0h-.032a48.725,48.725,0,0,1-5.248-.405,30.071,30.071,0,0,1-4.214-.86,34.687,34.687,0,0,1-4.121-1.462,34.136,34.136,0,0,1-4.035-2.066l.007,0a39.822,39.822,0,0,1-8.225-6.639l.014.018a40.462,40.462,0,0,1-2.961-3.488,33.98,33.98,0,0,1-2.525-3.891.159.159,0,0,0-.142-.075.208.208,0,0,0-.115.035m31.6,18.831h0" transform="translate(-291.917 -222.954)" fill="#e38907"/>
        <path id="Trazado_1049079" data-name="Trazado 1049079" d="M473.375,247.92a.217.217,0,0,0-.005.308c.562.456,1.144.89,1.749,1.29a21.731,21.731,0,0,0,1.886,1.1,22.243,22.243,0,0,0,4.083,1.6,33.732,33.732,0,0,0,4.251.913c.722.114,1.45.205,2.177.3.768.1,1.537.2,2.314.232a.765.765,0,1,0,.051-1.529c-.405-.015-.807-.015-1.21-.012-.169,0-.337,0-.5,0-.608,0-1.215-.017-1.826-.051a34.452,34.452,0,0,1-3.5-.372l.023,0-.077-.013-.042-.007.018,0a26.722,26.722,0,0,1-2.825-.634,21.816,21.816,0,0,1-2.808-1.021c.023.009.045.02.072.028a16.733,16.733,0,0,1-3.564-2.166.163.163,0,0,0-.1-.033.246.246,0,0,0-.164.064m9.415,3.764.055.009-.079-.012.024,0" transform="translate(-298.03 -226.495)" fill="#e38907"/>
        <path id="Trazado_1049080" data-name="Trazado 1049080" d="M487.664,266.831A39.749,39.749,0,0,0,485.8,271.4a18.523,18.523,0,0,0-.57,2.351,14.4,14.4,0,0,0-.237,2.528.555.555,0,0,0,.936.422.523.523,0,0,0,.177-.394,14.34,14.34,0,0,1,.12-3.425,23.544,23.544,0,0,1,1.8-5.709l-.009.018c.016-.034.033-.069.048-.107a.24.24,0,0,0-.072-.322.243.243,0,0,0-.131-.036.209.209,0,0,0-.194.107m.357.34.011-.023Z" transform="translate(-301.18 -231.583)" fill="#e38907"/>
        <path id="Trazado_1049081" data-name="Trazado 1049081" d="M488.286,284.163a9.942,9.942,0,0,0-1.968.205,10.2,10.2,0,0,0-2.646.945,9.386,9.386,0,0,0-4.041,4.032,18.955,18.955,0,0,0-2.716,6.857,29.63,29.63,0,0,0-.48,7.851.539.539,0,0,0,.232.356.555.555,0,0,0,.308.094.5.5,0,0,0,.088-.007.49.49,0,0,0,.164.042,26,26,0,0,0,3,.207h.218a15.276,15.276,0,0,0,2.466-.242,16.17,16.17,0,0,0,4.692-1.647,15.79,15.79,0,0,0,3.98-3,13.863,13.863,0,0,0,2.766-4.165,12.292,12.292,0,0,0,.734-2.426,11.427,11.427,0,0,0,.219-2.341,7.275,7.275,0,0,0-.914-3.564,6.135,6.135,0,0,0-2.29-2.251,7.617,7.617,0,0,0-3.142-.917c-.223-.017-.448-.026-.673-.026" transform="translate(-298.854 -236.285)" fill="#f6cfbe"/>
        <path id="Trazado_1049082" data-name="Trazado 1049082" d="M485.148,291.026a.527.527,0,0,0-.354.754c.081.177.157.358.226.538a10.038,10.038,0,0,1,.532,2.385,9.914,9.914,0,0,1-.115,2.434,10.467,10.467,0,0,1-.8,2.5c.006-.012.012-.025.018-.036a9.332,9.332,0,0,1-1.234,1.93,9.052,9.052,0,0,1-.657.683.186.186,0,0,0-.014.256.184.184,0,0,0,.259.015,10.479,10.479,0,0,0,1.846-2.271,10.309,10.309,0,0,0,1.15-2.819,11.3,11.3,0,0,0,.316-2.938,10.25,10.25,0,0,0-.145-1.486,9.894,9.894,0,0,0-.4-1.541.569.569,0,0,0-.225-.325.541.541,0,0,0-.291-.087.528.528,0,0,0-.112.012m.3,6.077,0,.023,0-.023m-2.032,4.432-.011.013Z" transform="translate(-300.564 -238.132)" fill="#da8c67"/>
        <path id="Trazado_1049083" data-name="Trazado 1049083" d="M490.41,288.257a8.089,8.089,0,0,0-2.579.545,6.633,6.633,0,0,0-1.15.6,3.119,3.119,0,0,0-.9.842.4.4,0,0,0,.017.482.4.4,0,0,0,.47.111c.241-.134.47-.285.7-.432a9.587,9.587,0,0,1,2.155-.971,9.392,9.392,0,0,1,2.162-.351h.013l.05,0h-.034a7.828,7.828,0,0,1,1.767.173,5.827,5.827,0,0,1,1.233.449l-.009,0a4.868,4.868,0,0,1,.557.345.312.312,0,1,0,.359-.511A6.7,6.7,0,0,0,493,288.517a8.722,8.722,0,0,0-1.266-.229,7.491,7.491,0,0,0-.83-.042c-.164,0-.329,0-.494.01m-3.326,2.086-.1.061.1-.061m4.224-1.256h0" transform="translate(-301.375 -237.386)" fill="#da8c67"/>
        <path id="Trazado_1049084" data-name="Trazado 1049084" d="M321.4,345.671a4.1,4.1,0,0,0-.412.023,2.722,2.722,0,0,0-1.891,1.144,4.666,4.666,0,0,0-.757,2.189,9.161,9.161,0,0,0,.057,2.435,8.4,8.4,0,0,0,.226,1.051q.081.291.183.573a43.528,43.528,0,0,0-4.58-.492c-.582-.031-1.161-.045-1.743-.045q-.848,0-1.7.043a7.613,7.613,0,0,0-2.242.459,5.52,5.52,0,0,0-1.676.995,5.592,5.592,0,0,0-.626.66,4.964,4.964,0,0,0-.506.806,4.543,4.543,0,0,0-.477,1.654,5.16,5.16,0,0,0,.139,1.763,6.2,6.2,0,0,0,1.266,2.426,6.746,6.746,0,0,0,1.025.99,3.942,3.942,0,0,0-.188,1.184,4.2,4.2,0,0,0,.615,2.183,5.942,5.942,0,0,0,2.419,2.206,3.2,3.2,0,0,0,.056.5,3.125,3.125,0,0,0,.627,1.332,4.134,4.134,0,0,0,1.123.955,7.738,7.738,0,0,0,1.51.692,16.247,16.247,0,0,0,3.574.713,32.739,32.739,0,0,0,3.439.16c.162,0,.325,0,.488,0a.62.62,0,0,0,.075.012c.768.044,1.453.065,2.095.065.7,0,1.348-.026,1.972-.077a14.057,14.057,0,0,0,2.122-.337,8.967,8.967,0,0,0,2-.714,6.732,6.732,0,0,0,.866-.529,5.83,5.83,0,0,0,.8-.714,4.863,4.863,0,0,0,1.055-1.78,4.259,4.259,0,0,0,.229-1.08,5.657,5.657,0,0,0-.066-1.265,11.422,11.422,0,0,0-.768-2.536c-.307-.756-.669-1.5-1.019-2.227l-.105-.215c-.168-.348-.337-.7-.5-1.05-.142-.308-.27-.622-.4-.938l-.17-.412c-.8-1.936-1.721-4.021-2.9-6.562l-.326-.708c-.221-.479-.441-.96-.669-1.437a16.272,16.272,0,0,0-1.125-2.016,5.67,5.67,0,0,0-1.52-1.58,3.067,3.067,0,0,0-.966-.423,2.713,2.713,0,0,0-.644-.074" transform="translate(-252.713 -252.869)" fill="#f6cfbe"/>
        <path id="Trazado_1049085" data-name="Trazado 1049085" d="M308.955,368.393a.188.188,0,0,0,.134.223,8.61,8.61,0,0,0,3.612.308.3.3,0,0,0,.185-.083.269.269,0,0,0,.074-.194.263.263,0,0,0-.083-.183.256.256,0,0,0-.194-.074c-.414.049-.825.094-1.241.12a7.771,7.771,0,0,1-1.195-.025l.013,0-.018,0-.036,0h.02c-.174-.022-.343-.049-.514-.08s-.362-.088-.539-.143a.142.142,0,0,0-.043-.006.191.191,0,0,0-.177.14m1.289.091h0l-.02,0,.016,0" transform="translate(-253.715 -258.957)" fill="#da8c67"/>
        <path id="Trazado_1049086" data-name="Trazado 1049086" d="M312.648,375.71a.206.206,0,0,0,.148.242,7.07,7.07,0,0,0,2.987.308.375.375,0,0,0,.234-.1.347.347,0,0,0,.094-.248.342.342,0,0,0-.1-.231.324.324,0,0,0-.245-.094c-.357.057-.714.111-1.073.145a5.609,5.609,0,0,1-1.027,0c-.129-.017-.256-.036-.386-.064s-.259-.066-.391-.105a.157.157,0,0,0-.048-.007.208.208,0,0,0-.192.153" transform="translate(-254.711 -260.927)" fill="#da8c67"/>
        <path id="Trazado_1049087" data-name="Trazado 1049087" d="M437.451,344.986a35.124,35.124,0,0,0-5.907.5,40.9,40.9,0,0,0-9.22,2.8,64.16,64.16,0,0,0-8.605,4.609c-2.989,1.869-5.848,3.922-8.252,5.684-4.291,3.144-8.566,6.454-12.7,9.656q-2.586,2-5.178,4c-5,3.832-10.967,8.3-17.388,12.376-4.655-3.433-9.683-6.578-14.423-9.466q-1.905-1.161-3.816-2.312c-4.582-2.767-9.32-5.628-13.822-8.69a.456.456,0,0,0-.263-.077c-.1,0-.127-.006-.163-.006a.42.42,0,0,0-.1.012,18.9,18.9,0,0,0-6.416,3.1,30.994,30.994,0,0,0-5.308,4.794.541.541,0,0,0-.1.408.619.619,0,0,0,.1.237.541.541,0,0,0,.06.142,151.71,151.71,0,0,0,9.121,13.37,101.461,101.461,0,0,0,11.1,12.4,65.806,65.806,0,0,0,12.988,9.645,30.477,30.477,0,0,0,6.706,2.734,31.053,31.053,0,0,0,6.88,1.03c.436.018.874.026,1.309.026a42.9,42.9,0,0,0,12.677-2.112,71.116,71.116,0,0,0,11.178-4.657,91.363,91.363,0,0,1-1.528,11.036c-.418,2.116-.93,4.435-1.566,7.083a.552.552,0,0,0,.347.706.554.554,0,0,0,.169.026.588.588,0,0,0,.424-.174q5.844-.044,11.7-.043c9.371,0,18.643.08,26.475.156l7.188.073c10.282.1,20.914.213,31.374.229l2.975,0q3.426,0,6.851-.017,2.409-.013,4.816-.031l1.252-.012,1.253-.012.784-.008c.472,0,.942-.008,1.413-.023a.548.548,0,0,0,.54.464.581.581,0,0,0,.424-.2.543.543,0,0,0,.127-.4,117.338,117.338,0,0,0-1.672-11.753c-.351-1.776-.761-3.526-1.221-5.464-.436-1.831-.86-3.531-1.3-5.2a127.23,127.23,0,0,0-6.8-19.858,86.569,86.569,0,0,0-10.372-17.442,57.483,57.483,0,0,0-13.066-12.618,40.969,40.969,0,0,0-7.947-4.212,36.929,36.929,0,0,0-8.977-2.268,33.674,33.674,0,0,0-4.115-.251" transform="translate(-258.254 -252.684)" fill="#2fc3b0"/>
        <path id="Trazado_1049088" data-name="Trazado 1049088" d="M517.593,363.839a70.086,70.086,0,0,1,6.844,12.7q.741,1.772,1.395,3.572c.471,1.3.91,2.605,1.33,3.92q1.369,4.3,2.45,8.685t1.892,8.839q.4,2.221.741,4.45c.217,1.455.426,2.913.591,4.374.348,3.049.539,6.114.6,9.181.063,2.873.03,5.747-.061,8.621q2.284-.012,4.566-.03l1.253-.012,1.253-.012.784-.008.283-.006c.376,0,.753-.006,1.13-.018a.54.54,0,0,0,.539.462.605.605,0,0,0,.437-.205.564.564,0,0,0,.131-.413,118.317,118.317,0,0,0-1.672-11.752c-.334-1.672-.7-3.273-1.224-5.47-.427-1.792-.853-3.492-1.3-5.2a127.437,127.437,0,0,0-6.8-19.857,86.623,86.623,0,0,0-10.374-17.446,62.709,62.709,0,0,0-8.142-8.785q1.782,2.118,3.352,4.4" transform="translate(-309.067 -256.58)" fill="#2bb4a2"/>
        <path id="Trazado_1049089" data-name="Trazado 1049089" d="M463.216,399.891l.043-.026c-2.8,1.738-5.5,3.618-8.282,5.387-1.375.876-2.764,1.726-4.191,2.516-.727.4-1.464.787-2.2,1.17q-1.13.582-2.268,1.153c-4.2,2.106-8.465,4.077-12.762,5.977q-3.231,1.424-6.476,2.813c-.975.419-1.948.848-2.921,1.272-.2,2.431-.512,4.975-.971,7.707l.633-.283a168.492,168.492,0,0,0,20.085-10.29l-.015.011a85.564,85.564,0,0,0,8.257-5.771c1.312-1.044,2.591-2.128,3.823-3.264q1.815-1.673,3.5-3.475l-.034.034a58.192,58.192,0,0,0,4.376-5.3c-.2.121-.4.242-.6.366m-19.283,17.381a.113.113,0,0,1-.026.015.113.113,0,0,0,.026-.015" transform="translate(-284.517 -267.389)" fill="#2bb4a2"/>
        <path id="Trazado_1049090" data-name="Trazado 1049090" d="M325.34,382.439a.7.7,0,0,0-.268.454.736.736,0,0,0,.134.525c.976,1.558,2,3.09,3.019,4.622s2.06,3.076,3.112,4.6,2.114,3.027,3.2,4.519c.956,1.318,1.929,2.622,2.939,3.9a66.9,66.9,0,0,0,12.83,12.6,48.958,48.958,0,0,0,7.689,4.611,39.663,39.663,0,0,0,9.193,3.13,36.826,36.826,0,0,0,10.348.519,52.007,52.007,0,0,0,10.14-1.992,95.722,95.722,0,0,0,9.926-3.583c2.9-1.2,5.783-2.477,8.648-3.769,1.409-.633,2.813-1.284,4.214-1.94,1.424-.668,2.851-1.336,4.262-2.032q4.272-2.109,8.456-4.4c2.933-1.612,5.806-3.327,8.582-5.2a72.109,72.109,0,0,0,7.838-6.017.241.241,0,0,0,.042-.334.235.235,0,0,0-.331-.045,60.63,60.63,0,0,1-5.6,4.425c-2.067,1.453-4.219,2.772-6.408,4.032l.051-.032q-4.113,2.353-8.4,4.368-2.148,1.014-4.328,1.969c-1.437.633-2.878,1.264-4.327,1.88-2.813,1.193-5.641,2.348-8.456,3.538-1.49.63-2.97,1.275-4.463,1.9-1.632.679-3.278,1.33-4.939,1.94-2.241.822-4.511,1.559-6.817,2.174l.033-.009a53.494,53.494,0,0,1-5.871,1.2,40.657,40.657,0,0,1-6.106.422,37,37,0,0,1-4.376-.328,34.371,34.371,0,0,1-4.654-.978l.043.013-.054-.016-.145-.041.1.027a42.75,42.75,0,0,1-9.726-4.287,55.867,55.867,0,0,1-10.772-8.618c.049.045.094.093.142.142q-2.281-2.324-4.351-4.839c-1.518-1.832-2.932-3.743-4.333-5.663q-2.35-3.226-4.622-6.508-1.138-1.635-2.263-3.287c-.787-1.153-1.555-2.317-2.351-3.463a.663.663,0,0,0-.551-.272.7.7,0,0,0-.425.137m60.233,36.379-.131.034.131-.034m-20.935.292.011,0-.057-.017.046.014" transform="translate(-258.06 -262.745)" fill="#208b7e"/>
        <path id="Trazado_1049091" data-name="Trazado 1049091" d="M452.147,277.087a1.135,1.135,0,0,1,.15.015c.424.088.758.489.94,1.128a4.947,4.947,0,0,1,.023,2.25c-.321,1.586-1.205,2.767-2.055,2.748a1.174,1.174,0,0,1-.15-.015c-.426-.088-.76-.489-.943-1.128a4.9,4.9,0,0,1-.023-2.25c.326-1.586,1.21-2.767,2.059-2.748" transform="translate(-291.738 -234.377)" fill="#021621"/>
        <path id="Trazado_1049092" data-name="Trazado 1049092" d="M460.6,260.392c1.174,1.281,1.509,2.621.852,3.414-.949,1.135-3.62.833-5.955-.673a8.556,8.556,0,0,1-1.661-1.383c-1.174-1.281-1.507-2.62-.851-3.412a1.821,1.821,0,0,1,.917-.562c1.282-.378,3.306.118,5.037,1.234a8.513,8.513,0,0,1,1.661,1.383" transform="translate(-292.461 -229.136)" fill="#fba92d"/>
        <path id="Trazado_1049093" data-name="Trazado 1049093" d="M435.526,301.182a4.423,4.423,0,0,0,5.8-2.286" transform="translate(-287.843 -240.257)" fill="none" stroke="#021621" stroke-linecap="round" stroke-miterlimit="10" stroke-width="1"/>
      </g>
    </g>
  </g>
</svg>
