<svg xmlns="http://www.w3.org/2000/svg" xmlns:xlink="http://www.w3.org/1999/xlink" width="93.656" height="93.656" viewBox="0 0 93.656 93.656">
  <defs>
    <filter id="Trazado_982547" x="0" y="0" width="93.656" height="93.656" filterUnits="userSpaceOnUse">
      <feOffset dy="3" input="SourceAlpha"/>
      <feGaussianBlur stdDeviation="3" result="blur"/>
      <feFlood flood-opacity="0.161"/>
      <feComposite operator="in" in2="blur"/>
      <feComposite in="SourceGraphic"/>
    </filter>
  </defs>
  <g id="Grupo_1202308" data-name="Grupo 1202308" transform="translate(-826.576 -801.331)">
    <g id="Grupo_1201531" data-name="Grupo 1201531" transform="translate(11.114 179.392)">
      <g id="Grupo_1183676" data-name="Grupo 1183676" transform="translate(-11 -235.188)">
        <g id="Grupo_1182353" data-name="Grupo 1182353" transform="translate(0 -1625.054)">
          <g id="Grupo_1181676" data-name="Grupo 1181676" transform="translate(-0.539 1249.182)">
            <g id="Grupo_1180315" data-name="Grupo 1180315" transform="translate(-3.461 -6557)">
              <g id="Grupo_1180312" data-name="Grupo 1180312">
                <g id="Grupo_1174895" data-name="Grupo 1174895" transform="translate(641.291 2507.168)">
                  <g id="Grupo_1172067" data-name="Grupo 1172067" transform="translate(198.17 5288.832)">
                    <g id="Grupo_1164308" data-name="Grupo 1164308" transform="translate(0 0)">
                      <g id="Grupo_1163948" data-name="Grupo 1163948" transform="translate(0)">
                        <g id="Grupo_1158168" data-name="Grupo 1158168" transform="translate(0)">
                          <g id="Grupo_1152576" data-name="Grupo 1152576">
                            <g id="Grupo_1148633" data-name="Grupo 1148633">
                              <g id="Grupo_1148525" data-name="Grupo 1148525">
                                <g transform="matrix(1, 0, 0, 1, -9, -6)" filter="url(#Trazado_982547)">
                                  <g id="Trazado_982547-2" data-name="Trazado 982547" transform="translate(9 6)" fill="#f2f7f5">
                                    <path d="M 37.8281364440918 74.15627288818359 C 32.92320251464844 74.15627288818359 28.16579246520996 73.19596862792969 23.68804740905762 71.30204772949219 C 19.36230278015137 69.47240447998047 15.47705841064453 66.85280609130859 12.1402702331543 63.51601409912109 C 8.803469657897949 60.17921447753906 6.1838698387146 56.29397964477539 4.354236602783203 51.96822357177734 C 2.460303068161011 47.49048233032227 1.500003099441528 42.73307037353516 1.500003099441528 37.8281364440918 C 1.500003099441528 32.92321395874023 2.460303068161011 28.16579246520996 4.354236602783203 23.68804740905762 C 6.1838698387146 19.36230278015137 8.803469657897949 15.47706985473633 12.1402702331543 12.1402702331543 C 15.47706985473633 8.803469657897949 19.36230278015137 6.1838698387146 23.68804740905762 4.354236602783203 C 28.16579246520996 2.460303068161011 32.92321395874023 1.500003099441528 37.8281364440918 1.500003099441528 C 42.73307037353516 1.500003099441528 47.49048233032227 2.460303068161011 51.96822357177734 4.354236602783203 C 56.29397964477539 6.1838698387146 60.17921447753906 8.803469657897949 63.51601409912109 12.1402702331543 C 66.85280609130859 15.47705841064453 69.47240447998047 19.36230278015137 71.30204772949219 23.68804740905762 C 73.19596862792969 28.16579246520996 74.15627288818359 32.92320251464844 74.15627288818359 37.8281364440918 C 74.15627288818359 42.73307037353516 73.19596862792969 47.49048233032227 71.30204772949219 51.96822357177734 C 69.47240447998047 56.29397964477539 66.85280609130859 60.17921447753906 63.51601409912109 63.51601409912109 C 60.17921447753906 66.85280609130859 56.29397964477539 69.47240447998047 51.96822357177734 71.30204772949219 C 47.49048233032227 73.19596862792969 42.73307037353516 74.15627288818359 37.8281364440918 74.15627288818359 Z" stroke="none"/>
                                    <path d="M 37.8281364440918 3 C 33.12504959106445 3 28.56423568725586 3.920433044433594 24.27237319946289 5.735733032226562 C 20.12542343139648 7.48974609375 16.40044784545898 10.00139617919922 13.20092391967773 13.20092391967773 C 10.00139617919922 16.40044784545898 7.48974609375 20.12542343139648 5.735733032226562 24.27237319946289 C 3.920433044433594 28.56423568725586 3 33.12504959106445 3 37.8281364440918 C 3 42.53122329711914 3.920433044433594 47.09203720092773 5.735733032226562 51.3838996887207 C 7.48974609375 55.53084945678711 10.00139617919922 59.25582122802734 13.20092391967773 62.45534896850586 C 16.40044784545898 65.65487670898438 20.12542343139648 68.16652679443359 24.27237319946289 69.92053985595703 C 28.56423568725586 71.73583984375 33.12504959106445 72.65627288818359 37.8281364440918 72.65627288818359 C 42.53122329711914 72.65627288818359 47.09203720092773 71.73583984375 51.3838996887207 69.92053985595703 C 55.53084945678711 68.16652679443359 59.25582122802734 65.65487670898438 62.45534896850586 62.45534896850586 C 65.65487670898438 59.25582122802734 68.16652679443359 55.53084945678711 69.92053985595703 51.3838996887207 C 71.73583984375 47.09203720092773 72.65627288818359 42.53122329711914 72.65627288818359 37.8281364440918 C 72.65627288818359 33.12504959106445 71.73583984375 28.56423568725586 69.92053985595703 24.27237319946289 C 68.16652679443359 20.12542343139648 65.65487670898438 16.40044784545898 62.45534896850586 13.20092391967773 C 59.25582122802734 10.00139617919922 55.53084945678711 7.48974609375 51.3838996887207 5.735733032226562 C 47.09203720092773 3.920433044433594 42.53122329711914 3 37.8281364440918 3 M 37.8281364440918 0 C 58.72003555297852 0 75.65627288818359 16.93623733520508 75.65627288818359 37.8281364440918 C 75.65627288818359 58.72003555297852 58.72003555297852 75.65627288818359 37.8281364440918 75.65627288818359 C 16.93623733520508 75.65627288818359 0 58.72003555297852 0 37.8281364440918 C 0 16.93623733520508 16.93623733520508 0 37.8281364440918 0 Z" stroke="none" fill="#4a665c"/>
                                  </g>
                                </g>
                              </g>
                            </g>
                          </g>
                        </g>
                      </g>
                    </g>
                  </g>
                </g>
              </g>
            </g>
          </g>
        </g>
      </g>
    </g>
    <g id="pila-de-monedas" transform="translate(847.366 817.614)">
      <circle id="Elipse_14321" data-name="Elipse 14321" cx="12.975" cy="12.975" r="12.975" transform="translate(0.721 22.539)" fill="#ffb300"/>
      <path id="Trazado_1049819" data-name="Trazado 1049819" d="M128.942,234.5a13.1,13.1,0,0,0-1.442.08,12.976,12.976,0,0,1,0,25.79,13.107,13.107,0,0,0,1.442.08,12.975,12.975,0,1,0,0-25.951Z" transform="translate(-115.245 -211.961)" fill="#ffa000"/>
      <circle id="Elipse_14322" data-name="Elipse 14322" cx="10.092" cy="10.092" r="10.092" transform="translate(3.604 25.422)" fill="#ffd54f"/>
      <path id="Trazado_1049820" data-name="Trazado 1049820" d="M217.695,462.921H193.256a.756.756,0,0,1-.756-.756v-2.91a.756.756,0,0,1,.756-.756h24.439a.756.756,0,0,1,.756.756v2.91A.756.756,0,0,1,217.695,462.921Z" transform="translate(-173.998 -414.432)" fill="#ffb300"/>
      <path id="Trazado_1049821" data-name="Trazado 1049821" d="M427.52,458.5h-2.883a.756.756,0,0,1,.756.756v2.91a.756.756,0,0,1-.756.756h2.883a.756.756,0,0,0,.756-.756v-2.91A.756.756,0,0,0,427.52,458.5Z" transform="translate(-383.824 -414.432)" fill="#ffa000"/>
      <path id="Trazado_1049822" data-name="Trazado 1049822" d="M241.695,186.921H217.256a.756.756,0,0,1-.756-.756v-2.91a.756.756,0,0,1,.756-.756h24.439a.756.756,0,0,1,.756.756v2.91A.756.756,0,0,1,241.695,186.921Z" transform="translate(-195.691 -164.959)" fill="#ffb300"/>
      <path id="Trazado_1049823" data-name="Trazado 1049823" d="M451.52,182.5h-2.883a.756.756,0,0,1,.756.756v2.91a.756.756,0,0,1-.756.756h2.883a.756.756,0,0,0,.756-.756v-2.91A.756.756,0,0,0,451.52,182.5Z" transform="translate(-405.517 -164.959)" fill="#ffa000"/>
      <path id="Trazado_1049824" data-name="Trazado 1049824" d="M217.695,416.921H193.256a.756.756,0,0,1-.756-.756v-2.91a.756.756,0,0,1,.756-.756h24.439a.756.756,0,0,1,.756.756v2.91A.756.756,0,0,1,217.695,416.921Z" transform="translate(-173.998 -372.853)" fill="#ffd54f"/>
      <path id="Trazado_1049825" data-name="Trazado 1049825" d="M427.52,412.5h-2.883a.756.756,0,0,1,.756.756v2.91a.756.756,0,0,1-.756.756h2.883a.756.756,0,0,0,.756-.756v-2.91A.756.756,0,0,0,427.52,412.5Z" transform="translate(-383.824 -372.853)" fill="#ffb300"/>
      <path id="Trazado_1049826" data-name="Trazado 1049826" d="M259.695,370.921H235.256a.756.756,0,0,1-.756-.756v-2.91a.756.756,0,0,1,.756-.756h24.439a.756.756,0,0,1,.756.756v2.91A.756.756,0,0,1,259.695,370.921Z" transform="translate(-211.961 -331.274)" fill="#ffb300"/>
      <path id="Trazado_1049827" data-name="Trazado 1049827" d="M469.52,366.5h-2.883a.756.756,0,0,1,.756.756v2.91a.756.756,0,0,1-.756.756h2.883a.756.756,0,0,0,.756-.756v-2.91A.756.756,0,0,0,469.52,366.5Z" transform="translate(-421.787 -331.274)" fill="#ffa000"/>
      <path id="Trazado_1049828" data-name="Trazado 1049828" d="M259.695,324.921H235.256a.756.756,0,0,1-.756-.756v-2.91a.756.756,0,0,1,.756-.756h24.439a.756.756,0,0,1,.756.756v2.91A.756.756,0,0,1,259.695,324.921Z" transform="translate(-211.961 -289.696)" fill="#ffd54f"/>
      <path id="Trazado_1049829" data-name="Trazado 1049829" d="M469.52,320.5h-2.883a.756.756,0,0,1,.756.756v2.91a.756.756,0,0,1-.756.756h2.883a.756.756,0,0,0,.756-.756v-2.91A.756.756,0,0,0,469.52,320.5Z" transform="translate(-421.787 -289.696)" fill="#ffb300"/>
      <path id="Trazado_1049830" data-name="Trazado 1049830" d="M259.695,232.921H235.256a.756.756,0,0,1-.756-.756v-2.91a.756.756,0,0,1,.756-.756h24.439a.756.756,0,0,1,.756.756v2.91A.756.756,0,0,1,259.695,232.921Z" transform="translate(-211.961 -206.538)" fill="#ffd54f"/>
      <path id="Trazado_1049831" data-name="Trazado 1049831" d="M469.52,228.5h-2.883a.756.756,0,0,1,.756.756v2.91a.756.756,0,0,1-.756.756h2.883a.756.756,0,0,0,.756-.756v-2.91A.756.756,0,0,0,469.52,228.5Z" transform="translate(-421.787 -206.538)" fill="#ffb300"/>
      <path id="Trazado_1049832" data-name="Trazado 1049832" d="M259.695,278.921H235.256a.756.756,0,0,1-.756-.756v-2.91a.756.756,0,0,1,.756-.756h24.439a.756.756,0,0,1,.756.756v2.91A.756.756,0,0,1,259.695,278.921Z" transform="translate(-211.961 -248.117)" fill="#ffb300"/>
      <path id="Trazado_1049833" data-name="Trazado 1049833" d="M469.52,274.5h-2.883a.756.756,0,0,1,.756.756v2.91a.756.756,0,0,1-.756.756h2.883a.756.756,0,0,0,.756-.756v-2.91A.756.756,0,0,0,469.52,274.5Z" transform="translate(-421.787 -248.117)" fill="#ffa000"/>
      <path id="Trazado_1049834" data-name="Trazado 1049834" d="M211.695,140.921H187.256a.756.756,0,0,1-.756-.756v-2.91a.756.756,0,0,1,.756-.756h24.439a.756.756,0,0,1,.756.756v2.91A.756.756,0,0,1,211.695,140.921Z" transform="translate(-168.575 -123.38)" fill="#ffd54f"/>
      <path id="Trazado_1049835" data-name="Trazado 1049835" d="M421.52,136.5h-2.883a.756.756,0,0,1,.756.756v2.91a.756.756,0,0,1-.756.756h2.883a.756.756,0,0,0,.756-.756v-2.91A.756.756,0,0,0,421.52,136.5Z" transform="translate(-378.4 -123.38)" fill="#ffb300"/>
      <g id="Grupo_1202307" data-name="Grupo 1202307" transform="translate(0 0)">
        <path id="Trazado_1049836" data-name="Trazado 1049836" d="M311.76,2.508a.721.721,0,0,0,.721-.721V.721a.721.721,0,1,0-1.442,0V1.788A.721.721,0,0,0,311.76,2.508Z" transform="translate(-281.144 0)"/>
        <path id="Trazado_1049837" data-name="Trazado 1049837" d="M262.755,15.137A.721.721,0,1,0,264,14.416l-.533-.924a.721.721,0,1,0-1.249.721Z" transform="translate(-236.931 -11.87)"/>
        <path id="Trazado_1049838" data-name="Trazado 1049838" d="M226.691,50.3l.924.533a.721.721,0,0,0,.721-1.249l-.924-.533a.721.721,0,0,0-.721,1.249Z" transform="translate(-204.577 -44.254)"/>
        <path id="Trazado_1049839" data-name="Trazado 1049839" d="M213.969,99.328h1.067a.721.721,0,0,0,0-1.442h-1.067a.721.721,0,0,0,0,1.442Z" transform="translate(-192.752 -88.478)"/>
        <path id="Trazado_1049840" data-name="Trazado 1049840" d="M397.761,98.607a.721.721,0,0,0,.721.721h1.067a.721.721,0,1,0,0-1.442h-1.067A.721.721,0,0,0,397.761,98.607Z" transform="translate(-359.531 -88.478)"/>
        <path id="Trazado_1049841" data-name="Trazado 1049841" d="M386.893,50.967a.717.717,0,0,0,.36-.1l.924-.533a.721.721,0,1,0-.721-1.249l-.924.533a.721.721,0,0,0,.361,1.345Z" transform="translate(-349.055 -44.283)"/>
        <path id="Trazado_1049842" data-name="Trazado 1049842" d="M354.824,15.455a.721.721,0,0,0,.985-.264l.533-.924a.721.721,0,1,0-1.249-.721l-.533.924A.721.721,0,0,0,354.824,15.455Z" transform="translate(-320.395 -11.919)"/>
        <path id="Trazado_1049843" data-name="Trazado 1049843" d="M111.534,307.848c-.165-.058-.334-.119-.5-.183v-2.81a3.134,3.134,0,0,1,.9.5.721.721,0,0,0,.945-1.089,4.454,4.454,0,0,0-1.844-.9v-.542a.721.721,0,1,0-1.442,0v.578c-.092.026-.186.056-.279.093a2.862,2.862,0,0,0-1.785,2.247,2.261,2.261,0,0,0,.785,2.153,6.089,6.089,0,0,0,1.279.74v3.653a2.519,2.519,0,0,1-1.251-.5.721.721,0,1,0-.789,1.206,3.885,3.885,0,0,0,2.041.738v.6a.721.721,0,1,0,1.442,0v-.669a3.238,3.238,0,0,0,2.437-2.6A2.812,2.812,0,0,0,111.534,307.848Zm-2.334-1.089a.866.866,0,0,1-.249-.807,1.465,1.465,0,0,1,.638-.991v2.057A3.406,3.406,0,0,1,109.2,306.758Zm2.847,4.068a1.789,1.789,0,0,1-1.016,1.33V309.2l.022.008A1.4,1.4,0,0,1,112.047,310.826Z" transform="translate(-96.917 -273.065)"/>
        <path id="Trazado_1049844" data-name="Trazado 1049844" d="M49.21,139.319a1.478,1.478,0,0,0-1.477-1.477H47.48c0-.012,0-.023,0-.035V134.9A1.478,1.478,0,0,0,46,133.421H44.6c0-.012,0-.023,0-.035v-2.91A1.478,1.478,0,0,0,43.12,129h-15.4a.721.721,0,1,0,0,1.442h15.4a.035.035,0,0,1,.035.035v2.91a.035.035,0,0,1-.035.035H18.681a.035.035,0,0,1-.035-.035v-2.91a.035.035,0,0,1,.035-.035h5.924a.721.721,0,1,0,0-1.442H18.681a1.478,1.478,0,0,0-1.477,1.477v2.91a1.478,1.478,0,0,0,1.477,1.477h1.407c0,.012,0,.023,0,.035v2.91a1.478,1.478,0,0,0,1.477,1.477h.254c0,.012,0,.023,0,.035v1.763a13.712,13.712,0,0,0-15.493-.512.721.721,0,0,0,.777,1.214,12.261,12.261,0,0,1,14.873,1.294,1.468,1.468,0,0,0-.157.662v1.243a10.879,10.879,0,0,0-2.346-2.006,10.812,10.812,0,1,0-1.691,19.149v1.547A12.257,12.257,0,0,1,4.867,143.617a.721.721,0,0,0-1.039-1,13.7,13.7,0,0,0,14.178,22.5,1.477,1.477,0,0,0,1.25.692H36.945a.721.721,0,0,0,0-1.442H19.258a.035.035,0,0,1-.035-.035v-.147c0-.01,0-.02,0-.03v-2.732a.035.035,0,0,1,.013-.027l.009-.005.013,0H43.7a.035.035,0,0,1,.035.035v2.91a.035.035,0,0,1-.035.035H39.991a.721.721,0,0,0,0,1.442H43.7a1.478,1.478,0,0,0,1.477-1.477v-2.91a1.474,1.474,0,0,1,0-1.511V157c0-.012,0-.023,0-.035h2.561a1.478,1.478,0,0,0,1.477-1.477v-2.91a1.474,1.474,0,0,1,0-1.511v-2.91a1.468,1.468,0,0,0-.208-.756,1.468,1.468,0,0,0,.208-.756v-2.91a1.468,1.468,0,0,0-.208-.756,1.468,1.468,0,0,0,.208-.756v-2.91Zm-27.681-1.511V134.9a.035.035,0,0,1,.035-.035H46a.035.035,0,0,1,.035.035v2.91a.035.035,0,0,1-.035.035H21.564a.035.035,0,0,1-.035-.035Zm26.2,1.477a.035.035,0,0,1,.035.035v2.91a.035.035,0,0,1-.035.035H23.294a.035.035,0,0,1-.035-.035v-2.91a.035.035,0,0,1,.035-.035Zm.035,4.456v2.91a.035.035,0,0,1-.035.035H23.294a.035.035,0,0,1-.035-.035v-2.91a.035.035,0,0,1,.035-.035H47.734A.035.035,0,0,1,47.768,143.74Zm0,4.421v2.91a.035.035,0,0,1-.035.035H23.294a.035.035,0,0,1-.035-.035v-2.91a.035.035,0,0,1,.035-.035H47.734A.035.035,0,0,1,47.768,148.161ZM4.325,152.115a9.371,9.371,0,0,1,17.594-4.491,1.47,1.47,0,0,0-.1.537v2.91a1.474,1.474,0,0,1,0,1.511v2.91c0,.012,0,.023,0,.035H19.258A1.478,1.478,0,0,0,17.781,157v2.91a1.468,1.468,0,0,0,.117.576,9.368,9.368,0,0,1-13.573-8.375ZM43.732,157v2.91a.035.035,0,0,1-.035.035H19.258a.035.035,0,0,1-.035-.035V157a.035.035,0,0,1,.035-.035H43.7A.035.035,0,0,1,43.732,157Zm4.037-1.511a.035.035,0,0,1-.035.035H23.294a.035.035,0,0,1-.035-.035v-2.91a.035.035,0,0,1,.035-.035H47.734a.035.035,0,0,1,.035.035Z" transform="translate(0 -116.601)"/>
      </g>
    </g>
  </g>
</svg>
