<svg xmlns="http://www.w3.org/2000/svg" xmlns:xlink="http://www.w3.org/1999/xlink" width="108" height="108" viewBox="0 0 108 108">
  <defs>
    <filter id="Trazado_904820" x="0" y="0" width="108" height="108" filterUnits="userSpaceOnUse">
      <feOffset dy="3" input="SourceAlpha"/>
      <feGaussianBlur stdDeviation="3" result="blur"/>
      <feFlood flood-opacity="0.161"/>
      <feComposite operator="in" in2="blur"/>
      <feComposite in="SourceGraphic"/>
    </filter>
  </defs>
  <g id="Grupo_1202272" data-name="Grupo 1202272" transform="translate(-194.001 -2012)">
    <g id="Grupo_1201485" data-name="Grupo 1201485" transform="translate(-6.227 1233.33)">
      <g id="Grupo_1179560" data-name="Grupo 1179560" transform="translate(-0.227 23)">
        <g id="Grupo_1173787" data-name="Grupo 1173787" transform="translate(209.455 761.67)">
          <g id="Grupo_1171910" data-name="Grupo 1171910" transform="translate(0)">
            <g id="Grupo_1167341" data-name="Grupo 1167341">
              <g id="Grupo_1166792" data-name="Grupo 1166792">
                <g transform="matrix(1, 0, 0, 1, -9, -6)" filter="url(#Trazado_904820)">
                  <g id="Trazado_904820-2" data-name="Trazado 904820" transform="translate(9 6)" fill="#f2f7f5">
                    <path d="M 44.99999618530273 88.50003051757812 C 39.12687301635742 88.50003051757812 33.43022155761719 87.35010528564453 28.06829643249512 85.08219909667969 C 22.88852119445801 82.89134216308594 18.23629570007324 79.75461578369141 14.24084663391113 75.75916290283203 C 10.24540901184082 71.76371765136719 7.108683586120605 67.11150360107422 4.917821407318115 61.93172836303711 C 2.649921178817749 56.56978988647461 1.499996185302734 50.87313842773438 1.499996185302734 45.00001525878906 C 1.499996185302734 39.12689208984375 2.649921178817749 33.43024063110352 4.917821407318115 28.06831550598145 C 7.108683586120605 22.88854026794434 10.24540901184082 18.23631477355957 14.24084663391113 14.24086570739746 C 18.23629570007324 10.24541568756104 22.88852119445801 7.10869026184082 28.06829643249512 4.917840480804443 C 33.43022155761719 2.649927854537964 39.12687301635742 1.50000274181366 44.99999618530273 1.50000274181366 C 50.87311935424805 1.50000274181366 56.56977081298828 2.649927854537964 61.93169784545898 4.917840480804443 C 67.11147308349609 7.10869026184082 71.76369476318359 10.24541568756104 75.75914764404297 14.24086570739746 C 79.75458526611328 18.23631477355957 82.89131164550781 22.88854026794434 85.08216857910156 28.06831550598145 C 87.35007476806641 33.43024063110352 88.5 39.12689208984375 88.5 45.00001525878906 C 88.5 50.87313842773438 87.35007476806641 56.56978988647461 85.08216857910156 61.93172836303711 C 82.89131164550781 67.11150360107422 79.75458526611328 71.76371765136719 75.75914764404297 75.75916290283203 C 71.76369476318359 79.75461578369141 67.11147308349609 82.89134216308594 61.93169784545898 85.08219909667969 C 56.56977081298828 87.35010528564453 50.87311935424805 88.50003051757812 44.99999618530273 88.50003051757812 Z" stroke="none"/>
                    <path d="M 44.99999618530273 3 C 39.32870864868164 3 33.82865142822266 4.110061645507812 28.65262603759766 6.299346923828125 C 23.65165710449219 8.414573669433594 19.15968322753906 11.44334411621094 15.301513671875 15.301513671875 C 11.44333648681641 19.15968322753906 8.414566040039062 23.65165710449219 6.299339294433594 28.65262985229492 C 4.110054016113281 33.82867050170898 2.999992370605469 39.32872772216797 2.999992370605469 45.00001525878906 C 2.999992370605469 50.67130279541016 4.110054016113281 56.17136001586914 6.299339294433594 61.34738922119141 C 8.414566040039062 66.34837341308594 11.44333648681641 70.84033203125 15.301513671875 74.69850158691406 C 19.15968322753906 78.55668640136719 23.65165710449219 81.58545684814453 28.65262603759766 83.70068359375 C 33.82865142822266 85.88996887207031 39.32870864868164 87.00003051757812 44.99999618530273 87.00003051757812 C 50.67128372192383 87.00003051757812 56.17134094238281 85.88996887207031 61.34736633300781 83.70068359375 C 66.34834289550781 81.58545684814453 70.84030914306641 78.55668640136719 74.69847869873047 74.69850158691406 C 78.55665588378906 70.84033203125 81.58542633056641 66.34837341308594 83.70065307617188 61.34738922119141 C 85.88993835449219 56.17136001586914 87 50.67130279541016 87 45.00001525878906 C 87 39.32872772216797 85.88993835449219 33.82867050170898 83.70065307617188 28.65262985229492 C 81.58542633056641 23.65165710449219 78.55665588378906 19.15968322753906 74.69847869873047 15.301513671875 C 70.84030914306641 11.44334411621094 66.34834289550781 8.414573669433594 61.34736633300781 6.299346923828125 C 56.17134094238281 4.110061645507812 50.67128372192383 3 44.99999618530273 3 M 44.99999618530273 0 C 69.85281372070312 0 90 20.14718627929688 90 45.00001525878906 C 90 69.85282897949219 69.85281372070312 90.00003051757812 44.99999618530273 90.00003051757812 C 20.14717864990234 90.00003051757812 -7.62939453125e-06 69.85282897949219 -7.62939453125e-06 45.00001525878906 C -7.62939453125e-06 20.14718627929688 20.14717864990234 0 44.99999618530273 0 Z" stroke="none" fill="#4a665c"/>
                  </g>
                </g>
              </g>
            </g>
          </g>
        </g>
      </g>
    </g>
    <g id="la-mejor-experiencia-del-cliente" transform="translate(216.371 2026.923)">
      <g id="Grupo_1202270" data-name="Grupo 1202270" transform="translate(0.927 8.74)">
        <g id="Grupo_1202249" data-name="Grupo 1202249" transform="translate(0 20.797)">
          <g id="Grupo_1202248" data-name="Grupo 1202248">
            <path id="Trazado_1049647" data-name="Trazado 1049647" d="M66.552,190.488H9.853A2.353,2.353,0,0,1,7.5,188.135v-2.141a2.353,2.353,0,0,1,2.353-2.353h56.7a2.353,2.353,0,0,1,2.353,2.353v2.141A2.353,2.353,0,0,1,66.552,190.488Z" transform="translate(-7.5 -183.641)" fill="#eacbd4"/>
          </g>
        </g>
        <g id="Grupo_1202251" data-name="Grupo 1202251" transform="translate(2.46 0)">
          <g id="Grupo_1202250" data-name="Grupo 1202250">
            <circle id="Elipse_14305" data-name="Elipse 14305" cx="7.99" cy="7.99" r="7.99" fill="#00e98c"/>
          </g>
        </g>
        <g id="Grupo_1202253" data-name="Grupo 1202253" transform="translate(22.713 0)">
          <g id="Grupo_1202252" data-name="Grupo 1202252">
            <circle id="Elipse_14306" data-name="Elipse 14306" cx="7.99" cy="7.99" r="7.99" fill="#ff9aca"/>
          </g>
        </g>
        <g id="Grupo_1202255" data-name="Grupo 1202255" transform="translate(42.965 0)">
          <g id="Grupo_1202254" data-name="Grupo 1202254">
            <circle id="Elipse_14307" data-name="Elipse 14307" cx="7.99" cy="7.99" r="7.99" fill="#ffe540"/>
          </g>
        </g>
        <g id="Grupo_1202257" data-name="Grupo 1202257" transform="translate(3.703 1.242)">
          <g id="Grupo_1202256" data-name="Grupo 1202256">
            <path id="Trazado_1049648" data-name="Trazado 1049648" d="M48.493,25.368A7.988,7.988,0,0,1,37.469,36.392,7.989,7.989,0,1,0,48.493,25.368Z" transform="translate(-37.469 -25.368)" fill="#00dc9b"/>
          </g>
        </g>
        <g id="Grupo_1202259" data-name="Grupo 1202259" transform="translate(23.955 1.242)">
          <g id="Grupo_1202258" data-name="Grupo 1202258">
            <path id="Trazado_1049649" data-name="Trazado 1049649" d="M212.411,25.368a7.988,7.988,0,0,1-11.024,11.024,7.989,7.989,0,1,0,11.024-11.024Z" transform="translate(-201.387 -25.368)" fill="#ff7ab9"/>
          </g>
        </g>
        <g id="Grupo_1202261" data-name="Grupo 1202261" transform="translate(44.207 1.242)">
          <g id="Grupo_1202260" data-name="Grupo 1202260">
            <path id="Trazado_1049650" data-name="Trazado 1049650" d="M376.329,25.368A7.988,7.988,0,0,1,365.3,36.392a7.989,7.989,0,1,0,11.024-11.024Z" transform="translate(-365.305 -25.368)" fill="gold"/>
          </g>
        </g>
        <g id="Grupo_1202263" data-name="Grupo 1202263" transform="translate(8.553 24.22)">
          <g id="Grupo_1202262" data-name="Grupo 1202262" transform="translate(0 0)">
            <circle id="Elipse_14308" data-name="Elipse 14308" cx="4.174" cy="4.174" r="4.174" fill="#af6f80"/>
          </g>
        </g>
        <g id="Grupo_1202265" data-name="Grupo 1202265" transform="translate(6.247 40.027)">
          <g id="Grupo_1202264" data-name="Grupo 1202264">
            <path id="Trazado_1049651" data-name="Trazado 1049651" d="M62.059,339.284l-2.707,3.052a5.1,5.1,0,0,0-1.285,3.386V348.8a5.1,5.1,0,0,0,2.539,4.412l1.454.845V339.284Z" transform="translate(-58.066 -339.284)" fill="#ffd89e"/>
          </g>
        </g>
        <g id="Grupo_1202267" data-name="Grupo 1202267" transform="translate(10.24 29.581)">
          <g id="Grupo_1202266" data-name="Grupo 1202266" transform="translate(0 0)">
            <path id="Trazado_1049652" data-name="Trazado 1049652" d="M105.964,265.78a2.226,2.226,0,0,0-2.226,2.226v-2.184a2.226,2.226,0,1,0-4.452,0v-2.106a2.226,2.226,0,0,0-4.452,0v-6.756a2.226,2.226,0,1,0-4.452,0v22.992a4.675,4.675,0,0,0,4.675,4.675h8.458a4.675,4.675,0,0,0,4.675-4.675V268.006A2.226,2.226,0,0,0,105.964,265.78Z" transform="translate(-90.382 -254.735)" fill="#ffd89e"/>
          </g>
        </g>
        <g id="Grupo_1202269" data-name="Grupo 1202269" transform="translate(10.339 40.626)">
          <g id="Grupo_1202268" data-name="Grupo 1202268" transform="translate(0)">
            <path id="Trazado_1049653" data-name="Trazado 1049653" d="M106.669,344.135a2.225,2.225,0,0,0-2.1,1.488V354.6a4.675,4.675,0,0,1-4.675,4.675H91.437c-.084,0-.168,0-.251-.007a4.676,4.676,0,0,0,4.576,3.713h8.458a4.675,4.675,0,0,0,4.675-4.675V346.361a2.226,2.226,0,0,0-2.226-2.226Z" transform="translate(-91.186 -344.135)" fill="#ffc479"/>
          </g>
        </g>
      </g>
      <g id="Grupo_1202271" data-name="Grupo 1202271" transform="translate(0 7.813)">
        <path id="Trazado_1049654" data-name="Trazado 1049654" d="M28.831,25.646a8.916,8.916,0,1,0-8.916-8.916A8.926,8.926,0,0,0,28.831,25.646Zm0-15.98a7.063,7.063,0,1,1-7.063,7.063A7.071,7.071,0,0,1,28.831,9.666Z" transform="translate(-17.454 -7.813)"/>
        <path id="Trazado_1049655" data-name="Trazado 1049655" d="M63.977,84.643a4.854,4.854,0,0,0,3.749-1.763A.927.927,0,0,0,66.3,81.7a3.014,3.014,0,0,1-4.644,0,.927.927,0,0,0-1.427,1.183A4.854,4.854,0,0,0,63.977,84.643Z" transform="translate(-52.6 -72.275)"/>
        <path id="Trazado_1049656" data-name="Trazado 1049656" d="M60,56.782a.927.927,0,0,0,1.711-.709A.927.927,0,0,0,60,56.782Z" transform="translate(-52.52 -49.62)"/>
        <path id="Trazado_1049657" data-name="Trazado 1049657" d="M109.142,56.783a.927.927,0,0,0,1.711-.709A.927.927,0,0,0,109.142,56.783Z" transform="translate(-95.585 -49.621)"/>
        <path id="Trazado_1049658" data-name="Trazado 1049658" d="M192.748,25.646a8.916,8.916,0,1,0-8.916-8.916A8.926,8.926,0,0,0,192.748,25.646Zm0-15.98a7.063,7.063,0,1,1-7.063,7.063A7.071,7.071,0,0,1,192.748,9.666Z" transform="translate(-161.119 -7.813)"/>
        <path id="Trazado_1049659" data-name="Trazado 1049659" d="M224.267,80.78a.927.927,0,0,0,1.3-.122,3.014,3.014,0,0,1,4.644,0,.927.927,0,0,0,1.427-1.183,4.867,4.867,0,0,0-7.5,0A.927.927,0,0,0,224.267,80.78Z" transform="translate(-196.265 -69.076)"/>
        <path id="Trazado_1049660" data-name="Trazado 1049660" d="M223.942,56.687a.922.922,0,1,0,1.511-1.01A.922.922,0,0,0,223.942,56.687Z" transform="translate(-196.204 -49.525)"/>
        <path id="Trazado_1049661" data-name="Trazado 1049661" d="M273.074,56.687a.922.922,0,1,0,1.511-1.01A.922.922,0,0,0,273.074,56.687Z" transform="translate(-239.266 -49.526)"/>
        <path id="Trazado_1049662" data-name="Trazado 1049662" d="M356.665,26.8a8.917,8.917,0,0,0,1.8-17.652.927.927,0,1,0-.372,1.816,7.062,7.062,0,1,1-4.108.384.927.927,0,0,0-.7-1.714A8.918,8.918,0,0,0,356.665,26.8Z" transform="translate(-304.784 -8.963)"/>
        <path id="Trazado_1049663" data-name="Trazado 1049663" d="M437.053,60.515a.926.926,0,0,0,1.541-1.028A.926.926,0,0,0,437.053,60.515Z" transform="translate(-382.907 -52.743)"/>
        <path id="Trazado_1049664" data-name="Trazado 1049664" d="M387.92,60.512a.926.926,0,0,0,1.541-1.028A.926.926,0,0,0,387.92,60.512Z" transform="translate(-339.844 -52.74)"/>
        <path id="Trazado_1049665" data-name="Trazado 1049665" d="M387.85,85.939a.927.927,0,0,0,.927.927h6.071a.927.927,0,1,0,0-1.853h-6.071A.927.927,0,0,0,387.85,85.939Z" transform="translate(-339.931 -75.474)"/>
        <path id="Trazado_1049666" data-name="Trazado 1049666" d="M59.979,176.139H3.279A3.283,3.283,0,0,0,0,179.418v2.141a3.283,3.283,0,0,0,3.279,3.279H8.557a5.094,5.094,0,0,0,1.683,3.612v7.493l-2.474,2.788a6.024,6.024,0,0,0-1.519,4v3.078a6.048,6.048,0,0,0,3,5.213l1.02.593a5.609,5.609,0,0,0,5.575,5.053H24.3a5.608,5.608,0,0,0,5.6-5.6V199.121a3.152,3.152,0,0,0-4.521-2.84,3.152,3.152,0,0,0-4.468-2.176,3.153,3.153,0,0,0-4.368-2.146v-3.1c.011-.007.023-.013.034-.02a5.1,5.1,0,1,0-7.742-5.856H3.279a1.428,1.428,0,0,1-1.426-1.426v-2.141a1.428,1.428,0,0,1,1.426-1.426h56.7a1.428,1.428,0,0,1,1.426,1.426v2.141a1.428,1.428,0,0,1-1.426,1.426H22.7a.927.927,0,0,0,0,1.853h37.28a3.283,3.283,0,0,0,3.279-3.279v-2.141a3.283,3.283,0,0,0-3.279-3.279ZM8.1,205.811v-3.078a4.172,4.172,0,0,1,1.052-2.771l1.087-1.226v10.721l-.062-.036A4.188,4.188,0,0,1,8.1,205.811Zm9.744-12.279a1.3,1.3,0,0,1,1.3,1.3v8.307a.927.927,0,1,0,1.853,0v-6.2a1.3,1.3,0,0,1,2.6,0V203.9a.927.927,0,0,0,1.853,0v-4.778a1.3,1.3,0,1,1,2.6,0v11.946a3.753,3.753,0,0,1-3.749,3.749H15.842a3.753,3.753,0,0,1-3.749-3.749V188.076a1.3,1.3,0,1,1,2.6,0v13.217a.927.927,0,1,0,1.853,0v-6.461a1.3,1.3,0,0,1,1.3-1.3Zm-4.192-12.117a3.246,3.246,0,0,1,2.557,5.248,3.149,3.149,0,0,0-5.388-.411,3.246,3.246,0,0,1,2.831-4.837Z" transform="translate(0 -155.342)"/>
      </g>
    </g>
  </g>
</svg>
