<svg xmlns="http://www.w3.org/2000/svg" width="75.934" height="75.934" viewBox="0 0 75.934 75.934">
  <g id="Grupo_1202116" data-name="Grupo 1202116" transform="translate(-196 -1601.992)">
    <g id="Grupo_1201441" data-name="Grupo 1201441" transform="translate(-2 -7981.295)">
      <g id="Grupo_1183001" data-name="Grupo 1183001" transform="translate(0 8919.287)">
        <g id="Grupo_1182333" data-name="Grupo 1182333" transform="translate(-0.033 -1122)">
          <g id="Grupo_1176309" data-name="Grupo 1176309" transform="translate(0 -206)">
            <g id="Grupo_1172970" data-name="Grupo 1172970" transform="translate(-1 -9042)">
              <g id="Grupo_1171971" data-name="Grupo 1171971" transform="translate(199.033 11034)">
                <g id="Grupo_1167337" data-name="Grupo 1167337">
                  <g id="Grupo_1166720" data-name="Grupo 1166720">
                    <g id="Grupo_1164305" data-name="Grupo 1164305">
                      <g id="Grupo_1163948" data-name="Grupo 1163948">
                        <g id="Grupo_1158168" data-name="Grupo 1158168">
                          <g id="Grupo_1152576" data-name="Grupo 1152576">
                            <g id="Grupo_1148633" data-name="Grupo 1148633">
                              <g id="Grupo_1148525" data-name="Grupo 1148525">
                                <g id="Trazado_982547" data-name="Trazado 982547">
                                  <path id="Trazado_1045808" data-name="Trazado 1045808" d="M37.967,74.434A36.477,36.477,0,0,1,23.773,4.365a36.477,36.477,0,0,1,28.388,67.2A36.239,36.239,0,0,1,37.967,74.434Z" fill="#f2f7f5"/>
                                  <path id="Trazado_1045809" data-name="Trazado 1045809" d="M37.967,3a34.977,34.977,0,0,0-13.61,67.187A34.977,34.977,0,0,0,51.576,5.747,34.745,34.745,0,0,0,37.967,3m0-3A37.967,37.967,0,1,1,0,37.967,37.967,37.967,0,0,1,37.967,0Z" fill="#4a665c"/>
                                </g>
                              </g>
                            </g>
                          </g>
                        </g>
                      </g>
                    </g>
                  </g>
                </g>
              </g>
            </g>
          </g>
        </g>
      </g>
    </g>
    <g id="mercadeo-en-linea" transform="translate(211.194 1615.459)">
      <path id="Trazado_1049094" data-name="Trazado 1049094" d="M152.5,440H170.08v4.407H152.5Zm0,0" transform="translate(-138.493 -399.598)" fill="#969faa"/>
      <path id="Trazado_1049095" data-name="Trazado 1049095" d="M21.728,136H10.938A2.938,2.938,0,0,0,8,138.938v22.037a2.938,2.938,0,0,0,2.938,2.938h38.2a2.938,2.938,0,0,0,2.938-2.938V138.938A2.938,2.938,0,0,0,49.136,136Zm0,0" transform="translate(-7.265 -123.512)" fill="#69d6f4"/>
      <path id="Trazado_1049096" data-name="Trazado 1049096" d="M245.142,136h14.692a2.938,2.938,0,0,1,2.938,2.938v20.568H240Zm0,0" transform="translate(-217.962 -123.512)" fill="#4fc1e9"/>
      <path id="Trazado_1049097" data-name="Trazado 1049097" d="M8,393.469a2.938,2.938,0,0,0,2.938,2.938h38.2a2.938,2.938,0,0,0,2.938-2.938V392H8Zm0,0" transform="translate(-7.265 -356.006)" fill="#656d78"/>
      <path id="Trazado_1049098" data-name="Trazado 1049098" d="M152.5,440H170.08v1.469H152.5Zm0,0" transform="translate(-138.493 -399.598)" fill="#838f9b"/>
      <path id="Trazado_1049099" data-name="Trazado 1049099" d="M169.63,16.815A8.815,8.815,0,1,1,160.815,8,8.815,8.815,0,0,1,169.63,16.815Zm0,0" transform="translate(-138.043 -7.265)" fill="#69d6f4"/>
      <path id="Trazado_1049100" data-name="Trazado 1049100" d="M136,168l1.109,7.761a2.938,2.938,0,0,0,2.909,2.523h16.551L158.037,168Zm0,0" transform="translate(-123.512 -152.574)" fill="#fcd770"/>
      <path id="Trazado_1049101" data-name="Trazado 1049101" d="M156.775,15.713a3.763,3.763,0,0,1,2.66-1.1h.77a3.749,3.749,0,0,1,1.189.193l1.362.454a1.7,1.7,0,0,0,.54.088h.219a1.707,1.707,0,0,0,.539-3.327l-.452-.151C161.937,11.313,160.815,8,160.815,8A8.815,8.815,0,0,0,152,16.815h2.115a3.763,3.763,0,0,0,2.66-1.1Zm0,0" transform="translate(-138.043 -7.265)" fill="#b4dd7f"/>
      <path id="Trazado_1049102" data-name="Trazado 1049102" d="M197.6,99.416a8.758,8.758,0,0,0,8.7-10.17l-2.383,2.383a1.5,1.5,0,0,1-1.063.441h-.812a1.5,1.5,0,0,0-1.5,1.5,1.435,1.435,0,0,1-2.63.8l-.367-.55a2.278,2.278,0,0,0-4.086.638l-.951,3.327A8.763,8.763,0,0,0,197.6,99.416Zm0,0" transform="translate(-174.828 -81.051)" fill="#b4dd7f"/>
      <path id="Trazado_1049103" data-name="Trazado 1049103" d="M308.408,314.2a2.2,2.2,0,1,1-2.2-2.2A2.2,2.2,0,0,1,308.408,314.2Zm0,0" transform="translate(-276.086 -283.351)" fill="#fcd770"/>
      <path id="Trazado_1049104" data-name="Trazado 1049104" d="M140.407,314.2a2.2,2.2,0,1,1-2.2-2.2A2.2,2.2,0,0,1,140.407,314.2Zm0,0" transform="translate(-123.512 -283.351)" fill="#fcd770"/>
      <path id="Trazado_1049105" data-name="Trazado 1049105" d="M392.26,56h-4.408l-.419,2.938h4.827a1.469,1.469,0,0,0,0-2.938Zm0,0" transform="translate(-351.858 -50.858)" fill="#ff826e"/>
      <path id="Trazado_1049106" data-name="Trazado 1049106" d="M41.871,11.753H35.792l.419-2.938H40.4a2.2,2.2,0,0,0,0-4.407H35.358l-1.049,7.346H32.054a9.549,9.549,0,1,0-18.565,0H3.673A3.677,3.677,0,0,0,0,15.426V37.463a3.677,3.677,0,0,0,3.673,3.673h9.55v2.938H10.284v1.469H35.26V44.075H32.322V41.136h9.55a3.677,3.677,0,0,0,3.673-3.673V15.426a3.677,3.677,0,0,0-3.673-3.673Zm-5.24-5.877H40.4a.735.735,0,0,1,0,1.469h-3.98ZM34.1,13.222l-.21,1.469H30.806a9.507,9.507,0,0,0,.781-1.475v.006ZM32.419,24.976H16.506a2.214,2.214,0,0,1-2.181-1.892l-.99-6.923H15.9a9.512,9.512,0,0,0,13.75,0h4.032ZM22.772,17.63a8.02,8.02,0,0,1-4.241-1.215l.8-2.807a1.544,1.544,0,0,1,2.769-.433l.367.55a2.17,2.17,0,0,0,3.976-1.2.769.769,0,0,1,.768-.768h.812a2.221,2.221,0,0,0,1.583-.656L30.836,9.87a8.083,8.083,0,0,1-8.063,7.76ZM30.69,7.939l-2.121,2.121a.764.764,0,0,1-.544.225h-.812a2.24,2.24,0,0,0-2.237,2.237.7.7,0,0,1-1.284.389l-.367-.55a3.013,3.013,0,0,0-5.4.844l-.643,2.253a8.055,8.055,0,0,1-2.548-5.173h1.343a4.468,4.468,0,0,0,3.179-1.317,3.048,3.048,0,0,1,2.141-.887h.77a3.026,3.026,0,0,1,.957.155l1.362.454a2.435,2.435,0,0,0,.772.126h.22a2.442,2.442,0,0,0,.772-4.759L25.792,3.9a3.328,3.328,0,0,1-2.183-2.392A8.1,8.1,0,0,1,30.69,7.939ZM22.1,1.5a4.8,4.8,0,0,0,3.228,3.8l.452.151a.973.973,0,0,1-.307,1.9h-.22a.949.949,0,0,1-.307-.05l-1.362-.454a4.48,4.48,0,0,0-1.422-.231h-.77a4.468,4.468,0,0,0-3.179,1.317,3.048,3.048,0,0,1-2.141.887H14.729A8.087,8.087,0,0,1,22.1,1.5ZM3.673,13.222H13.959a9.421,9.421,0,0,0,.779,1.469h-3.1l1.229,8.6a3.691,3.691,0,0,0,3.636,3.154H33.056a.735.735,0,0,1,0,1.469H14.692a2.938,2.938,0,1,0,2.938,2.938,2.906,2.906,0,0,0-.409-1.469H27.589a2.9,2.9,0,0,0-.409,1.469,2.938,2.938,0,0,0,5.877,0,2.906,2.906,0,0,0-.409-1.469h.409a2.2,2.2,0,0,0,.824-4.244l1.7-11.916h6.289a2.207,2.207,0,0,1,2.2,2.2V35.26H1.469V15.426a2.207,2.207,0,0,1,2.2-2.2Zm27.914,17.63a1.469,1.469,0,1,1-1.469-1.469A1.471,1.471,0,0,1,31.587,30.852Zm-15.426,0a1.469,1.469,0,1,1-1.469-1.469A1.471,1.471,0,0,1,16.161,30.852ZM30.852,44.075H14.692V41.136H30.852Zm11.019-4.407H3.673a2.207,2.207,0,0,1-2.2-2.2v-.735H44.075v.735A2.207,2.207,0,0,1,41.871,39.667Zm0,0" transform="translate(0)"/>
    </g>
  </g>
</svg>
