<svg xmlns="http://www.w3.org/2000/svg" xmlns:xlink="http://www.w3.org/1999/xlink" width="110" height="110" viewBox="0 0 110 110">
  <defs>
    <filter id="Trazado_982547" x="0" y="0" width="110" height="110" filterUnits="userSpaceOnUse">
      <feOffset dy="3" input="SourceAlpha"/>
      <feGaussianBlur stdDeviation="3" result="blur"/>
      <feFlood flood-opacity="0.161"/>
      <feComposite operator="in" in2="blur"/>
      <feComposite in="SourceGraphic"/>
    </filter>
  </defs>
  <g id="Grupo_1201823" data-name="Grupo 1201823" transform="translate(-959 -1502.313)">
    <g id="Grupo_1201341" data-name="Grupo 1201341" transform="translate(161 75)">
      <g id="Grupo_1179215" data-name="Grupo 1179215" transform="translate(1 -2794.687)">
        <g id="Grupo_1171898" data-name="Grupo 1171898" transform="translate(806 4228)">
          <g id="Grupo_1164700" data-name="Grupo 1164700" transform="translate(0 0)">
            <g id="Grupo_1160931" data-name="Grupo 1160931" transform="translate(0 0)">
              <g id="Grupo_1160749" data-name="Grupo 1160749" transform="translate(0 0)">
                <g id="Grupo_1158891" data-name="Grupo 1158891" transform="translate(0 0)">
                  <g id="Grupo_1157406" data-name="Grupo 1157406" transform="translate(0 0)">
                    <g id="Grupo_1155793" data-name="Grupo 1155793">
                      <g id="Grupo_1154704" data-name="Grupo 1154704">
                        <g id="Grupo_1150790" data-name="Grupo 1150790">
                          <g id="Grupo_1154214" data-name="Grupo 1154214">
                            <g id="Grupo_1152583" data-name="Grupo 1152583">
                              <g id="Grupo_1146973" data-name="Grupo 1146973">
                                <g id="Grupo_1146954" data-name="Grupo 1146954">
                                  <g transform="matrix(1, 0, 0, 1, -9, -6)" filter="url(#Trazado_982547)">
                                    <g id="Trazado_982547-2" data-name="Trazado 982547" transform="translate(9 6)" fill="#f2f7f5">
                                      <path d="M 46.00000762939453 90.49987030029297 C 39.99188613891602 90.49987030029297 34.16427612304688 89.32350921630859 28.67906188964844 87.00345611572266 C 23.38020706176758 84.76224517822266 18.62104797363281 81.55341339111328 14.53375434875488 77.46613311767578 C 10.44647407531738 73.37885284423828 7.237647533416748 68.61969757080078 4.996420860290527 63.32085418701172 C 2.676367521286011 57.83565521240234 1.500007629394531 52.008056640625 1.500007629394531 45.99993515014648 C 1.500007629394531 39.99181365966797 2.676367521286011 34.16421508789062 4.996420860290527 28.67901420593262 C 7.237647533416748 23.38017463684082 10.44647407531738 18.62101554870605 14.53375434875488 14.53373527526855 C 18.62104797363281 10.44645500183105 23.38020706176758 7.23762845993042 28.67906188964844 4.996415138244629 C 34.16427612304688 2.676361799240112 39.99188613891602 1.500001788139343 46.00000762939453 1.500001788139343 C 52.00812911987305 1.500001788139343 57.83573913574219 2.676361799240112 63.32095336914062 4.996415138244629 C 68.61980438232422 7.23762845993042 73.37896728515625 10.44645500183105 77.46626281738281 14.53373527526855 C 81.55354309082031 18.62101554870605 84.76236724853516 23.38017463684082 87.00359344482422 28.67901420593262 C 89.32364654541016 34.16421508789062 90.50000762939453 39.99181365966797 90.50000762939453 45.99993515014648 C 90.50000762939453 52.008056640625 89.32364654541016 57.83565521240234 87.00359344482422 63.32085418701172 C 84.76236724853516 68.61969757080078 81.55354309082031 73.37885284423828 77.46626281738281 77.46613311767578 C 73.37896728515625 81.55341339111328 68.61980438232422 84.76224517822266 63.32095336914062 87.00345611572266 C 57.83573913574219 89.32350921630859 52.00812911987305 90.49987030029297 46.00000762939453 90.49987030029297 Z" stroke="none"/>
                                      <path d="M 46.00000762939453 2.999992370605469 C 40.19372177124023 2.999992370605469 34.56270599365234 4.136489868164062 29.26339340209961 6.377906799316406 C 24.14333343505859 8.543502807617188 19.54443359375 11.64437866210938 15.59442138671875 15.59437561035156 C 11.6444091796875 19.54439544677734 8.543533325195312 24.14329528808594 6.377937316894531 29.26333618164062 C 4.136505126953125 34.56264877319336 3.000007629394531 40.19366455078125 3.000007629394531 45.99993515014648 C 3.000007629394531 51.80620574951172 4.136505126953125 57.43720626831055 6.377937316894531 62.73651885986328 C 8.543533325195312 67.8565673828125 11.6444091796875 72.45545959472656 15.59442138671875 76.40547943115234 C 19.54443359375 80.35547637939453 24.14333343505859 83.45635223388672 29.26339340209961 85.6219482421875 C 34.56270599365234 87.86336517333984 40.19372177124023 88.99986267089844 46.00000762939453 88.99986267089844 C 51.80629348754883 88.99986267089844 57.43730926513672 87.86336517333984 62.73663711547852 85.6219482421875 C 67.85668182373047 83.45635223388672 72.45559692382812 80.35547637939453 76.40560913085938 76.40547943115234 C 80.35560607910156 72.45545959472656 83.45649719238281 67.8565673828125 85.62209320068359 62.73651885986328 C 87.86351013183594 57.43720626831055 89.00000762939453 51.80620574951172 89.00000762939453 45.99993515014648 C 89.00000762939453 40.19366455078125 87.86351013183594 34.56264877319336 85.62209320068359 29.26333618164062 C 83.45649719238281 24.14329528808594 80.35560607910156 19.54439544677734 76.40560913085938 15.59437561035156 C 72.45559692382812 11.64437866210938 67.85668182373047 8.543502807617188 62.73663711547852 6.377906799316406 C 57.43730926513672 4.136489868164062 51.80629348754883 2.999992370605469 46.00000762939453 2.999992370605469 M 46.00000762939453 -7.62939453125e-06 C 71.40510559082031 -7.62939453125e-06 92.00000762939453 20.59486389160156 92.00000762939453 45.99993515014648 C 92.00000762939453 71.40499114990234 71.40510559082031 91.99986267089844 46.00000762939453 91.99986267089844 C 20.59492492675781 91.99986267089844 7.62939453125e-06 71.40499114990234 7.62939453125e-06 45.99993515014648 C 7.62939453125e-06 20.59486389160156 20.59492492675781 -7.62939453125e-06 46.00000762939453 -7.62939453125e-06 Z" stroke="none" fill="#4a665c"/>
                                    </g>
                                  </g>
                                </g>
                              </g>
                            </g>
                          </g>
                        </g>
                      </g>
                    </g>
                  </g>
                </g>
              </g>
            </g>
          </g>
        </g>
      </g>
    </g>
    <g id="informe-financiero_1_" data-name="informe-financiero (1)" transform="translate(986.583 1526.896)">
      <g id="Grupo_1201840" data-name="Grupo 1201840" transform="translate(0.884 0.884)">
        <g id="Grupo_1201825" data-name="Grupo 1201825" transform="translate(0 37.146)">
          <path id="Trazado_1048723" data-name="Trazado 1048723" d="M24,43V55.382H1V43H24Z" transform="translate(-1 -43)" fill="#b4dd7f"/>
        </g>
        <g id="Grupo_1201826" data-name="Grupo 1201826" transform="translate(22.995 37.146)">
          <path id="Trazado_1048724" data-name="Trazado 1048724" d="M32.307,43.884V54.5a.887.887,0,0,1-.884.884H27V43h4.422A.887.887,0,0,1,32.307,43.884Z" transform="translate(-27 -43)" fill="#8cc152"/>
        </g>
        <g id="Grupo_1201827" data-name="Grupo 1201827" transform="translate(5.395 0.088)">
          <path id="Trazado_1048725" data-name="Trazado 1048725" d="M14.087,1.1V8.087H7.1a.718.718,0,0,1,.168-.256l6.562-6.562a.718.718,0,0,1,.256-.168Z" transform="translate(-7.1 -1.1)" fill="#fcd770"/>
        </g>
        <g id="Grupo_1201828" data-name="Grupo 1201828" transform="translate(5.307)">
          <path id="Trazado_1048726" data-name="Trazado 1048726" d="M37.071,11.038a12.383,12.383,0,0,0,5.307,23.57H37.8A9.107,9.107,0,0,0,30,39.031a.887.887,0,0,0-.884-.884H7V34.387a7.286,7.286,0,0,0,1.769.221,7.075,7.075,0,1,0,0-14.151A7.287,7.287,0,0,0,7,20.679V8.438a.865.865,0,0,1,.08-.363h7v-7A.865.865,0,0,1,14.438,1H36.186a.887.887,0,0,1,.884.884Z" transform="translate(-7 -1)" fill="#e6e9ed"/>
        </g>
        <g id="Grupo_1201829" data-name="Grupo 1201829" transform="translate(38.915 37.093)">
          <path id="Trazado_1048727" data-name="Trazado 1048727" d="M49.944,42.94l.009.088a1.776,1.776,0,0,0-.893.486,1.729,1.729,0,0,0-.522,1.247,1.774,1.774,0,0,0,1.769,1.769A1.782,1.782,0,0,0,48.538,48.3a1.774,1.774,0,0,0,1.769,1.769,1.782,1.782,0,0,0-1.769,1.769,1.774,1.774,0,0,0,1.769,1.769,1.782,1.782,0,0,0-1.769,1.769,1.774,1.774,0,0,0,1.769,1.769,1.774,1.774,0,0,1-1.769,1.769H46.769A1.774,1.774,0,0,1,45,57.144V44.921a6.132,6.132,0,0,0,1.769-1.928h2.653a2.548,2.548,0,0,0,.522-.053Z" transform="translate(-45 -42.94)" fill="#b27946"/>
        </g>
        <g id="Grupo_1201830" data-name="Grupo 1201830" transform="translate(28.302 33.608)">
          <path id="Trazado_1048728" data-name="Trazado 1048728" d="M43.613,52.266v4.422H39.4A9.065,9.065,0,0,1,33,54.035V43.422A9.107,9.107,0,0,1,40.81,39H49.8a.887.887,0,0,1,.884.884,2.647,2.647,0,0,1-.778,1.875,2.6,2.6,0,0,1-1.353.725,2.548,2.548,0,0,1-.522.053H45.382a6.132,6.132,0,0,1-1.769,1.928Z" transform="translate(-33 -39)" fill="#f0d0b4"/>
        </g>
        <g id="Grupo_1201831" data-name="Grupo 1201831" transform="translate(42.453 37.146)">
          <path id="Trazado_1048729" data-name="Trazado 1048729" d="M52.538,43a1.774,1.774,0,0,1,1.769,1.769,1.782,1.782,0,0,1-1.769,1.769H50.769A1.774,1.774,0,0,1,49,44.769a1.729,1.729,0,0,1,.522-1.247,1.776,1.776,0,0,1,.893-.486A1.549,1.549,0,0,1,50.769,43Z" transform="translate(-49 -43)" fill="#f0d0b4"/>
        </g>
        <g id="Grupo_1201832" data-name="Grupo 1201832" transform="translate(42.453 40.684)">
          <path id="Trazado_1048730" data-name="Trazado 1048730" d="M52.538,47a1.774,1.774,0,0,1,1.769,1.769,1.782,1.782,0,0,1-1.769,1.769H50.769A1.774,1.774,0,0,1,49,48.769,1.782,1.782,0,0,1,50.769,47Z" transform="translate(-49 -47)" fill="#f0d0b4"/>
        </g>
        <g id="Grupo_1201833" data-name="Grupo 1201833" transform="translate(42.453 47.759)">
          <path id="Trazado_1048731" data-name="Trazado 1048731" d="M52.538,55a1.774,1.774,0,0,1,1.769,1.769,1.782,1.782,0,0,1-1.769,1.769H50.769A1.774,1.774,0,0,1,49,56.769,1.782,1.782,0,0,1,50.769,55Z" transform="translate(-49 -55)" fill="#f0d0b4"/>
        </g>
        <g id="Grupo_1201834" data-name="Grupo 1201834" transform="translate(42.453 44.222)">
          <path id="Trazado_1048732" data-name="Trazado 1048732" d="M52.538,51a1.774,1.774,0,0,1,1.769,1.769,1.782,1.782,0,0,1-1.769,1.769H50.769A1.774,1.774,0,0,1,49,52.769,1.782,1.782,0,0,1,50.769,51Z" transform="translate(-49 -51)" fill="#f0d0b4"/>
        </g>
        <g id="Grupo_1201835" data-name="Grupo 1201835" transform="translate(7.075 21.527)">
          <path id="Trazado_1048733" data-name="Trazado 1048733" d="M14.006,25.34A7.079,7.079,0,0,1,9,37.421V30.346Z" transform="translate(-9 -25.34)" fill="#ef7385"/>
        </g>
        <g id="Grupo_1201836" data-name="Grupo 1201836" transform="translate(2.07 19.457)">
          <path id="Trazado_1048734" data-name="Trazado 1048734" d="M13.352,25.07,8.346,30.075,3.34,25.07a7.183,7.183,0,0,1,3.237-1.848A7.287,7.287,0,0,1,8.346,23,7.088,7.088,0,0,1,13.352,25.07Z" transform="translate(-3.34 -23)" fill="#b4dd7f"/>
        </g>
        <g id="Grupo_1201837" data-name="Grupo 1201837" transform="translate(0 21.527)">
          <path id="Trazado_1048735" data-name="Trazado 1048735" d="M8.075,30.346v7.075A7.286,7.286,0,0,1,6.307,37.2,7.083,7.083,0,0,1,3.07,25.34Z" transform="translate(-1 -25.34)" fill="#ffeaa7"/>
        </g>
        <g id="Grupo_1201838" data-name="Grupo 1201838" transform="translate(28.302 8.844)">
          <path id="Trazado_1048736" data-name="Trazado 1048736" d="M45.382,11a12.38,12.38,0,1,1-5.307,1.194A12.384,12.384,0,0,1,45.382,11Zm8.844,12.382a8.844,8.844,0,1,0-8.844,8.844A8.848,8.848,0,0,0,54.226,23.382Z" transform="translate(-33 -11)" fill="#ffeaa7"/>
        </g>
        <g id="Grupo_1201839" data-name="Grupo 1201839" transform="translate(31.84 12.382)">
          <ellipse id="Elipse_14285" data-name="Elipse 14285" cx="8.5" cy="9" rx="8.5" ry="9" transform="translate(0.276 -0.266)" fill="#fcd770"/>
        </g>
      </g>
      <g id="Grupo_1201841" data-name="Grupo 1201841">
        <path id="Trazado_1048737" data-name="Trazado 1048737" d="M47.538,19.932V18H45.769v1.769H44v2.653a2.657,2.657,0,0,0,2.653,2.653.886.886,0,0,1,.884.884v.884h-.884a.886.886,0,0,1-.884-.884v-.884H44v.884a2.65,2.65,0,0,0,1.769,2.491v1.932h1.769V28.613h1.769V25.96a2.657,2.657,0,0,0-2.653-2.653.886.886,0,0,1-.884-.884v-.884h.884a.886.886,0,0,1,.884.884v.884h1.769v-.884A2.65,2.65,0,0,0,47.538,19.932Z" transform="translate(-5.085 -2.08)"/>
        <path id="Trazado_1048738" data-name="Trazado 1048738" d="M45.729,14a9.729,9.729,0,1,0,9.729,9.729A9.74,9.74,0,0,0,45.729,14Zm0,17.689a7.96,7.96,0,1,1,7.96-7.96A7.97,7.97,0,0,1,45.729,31.689Z" transform="translate(-4.16 -1.618)"/>
        <path id="Trazado_1048739" data-name="Trazado 1048739" d="M54.835,22.111A13.23,13.23,0,0,0,37.146,9.618V1.769A1.771,1.771,0,0,0,35.377,0H13.633a1.757,1.757,0,0,0-1.251.518L5.825,7.075a1.757,1.757,0,0,0-.518,1.251v11.6a7.947,7.947,0,0,0,0,14.991v2.233H.884v1.769H23V49.528H.884V51.3H28.3a1.748,1.748,0,0,0,1.1-.4,9.859,9.859,0,0,0,6.187,2.166h3.486a2.65,2.65,0,0,0,2.491,1.769h1.769a2.65,2.65,0,0,0,2.491-1.769h1.046a2.642,2.642,0,0,0,1.963-4.422,2.613,2.613,0,0,0,0-3.538,2.613,2.613,0,0,0,0-3.538,2.632,2.632,0,0,0-1.591-4.385,3.5,3.5,0,0,0,.512-1.806,1.761,1.761,0,0,0-.55-1.276A13.271,13.271,0,0,0,54.835,22.111ZM12.382,3.019V7.075H8.326ZM8.844,27.784l4.067-4.067a6.171,6.171,0,0,1-4.067,9.821ZM7.96,26.167l-3.7-3.7a6.142,6.142,0,0,1,7.4,0ZM1.769,27.417a6.149,6.149,0,0,1,1.24-3.7l4.067,4.067v5.754A6.2,6.2,0,0,1,1.769,27.417ZM28.3,49.528H24.764V38.915H28.3ZM7.075,37.146V35.325a7.96,7.96,0,1,0,0-15.815V8.844h7.075V1.769H35.377v8.618a13.256,13.256,0,0,0-.112,23.394,10.062,10.062,0,0,0-6.09,3.6,1.748,1.748,0,0,0-.873-.24Zm36.262,15.92H41.568a.885.885,0,0,1-.884-.884V40.42a5.572,5.572,0,0,0,1.4-1.505h.532a2.572,2.572,0,0,0,.527,2.653,2.613,2.613,0,0,0,0,3.538,2.613,2.613,0,0,0,0,3.538,2.628,2.628,0,0,0,.825,4.155.88.88,0,0,1-.631.267Zm4.422-9.729a.885.885,0,0,1-.884.884H45.106a.884.884,0,1,1,0-1.769h1.769A.885.885,0,0,1,47.759,43.337Zm0,3.538a.885.885,0,0,1-.884.884H45.106a.884.884,0,1,1,0-1.769h1.769A.885.885,0,0,1,47.759,46.875ZM46.875,51.3H45.106a.884.884,0,1,1,0-1.769h1.769a.884.884,0,1,1,0,1.769Zm.884-11.5a.885.885,0,0,1-.884.884H45.106a.884.884,0,1,1,0-1.769h1.769A.885.885,0,0,1,47.759,39.8ZM45.99,35.377a1.771,1.771,0,0,1-1.769,1.769h-3.2l-.244.489a3.864,3.864,0,0,1-2.249,1.951l-.777.259.56,1.677.6-.2v3.989a9.075,9.075,0,0,0-3.258-1.927l-.56,1.677a7.311,7.311,0,0,1,3.748,2.863l.07.105V51.3H35.592a8.112,8.112,0,0,1-5.522-2.159v-9.95A8.261,8.261,0,0,1,37,35.377Zm-4.422-1.769a11.5,11.5,0,1,1,11.5-11.5A11.511,11.511,0,0,1,41.568,33.608Z"/>
        <path id="Trazado_1048740" data-name="Trazado 1048740" d="M20,38h1.769v1.769H20Z" transform="translate(-2.311 -4.392)"/>
        <path id="Trazado_1048741" data-name="Trazado 1048741" d="M24,38h1.769v1.769H24Z" transform="translate(-2.774 -4.392)"/>
        <path id="Trazado_1048742" data-name="Trazado 1048742" d="M28,38h1.769v1.769H28Z" transform="translate(-3.236 -4.392)"/>
        <path id="Trazado_1048743" data-name="Trazado 1048743" d="M20,34h8.844v1.769H20Z" transform="translate(-2.311 -3.929)"/>
        <path id="Trazado_1048744" data-name="Trazado 1048744" d="M20,30h8.844v1.769H20Z" transform="translate(-2.311 -3.467)"/>
        <path id="Trazado_1048745" data-name="Trazado 1048745" d="M20,26h3.538v1.769H20Z" transform="translate(-2.311 -3.005)"/>
        <path id="Trazado_1048746" data-name="Trazado 1048746" d="M26,26h3.538v1.769H26Z" transform="translate(-3.005 -3.005)"/>
        <path id="Trazado_1048747" data-name="Trazado 1048747" d="M20,6h3.538V7.769H20Z" transform="translate(-2.311 -0.693)"/>
        <path id="Trazado_1048748" data-name="Trazado 1048748" d="M26,6h8.844V7.769H26Z" transform="translate(-3.005 -0.693)"/>
        <path id="Trazado_1048749" data-name="Trazado 1048749" d="M22,10H34.382v1.769H22Z" transform="translate(-2.543 -1.156)"/>
        <path id="Trazado_1048750" data-name="Trazado 1048750" d="M12,14H31.457v1.769H12Z" transform="translate(-1.387 -1.618)"/>
        <path id="Trazado_1048751" data-name="Trazado 1048751" d="M12,18H29.689v1.769H12Z" transform="translate(-1.387 -2.08)"/>
      </g>
    </g>
  </g>
</svg>
