<svg xmlns="http://www.w3.org/2000/svg" xmlns:xlink="http://www.w3.org/1999/xlink" width="110" height="110" viewBox="0 0 110 110">
  <defs>
    <filter id="Trazado_982547" x="0" y="0" width="110" height="110" filterUnits="userSpaceOnUse">
      <feOffset dy="3" input="SourceAlpha"/>
      <feGaussianBlur stdDeviation="3" result="blur"/>
      <feFlood flood-opacity="0.161"/>
      <feComposite operator="in" in2="blur"/>
      <feComposite in="SourceGraphic"/>
    </filter>
  </defs>
  <g id="Grupo_1202278" data-name="Grupo 1202278" transform="translate(-1114 -2309.513)">
    <g id="Grupo_1201487" data-name="Grupo 1201487" transform="translate(0 882.442)">
      <g id="Grupo_1179216" data-name="Grupo 1179216" transform="translate(1 -2794.687)">
        <g id="Grupo_1172349" data-name="Grupo 1172349" transform="translate(1122 4227.757)">
          <g id="Grupo_1164700" data-name="Grupo 1164700" transform="translate(0 0)">
            <g id="Grupo_1160931" data-name="Grupo 1160931" transform="translate(0 0)">
              <g id="Grupo_1160749" data-name="Grupo 1160749" transform="translate(0 0)">
                <g id="Grupo_1158891" data-name="Grupo 1158891" transform="translate(0 0)">
                  <g id="Grupo_1157406" data-name="Grupo 1157406" transform="translate(0 0)">
                    <g id="Grupo_1155793" data-name="Grupo 1155793">
                      <g id="Grupo_1154704" data-name="Grupo 1154704">
                        <g id="Grupo_1150790" data-name="Grupo 1150790">
                          <g id="Grupo_1154214" data-name="Grupo 1154214">
                            <g id="Grupo_1152583" data-name="Grupo 1152583">
                              <g id="Grupo_1146973" data-name="Grupo 1146973">
                                <g id="Grupo_1146954" data-name="Grupo 1146954">
                                  <g transform="matrix(1, 0, 0, 1, -9, -6)" filter="url(#Trazado_982547)">
                                    <g id="Trazado_982547-2" data-name="Trazado 982547" transform="translate(9 6)" fill="#f2f7f5">
                                      <path d="M 46.00000762939453 90.49987030029297 C 39.99188613891602 90.49987030029297 34.16427612304688 89.32350921630859 28.67906188964844 87.00345611572266 C 23.38020706176758 84.76224517822266 18.62104797363281 81.55341339111328 14.53375434875488 77.46613311767578 C 10.44647407531738 73.37885284423828 7.237647533416748 68.61969757080078 4.996420860290527 63.32085418701172 C 2.676367521286011 57.83565521240234 1.500007629394531 52.008056640625 1.500007629394531 45.99993515014648 C 1.500007629394531 39.99181365966797 2.676367521286011 34.16421508789062 4.996420860290527 28.67901420593262 C 7.237647533416748 23.38017463684082 10.44647407531738 18.62101554870605 14.53375434875488 14.53373527526855 C 18.62104797363281 10.44645500183105 23.38020706176758 7.23762845993042 28.67906188964844 4.996415138244629 C 34.16427612304688 2.676361799240112 39.99188613891602 1.500001788139343 46.00000762939453 1.500001788139343 C 52.00812911987305 1.500001788139343 57.83573913574219 2.676361799240112 63.32095336914062 4.996415138244629 C 68.61980438232422 7.23762845993042 73.37896728515625 10.44645500183105 77.46626281738281 14.53373527526855 C 81.55354309082031 18.62101554870605 84.76236724853516 23.38017463684082 87.00359344482422 28.67901420593262 C 89.32364654541016 34.16421508789062 90.50000762939453 39.99181365966797 90.50000762939453 45.99993515014648 C 90.50000762939453 52.008056640625 89.32364654541016 57.83565521240234 87.00359344482422 63.32085418701172 C 84.76236724853516 68.61969757080078 81.55354309082031 73.37885284423828 77.46626281738281 77.46613311767578 C 73.37896728515625 81.55341339111328 68.61980438232422 84.76224517822266 63.32095336914062 87.00345611572266 C 57.83573913574219 89.32350921630859 52.00812911987305 90.49987030029297 46.00000762939453 90.49987030029297 Z" stroke="none"/>
                                      <path d="M 46.00000762939453 2.999992370605469 C 40.19372177124023 2.999992370605469 34.56270599365234 4.136489868164062 29.26339340209961 6.377906799316406 C 24.14333343505859 8.543502807617188 19.54443359375 11.64437866210938 15.59442138671875 15.59437561035156 C 11.6444091796875 19.54439544677734 8.543533325195312 24.14329528808594 6.377937316894531 29.26333618164062 C 4.136505126953125 34.56264877319336 3.000007629394531 40.19366455078125 3.000007629394531 45.99993515014648 C 3.000007629394531 51.80620574951172 4.136505126953125 57.43720626831055 6.377937316894531 62.73651885986328 C 8.543533325195312 67.8565673828125 11.6444091796875 72.45545959472656 15.59442138671875 76.40547943115234 C 19.54443359375 80.35547637939453 24.14333343505859 83.45635223388672 29.26339340209961 85.6219482421875 C 34.56270599365234 87.86336517333984 40.19372177124023 88.99986267089844 46.00000762939453 88.99986267089844 C 51.80629348754883 88.99986267089844 57.43730926513672 87.86336517333984 62.73663711547852 85.6219482421875 C 67.85668182373047 83.45635223388672 72.45559692382812 80.35547637939453 76.40560913085938 76.40547943115234 C 80.35560607910156 72.45545959472656 83.45649719238281 67.8565673828125 85.62209320068359 62.73651885986328 C 87.86351013183594 57.43720626831055 89.00000762939453 51.80620574951172 89.00000762939453 45.99993515014648 C 89.00000762939453 40.19366455078125 87.86351013183594 34.56264877319336 85.62209320068359 29.26333618164062 C 83.45649719238281 24.14329528808594 80.35560607910156 19.54439544677734 76.40560913085938 15.59437561035156 C 72.45559692382812 11.64437866210938 67.85668182373047 8.543502807617188 62.73663711547852 6.377906799316406 C 57.43730926513672 4.136489868164062 51.80629348754883 2.999992370605469 46.00000762939453 2.999992370605469 M 46.00000762939453 -7.62939453125e-06 C 71.40510559082031 -7.62939453125e-06 92.00000762939453 20.59486389160156 92.00000762939453 45.99993515014648 C 92.00000762939453 71.40499114990234 71.40510559082031 91.99986267089844 46.00000762939453 91.99986267089844 C 20.59492492675781 91.99986267089844 7.62939453125e-06 71.40499114990234 7.62939453125e-06 45.99993515014648 C 7.62939453125e-06 20.59486389160156 20.59492492675781 -7.62939453125e-06 46.00000762939453 -7.62939453125e-06 Z" stroke="none" fill="#4a665c"/>
                                    </g>
                                  </g>
                                </g>
                              </g>
                            </g>
                          </g>
                        </g>
                      </g>
                    </g>
                  </g>
                </g>
              </g>
            </g>
          </g>
        </g>
      </g>
    </g>
    <g id="grafico-de-barras_1_" data-name="grafico-de-barras (1)" transform="translate(1141 2334)">
      <g id="Grupo_1202276" data-name="Grupo 1202276" transform="translate(3.667 0.917)">
        <rect id="Rectángulo_416952" data-name="Rectángulo 416952" width="9.167" height="16.5" transform="translate(0 33)" fill="#ffaf46"/>
        <rect id="Rectángulo_416953" data-name="Rectángulo 416953" width="9.167" height="27.5" transform="translate(25.667 22)" fill="#ffaf46"/>
        <rect id="Rectángulo_416954" data-name="Rectángulo 416954" width="9.167" height="38.5" transform="translate(12.833 11)" fill="#ffaf46"/>
        <rect id="Rectángulo_416955" data-name="Rectángulo 416955" width="9.167" height="49.5" transform="translate(38.5)" fill="#ffaf46"/>
      </g>
      <g id="Grupo_1202277" data-name="Grupo 1202277">
        <rect id="Rectángulo_416956" data-name="Rectángulo 416956" width="55" height="1.833" transform="translate(0 53.167)" fill="#231f20"/>
        <path id="Trazado_1049689" data-name="Trazado 1049689" d="M35.683,325.534H26.517a.917.917,0,0,1-.917-.917v-16.5a.917.917,0,0,1,.917-.917h9.167a.917.917,0,0,1,.917.917v16.5A.917.917,0,0,1,35.683,325.534Zm-8.25-1.833h7.333V309.034H27.433Z" transform="translate(-22.85 -274.201)" fill="#231f20"/>
        <path id="Trazado_1049690" data-name="Trazado 1049690" d="M274.617,234.134h-9.167a.917.917,0,0,1-.917-.917v-27.5a.917.917,0,0,1,.917-.917h9.167a.917.917,0,0,1,.917.917v27.5A.917.917,0,0,1,274.617,234.134Zm-8.25-1.833H273.7V206.634h-7.333Z" transform="translate(-236.117 -182.801)" fill="#231f20"/>
        <path id="Trazado_1049691" data-name="Trazado 1049691" d="M155.15,142.734h-9.167a.917.917,0,0,1-.917-.917v-38.5a.917.917,0,0,1,.917-.917h9.167a.917.917,0,0,1,.917.917v38.5A.917.917,0,0,1,155.15,142.734ZM146.9,140.9h7.333V104.234H146.9Z" transform="translate(-129.484 -91.401)" fill="#231f20"/>
        <path id="Trazado_1049692" data-name="Trazado 1049692" d="M394.084,51.333h-9.167a.917.917,0,0,1-.917-.917V.917A.917.917,0,0,1,384.918,0h9.167A.917.917,0,0,1,395,.917v49.5A.917.917,0,0,1,394.084,51.333Zm-8.25-1.833h7.333V1.833h-7.333Z" transform="translate(-342.751)" fill="#231f20"/>
      </g>
    </g>
  </g>
</svg>
